M48
; DRILL file {KiCad 8.0.7} date 2024-12-28T15:19:08+0700
; FORMAT={-:-/ absolute / metric / decimal}
; #@! TF.CreationDate,2024-12-28T15:19:08+07:00
; #@! TF.GenerationSoftware,Kicad,Pcbnew,8.0.7
; #@! TF.FileFunction,Plated,1,4,PTH
FMAT,2
METRIC
; #@! TA.AperFunction,Plated,PTH,ViaDrill
T1C0.300
; #@! TA.AperFunction,Plated,PTH,ComponentDrill
T2C0.500
; #@! TA.AperFunction,Plated,PTH,ComponentDrill
T3C0.750
; #@! TA.AperFunction,Plated,PTH,ComponentDrill
T4C1.000
; #@! TA.AperFunction,Plated,PTH,ComponentDrill
T5C1.100
; #@! TA.AperFunction,Plated,PTH,ComponentDrill
T6C1.300
%
G90
G05
T1
X112.55Y-76.95
X117.9Y-110.9
X123.6Y-105.5
X123.7Y-104.5
X132.1Y-101.0
X134.7Y-91.4
X134.95Y-99.05
X136.1Y-91.2
X137.8Y-109.5
X139.2Y-84.5
X139.4Y-75.9
X139.4Y-76.9
X139.4Y-107.6
X140.0Y-81.3
X140.1Y-109.1
X140.6Y-107.6
X141.2Y-109.1
X141.8Y-107.6
X142.0Y-98.9
X142.1Y-109.1
X142.6Y-84.8
X143.6Y-71.5
X144.4Y-109.4
X144.5Y-85.2
X144.7Y-104.8
X145.0Y-74.4
X145.7Y-116.4
X146.8Y-112.2
X146.9Y-75.4
X147.0Y-91.6
X147.1Y-73.8
X147.2Y-97.7
X147.4Y-121.8
X148.1Y-101.6
X148.2Y-110.6
X148.6Y-70.2
X149.2Y-81.3
X152.1Y-80.6
X152.55Y-95.35
X152.6Y-70.7
X152.7Y-83.8
X153.0Y-97.9
X153.7Y-104.2
X154.1Y-119.7
X154.75Y-88.45
X155.8Y-80.2
X156.0Y-85.3
X156.225Y-72.75
X157.4Y-100.5
X158.3Y-75.9
X159.0Y-85.3
X159.1Y-101.8
X160.0Y-82.4
X160.8Y-80.5
X160.9Y-70.1
X161.0Y-101.9
X162.95Y-114.65
T2
X119.163Y-91.9
X119.163Y-92.9
X119.163Y-93.9
X119.163Y-94.9
X119.163Y-95.9
X119.163Y-96.9
X119.163Y-97.9
X119.163Y-98.9
T3
X167.0Y-82.45
X167.0Y-88.0
X167.0Y-93.5
X167.0Y-99.0
X167.0Y-104.5
X167.0Y-110.0
X169.0Y-82.45
X169.0Y-88.0
X169.0Y-93.5
X169.0Y-99.0
X169.0Y-104.5
X169.0Y-110.0
X171.0Y-82.45
X171.0Y-88.0
X171.0Y-93.5
X171.0Y-99.0
X171.0Y-104.5
X171.0Y-110.0
X177.0Y-77.6
X177.0Y-83.15
X177.0Y-88.65
X177.0Y-94.15
X177.0Y-99.65
X177.0Y-110.8
X177.05Y-105.15
X179.0Y-77.6
X179.0Y-83.15
X179.0Y-88.65
X179.0Y-94.15
X179.0Y-99.65
X179.0Y-110.8
X179.05Y-105.15
X181.0Y-77.6
X181.0Y-83.15
X181.0Y-88.65
X181.0Y-94.15
X181.0Y-99.65
X181.0Y-110.8
X181.05Y-105.15
T4
X113.295Y-94.13
X113.295Y-96.67
X115.7Y-80.4
X115.7Y-82.94
X119.6Y-80.44
X119.6Y-82.98
X120.21Y-108.975
X120.21Y-111.515
X120.21Y-114.055
X120.21Y-116.595
X120.7Y-68.46
X120.7Y-71.0
X120.7Y-73.54
X122.75Y-108.975
X122.75Y-111.515
X122.75Y-114.055
X122.75Y-116.595
X123.5Y-80.44
X123.5Y-82.98
X125.35Y-68.46
X125.35Y-71.0
X125.35Y-73.54
X129.2Y-78.5
X129.2Y-82.5
X130.0Y-68.46
X130.0Y-71.0
X130.0Y-73.54
X131.74Y-78.5
X131.74Y-82.5
X134.28Y-78.5
X134.28Y-82.5
X136.82Y-78.5
X136.82Y-82.5
X137.425Y-90.32
X137.425Y-92.86
X137.425Y-95.4
X137.425Y-97.94
X137.425Y-100.48
X139.965Y-90.32
X139.965Y-92.86
X139.965Y-95.4
X139.965Y-97.94
X139.965Y-100.48
T5
X112.025Y-87.78
X112.025Y-103.02
X114.565Y-87.78
X114.565Y-90.32
X114.565Y-103.02
X117.105Y-87.78
X117.105Y-103.02
X119.645Y-87.78
X119.645Y-103.02
X122.185Y-87.78
X122.185Y-103.02
X124.725Y-87.78
X124.725Y-103.02
X127.265Y-87.78
X127.265Y-103.02
X129.805Y-87.78
X129.805Y-103.02
X132.345Y-87.78
X132.345Y-103.02
X134.85Y-68.85
X134.85Y-73.35
X134.885Y-87.78
X134.885Y-103.02
X137.425Y-87.78
X137.425Y-103.02
X139.965Y-87.78
X139.965Y-103.02
X141.35Y-68.85
X141.35Y-73.35
X142.505Y-87.78
X142.505Y-103.02
X145.045Y-87.78
X145.045Y-90.32
X145.045Y-92.86
X145.045Y-95.4
X145.045Y-97.94
X145.045Y-100.48
X145.045Y-103.02
T6
X165.32Y-72.0
X170.4Y-72.0
M30
