%TF.GenerationSoftware,KiCad,Pcbnew,8.0.7*%
%TF.CreationDate,2024-12-28T15:19:10+07:00*%
%TF.ProjectId,Teensy4.0PCB,5465656e-7379-4342-9e30-5043422e6b69,rev?*%
%TF.SameCoordinates,Original*%
%TF.FileFunction,Drillmap*%
%TF.FilePolarity,Positive*%
%FSLAX45Y45*%
G04 Gerber Fmt 4.5, Leading zero omitted, Abs format (unit mm)*
G04 Created by KiCad (PCBNEW 8.0.7) date 2024-12-28 15:19:10*
%MOMM*%
%LPD*%
G01*
G04 APERTURE LIST*
%ADD10C,0.050000*%
%ADD11C,0.200000*%
%ADD12C,0.100000*%
%ADD13C,0.110000*%
%ADD14C,0.130000*%
G04 APERTURE END LIST*
D10*
X18000000Y-6620000D02*
X11400000Y-6620000D01*
X18500000Y-11920000D02*
X18500000Y-7120000D01*
X11400000Y-12420000D02*
G75*
G02*
X10900000Y-11920000I0J500000D01*
G01*
X11400000Y-12420000D02*
X18000000Y-12420000D01*
X18500000Y-11920000D02*
G75*
G02*
X18000000Y-12420000I-500000J0D01*
G01*
X10900000Y-7120000D02*
G75*
G02*
X11400000Y-6620000I500000J0D01*
G01*
X10900000Y-7120000D02*
X10900000Y-11920000D01*
X18000000Y-6620000D02*
G75*
G02*
X18500000Y-7120000I0J-500000D01*
G01*
D11*
D12*
X11240000Y-7680000D02*
X11270000Y-7710000D01*
X11270000Y-7680000D02*
X11240000Y-7710000D01*
X11775000Y-11075000D02*
X11805000Y-11105000D01*
X11805000Y-11075000D02*
X11775000Y-11105000D01*
X12345000Y-10535000D02*
X12375000Y-10565000D01*
X12375000Y-10535000D02*
X12345000Y-10565000D01*
X12355000Y-10435000D02*
X12385000Y-10465000D01*
X12385000Y-10435000D02*
X12355000Y-10465000D01*
X13195000Y-10085000D02*
X13225000Y-10115000D01*
X13225000Y-10085000D02*
X13195000Y-10115000D01*
X13455000Y-9125000D02*
X13485000Y-9155000D01*
X13485000Y-9125000D02*
X13455000Y-9155000D01*
X13480000Y-9890000D02*
X13510000Y-9920000D01*
X13510000Y-9890000D02*
X13480000Y-9920000D01*
X13595000Y-9105000D02*
X13625000Y-9135000D01*
X13625000Y-9105000D02*
X13595000Y-9135000D01*
X13765000Y-10935000D02*
X13795000Y-10965000D01*
X13795000Y-10935000D02*
X13765000Y-10965000D01*
X13905000Y-8435000D02*
X13935000Y-8465000D01*
X13935000Y-8435000D02*
X13905000Y-8465000D01*
X13925000Y-7575000D02*
X13955000Y-7605000D01*
X13955000Y-7575000D02*
X13925000Y-7605000D01*
X13925000Y-7675000D02*
X13955000Y-7705000D01*
X13955000Y-7675000D02*
X13925000Y-7705000D01*
X13925000Y-10745000D02*
X13955000Y-10775000D01*
X13955000Y-10745000D02*
X13925000Y-10775000D01*
X13985000Y-8115000D02*
X14015000Y-8145000D01*
X14015000Y-8115000D02*
X13985000Y-8145000D01*
X13995000Y-10895000D02*
X14025000Y-10925000D01*
X14025000Y-10895000D02*
X13995000Y-10925000D01*
X14045000Y-10745000D02*
X14075000Y-10775000D01*
X14075000Y-10745000D02*
X14045000Y-10775000D01*
X14105000Y-10895000D02*
X14135000Y-10925000D01*
X14135000Y-10895000D02*
X14105000Y-10925000D01*
X14165000Y-10745000D02*
X14195000Y-10775000D01*
X14195000Y-10745000D02*
X14165000Y-10775000D01*
X14185000Y-9875000D02*
X14215000Y-9905000D01*
X14215000Y-9875000D02*
X14185000Y-9905000D01*
X14195000Y-10895000D02*
X14225000Y-10925000D01*
X14225000Y-10895000D02*
X14195000Y-10925000D01*
X14245000Y-8465000D02*
X14275000Y-8495000D01*
X14275000Y-8465000D02*
X14245000Y-8495000D01*
X14345000Y-7135000D02*
X14375000Y-7165000D01*
X14375000Y-7135000D02*
X14345000Y-7165000D01*
X14425000Y-10925000D02*
X14455000Y-10955000D01*
X14455000Y-10925000D02*
X14425000Y-10955000D01*
X14435000Y-8505000D02*
X14465000Y-8535000D01*
X14465000Y-8505000D02*
X14435000Y-8535000D01*
X14455000Y-10465000D02*
X14485000Y-10495000D01*
X14485000Y-10465000D02*
X14455000Y-10495000D01*
X14485000Y-7425000D02*
X14515000Y-7455000D01*
X14515000Y-7425000D02*
X14485000Y-7455000D01*
X14555000Y-11625000D02*
X14585000Y-11655000D01*
X14585000Y-11625000D02*
X14555000Y-11655000D01*
X14665000Y-11205000D02*
X14695000Y-11235000D01*
X14695000Y-11205000D02*
X14665000Y-11235000D01*
X14675000Y-7525000D02*
X14705000Y-7555000D01*
X14705000Y-7525000D02*
X14675000Y-7555000D01*
X14685000Y-9145000D02*
X14715000Y-9175000D01*
X14715000Y-9145000D02*
X14685000Y-9175000D01*
X14695000Y-7365000D02*
X14725000Y-7395000D01*
X14725000Y-7365000D02*
X14695000Y-7395000D01*
X14705000Y-9755000D02*
X14735000Y-9785000D01*
X14735000Y-9755000D02*
X14705000Y-9785000D01*
X14725000Y-12165000D02*
X14755000Y-12195000D01*
X14755000Y-12165000D02*
X14725000Y-12195000D01*
X14795000Y-10145000D02*
X14825000Y-10175000D01*
X14825000Y-10145000D02*
X14795000Y-10175000D01*
X14805000Y-11045000D02*
X14835000Y-11075000D01*
X14835000Y-11045000D02*
X14805000Y-11075000D01*
X14845000Y-7005000D02*
X14875000Y-7035000D01*
X14875000Y-7005000D02*
X14845000Y-7035000D01*
X14905000Y-8115000D02*
X14935000Y-8145000D01*
X14935000Y-8115000D02*
X14905000Y-8145000D01*
X15195000Y-8045000D02*
X15225000Y-8075000D01*
X15225000Y-8045000D02*
X15195000Y-8075000D01*
X15240000Y-9520000D02*
X15270000Y-9550000D01*
X15270000Y-9520000D02*
X15240000Y-9550000D01*
X15245000Y-7055000D02*
X15275000Y-7085000D01*
X15275000Y-7055000D02*
X15245000Y-7085000D01*
X15255000Y-8365000D02*
X15285000Y-8395000D01*
X15285000Y-8365000D02*
X15255000Y-8395000D01*
X15285000Y-9775000D02*
X15315000Y-9805000D01*
X15315000Y-9775000D02*
X15285000Y-9805000D01*
X15355000Y-10405000D02*
X15385000Y-10435000D01*
X15385000Y-10405000D02*
X15355000Y-10435000D01*
X15395000Y-11955000D02*
X15425000Y-11985000D01*
X15425000Y-11955000D02*
X15395000Y-11985000D01*
X15460000Y-8830000D02*
X15490000Y-8860000D01*
X15490000Y-8830000D02*
X15460000Y-8860000D01*
X15565000Y-8005000D02*
X15595000Y-8035000D01*
X15595000Y-8005000D02*
X15565000Y-8035000D01*
X15585000Y-8515000D02*
X15615000Y-8545000D01*
X15615000Y-8515000D02*
X15585000Y-8545000D01*
X15607500Y-7260000D02*
X15637500Y-7290000D01*
X15637500Y-7260000D02*
X15607500Y-7290000D01*
X15725000Y-10035000D02*
X15755000Y-10065000D01*
X15755000Y-10035000D02*
X15725000Y-10065000D01*
X15815000Y-7575000D02*
X15845000Y-7605000D01*
X15845000Y-7575000D02*
X15815000Y-7605000D01*
X15885000Y-8515000D02*
X15915000Y-8545000D01*
X15915000Y-8515000D02*
X15885000Y-8545000D01*
X15895000Y-10165000D02*
X15925000Y-10195000D01*
X15925000Y-10165000D02*
X15895000Y-10195000D01*
X15985000Y-8225000D02*
X16015000Y-8255000D01*
X16015000Y-8225000D02*
X15985000Y-8255000D01*
X16065000Y-8035000D02*
X16095000Y-8065000D01*
X16095000Y-8035000D02*
X16065000Y-8065000D01*
X16075000Y-6995000D02*
X16105000Y-7025000D01*
X16105000Y-6995000D02*
X16075000Y-7025000D01*
X16085000Y-10175000D02*
X16115000Y-10205000D01*
X16115000Y-10175000D02*
X16085000Y-10205000D01*
X16280000Y-11450000D02*
X16310000Y-11480000D01*
X16310000Y-11450000D02*
X16280000Y-11480000D01*
X11941340Y-9190000D02*
G75*
G02*
X11891340Y-9190000I-25000J0D01*
G01*
X11891340Y-9190000D02*
G75*
G02*
X11941340Y-9190000I25000J0D01*
G01*
X11941340Y-9290000D02*
G75*
G02*
X11891340Y-9290000I-25000J0D01*
G01*
X11891340Y-9290000D02*
G75*
G02*
X11941340Y-9290000I25000J0D01*
G01*
X11941340Y-9390000D02*
G75*
G02*
X11891340Y-9390000I-25000J0D01*
G01*
X11891340Y-9390000D02*
G75*
G02*
X11941340Y-9390000I25000J0D01*
G01*
X11941340Y-9490000D02*
G75*
G02*
X11891340Y-9490000I-25000J0D01*
G01*
X11891340Y-9490000D02*
G75*
G02*
X11941340Y-9490000I25000J0D01*
G01*
X11941340Y-9590000D02*
G75*
G02*
X11891340Y-9590000I-25000J0D01*
G01*
X11891340Y-9590000D02*
G75*
G02*
X11941340Y-9590000I25000J0D01*
G01*
X11941340Y-9690000D02*
G75*
G02*
X11891340Y-9690000I-25000J0D01*
G01*
X11891340Y-9690000D02*
G75*
G02*
X11941340Y-9690000I25000J0D01*
G01*
X11941340Y-9790000D02*
G75*
G02*
X11891340Y-9790000I-25000J0D01*
G01*
X11891340Y-9790000D02*
G75*
G02*
X11941340Y-9790000I25000J0D01*
G01*
X11941340Y-9890000D02*
G75*
G02*
X11891340Y-9890000I-25000J0D01*
G01*
X11891340Y-9890000D02*
G75*
G02*
X11941340Y-9890000I25000J0D01*
G01*
X16700000Y-8207500D02*
X16700000Y-8282500D01*
X16662500Y-8245000D02*
X16737500Y-8245000D01*
X16700000Y-8762500D02*
X16700000Y-8837500D01*
X16662500Y-8800000D02*
X16737500Y-8800000D01*
X16700000Y-9312500D02*
X16700000Y-9387500D01*
X16662500Y-9350000D02*
X16737500Y-9350000D01*
X16700000Y-9862500D02*
X16700000Y-9937500D01*
X16662500Y-9900000D02*
X16737500Y-9900000D01*
X16700000Y-10412500D02*
X16700000Y-10487500D01*
X16662500Y-10450000D02*
X16737500Y-10450000D01*
X16700000Y-10962500D02*
X16700000Y-11037500D01*
X16662500Y-11000000D02*
X16737500Y-11000000D01*
X16900000Y-8207500D02*
X16900000Y-8282500D01*
X16862500Y-8245000D02*
X16937500Y-8245000D01*
X16900000Y-8762500D02*
X16900000Y-8837500D01*
X16862500Y-8800000D02*
X16937500Y-8800000D01*
X16900000Y-9312500D02*
X16900000Y-9387500D01*
X16862500Y-9350000D02*
X16937500Y-9350000D01*
X16900000Y-9862500D02*
X16900000Y-9937500D01*
X16862500Y-9900000D02*
X16937500Y-9900000D01*
X16900000Y-10412500D02*
X16900000Y-10487500D01*
X16862500Y-10450000D02*
X16937500Y-10450000D01*
X16900000Y-10962500D02*
X16900000Y-11037500D01*
X16862500Y-11000000D02*
X16937500Y-11000000D01*
X17100000Y-8207500D02*
X17100000Y-8282500D01*
X17062500Y-8245000D02*
X17137500Y-8245000D01*
X17100000Y-8762500D02*
X17100000Y-8837500D01*
X17062500Y-8800000D02*
X17137500Y-8800000D01*
X17100000Y-9312500D02*
X17100000Y-9387500D01*
X17062500Y-9350000D02*
X17137500Y-9350000D01*
X17100000Y-9862500D02*
X17100000Y-9937500D01*
X17062500Y-9900000D02*
X17137500Y-9900000D01*
X17100000Y-10412500D02*
X17100000Y-10487500D01*
X17062500Y-10450000D02*
X17137500Y-10450000D01*
X17100000Y-10962500D02*
X17100000Y-11037500D01*
X17062500Y-11000000D02*
X17137500Y-11000000D01*
X17700000Y-7722500D02*
X17700000Y-7797500D01*
X17662500Y-7760000D02*
X17737500Y-7760000D01*
X17700000Y-8277500D02*
X17700000Y-8352500D01*
X17662500Y-8315000D02*
X17737500Y-8315000D01*
X17700000Y-8827500D02*
X17700000Y-8902500D01*
X17662500Y-8865000D02*
X17737500Y-8865000D01*
X17700000Y-9377500D02*
X17700000Y-9452500D01*
X17662500Y-9415000D02*
X17737500Y-9415000D01*
X17700000Y-9927500D02*
X17700000Y-10002500D01*
X17662500Y-9965000D02*
X17737500Y-9965000D01*
X17700000Y-11042500D02*
X17700000Y-11117500D01*
X17662500Y-11080000D02*
X17737500Y-11080000D01*
X17705000Y-10477500D02*
X17705000Y-10552500D01*
X17667500Y-10515000D02*
X17742500Y-10515000D01*
X17900000Y-7722500D02*
X17900000Y-7797500D01*
X17862500Y-7760000D02*
X17937500Y-7760000D01*
X17900000Y-8277500D02*
X17900000Y-8352500D01*
X17862500Y-8315000D02*
X17937500Y-8315000D01*
X17900000Y-8827500D02*
X17900000Y-8902500D01*
X17862500Y-8865000D02*
X17937500Y-8865000D01*
X17900000Y-9377500D02*
X17900000Y-9452500D01*
X17862500Y-9415000D02*
X17937500Y-9415000D01*
X17900000Y-9927500D02*
X17900000Y-10002500D01*
X17862500Y-9965000D02*
X17937500Y-9965000D01*
X17900000Y-11042500D02*
X17900000Y-11117500D01*
X17862500Y-11080000D02*
X17937500Y-11080000D01*
X17905000Y-10477500D02*
X17905000Y-10552500D01*
X17867500Y-10515000D02*
X17942500Y-10515000D01*
X18100000Y-7722500D02*
X18100000Y-7797500D01*
X18062500Y-7760000D02*
X18137500Y-7760000D01*
X18100000Y-8277500D02*
X18100000Y-8352500D01*
X18062500Y-8315000D02*
X18137500Y-8315000D01*
X18100000Y-8827500D02*
X18100000Y-8902500D01*
X18062500Y-8865000D02*
X18137500Y-8865000D01*
X18100000Y-9377500D02*
X18100000Y-9452500D01*
X18062500Y-9415000D02*
X18137500Y-9415000D01*
X18100000Y-9927500D02*
X18100000Y-10002500D01*
X18062500Y-9965000D02*
X18137500Y-9965000D01*
X18100000Y-11042500D02*
X18100000Y-11117500D01*
X18062500Y-11080000D02*
X18137500Y-11080000D01*
X18105000Y-10477500D02*
X18105000Y-10552500D01*
X18067500Y-10515000D02*
X18142500Y-10515000D01*
X11364856Y-9448356D02*
X11364856Y-9377644D01*
X11294144Y-9377644D01*
X11294144Y-9448356D01*
X11364856Y-9448356D01*
X11364856Y-9702356D02*
X11364856Y-9631644D01*
X11294144Y-9631644D01*
X11294144Y-9702356D01*
X11364856Y-9702356D01*
X11605356Y-8075356D02*
X11605356Y-8004644D01*
X11534644Y-8004644D01*
X11534644Y-8075356D01*
X11605356Y-8075356D01*
X11605356Y-8329356D02*
X11605356Y-8258644D01*
X11534644Y-8258644D01*
X11534644Y-8329356D01*
X11605356Y-8329356D01*
X11995356Y-8079356D02*
X11995356Y-8008644D01*
X11924644Y-8008644D01*
X11924644Y-8079356D01*
X11995356Y-8079356D01*
X11995356Y-8333356D02*
X11995356Y-8262644D01*
X11924644Y-8262644D01*
X11924644Y-8333356D01*
X11995356Y-8333356D01*
X12056406Y-10932856D02*
X12056406Y-10862144D01*
X11985694Y-10862144D01*
X11985694Y-10932856D01*
X12056406Y-10932856D01*
X12056406Y-11186856D02*
X12056406Y-11116144D01*
X11985694Y-11116144D01*
X11985694Y-11186856D01*
X12056406Y-11186856D01*
X12056406Y-11440856D02*
X12056406Y-11370144D01*
X11985694Y-11370144D01*
X11985694Y-11440856D01*
X12056406Y-11440856D01*
X12056406Y-11694856D02*
X12056406Y-11624144D01*
X11985694Y-11624144D01*
X11985694Y-11694856D01*
X12056406Y-11694856D01*
X12105356Y-6881356D02*
X12105356Y-6810644D01*
X12034644Y-6810644D01*
X12034644Y-6881356D01*
X12105356Y-6881356D01*
X12105356Y-7135356D02*
X12105356Y-7064644D01*
X12034644Y-7064644D01*
X12034644Y-7135356D01*
X12105356Y-7135356D01*
X12105356Y-7389356D02*
X12105356Y-7318644D01*
X12034644Y-7318644D01*
X12034644Y-7389356D01*
X12105356Y-7389356D01*
X12310406Y-10932856D02*
X12310406Y-10862144D01*
X12239694Y-10862144D01*
X12239694Y-10932856D01*
X12310406Y-10932856D01*
X12310406Y-11186856D02*
X12310406Y-11116144D01*
X12239694Y-11116144D01*
X12239694Y-11186856D01*
X12310406Y-11186856D01*
X12310406Y-11440856D02*
X12310406Y-11370144D01*
X12239694Y-11370144D01*
X12239694Y-11440856D01*
X12310406Y-11440856D01*
X12310406Y-11694856D02*
X12310406Y-11624144D01*
X12239694Y-11624144D01*
X12239694Y-11694856D01*
X12310406Y-11694856D01*
X12385356Y-8079356D02*
X12385356Y-8008644D01*
X12314644Y-8008644D01*
X12314644Y-8079356D01*
X12385356Y-8079356D01*
X12385356Y-8333356D02*
X12385356Y-8262644D01*
X12314644Y-8262644D01*
X12314644Y-8333356D01*
X12385356Y-8333356D01*
X12570356Y-6881356D02*
X12570356Y-6810644D01*
X12499644Y-6810644D01*
X12499644Y-6881356D01*
X12570356Y-6881356D01*
X12570356Y-7135356D02*
X12570356Y-7064644D01*
X12499644Y-7064644D01*
X12499644Y-7135356D01*
X12570356Y-7135356D01*
X12570356Y-7389356D02*
X12570356Y-7318644D01*
X12499644Y-7318644D01*
X12499644Y-7389356D01*
X12570356Y-7389356D01*
X12955356Y-7885356D02*
X12955356Y-7814644D01*
X12884644Y-7814644D01*
X12884644Y-7885356D01*
X12955356Y-7885356D01*
X12955356Y-8285356D02*
X12955356Y-8214644D01*
X12884644Y-8214644D01*
X12884644Y-8285356D01*
X12955356Y-8285356D01*
X13035356Y-6881356D02*
X13035356Y-6810644D01*
X12964644Y-6810644D01*
X12964644Y-6881356D01*
X13035356Y-6881356D01*
X13035356Y-7135356D02*
X13035356Y-7064644D01*
X12964644Y-7064644D01*
X12964644Y-7135356D01*
X13035356Y-7135356D01*
X13035356Y-7389356D02*
X13035356Y-7318644D01*
X12964644Y-7318644D01*
X12964644Y-7389356D01*
X13035356Y-7389356D01*
X13209356Y-7885356D02*
X13209356Y-7814644D01*
X13138644Y-7814644D01*
X13138644Y-7885356D01*
X13209356Y-7885356D01*
X13209356Y-8285356D02*
X13209356Y-8214644D01*
X13138644Y-8214644D01*
X13138644Y-8285356D01*
X13209356Y-8285356D01*
X13463356Y-7885356D02*
X13463356Y-7814644D01*
X13392644Y-7814644D01*
X13392644Y-7885356D01*
X13463356Y-7885356D01*
X13463356Y-8285356D02*
X13463356Y-8214644D01*
X13392644Y-8214644D01*
X13392644Y-8285356D01*
X13463356Y-8285356D01*
X13717356Y-7885356D02*
X13717356Y-7814644D01*
X13646644Y-7814644D01*
X13646644Y-7885356D01*
X13717356Y-7885356D01*
X13717356Y-8285356D02*
X13717356Y-8214644D01*
X13646644Y-8214644D01*
X13646644Y-8285356D01*
X13717356Y-8285356D01*
X13777856Y-9067356D02*
X13777856Y-8996644D01*
X13707144Y-8996644D01*
X13707144Y-9067356D01*
X13777856Y-9067356D01*
X13777856Y-9321356D02*
X13777856Y-9250644D01*
X13707144Y-9250644D01*
X13707144Y-9321356D01*
X13777856Y-9321356D01*
X13777856Y-9575356D02*
X13777856Y-9504644D01*
X13707144Y-9504644D01*
X13707144Y-9575356D01*
X13777856Y-9575356D01*
X13777856Y-9829356D02*
X13777856Y-9758644D01*
X13707144Y-9758644D01*
X13707144Y-9829356D01*
X13777856Y-9829356D01*
X13777856Y-10083356D02*
X13777856Y-10012644D01*
X13707144Y-10012644D01*
X13707144Y-10083356D01*
X13777856Y-10083356D01*
X14031856Y-9067356D02*
X14031856Y-8996644D01*
X13961144Y-8996644D01*
X13961144Y-9067356D01*
X14031856Y-9067356D01*
X14031856Y-9321356D02*
X14031856Y-9250644D01*
X13961144Y-9250644D01*
X13961144Y-9321356D01*
X14031856Y-9321356D01*
X14031856Y-9575356D02*
X14031856Y-9504644D01*
X13961144Y-9504644D01*
X13961144Y-9575356D01*
X14031856Y-9575356D01*
X14031856Y-9829356D02*
X14031856Y-9758644D01*
X13961144Y-9758644D01*
X13961144Y-9829356D01*
X14031856Y-9829356D01*
X14031856Y-10083356D02*
X14031856Y-10012644D01*
X13961144Y-10012644D01*
X13961144Y-10083356D01*
X14031856Y-10083356D01*
D13*
X11202500Y-8833000D02*
X11257500Y-8778000D01*
X11202500Y-8723000D01*
X11147500Y-8778000D01*
X11202500Y-8833000D01*
X11202500Y-10357000D02*
X11257500Y-10302000D01*
X11202500Y-10247000D01*
X11147500Y-10302000D01*
X11202500Y-10357000D01*
X11456500Y-8833000D02*
X11511500Y-8778000D01*
X11456500Y-8723000D01*
X11401500Y-8778000D01*
X11456500Y-8833000D01*
X11456500Y-9087000D02*
X11511500Y-9032000D01*
X11456500Y-8977000D01*
X11401500Y-9032000D01*
X11456500Y-9087000D01*
X11456500Y-10357000D02*
X11511500Y-10302000D01*
X11456500Y-10247000D01*
X11401500Y-10302000D01*
X11456500Y-10357000D01*
X11710500Y-8833000D02*
X11765500Y-8778000D01*
X11710500Y-8723000D01*
X11655500Y-8778000D01*
X11710500Y-8833000D01*
X11710500Y-10357000D02*
X11765500Y-10302000D01*
X11710500Y-10247000D01*
X11655500Y-10302000D01*
X11710500Y-10357000D01*
X11964500Y-8833000D02*
X12019500Y-8778000D01*
X11964500Y-8723000D01*
X11909500Y-8778000D01*
X11964500Y-8833000D01*
X11964500Y-10357000D02*
X12019500Y-10302000D01*
X11964500Y-10247000D01*
X11909500Y-10302000D01*
X11964500Y-10357000D01*
X12218500Y-8833000D02*
X12273500Y-8778000D01*
X12218500Y-8723000D01*
X12163500Y-8778000D01*
X12218500Y-8833000D01*
X12218500Y-10357000D02*
X12273500Y-10302000D01*
X12218500Y-10247000D01*
X12163500Y-10302000D01*
X12218500Y-10357000D01*
X12472500Y-8833000D02*
X12527500Y-8778000D01*
X12472500Y-8723000D01*
X12417500Y-8778000D01*
X12472500Y-8833000D01*
X12472500Y-10357000D02*
X12527500Y-10302000D01*
X12472500Y-10247000D01*
X12417500Y-10302000D01*
X12472500Y-10357000D01*
X12726500Y-8833000D02*
X12781500Y-8778000D01*
X12726500Y-8723000D01*
X12671500Y-8778000D01*
X12726500Y-8833000D01*
X12726500Y-10357000D02*
X12781500Y-10302000D01*
X12726500Y-10247000D01*
X12671500Y-10302000D01*
X12726500Y-10357000D01*
X12980500Y-8833000D02*
X13035500Y-8778000D01*
X12980500Y-8723000D01*
X12925500Y-8778000D01*
X12980500Y-8833000D01*
X12980500Y-10357000D02*
X13035500Y-10302000D01*
X12980500Y-10247000D01*
X12925500Y-10302000D01*
X12980500Y-10357000D01*
X13234500Y-8833000D02*
X13289500Y-8778000D01*
X13234500Y-8723000D01*
X13179500Y-8778000D01*
X13234500Y-8833000D01*
X13234500Y-10357000D02*
X13289500Y-10302000D01*
X13234500Y-10247000D01*
X13179500Y-10302000D01*
X13234500Y-10357000D01*
X13485000Y-6940000D02*
X13540000Y-6885000D01*
X13485000Y-6830000D01*
X13430000Y-6885000D01*
X13485000Y-6940000D01*
X13485000Y-7390000D02*
X13540000Y-7335000D01*
X13485000Y-7280000D01*
X13430000Y-7335000D01*
X13485000Y-7390000D01*
X13488500Y-8833000D02*
X13543500Y-8778000D01*
X13488500Y-8723000D01*
X13433500Y-8778000D01*
X13488500Y-8833000D01*
X13488500Y-10357000D02*
X13543500Y-10302000D01*
X13488500Y-10247000D01*
X13433500Y-10302000D01*
X13488500Y-10357000D01*
X13742500Y-8833000D02*
X13797500Y-8778000D01*
X13742500Y-8723000D01*
X13687500Y-8778000D01*
X13742500Y-8833000D01*
X13742500Y-10357000D02*
X13797500Y-10302000D01*
X13742500Y-10247000D01*
X13687500Y-10302000D01*
X13742500Y-10357000D01*
X13996500Y-8833000D02*
X14051500Y-8778000D01*
X13996500Y-8723000D01*
X13941500Y-8778000D01*
X13996500Y-8833000D01*
X13996500Y-10357000D02*
X14051500Y-10302000D01*
X13996500Y-10247000D01*
X13941500Y-10302000D01*
X13996500Y-10357000D01*
X14135000Y-6940000D02*
X14190000Y-6885000D01*
X14135000Y-6830000D01*
X14080000Y-6885000D01*
X14135000Y-6940000D01*
X14135000Y-7390000D02*
X14190000Y-7335000D01*
X14135000Y-7280000D01*
X14080000Y-7335000D01*
X14135000Y-7390000D01*
X14250500Y-8833000D02*
X14305500Y-8778000D01*
X14250500Y-8723000D01*
X14195500Y-8778000D01*
X14250500Y-8833000D01*
X14250500Y-10357000D02*
X14305500Y-10302000D01*
X14250500Y-10247000D01*
X14195500Y-10302000D01*
X14250500Y-10357000D01*
X14504500Y-8833000D02*
X14559500Y-8778000D01*
X14504500Y-8723000D01*
X14449500Y-8778000D01*
X14504500Y-8833000D01*
X14504500Y-9087000D02*
X14559500Y-9032000D01*
X14504500Y-8977000D01*
X14449500Y-9032000D01*
X14504500Y-9087000D01*
X14504500Y-9341000D02*
X14559500Y-9286000D01*
X14504500Y-9231000D01*
X14449500Y-9286000D01*
X14504500Y-9341000D01*
X14504500Y-9595000D02*
X14559500Y-9540000D01*
X14504500Y-9485000D01*
X14449500Y-9540000D01*
X14504500Y-9595000D01*
X14504500Y-9849000D02*
X14559500Y-9794000D01*
X14504500Y-9739000D01*
X14449500Y-9794000D01*
X14504500Y-9849000D01*
X14504500Y-10103000D02*
X14559500Y-10048000D01*
X14504500Y-9993000D01*
X14449500Y-10048000D01*
X14504500Y-10103000D01*
X14504500Y-10357000D02*
X14559500Y-10302000D01*
X14504500Y-10247000D01*
X14449500Y-10302000D01*
X14504500Y-10357000D01*
D14*
X16467000Y-7135000D02*
X16597000Y-7265000D01*
X16597000Y-7135000D02*
X16467000Y-7265000D01*
X16597000Y-7200000D02*
G75*
G02*
X16467000Y-7200000I-65000J0D01*
G01*
X16467000Y-7200000D02*
G75*
G02*
X16597000Y-7200000I65000J0D01*
G01*
X16975000Y-7135000D02*
X17105000Y-7265000D01*
X17105000Y-7135000D02*
X16975000Y-7265000D01*
X17105000Y-7200000D02*
G75*
G02*
X16975000Y-7200000I-65000J0D01*
G01*
X16975000Y-7200000D02*
G75*
G02*
X17105000Y-7200000I65000J0D01*
G01*
D11*
X11158277Y-12733984D02*
X11158277Y-12533984D01*
X11158277Y-12533984D02*
X11205896Y-12533984D01*
X11205896Y-12533984D02*
X11234467Y-12543508D01*
X11234467Y-12543508D02*
X11253515Y-12562555D01*
X11253515Y-12562555D02*
X11263039Y-12581603D01*
X11263039Y-12581603D02*
X11272562Y-12619698D01*
X11272562Y-12619698D02*
X11272562Y-12648269D01*
X11272562Y-12648269D02*
X11263039Y-12686365D01*
X11263039Y-12686365D02*
X11253515Y-12705412D01*
X11253515Y-12705412D02*
X11234467Y-12724460D01*
X11234467Y-12724460D02*
X11205896Y-12733984D01*
X11205896Y-12733984D02*
X11158277Y-12733984D01*
X11358277Y-12733984D02*
X11358277Y-12600650D01*
X11358277Y-12638746D02*
X11367801Y-12619698D01*
X11367801Y-12619698D02*
X11377324Y-12610174D01*
X11377324Y-12610174D02*
X11396372Y-12600650D01*
X11396372Y-12600650D02*
X11415420Y-12600650D01*
X11482086Y-12733984D02*
X11482086Y-12600650D01*
X11482086Y-12533984D02*
X11472562Y-12543508D01*
X11472562Y-12543508D02*
X11482086Y-12553031D01*
X11482086Y-12553031D02*
X11491610Y-12543508D01*
X11491610Y-12543508D02*
X11482086Y-12533984D01*
X11482086Y-12533984D02*
X11482086Y-12553031D01*
X11605896Y-12733984D02*
X11586848Y-12724460D01*
X11586848Y-12724460D02*
X11577324Y-12705412D01*
X11577324Y-12705412D02*
X11577324Y-12533984D01*
X11710658Y-12733984D02*
X11691610Y-12724460D01*
X11691610Y-12724460D02*
X11682086Y-12705412D01*
X11682086Y-12705412D02*
X11682086Y-12533984D01*
X11939229Y-12733984D02*
X11939229Y-12533984D01*
X11939229Y-12533984D02*
X12005896Y-12676841D01*
X12005896Y-12676841D02*
X12072562Y-12533984D01*
X12072562Y-12533984D02*
X12072562Y-12733984D01*
X12253515Y-12733984D02*
X12253515Y-12629222D01*
X12253515Y-12629222D02*
X12243991Y-12610174D01*
X12243991Y-12610174D02*
X12224943Y-12600650D01*
X12224943Y-12600650D02*
X12186848Y-12600650D01*
X12186848Y-12600650D02*
X12167801Y-12610174D01*
X12253515Y-12724460D02*
X12234467Y-12733984D01*
X12234467Y-12733984D02*
X12186848Y-12733984D01*
X12186848Y-12733984D02*
X12167801Y-12724460D01*
X12167801Y-12724460D02*
X12158277Y-12705412D01*
X12158277Y-12705412D02*
X12158277Y-12686365D01*
X12158277Y-12686365D02*
X12167801Y-12667317D01*
X12167801Y-12667317D02*
X12186848Y-12657793D01*
X12186848Y-12657793D02*
X12234467Y-12657793D01*
X12234467Y-12657793D02*
X12253515Y-12648269D01*
X12348753Y-12600650D02*
X12348753Y-12800650D01*
X12348753Y-12610174D02*
X12367801Y-12600650D01*
X12367801Y-12600650D02*
X12405896Y-12600650D01*
X12405896Y-12600650D02*
X12424943Y-12610174D01*
X12424943Y-12610174D02*
X12434467Y-12619698D01*
X12434467Y-12619698D02*
X12443991Y-12638746D01*
X12443991Y-12638746D02*
X12443991Y-12695888D01*
X12443991Y-12695888D02*
X12434467Y-12714936D01*
X12434467Y-12714936D02*
X12424943Y-12724460D01*
X12424943Y-12724460D02*
X12405896Y-12733984D01*
X12405896Y-12733984D02*
X12367801Y-12733984D01*
X12367801Y-12733984D02*
X12348753Y-12724460D01*
X12529705Y-12714936D02*
X12539229Y-12724460D01*
X12539229Y-12724460D02*
X12529705Y-12733984D01*
X12529705Y-12733984D02*
X12520182Y-12724460D01*
X12520182Y-12724460D02*
X12529705Y-12714936D01*
X12529705Y-12714936D02*
X12529705Y-12733984D01*
X12529705Y-12610174D02*
X12539229Y-12619698D01*
X12539229Y-12619698D02*
X12529705Y-12629222D01*
X12529705Y-12629222D02*
X12520182Y-12619698D01*
X12520182Y-12619698D02*
X12529705Y-12610174D01*
X12529705Y-12610174D02*
X12529705Y-12629222D01*
D12*
X10867500Y-13047500D02*
X10897500Y-13077500D01*
X10897500Y-13047500D02*
X10867500Y-13077500D01*
D11*
X11196372Y-12953984D02*
X11215420Y-12953984D01*
X11215420Y-12953984D02*
X11234467Y-12963508D01*
X11234467Y-12963508D02*
X11243991Y-12973031D01*
X11243991Y-12973031D02*
X11253515Y-12992079D01*
X11253515Y-12992079D02*
X11263039Y-13030174D01*
X11263039Y-13030174D02*
X11263039Y-13077793D01*
X11263039Y-13077793D02*
X11253515Y-13115888D01*
X11253515Y-13115888D02*
X11243991Y-13134936D01*
X11243991Y-13134936D02*
X11234467Y-13144460D01*
X11234467Y-13144460D02*
X11215420Y-13153984D01*
X11215420Y-13153984D02*
X11196372Y-13153984D01*
X11196372Y-13153984D02*
X11177324Y-13144460D01*
X11177324Y-13144460D02*
X11167801Y-13134936D01*
X11167801Y-13134936D02*
X11158277Y-13115888D01*
X11158277Y-13115888D02*
X11148753Y-13077793D01*
X11148753Y-13077793D02*
X11148753Y-13030174D01*
X11148753Y-13030174D02*
X11158277Y-12992079D01*
X11158277Y-12992079D02*
X11167801Y-12973031D01*
X11167801Y-12973031D02*
X11177324Y-12963508D01*
X11177324Y-12963508D02*
X11196372Y-12953984D01*
X11348753Y-13134936D02*
X11358277Y-13144460D01*
X11358277Y-13144460D02*
X11348753Y-13153984D01*
X11348753Y-13153984D02*
X11339229Y-13144460D01*
X11339229Y-13144460D02*
X11348753Y-13134936D01*
X11348753Y-13134936D02*
X11348753Y-13153984D01*
X11424943Y-12953984D02*
X11548753Y-12953984D01*
X11548753Y-12953984D02*
X11482086Y-13030174D01*
X11482086Y-13030174D02*
X11510658Y-13030174D01*
X11510658Y-13030174D02*
X11529705Y-13039698D01*
X11529705Y-13039698D02*
X11539229Y-13049222D01*
X11539229Y-13049222D02*
X11548753Y-13068269D01*
X11548753Y-13068269D02*
X11548753Y-13115888D01*
X11548753Y-13115888D02*
X11539229Y-13134936D01*
X11539229Y-13134936D02*
X11529705Y-13144460D01*
X11529705Y-13144460D02*
X11510658Y-13153984D01*
X11510658Y-13153984D02*
X11453515Y-13153984D01*
X11453515Y-13153984D02*
X11434467Y-13144460D01*
X11434467Y-13144460D02*
X11424943Y-13134936D01*
X11672562Y-12953984D02*
X11691610Y-12953984D01*
X11691610Y-12953984D02*
X11710658Y-12963508D01*
X11710658Y-12963508D02*
X11720182Y-12973031D01*
X11720182Y-12973031D02*
X11729705Y-12992079D01*
X11729705Y-12992079D02*
X11739229Y-13030174D01*
X11739229Y-13030174D02*
X11739229Y-13077793D01*
X11739229Y-13077793D02*
X11729705Y-13115888D01*
X11729705Y-13115888D02*
X11720182Y-13134936D01*
X11720182Y-13134936D02*
X11710658Y-13144460D01*
X11710658Y-13144460D02*
X11691610Y-13153984D01*
X11691610Y-13153984D02*
X11672562Y-13153984D01*
X11672562Y-13153984D02*
X11653515Y-13144460D01*
X11653515Y-13144460D02*
X11643991Y-13134936D01*
X11643991Y-13134936D02*
X11634467Y-13115888D01*
X11634467Y-13115888D02*
X11624943Y-13077793D01*
X11624943Y-13077793D02*
X11624943Y-13030174D01*
X11624943Y-13030174D02*
X11634467Y-12992079D01*
X11634467Y-12992079D02*
X11643991Y-12973031D01*
X11643991Y-12973031D02*
X11653515Y-12963508D01*
X11653515Y-12963508D02*
X11672562Y-12953984D01*
X11863039Y-12953984D02*
X11882086Y-12953984D01*
X11882086Y-12953984D02*
X11901134Y-12963508D01*
X11901134Y-12963508D02*
X11910658Y-12973031D01*
X11910658Y-12973031D02*
X11920182Y-12992079D01*
X11920182Y-12992079D02*
X11929705Y-13030174D01*
X11929705Y-13030174D02*
X11929705Y-13077793D01*
X11929705Y-13077793D02*
X11920182Y-13115888D01*
X11920182Y-13115888D02*
X11910658Y-13134936D01*
X11910658Y-13134936D02*
X11901134Y-13144460D01*
X11901134Y-13144460D02*
X11882086Y-13153984D01*
X11882086Y-13153984D02*
X11863039Y-13153984D01*
X11863039Y-13153984D02*
X11843991Y-13144460D01*
X11843991Y-13144460D02*
X11834467Y-13134936D01*
X11834467Y-13134936D02*
X11824943Y-13115888D01*
X11824943Y-13115888D02*
X11815420Y-13077793D01*
X11815420Y-13077793D02*
X11815420Y-13030174D01*
X11815420Y-13030174D02*
X11824943Y-12992079D01*
X11824943Y-12992079D02*
X11834467Y-12973031D01*
X11834467Y-12973031D02*
X11843991Y-12963508D01*
X11843991Y-12963508D02*
X11863039Y-12953984D01*
X12015420Y-13153984D02*
X12015420Y-13020650D01*
X12015420Y-13039698D02*
X12024943Y-13030174D01*
X12024943Y-13030174D02*
X12043991Y-13020650D01*
X12043991Y-13020650D02*
X12072563Y-13020650D01*
X12072563Y-13020650D02*
X12091610Y-13030174D01*
X12091610Y-13030174D02*
X12101134Y-13049222D01*
X12101134Y-13049222D02*
X12101134Y-13153984D01*
X12101134Y-13049222D02*
X12110658Y-13030174D01*
X12110658Y-13030174D02*
X12129705Y-13020650D01*
X12129705Y-13020650D02*
X12158277Y-13020650D01*
X12158277Y-13020650D02*
X12177324Y-13030174D01*
X12177324Y-13030174D02*
X12186848Y-13049222D01*
X12186848Y-13049222D02*
X12186848Y-13153984D01*
X12282086Y-13153984D02*
X12282086Y-13020650D01*
X12282086Y-13039698D02*
X12291610Y-13030174D01*
X12291610Y-13030174D02*
X12310658Y-13020650D01*
X12310658Y-13020650D02*
X12339229Y-13020650D01*
X12339229Y-13020650D02*
X12358277Y-13030174D01*
X12358277Y-13030174D02*
X12367801Y-13049222D01*
X12367801Y-13049222D02*
X12367801Y-13153984D01*
X12367801Y-13049222D02*
X12377324Y-13030174D01*
X12377324Y-13030174D02*
X12396372Y-13020650D01*
X12396372Y-13020650D02*
X12424943Y-13020650D01*
X12424943Y-13020650D02*
X12443991Y-13030174D01*
X12443991Y-13030174D02*
X12453515Y-13049222D01*
X12453515Y-13049222D02*
X12453515Y-13153984D01*
X12843991Y-12944460D02*
X12672563Y-13201603D01*
X13101134Y-12953984D02*
X13120182Y-12953984D01*
X13120182Y-12953984D02*
X13139229Y-12963508D01*
X13139229Y-12963508D02*
X13148753Y-12973031D01*
X13148753Y-12973031D02*
X13158277Y-12992079D01*
X13158277Y-12992079D02*
X13167801Y-13030174D01*
X13167801Y-13030174D02*
X13167801Y-13077793D01*
X13167801Y-13077793D02*
X13158277Y-13115888D01*
X13158277Y-13115888D02*
X13148753Y-13134936D01*
X13148753Y-13134936D02*
X13139229Y-13144460D01*
X13139229Y-13144460D02*
X13120182Y-13153984D01*
X13120182Y-13153984D02*
X13101134Y-13153984D01*
X13101134Y-13153984D02*
X13082086Y-13144460D01*
X13082086Y-13144460D02*
X13072563Y-13134936D01*
X13072563Y-13134936D02*
X13063039Y-13115888D01*
X13063039Y-13115888D02*
X13053515Y-13077793D01*
X13053515Y-13077793D02*
X13053515Y-13030174D01*
X13053515Y-13030174D02*
X13063039Y-12992079D01*
X13063039Y-12992079D02*
X13072563Y-12973031D01*
X13072563Y-12973031D02*
X13082086Y-12963508D01*
X13082086Y-12963508D02*
X13101134Y-12953984D01*
X13253515Y-13134936D02*
X13263039Y-13144460D01*
X13263039Y-13144460D02*
X13253515Y-13153984D01*
X13253515Y-13153984D02*
X13243991Y-13144460D01*
X13243991Y-13144460D02*
X13253515Y-13134936D01*
X13253515Y-13134936D02*
X13253515Y-13153984D01*
X13386848Y-12953984D02*
X13405896Y-12953984D01*
X13405896Y-12953984D02*
X13424944Y-12963508D01*
X13424944Y-12963508D02*
X13434467Y-12973031D01*
X13434467Y-12973031D02*
X13443991Y-12992079D01*
X13443991Y-12992079D02*
X13453515Y-13030174D01*
X13453515Y-13030174D02*
X13453515Y-13077793D01*
X13453515Y-13077793D02*
X13443991Y-13115888D01*
X13443991Y-13115888D02*
X13434467Y-13134936D01*
X13434467Y-13134936D02*
X13424944Y-13144460D01*
X13424944Y-13144460D02*
X13405896Y-13153984D01*
X13405896Y-13153984D02*
X13386848Y-13153984D01*
X13386848Y-13153984D02*
X13367801Y-13144460D01*
X13367801Y-13144460D02*
X13358277Y-13134936D01*
X13358277Y-13134936D02*
X13348753Y-13115888D01*
X13348753Y-13115888D02*
X13339229Y-13077793D01*
X13339229Y-13077793D02*
X13339229Y-13030174D01*
X13339229Y-13030174D02*
X13348753Y-12992079D01*
X13348753Y-12992079D02*
X13358277Y-12973031D01*
X13358277Y-12973031D02*
X13367801Y-12963508D01*
X13367801Y-12963508D02*
X13386848Y-12953984D01*
X13643991Y-13153984D02*
X13529706Y-13153984D01*
X13586848Y-13153984D02*
X13586848Y-12953984D01*
X13586848Y-12953984D02*
X13567801Y-12982555D01*
X13567801Y-12982555D02*
X13548753Y-13001603D01*
X13548753Y-13001603D02*
X13529706Y-13011127D01*
X13834467Y-13153984D02*
X13720182Y-13153984D01*
X13777325Y-13153984D02*
X13777325Y-12953984D01*
X13777325Y-12953984D02*
X13758277Y-12982555D01*
X13758277Y-12982555D02*
X13739229Y-13001603D01*
X13739229Y-13001603D02*
X13720182Y-13011127D01*
X13948753Y-13039698D02*
X13929706Y-13030174D01*
X13929706Y-13030174D02*
X13920182Y-13020650D01*
X13920182Y-13020650D02*
X13910658Y-13001603D01*
X13910658Y-13001603D02*
X13910658Y-12992079D01*
X13910658Y-12992079D02*
X13920182Y-12973031D01*
X13920182Y-12973031D02*
X13929706Y-12963508D01*
X13929706Y-12963508D02*
X13948753Y-12953984D01*
X13948753Y-12953984D02*
X13986848Y-12953984D01*
X13986848Y-12953984D02*
X14005896Y-12963508D01*
X14005896Y-12963508D02*
X14015420Y-12973031D01*
X14015420Y-12973031D02*
X14024944Y-12992079D01*
X14024944Y-12992079D02*
X14024944Y-13001603D01*
X14024944Y-13001603D02*
X14015420Y-13020650D01*
X14015420Y-13020650D02*
X14005896Y-13030174D01*
X14005896Y-13030174D02*
X13986848Y-13039698D01*
X13986848Y-13039698D02*
X13948753Y-13039698D01*
X13948753Y-13039698D02*
X13929706Y-13049222D01*
X13929706Y-13049222D02*
X13920182Y-13058746D01*
X13920182Y-13058746D02*
X13910658Y-13077793D01*
X13910658Y-13077793D02*
X13910658Y-13115888D01*
X13910658Y-13115888D02*
X13920182Y-13134936D01*
X13920182Y-13134936D02*
X13929706Y-13144460D01*
X13929706Y-13144460D02*
X13948753Y-13153984D01*
X13948753Y-13153984D02*
X13986848Y-13153984D01*
X13986848Y-13153984D02*
X14005896Y-13144460D01*
X14005896Y-13144460D02*
X14015420Y-13134936D01*
X14015420Y-13134936D02*
X14024944Y-13115888D01*
X14024944Y-13115888D02*
X14024944Y-13077793D01*
X14024944Y-13077793D02*
X14015420Y-13058746D01*
X14015420Y-13058746D02*
X14005896Y-13049222D01*
X14005896Y-13049222D02*
X13986848Y-13039698D01*
X14101134Y-12953984D02*
X14101134Y-12992079D01*
X14177325Y-12953984D02*
X14177325Y-12992079D01*
X14472563Y-13230174D02*
X14463039Y-13220650D01*
X14463039Y-13220650D02*
X14443991Y-13192079D01*
X14443991Y-13192079D02*
X14434468Y-13173031D01*
X14434468Y-13173031D02*
X14424944Y-13144460D01*
X14424944Y-13144460D02*
X14415420Y-13096841D01*
X14415420Y-13096841D02*
X14415420Y-13058746D01*
X14415420Y-13058746D02*
X14424944Y-13011127D01*
X14424944Y-13011127D02*
X14434468Y-12982555D01*
X14434468Y-12982555D02*
X14443991Y-12963508D01*
X14443991Y-12963508D02*
X14463039Y-12934936D01*
X14463039Y-12934936D02*
X14472563Y-12925412D01*
X14643991Y-12953984D02*
X14548753Y-12953984D01*
X14548753Y-12953984D02*
X14539229Y-13049222D01*
X14539229Y-13049222D02*
X14548753Y-13039698D01*
X14548753Y-13039698D02*
X14567801Y-13030174D01*
X14567801Y-13030174D02*
X14615420Y-13030174D01*
X14615420Y-13030174D02*
X14634468Y-13039698D01*
X14634468Y-13039698D02*
X14643991Y-13049222D01*
X14643991Y-13049222D02*
X14653515Y-13068269D01*
X14653515Y-13068269D02*
X14653515Y-13115888D01*
X14653515Y-13115888D02*
X14643991Y-13134936D01*
X14643991Y-13134936D02*
X14634468Y-13144460D01*
X14634468Y-13144460D02*
X14615420Y-13153984D01*
X14615420Y-13153984D02*
X14567801Y-13153984D01*
X14567801Y-13153984D02*
X14548753Y-13144460D01*
X14548753Y-13144460D02*
X14539229Y-13134936D01*
X14720182Y-12953984D02*
X14853515Y-12953984D01*
X14853515Y-12953984D02*
X14767801Y-13153984D01*
X15082087Y-13153984D02*
X15082087Y-12953984D01*
X15167801Y-13153984D02*
X15167801Y-13049222D01*
X15167801Y-13049222D02*
X15158277Y-13030174D01*
X15158277Y-13030174D02*
X15139230Y-13020650D01*
X15139230Y-13020650D02*
X15110658Y-13020650D01*
X15110658Y-13020650D02*
X15091610Y-13030174D01*
X15091610Y-13030174D02*
X15082087Y-13039698D01*
X15291610Y-13153984D02*
X15272563Y-13144460D01*
X15272563Y-13144460D02*
X15263039Y-13134936D01*
X15263039Y-13134936D02*
X15253515Y-13115888D01*
X15253515Y-13115888D02*
X15253515Y-13058746D01*
X15253515Y-13058746D02*
X15263039Y-13039698D01*
X15263039Y-13039698D02*
X15272563Y-13030174D01*
X15272563Y-13030174D02*
X15291610Y-13020650D01*
X15291610Y-13020650D02*
X15320182Y-13020650D01*
X15320182Y-13020650D02*
X15339230Y-13030174D01*
X15339230Y-13030174D02*
X15348753Y-13039698D01*
X15348753Y-13039698D02*
X15358277Y-13058746D01*
X15358277Y-13058746D02*
X15358277Y-13115888D01*
X15358277Y-13115888D02*
X15348753Y-13134936D01*
X15348753Y-13134936D02*
X15339230Y-13144460D01*
X15339230Y-13144460D02*
X15320182Y-13153984D01*
X15320182Y-13153984D02*
X15291610Y-13153984D01*
X15472563Y-13153984D02*
X15453515Y-13144460D01*
X15453515Y-13144460D02*
X15443991Y-13125412D01*
X15443991Y-13125412D02*
X15443991Y-12953984D01*
X15624944Y-13144460D02*
X15605896Y-13153984D01*
X15605896Y-13153984D02*
X15567801Y-13153984D01*
X15567801Y-13153984D02*
X15548753Y-13144460D01*
X15548753Y-13144460D02*
X15539230Y-13125412D01*
X15539230Y-13125412D02*
X15539230Y-13049222D01*
X15539230Y-13049222D02*
X15548753Y-13030174D01*
X15548753Y-13030174D02*
X15567801Y-13020650D01*
X15567801Y-13020650D02*
X15605896Y-13020650D01*
X15605896Y-13020650D02*
X15624944Y-13030174D01*
X15624944Y-13030174D02*
X15634468Y-13049222D01*
X15634468Y-13049222D02*
X15634468Y-13068269D01*
X15634468Y-13068269D02*
X15539230Y-13087317D01*
X15710658Y-13144460D02*
X15729706Y-13153984D01*
X15729706Y-13153984D02*
X15767801Y-13153984D01*
X15767801Y-13153984D02*
X15786849Y-13144460D01*
X15786849Y-13144460D02*
X15796372Y-13125412D01*
X15796372Y-13125412D02*
X15796372Y-13115888D01*
X15796372Y-13115888D02*
X15786849Y-13096841D01*
X15786849Y-13096841D02*
X15767801Y-13087317D01*
X15767801Y-13087317D02*
X15739230Y-13087317D01*
X15739230Y-13087317D02*
X15720182Y-13077793D01*
X15720182Y-13077793D02*
X15710658Y-13058746D01*
X15710658Y-13058746D02*
X15710658Y-13049222D01*
X15710658Y-13049222D02*
X15720182Y-13030174D01*
X15720182Y-13030174D02*
X15739230Y-13020650D01*
X15739230Y-13020650D02*
X15767801Y-13020650D01*
X15767801Y-13020650D02*
X15786849Y-13030174D01*
X15863039Y-13230174D02*
X15872563Y-13220650D01*
X15872563Y-13220650D02*
X15891611Y-13192079D01*
X15891611Y-13192079D02*
X15901134Y-13173031D01*
X15901134Y-13173031D02*
X15910658Y-13144460D01*
X15910658Y-13144460D02*
X15920182Y-13096841D01*
X15920182Y-13096841D02*
X15920182Y-13058746D01*
X15920182Y-13058746D02*
X15910658Y-13011127D01*
X15910658Y-13011127D02*
X15901134Y-12982555D01*
X15901134Y-12982555D02*
X15891611Y-12963508D01*
X15891611Y-12963508D02*
X15872563Y-12934936D01*
X15872563Y-12934936D02*
X15863039Y-12925412D01*
D12*
X10897500Y-13326500D02*
G75*
G02*
X10847500Y-13326500I-25000J0D01*
G01*
X10847500Y-13326500D02*
G75*
G02*
X10897500Y-13326500I25000J0D01*
G01*
D11*
X11196372Y-13217984D02*
X11215420Y-13217984D01*
X11215420Y-13217984D02*
X11234467Y-13227508D01*
X11234467Y-13227508D02*
X11243991Y-13237031D01*
X11243991Y-13237031D02*
X11253515Y-13256079D01*
X11253515Y-13256079D02*
X11263039Y-13294174D01*
X11263039Y-13294174D02*
X11263039Y-13341793D01*
X11263039Y-13341793D02*
X11253515Y-13379888D01*
X11253515Y-13379888D02*
X11243991Y-13398936D01*
X11243991Y-13398936D02*
X11234467Y-13408460D01*
X11234467Y-13408460D02*
X11215420Y-13417984D01*
X11215420Y-13417984D02*
X11196372Y-13417984D01*
X11196372Y-13417984D02*
X11177324Y-13408460D01*
X11177324Y-13408460D02*
X11167801Y-13398936D01*
X11167801Y-13398936D02*
X11158277Y-13379888D01*
X11158277Y-13379888D02*
X11148753Y-13341793D01*
X11148753Y-13341793D02*
X11148753Y-13294174D01*
X11148753Y-13294174D02*
X11158277Y-13256079D01*
X11158277Y-13256079D02*
X11167801Y-13237031D01*
X11167801Y-13237031D02*
X11177324Y-13227508D01*
X11177324Y-13227508D02*
X11196372Y-13217984D01*
X11348753Y-13398936D02*
X11358277Y-13408460D01*
X11358277Y-13408460D02*
X11348753Y-13417984D01*
X11348753Y-13417984D02*
X11339229Y-13408460D01*
X11339229Y-13408460D02*
X11348753Y-13398936D01*
X11348753Y-13398936D02*
X11348753Y-13417984D01*
X11539229Y-13217984D02*
X11443991Y-13217984D01*
X11443991Y-13217984D02*
X11434467Y-13313222D01*
X11434467Y-13313222D02*
X11443991Y-13303698D01*
X11443991Y-13303698D02*
X11463039Y-13294174D01*
X11463039Y-13294174D02*
X11510658Y-13294174D01*
X11510658Y-13294174D02*
X11529705Y-13303698D01*
X11529705Y-13303698D02*
X11539229Y-13313222D01*
X11539229Y-13313222D02*
X11548753Y-13332269D01*
X11548753Y-13332269D02*
X11548753Y-13379888D01*
X11548753Y-13379888D02*
X11539229Y-13398936D01*
X11539229Y-13398936D02*
X11529705Y-13408460D01*
X11529705Y-13408460D02*
X11510658Y-13417984D01*
X11510658Y-13417984D02*
X11463039Y-13417984D01*
X11463039Y-13417984D02*
X11443991Y-13408460D01*
X11443991Y-13408460D02*
X11434467Y-13398936D01*
X11672562Y-13217984D02*
X11691610Y-13217984D01*
X11691610Y-13217984D02*
X11710658Y-13227508D01*
X11710658Y-13227508D02*
X11720182Y-13237031D01*
X11720182Y-13237031D02*
X11729705Y-13256079D01*
X11729705Y-13256079D02*
X11739229Y-13294174D01*
X11739229Y-13294174D02*
X11739229Y-13341793D01*
X11739229Y-13341793D02*
X11729705Y-13379888D01*
X11729705Y-13379888D02*
X11720182Y-13398936D01*
X11720182Y-13398936D02*
X11710658Y-13408460D01*
X11710658Y-13408460D02*
X11691610Y-13417984D01*
X11691610Y-13417984D02*
X11672562Y-13417984D01*
X11672562Y-13417984D02*
X11653515Y-13408460D01*
X11653515Y-13408460D02*
X11643991Y-13398936D01*
X11643991Y-13398936D02*
X11634467Y-13379888D01*
X11634467Y-13379888D02*
X11624943Y-13341793D01*
X11624943Y-13341793D02*
X11624943Y-13294174D01*
X11624943Y-13294174D02*
X11634467Y-13256079D01*
X11634467Y-13256079D02*
X11643991Y-13237031D01*
X11643991Y-13237031D02*
X11653515Y-13227508D01*
X11653515Y-13227508D02*
X11672562Y-13217984D01*
X11863039Y-13217984D02*
X11882086Y-13217984D01*
X11882086Y-13217984D02*
X11901134Y-13227508D01*
X11901134Y-13227508D02*
X11910658Y-13237031D01*
X11910658Y-13237031D02*
X11920182Y-13256079D01*
X11920182Y-13256079D02*
X11929705Y-13294174D01*
X11929705Y-13294174D02*
X11929705Y-13341793D01*
X11929705Y-13341793D02*
X11920182Y-13379888D01*
X11920182Y-13379888D02*
X11910658Y-13398936D01*
X11910658Y-13398936D02*
X11901134Y-13408460D01*
X11901134Y-13408460D02*
X11882086Y-13417984D01*
X11882086Y-13417984D02*
X11863039Y-13417984D01*
X11863039Y-13417984D02*
X11843991Y-13408460D01*
X11843991Y-13408460D02*
X11834467Y-13398936D01*
X11834467Y-13398936D02*
X11824943Y-13379888D01*
X11824943Y-13379888D02*
X11815420Y-13341793D01*
X11815420Y-13341793D02*
X11815420Y-13294174D01*
X11815420Y-13294174D02*
X11824943Y-13256079D01*
X11824943Y-13256079D02*
X11834467Y-13237031D01*
X11834467Y-13237031D02*
X11843991Y-13227508D01*
X11843991Y-13227508D02*
X11863039Y-13217984D01*
X12015420Y-13417984D02*
X12015420Y-13284650D01*
X12015420Y-13303698D02*
X12024943Y-13294174D01*
X12024943Y-13294174D02*
X12043991Y-13284650D01*
X12043991Y-13284650D02*
X12072563Y-13284650D01*
X12072563Y-13284650D02*
X12091610Y-13294174D01*
X12091610Y-13294174D02*
X12101134Y-13313222D01*
X12101134Y-13313222D02*
X12101134Y-13417984D01*
X12101134Y-13313222D02*
X12110658Y-13294174D01*
X12110658Y-13294174D02*
X12129705Y-13284650D01*
X12129705Y-13284650D02*
X12158277Y-13284650D01*
X12158277Y-13284650D02*
X12177324Y-13294174D01*
X12177324Y-13294174D02*
X12186848Y-13313222D01*
X12186848Y-13313222D02*
X12186848Y-13417984D01*
X12282086Y-13417984D02*
X12282086Y-13284650D01*
X12282086Y-13303698D02*
X12291610Y-13294174D01*
X12291610Y-13294174D02*
X12310658Y-13284650D01*
X12310658Y-13284650D02*
X12339229Y-13284650D01*
X12339229Y-13284650D02*
X12358277Y-13294174D01*
X12358277Y-13294174D02*
X12367801Y-13313222D01*
X12367801Y-13313222D02*
X12367801Y-13417984D01*
X12367801Y-13313222D02*
X12377324Y-13294174D01*
X12377324Y-13294174D02*
X12396372Y-13284650D01*
X12396372Y-13284650D02*
X12424943Y-13284650D01*
X12424943Y-13284650D02*
X12443991Y-13294174D01*
X12443991Y-13294174D02*
X12453515Y-13313222D01*
X12453515Y-13313222D02*
X12453515Y-13417984D01*
X12843991Y-13208460D02*
X12672563Y-13465603D01*
X13101134Y-13217984D02*
X13120182Y-13217984D01*
X13120182Y-13217984D02*
X13139229Y-13227508D01*
X13139229Y-13227508D02*
X13148753Y-13237031D01*
X13148753Y-13237031D02*
X13158277Y-13256079D01*
X13158277Y-13256079D02*
X13167801Y-13294174D01*
X13167801Y-13294174D02*
X13167801Y-13341793D01*
X13167801Y-13341793D02*
X13158277Y-13379888D01*
X13158277Y-13379888D02*
X13148753Y-13398936D01*
X13148753Y-13398936D02*
X13139229Y-13408460D01*
X13139229Y-13408460D02*
X13120182Y-13417984D01*
X13120182Y-13417984D02*
X13101134Y-13417984D01*
X13101134Y-13417984D02*
X13082086Y-13408460D01*
X13082086Y-13408460D02*
X13072563Y-13398936D01*
X13072563Y-13398936D02*
X13063039Y-13379888D01*
X13063039Y-13379888D02*
X13053515Y-13341793D01*
X13053515Y-13341793D02*
X13053515Y-13294174D01*
X13053515Y-13294174D02*
X13063039Y-13256079D01*
X13063039Y-13256079D02*
X13072563Y-13237031D01*
X13072563Y-13237031D02*
X13082086Y-13227508D01*
X13082086Y-13227508D02*
X13101134Y-13217984D01*
X13253515Y-13398936D02*
X13263039Y-13408460D01*
X13263039Y-13408460D02*
X13253515Y-13417984D01*
X13253515Y-13417984D02*
X13243991Y-13408460D01*
X13243991Y-13408460D02*
X13253515Y-13398936D01*
X13253515Y-13398936D02*
X13253515Y-13417984D01*
X13386848Y-13217984D02*
X13405896Y-13217984D01*
X13405896Y-13217984D02*
X13424944Y-13227508D01*
X13424944Y-13227508D02*
X13434467Y-13237031D01*
X13434467Y-13237031D02*
X13443991Y-13256079D01*
X13443991Y-13256079D02*
X13453515Y-13294174D01*
X13453515Y-13294174D02*
X13453515Y-13341793D01*
X13453515Y-13341793D02*
X13443991Y-13379888D01*
X13443991Y-13379888D02*
X13434467Y-13398936D01*
X13434467Y-13398936D02*
X13424944Y-13408460D01*
X13424944Y-13408460D02*
X13405896Y-13417984D01*
X13405896Y-13417984D02*
X13386848Y-13417984D01*
X13386848Y-13417984D02*
X13367801Y-13408460D01*
X13367801Y-13408460D02*
X13358277Y-13398936D01*
X13358277Y-13398936D02*
X13348753Y-13379888D01*
X13348753Y-13379888D02*
X13339229Y-13341793D01*
X13339229Y-13341793D02*
X13339229Y-13294174D01*
X13339229Y-13294174D02*
X13348753Y-13256079D01*
X13348753Y-13256079D02*
X13358277Y-13237031D01*
X13358277Y-13237031D02*
X13367801Y-13227508D01*
X13367801Y-13227508D02*
X13386848Y-13217984D01*
X13643991Y-13417984D02*
X13529706Y-13417984D01*
X13586848Y-13417984D02*
X13586848Y-13217984D01*
X13586848Y-13217984D02*
X13567801Y-13246555D01*
X13567801Y-13246555D02*
X13548753Y-13265603D01*
X13548753Y-13265603D02*
X13529706Y-13275127D01*
X13739229Y-13417984D02*
X13777325Y-13417984D01*
X13777325Y-13417984D02*
X13796372Y-13408460D01*
X13796372Y-13408460D02*
X13805896Y-13398936D01*
X13805896Y-13398936D02*
X13824944Y-13370365D01*
X13824944Y-13370365D02*
X13834467Y-13332269D01*
X13834467Y-13332269D02*
X13834467Y-13256079D01*
X13834467Y-13256079D02*
X13824944Y-13237031D01*
X13824944Y-13237031D02*
X13815420Y-13227508D01*
X13815420Y-13227508D02*
X13796372Y-13217984D01*
X13796372Y-13217984D02*
X13758277Y-13217984D01*
X13758277Y-13217984D02*
X13739229Y-13227508D01*
X13739229Y-13227508D02*
X13729706Y-13237031D01*
X13729706Y-13237031D02*
X13720182Y-13256079D01*
X13720182Y-13256079D02*
X13720182Y-13303698D01*
X13720182Y-13303698D02*
X13729706Y-13322746D01*
X13729706Y-13322746D02*
X13739229Y-13332269D01*
X13739229Y-13332269D02*
X13758277Y-13341793D01*
X13758277Y-13341793D02*
X13796372Y-13341793D01*
X13796372Y-13341793D02*
X13815420Y-13332269D01*
X13815420Y-13332269D02*
X13824944Y-13322746D01*
X13824944Y-13322746D02*
X13834467Y-13303698D01*
X13901134Y-13217984D02*
X14034467Y-13217984D01*
X14034467Y-13217984D02*
X13948753Y-13417984D01*
X14101134Y-13217984D02*
X14101134Y-13256079D01*
X14177325Y-13217984D02*
X14177325Y-13256079D01*
X14472563Y-13494174D02*
X14463039Y-13484650D01*
X14463039Y-13484650D02*
X14443991Y-13456079D01*
X14443991Y-13456079D02*
X14434468Y-13437031D01*
X14434468Y-13437031D02*
X14424944Y-13408460D01*
X14424944Y-13408460D02*
X14415420Y-13360841D01*
X14415420Y-13360841D02*
X14415420Y-13322746D01*
X14415420Y-13322746D02*
X14424944Y-13275127D01*
X14424944Y-13275127D02*
X14434468Y-13246555D01*
X14434468Y-13246555D02*
X14443991Y-13227508D01*
X14443991Y-13227508D02*
X14463039Y-13198936D01*
X14463039Y-13198936D02*
X14472563Y-13189412D01*
X14577325Y-13303698D02*
X14558277Y-13294174D01*
X14558277Y-13294174D02*
X14548753Y-13284650D01*
X14548753Y-13284650D02*
X14539229Y-13265603D01*
X14539229Y-13265603D02*
X14539229Y-13256079D01*
X14539229Y-13256079D02*
X14548753Y-13237031D01*
X14548753Y-13237031D02*
X14558277Y-13227508D01*
X14558277Y-13227508D02*
X14577325Y-13217984D01*
X14577325Y-13217984D02*
X14615420Y-13217984D01*
X14615420Y-13217984D02*
X14634468Y-13227508D01*
X14634468Y-13227508D02*
X14643991Y-13237031D01*
X14643991Y-13237031D02*
X14653515Y-13256079D01*
X14653515Y-13256079D02*
X14653515Y-13265603D01*
X14653515Y-13265603D02*
X14643991Y-13284650D01*
X14643991Y-13284650D02*
X14634468Y-13294174D01*
X14634468Y-13294174D02*
X14615420Y-13303698D01*
X14615420Y-13303698D02*
X14577325Y-13303698D01*
X14577325Y-13303698D02*
X14558277Y-13313222D01*
X14558277Y-13313222D02*
X14548753Y-13322746D01*
X14548753Y-13322746D02*
X14539229Y-13341793D01*
X14539229Y-13341793D02*
X14539229Y-13379888D01*
X14539229Y-13379888D02*
X14548753Y-13398936D01*
X14548753Y-13398936D02*
X14558277Y-13408460D01*
X14558277Y-13408460D02*
X14577325Y-13417984D01*
X14577325Y-13417984D02*
X14615420Y-13417984D01*
X14615420Y-13417984D02*
X14634468Y-13408460D01*
X14634468Y-13408460D02*
X14643991Y-13398936D01*
X14643991Y-13398936D02*
X14653515Y-13379888D01*
X14653515Y-13379888D02*
X14653515Y-13341793D01*
X14653515Y-13341793D02*
X14643991Y-13322746D01*
X14643991Y-13322746D02*
X14634468Y-13313222D01*
X14634468Y-13313222D02*
X14615420Y-13303698D01*
X14891610Y-13417984D02*
X14891610Y-13217984D01*
X14977325Y-13417984D02*
X14977325Y-13313222D01*
X14977325Y-13313222D02*
X14967801Y-13294174D01*
X14967801Y-13294174D02*
X14948753Y-13284650D01*
X14948753Y-13284650D02*
X14920182Y-13284650D01*
X14920182Y-13284650D02*
X14901134Y-13294174D01*
X14901134Y-13294174D02*
X14891610Y-13303698D01*
X15101134Y-13417984D02*
X15082087Y-13408460D01*
X15082087Y-13408460D02*
X15072563Y-13398936D01*
X15072563Y-13398936D02*
X15063039Y-13379888D01*
X15063039Y-13379888D02*
X15063039Y-13322746D01*
X15063039Y-13322746D02*
X15072563Y-13303698D01*
X15072563Y-13303698D02*
X15082087Y-13294174D01*
X15082087Y-13294174D02*
X15101134Y-13284650D01*
X15101134Y-13284650D02*
X15129706Y-13284650D01*
X15129706Y-13284650D02*
X15148753Y-13294174D01*
X15148753Y-13294174D02*
X15158277Y-13303698D01*
X15158277Y-13303698D02*
X15167801Y-13322746D01*
X15167801Y-13322746D02*
X15167801Y-13379888D01*
X15167801Y-13379888D02*
X15158277Y-13398936D01*
X15158277Y-13398936D02*
X15148753Y-13408460D01*
X15148753Y-13408460D02*
X15129706Y-13417984D01*
X15129706Y-13417984D02*
X15101134Y-13417984D01*
X15282087Y-13417984D02*
X15263039Y-13408460D01*
X15263039Y-13408460D02*
X15253515Y-13389412D01*
X15253515Y-13389412D02*
X15253515Y-13217984D01*
X15434468Y-13408460D02*
X15415420Y-13417984D01*
X15415420Y-13417984D02*
X15377325Y-13417984D01*
X15377325Y-13417984D02*
X15358277Y-13408460D01*
X15358277Y-13408460D02*
X15348753Y-13389412D01*
X15348753Y-13389412D02*
X15348753Y-13313222D01*
X15348753Y-13313222D02*
X15358277Y-13294174D01*
X15358277Y-13294174D02*
X15377325Y-13284650D01*
X15377325Y-13284650D02*
X15415420Y-13284650D01*
X15415420Y-13284650D02*
X15434468Y-13294174D01*
X15434468Y-13294174D02*
X15443991Y-13313222D01*
X15443991Y-13313222D02*
X15443991Y-13332269D01*
X15443991Y-13332269D02*
X15348753Y-13351317D01*
X15520182Y-13408460D02*
X15539230Y-13417984D01*
X15539230Y-13417984D02*
X15577325Y-13417984D01*
X15577325Y-13417984D02*
X15596372Y-13408460D01*
X15596372Y-13408460D02*
X15605896Y-13389412D01*
X15605896Y-13389412D02*
X15605896Y-13379888D01*
X15605896Y-13379888D02*
X15596372Y-13360841D01*
X15596372Y-13360841D02*
X15577325Y-13351317D01*
X15577325Y-13351317D02*
X15548753Y-13351317D01*
X15548753Y-13351317D02*
X15529706Y-13341793D01*
X15529706Y-13341793D02*
X15520182Y-13322746D01*
X15520182Y-13322746D02*
X15520182Y-13313222D01*
X15520182Y-13313222D02*
X15529706Y-13294174D01*
X15529706Y-13294174D02*
X15548753Y-13284650D01*
X15548753Y-13284650D02*
X15577325Y-13284650D01*
X15577325Y-13284650D02*
X15596372Y-13294174D01*
X15672563Y-13494174D02*
X15682087Y-13484650D01*
X15682087Y-13484650D02*
X15701134Y-13456079D01*
X15701134Y-13456079D02*
X15710658Y-13437031D01*
X15710658Y-13437031D02*
X15720182Y-13408460D01*
X15720182Y-13408460D02*
X15729706Y-13360841D01*
X15729706Y-13360841D02*
X15729706Y-13322746D01*
X15729706Y-13322746D02*
X15720182Y-13275127D01*
X15720182Y-13275127D02*
X15710658Y-13246555D01*
X15710658Y-13246555D02*
X15701134Y-13227508D01*
X15701134Y-13227508D02*
X15682087Y-13198936D01*
X15682087Y-13198936D02*
X15672563Y-13189412D01*
D12*
X10860000Y-13553000D02*
X10860000Y-13628000D01*
X10822500Y-13590500D02*
X10897500Y-13590500D01*
D11*
X11196372Y-13481984D02*
X11215420Y-13481984D01*
X11215420Y-13481984D02*
X11234467Y-13491508D01*
X11234467Y-13491508D02*
X11243991Y-13501031D01*
X11243991Y-13501031D02*
X11253515Y-13520079D01*
X11253515Y-13520079D02*
X11263039Y-13558174D01*
X11263039Y-13558174D02*
X11263039Y-13605793D01*
X11263039Y-13605793D02*
X11253515Y-13643888D01*
X11253515Y-13643888D02*
X11243991Y-13662936D01*
X11243991Y-13662936D02*
X11234467Y-13672460D01*
X11234467Y-13672460D02*
X11215420Y-13681984D01*
X11215420Y-13681984D02*
X11196372Y-13681984D01*
X11196372Y-13681984D02*
X11177324Y-13672460D01*
X11177324Y-13672460D02*
X11167801Y-13662936D01*
X11167801Y-13662936D02*
X11158277Y-13643888D01*
X11158277Y-13643888D02*
X11148753Y-13605793D01*
X11148753Y-13605793D02*
X11148753Y-13558174D01*
X11148753Y-13558174D02*
X11158277Y-13520079D01*
X11158277Y-13520079D02*
X11167801Y-13501031D01*
X11167801Y-13501031D02*
X11177324Y-13491508D01*
X11177324Y-13491508D02*
X11196372Y-13481984D01*
X11348753Y-13662936D02*
X11358277Y-13672460D01*
X11358277Y-13672460D02*
X11348753Y-13681984D01*
X11348753Y-13681984D02*
X11339229Y-13672460D01*
X11339229Y-13672460D02*
X11348753Y-13662936D01*
X11348753Y-13662936D02*
X11348753Y-13681984D01*
X11424943Y-13481984D02*
X11558277Y-13481984D01*
X11558277Y-13481984D02*
X11472562Y-13681984D01*
X11729705Y-13481984D02*
X11634467Y-13481984D01*
X11634467Y-13481984D02*
X11624943Y-13577222D01*
X11624943Y-13577222D02*
X11634467Y-13567698D01*
X11634467Y-13567698D02*
X11653515Y-13558174D01*
X11653515Y-13558174D02*
X11701134Y-13558174D01*
X11701134Y-13558174D02*
X11720182Y-13567698D01*
X11720182Y-13567698D02*
X11729705Y-13577222D01*
X11729705Y-13577222D02*
X11739229Y-13596269D01*
X11739229Y-13596269D02*
X11739229Y-13643888D01*
X11739229Y-13643888D02*
X11729705Y-13662936D01*
X11729705Y-13662936D02*
X11720182Y-13672460D01*
X11720182Y-13672460D02*
X11701134Y-13681984D01*
X11701134Y-13681984D02*
X11653515Y-13681984D01*
X11653515Y-13681984D02*
X11634467Y-13672460D01*
X11634467Y-13672460D02*
X11624943Y-13662936D01*
X11863039Y-13481984D02*
X11882086Y-13481984D01*
X11882086Y-13481984D02*
X11901134Y-13491508D01*
X11901134Y-13491508D02*
X11910658Y-13501031D01*
X11910658Y-13501031D02*
X11920182Y-13520079D01*
X11920182Y-13520079D02*
X11929705Y-13558174D01*
X11929705Y-13558174D02*
X11929705Y-13605793D01*
X11929705Y-13605793D02*
X11920182Y-13643888D01*
X11920182Y-13643888D02*
X11910658Y-13662936D01*
X11910658Y-13662936D02*
X11901134Y-13672460D01*
X11901134Y-13672460D02*
X11882086Y-13681984D01*
X11882086Y-13681984D02*
X11863039Y-13681984D01*
X11863039Y-13681984D02*
X11843991Y-13672460D01*
X11843991Y-13672460D02*
X11834467Y-13662936D01*
X11834467Y-13662936D02*
X11824943Y-13643888D01*
X11824943Y-13643888D02*
X11815420Y-13605793D01*
X11815420Y-13605793D02*
X11815420Y-13558174D01*
X11815420Y-13558174D02*
X11824943Y-13520079D01*
X11824943Y-13520079D02*
X11834467Y-13501031D01*
X11834467Y-13501031D02*
X11843991Y-13491508D01*
X11843991Y-13491508D02*
X11863039Y-13481984D01*
X12015420Y-13681984D02*
X12015420Y-13548650D01*
X12015420Y-13567698D02*
X12024943Y-13558174D01*
X12024943Y-13558174D02*
X12043991Y-13548650D01*
X12043991Y-13548650D02*
X12072563Y-13548650D01*
X12072563Y-13548650D02*
X12091610Y-13558174D01*
X12091610Y-13558174D02*
X12101134Y-13577222D01*
X12101134Y-13577222D02*
X12101134Y-13681984D01*
X12101134Y-13577222D02*
X12110658Y-13558174D01*
X12110658Y-13558174D02*
X12129705Y-13548650D01*
X12129705Y-13548650D02*
X12158277Y-13548650D01*
X12158277Y-13548650D02*
X12177324Y-13558174D01*
X12177324Y-13558174D02*
X12186848Y-13577222D01*
X12186848Y-13577222D02*
X12186848Y-13681984D01*
X12282086Y-13681984D02*
X12282086Y-13548650D01*
X12282086Y-13567698D02*
X12291610Y-13558174D01*
X12291610Y-13558174D02*
X12310658Y-13548650D01*
X12310658Y-13548650D02*
X12339229Y-13548650D01*
X12339229Y-13548650D02*
X12358277Y-13558174D01*
X12358277Y-13558174D02*
X12367801Y-13577222D01*
X12367801Y-13577222D02*
X12367801Y-13681984D01*
X12367801Y-13577222D02*
X12377324Y-13558174D01*
X12377324Y-13558174D02*
X12396372Y-13548650D01*
X12396372Y-13548650D02*
X12424943Y-13548650D01*
X12424943Y-13548650D02*
X12443991Y-13558174D01*
X12443991Y-13558174D02*
X12453515Y-13577222D01*
X12453515Y-13577222D02*
X12453515Y-13681984D01*
X12843991Y-13472460D02*
X12672563Y-13729603D01*
X13101134Y-13481984D02*
X13120182Y-13481984D01*
X13120182Y-13481984D02*
X13139229Y-13491508D01*
X13139229Y-13491508D02*
X13148753Y-13501031D01*
X13148753Y-13501031D02*
X13158277Y-13520079D01*
X13158277Y-13520079D02*
X13167801Y-13558174D01*
X13167801Y-13558174D02*
X13167801Y-13605793D01*
X13167801Y-13605793D02*
X13158277Y-13643888D01*
X13158277Y-13643888D02*
X13148753Y-13662936D01*
X13148753Y-13662936D02*
X13139229Y-13672460D01*
X13139229Y-13672460D02*
X13120182Y-13681984D01*
X13120182Y-13681984D02*
X13101134Y-13681984D01*
X13101134Y-13681984D02*
X13082086Y-13672460D01*
X13082086Y-13672460D02*
X13072563Y-13662936D01*
X13072563Y-13662936D02*
X13063039Y-13643888D01*
X13063039Y-13643888D02*
X13053515Y-13605793D01*
X13053515Y-13605793D02*
X13053515Y-13558174D01*
X13053515Y-13558174D02*
X13063039Y-13520079D01*
X13063039Y-13520079D02*
X13072563Y-13501031D01*
X13072563Y-13501031D02*
X13082086Y-13491508D01*
X13082086Y-13491508D02*
X13101134Y-13481984D01*
X13253515Y-13662936D02*
X13263039Y-13672460D01*
X13263039Y-13672460D02*
X13253515Y-13681984D01*
X13253515Y-13681984D02*
X13243991Y-13672460D01*
X13243991Y-13672460D02*
X13253515Y-13662936D01*
X13253515Y-13662936D02*
X13253515Y-13681984D01*
X13386848Y-13481984D02*
X13405896Y-13481984D01*
X13405896Y-13481984D02*
X13424944Y-13491508D01*
X13424944Y-13491508D02*
X13434467Y-13501031D01*
X13434467Y-13501031D02*
X13443991Y-13520079D01*
X13443991Y-13520079D02*
X13453515Y-13558174D01*
X13453515Y-13558174D02*
X13453515Y-13605793D01*
X13453515Y-13605793D02*
X13443991Y-13643888D01*
X13443991Y-13643888D02*
X13434467Y-13662936D01*
X13434467Y-13662936D02*
X13424944Y-13672460D01*
X13424944Y-13672460D02*
X13405896Y-13681984D01*
X13405896Y-13681984D02*
X13386848Y-13681984D01*
X13386848Y-13681984D02*
X13367801Y-13672460D01*
X13367801Y-13672460D02*
X13358277Y-13662936D01*
X13358277Y-13662936D02*
X13348753Y-13643888D01*
X13348753Y-13643888D02*
X13339229Y-13605793D01*
X13339229Y-13605793D02*
X13339229Y-13558174D01*
X13339229Y-13558174D02*
X13348753Y-13520079D01*
X13348753Y-13520079D02*
X13358277Y-13501031D01*
X13358277Y-13501031D02*
X13367801Y-13491508D01*
X13367801Y-13491508D02*
X13386848Y-13481984D01*
X13529706Y-13501031D02*
X13539229Y-13491508D01*
X13539229Y-13491508D02*
X13558277Y-13481984D01*
X13558277Y-13481984D02*
X13605896Y-13481984D01*
X13605896Y-13481984D02*
X13624944Y-13491508D01*
X13624944Y-13491508D02*
X13634467Y-13501031D01*
X13634467Y-13501031D02*
X13643991Y-13520079D01*
X13643991Y-13520079D02*
X13643991Y-13539127D01*
X13643991Y-13539127D02*
X13634467Y-13567698D01*
X13634467Y-13567698D02*
X13520182Y-13681984D01*
X13520182Y-13681984D02*
X13643991Y-13681984D01*
X13739229Y-13681984D02*
X13777325Y-13681984D01*
X13777325Y-13681984D02*
X13796372Y-13672460D01*
X13796372Y-13672460D02*
X13805896Y-13662936D01*
X13805896Y-13662936D02*
X13824944Y-13634365D01*
X13824944Y-13634365D02*
X13834467Y-13596269D01*
X13834467Y-13596269D02*
X13834467Y-13520079D01*
X13834467Y-13520079D02*
X13824944Y-13501031D01*
X13824944Y-13501031D02*
X13815420Y-13491508D01*
X13815420Y-13491508D02*
X13796372Y-13481984D01*
X13796372Y-13481984D02*
X13758277Y-13481984D01*
X13758277Y-13481984D02*
X13739229Y-13491508D01*
X13739229Y-13491508D02*
X13729706Y-13501031D01*
X13729706Y-13501031D02*
X13720182Y-13520079D01*
X13720182Y-13520079D02*
X13720182Y-13567698D01*
X13720182Y-13567698D02*
X13729706Y-13586746D01*
X13729706Y-13586746D02*
X13739229Y-13596269D01*
X13739229Y-13596269D02*
X13758277Y-13605793D01*
X13758277Y-13605793D02*
X13796372Y-13605793D01*
X13796372Y-13605793D02*
X13815420Y-13596269D01*
X13815420Y-13596269D02*
X13824944Y-13586746D01*
X13824944Y-13586746D02*
X13834467Y-13567698D01*
X14015420Y-13481984D02*
X13920182Y-13481984D01*
X13920182Y-13481984D02*
X13910658Y-13577222D01*
X13910658Y-13577222D02*
X13920182Y-13567698D01*
X13920182Y-13567698D02*
X13939229Y-13558174D01*
X13939229Y-13558174D02*
X13986848Y-13558174D01*
X13986848Y-13558174D02*
X14005896Y-13567698D01*
X14005896Y-13567698D02*
X14015420Y-13577222D01*
X14015420Y-13577222D02*
X14024944Y-13596269D01*
X14024944Y-13596269D02*
X14024944Y-13643888D01*
X14024944Y-13643888D02*
X14015420Y-13662936D01*
X14015420Y-13662936D02*
X14005896Y-13672460D01*
X14005896Y-13672460D02*
X13986848Y-13681984D01*
X13986848Y-13681984D02*
X13939229Y-13681984D01*
X13939229Y-13681984D02*
X13920182Y-13672460D01*
X13920182Y-13672460D02*
X13910658Y-13662936D01*
X14101134Y-13481984D02*
X14101134Y-13520079D01*
X14177325Y-13481984D02*
X14177325Y-13520079D01*
X14472563Y-13758174D02*
X14463039Y-13748650D01*
X14463039Y-13748650D02*
X14443991Y-13720079D01*
X14443991Y-13720079D02*
X14434468Y-13701031D01*
X14434468Y-13701031D02*
X14424944Y-13672460D01*
X14424944Y-13672460D02*
X14415420Y-13624841D01*
X14415420Y-13624841D02*
X14415420Y-13586746D01*
X14415420Y-13586746D02*
X14424944Y-13539127D01*
X14424944Y-13539127D02*
X14434468Y-13510555D01*
X14434468Y-13510555D02*
X14443991Y-13491508D01*
X14443991Y-13491508D02*
X14463039Y-13462936D01*
X14463039Y-13462936D02*
X14472563Y-13453412D01*
X14529706Y-13481984D02*
X14653515Y-13481984D01*
X14653515Y-13481984D02*
X14586848Y-13558174D01*
X14586848Y-13558174D02*
X14615420Y-13558174D01*
X14615420Y-13558174D02*
X14634468Y-13567698D01*
X14634468Y-13567698D02*
X14643991Y-13577222D01*
X14643991Y-13577222D02*
X14653515Y-13596269D01*
X14653515Y-13596269D02*
X14653515Y-13643888D01*
X14653515Y-13643888D02*
X14643991Y-13662936D01*
X14643991Y-13662936D02*
X14634468Y-13672460D01*
X14634468Y-13672460D02*
X14615420Y-13681984D01*
X14615420Y-13681984D02*
X14558277Y-13681984D01*
X14558277Y-13681984D02*
X14539229Y-13672460D01*
X14539229Y-13672460D02*
X14529706Y-13662936D01*
X14748753Y-13681984D02*
X14786848Y-13681984D01*
X14786848Y-13681984D02*
X14805896Y-13672460D01*
X14805896Y-13672460D02*
X14815420Y-13662936D01*
X14815420Y-13662936D02*
X14834468Y-13634365D01*
X14834468Y-13634365D02*
X14843991Y-13596269D01*
X14843991Y-13596269D02*
X14843991Y-13520079D01*
X14843991Y-13520079D02*
X14834468Y-13501031D01*
X14834468Y-13501031D02*
X14824944Y-13491508D01*
X14824944Y-13491508D02*
X14805896Y-13481984D01*
X14805896Y-13481984D02*
X14767801Y-13481984D01*
X14767801Y-13481984D02*
X14748753Y-13491508D01*
X14748753Y-13491508D02*
X14739229Y-13501031D01*
X14739229Y-13501031D02*
X14729706Y-13520079D01*
X14729706Y-13520079D02*
X14729706Y-13567698D01*
X14729706Y-13567698D02*
X14739229Y-13586746D01*
X14739229Y-13586746D02*
X14748753Y-13596269D01*
X14748753Y-13596269D02*
X14767801Y-13605793D01*
X14767801Y-13605793D02*
X14805896Y-13605793D01*
X14805896Y-13605793D02*
X14824944Y-13596269D01*
X14824944Y-13596269D02*
X14834468Y-13586746D01*
X14834468Y-13586746D02*
X14843991Y-13567698D01*
X15082087Y-13681984D02*
X15082087Y-13481984D01*
X15167801Y-13681984D02*
X15167801Y-13577222D01*
X15167801Y-13577222D02*
X15158277Y-13558174D01*
X15158277Y-13558174D02*
X15139230Y-13548650D01*
X15139230Y-13548650D02*
X15110658Y-13548650D01*
X15110658Y-13548650D02*
X15091610Y-13558174D01*
X15091610Y-13558174D02*
X15082087Y-13567698D01*
X15291610Y-13681984D02*
X15272563Y-13672460D01*
X15272563Y-13672460D02*
X15263039Y-13662936D01*
X15263039Y-13662936D02*
X15253515Y-13643888D01*
X15253515Y-13643888D02*
X15253515Y-13586746D01*
X15253515Y-13586746D02*
X15263039Y-13567698D01*
X15263039Y-13567698D02*
X15272563Y-13558174D01*
X15272563Y-13558174D02*
X15291610Y-13548650D01*
X15291610Y-13548650D02*
X15320182Y-13548650D01*
X15320182Y-13548650D02*
X15339230Y-13558174D01*
X15339230Y-13558174D02*
X15348753Y-13567698D01*
X15348753Y-13567698D02*
X15358277Y-13586746D01*
X15358277Y-13586746D02*
X15358277Y-13643888D01*
X15358277Y-13643888D02*
X15348753Y-13662936D01*
X15348753Y-13662936D02*
X15339230Y-13672460D01*
X15339230Y-13672460D02*
X15320182Y-13681984D01*
X15320182Y-13681984D02*
X15291610Y-13681984D01*
X15472563Y-13681984D02*
X15453515Y-13672460D01*
X15453515Y-13672460D02*
X15443991Y-13653412D01*
X15443991Y-13653412D02*
X15443991Y-13481984D01*
X15624944Y-13672460D02*
X15605896Y-13681984D01*
X15605896Y-13681984D02*
X15567801Y-13681984D01*
X15567801Y-13681984D02*
X15548753Y-13672460D01*
X15548753Y-13672460D02*
X15539230Y-13653412D01*
X15539230Y-13653412D02*
X15539230Y-13577222D01*
X15539230Y-13577222D02*
X15548753Y-13558174D01*
X15548753Y-13558174D02*
X15567801Y-13548650D01*
X15567801Y-13548650D02*
X15605896Y-13548650D01*
X15605896Y-13548650D02*
X15624944Y-13558174D01*
X15624944Y-13558174D02*
X15634468Y-13577222D01*
X15634468Y-13577222D02*
X15634468Y-13596269D01*
X15634468Y-13596269D02*
X15539230Y-13615317D01*
X15710658Y-13672460D02*
X15729706Y-13681984D01*
X15729706Y-13681984D02*
X15767801Y-13681984D01*
X15767801Y-13681984D02*
X15786849Y-13672460D01*
X15786849Y-13672460D02*
X15796372Y-13653412D01*
X15796372Y-13653412D02*
X15796372Y-13643888D01*
X15796372Y-13643888D02*
X15786849Y-13624841D01*
X15786849Y-13624841D02*
X15767801Y-13615317D01*
X15767801Y-13615317D02*
X15739230Y-13615317D01*
X15739230Y-13615317D02*
X15720182Y-13605793D01*
X15720182Y-13605793D02*
X15710658Y-13586746D01*
X15710658Y-13586746D02*
X15710658Y-13577222D01*
X15710658Y-13577222D02*
X15720182Y-13558174D01*
X15720182Y-13558174D02*
X15739230Y-13548650D01*
X15739230Y-13548650D02*
X15767801Y-13548650D01*
X15767801Y-13548650D02*
X15786849Y-13558174D01*
X15863039Y-13758174D02*
X15872563Y-13748650D01*
X15872563Y-13748650D02*
X15891611Y-13720079D01*
X15891611Y-13720079D02*
X15901134Y-13701031D01*
X15901134Y-13701031D02*
X15910658Y-13672460D01*
X15910658Y-13672460D02*
X15920182Y-13624841D01*
X15920182Y-13624841D02*
X15920182Y-13586746D01*
X15920182Y-13586746D02*
X15910658Y-13539127D01*
X15910658Y-13539127D02*
X15901134Y-13510555D01*
X15901134Y-13510555D02*
X15891611Y-13491508D01*
X15891611Y-13491508D02*
X15872563Y-13462936D01*
X15872563Y-13462936D02*
X15863039Y-13453412D01*
D12*
X10882856Y-13889856D02*
X10882856Y-13819144D01*
X10812144Y-13819144D01*
X10812144Y-13889856D01*
X10882856Y-13889856D01*
D11*
X11263039Y-13945984D02*
X11148753Y-13945984D01*
X11205896Y-13945984D02*
X11205896Y-13745984D01*
X11205896Y-13745984D02*
X11186848Y-13774555D01*
X11186848Y-13774555D02*
X11167801Y-13793603D01*
X11167801Y-13793603D02*
X11148753Y-13803127D01*
X11348753Y-13926936D02*
X11358277Y-13936460D01*
X11358277Y-13936460D02*
X11348753Y-13945984D01*
X11348753Y-13945984D02*
X11339229Y-13936460D01*
X11339229Y-13936460D02*
X11348753Y-13926936D01*
X11348753Y-13926936D02*
X11348753Y-13945984D01*
X11482086Y-13745984D02*
X11501134Y-13745984D01*
X11501134Y-13745984D02*
X11520182Y-13755508D01*
X11520182Y-13755508D02*
X11529705Y-13765031D01*
X11529705Y-13765031D02*
X11539229Y-13784079D01*
X11539229Y-13784079D02*
X11548753Y-13822174D01*
X11548753Y-13822174D02*
X11548753Y-13869793D01*
X11548753Y-13869793D02*
X11539229Y-13907888D01*
X11539229Y-13907888D02*
X11529705Y-13926936D01*
X11529705Y-13926936D02*
X11520182Y-13936460D01*
X11520182Y-13936460D02*
X11501134Y-13945984D01*
X11501134Y-13945984D02*
X11482086Y-13945984D01*
X11482086Y-13945984D02*
X11463039Y-13936460D01*
X11463039Y-13936460D02*
X11453515Y-13926936D01*
X11453515Y-13926936D02*
X11443991Y-13907888D01*
X11443991Y-13907888D02*
X11434467Y-13869793D01*
X11434467Y-13869793D02*
X11434467Y-13822174D01*
X11434467Y-13822174D02*
X11443991Y-13784079D01*
X11443991Y-13784079D02*
X11453515Y-13765031D01*
X11453515Y-13765031D02*
X11463039Y-13755508D01*
X11463039Y-13755508D02*
X11482086Y-13745984D01*
X11672562Y-13745984D02*
X11691610Y-13745984D01*
X11691610Y-13745984D02*
X11710658Y-13755508D01*
X11710658Y-13755508D02*
X11720182Y-13765031D01*
X11720182Y-13765031D02*
X11729705Y-13784079D01*
X11729705Y-13784079D02*
X11739229Y-13822174D01*
X11739229Y-13822174D02*
X11739229Y-13869793D01*
X11739229Y-13869793D02*
X11729705Y-13907888D01*
X11729705Y-13907888D02*
X11720182Y-13926936D01*
X11720182Y-13926936D02*
X11710658Y-13936460D01*
X11710658Y-13936460D02*
X11691610Y-13945984D01*
X11691610Y-13945984D02*
X11672562Y-13945984D01*
X11672562Y-13945984D02*
X11653515Y-13936460D01*
X11653515Y-13936460D02*
X11643991Y-13926936D01*
X11643991Y-13926936D02*
X11634467Y-13907888D01*
X11634467Y-13907888D02*
X11624943Y-13869793D01*
X11624943Y-13869793D02*
X11624943Y-13822174D01*
X11624943Y-13822174D02*
X11634467Y-13784079D01*
X11634467Y-13784079D02*
X11643991Y-13765031D01*
X11643991Y-13765031D02*
X11653515Y-13755508D01*
X11653515Y-13755508D02*
X11672562Y-13745984D01*
X11863039Y-13745984D02*
X11882086Y-13745984D01*
X11882086Y-13745984D02*
X11901134Y-13755508D01*
X11901134Y-13755508D02*
X11910658Y-13765031D01*
X11910658Y-13765031D02*
X11920182Y-13784079D01*
X11920182Y-13784079D02*
X11929705Y-13822174D01*
X11929705Y-13822174D02*
X11929705Y-13869793D01*
X11929705Y-13869793D02*
X11920182Y-13907888D01*
X11920182Y-13907888D02*
X11910658Y-13926936D01*
X11910658Y-13926936D02*
X11901134Y-13936460D01*
X11901134Y-13936460D02*
X11882086Y-13945984D01*
X11882086Y-13945984D02*
X11863039Y-13945984D01*
X11863039Y-13945984D02*
X11843991Y-13936460D01*
X11843991Y-13936460D02*
X11834467Y-13926936D01*
X11834467Y-13926936D02*
X11824943Y-13907888D01*
X11824943Y-13907888D02*
X11815420Y-13869793D01*
X11815420Y-13869793D02*
X11815420Y-13822174D01*
X11815420Y-13822174D02*
X11824943Y-13784079D01*
X11824943Y-13784079D02*
X11834467Y-13765031D01*
X11834467Y-13765031D02*
X11843991Y-13755508D01*
X11843991Y-13755508D02*
X11863039Y-13745984D01*
X12015420Y-13945984D02*
X12015420Y-13812650D01*
X12015420Y-13831698D02*
X12024943Y-13822174D01*
X12024943Y-13822174D02*
X12043991Y-13812650D01*
X12043991Y-13812650D02*
X12072563Y-13812650D01*
X12072563Y-13812650D02*
X12091610Y-13822174D01*
X12091610Y-13822174D02*
X12101134Y-13841222D01*
X12101134Y-13841222D02*
X12101134Y-13945984D01*
X12101134Y-13841222D02*
X12110658Y-13822174D01*
X12110658Y-13822174D02*
X12129705Y-13812650D01*
X12129705Y-13812650D02*
X12158277Y-13812650D01*
X12158277Y-13812650D02*
X12177324Y-13822174D01*
X12177324Y-13822174D02*
X12186848Y-13841222D01*
X12186848Y-13841222D02*
X12186848Y-13945984D01*
X12282086Y-13945984D02*
X12282086Y-13812650D01*
X12282086Y-13831698D02*
X12291610Y-13822174D01*
X12291610Y-13822174D02*
X12310658Y-13812650D01*
X12310658Y-13812650D02*
X12339229Y-13812650D01*
X12339229Y-13812650D02*
X12358277Y-13822174D01*
X12358277Y-13822174D02*
X12367801Y-13841222D01*
X12367801Y-13841222D02*
X12367801Y-13945984D01*
X12367801Y-13841222D02*
X12377324Y-13822174D01*
X12377324Y-13822174D02*
X12396372Y-13812650D01*
X12396372Y-13812650D02*
X12424943Y-13812650D01*
X12424943Y-13812650D02*
X12443991Y-13822174D01*
X12443991Y-13822174D02*
X12453515Y-13841222D01*
X12453515Y-13841222D02*
X12453515Y-13945984D01*
X12843991Y-13736460D02*
X12672563Y-13993603D01*
X13101134Y-13745984D02*
X13120182Y-13745984D01*
X13120182Y-13745984D02*
X13139229Y-13755508D01*
X13139229Y-13755508D02*
X13148753Y-13765031D01*
X13148753Y-13765031D02*
X13158277Y-13784079D01*
X13158277Y-13784079D02*
X13167801Y-13822174D01*
X13167801Y-13822174D02*
X13167801Y-13869793D01*
X13167801Y-13869793D02*
X13158277Y-13907888D01*
X13158277Y-13907888D02*
X13148753Y-13926936D01*
X13148753Y-13926936D02*
X13139229Y-13936460D01*
X13139229Y-13936460D02*
X13120182Y-13945984D01*
X13120182Y-13945984D02*
X13101134Y-13945984D01*
X13101134Y-13945984D02*
X13082086Y-13936460D01*
X13082086Y-13936460D02*
X13072563Y-13926936D01*
X13072563Y-13926936D02*
X13063039Y-13907888D01*
X13063039Y-13907888D02*
X13053515Y-13869793D01*
X13053515Y-13869793D02*
X13053515Y-13822174D01*
X13053515Y-13822174D02*
X13063039Y-13784079D01*
X13063039Y-13784079D02*
X13072563Y-13765031D01*
X13072563Y-13765031D02*
X13082086Y-13755508D01*
X13082086Y-13755508D02*
X13101134Y-13745984D01*
X13253515Y-13926936D02*
X13263039Y-13936460D01*
X13263039Y-13936460D02*
X13253515Y-13945984D01*
X13253515Y-13945984D02*
X13243991Y-13936460D01*
X13243991Y-13936460D02*
X13253515Y-13926936D01*
X13253515Y-13926936D02*
X13253515Y-13945984D01*
X13386848Y-13745984D02*
X13405896Y-13745984D01*
X13405896Y-13745984D02*
X13424944Y-13755508D01*
X13424944Y-13755508D02*
X13434467Y-13765031D01*
X13434467Y-13765031D02*
X13443991Y-13784079D01*
X13443991Y-13784079D02*
X13453515Y-13822174D01*
X13453515Y-13822174D02*
X13453515Y-13869793D01*
X13453515Y-13869793D02*
X13443991Y-13907888D01*
X13443991Y-13907888D02*
X13434467Y-13926936D01*
X13434467Y-13926936D02*
X13424944Y-13936460D01*
X13424944Y-13936460D02*
X13405896Y-13945984D01*
X13405896Y-13945984D02*
X13386848Y-13945984D01*
X13386848Y-13945984D02*
X13367801Y-13936460D01*
X13367801Y-13936460D02*
X13358277Y-13926936D01*
X13358277Y-13926936D02*
X13348753Y-13907888D01*
X13348753Y-13907888D02*
X13339229Y-13869793D01*
X13339229Y-13869793D02*
X13339229Y-13822174D01*
X13339229Y-13822174D02*
X13348753Y-13784079D01*
X13348753Y-13784079D02*
X13358277Y-13765031D01*
X13358277Y-13765031D02*
X13367801Y-13755508D01*
X13367801Y-13755508D02*
X13386848Y-13745984D01*
X13520182Y-13745984D02*
X13643991Y-13745984D01*
X13643991Y-13745984D02*
X13577325Y-13822174D01*
X13577325Y-13822174D02*
X13605896Y-13822174D01*
X13605896Y-13822174D02*
X13624944Y-13831698D01*
X13624944Y-13831698D02*
X13634467Y-13841222D01*
X13634467Y-13841222D02*
X13643991Y-13860269D01*
X13643991Y-13860269D02*
X13643991Y-13907888D01*
X13643991Y-13907888D02*
X13634467Y-13926936D01*
X13634467Y-13926936D02*
X13624944Y-13936460D01*
X13624944Y-13936460D02*
X13605896Y-13945984D01*
X13605896Y-13945984D02*
X13548753Y-13945984D01*
X13548753Y-13945984D02*
X13529706Y-13936460D01*
X13529706Y-13936460D02*
X13520182Y-13926936D01*
X13739229Y-13945984D02*
X13777325Y-13945984D01*
X13777325Y-13945984D02*
X13796372Y-13936460D01*
X13796372Y-13936460D02*
X13805896Y-13926936D01*
X13805896Y-13926936D02*
X13824944Y-13898365D01*
X13824944Y-13898365D02*
X13834467Y-13860269D01*
X13834467Y-13860269D02*
X13834467Y-13784079D01*
X13834467Y-13784079D02*
X13824944Y-13765031D01*
X13824944Y-13765031D02*
X13815420Y-13755508D01*
X13815420Y-13755508D02*
X13796372Y-13745984D01*
X13796372Y-13745984D02*
X13758277Y-13745984D01*
X13758277Y-13745984D02*
X13739229Y-13755508D01*
X13739229Y-13755508D02*
X13729706Y-13765031D01*
X13729706Y-13765031D02*
X13720182Y-13784079D01*
X13720182Y-13784079D02*
X13720182Y-13831698D01*
X13720182Y-13831698D02*
X13729706Y-13850746D01*
X13729706Y-13850746D02*
X13739229Y-13860269D01*
X13739229Y-13860269D02*
X13758277Y-13869793D01*
X13758277Y-13869793D02*
X13796372Y-13869793D01*
X13796372Y-13869793D02*
X13815420Y-13860269D01*
X13815420Y-13860269D02*
X13824944Y-13850746D01*
X13824944Y-13850746D02*
X13834467Y-13831698D01*
X14005896Y-13812650D02*
X14005896Y-13945984D01*
X13958277Y-13736460D02*
X13910658Y-13879317D01*
X13910658Y-13879317D02*
X14034467Y-13879317D01*
X14101134Y-13745984D02*
X14101134Y-13784079D01*
X14177325Y-13745984D02*
X14177325Y-13784079D01*
X14472563Y-14022174D02*
X14463039Y-14012650D01*
X14463039Y-14012650D02*
X14443991Y-13984079D01*
X14443991Y-13984079D02*
X14434468Y-13965031D01*
X14434468Y-13965031D02*
X14424944Y-13936460D01*
X14424944Y-13936460D02*
X14415420Y-13888841D01*
X14415420Y-13888841D02*
X14415420Y-13850746D01*
X14415420Y-13850746D02*
X14424944Y-13803127D01*
X14424944Y-13803127D02*
X14434468Y-13774555D01*
X14434468Y-13774555D02*
X14443991Y-13755508D01*
X14443991Y-13755508D02*
X14463039Y-13726936D01*
X14463039Y-13726936D02*
X14472563Y-13717412D01*
X14634468Y-13812650D02*
X14634468Y-13945984D01*
X14586848Y-13736460D02*
X14539229Y-13879317D01*
X14539229Y-13879317D02*
X14663039Y-13879317D01*
X14720182Y-13745984D02*
X14843991Y-13745984D01*
X14843991Y-13745984D02*
X14777325Y-13822174D01*
X14777325Y-13822174D02*
X14805896Y-13822174D01*
X14805896Y-13822174D02*
X14824944Y-13831698D01*
X14824944Y-13831698D02*
X14834468Y-13841222D01*
X14834468Y-13841222D02*
X14843991Y-13860269D01*
X14843991Y-13860269D02*
X14843991Y-13907888D01*
X14843991Y-13907888D02*
X14834468Y-13926936D01*
X14834468Y-13926936D02*
X14824944Y-13936460D01*
X14824944Y-13936460D02*
X14805896Y-13945984D01*
X14805896Y-13945984D02*
X14748753Y-13945984D01*
X14748753Y-13945984D02*
X14729706Y-13936460D01*
X14729706Y-13936460D02*
X14720182Y-13926936D01*
X15082087Y-13945984D02*
X15082087Y-13745984D01*
X15167801Y-13945984D02*
X15167801Y-13841222D01*
X15167801Y-13841222D02*
X15158277Y-13822174D01*
X15158277Y-13822174D02*
X15139230Y-13812650D01*
X15139230Y-13812650D02*
X15110658Y-13812650D01*
X15110658Y-13812650D02*
X15091610Y-13822174D01*
X15091610Y-13822174D02*
X15082087Y-13831698D01*
X15291610Y-13945984D02*
X15272563Y-13936460D01*
X15272563Y-13936460D02*
X15263039Y-13926936D01*
X15263039Y-13926936D02*
X15253515Y-13907888D01*
X15253515Y-13907888D02*
X15253515Y-13850746D01*
X15253515Y-13850746D02*
X15263039Y-13831698D01*
X15263039Y-13831698D02*
X15272563Y-13822174D01*
X15272563Y-13822174D02*
X15291610Y-13812650D01*
X15291610Y-13812650D02*
X15320182Y-13812650D01*
X15320182Y-13812650D02*
X15339230Y-13822174D01*
X15339230Y-13822174D02*
X15348753Y-13831698D01*
X15348753Y-13831698D02*
X15358277Y-13850746D01*
X15358277Y-13850746D02*
X15358277Y-13907888D01*
X15358277Y-13907888D02*
X15348753Y-13926936D01*
X15348753Y-13926936D02*
X15339230Y-13936460D01*
X15339230Y-13936460D02*
X15320182Y-13945984D01*
X15320182Y-13945984D02*
X15291610Y-13945984D01*
X15472563Y-13945984D02*
X15453515Y-13936460D01*
X15453515Y-13936460D02*
X15443991Y-13917412D01*
X15443991Y-13917412D02*
X15443991Y-13745984D01*
X15624944Y-13936460D02*
X15605896Y-13945984D01*
X15605896Y-13945984D02*
X15567801Y-13945984D01*
X15567801Y-13945984D02*
X15548753Y-13936460D01*
X15548753Y-13936460D02*
X15539230Y-13917412D01*
X15539230Y-13917412D02*
X15539230Y-13841222D01*
X15539230Y-13841222D02*
X15548753Y-13822174D01*
X15548753Y-13822174D02*
X15567801Y-13812650D01*
X15567801Y-13812650D02*
X15605896Y-13812650D01*
X15605896Y-13812650D02*
X15624944Y-13822174D01*
X15624944Y-13822174D02*
X15634468Y-13841222D01*
X15634468Y-13841222D02*
X15634468Y-13860269D01*
X15634468Y-13860269D02*
X15539230Y-13879317D01*
X15710658Y-13936460D02*
X15729706Y-13945984D01*
X15729706Y-13945984D02*
X15767801Y-13945984D01*
X15767801Y-13945984D02*
X15786849Y-13936460D01*
X15786849Y-13936460D02*
X15796372Y-13917412D01*
X15796372Y-13917412D02*
X15796372Y-13907888D01*
X15796372Y-13907888D02*
X15786849Y-13888841D01*
X15786849Y-13888841D02*
X15767801Y-13879317D01*
X15767801Y-13879317D02*
X15739230Y-13879317D01*
X15739230Y-13879317D02*
X15720182Y-13869793D01*
X15720182Y-13869793D02*
X15710658Y-13850746D01*
X15710658Y-13850746D02*
X15710658Y-13841222D01*
X15710658Y-13841222D02*
X15720182Y-13822174D01*
X15720182Y-13822174D02*
X15739230Y-13812650D01*
X15739230Y-13812650D02*
X15767801Y-13812650D01*
X15767801Y-13812650D02*
X15786849Y-13822174D01*
X15863039Y-14022174D02*
X15872563Y-14012650D01*
X15872563Y-14012650D02*
X15891611Y-13984079D01*
X15891611Y-13984079D02*
X15901134Y-13965031D01*
X15901134Y-13965031D02*
X15910658Y-13936460D01*
X15910658Y-13936460D02*
X15920182Y-13888841D01*
X15920182Y-13888841D02*
X15920182Y-13850746D01*
X15920182Y-13850746D02*
X15910658Y-13803127D01*
X15910658Y-13803127D02*
X15901134Y-13774555D01*
X15901134Y-13774555D02*
X15891611Y-13755508D01*
X15891611Y-13755508D02*
X15872563Y-13726936D01*
X15872563Y-13726936D02*
X15863039Y-13717412D01*
D13*
X10842500Y-14173500D02*
X10897500Y-14118500D01*
X10842500Y-14063500D01*
X10787500Y-14118500D01*
X10842500Y-14173500D01*
D11*
X11263039Y-14209984D02*
X11148753Y-14209984D01*
X11205896Y-14209984D02*
X11205896Y-14009984D01*
X11205896Y-14009984D02*
X11186848Y-14038555D01*
X11186848Y-14038555D02*
X11167801Y-14057603D01*
X11167801Y-14057603D02*
X11148753Y-14067127D01*
X11348753Y-14190936D02*
X11358277Y-14200460D01*
X11358277Y-14200460D02*
X11348753Y-14209984D01*
X11348753Y-14209984D02*
X11339229Y-14200460D01*
X11339229Y-14200460D02*
X11348753Y-14190936D01*
X11348753Y-14190936D02*
X11348753Y-14209984D01*
X11548753Y-14209984D02*
X11434467Y-14209984D01*
X11491610Y-14209984D02*
X11491610Y-14009984D01*
X11491610Y-14009984D02*
X11472562Y-14038555D01*
X11472562Y-14038555D02*
X11453515Y-14057603D01*
X11453515Y-14057603D02*
X11434467Y-14067127D01*
X11672562Y-14009984D02*
X11691610Y-14009984D01*
X11691610Y-14009984D02*
X11710658Y-14019508D01*
X11710658Y-14019508D02*
X11720182Y-14029031D01*
X11720182Y-14029031D02*
X11729705Y-14048079D01*
X11729705Y-14048079D02*
X11739229Y-14086174D01*
X11739229Y-14086174D02*
X11739229Y-14133793D01*
X11739229Y-14133793D02*
X11729705Y-14171888D01*
X11729705Y-14171888D02*
X11720182Y-14190936D01*
X11720182Y-14190936D02*
X11710658Y-14200460D01*
X11710658Y-14200460D02*
X11691610Y-14209984D01*
X11691610Y-14209984D02*
X11672562Y-14209984D01*
X11672562Y-14209984D02*
X11653515Y-14200460D01*
X11653515Y-14200460D02*
X11643991Y-14190936D01*
X11643991Y-14190936D02*
X11634467Y-14171888D01*
X11634467Y-14171888D02*
X11624943Y-14133793D01*
X11624943Y-14133793D02*
X11624943Y-14086174D01*
X11624943Y-14086174D02*
X11634467Y-14048079D01*
X11634467Y-14048079D02*
X11643991Y-14029031D01*
X11643991Y-14029031D02*
X11653515Y-14019508D01*
X11653515Y-14019508D02*
X11672562Y-14009984D01*
X11863039Y-14009984D02*
X11882086Y-14009984D01*
X11882086Y-14009984D02*
X11901134Y-14019508D01*
X11901134Y-14019508D02*
X11910658Y-14029031D01*
X11910658Y-14029031D02*
X11920182Y-14048079D01*
X11920182Y-14048079D02*
X11929705Y-14086174D01*
X11929705Y-14086174D02*
X11929705Y-14133793D01*
X11929705Y-14133793D02*
X11920182Y-14171888D01*
X11920182Y-14171888D02*
X11910658Y-14190936D01*
X11910658Y-14190936D02*
X11901134Y-14200460D01*
X11901134Y-14200460D02*
X11882086Y-14209984D01*
X11882086Y-14209984D02*
X11863039Y-14209984D01*
X11863039Y-14209984D02*
X11843991Y-14200460D01*
X11843991Y-14200460D02*
X11834467Y-14190936D01*
X11834467Y-14190936D02*
X11824943Y-14171888D01*
X11824943Y-14171888D02*
X11815420Y-14133793D01*
X11815420Y-14133793D02*
X11815420Y-14086174D01*
X11815420Y-14086174D02*
X11824943Y-14048079D01*
X11824943Y-14048079D02*
X11834467Y-14029031D01*
X11834467Y-14029031D02*
X11843991Y-14019508D01*
X11843991Y-14019508D02*
X11863039Y-14009984D01*
X12015420Y-14209984D02*
X12015420Y-14076650D01*
X12015420Y-14095698D02*
X12024943Y-14086174D01*
X12024943Y-14086174D02*
X12043991Y-14076650D01*
X12043991Y-14076650D02*
X12072563Y-14076650D01*
X12072563Y-14076650D02*
X12091610Y-14086174D01*
X12091610Y-14086174D02*
X12101134Y-14105222D01*
X12101134Y-14105222D02*
X12101134Y-14209984D01*
X12101134Y-14105222D02*
X12110658Y-14086174D01*
X12110658Y-14086174D02*
X12129705Y-14076650D01*
X12129705Y-14076650D02*
X12158277Y-14076650D01*
X12158277Y-14076650D02*
X12177324Y-14086174D01*
X12177324Y-14086174D02*
X12186848Y-14105222D01*
X12186848Y-14105222D02*
X12186848Y-14209984D01*
X12282086Y-14209984D02*
X12282086Y-14076650D01*
X12282086Y-14095698D02*
X12291610Y-14086174D01*
X12291610Y-14086174D02*
X12310658Y-14076650D01*
X12310658Y-14076650D02*
X12339229Y-14076650D01*
X12339229Y-14076650D02*
X12358277Y-14086174D01*
X12358277Y-14086174D02*
X12367801Y-14105222D01*
X12367801Y-14105222D02*
X12367801Y-14209984D01*
X12367801Y-14105222D02*
X12377324Y-14086174D01*
X12377324Y-14086174D02*
X12396372Y-14076650D01*
X12396372Y-14076650D02*
X12424943Y-14076650D01*
X12424943Y-14076650D02*
X12443991Y-14086174D01*
X12443991Y-14086174D02*
X12453515Y-14105222D01*
X12453515Y-14105222D02*
X12453515Y-14209984D01*
X12843991Y-14000460D02*
X12672563Y-14257603D01*
X13101134Y-14009984D02*
X13120182Y-14009984D01*
X13120182Y-14009984D02*
X13139229Y-14019508D01*
X13139229Y-14019508D02*
X13148753Y-14029031D01*
X13148753Y-14029031D02*
X13158277Y-14048079D01*
X13158277Y-14048079D02*
X13167801Y-14086174D01*
X13167801Y-14086174D02*
X13167801Y-14133793D01*
X13167801Y-14133793D02*
X13158277Y-14171888D01*
X13158277Y-14171888D02*
X13148753Y-14190936D01*
X13148753Y-14190936D02*
X13139229Y-14200460D01*
X13139229Y-14200460D02*
X13120182Y-14209984D01*
X13120182Y-14209984D02*
X13101134Y-14209984D01*
X13101134Y-14209984D02*
X13082086Y-14200460D01*
X13082086Y-14200460D02*
X13072563Y-14190936D01*
X13072563Y-14190936D02*
X13063039Y-14171888D01*
X13063039Y-14171888D02*
X13053515Y-14133793D01*
X13053515Y-14133793D02*
X13053515Y-14086174D01*
X13053515Y-14086174D02*
X13063039Y-14048079D01*
X13063039Y-14048079D02*
X13072563Y-14029031D01*
X13072563Y-14029031D02*
X13082086Y-14019508D01*
X13082086Y-14019508D02*
X13101134Y-14009984D01*
X13253515Y-14190936D02*
X13263039Y-14200460D01*
X13263039Y-14200460D02*
X13253515Y-14209984D01*
X13253515Y-14209984D02*
X13243991Y-14200460D01*
X13243991Y-14200460D02*
X13253515Y-14190936D01*
X13253515Y-14190936D02*
X13253515Y-14209984D01*
X13386848Y-14009984D02*
X13405896Y-14009984D01*
X13405896Y-14009984D02*
X13424944Y-14019508D01*
X13424944Y-14019508D02*
X13434467Y-14029031D01*
X13434467Y-14029031D02*
X13443991Y-14048079D01*
X13443991Y-14048079D02*
X13453515Y-14086174D01*
X13453515Y-14086174D02*
X13453515Y-14133793D01*
X13453515Y-14133793D02*
X13443991Y-14171888D01*
X13443991Y-14171888D02*
X13434467Y-14190936D01*
X13434467Y-14190936D02*
X13424944Y-14200460D01*
X13424944Y-14200460D02*
X13405896Y-14209984D01*
X13405896Y-14209984D02*
X13386848Y-14209984D01*
X13386848Y-14209984D02*
X13367801Y-14200460D01*
X13367801Y-14200460D02*
X13358277Y-14190936D01*
X13358277Y-14190936D02*
X13348753Y-14171888D01*
X13348753Y-14171888D02*
X13339229Y-14133793D01*
X13339229Y-14133793D02*
X13339229Y-14086174D01*
X13339229Y-14086174D02*
X13348753Y-14048079D01*
X13348753Y-14048079D02*
X13358277Y-14029031D01*
X13358277Y-14029031D02*
X13367801Y-14019508D01*
X13367801Y-14019508D02*
X13386848Y-14009984D01*
X13624944Y-14076650D02*
X13624944Y-14209984D01*
X13577325Y-14000460D02*
X13529706Y-14143317D01*
X13529706Y-14143317D02*
X13653515Y-14143317D01*
X13710658Y-14009984D02*
X13834467Y-14009984D01*
X13834467Y-14009984D02*
X13767801Y-14086174D01*
X13767801Y-14086174D02*
X13796372Y-14086174D01*
X13796372Y-14086174D02*
X13815420Y-14095698D01*
X13815420Y-14095698D02*
X13824944Y-14105222D01*
X13824944Y-14105222D02*
X13834467Y-14124269D01*
X13834467Y-14124269D02*
X13834467Y-14171888D01*
X13834467Y-14171888D02*
X13824944Y-14190936D01*
X13824944Y-14190936D02*
X13815420Y-14200460D01*
X13815420Y-14200460D02*
X13796372Y-14209984D01*
X13796372Y-14209984D02*
X13739229Y-14209984D01*
X13739229Y-14209984D02*
X13720182Y-14200460D01*
X13720182Y-14200460D02*
X13710658Y-14190936D01*
X13901134Y-14009984D02*
X14024944Y-14009984D01*
X14024944Y-14009984D02*
X13958277Y-14086174D01*
X13958277Y-14086174D02*
X13986848Y-14086174D01*
X13986848Y-14086174D02*
X14005896Y-14095698D01*
X14005896Y-14095698D02*
X14015420Y-14105222D01*
X14015420Y-14105222D02*
X14024944Y-14124269D01*
X14024944Y-14124269D02*
X14024944Y-14171888D01*
X14024944Y-14171888D02*
X14015420Y-14190936D01*
X14015420Y-14190936D02*
X14005896Y-14200460D01*
X14005896Y-14200460D02*
X13986848Y-14209984D01*
X13986848Y-14209984D02*
X13929706Y-14209984D01*
X13929706Y-14209984D02*
X13910658Y-14200460D01*
X13910658Y-14200460D02*
X13901134Y-14190936D01*
X14101134Y-14009984D02*
X14101134Y-14048079D01*
X14177325Y-14009984D02*
X14177325Y-14048079D01*
X14472563Y-14286174D02*
X14463039Y-14276650D01*
X14463039Y-14276650D02*
X14443991Y-14248079D01*
X14443991Y-14248079D02*
X14434468Y-14229031D01*
X14434468Y-14229031D02*
X14424944Y-14200460D01*
X14424944Y-14200460D02*
X14415420Y-14152841D01*
X14415420Y-14152841D02*
X14415420Y-14114746D01*
X14415420Y-14114746D02*
X14424944Y-14067127D01*
X14424944Y-14067127D02*
X14434468Y-14038555D01*
X14434468Y-14038555D02*
X14443991Y-14019508D01*
X14443991Y-14019508D02*
X14463039Y-13990936D01*
X14463039Y-13990936D02*
X14472563Y-13981412D01*
X14529706Y-14009984D02*
X14653515Y-14009984D01*
X14653515Y-14009984D02*
X14586848Y-14086174D01*
X14586848Y-14086174D02*
X14615420Y-14086174D01*
X14615420Y-14086174D02*
X14634468Y-14095698D01*
X14634468Y-14095698D02*
X14643991Y-14105222D01*
X14643991Y-14105222D02*
X14653515Y-14124269D01*
X14653515Y-14124269D02*
X14653515Y-14171888D01*
X14653515Y-14171888D02*
X14643991Y-14190936D01*
X14643991Y-14190936D02*
X14634468Y-14200460D01*
X14634468Y-14200460D02*
X14615420Y-14209984D01*
X14615420Y-14209984D02*
X14558277Y-14209984D01*
X14558277Y-14209984D02*
X14539229Y-14200460D01*
X14539229Y-14200460D02*
X14529706Y-14190936D01*
X14767801Y-14095698D02*
X14748753Y-14086174D01*
X14748753Y-14086174D02*
X14739229Y-14076650D01*
X14739229Y-14076650D02*
X14729706Y-14057603D01*
X14729706Y-14057603D02*
X14729706Y-14048079D01*
X14729706Y-14048079D02*
X14739229Y-14029031D01*
X14739229Y-14029031D02*
X14748753Y-14019508D01*
X14748753Y-14019508D02*
X14767801Y-14009984D01*
X14767801Y-14009984D02*
X14805896Y-14009984D01*
X14805896Y-14009984D02*
X14824944Y-14019508D01*
X14824944Y-14019508D02*
X14834468Y-14029031D01*
X14834468Y-14029031D02*
X14843991Y-14048079D01*
X14843991Y-14048079D02*
X14843991Y-14057603D01*
X14843991Y-14057603D02*
X14834468Y-14076650D01*
X14834468Y-14076650D02*
X14824944Y-14086174D01*
X14824944Y-14086174D02*
X14805896Y-14095698D01*
X14805896Y-14095698D02*
X14767801Y-14095698D01*
X14767801Y-14095698D02*
X14748753Y-14105222D01*
X14748753Y-14105222D02*
X14739229Y-14114746D01*
X14739229Y-14114746D02*
X14729706Y-14133793D01*
X14729706Y-14133793D02*
X14729706Y-14171888D01*
X14729706Y-14171888D02*
X14739229Y-14190936D01*
X14739229Y-14190936D02*
X14748753Y-14200460D01*
X14748753Y-14200460D02*
X14767801Y-14209984D01*
X14767801Y-14209984D02*
X14805896Y-14209984D01*
X14805896Y-14209984D02*
X14824944Y-14200460D01*
X14824944Y-14200460D02*
X14834468Y-14190936D01*
X14834468Y-14190936D02*
X14843991Y-14171888D01*
X14843991Y-14171888D02*
X14843991Y-14133793D01*
X14843991Y-14133793D02*
X14834468Y-14114746D01*
X14834468Y-14114746D02*
X14824944Y-14105222D01*
X14824944Y-14105222D02*
X14805896Y-14095698D01*
X15082087Y-14209984D02*
X15082087Y-14009984D01*
X15167801Y-14209984D02*
X15167801Y-14105222D01*
X15167801Y-14105222D02*
X15158277Y-14086174D01*
X15158277Y-14086174D02*
X15139230Y-14076650D01*
X15139230Y-14076650D02*
X15110658Y-14076650D01*
X15110658Y-14076650D02*
X15091610Y-14086174D01*
X15091610Y-14086174D02*
X15082087Y-14095698D01*
X15291610Y-14209984D02*
X15272563Y-14200460D01*
X15272563Y-14200460D02*
X15263039Y-14190936D01*
X15263039Y-14190936D02*
X15253515Y-14171888D01*
X15253515Y-14171888D02*
X15253515Y-14114746D01*
X15253515Y-14114746D02*
X15263039Y-14095698D01*
X15263039Y-14095698D02*
X15272563Y-14086174D01*
X15272563Y-14086174D02*
X15291610Y-14076650D01*
X15291610Y-14076650D02*
X15320182Y-14076650D01*
X15320182Y-14076650D02*
X15339230Y-14086174D01*
X15339230Y-14086174D02*
X15348753Y-14095698D01*
X15348753Y-14095698D02*
X15358277Y-14114746D01*
X15358277Y-14114746D02*
X15358277Y-14171888D01*
X15358277Y-14171888D02*
X15348753Y-14190936D01*
X15348753Y-14190936D02*
X15339230Y-14200460D01*
X15339230Y-14200460D02*
X15320182Y-14209984D01*
X15320182Y-14209984D02*
X15291610Y-14209984D01*
X15472563Y-14209984D02*
X15453515Y-14200460D01*
X15453515Y-14200460D02*
X15443991Y-14181412D01*
X15443991Y-14181412D02*
X15443991Y-14009984D01*
X15624944Y-14200460D02*
X15605896Y-14209984D01*
X15605896Y-14209984D02*
X15567801Y-14209984D01*
X15567801Y-14209984D02*
X15548753Y-14200460D01*
X15548753Y-14200460D02*
X15539230Y-14181412D01*
X15539230Y-14181412D02*
X15539230Y-14105222D01*
X15539230Y-14105222D02*
X15548753Y-14086174D01*
X15548753Y-14086174D02*
X15567801Y-14076650D01*
X15567801Y-14076650D02*
X15605896Y-14076650D01*
X15605896Y-14076650D02*
X15624944Y-14086174D01*
X15624944Y-14086174D02*
X15634468Y-14105222D01*
X15634468Y-14105222D02*
X15634468Y-14124269D01*
X15634468Y-14124269D02*
X15539230Y-14143317D01*
X15710658Y-14200460D02*
X15729706Y-14209984D01*
X15729706Y-14209984D02*
X15767801Y-14209984D01*
X15767801Y-14209984D02*
X15786849Y-14200460D01*
X15786849Y-14200460D02*
X15796372Y-14181412D01*
X15796372Y-14181412D02*
X15796372Y-14171888D01*
X15796372Y-14171888D02*
X15786849Y-14152841D01*
X15786849Y-14152841D02*
X15767801Y-14143317D01*
X15767801Y-14143317D02*
X15739230Y-14143317D01*
X15739230Y-14143317D02*
X15720182Y-14133793D01*
X15720182Y-14133793D02*
X15710658Y-14114746D01*
X15710658Y-14114746D02*
X15710658Y-14105222D01*
X15710658Y-14105222D02*
X15720182Y-14086174D01*
X15720182Y-14086174D02*
X15739230Y-14076650D01*
X15739230Y-14076650D02*
X15767801Y-14076650D01*
X15767801Y-14076650D02*
X15786849Y-14086174D01*
X15863039Y-14286174D02*
X15872563Y-14276650D01*
X15872563Y-14276650D02*
X15891611Y-14248079D01*
X15891611Y-14248079D02*
X15901134Y-14229031D01*
X15901134Y-14229031D02*
X15910658Y-14200460D01*
X15910658Y-14200460D02*
X15920182Y-14152841D01*
X15920182Y-14152841D02*
X15920182Y-14114746D01*
X15920182Y-14114746D02*
X15910658Y-14067127D01*
X15910658Y-14067127D02*
X15901134Y-14038555D01*
X15901134Y-14038555D02*
X15891611Y-14019508D01*
X15891611Y-14019508D02*
X15872563Y-13990936D01*
X15872563Y-13990936D02*
X15863039Y-13981412D01*
D14*
X10767500Y-14317500D02*
X10897500Y-14447500D01*
X10897500Y-14317500D02*
X10767500Y-14447500D01*
X10897500Y-14382500D02*
G75*
G02*
X10767500Y-14382500I-65000J0D01*
G01*
X10767500Y-14382500D02*
G75*
G02*
X10897500Y-14382500I65000J0D01*
G01*
D11*
X11263039Y-14473984D02*
X11148753Y-14473984D01*
X11205896Y-14473984D02*
X11205896Y-14273984D01*
X11205896Y-14273984D02*
X11186848Y-14302555D01*
X11186848Y-14302555D02*
X11167801Y-14321603D01*
X11167801Y-14321603D02*
X11148753Y-14331127D01*
X11348753Y-14454936D02*
X11358277Y-14464460D01*
X11358277Y-14464460D02*
X11348753Y-14473984D01*
X11348753Y-14473984D02*
X11339229Y-14464460D01*
X11339229Y-14464460D02*
X11348753Y-14454936D01*
X11348753Y-14454936D02*
X11348753Y-14473984D01*
X11424943Y-14273984D02*
X11548753Y-14273984D01*
X11548753Y-14273984D02*
X11482086Y-14350174D01*
X11482086Y-14350174D02*
X11510658Y-14350174D01*
X11510658Y-14350174D02*
X11529705Y-14359698D01*
X11529705Y-14359698D02*
X11539229Y-14369222D01*
X11539229Y-14369222D02*
X11548753Y-14388269D01*
X11548753Y-14388269D02*
X11548753Y-14435888D01*
X11548753Y-14435888D02*
X11539229Y-14454936D01*
X11539229Y-14454936D02*
X11529705Y-14464460D01*
X11529705Y-14464460D02*
X11510658Y-14473984D01*
X11510658Y-14473984D02*
X11453515Y-14473984D01*
X11453515Y-14473984D02*
X11434467Y-14464460D01*
X11434467Y-14464460D02*
X11424943Y-14454936D01*
X11672562Y-14273984D02*
X11691610Y-14273984D01*
X11691610Y-14273984D02*
X11710658Y-14283508D01*
X11710658Y-14283508D02*
X11720182Y-14293031D01*
X11720182Y-14293031D02*
X11729705Y-14312079D01*
X11729705Y-14312079D02*
X11739229Y-14350174D01*
X11739229Y-14350174D02*
X11739229Y-14397793D01*
X11739229Y-14397793D02*
X11729705Y-14435888D01*
X11729705Y-14435888D02*
X11720182Y-14454936D01*
X11720182Y-14454936D02*
X11710658Y-14464460D01*
X11710658Y-14464460D02*
X11691610Y-14473984D01*
X11691610Y-14473984D02*
X11672562Y-14473984D01*
X11672562Y-14473984D02*
X11653515Y-14464460D01*
X11653515Y-14464460D02*
X11643991Y-14454936D01*
X11643991Y-14454936D02*
X11634467Y-14435888D01*
X11634467Y-14435888D02*
X11624943Y-14397793D01*
X11624943Y-14397793D02*
X11624943Y-14350174D01*
X11624943Y-14350174D02*
X11634467Y-14312079D01*
X11634467Y-14312079D02*
X11643991Y-14293031D01*
X11643991Y-14293031D02*
X11653515Y-14283508D01*
X11653515Y-14283508D02*
X11672562Y-14273984D01*
X11863039Y-14273984D02*
X11882086Y-14273984D01*
X11882086Y-14273984D02*
X11901134Y-14283508D01*
X11901134Y-14283508D02*
X11910658Y-14293031D01*
X11910658Y-14293031D02*
X11920182Y-14312079D01*
X11920182Y-14312079D02*
X11929705Y-14350174D01*
X11929705Y-14350174D02*
X11929705Y-14397793D01*
X11929705Y-14397793D02*
X11920182Y-14435888D01*
X11920182Y-14435888D02*
X11910658Y-14454936D01*
X11910658Y-14454936D02*
X11901134Y-14464460D01*
X11901134Y-14464460D02*
X11882086Y-14473984D01*
X11882086Y-14473984D02*
X11863039Y-14473984D01*
X11863039Y-14473984D02*
X11843991Y-14464460D01*
X11843991Y-14464460D02*
X11834467Y-14454936D01*
X11834467Y-14454936D02*
X11824943Y-14435888D01*
X11824943Y-14435888D02*
X11815420Y-14397793D01*
X11815420Y-14397793D02*
X11815420Y-14350174D01*
X11815420Y-14350174D02*
X11824943Y-14312079D01*
X11824943Y-14312079D02*
X11834467Y-14293031D01*
X11834467Y-14293031D02*
X11843991Y-14283508D01*
X11843991Y-14283508D02*
X11863039Y-14273984D01*
X12015420Y-14473984D02*
X12015420Y-14340650D01*
X12015420Y-14359698D02*
X12024943Y-14350174D01*
X12024943Y-14350174D02*
X12043991Y-14340650D01*
X12043991Y-14340650D02*
X12072563Y-14340650D01*
X12072563Y-14340650D02*
X12091610Y-14350174D01*
X12091610Y-14350174D02*
X12101134Y-14369222D01*
X12101134Y-14369222D02*
X12101134Y-14473984D01*
X12101134Y-14369222D02*
X12110658Y-14350174D01*
X12110658Y-14350174D02*
X12129705Y-14340650D01*
X12129705Y-14340650D02*
X12158277Y-14340650D01*
X12158277Y-14340650D02*
X12177324Y-14350174D01*
X12177324Y-14350174D02*
X12186848Y-14369222D01*
X12186848Y-14369222D02*
X12186848Y-14473984D01*
X12282086Y-14473984D02*
X12282086Y-14340650D01*
X12282086Y-14359698D02*
X12291610Y-14350174D01*
X12291610Y-14350174D02*
X12310658Y-14340650D01*
X12310658Y-14340650D02*
X12339229Y-14340650D01*
X12339229Y-14340650D02*
X12358277Y-14350174D01*
X12358277Y-14350174D02*
X12367801Y-14369222D01*
X12367801Y-14369222D02*
X12367801Y-14473984D01*
X12367801Y-14369222D02*
X12377324Y-14350174D01*
X12377324Y-14350174D02*
X12396372Y-14340650D01*
X12396372Y-14340650D02*
X12424943Y-14340650D01*
X12424943Y-14340650D02*
X12443991Y-14350174D01*
X12443991Y-14350174D02*
X12453515Y-14369222D01*
X12453515Y-14369222D02*
X12453515Y-14473984D01*
X12843991Y-14264460D02*
X12672563Y-14521603D01*
X13101134Y-14273984D02*
X13120182Y-14273984D01*
X13120182Y-14273984D02*
X13139229Y-14283508D01*
X13139229Y-14283508D02*
X13148753Y-14293031D01*
X13148753Y-14293031D02*
X13158277Y-14312079D01*
X13158277Y-14312079D02*
X13167801Y-14350174D01*
X13167801Y-14350174D02*
X13167801Y-14397793D01*
X13167801Y-14397793D02*
X13158277Y-14435888D01*
X13158277Y-14435888D02*
X13148753Y-14454936D01*
X13148753Y-14454936D02*
X13139229Y-14464460D01*
X13139229Y-14464460D02*
X13120182Y-14473984D01*
X13120182Y-14473984D02*
X13101134Y-14473984D01*
X13101134Y-14473984D02*
X13082086Y-14464460D01*
X13082086Y-14464460D02*
X13072563Y-14454936D01*
X13072563Y-14454936D02*
X13063039Y-14435888D01*
X13063039Y-14435888D02*
X13053515Y-14397793D01*
X13053515Y-14397793D02*
X13053515Y-14350174D01*
X13053515Y-14350174D02*
X13063039Y-14312079D01*
X13063039Y-14312079D02*
X13072563Y-14293031D01*
X13072563Y-14293031D02*
X13082086Y-14283508D01*
X13082086Y-14283508D02*
X13101134Y-14273984D01*
X13253515Y-14454936D02*
X13263039Y-14464460D01*
X13263039Y-14464460D02*
X13253515Y-14473984D01*
X13253515Y-14473984D02*
X13243991Y-14464460D01*
X13243991Y-14464460D02*
X13253515Y-14454936D01*
X13253515Y-14454936D02*
X13253515Y-14473984D01*
X13386848Y-14273984D02*
X13405896Y-14273984D01*
X13405896Y-14273984D02*
X13424944Y-14283508D01*
X13424944Y-14283508D02*
X13434467Y-14293031D01*
X13434467Y-14293031D02*
X13443991Y-14312079D01*
X13443991Y-14312079D02*
X13453515Y-14350174D01*
X13453515Y-14350174D02*
X13453515Y-14397793D01*
X13453515Y-14397793D02*
X13443991Y-14435888D01*
X13443991Y-14435888D02*
X13434467Y-14454936D01*
X13434467Y-14454936D02*
X13424944Y-14464460D01*
X13424944Y-14464460D02*
X13405896Y-14473984D01*
X13405896Y-14473984D02*
X13386848Y-14473984D01*
X13386848Y-14473984D02*
X13367801Y-14464460D01*
X13367801Y-14464460D02*
X13358277Y-14454936D01*
X13358277Y-14454936D02*
X13348753Y-14435888D01*
X13348753Y-14435888D02*
X13339229Y-14397793D01*
X13339229Y-14397793D02*
X13339229Y-14350174D01*
X13339229Y-14350174D02*
X13348753Y-14312079D01*
X13348753Y-14312079D02*
X13358277Y-14293031D01*
X13358277Y-14293031D02*
X13367801Y-14283508D01*
X13367801Y-14283508D02*
X13386848Y-14273984D01*
X13634467Y-14273984D02*
X13539229Y-14273984D01*
X13539229Y-14273984D02*
X13529706Y-14369222D01*
X13529706Y-14369222D02*
X13539229Y-14359698D01*
X13539229Y-14359698D02*
X13558277Y-14350174D01*
X13558277Y-14350174D02*
X13605896Y-14350174D01*
X13605896Y-14350174D02*
X13624944Y-14359698D01*
X13624944Y-14359698D02*
X13634467Y-14369222D01*
X13634467Y-14369222D02*
X13643991Y-14388269D01*
X13643991Y-14388269D02*
X13643991Y-14435888D01*
X13643991Y-14435888D02*
X13634467Y-14454936D01*
X13634467Y-14454936D02*
X13624944Y-14464460D01*
X13624944Y-14464460D02*
X13605896Y-14473984D01*
X13605896Y-14473984D02*
X13558277Y-14473984D01*
X13558277Y-14473984D02*
X13539229Y-14464460D01*
X13539229Y-14464460D02*
X13529706Y-14454936D01*
X13834467Y-14473984D02*
X13720182Y-14473984D01*
X13777325Y-14473984D02*
X13777325Y-14273984D01*
X13777325Y-14273984D02*
X13758277Y-14302555D01*
X13758277Y-14302555D02*
X13739229Y-14321603D01*
X13739229Y-14321603D02*
X13720182Y-14331127D01*
X13910658Y-14293031D02*
X13920182Y-14283508D01*
X13920182Y-14283508D02*
X13939229Y-14273984D01*
X13939229Y-14273984D02*
X13986848Y-14273984D01*
X13986848Y-14273984D02*
X14005896Y-14283508D01*
X14005896Y-14283508D02*
X14015420Y-14293031D01*
X14015420Y-14293031D02*
X14024944Y-14312079D01*
X14024944Y-14312079D02*
X14024944Y-14331127D01*
X14024944Y-14331127D02*
X14015420Y-14359698D01*
X14015420Y-14359698D02*
X13901134Y-14473984D01*
X13901134Y-14473984D02*
X14024944Y-14473984D01*
X14101134Y-14273984D02*
X14101134Y-14312079D01*
X14177325Y-14273984D02*
X14177325Y-14312079D01*
X14472563Y-14550174D02*
X14463039Y-14540650D01*
X14463039Y-14540650D02*
X14443991Y-14512079D01*
X14443991Y-14512079D02*
X14434468Y-14493031D01*
X14434468Y-14493031D02*
X14424944Y-14464460D01*
X14424944Y-14464460D02*
X14415420Y-14416841D01*
X14415420Y-14416841D02*
X14415420Y-14378746D01*
X14415420Y-14378746D02*
X14424944Y-14331127D01*
X14424944Y-14331127D02*
X14434468Y-14302555D01*
X14434468Y-14302555D02*
X14443991Y-14283508D01*
X14443991Y-14283508D02*
X14463039Y-14254936D01*
X14463039Y-14254936D02*
X14472563Y-14245412D01*
X14539229Y-14293031D02*
X14548753Y-14283508D01*
X14548753Y-14283508D02*
X14567801Y-14273984D01*
X14567801Y-14273984D02*
X14615420Y-14273984D01*
X14615420Y-14273984D02*
X14634468Y-14283508D01*
X14634468Y-14283508D02*
X14643991Y-14293031D01*
X14643991Y-14293031D02*
X14653515Y-14312079D01*
X14653515Y-14312079D02*
X14653515Y-14331127D01*
X14653515Y-14331127D02*
X14643991Y-14359698D01*
X14643991Y-14359698D02*
X14529706Y-14473984D01*
X14529706Y-14473984D02*
X14653515Y-14473984D01*
X14891610Y-14473984D02*
X14891610Y-14273984D01*
X14977325Y-14473984D02*
X14977325Y-14369222D01*
X14977325Y-14369222D02*
X14967801Y-14350174D01*
X14967801Y-14350174D02*
X14948753Y-14340650D01*
X14948753Y-14340650D02*
X14920182Y-14340650D01*
X14920182Y-14340650D02*
X14901134Y-14350174D01*
X14901134Y-14350174D02*
X14891610Y-14359698D01*
X15101134Y-14473984D02*
X15082087Y-14464460D01*
X15082087Y-14464460D02*
X15072563Y-14454936D01*
X15072563Y-14454936D02*
X15063039Y-14435888D01*
X15063039Y-14435888D02*
X15063039Y-14378746D01*
X15063039Y-14378746D02*
X15072563Y-14359698D01*
X15072563Y-14359698D02*
X15082087Y-14350174D01*
X15082087Y-14350174D02*
X15101134Y-14340650D01*
X15101134Y-14340650D02*
X15129706Y-14340650D01*
X15129706Y-14340650D02*
X15148753Y-14350174D01*
X15148753Y-14350174D02*
X15158277Y-14359698D01*
X15158277Y-14359698D02*
X15167801Y-14378746D01*
X15167801Y-14378746D02*
X15167801Y-14435888D01*
X15167801Y-14435888D02*
X15158277Y-14454936D01*
X15158277Y-14454936D02*
X15148753Y-14464460D01*
X15148753Y-14464460D02*
X15129706Y-14473984D01*
X15129706Y-14473984D02*
X15101134Y-14473984D01*
X15282087Y-14473984D02*
X15263039Y-14464460D01*
X15263039Y-14464460D02*
X15253515Y-14445412D01*
X15253515Y-14445412D02*
X15253515Y-14273984D01*
X15434468Y-14464460D02*
X15415420Y-14473984D01*
X15415420Y-14473984D02*
X15377325Y-14473984D01*
X15377325Y-14473984D02*
X15358277Y-14464460D01*
X15358277Y-14464460D02*
X15348753Y-14445412D01*
X15348753Y-14445412D02*
X15348753Y-14369222D01*
X15348753Y-14369222D02*
X15358277Y-14350174D01*
X15358277Y-14350174D02*
X15377325Y-14340650D01*
X15377325Y-14340650D02*
X15415420Y-14340650D01*
X15415420Y-14340650D02*
X15434468Y-14350174D01*
X15434468Y-14350174D02*
X15443991Y-14369222D01*
X15443991Y-14369222D02*
X15443991Y-14388269D01*
X15443991Y-14388269D02*
X15348753Y-14407317D01*
X15520182Y-14464460D02*
X15539230Y-14473984D01*
X15539230Y-14473984D02*
X15577325Y-14473984D01*
X15577325Y-14473984D02*
X15596372Y-14464460D01*
X15596372Y-14464460D02*
X15605896Y-14445412D01*
X15605896Y-14445412D02*
X15605896Y-14435888D01*
X15605896Y-14435888D02*
X15596372Y-14416841D01*
X15596372Y-14416841D02*
X15577325Y-14407317D01*
X15577325Y-14407317D02*
X15548753Y-14407317D01*
X15548753Y-14407317D02*
X15529706Y-14397793D01*
X15529706Y-14397793D02*
X15520182Y-14378746D01*
X15520182Y-14378746D02*
X15520182Y-14369222D01*
X15520182Y-14369222D02*
X15529706Y-14350174D01*
X15529706Y-14350174D02*
X15548753Y-14340650D01*
X15548753Y-14340650D02*
X15577325Y-14340650D01*
X15577325Y-14340650D02*
X15596372Y-14350174D01*
X15672563Y-14550174D02*
X15682087Y-14540650D01*
X15682087Y-14540650D02*
X15701134Y-14512079D01*
X15701134Y-14512079D02*
X15710658Y-14493031D01*
X15710658Y-14493031D02*
X15720182Y-14464460D01*
X15720182Y-14464460D02*
X15729706Y-14416841D01*
X15729706Y-14416841D02*
X15729706Y-14378746D01*
X15729706Y-14378746D02*
X15720182Y-14331127D01*
X15720182Y-14331127D02*
X15710658Y-14302555D01*
X15710658Y-14302555D02*
X15701134Y-14283508D01*
X15701134Y-14283508D02*
X15682087Y-14254936D01*
X15682087Y-14254936D02*
X15672563Y-14245412D01*
M02*
