%TF.GenerationSoftware,KiCad,Pcbnew,8.0.7*%
%TF.CreationDate,2024-12-28T14:38:35+07:00*%
%TF.ProjectId,Teensy4.0PCB,5465656e-7379-4342-9e30-5043422e6b69,rev?*%
%TF.SameCoordinates,Original*%
%TF.FileFunction,Component,L1,Top*%
%TF.FilePolarity,Positive*%
%FSLAX46Y46*%
G04 Gerber Fmt 4.6, Leading zero omitted, Abs format (unit mm)*
G04 Created by KiCad (PCBNEW 8.0.7) date 2024-12-28 14:38:35*
%MOMM*%
%LPD*%
G01*
G04 APERTURE LIST*
%TA.AperFunction,ComponentMain*%
%ADD10C,0.300000*%
%TD*%
%TA.AperFunction,ComponentOutline,Courtyard*%
%ADD11C,0.100000*%
%TD*%
%TA.AperFunction,ComponentPin*%
%ADD12P,0.360000X4X0.000000*%
%TD*%
%TA.AperFunction,ComponentPin*%
%ADD13C,0.100000*%
%TD*%
%TA.AperFunction,ComponentOutline,Footprint*%
%ADD14C,0.100000*%
%TD*%
G04 APERTURE END LIST*
D10*
%TO.C,C10*%
%TO.CFtp,C_0402_1005Metric_Pad0.74x0.62mm_HandSolder*%
%TO.CVal,3.3nF / Cer*%
%TO.CLbN,Capacitor_SMD*%
%TO.CMnt,SMD*%
%TO.CRot,-90*%
X159999999Y-72200002D03*
D11*
X160454999Y-71125002D02*
X160454999Y-73275002D01*
X159544999Y-73275002D01*
X159544999Y-71125002D01*
X160454999Y-71125002D01*
D12*
%TO.P,C10,1*%
X159999999Y-71632502D03*
D13*
%TO.P,C10,2*%
X159999999Y-72767502D03*
%TD*%
D10*
%TO.C,C11*%
%TO.CFtp,C_0402_1005Metric_Pad0.74x0.62mm_HandSolder*%
%TO.CVal,10uF / Cer*%
%TO.CLbN,Capacitor_SMD*%
%TO.CMnt,SMD*%
%TO.CRot,180*%
X158999999Y-69300002D03*
D11*
X160074999Y-68845002D02*
X160074999Y-69755002D01*
X157924999Y-69755002D01*
X157924999Y-68845002D01*
X160074999Y-68845002D01*
D12*
%TO.P,C11,1*%
X159567499Y-69300002D03*
D13*
%TO.P,C11,2*%
X158432499Y-69300002D03*
%TD*%
D10*
%TO.C,R7*%
%TO.CFtp,R_0402_1005Metric_Pad0.72x0.64mm_HandSolder*%
%TO.CVal,100k / Film*%
%TO.CLbN,Resistor_SMD*%
%TO.CMnt,SMD*%
%TO.CRot,90*%
X153500000Y-76100000D03*
D11*
X153965000Y-75005000D02*
X153965000Y-77195000D01*
X153035000Y-77195000D01*
X153035000Y-75005000D01*
X153965000Y-75005000D01*
D12*
%TO.P,R7,1*%
X153500000Y-76697500D03*
D13*
%TO.P,R7,2*%
X153500000Y-75502500D03*
%TD*%
D10*
%TO.C,R4*%
%TO.CFtp,R_0402_1005Metric_Pad0.72x0.64mm_HandSolder*%
%TO.CVal,10K*%
%TO.CLbN,Resistor_SMD*%
%TO.CMnt,SMD*%
%TO.CRot,0*%
X144800000Y-75900000D03*
D11*
X145895000Y-75435000D02*
X145895000Y-76365000D01*
X143705000Y-76365000D01*
X143705000Y-75435000D01*
X145895000Y-75435000D01*
D12*
%TO.P,R4,1*%
X144202500Y-75900000D03*
D13*
%TO.P,R4,2*%
X145397500Y-75900000D03*
%TD*%
D10*
%TO.C,C14*%
%TO.CFtp,C_0402_1005Metric_Pad0.74x0.62mm_HandSolder*%
%TO.CVal,22uF / Cer*%
%TO.CLbN,Capacitor_SMD*%
%TO.CMnt,SMD*%
%TO.CRot,-90*%
X146500000Y-72267500D03*
D11*
X146955000Y-71192500D02*
X146955000Y-73342500D01*
X146045000Y-73342500D01*
X146045000Y-71192500D01*
X146955000Y-71192500D01*
D12*
%TO.P,C14,1*%
X146500000Y-71700000D03*
D13*
%TO.P,C14,2*%
X146500000Y-72835000D03*
%TD*%
D10*
%TO.C,U4*%
%TO.CFtp,RGT16_1P7X1P7*%
%TO.CVal,TPS62143RGTT*%
%TO.CLbN,footprints3*%
%TO.CMnt,SMD*%
%TO.CRot,0*%
X156224998Y-72750001D03*
D11*
X158373998Y-70601001D02*
X158373998Y-74899001D01*
X154075998Y-74899001D01*
X154075998Y-70601001D01*
X158373998Y-70601001D01*
D12*
%TO.P,U4,1,SW*%
X154749997Y-72000000D03*
D13*
%TO.P,U4,2,SW*%
X154749997Y-72500001D03*
%TO.P,U4,3,SW*%
X154749997Y-73000001D03*
%TO.P,U4,4,PG*%
X154749997Y-73500002D03*
%TO.P,U4,5,FB*%
X155474809Y-74225002D03*
%TO.P,U4,6,AGND*%
X155974935Y-74225002D03*
%TO.P,U4,7,FSW*%
X156475061Y-74225002D03*
%TO.P,U4,8,DEF*%
X156975187Y-74225002D03*
%TO.P,U4,9,SS/TR*%
X157699999Y-73500002D03*
%TO.P,U4,10,AVIN*%
X157699999Y-73000001D03*
%TO.P,U4,11,PVIN*%
X157699999Y-72500001D03*
%TO.P,U4,12,PVIN*%
X157699999Y-72000000D03*
%TO.P,U4,13,EN*%
X156975187Y-71275000D03*
%TO.P,U4,14,VOS*%
X156475061Y-71275000D03*
%TO.P,U4,15,PGND*%
X155974935Y-71275000D03*
%TO.P,U4,16,PGND*%
X155474809Y-71275000D03*
%TO.P,U4,17,EPAD*%
X156224998Y-72750001D03*
%TD*%
D10*
%TO.C,U5*%
%TO.CFtp,DGS10*%
%TO.CVal,TPS62056DGSR*%
%TO.CLbN,footprints2*%
%TO.CMnt,SMD*%
%TO.CRot,0*%
X156400000Y-82900000D03*
D11*
X159531900Y-81101600D02*
X159531900Y-84698400D01*
X153268100Y-84698400D01*
X153268100Y-81101600D01*
X159531900Y-81101600D01*
D12*
%TO.P,U5,1,VIN*%
X154304500Y-81899999D03*
D13*
%TO.P,U5,2,LBO*%
X154304500Y-82400001D03*
%TO.P,U5,3,GND*%
X154304500Y-82900000D03*
%TO.P,U5,4,PG*%
X154304500Y-83399999D03*
%TO.P,U5,5,FB*%
X154304500Y-83900001D03*
%TO.P,U5,6,LBI*%
X158495500Y-83900001D03*
%TO.P,U5,7,SYNC*%
X158495500Y-83399999D03*
%TO.P,U5,8,EN*%
X158495500Y-82900000D03*
%TO.P,U5,9,SW*%
X158495500Y-82400001D03*
%TO.P,U5,10,PGND*%
X158495500Y-81899999D03*
%TD*%
D10*
%TO.C,IC2*%
%TO.CFtp,SOP50P310X90-8N*%
%TO.CVal,NC7WZ241K8X*%
%TO.CLbN,NC7WZ241K8X*%
%TO.CMnt,SMD*%
%TO.CRot,0*%
X150575000Y-121050000D03*
D11*
X152820000Y-119755000D02*
X152820000Y-122345000D01*
X148330000Y-122345000D01*
X148330000Y-119755000D01*
X152820000Y-119755000D01*
D12*
%TO.P,IC2,1,~{OE}*%
X149000000Y-120300000D03*
D13*
%TO.P,IC2,2,A1*%
X149000000Y-120800000D03*
%TO.P,IC2,3,Y2*%
X149000000Y-121300000D03*
%TO.P,IC2,4,GND*%
X149000000Y-121800000D03*
%TO.P,IC2,5,A2*%
X152150000Y-121800000D03*
%TO.P,IC2,6,Y1*%
X152150000Y-121300000D03*
%TO.P,IC2,7,OE*%
X152150000Y-120800000D03*
%TO.P,IC2,8,VCC*%
X152150000Y-120300000D03*
%TD*%
D10*
%TO.C,IC1*%
%TO.CFtp,SOP65P640X120-20N*%
%TO.CVal,TXB0108PWR*%
%TO.CLbN,TXB0108PWR*%
%TO.CMnt,SMD*%
%TO.CRot,0*%
X141262000Y-113825000D03*
D11*
X145182000Y-110280000D02*
X145182000Y-117370000D01*
X137342000Y-117370000D01*
X137342000Y-110280000D01*
X145182000Y-110280000D01*
D12*
%TO.P,IC1,1,A1*%
X138324000Y-110900000D03*
D13*
%TO.P,IC1,2,VCCA*%
X138324000Y-111550000D03*
%TO.P,IC1,3,A2*%
X138324000Y-112200000D03*
%TO.P,IC1,4,A3*%
X138324000Y-112850000D03*
%TO.P,IC1,5,A4*%
X138324000Y-113500000D03*
%TO.P,IC1,6,A5*%
X138324000Y-114150000D03*
%TO.P,IC1,7,A6*%
X138324000Y-114800000D03*
%TO.P,IC1,8,A7*%
X138324000Y-115450000D03*
%TO.P,IC1,9,A8*%
X138324000Y-116100000D03*
%TO.P,IC1,10,OE*%
X138324000Y-116750000D03*
%TO.P,IC1,11,GND*%
X144200000Y-116750000D03*
%TO.P,IC1,12,B8*%
X144200000Y-116100000D03*
%TO.P,IC1,13,B7*%
X144200000Y-115450000D03*
%TO.P,IC1,14,B6*%
X144200000Y-114800000D03*
%TO.P,IC1,15,B5*%
X144200000Y-114150000D03*
%TO.P,IC1,16,B4*%
X144200000Y-113500000D03*
%TO.P,IC1,17,B3*%
X144200000Y-112850000D03*
%TO.P,IC1,18,B2*%
X144200000Y-112200000D03*
%TO.P,IC1,19,VCCB*%
X144200000Y-111550000D03*
%TO.P,IC1,20,B1*%
X144200000Y-110900000D03*
%TD*%
D10*
%TO.C,C6*%
%TO.CFtp,C_0805_2012Metric_Pad1.18x1.45mm_HandSolder*%
%TO.CVal,0.1uF*%
%TO.CLbN,Capacitor_SMD*%
%TO.CMnt,SMD*%
%TO.CRot,0*%
X134200000Y-110600000D03*
D11*
X136075000Y-109625000D02*
X136075000Y-111575000D01*
X132325000Y-111575000D01*
X132325000Y-109625000D01*
X136075000Y-109625000D01*
D12*
%TO.P,C6,1*%
X133162500Y-110600000D03*
D13*
%TO.P,C6,2*%
X135237500Y-110600000D03*
%TD*%
D10*
%TO.C,R1*%
%TO.CFtp,R_1206_3216Metric_Pad1.30x1.75mm_HandSolder*%
%TO.CVal,10K*%
%TO.CLbN,Resistor_SMD*%
%TO.CMnt,SMD*%
%TO.CRot,-90*%
X162700000Y-102900000D03*
D11*
X163815000Y-100455000D02*
X163815000Y-105345000D01*
X161585000Y-105345000D01*
X161585000Y-100455000D01*
X163815000Y-100455000D01*
D12*
%TO.P,R1,1*%
X162700000Y-101350000D03*
D13*
%TO.P,R1,2*%
X162700000Y-104450000D03*
%TD*%
D10*
%TO.C,C5*%
%TO.CFtp,C_1206_3216Metric_Pad1.33x1.80mm_HandSolder*%
%TO.CVal,0.1uF*%
%TO.CLbN,Capacitor_SMD*%
%TO.CMnt,SMD*%
%TO.CRot,90*%
X162700000Y-109100000D03*
D11*
X163845000Y-106625000D02*
X163845000Y-111575000D01*
X161555000Y-111575000D01*
X161555000Y-106625000D01*
X163845000Y-106625000D01*
D12*
%TO.P,C5,1*%
X162700000Y-110662500D03*
D13*
%TO.P,C5,2*%
X162700000Y-107537500D03*
%TD*%
D10*
%TO.C,R2*%
%TO.CFtp,R_1206_3216Metric_Pad1.30x1.75mm_HandSolder*%
%TO.CVal,10K*%
%TO.CLbN,Resistor_SMD*%
%TO.CMnt,SMD*%
%TO.CRot,0*%
X156000000Y-111400000D03*
D11*
X158445000Y-110285000D02*
X158445000Y-112515000D01*
X153555000Y-112515000D01*
X153555000Y-110285000D01*
X158445000Y-110285000D01*
D12*
%TO.P,R2,1*%
X154450000Y-111400000D03*
D13*
%TO.P,R2,2*%
X157550000Y-111400000D03*
%TD*%
D10*
%TO.C,C1*%
%TO.CFtp,C_1206_3216Metric_Pad1.33x1.80mm_HandSolder*%
%TO.CVal,10uF*%
%TO.CLbN,Capacitor_SMD*%
%TO.CMnt,SMD*%
%TO.CRot,90*%
X116100000Y-108162500D03*
D11*
X117245000Y-105687500D02*
X117245000Y-110637500D01*
X114955000Y-110637500D01*
X114955000Y-105687500D01*
X117245000Y-105687500D01*
D12*
%TO.P,C1,1*%
X116100000Y-109725000D03*
D13*
%TO.P,C1,2*%
X116100000Y-106600000D03*
%TD*%
D10*
%TO.C,R3*%
%TO.CFtp,R_1206_3216Metric_Pad1.30x1.75mm_HandSolder*%
%TO.CVal,10K*%
%TO.CLbN,Resistor_SMD*%
%TO.CMnt,SMD*%
%TO.CRot,-90*%
X132800000Y-114950000D03*
D11*
X133915000Y-112505000D02*
X133915000Y-117395000D01*
X131685000Y-117395000D01*
X131685000Y-112505000D01*
X133915000Y-112505000D01*
D12*
%TO.P,R3,1*%
X132800000Y-113400000D03*
D13*
%TO.P,R3,2*%
X132800000Y-116500000D03*
%TD*%
D10*
%TO.C,C13*%
%TO.CFtp,C_0402_1005Metric_Pad0.74x0.62mm_HandSolder*%
%TO.CVal,22uF / Cer*%
%TO.CLbN,Capacitor_SMD*%
%TO.CMnt,SMD*%
%TO.CRot,0*%
X157000000Y-95900000D03*
D11*
X158075000Y-95445000D02*
X158075000Y-96355000D01*
X155925000Y-96355000D01*
X155925000Y-95445000D01*
X158075000Y-95445000D01*
D12*
%TO.P,C13,1*%
X156432500Y-95900000D03*
D13*
%TO.P,C13,2*%
X157567500Y-95900000D03*
%TD*%
D10*
%TO.C,C12*%
%TO.CFtp,C_0402_1005Metric_Pad0.74x0.62mm_HandSolder*%
%TO.CVal,10uF / Cer*%
%TO.CLbN,Capacitor_SMD*%
%TO.CMnt,SMD*%
%TO.CRot,-90*%
X151500000Y-83000000D03*
D11*
X151955000Y-81925000D02*
X151955000Y-84075000D01*
X151045000Y-84075000D01*
X151045000Y-81925000D01*
X151955000Y-81925000D01*
D12*
%TO.P,C12,1*%
X151500000Y-82432500D03*
D13*
%TO.P,C12,2*%
X151500000Y-83567500D03*
%TD*%
D10*
%TO.C,C9*%
%TO.CFtp,C_0402_1005Metric_Pad0.74x0.62mm_HandSolder*%
%TO.CVal,10uF*%
%TO.CLbN,Capacitor_SMD*%
%TO.CMnt,SMD*%
%TO.CRot,0*%
X111500000Y-84900000D03*
D11*
X112575000Y-84445000D02*
X112575000Y-85355000D01*
X110425000Y-85355000D01*
X110425000Y-84445000D01*
X112575000Y-84445000D01*
D12*
%TO.P,C9,1*%
X110932500Y-84900000D03*
D13*
%TO.P,C9,2*%
X112067500Y-84900000D03*
%TD*%
D10*
%TO.C,C8*%
%TO.CFtp,C_0402_1005Metric_Pad0.74x0.62mm_HandSolder*%
%TO.CVal,0.1uF*%
%TO.CLbN,Capacitor_SMD*%
%TO.CMnt,SMD*%
%TO.CRot,0*%
X111550000Y-82360000D03*
D11*
X112625000Y-81905000D02*
X112625000Y-82815000D01*
X110475000Y-82815000D01*
X110475000Y-81905000D01*
X112625000Y-81905000D01*
D12*
%TO.P,C8,1*%
X110982500Y-82360000D03*
D13*
%TO.P,C8,2*%
X112117500Y-82360000D03*
%TD*%
D10*
%TO.C,C7*%
%TO.CFtp,C_0402_1005Metric_Pad0.74x0.62mm_HandSolder*%
%TO.CVal,0.1uF*%
%TO.CLbN,Capacitor_SMD*%
%TO.CMnt,SMD*%
%TO.CRot,180*%
X146700000Y-109400000D03*
D11*
X147775000Y-108945000D02*
X147775000Y-109855000D01*
X145625000Y-109855000D01*
X145625000Y-108945000D01*
X147775000Y-108945000D01*
D12*
%TO.P,C7,1*%
X147267500Y-109400000D03*
D13*
%TO.P,C7,2*%
X146132500Y-109400000D03*
%TD*%
D10*
%TO.C,C4*%
%TO.CFtp,C_0402_1005Metric_Pad0.74x0.62mm_HandSolder*%
%TO.CVal,0.1uF*%
%TO.CLbN,Capacitor_SMD*%
%TO.CMnt,SMD*%
%TO.CRot,0*%
X152500000Y-100800000D03*
D11*
X153575000Y-100345000D02*
X153575000Y-101255000D01*
X151425000Y-101255000D01*
X151425000Y-100345000D01*
X153575000Y-100345000D01*
D12*
%TO.P,C4,1*%
X151932500Y-100800000D03*
D13*
%TO.P,C4,2*%
X153067500Y-100800000D03*
%TD*%
D10*
%TO.C,C3*%
%TO.CFtp,C_0402_1005Metric_Pad0.74x0.62mm_HandSolder*%
%TO.CVal,0.0068uF / Cer*%
%TO.CLbN,Capacitor_SMD*%
%TO.CMnt,SMD*%
%TO.CRot,180*%
X152500000Y-102100000D03*
D11*
X153575000Y-101645000D02*
X153575000Y-102555000D01*
X151425000Y-102555000D01*
X151425000Y-101645000D01*
X153575000Y-101645000D01*
D12*
%TO.P,C3,1*%
X153067500Y-102100000D03*
D13*
%TO.P,C3,2*%
X151932500Y-102100000D03*
%TD*%
D10*
%TO.C,C2*%
%TO.CFtp,C_0402_1005Metric_Pad0.74x0.62mm_HandSolder*%
%TO.CVal,0.1uF*%
%TO.CLbN,Capacitor_SMD*%
%TO.CMnt,SMD*%
%TO.CRot,0*%
X149700000Y-100800000D03*
D11*
X150775000Y-100345000D02*
X150775000Y-101255000D01*
X148625000Y-101255000D01*
X148625000Y-100345000D01*
X150775000Y-100345000D01*
D12*
%TO.P,C2,1*%
X149132500Y-100800000D03*
D13*
%TO.P,C2,2*%
X150267500Y-100800000D03*
%TD*%
D10*
%TO.C,L1*%
%TO.CFtp,IND_SRP2512_BRN*%
%TO.CVal,2.2uH*%
%TO.CLbN,foorprints4*%
%TO.CMnt,SMD*%
%TO.CRot,-90*%
X150200000Y-72900000D03*
D11*
X151579300Y-70949200D02*
X151579300Y-71254000D01*
X151604700Y-71254000D01*
X151604700Y-74546000D01*
X151579300Y-74546000D01*
X151579300Y-74850800D01*
X148820700Y-74850800D01*
X148820700Y-74546000D01*
X148795300Y-74546000D01*
X148795300Y-71254000D01*
X148820700Y-71254000D01*
X148820700Y-70949200D01*
X151579300Y-70949200D01*
D12*
%TO.P,L1,1,1*%
X150200000Y-71947500D03*
D13*
%TO.P,L1,2,2*%
X150200000Y-73852500D03*
%TD*%
D10*
%TO.C,L2*%
%TO.CFtp,L_Coilcraft_XxL4030*%
%TO.CVal,10uH*%
%TO.CLbN,Inductor_SMD*%
%TO.CMnt,SMD*%
%TO.CRot,0*%
X157400000Y-88500000D03*
D11*
X159655000Y-86245000D02*
X159655000Y-90755000D01*
X155145000Y-90755000D01*
X155145000Y-86245000D01*
X159655000Y-86245000D01*
D12*
%TO.P,L2,1,1*%
X156215000Y-88500000D03*
D13*
%TO.P,L2,2,2*%
X158585000Y-88500000D03*
%TD*%
D10*
%TO.C,R11*%
%TO.CFtp,R_0603_1608Metric_Pad0.98x0.95mm_HandSolder*%
%TO.CVal,1M / Metal Film*%
%TO.CLbN,Resistor_SMD*%
%TO.CMnt,SMD*%
%TO.CRot,0*%
X155087500Y-94200000D03*
D11*
X156732500Y-93475000D02*
X156732500Y-94925000D01*
X153442500Y-94925000D01*
X153442500Y-93475000D01*
X156732500Y-93475000D01*
D12*
%TO.P,R11,1*%
X154175000Y-94200000D03*
D13*
%TO.P,R11,2*%
X156000000Y-94200000D03*
%TD*%
D10*
%TO.C,R10*%
%TO.CFtp,R_0603_1608Metric_Pad0.98x0.95mm_HandSolder*%
%TO.CVal,1M / Metal Film*%
%TO.CLbN,Resistor_SMD*%
%TO.CMnt,SMD*%
%TO.CRot,0*%
X155100000Y-92100000D03*
D11*
X156745000Y-91375000D02*
X156745000Y-92825000D01*
X153455000Y-92825000D01*
X153455000Y-91375000D01*
X156745000Y-91375000D01*
D12*
%TO.P,R10,1*%
X154187500Y-92100000D03*
D13*
%TO.P,R10,2*%
X156012500Y-92100000D03*
%TD*%
D10*
%TO.C,R9*%
%TO.CFtp,R_0402_1005Metric_Pad0.72x0.64mm_HandSolder*%
%TO.CVal,100K / Metal Film*%
%TO.CLbN,Resistor_SMD*%
%TO.CMnt,SMD*%
%TO.CRot,180*%
X152400000Y-85400000D03*
D11*
X153495000Y-84935000D02*
X153495000Y-85865000D01*
X151305000Y-85865000D01*
X151305000Y-84935000D01*
X153495000Y-84935000D01*
D12*
%TO.P,R9,1*%
X152997500Y-85400000D03*
D13*
%TO.P,R9,2*%
X151802500Y-85400000D03*
%TD*%
D10*
%TO.C,R8*%
%TO.CFtp,R_0402_1005Metric_Pad0.72x0.64mm_HandSolder*%
%TO.CVal,130K / Metal Film*%
%TO.CLbN,Resistor_SMD*%
%TO.CMnt,SMD*%
%TO.CRot,0*%
X152400000Y-87900000D03*
D11*
X153495000Y-87435000D02*
X153495000Y-88365000D01*
X151305000Y-88365000D01*
X151305000Y-87435000D01*
X153495000Y-87435000D01*
D12*
%TO.P,R8,1*%
X151802500Y-87900000D03*
D13*
%TO.P,R8,2*%
X152997500Y-87900000D03*
%TD*%
D10*
%TO.C,U3*%
%TO.CFtp,LGA-28_5.2x3.8mm_P0.5mm*%
%TO.CVal,BNO055*%
%TO.CLbN,Package_LGA*%
%TO.CMnt,SMD*%
%TO.CRot,90*%
X158100000Y-106100000D03*
D11*
X160345000Y-103125000D02*
X160345000Y-109075000D01*
X155855000Y-109075000D01*
X155855000Y-103125000D01*
X160345000Y-103125000D01*
D12*
%TO.P,U3,1,PIN1*%
X156437500Y-108350000D03*
D13*
%TO.P,U3,2,GND*%
X157350000Y-108487500D03*
%TO.P,U3,3,VDD*%
X157850000Y-108487500D03*
%TO.P,U3,4,~{BOOT_LOAD_PIN}*%
X158350000Y-108487500D03*
%TO.P,U3,5,PS1*%
X158850000Y-108487500D03*
%TO.P,U3,6,PS0*%
X159762500Y-108350000D03*
%TO.P,U3,7,PIN7*%
X159762500Y-107850000D03*
%TO.P,U3,8,PIN8*%
X159762500Y-107350000D03*
%TO.P,U3,9,CAP*%
X159762500Y-106850000D03*
%TO.P,U3,10,BL_IND*%
X159762500Y-106350000D03*
%TO.P,U3,11,~{RESET}*%
X159762500Y-105850000D03*
%TO.P,U3,12,PIN12*%
X159762500Y-105350000D03*
%TO.P,U3,13,PIN13*%
X159762500Y-104850000D03*
%TO.P,U3,14,INT*%
X159762500Y-104350000D03*
%TO.P,U3,15,GNDIO*%
X159762500Y-103850000D03*
%TO.P,U3,16,GNDIO*%
X158850000Y-103712500D03*
%TO.P,U3,17,COM3*%
X158350000Y-103712500D03*
%TO.P,U3,18,COM2*%
X157850000Y-103712500D03*
%TO.P,U3,19,COM1*%
X157350000Y-103712500D03*
%TO.P,U3,20,COM0*%
X156437500Y-103850000D03*
%TO.P,U3,21,PIN21*%
X156437500Y-104350000D03*
%TO.P,U3,22,PIN22*%
X156437500Y-104850000D03*
%TO.P,U3,23,PIN23*%
X156437500Y-105350000D03*
%TO.P,U3,24,PIN24*%
X156437500Y-105850000D03*
%TO.P,U3,25,GNDIO*%
X156437500Y-106350000D03*
%TO.P,U3,26,XOUT32*%
X156437500Y-106850000D03*
%TO.P,U3,27,XIN32*%
X156437500Y-107350000D03*
%TO.P,U3,28,VDDIO*%
X156437500Y-107850000D03*
%TD*%
D10*
%TO.C,U2*%
%TO.CFtp,nRF24L01_Breakout*%
%TO.CVal,NRF24*%
%TO.CLbN,RF_Module*%
%TO.CMnt,TH*%
%TO.CRot,0*%
X120210500Y-108975000D03*
D11*
X147955500Y-106730000D02*
X147955500Y-122470000D01*
X118465500Y-122470000D01*
X118465500Y-106730000D01*
X147955500Y-106730000D01*
D12*
%TO.P,U2,1,GND*%
X120210500Y-108975000D03*
D13*
%TO.P,U2,2,VCC*%
X122750500Y-108975000D03*
%TO.P,U2,3,CE*%
X120210500Y-111515000D03*
%TO.P,U2,4,~{CSN}*%
X122750500Y-111515000D03*
%TO.P,U2,5,SCK*%
X120210500Y-114055000D03*
%TO.P,U2,6,MOSI*%
X122750500Y-114055000D03*
%TO.P,U2,7,MISO*%
X120210500Y-116595000D03*
%TO.P,U2,8,IRQ*%
X122750500Y-116595000D03*
%TD*%
D10*
%TO.C,U1*%
%TO.CFtp,Teensy40_SMT*%
%TO.CVal,Teensy4.0*%
%TO.CLbN,teensy.pretty-master*%
%TO.CMnt,TH*%
%TO.CRot,0*%
X128535000Y-95400000D03*
D14*
X111323000Y-87078000D02*
X111323000Y-103722000D01*
X145747000Y-103722000D01*
X145747000Y-87078000D01*
X111323000Y-87078000D01*
D12*
%TO.P,U1,1,GND*%
X112025000Y-103020000D03*
D13*
%TO.P,U1,13,11_MOSI_CTX1*%
X142505000Y-103020000D03*
%TO.P,U1,33,VIN*%
X112025000Y-87780000D03*
%TO.P,U1,34,VUSB*%
X114565000Y-90320000D03*
%TO.P,U1,32,GND*%
X114565000Y-87780000D03*
%TO.P,U1,31,3V3*%
X117105000Y-87780000D03*
%TO.P,U1,30,23_A9_CRX1_MCLK1*%
X119645000Y-87780000D03*
%TO.P,U1,29,22_A8_CTX1*%
X122185000Y-87780000D03*
%TO.P,U1,28,21_A7_RX5_BCLK1*%
X124725000Y-87780000D03*
%TO.P,U1,27,20_A6_TX5_LRCLK1*%
X127265000Y-87780000D03*
%TO.P,U1,26,19_A5_SCL0*%
X129805000Y-87780000D03*
%TO.P,U1,25,18_A4_SDA0*%
X132345000Y-87780000D03*
%TO.P,U1,24,17_A3_TX4_SDA1*%
X134885000Y-87780000D03*
%TO.P,U1,23,16_A2_RX4_SCL1*%
X137425000Y-87780000D03*
%TO.P,U1,22,15_A1_RX3_SPDIF_IN*%
X139965000Y-87780000D03*
%TO.P,U1,21,14_A0_TX3_SPDIF_OUT*%
X142505000Y-87780000D03*
%TO.P,U1,20,13_SCK_CRX1_LED*%
X145045000Y-87780000D03*
%TO.P,U1,19,ON_OFF*%
X145045000Y-90320000D03*
%TO.P,U1,18,PROGRAM*%
X145045000Y-92860000D03*
%TO.P,U1,17,GND*%
X145045000Y-95400000D03*
%TO.P,U1,16,3V3*%
X145045000Y-97940000D03*
%TO.P,U1,15,VBAT*%
X145045000Y-100480000D03*
%TO.P,U1,14,12_MISO_MQSL*%
X145045000Y-103020000D03*
%TO.P,U1,12,10_CS_MQSR*%
X139965000Y-103020000D03*
%TO.P,U1,11,9_OUT1C*%
X137425000Y-103020000D03*
%TO.P,U1,10,8_TX2_IN1*%
X134885000Y-103020000D03*
%TO.P,U1,9,7_RX2_OUT1A*%
X132345000Y-103020000D03*
%TO.P,U1,8,6_OUT1D*%
X129805000Y-103020000D03*
%TO.P,U1,7,5_IN2*%
X127265000Y-103020000D03*
%TO.P,U1,6,4_BCLK2*%
X124725000Y-103020000D03*
%TO.P,U1,5,3_LRCLK2*%
X122185000Y-103020000D03*
%TO.P,U1,4,2_OUT2*%
X119645000Y-103020000D03*
%TO.P,U1,3,1_TX1_CTX2_MISO1*%
X117105000Y-103020000D03*
%TO.P,U1,54,D+*%
X113295000Y-96670000D03*
%TO.P,U1,53,D-*%
X113295000Y-94130000D03*
%TO.P,U1,52,39_DAT2_TX5*%
X119163400Y-98900000D03*
%TO.P,U1,51,38_DAT3_RX5*%
X119163400Y-97900000D03*
%TO.P,U1,50,37_CMD_SCK2*%
X119163400Y-96900000D03*
%TO.P,U1,49,3V3*%
X119163400Y-95900000D03*
%TO.P,U1,48,36_CLK_CS2*%
X119163400Y-94900000D03*
%TO.P,U1,47,GND*%
X119163400Y-93900000D03*
%TO.P,U1,46,35_DAT0_MOSI2*%
X119163400Y-92900000D03*
%TO.P,U1,45,34_DAT1_MISO2*%
X119163400Y-91900000D03*
%TO.P,U1,44,33_MCLK2*%
X137425000Y-100480000D03*
%TO.P,U1,43,32_OUT1B*%
X139965000Y-100480000D03*
%TO.P,U1,42,31_CTX3*%
X137425000Y-97940000D03*
%TO.P,U1,41,30_CRX3*%
X139965000Y-97940000D03*
%TO.P,U1,40,29_TX7*%
X137425000Y-95400000D03*
%TO.P,U1,39,28_RX7*%
X139965000Y-95400000D03*
%TO.P,U1,38,27_A13_SCK1*%
X137425000Y-92860000D03*
%TO.P,U1,37,26_A12_MOSI1*%
X139965000Y-92860000D03*
%TO.P,U1,36,25_A11_RX6_SDA2*%
X137425000Y-90320000D03*
%TO.P,U1,35,24_A10_TX6_SCL2*%
X139965000Y-90320000D03*
%TO.P,U1,2,0_RX1_CRX2_CS1*%
X114565000Y-103020000D03*
%TD*%
D10*
%TO.C,servo13*%
%TO.CFtp,JST_PH_B3B-PH-K_1x03_P2.00mm_Vertical*%
%TO.CVal,Conn_01x03_Socket*%
%TO.CLbN,Connector_JST*%
%TO.CMnt,TH*%
%TO.CRot,0*%
X177050000Y-105150000D03*
D11*
X183495000Y-102955000D02*
X183495000Y-108445000D01*
X174605000Y-108445000D01*
X174605000Y-102955000D01*
X183495000Y-102955000D01*
D12*
%TO.P,servo13,1,Pin_1*%
X177050000Y-105150000D03*
D13*
%TO.P,servo13,2,Pin_2*%
X179050000Y-105150000D03*
%TO.P,servo13,3,Pin_3*%
X181050000Y-105150000D03*
%TD*%
D10*
%TO.C,servo12*%
%TO.CFtp,JST_PH_B3B-PH-K_1x03_P2.00mm_Vertical*%
%TO.CVal,Conn_01x03_Socket*%
%TO.CLbN,Connector_JST*%
%TO.CMnt,TH*%
%TO.CRot,0*%
X177000000Y-110800000D03*
D11*
X183445000Y-108605000D02*
X183445000Y-114095000D01*
X174555000Y-114095000D01*
X174555000Y-108605000D01*
X183445000Y-108605000D01*
D12*
%TO.P,servo12,1,Pin_1*%
X177000000Y-110800000D03*
D13*
%TO.P,servo12,2,Pin_2*%
X179000000Y-110800000D03*
%TO.P,servo12,3,Pin_3*%
X181000000Y-110800000D03*
%TD*%
D10*
%TO.C,servo11*%
%TO.CFtp,JST_PH_B3B-PH-K_1x03_P2.00mm_Vertical*%
%TO.CVal,Conn_01x03_Socket*%
%TO.CLbN,Connector_JST*%
%TO.CMnt,TH*%
%TO.CRot,0*%
X167000000Y-110000000D03*
D11*
X173445000Y-107805000D02*
X173445000Y-113295000D01*
X164555000Y-113295000D01*
X164555000Y-107805000D01*
X173445000Y-107805000D01*
D12*
%TO.P,servo11,1,Pin_1*%
X167000000Y-110000000D03*
D13*
%TO.P,servo11,2,Pin_2*%
X169000000Y-110000000D03*
%TO.P,servo11,3,Pin_3*%
X171000000Y-110000000D03*
%TD*%
D10*
%TO.C,servo10*%
%TO.CFtp,JST_PH_B3B-PH-K_1x03_P2.00mm_Vertical*%
%TO.CVal,Conn_01x03_Socket*%
%TO.CLbN,Connector_JST*%
%TO.CMnt,TH*%
%TO.CRot,0*%
X177000000Y-99650000D03*
D11*
X183445000Y-97455000D02*
X183445000Y-102945000D01*
X174555000Y-102945000D01*
X174555000Y-97455000D01*
X183445000Y-97455000D01*
D12*
%TO.P,servo10,1,Pin_1*%
X177000000Y-99650000D03*
D13*
%TO.P,servo10,2,Pin_2*%
X179000000Y-99650000D03*
%TO.P,servo10,3,Pin_3*%
X181000000Y-99650000D03*
%TD*%
D10*
%TO.C,servo9*%
%TO.CFtp,JST_PH_B3B-PH-K_1x03_P2.00mm_Vertical*%
%TO.CVal,Conn_01x03_Socket*%
%TO.CLbN,Connector_JST*%
%TO.CMnt,TH*%
%TO.CRot,0*%
X177000000Y-94150000D03*
D11*
X183445000Y-91955000D02*
X183445000Y-97445000D01*
X174555000Y-97445000D01*
X174555000Y-91955000D01*
X183445000Y-91955000D01*
D12*
%TO.P,servo9,1,Pin_1*%
X177000000Y-94150000D03*
D13*
%TO.P,servo9,2,Pin_2*%
X179000000Y-94150000D03*
%TO.P,servo9,3,Pin_3*%
X181000000Y-94150000D03*
%TD*%
D10*
%TO.C,servo8*%
%TO.CFtp,JST_PH_B3B-PH-K_1x03_P2.00mm_Vertical*%
%TO.CVal,Conn_01x03_Socket*%
%TO.CLbN,Connector_JST*%
%TO.CMnt,TH*%
%TO.CRot,0*%
X177000000Y-88650000D03*
D11*
X183445000Y-86455000D02*
X183445000Y-91945000D01*
X174555000Y-91945000D01*
X174555000Y-86455000D01*
X183445000Y-86455000D01*
D12*
%TO.P,servo8,1,Pin_1*%
X177000000Y-88650000D03*
D13*
%TO.P,servo8,2,Pin_2*%
X179000000Y-88650000D03*
%TO.P,servo8,3,Pin_3*%
X181000000Y-88650000D03*
%TD*%
D10*
%TO.C,servo7*%
%TO.CFtp,JST_PH_B3B-PH-K_1x03_P2.00mm_Vertical*%
%TO.CVal,Conn_01x03_Socket*%
%TO.CLbN,Connector_JST*%
%TO.CMnt,TH*%
%TO.CRot,0*%
X177000000Y-83150000D03*
D11*
X183445000Y-80955000D02*
X183445000Y-86445000D01*
X174555000Y-86445000D01*
X174555000Y-80955000D01*
X183445000Y-80955000D01*
D12*
%TO.P,servo7,1,Pin_1*%
X177000000Y-83150000D03*
D13*
%TO.P,servo7,2,Pin_2*%
X179000000Y-83150000D03*
%TO.P,servo7,3,Pin_3*%
X181000000Y-83150000D03*
%TD*%
D10*
%TO.C,servo6*%
%TO.CFtp,JST_PH_B3B-PH-K_1x03_P2.00mm_Vertical*%
%TO.CVal,Conn_01x03_Socket*%
%TO.CLbN,Connector_JST*%
%TO.CMnt,TH*%
%TO.CRot,0*%
X177000000Y-77600000D03*
D11*
X183445000Y-75405000D02*
X183445000Y-80895000D01*
X174555000Y-80895000D01*
X174555000Y-75405000D01*
X183445000Y-75405000D01*
D12*
%TO.P,servo6,1,Pin_1*%
X177000000Y-77600000D03*
D13*
%TO.P,servo6,2,Pin_2*%
X179000000Y-77600000D03*
%TO.P,servo6,3,Pin_3*%
X181000000Y-77600000D03*
%TD*%
D10*
%TO.C,servo5*%
%TO.CFtp,JST_PH_B3B-PH-K_1x03_P2.00mm_Vertical*%
%TO.CVal,Conn_01x03_Socket*%
%TO.CLbN,Connector_JST*%
%TO.CMnt,TH*%
%TO.CRot,0*%
X167000000Y-104500000D03*
D11*
X173445000Y-102305000D02*
X173445000Y-107795000D01*
X164555000Y-107795000D01*
X164555000Y-102305000D01*
X173445000Y-102305000D01*
D12*
%TO.P,servo5,1,Pin_1*%
X167000000Y-104500000D03*
D13*
%TO.P,servo5,2,Pin_2*%
X169000000Y-104500000D03*
%TO.P,servo5,3,Pin_3*%
X171000000Y-104500000D03*
%TD*%
D10*
%TO.C,servo4*%
%TO.CFtp,JST_PH_B3B-PH-K_1x03_P2.00mm_Vertical*%
%TO.CVal,Conn_01x03_Socket*%
%TO.CLbN,Connector_JST*%
%TO.CMnt,TH*%
%TO.CRot,0*%
X167000000Y-99000000D03*
D11*
X173445000Y-96805000D02*
X173445000Y-102295000D01*
X164555000Y-102295000D01*
X164555000Y-96805000D01*
X173445000Y-96805000D01*
D12*
%TO.P,servo4,1,Pin_1*%
X167000000Y-99000000D03*
D13*
%TO.P,servo4,2,Pin_2*%
X169000000Y-99000000D03*
%TO.P,servo4,3,Pin_3*%
X171000000Y-99000000D03*
%TD*%
D10*
%TO.C,servo3*%
%TO.CFtp,JST_PH_B3B-PH-K_1x03_P2.00mm_Vertical*%
%TO.CVal,Conn_01x03_Socket*%
%TO.CLbN,Connector_JST*%
%TO.CMnt,TH*%
%TO.CRot,0*%
X167000000Y-93500000D03*
D11*
X173445000Y-91305000D02*
X173445000Y-96795000D01*
X164555000Y-96795000D01*
X164555000Y-91305000D01*
X173445000Y-91305000D01*
D12*
%TO.P,servo3,1,Pin_1*%
X167000000Y-93500000D03*
D13*
%TO.P,servo3,2,Pin_2*%
X169000000Y-93500000D03*
%TO.P,servo3,3,Pin_3*%
X171000000Y-93500000D03*
%TD*%
D10*
%TO.C,servo2*%
%TO.CFtp,JST_PH_B3B-PH-K_1x03_P2.00mm_Vertical*%
%TO.CVal,Conn_01x03_Socket*%
%TO.CLbN,Connector_JST*%
%TO.CMnt,TH*%
%TO.CRot,0*%
X167000000Y-88000000D03*
D11*
X173445000Y-85805000D02*
X173445000Y-91295000D01*
X164555000Y-91295000D01*
X164555000Y-85805000D01*
X173445000Y-85805000D01*
D12*
%TO.P,servo2,1,Pin_1*%
X167000000Y-88000000D03*
D13*
%TO.P,servo2,2,Pin_2*%
X169000000Y-88000000D03*
%TO.P,servo2,3,Pin_3*%
X171000000Y-88000000D03*
%TD*%
D10*
%TO.C,servo1*%
%TO.CFtp,JST_PH_B3B-PH-K_1x03_P2.00mm_Vertical*%
%TO.CVal,Conn_01x03_Socket*%
%TO.CLbN,Connector_JST*%
%TO.CMnt,TH*%
%TO.CRot,0*%
X167000000Y-82450000D03*
D11*
X173445000Y-80255000D02*
X173445000Y-85745000D01*
X164555000Y-85745000D01*
X164555000Y-80255000D01*
X173445000Y-80255000D01*
D12*
%TO.P,servo1,1,Pin_1*%
X167000000Y-82450000D03*
D13*
%TO.P,servo1,2,Pin_2*%
X169000000Y-82450000D03*
%TO.P,servo1,3,Pin_3*%
X171000000Y-82450000D03*
%TD*%
D10*
%TO.C,S5*%
%TO.CFtp,PinHeader_1x02_P2.54mm_Vertical*%
%TO.CVal,CAN_SERIAL3*%
%TO.CLbN,Connector_PinHeader_2.54mm*%
%TO.CMnt,TH*%
%TO.CRot,0*%
X115700000Y-80400000D03*
D11*
X117495000Y-78605000D02*
X117495000Y-84745000D01*
X113905000Y-84745000D01*
X113905000Y-78605000D01*
X117495000Y-78605000D01*
D12*
%TO.P,S5,1,Pin_1*%
X115700000Y-80400000D03*
D13*
%TO.P,S5,2,Pin_2*%
X115700000Y-82940000D03*
%TD*%
D10*
%TO.C,S4*%
%TO.CFtp,PinHeader_1x02_P2.54mm_Vertical*%
%TO.CVal,SERIAL8*%
%TO.CLbN,Connector_PinHeader_2.54mm*%
%TO.CMnt,TH*%
%TO.CRot,0*%
X119600000Y-80440000D03*
D11*
X121395000Y-78645000D02*
X121395000Y-84785000D01*
X117805000Y-84785000D01*
X117805000Y-78645000D01*
X121395000Y-78645000D01*
D12*
%TO.P,S4,1,Pin_1*%
X119600000Y-80440000D03*
D13*
%TO.P,S4,2,Pin_2*%
X119600000Y-82980000D03*
%TD*%
D10*
%TO.C,S3*%
%TO.CFtp,PinHeader_1x02_P2.54mm_Vertical*%
%TO.CVal,SERIAL7*%
%TO.CLbN,Connector_PinHeader_2.54mm*%
%TO.CMnt,TH*%
%TO.CRot,0*%
X123500000Y-80440000D03*
D11*
X125295000Y-78645000D02*
X125295000Y-84785000D01*
X121705000Y-84785000D01*
X121705000Y-78645000D01*
X125295000Y-78645000D01*
D12*
%TO.P,S3,1,Pin_1*%
X123500000Y-80440000D03*
D13*
%TO.P,S3,2,Pin_2*%
X123500000Y-82980000D03*
%TD*%
D10*
%TO.C,J2*%
%TO.CFtp,PinHeader_1x04_P2.54mm_Vertical*%
%TO.CVal,Conn_01x04_Pin*%
%TO.CLbN,Connector_PinHeader_2.54mm*%
%TO.CMnt,TH*%
%TO.CRot,90*%
X129200000Y-82500000D03*
D11*
X138595000Y-80705000D02*
X138595000Y-84295000D01*
X127405000Y-84295000D01*
X127405000Y-80705000D01*
X138595000Y-80705000D01*
D12*
%TO.P,J2,1,Pin_1*%
X129200000Y-82500000D03*
D13*
%TO.P,J2,2,Pin_2*%
X131740000Y-82500000D03*
%TO.P,J2,3,Pin_3*%
X134280000Y-82500000D03*
%TO.P,J2,4,Pin_4*%
X136820000Y-82500000D03*
%TD*%
D10*
%TO.C,J1*%
%TO.CFtp,PinHeader_1x04_P2.54mm_Vertical*%
%TO.CVal,Conn_01x04_Pin*%
%TO.CLbN,Connector_PinHeader_2.54mm*%
%TO.CMnt,TH*%
%TO.CRot,90*%
X129200000Y-78500000D03*
D11*
X138595000Y-76705000D02*
X138595000Y-80295000D01*
X127405000Y-80295000D01*
X127405000Y-76705000D01*
X138595000Y-76705000D01*
D12*
%TO.P,J1,1,Pin_1*%
X129200000Y-78500000D03*
D13*
%TO.P,J1,2,Pin_2*%
X131740000Y-78500000D03*
%TO.P,J1,3,Pin_3*%
X134280000Y-78500000D03*
%TO.P,J1,4,Pin_4*%
X136820000Y-78500000D03*
%TD*%
D10*
%TO.C,Button*%
%TO.CFtp,SW_PUSH_6mm*%
%TO.CVal,Push_Button*%
%TO.CLbN,Button_Switch_THT*%
%TO.CMnt,TH*%
%TO.CRot,0*%
X134850000Y-68850000D03*
D11*
X142845000Y-67355000D02*
X142845000Y-74845000D01*
X133355000Y-74845000D01*
X133355000Y-67355000D01*
X142845000Y-67355000D01*
D12*
%TO.P,Button,1,1*%
X134850000Y-68850000D03*
X141350000Y-68850000D03*
D13*
%TO.P,Button,2,2*%
X134850000Y-73350000D03*
X141350000Y-73350000D03*
%TD*%
D10*
%TO.C,Main-Terminal1*%
%TO.CFtp,TerminalBlock_Phoenix_MKDS-1\u002C5-2-5.08_1x02_P5.08mm_Horizontal*%
%TO.CVal,Main Terminal*%
%TO.CLbN,TerminalBlock_Phoenix*%
%TO.CMnt,TH*%
%TO.CRot,180*%
X170400000Y-72000000D03*
D11*
X173435000Y-66905000D02*
X173435000Y-77705000D01*
X162275000Y-77705000D01*
X162275000Y-66905000D01*
X173435000Y-66905000D01*
D12*
%TO.P,Main-Terminal1,1,Pin_1*%
X170400000Y-72000000D03*
D13*
%TO.P,Main-Terminal1,2,Pin_2*%
X165320000Y-72000000D03*
%TD*%
D10*
%TO.C,GND1*%
%TO.CFtp,PinHeader_1x03_P2.54mm_Vertical*%
%TO.CVal,Conn_01x03_Pin*%
%TO.CLbN,Connector_PinHeader_2.54mm*%
%TO.CMnt,TH*%
%TO.CRot,180*%
X120700000Y-73540000D03*
D11*
X122495000Y-66695000D02*
X122495000Y-75335000D01*
X118905000Y-75335000D01*
X118905000Y-66695000D01*
X122495000Y-66695000D01*
D12*
%TO.P,GND1,1,Pin_1*%
X120700000Y-73540000D03*
D13*
%TO.P,GND1,3,Pin_3*%
X120700000Y-68460000D03*
%TO.P,GND1,2,Pin_2*%
X120700000Y-71000000D03*
%TD*%
D10*
%TO.C,5V1*%
%TO.CFtp,PinHeader_1x03_P2.54mm_Vertical*%
%TO.CVal,Conn_01x03_Pin*%
%TO.CLbN,Connector_PinHeader_2.54mm*%
%TO.CMnt,TH*%
%TO.CRot,180*%
X125350000Y-73540000D03*
D11*
X127145000Y-66695000D02*
X127145000Y-75335000D01*
X123555000Y-75335000D01*
X123555000Y-66695000D01*
X127145000Y-66695000D01*
D12*
%TO.P,5V1,1,Pin_1*%
X125350000Y-73540000D03*
D13*
%TO.P,5V1,3,Pin_3*%
X125350000Y-68460000D03*
%TO.P,5V1,2,Pin_2*%
X125350000Y-71000000D03*
%TD*%
D10*
%TO.C,3.3V1*%
%TO.CFtp,PinHeader_1x03_P2.54mm_Vertical*%
%TO.CVal,Conn_01x03_Pin*%
%TO.CLbN,Connector_PinHeader_2.54mm*%
%TO.CMnt,TH*%
%TO.CRot,180*%
X130000000Y-73540000D03*
D11*
X131795000Y-66695000D02*
X131795000Y-75335000D01*
X128205000Y-75335000D01*
X128205000Y-66695000D01*
X131795000Y-66695000D01*
D12*
%TO.P,3.3V1,1,Pin_1*%
X130000000Y-73540000D03*
D13*
%TO.P,3.3V1,3,Pin_3*%
X130000000Y-68460000D03*
%TO.P,3.3V1,2,Pin_2*%
X130000000Y-71000000D03*
%TD*%
D10*
%TO.C,R6*%
%TO.CFtp,R_0402_1005Metric_Pad0.72x0.64mm_HandSolder*%
%TO.CVal,10k*%
%TO.CLbN,Resistor_SMD*%
%TO.CMnt,SMD*%
%TO.CRot,0*%
X155100000Y-100800000D03*
D11*
X156195000Y-100335000D02*
X156195000Y-101265000D01*
X154005000Y-101265000D01*
X154005000Y-100335000D01*
X156195000Y-100335000D01*
D12*
%TO.P,R6,1*%
X154502500Y-100800000D03*
D13*
%TO.P,R6,2*%
X155697500Y-100800000D03*
%TD*%
D10*
%TO.C,R5*%
%TO.CFtp,R_0402_1005Metric_Pad0.72x0.64mm_HandSolder*%
%TO.CVal,10k*%
%TO.CLbN,Resistor_SMD*%
%TO.CMnt,SMD*%
%TO.CRot,180*%
X155100000Y-102100000D03*
D11*
X156195000Y-101635000D02*
X156195000Y-102565000D01*
X154005000Y-102565000D01*
X154005000Y-101635000D01*
X156195000Y-101635000D01*
D12*
%TO.P,R5,1*%
X155697500Y-102100000D03*
D13*
%TO.P,R5,2*%
X154502500Y-102100000D03*
%TD*%
M02*
