%TF.GenerationSoftware,KiCad,Pcbnew,8.0.8*%
%TF.CreationDate,2025-01-26T21:38:22+07:00*%
%TF.ProjectId,Teensy4.0,5465656e-7379-4342-9e30-2e6b69636164,rev?*%
%TF.SameCoordinates,Original*%
%TF.FileFunction,Copper,L4,Bot*%
%TF.FilePolarity,Positive*%
%FSLAX46Y46*%
G04 Gerber Fmt 4.6, Leading zero omitted, Abs format (unit mm)*
G04 Created by KiCad (PCBNEW 8.0.8) date 2025-01-26 21:38:22*
%MOMM*%
%LPD*%
G01*
G04 APERTURE LIST*
G04 Aperture macros list*
%AMRoundRect*
0 Rectangle with rounded corners*
0 $1 Rounding radius*
0 $2 $3 $4 $5 $6 $7 $8 $9 X,Y pos of 4 corners*
0 Add a 4 corners polygon primitive as box body*
4,1,4,$2,$3,$4,$5,$6,$7,$8,$9,$2,$3,0*
0 Add four circle primitives for the rounded corners*
1,1,$1+$1,$2,$3*
1,1,$1+$1,$4,$5*
1,1,$1+$1,$6,$7*
1,1,$1+$1,$8,$9*
0 Add four rect primitives between the rounded corners*
20,1,$1+$1,$2,$3,$4,$5,0*
20,1,$1+$1,$4,$5,$6,$7,0*
20,1,$1+$1,$6,$7,$8,$9,0*
20,1,$1+$1,$8,$9,$2,$3,0*%
G04 Aperture macros list end*
%TA.AperFunction,ComponentPad*%
%ADD10C,1.600000*%
%TD*%
%TA.AperFunction,ComponentPad*%
%ADD11RoundRect,0.250000X-0.350000X-0.625000X0.350000X-0.625000X0.350000X0.625000X-0.350000X0.625000X0*%
%TD*%
%TA.AperFunction,ComponentPad*%
%ADD12O,1.200000X1.750000*%
%TD*%
%TA.AperFunction,ComponentPad*%
%ADD13R,2.000000X2.000000*%
%TD*%
%TA.AperFunction,ComponentPad*%
%ADD14C,2.000000*%
%TD*%
%TA.AperFunction,ComponentPad*%
%ADD15R,1.700000X1.700000*%
%TD*%
%TA.AperFunction,ComponentPad*%
%ADD16O,1.700000X1.700000*%
%TD*%
%TA.AperFunction,ComponentPad*%
%ADD17C,2.550000*%
%TD*%
%TA.AperFunction,ComponentPad*%
%ADD18R,2.550000X2.550000*%
%TD*%
%TA.AperFunction,ComponentPad*%
%ADD19C,1.508000*%
%TD*%
%TA.AperFunction,ViaPad*%
%ADD20C,1.000000*%
%TD*%
%TA.AperFunction,ViaPad*%
%ADD21C,0.600000*%
%TD*%
%TA.AperFunction,Conductor*%
%ADD22C,0.700000*%
%TD*%
%TA.AperFunction,Conductor*%
%ADD23C,0.200000*%
%TD*%
%TA.AperFunction,Conductor*%
%ADD24C,0.300000*%
%TD*%
G04 APERTURE END LIST*
D10*
%TO.P,U1,1,GND*%
%TO.N,GND*%
X107490000Y-105620000D03*
%TO.P,U1,2,0_RX1_CRX2_CS1*%
%TO.N,/servo_rx*%
X110030000Y-105620000D03*
%TO.P,U1,3,1_TX1_CTX2_MISO1*%
%TO.N,/servo_tx*%
X112570000Y-105620000D03*
%TO.P,U1,4,2_OUT2*%
%TO.N,/servo_dir*%
X115110000Y-105620000D03*
%TO.P,U1,5,3_LRCLK2*%
%TO.N,/button*%
X117650000Y-105620000D03*
%TO.P,U1,6,4_BCLK2*%
%TO.N,/buzzer*%
X120190000Y-105620000D03*
%TO.P,U1,7,5_IN2*%
%TO.N,unconnected-(U1-5_IN2-Pad7)*%
X122730000Y-105620000D03*
%TO.P,U1,8,6_OUT1D*%
%TO.N,/LORA_IRQ*%
X125270000Y-105620000D03*
%TO.P,U1,9,7_RX2_OUT1A*%
%TO.N,/serial_rx2*%
X127810000Y-105620000D03*
%TO.P,U1,10,8_TX2_IN1*%
%TO.N,/serial_tx2*%
X130350000Y-105620000D03*
%TO.P,U1,11,9_OUT1C*%
%TO.N,/LORA_CE*%
X132890000Y-105620000D03*
%TO.P,U1,12,10_CS_MQSR*%
%TO.N,/LORA_CSN*%
X135430000Y-105620000D03*
%TO.P,U1,13,11_MOSI_CTX1*%
%TO.N,/LORA_MOSI*%
X137970000Y-105620000D03*
%TO.P,U1,14,12_MISO_MQSL*%
%TO.N,/LORA_MISO*%
X140510000Y-105620000D03*
%TO.P,U1,15,VBAT*%
%TO.N,unconnected-(U1-VBAT-Pad15)*%
X140510000Y-103080000D03*
%TO.P,U1,16,3V3*%
%TO.N,unconnected-(U1-3V3-Pad16)*%
X140510000Y-100540000D03*
%TO.P,U1,17,GND*%
%TO.N,GND*%
X140510000Y-98000000D03*
%TO.P,U1,18,PROGRAM*%
%TO.N,unconnected-(U1-PROGRAM-Pad18)*%
X140510000Y-95460000D03*
%TO.P,U1,19,ON_OFF*%
%TO.N,unconnected-(U1-ON_OFF-Pad19)*%
X140510000Y-92920000D03*
%TO.P,U1,20,13_SCK_CRX1_LED*%
%TO.N,/LORA_SCK*%
X140510000Y-90380000D03*
%TO.P,U1,21,14_A0_TX3_SPDIF_OUT*%
%TO.N,/serial_tx3*%
X137970000Y-90380000D03*
%TO.P,U1,22,15_A1_RX3_SPDIF_IN*%
%TO.N,/serial_rx3*%
X135430000Y-90380000D03*
%TO.P,U1,23,16_A2_RX4_SCL1*%
%TO.N,/serial_rx4*%
X132890000Y-90380000D03*
%TO.P,U1,24,17_A3_TX4_SDA1*%
%TO.N,/serial_tx4*%
X130350000Y-90380000D03*
%TO.P,U1,25,18_A4_SDA0*%
%TO.N,/SDA*%
X127810000Y-90380000D03*
%TO.P,U1,26,19_A5_SCL0*%
%TO.N,/SCL*%
X125270000Y-90380000D03*
%TO.P,U1,27,20_A6_TX5_LRCLK1*%
%TO.N,/ICM_INT*%
X122730000Y-90380000D03*
%TO.P,U1,28,21_A7_RX5_BCLK1*%
%TO.N,unconnected-(U1-21_A7_RX5_BCLK1-Pad28)*%
X120190000Y-90380000D03*
%TO.P,U1,29,22_A8_CTX1*%
%TO.N,unconnected-(U1-22_A8_CTX1-Pad29)*%
X117650000Y-90380000D03*
%TO.P,U1,30,23_A9_CRX1_MCLK1*%
%TO.N,unconnected-(U1-23_A9_CRX1_MCLK1-Pad30)*%
X115110000Y-90380000D03*
%TO.P,U1,31,3V3*%
%TO.N,+3V3*%
X112570000Y-90380000D03*
%TO.P,U1,32,GND*%
%TO.N,GND*%
X110030000Y-90380000D03*
%TO.P,U1,33,VIN*%
%TO.N,+5V*%
X107490000Y-90380000D03*
%TO.P,U1,35,24_A10_TX6_SCL2*%
%TO.N,Net-(J1-Pin_1)*%
X135430000Y-92920000D03*
%TO.P,U1,36,25_A11_RX6_SDA2*%
%TO.N,Net-(J1-Pin_2)*%
X132890000Y-92920000D03*
%TO.P,U1,37,26_A12_MOSI1*%
%TO.N,Net-(J1-Pin_3)*%
X135430000Y-95460000D03*
%TO.P,U1,38,27_A13_SCK1*%
%TO.N,Net-(J1-Pin_4)*%
X132890000Y-95460000D03*
%TO.P,U1,39,28_RX7*%
%TO.N,Net-(J2-Pin_1)*%
X135430000Y-98000000D03*
%TO.P,U1,40,29_TX7*%
%TO.N,Net-(J2-Pin_2)*%
X132890000Y-98000000D03*
%TO.P,U1,41,30_CRX3*%
%TO.N,Net-(J2-Pin_3)*%
X135430000Y-100540000D03*
%TO.P,U1,42,31_CTX3*%
%TO.N,Net-(J2-Pin_4)*%
X132890000Y-100540000D03*
%TO.P,U1,43,32_OUT1B*%
%TO.N,unconnected-(U1-32_OUT1B-Pad43)*%
X135430000Y-103080000D03*
%TO.P,U1,44,33_MCLK2*%
%TO.N,unconnected-(U1-33_MCLK2-Pad44)*%
X132890000Y-103080000D03*
%TD*%
D11*
%TO.P,servo1,1,Pin_1*%
%TO.N,GND*%
X172600000Y-102250000D03*
D12*
%TO.P,servo1,2,Pin_2*%
%TO.N,VCC*%
X174600000Y-102250000D03*
%TO.P,servo1,3,Pin_3*%
%TO.N,Net-(IC2-A2)*%
X176600000Y-102250000D03*
%TD*%
D13*
%TO.P,BZ1,1,+*%
%TO.N,+5V*%
X148000000Y-120000000D03*
D14*
%TO.P,BZ1,2,-*%
%TO.N,Net-(BZ1--)*%
X155600000Y-120000000D03*
%TD*%
D15*
%TO.P,J1,1,Pin_1*%
%TO.N,Net-(J1-Pin_1)*%
X137790000Y-74250000D03*
D16*
%TO.P,J1,2,Pin_2*%
%TO.N,Net-(J1-Pin_2)*%
X135250000Y-74250000D03*
%TO.P,J1,3,Pin_3*%
%TO.N,Net-(J1-Pin_3)*%
X132710000Y-74250000D03*
%TO.P,J1,4,Pin_4*%
%TO.N,Net-(J1-Pin_4)*%
X130170000Y-74250000D03*
%TD*%
D11*
%TO.P,servo13,1,Pin_1*%
%TO.N,GND*%
X172600000Y-96650000D03*
D12*
%TO.P,servo13,2,Pin_2*%
%TO.N,VCC*%
X174600000Y-96650000D03*
%TO.P,servo13,3,Pin_3*%
%TO.N,Net-(IC2-A2)*%
X176600000Y-96650000D03*
%TD*%
D11*
%TO.P,servo11,1,Pin_1*%
%TO.N,GND*%
X172600000Y-85400000D03*
D12*
%TO.P,servo11,2,Pin_2*%
%TO.N,VCC*%
X174600000Y-85400000D03*
%TO.P,servo11,3,Pin_3*%
%TO.N,Net-(IC2-A2)*%
X176600000Y-85400000D03*
%TD*%
D11*
%TO.P,servo5,1,Pin_1*%
%TO.N,GND*%
X163600000Y-107800000D03*
D12*
%TO.P,servo5,2,Pin_2*%
%TO.N,VCC*%
X165600000Y-107800000D03*
%TO.P,servo5,3,Pin_3*%
%TO.N,Net-(IC2-A2)*%
X167600000Y-107800000D03*
%TD*%
D11*
%TO.P,servo4,1,Pin_1*%
%TO.N,GND*%
X163600000Y-119250000D03*
D12*
%TO.P,servo4,2,Pin_2*%
%TO.N,VCC*%
X165600000Y-119250000D03*
%TO.P,servo4,3,Pin_3*%
%TO.N,Net-(IC2-A2)*%
X167600000Y-119250000D03*
%TD*%
D15*
%TO.P,5V,1,Pin_1*%
%TO.N,+5V*%
X144250000Y-73630000D03*
D16*
%TO.P,5V,2,Pin_2*%
X144250000Y-76170000D03*
%TO.P,5V,3,Pin_3*%
X144250000Y-78710000D03*
%TD*%
D11*
%TO.P,servo2,1,Pin_1*%
%TO.N,GND*%
X163600000Y-113450000D03*
D12*
%TO.P,servo2,2,Pin_2*%
%TO.N,VCC*%
X165600000Y-113450000D03*
%TO.P,servo2,3,Pin_3*%
%TO.N,Net-(IC2-A2)*%
X167600000Y-113450000D03*
%TD*%
D15*
%TO.P,S4,1,Pin_1*%
%TO.N,/serial_rx4*%
X125800000Y-84300000D03*
D16*
%TO.P,S4,2,Pin_2*%
%TO.N,/serial_tx4*%
X125800000Y-81760000D03*
%TD*%
D11*
%TO.P,servo10,1,Pin_1*%
%TO.N,GND*%
X163600000Y-102250000D03*
D12*
%TO.P,servo10,2,Pin_2*%
%TO.N,VCC*%
X165600000Y-102250000D03*
%TO.P,servo10,3,Pin_3*%
%TO.N,Net-(IC2-A2)*%
X167600000Y-102250000D03*
%TD*%
D15*
%TO.P,S2,1,Pin_1*%
%TO.N,/serial_rx2*%
X131600000Y-84275000D03*
D16*
%TO.P,S2,2,Pin_2*%
%TO.N,/serial_tx2*%
X131600000Y-81735000D03*
%TD*%
D11*
%TO.P,servo3,1,Pin_1*%
%TO.N,GND*%
X163600000Y-96650000D03*
D12*
%TO.P,servo3,2,Pin_2*%
%TO.N,VCC*%
X165600000Y-96650000D03*
%TO.P,servo3,3,Pin_3*%
%TO.N,Net-(IC2-A2)*%
X167600000Y-96650000D03*
%TD*%
D11*
%TO.P,servo9,1,Pin_1*%
%TO.N,GND*%
X172600000Y-91000000D03*
D12*
%TO.P,servo9,2,Pin_2*%
%TO.N,VCC*%
X174600000Y-91000000D03*
%TO.P,servo9,3,Pin_3*%
%TO.N,Net-(IC2-A2)*%
X176600000Y-91000000D03*
%TD*%
D15*
%TO.P,J2,1,Pin_1*%
%TO.N,Net-(J2-Pin_1)*%
X137790000Y-77000000D03*
D16*
%TO.P,J2,2,Pin_2*%
%TO.N,Net-(J2-Pin_2)*%
X135250000Y-77000000D03*
%TO.P,J2,3,Pin_3*%
%TO.N,Net-(J2-Pin_3)*%
X132710000Y-77000000D03*
%TO.P,J2,4,Pin_4*%
%TO.N,Net-(J2-Pin_4)*%
X130170000Y-77000000D03*
%TD*%
D15*
%TO.P,S3,1,Pin_1*%
%TO.N,/serial_rx3*%
X128700000Y-84300000D03*
D16*
%TO.P,S3,2,Pin_2*%
%TO.N,/serial_tx3*%
X128700000Y-81760000D03*
%TD*%
D17*
%TO.P,Main Power,N,N*%
%TO.N,GND*%
X166900000Y-81105750D03*
D18*
%TO.P,Main Power,P,P*%
%TO.N,VCC*%
X161900000Y-81105750D03*
D19*
%TO.P,Main Power,S1*%
%TO.N,N/C*%
X169900000Y-71105750D03*
%TO.P,Main Power,S2*%
X158900000Y-71105750D03*
%TD*%
D11*
%TO.P,servo12,1,Pin_1*%
%TO.N,GND*%
X163600000Y-91050000D03*
D12*
%TO.P,servo12,2,Pin_2*%
%TO.N,VCC*%
X165600000Y-91050000D03*
%TO.P,servo12,3,Pin_3*%
%TO.N,Net-(IC2-A2)*%
X167600000Y-91050000D03*
%TD*%
D11*
%TO.P,servo8,1,Pin_1*%
%TO.N,GND*%
X172600000Y-113450000D03*
D12*
%TO.P,servo8,2,Pin_2*%
%TO.N,VCC*%
X174600000Y-113450000D03*
%TO.P,servo8,3,Pin_3*%
%TO.N,Net-(IC2-A2)*%
X176600000Y-113450000D03*
%TD*%
D11*
%TO.P,servo6,1,Pin_1*%
%TO.N,GND*%
X163600000Y-85400000D03*
D12*
%TO.P,servo6,2,Pin_2*%
%TO.N,VCC*%
X165600000Y-85400000D03*
%TO.P,servo6,3,Pin_3*%
%TO.N,Net-(IC2-A2)*%
X167600000Y-85400000D03*
%TD*%
D11*
%TO.P,servo7,1,Pin_1*%
%TO.N,GND*%
X172600000Y-107800000D03*
D12*
%TO.P,servo7,2,Pin_2*%
%TO.N,VCC*%
X174600000Y-107800000D03*
%TO.P,servo7,3,Pin_3*%
%TO.N,Net-(IC2-A2)*%
X176600000Y-107800000D03*
%TD*%
D15*
%TO.P,GND,1,Pin_1*%
%TO.N,GND*%
X141500000Y-73670000D03*
D16*
%TO.P,GND,2,Pin_2*%
X141500000Y-76210000D03*
%TO.P,GND,3,Pin_3*%
X141500000Y-78750000D03*
%TD*%
D20*
%TO.N,+5V*%
X157461715Y-82005718D03*
D21*
X141025000Y-110350000D03*
X121864000Y-72080000D03*
D20*
X116900000Y-71625002D03*
D21*
X112973718Y-78273718D03*
D20*
%TO.N,GND*%
X169750000Y-74500000D03*
D21*
X122000000Y-80500000D03*
X148800000Y-94200000D03*
X143250000Y-110750000D03*
X138000000Y-97250000D03*
X142500000Y-83500000D03*
D20*
X120586890Y-75413110D03*
X112268000Y-82042000D03*
D21*
X131000000Y-108050000D03*
D20*
X138587499Y-119031000D03*
X149000000Y-88500000D03*
D21*
X107500000Y-108000000D03*
X154900000Y-112100000D03*
D20*
X151178000Y-97422000D03*
X120750000Y-102250000D03*
X112500000Y-71000000D03*
X111000000Y-116750000D03*
X158800000Y-91400000D03*
X136500000Y-124000000D03*
X167300000Y-125100000D03*
D21*
X122936000Y-72644000D03*
D20*
X106500000Y-78000000D03*
X175100000Y-80800000D03*
D21*
X134400000Y-113000000D03*
X114500000Y-79750000D03*
D20*
X149000000Y-84000000D03*
D21*
X135600500Y-120762000D03*
D20*
X107000000Y-100750000D03*
X146100000Y-106700000D03*
D21*
X108966000Y-104140000D03*
D20*
X147500000Y-77500000D03*
D21*
X148500000Y-101750000D03*
D20*
X112400000Y-125800000D03*
X159900000Y-105300000D03*
X110200000Y-109000000D03*
X178250000Y-77750000D03*
D21*
X158000000Y-101500000D03*
X116200000Y-110600000D03*
X114400000Y-111400000D03*
X138600000Y-117200000D03*
X138750000Y-100500000D03*
X142800000Y-115200000D03*
X121000000Y-81250000D03*
D20*
X151900000Y-119000000D03*
X105250000Y-119000000D03*
X145500000Y-92500000D03*
X155900000Y-70800000D03*
X107700000Y-95100000D03*
X126492000Y-75692000D03*
D21*
X149250000Y-112250000D03*
X120211218Y-71625002D03*
D20*
X178500000Y-118000000D03*
X164400000Y-72900000D03*
X159000000Y-123000000D03*
D21*
X121250000Y-78000000D03*
X110490000Y-88392000D03*
D20*
X118200000Y-78700000D03*
X159000000Y-116200000D03*
D21*
%TO.N,+3V3*%
X138400000Y-109000000D03*
X136906000Y-110600000D03*
%TO.N,+1V8*%
X143400000Y-96200000D03*
X144700000Y-91100000D03*
%TO.N,Net-(J2-Pin_1)*%
X138400000Y-87500000D03*
X138200000Y-94300000D03*
%TO.N,/SDA*%
X150000000Y-94200000D03*
%TO.N,/SCL*%
X150000000Y-93200000D03*
%TO.N,/buzzer*%
X129422527Y-104303287D03*
X125302818Y-104097182D03*
X137000000Y-108800000D03*
%TO.N,/serial_rx2*%
X122100000Y-88250000D03*
%TO.N,/LORA_CSN*%
X133250000Y-109000000D03*
X130424265Y-111800000D03*
%TO.N,/servo_tx*%
X134000000Y-119181250D03*
%TO.N,/LORA_SCK*%
X126000000Y-102250000D03*
%TO.N,/servo_dir*%
X134000000Y-118381247D03*
%TO.N,/servo_rx*%
X134255515Y-119944485D03*
%TO.N,/LORA_CE*%
X124400000Y-114200000D03*
X131700000Y-109300000D03*
%TO.N,/LORA_IRQ*%
X125600000Y-112600000D03*
%TO.N,/ICM_INT*%
X150800000Y-93000000D03*
%TO.N,/INT_1V8*%
X153200000Y-105500000D03*
X151600000Y-100200000D03*
%TD*%
D22*
%TO.N,+5V*%
X144250000Y-71606000D02*
X143144000Y-70500000D01*
D23*
X112973718Y-78273718D02*
X112973718Y-73325002D01*
X121864000Y-72080000D02*
X123444000Y-70500000D01*
D22*
X157461715Y-82005718D02*
X157255997Y-81800000D01*
X157255997Y-81800000D02*
X149200000Y-81800000D01*
X143144000Y-70500000D02*
X123444000Y-70500000D01*
D23*
X112973718Y-73325002D02*
X114773718Y-71525002D01*
D22*
X149200000Y-81800000D02*
X147340000Y-81800000D01*
D23*
X114773718Y-71525002D02*
X116900000Y-71525002D01*
D22*
X117925002Y-70500000D02*
X116900000Y-71525002D01*
X123444000Y-70500000D02*
X117925002Y-70500000D01*
X147340000Y-81800000D02*
X144250000Y-78710000D01*
X144250000Y-73630000D02*
X144250000Y-71606000D01*
D24*
X152000000Y-84600000D02*
X149200000Y-81800000D01*
X152000000Y-94500000D02*
X152000000Y-84600000D01*
X144050000Y-102450000D02*
X152000000Y-94500000D01*
X144050000Y-107250000D02*
X144050000Y-102450000D01*
X141025000Y-110275000D02*
X144050000Y-107250000D01*
X141025000Y-110350000D02*
X141025000Y-110275000D01*
%TO.N,+3V3*%
X129100000Y-104900000D02*
X127950000Y-103750000D01*
X138400000Y-109000000D02*
X138400000Y-109125000D01*
X130263654Y-107400000D02*
X129100000Y-106236346D01*
X136906000Y-110600000D02*
X136850000Y-110600000D01*
X136850000Y-110600000D02*
X133650000Y-107400000D01*
X136925000Y-110600000D02*
X136906000Y-110600000D01*
X129100000Y-106236346D02*
X129100000Y-104900000D01*
X127950000Y-103750000D02*
X125940000Y-103750000D01*
X125940000Y-103750000D02*
X112570000Y-90380000D01*
X133650000Y-107400000D02*
X130263654Y-107400000D01*
X138400000Y-109125000D02*
X136925000Y-110600000D01*
%TO.N,+1V8*%
X143400000Y-96200000D02*
X143400000Y-92400000D01*
X143400000Y-92400000D02*
X144700000Y-91100000D01*
D23*
%TO.N,Net-(J1-Pin_4)*%
X118000000Y-89000000D02*
X120600000Y-86400000D01*
X116400000Y-89600000D02*
X117000000Y-89000000D01*
X116400000Y-91100000D02*
X116400000Y-89600000D01*
X120760000Y-95460000D02*
X116400000Y-91100000D01*
X120600000Y-84377968D02*
X130170000Y-74807968D01*
X117000000Y-89000000D02*
X118000000Y-89000000D01*
X130170000Y-74807968D02*
X130170000Y-74250000D01*
X120600000Y-86400000D02*
X120600000Y-84377968D01*
X132890000Y-95460000D02*
X120760000Y-95460000D01*
%TO.N,Net-(J1-Pin_2)*%
X134100000Y-77476346D02*
X134100000Y-75400000D01*
X130683654Y-78150000D02*
X133426346Y-78150000D01*
X121500000Y-91000000D02*
X121500000Y-86250000D01*
X124750000Y-83000000D02*
X126786346Y-83000000D01*
X133426346Y-78150000D02*
X134100000Y-77476346D01*
X132890000Y-92920000D02*
X131770000Y-91800000D01*
X127550000Y-81283654D02*
X130683654Y-78150000D01*
X121500000Y-86250000D02*
X124750000Y-83000000D01*
X131770000Y-91800000D02*
X122300000Y-91800000D01*
X134100000Y-75400000D02*
X135250000Y-74250000D01*
X122300000Y-91800000D02*
X121500000Y-91000000D01*
X127550000Y-82236346D02*
X127550000Y-81283654D01*
X126786346Y-83000000D02*
X127550000Y-82236346D01*
%TO.N,Net-(J1-Pin_3)*%
X135430000Y-95460000D02*
X133990000Y-94020000D01*
X119000000Y-89625000D02*
X121000000Y-87625000D01*
X133990000Y-94020000D02*
X121520000Y-94020000D01*
X121000000Y-87625000D02*
X121000000Y-84543654D01*
X121000000Y-84543654D02*
X130143654Y-75400000D01*
X121520000Y-94020000D02*
X119000000Y-91500000D01*
X119000000Y-91500000D02*
X119000000Y-89625000D01*
X130143654Y-75400000D02*
X131560000Y-75400000D01*
X131560000Y-75400000D02*
X132710000Y-74250000D01*
%TO.N,Net-(J2-Pin_1)*%
X135430000Y-98000000D02*
X136530000Y-96900000D01*
X137790000Y-86890000D02*
X137790000Y-77000000D01*
X136530000Y-96900000D02*
X136530000Y-95970000D01*
X138400000Y-87500000D02*
X137790000Y-86890000D01*
X136530000Y-95970000D02*
X138200000Y-94300000D01*
%TO.N,/SDA*%
X127810000Y-90380000D02*
X129090000Y-89100000D01*
X129090000Y-89100000D02*
X144900000Y-89100000D01*
X144900000Y-89100000D02*
X150000000Y-94200000D01*
%TO.N,/SCL*%
X150000000Y-93200000D02*
X149800000Y-93200000D01*
X145300000Y-88700000D02*
X126950000Y-88700000D01*
X126950000Y-88700000D02*
X125270000Y-90380000D01*
X149800000Y-93200000D02*
X145300000Y-88700000D01*
%TO.N,/buzzer*%
X129422527Y-104303287D02*
X129475814Y-104250000D01*
X129475814Y-104250000D02*
X133500000Y-104250000D01*
X134250000Y-106250000D02*
X136800000Y-108800000D01*
X125302818Y-104097182D02*
X121712818Y-104097182D01*
X136800000Y-108800000D02*
X137000000Y-108800000D01*
X133500000Y-104250000D02*
X134250000Y-105000000D01*
X121712818Y-104097182D02*
X120190000Y-105620000D01*
X134250000Y-105000000D02*
X134250000Y-106250000D01*
%TO.N,/serial_rx2*%
X122100000Y-88250000D02*
X123050000Y-87300000D01*
X128575000Y-87300000D02*
X131600000Y-84275000D01*
X123050000Y-87300000D02*
X128575000Y-87300000D01*
%TO.N,/LORA_CSN*%
X130424265Y-111800000D02*
X130450000Y-111800000D01*
X130450000Y-111800000D02*
X133250000Y-109000000D01*
%TO.N,/servo_tx*%
X134000000Y-119181250D02*
X130781250Y-119181250D01*
X122750000Y-115800000D02*
X112570000Y-105620000D01*
X127400000Y-115800000D02*
X122750000Y-115800000D01*
X130781250Y-119181250D02*
X127400000Y-115800000D01*
%TO.N,/LORA_SCK*%
X139000000Y-91890000D02*
X140510000Y-90380000D01*
X136012818Y-101750000D02*
X139000000Y-98762818D01*
X126000000Y-102250000D02*
X129750000Y-102250000D01*
X130250000Y-101750000D02*
X136012818Y-101750000D01*
X129750000Y-102250000D02*
X130250000Y-101750000D01*
X139000000Y-98762818D02*
X139000000Y-91890000D01*
%TO.N,/servo_dir*%
X133981247Y-118400000D02*
X131000000Y-118400000D01*
X131000000Y-118400000D02*
X127600000Y-115000000D01*
X127600000Y-115000000D02*
X124200000Y-115000000D01*
X134000000Y-118381247D02*
X133981247Y-118400000D01*
X115110000Y-105910000D02*
X115110000Y-105620000D01*
X124200000Y-115000000D02*
X115110000Y-105910000D01*
%TO.N,/servo_rx*%
X110030000Y-105630000D02*
X110030000Y-105620000D01*
X134255515Y-119944485D02*
X134200000Y-120000000D01*
X130400000Y-120000000D02*
X127000000Y-116600000D01*
X134200000Y-120000000D02*
X130400000Y-120000000D01*
X121000000Y-116600000D02*
X110030000Y-105630000D01*
X127000000Y-116600000D02*
X121000000Y-116600000D01*
%TO.N,/LORA_CE*%
X127500000Y-113400000D02*
X131600000Y-109300000D01*
X131600000Y-109300000D02*
X131700000Y-109300000D01*
X125200000Y-113400000D02*
X127500000Y-113400000D01*
X124400000Y-114200000D02*
X125200000Y-113400000D01*
%TO.N,/LORA_IRQ*%
X125600000Y-112600000D02*
X125600000Y-105950000D01*
X125600000Y-105950000D02*
X125270000Y-105620000D01*
%TO.N,/ICM_INT*%
X150800000Y-93000000D02*
X146100000Y-88300000D01*
X146100000Y-88300000D02*
X124810000Y-88300000D01*
X124810000Y-88300000D02*
X122730000Y-90380000D01*
%TO.N,/INT_1V8*%
X153200000Y-105500000D02*
X153600000Y-105100000D01*
X153600000Y-101802000D02*
X151998000Y-100200000D01*
X151998000Y-100200000D02*
X151600000Y-100200000D01*
X153600000Y-105100000D02*
X153600000Y-101802000D01*
%TD*%
%TA.AperFunction,Conductor*%
%TO.N,GND*%
G36*
X115951833Y-91202533D02*
G01*
X116016776Y-91244140D01*
X116035702Y-91270021D01*
X116079515Y-91345906D01*
X116079518Y-91345910D01*
X116079520Y-91345913D01*
X120514087Y-95780480D01*
X120514089Y-95780481D01*
X120514093Y-95780484D01*
X120605408Y-95833205D01*
X120605409Y-95833205D01*
X120605412Y-95833207D01*
X120707273Y-95860500D01*
X131767783Y-95860500D01*
X131842283Y-95880462D01*
X131896821Y-95935000D01*
X131901162Y-95943085D01*
X131950325Y-96041819D01*
X132021366Y-96135892D01*
X132073236Y-96204579D01*
X132162889Y-96286308D01*
X132223958Y-96341980D01*
X132223963Y-96341984D01*
X132397356Y-96449344D01*
X132397367Y-96449350D01*
X132452319Y-96470638D01*
X132587544Y-96523024D01*
X132788024Y-96560500D01*
X132788027Y-96560500D01*
X132991973Y-96560500D01*
X132991976Y-96560500D01*
X133192456Y-96523024D01*
X133382637Y-96449348D01*
X133556041Y-96341981D01*
X133706764Y-96204579D01*
X133829673Y-96041821D01*
X133920582Y-95859250D01*
X133976397Y-95663083D01*
X133990665Y-95509105D01*
X133995215Y-95460004D01*
X133995215Y-95459995D01*
X133979045Y-95285492D01*
X133976397Y-95256917D01*
X133920582Y-95060750D01*
X133829673Y-94878179D01*
X133728817Y-94744624D01*
X133699853Y-94673145D01*
X133710509Y-94596757D01*
X133757931Y-94535930D01*
X133829414Y-94506964D01*
X133905802Y-94517620D01*
X133953083Y-94549476D01*
X134351886Y-94948279D01*
X134390450Y-95015074D01*
X134390450Y-95092202D01*
X134389839Y-95094414D01*
X134343602Y-95256921D01*
X134324785Y-95459995D01*
X134324785Y-95460004D01*
X134343602Y-95663078D01*
X134343602Y-95663080D01*
X134343603Y-95663083D01*
X134355780Y-95705879D01*
X134399416Y-95859245D01*
X134399417Y-95859247D01*
X134399418Y-95859250D01*
X134437137Y-95935000D01*
X134490328Y-96041823D01*
X134561366Y-96135892D01*
X134613236Y-96204579D01*
X134702889Y-96286308D01*
X134763958Y-96341980D01*
X134763963Y-96341984D01*
X134937356Y-96449344D01*
X134937367Y-96449350D01*
X134992319Y-96470638D01*
X135127544Y-96523024D01*
X135328024Y-96560500D01*
X135328027Y-96560500D01*
X135531973Y-96560500D01*
X135531976Y-96560500D01*
X135732456Y-96523024D01*
X135922637Y-96449348D01*
X135922639Y-96449346D01*
X135926675Y-96447783D01*
X136003355Y-96439484D01*
X136073911Y-96470638D01*
X136119438Y-96532896D01*
X136129500Y-96586721D01*
X136129500Y-96672388D01*
X136109538Y-96746888D01*
X136085859Y-96777747D01*
X135941063Y-96922542D01*
X135874268Y-96961106D01*
X135797139Y-96961106D01*
X135781882Y-96956122D01*
X135732464Y-96936978D01*
X135732457Y-96936976D01*
X135732456Y-96936976D01*
X135692360Y-96929480D01*
X135531980Y-96899500D01*
X135531976Y-96899500D01*
X135328024Y-96899500D01*
X135328019Y-96899500D01*
X135127544Y-96936976D01*
X135127537Y-96936978D01*
X134937367Y-97010649D01*
X134937356Y-97010655D01*
X134763963Y-97118015D01*
X134763958Y-97118019D01*
X134613234Y-97255423D01*
X134490328Y-97418176D01*
X134399416Y-97600754D01*
X134343602Y-97796921D01*
X134324785Y-97999995D01*
X134324785Y-98000004D01*
X134343602Y-98203078D01*
X134343602Y-98203080D01*
X134343603Y-98203083D01*
X134350296Y-98226606D01*
X134399416Y-98399245D01*
X134399417Y-98399247D01*
X134399418Y-98399250D01*
X134467116Y-98535206D01*
X134490328Y-98581823D01*
X134543689Y-98652484D01*
X134613236Y-98744579D01*
X134763958Y-98881980D01*
X134763963Y-98881984D01*
X134937356Y-98989344D01*
X134937367Y-98989350D01*
X135053332Y-99034274D01*
X135127544Y-99063024D01*
X135328024Y-99100500D01*
X135328027Y-99100500D01*
X135531973Y-99100500D01*
X135531976Y-99100500D01*
X135732456Y-99063024D01*
X135922637Y-98989348D01*
X136096041Y-98881981D01*
X136246764Y-98744579D01*
X136369673Y-98581821D01*
X136460582Y-98399250D01*
X136516397Y-98203083D01*
X136526851Y-98090259D01*
X136535215Y-98000004D01*
X136535215Y-97999995D01*
X136524760Y-97887176D01*
X136516397Y-97796917D01*
X136470159Y-97634412D01*
X136468972Y-97557294D01*
X136506503Y-97489913D01*
X136508037Y-97488354D01*
X136850480Y-97145913D01*
X136903207Y-97054588D01*
X136930500Y-96952727D01*
X136930500Y-96847273D01*
X136930500Y-96197610D01*
X136950462Y-96123110D01*
X136974141Y-96092251D01*
X137509733Y-95556659D01*
X138118990Y-94947401D01*
X138185783Y-94908839D01*
X138204899Y-94905037D01*
X138356756Y-94885045D01*
X138356756Y-94885044D01*
X138356762Y-94885044D01*
X138393483Y-94869833D01*
X138469947Y-94859767D01*
X138541204Y-94889282D01*
X138588158Y-94950471D01*
X138599500Y-95007492D01*
X138599500Y-98535206D01*
X138579538Y-98609706D01*
X138555859Y-98640565D01*
X136769931Y-100426492D01*
X136703136Y-100465056D01*
X136626008Y-100465056D01*
X136559213Y-100426492D01*
X136520649Y-100359697D01*
X136517782Y-100343670D01*
X136517664Y-100343693D01*
X136516397Y-100336921D01*
X136516397Y-100336917D01*
X136460582Y-100140750D01*
X136369673Y-99958179D01*
X136246764Y-99795421D01*
X136096041Y-99658019D01*
X136096036Y-99658015D01*
X135922643Y-99550655D01*
X135922632Y-99550649D01*
X135732462Y-99476978D01*
X135732458Y-99476977D01*
X135732456Y-99476976D01*
X135692360Y-99469480D01*
X135531980Y-99439500D01*
X135531976Y-99439500D01*
X135328024Y-99439500D01*
X135328019Y-99439500D01*
X135127544Y-99476976D01*
X135127537Y-99476978D01*
X134937367Y-99550649D01*
X134937356Y-99550655D01*
X134763963Y-99658015D01*
X134763958Y-99658019D01*
X134613234Y-99795423D01*
X134490328Y-99958176D01*
X134399416Y-100140754D01*
X134343602Y-100336921D01*
X134324785Y-100539995D01*
X134324785Y-100540004D01*
X134343602Y-100743078D01*
X134343602Y-100743080D01*
X134343603Y-100743083D01*
X134361414Y-100805682D01*
X134399416Y-100939245D01*
X134399417Y-100939247D01*
X134399418Y-100939250D01*
X134490327Y-101121821D01*
X134490329Y-101121823D01*
X134490474Y-101122057D01*
X134490518Y-101122203D01*
X134493398Y-101127987D01*
X134492408Y-101128479D01*
X134512723Y-101195907D01*
X134495067Y-101270987D01*
X134442237Y-101327180D01*
X134368387Y-101349429D01*
X134363794Y-101349500D01*
X133956206Y-101349500D01*
X133881706Y-101329538D01*
X133827168Y-101275000D01*
X133807206Y-101200500D01*
X133826631Y-101128001D01*
X133826602Y-101127987D01*
X133826674Y-101127840D01*
X133827168Y-101126000D01*
X133829526Y-101122057D01*
X133829661Y-101121836D01*
X133829673Y-101121821D01*
X133920582Y-100939250D01*
X133976397Y-100743083D01*
X133995215Y-100540000D01*
X133976397Y-100336917D01*
X133920582Y-100140750D01*
X133829673Y-99958179D01*
X133706764Y-99795421D01*
X133556041Y-99658019D01*
X133556036Y-99658015D01*
X133382643Y-99550655D01*
X133382632Y-99550649D01*
X133192462Y-99476978D01*
X133192458Y-99476977D01*
X133192456Y-99476976D01*
X133152360Y-99469480D01*
X132991980Y-99439500D01*
X132991976Y-99439500D01*
X132788024Y-99439500D01*
X132788019Y-99439500D01*
X132587544Y-99476976D01*
X132587537Y-99476978D01*
X132397367Y-99550649D01*
X132397356Y-99550655D01*
X132223963Y-99658015D01*
X132223958Y-99658019D01*
X132073234Y-99795423D01*
X131950328Y-99958176D01*
X131859416Y-100140754D01*
X131803602Y-100336921D01*
X131784785Y-100539995D01*
X131784785Y-100540004D01*
X131803602Y-100743078D01*
X131803602Y-100743080D01*
X131803603Y-100743083D01*
X131821414Y-100805682D01*
X131859416Y-100939245D01*
X131859417Y-100939247D01*
X131859418Y-100939250D01*
X131950327Y-101121821D01*
X131950329Y-101121823D01*
X131950474Y-101122057D01*
X131950518Y-101122203D01*
X131953398Y-101127987D01*
X131952408Y-101128479D01*
X131972723Y-101195907D01*
X131955067Y-101270987D01*
X131902237Y-101327180D01*
X131828387Y-101349429D01*
X131823794Y-101349500D01*
X130197270Y-101349500D01*
X130095412Y-101376793D01*
X130053546Y-101400965D01*
X130004086Y-101429520D01*
X129627748Y-101805859D01*
X129560953Y-101844423D01*
X129522389Y-101849500D01*
X126515067Y-101849500D01*
X126440567Y-101829538D01*
X126424362Y-101818710D01*
X126302840Y-101725463D01*
X126222944Y-101692369D01*
X126156762Y-101664956D01*
X126156760Y-101664955D01*
X126156756Y-101664954D01*
X126156759Y-101664954D01*
X126000003Y-101644318D01*
X125999997Y-101644318D01*
X125843242Y-101664954D01*
X125697159Y-101725463D01*
X125571718Y-101821717D01*
X125571717Y-101821718D01*
X125475463Y-101947159D01*
X125414954Y-102093242D01*
X125396851Y-102230753D01*
X125367336Y-102302010D01*
X125306146Y-102348963D01*
X125229678Y-102359030D01*
X125158421Y-102329515D01*
X125143767Y-102316664D01*
X120827098Y-97999995D01*
X131784785Y-97999995D01*
X131784785Y-98000004D01*
X131803602Y-98203078D01*
X131803602Y-98203080D01*
X131803603Y-98203083D01*
X131810296Y-98226606D01*
X131859416Y-98399245D01*
X131859417Y-98399247D01*
X131859418Y-98399250D01*
X131927116Y-98535206D01*
X131950328Y-98581823D01*
X132003689Y-98652484D01*
X132073236Y-98744579D01*
X132223958Y-98881980D01*
X132223963Y-98881984D01*
X132397356Y-98989344D01*
X132397367Y-98989350D01*
X132513332Y-99034274D01*
X132587544Y-99063024D01*
X132788024Y-99100500D01*
X132788027Y-99100500D01*
X132991973Y-99100500D01*
X132991976Y-99100500D01*
X133192456Y-99063024D01*
X133382637Y-98989348D01*
X133556041Y-98881981D01*
X133706764Y-98744579D01*
X133829673Y-98581821D01*
X133920582Y-98399250D01*
X133976397Y-98203083D01*
X133986851Y-98090259D01*
X133995215Y-98000004D01*
X133995215Y-97999995D01*
X133984760Y-97887176D01*
X133976397Y-97796917D01*
X133920582Y-97600750D01*
X133829673Y-97418179D01*
X133706764Y-97255421D01*
X133556041Y-97118019D01*
X133556036Y-97118015D01*
X133382643Y-97010655D01*
X133382632Y-97010649D01*
X133192462Y-96936978D01*
X133192458Y-96936977D01*
X133192456Y-96936976D01*
X133152360Y-96929480D01*
X132991980Y-96899500D01*
X132991976Y-96899500D01*
X132788024Y-96899500D01*
X132788019Y-96899500D01*
X132587544Y-96936976D01*
X132587537Y-96936978D01*
X132397367Y-97010649D01*
X132397356Y-97010655D01*
X132223963Y-97118015D01*
X132223958Y-97118019D01*
X132073234Y-97255423D01*
X131950328Y-97418176D01*
X131859416Y-97600754D01*
X131803602Y-97796921D01*
X131784785Y-97999995D01*
X120827098Y-97999995D01*
X114420243Y-91593140D01*
X114381679Y-91526345D01*
X114381679Y-91449217D01*
X114420243Y-91382422D01*
X114487038Y-91343858D01*
X114564166Y-91343858D01*
X114604036Y-91361096D01*
X114617363Y-91369348D01*
X114617365Y-91369348D01*
X114617367Y-91369350D01*
X114703816Y-91402840D01*
X114807544Y-91443024D01*
X115008024Y-91480500D01*
X115008027Y-91480500D01*
X115211973Y-91480500D01*
X115211976Y-91480500D01*
X115412456Y-91443024D01*
X115588047Y-91375000D01*
X115602632Y-91369350D01*
X115602632Y-91369349D01*
X115602637Y-91369348D01*
X115776041Y-91261981D01*
X115806285Y-91234409D01*
X115874787Y-91198972D01*
X115951833Y-91202533D01*
G37*
%TD.AperFunction*%
%TA.AperFunction,Conductor*%
G36*
X139624000Y-96132451D02*
G01*
X139668404Y-96171696D01*
X139693236Y-96204579D01*
X139782889Y-96286308D01*
X139843958Y-96341980D01*
X139843963Y-96341984D01*
X140017356Y-96449344D01*
X140017358Y-96449345D01*
X140017363Y-96449348D01*
X140105901Y-96483647D01*
X140168157Y-96529173D01*
X140199311Y-96599729D01*
X140191013Y-96676410D01*
X140145486Y-96738668D01*
X140090640Y-96766507D01*
X140063682Y-96773730D01*
X140063674Y-96773733D01*
X139857522Y-96869862D01*
X139857517Y-96869865D01*
X139784527Y-96920974D01*
X140339765Y-97476212D01*
X140297708Y-97487482D01*
X140172292Y-97559890D01*
X140069890Y-97662292D01*
X139997482Y-97787708D01*
X139986212Y-97829766D01*
X139444141Y-97287695D01*
X139405577Y-97220900D01*
X139400500Y-97182336D01*
X139400500Y-96261489D01*
X139420462Y-96186989D01*
X139475000Y-96132451D01*
X139549500Y-96112489D01*
X139624000Y-96132451D01*
G37*
%TD.AperFunction*%
%TA.AperFunction,Conductor*%
G36*
X141750000Y-78316988D02*
G01*
X141692993Y-78284075D01*
X141565826Y-78250000D01*
X141434174Y-78250000D01*
X141307007Y-78284075D01*
X141250000Y-78316988D01*
X141250000Y-76643012D01*
X141307007Y-76675925D01*
X141434174Y-76710000D01*
X141565826Y-76710000D01*
X141692993Y-76675925D01*
X141750000Y-76643012D01*
X141750000Y-78316988D01*
G37*
%TD.AperFunction*%
%TA.AperFunction,Conductor*%
G36*
X141750000Y-75776988D02*
G01*
X141692993Y-75744075D01*
X141565826Y-75710000D01*
X141434174Y-75710000D01*
X141307007Y-75744075D01*
X141250000Y-75776988D01*
X141250000Y-74103012D01*
X141307007Y-74135925D01*
X141434174Y-74170000D01*
X141565826Y-74170000D01*
X141692993Y-74135925D01*
X141750000Y-74103012D01*
X141750000Y-75776988D01*
G37*
%TD.AperFunction*%
%TA.AperFunction,Conductor*%
G36*
X175003252Y-69500642D02*
G01*
X175385661Y-69517338D01*
X175398605Y-69518470D01*
X175774894Y-69568010D01*
X175787659Y-69570261D01*
X176158203Y-69652408D01*
X176170756Y-69655772D01*
X176532716Y-69769897D01*
X176544931Y-69774343D01*
X176895555Y-69919576D01*
X176907336Y-69925069D01*
X177243991Y-70100321D01*
X177255230Y-70106810D01*
X177575339Y-70310741D01*
X177585953Y-70318174D01*
X177887071Y-70549229D01*
X177897013Y-70557572D01*
X178027176Y-70676845D01*
X178176830Y-70813978D01*
X178186021Y-70823169D01*
X178255537Y-70899032D01*
X178440354Y-71100724D01*
X178442420Y-71102978D01*
X178450771Y-71112931D01*
X178674778Y-71404861D01*
X178681819Y-71414037D01*
X178689261Y-71424665D01*
X178893184Y-71744762D01*
X178899678Y-71756008D01*
X179074930Y-72092663D01*
X179080423Y-72104444D01*
X179225656Y-72455068D01*
X179230102Y-72467283D01*
X179344227Y-72829243D01*
X179347591Y-72841798D01*
X179400198Y-73079089D01*
X179427906Y-73204075D01*
X179429734Y-73212318D01*
X179431991Y-73225120D01*
X179481528Y-73601393D01*
X179482661Y-73614341D01*
X179499358Y-73996746D01*
X179499500Y-74003246D01*
X179499500Y-121996753D01*
X179499358Y-122003253D01*
X179482661Y-122385658D01*
X179481528Y-122398606D01*
X179431991Y-122774879D01*
X179429734Y-122787681D01*
X179347591Y-123158201D01*
X179344227Y-123170756D01*
X179230102Y-123532716D01*
X179225656Y-123544931D01*
X179080423Y-123895555D01*
X179074930Y-123907336D01*
X178899678Y-124243991D01*
X178893178Y-124255247D01*
X178689268Y-124575323D01*
X178681819Y-124585962D01*
X178450776Y-124887063D01*
X178442420Y-124897021D01*
X178186021Y-125176830D01*
X178176830Y-125186021D01*
X177897021Y-125442420D01*
X177887063Y-125450776D01*
X177585962Y-125681819D01*
X177575323Y-125689268D01*
X177273011Y-125881861D01*
X177255247Y-125893179D01*
X177243991Y-125899678D01*
X176907336Y-126074930D01*
X176895555Y-126080423D01*
X176544931Y-126225656D01*
X176532716Y-126230102D01*
X176170756Y-126344227D01*
X176158201Y-126347591D01*
X175787681Y-126429734D01*
X175774879Y-126431991D01*
X175398606Y-126481528D01*
X175385658Y-126482661D01*
X175017666Y-126498728D01*
X175003251Y-126499358D01*
X174996753Y-126499500D01*
X109003247Y-126499500D01*
X108996748Y-126499358D01*
X108981482Y-126498691D01*
X108614341Y-126482661D01*
X108601393Y-126481528D01*
X108225120Y-126431991D01*
X108212322Y-126429734D01*
X108124024Y-126410159D01*
X107841798Y-126347591D01*
X107829243Y-126344227D01*
X107467283Y-126230102D01*
X107455068Y-126225656D01*
X107104444Y-126080423D01*
X107092663Y-126074930D01*
X106756008Y-125899678D01*
X106744762Y-125893184D01*
X106424665Y-125689261D01*
X106414037Y-125681819D01*
X106112936Y-125450776D01*
X106102984Y-125442425D01*
X105992320Y-125341020D01*
X105823169Y-125186021D01*
X105813978Y-125176830D01*
X105676845Y-125027176D01*
X105557572Y-124897013D01*
X105549229Y-124887071D01*
X105318174Y-124585953D01*
X105310741Y-124575339D01*
X105106810Y-124255230D01*
X105103790Y-124250000D01*
X106750000Y-124250000D01*
X111250000Y-124250000D01*
X172750000Y-124250000D01*
X177250000Y-124250000D01*
X177250000Y-119750000D01*
X172750000Y-119750000D01*
X172750000Y-124250000D01*
X111250000Y-124250000D01*
X111250000Y-119750000D01*
X106750000Y-119750000D01*
X106750000Y-124250000D01*
X105103790Y-124250000D01*
X105100321Y-124243991D01*
X104925069Y-123907336D01*
X104919576Y-123895555D01*
X104774343Y-123544931D01*
X104769897Y-123532716D01*
X104655772Y-123170756D01*
X104652408Y-123158201D01*
X104646101Y-123129752D01*
X104570261Y-122787659D01*
X104568010Y-122774894D01*
X104518470Y-122398605D01*
X104517338Y-122385657D01*
X104500642Y-122003252D01*
X104500500Y-121996753D01*
X104500500Y-105620000D01*
X106185034Y-105620000D01*
X106204859Y-105846606D01*
X106263732Y-106066323D01*
X106263733Y-106066325D01*
X106359866Y-106272483D01*
X106359872Y-106272492D01*
X106410973Y-106345471D01*
X106966212Y-105790232D01*
X106977482Y-105832292D01*
X107049890Y-105957708D01*
X107152292Y-106060110D01*
X107277708Y-106132518D01*
X107319765Y-106143787D01*
X106764526Y-106699025D01*
X106837509Y-106750129D01*
X106837515Y-106750132D01*
X107043674Y-106846266D01*
X107043676Y-106846267D01*
X107263394Y-106905140D01*
X107263393Y-106905140D01*
X107490000Y-106924965D01*
X107716606Y-106905140D01*
X107936323Y-106846267D01*
X107936325Y-106846266D01*
X108142478Y-106750136D01*
X108142484Y-106750132D01*
X108215471Y-106699024D01*
X107660234Y-106143787D01*
X107702292Y-106132518D01*
X107827708Y-106060110D01*
X107930110Y-105957708D01*
X108002518Y-105832292D01*
X108013787Y-105790234D01*
X108569024Y-106345471D01*
X108620132Y-106272484D01*
X108620136Y-106272478D01*
X108716266Y-106066325D01*
X108716268Y-106066321D01*
X108721662Y-106046190D01*
X108760225Y-105979395D01*
X108827020Y-105940830D01*
X108904148Y-105940830D01*
X108970943Y-105979393D01*
X108998965Y-106018339D01*
X108999417Y-106019247D01*
X108999418Y-106019250D01*
X109090327Y-106201821D01*
X109213236Y-106364579D01*
X109314464Y-106456860D01*
X109363958Y-106501980D01*
X109363963Y-106501984D01*
X109537356Y-106609344D01*
X109537367Y-106609350D01*
X109653332Y-106654274D01*
X109727544Y-106683024D01*
X109928024Y-106720500D01*
X109928027Y-106720500D01*
X110131973Y-106720500D01*
X110131976Y-106720500D01*
X110332456Y-106683024D01*
X110374671Y-106666669D01*
X110451347Y-106658370D01*
X110521904Y-106689521D01*
X110533855Y-106700248D01*
X115621630Y-111788022D01*
X120679518Y-116845910D01*
X120679520Y-116845913D01*
X120754087Y-116920480D01*
X120799747Y-116946841D01*
X120799749Y-116946843D01*
X120837926Y-116968884D01*
X120845412Y-116973207D01*
X120947273Y-117000500D01*
X126772389Y-117000500D01*
X126846889Y-117020462D01*
X126877748Y-117044141D01*
X130154087Y-120320480D01*
X130154089Y-120320481D01*
X130154093Y-120320484D01*
X130245408Y-120373205D01*
X130245409Y-120373205D01*
X130245412Y-120373207D01*
X130347273Y-120400500D01*
X133812797Y-120400500D01*
X133887297Y-120420462D01*
X133903499Y-120431288D01*
X133952674Y-120469021D01*
X134098753Y-120529529D01*
X134098756Y-120529529D01*
X134098758Y-120529530D01*
X134098755Y-120529530D01*
X134255512Y-120550167D01*
X134255515Y-120550167D01*
X134255518Y-120550167D01*
X134412272Y-120529530D01*
X134412273Y-120529529D01*
X134412277Y-120529529D01*
X134558356Y-120469021D01*
X134683797Y-120372767D01*
X134780051Y-120247326D01*
X134840559Y-120101247D01*
X134840851Y-120099035D01*
X134861197Y-119944487D01*
X134861197Y-119944482D01*
X134840560Y-119787727D01*
X134840559Y-119787725D01*
X134840559Y-119787723D01*
X134780051Y-119641644D01*
X134683797Y-119516203D01*
X134683794Y-119516200D01*
X134641046Y-119483398D01*
X134594094Y-119422208D01*
X134584027Y-119345741D01*
X134605682Y-119181252D01*
X134605682Y-119181247D01*
X134585045Y-119024492D01*
X134585044Y-119024490D01*
X134585044Y-119024488D01*
X134556317Y-118955135D01*
X146699500Y-118955135D01*
X146699500Y-118955136D01*
X146699500Y-118955140D01*
X146699500Y-121044866D01*
X146702414Y-121069989D01*
X146702415Y-121069992D01*
X146747793Y-121172764D01*
X146747794Y-121172765D01*
X146827235Y-121252206D01*
X146930009Y-121297585D01*
X146955135Y-121300500D01*
X149044864Y-121300499D01*
X149044866Y-121300499D01*
X149057427Y-121299042D01*
X149069991Y-121297585D01*
X149172765Y-121252206D01*
X149252206Y-121172765D01*
X149297585Y-121069991D01*
X149300500Y-121044865D01*
X149300499Y-120000000D01*
X154294532Y-120000000D01*
X154314365Y-120226693D01*
X154353505Y-120372766D01*
X154373261Y-120446496D01*
X154469432Y-120652734D01*
X154469435Y-120652738D01*
X154469437Y-120652741D01*
X154599951Y-120839137D01*
X154599953Y-120839139D01*
X154760861Y-121000047D01*
X154947266Y-121130568D01*
X155153504Y-121226739D01*
X155373308Y-121285635D01*
X155600000Y-121305468D01*
X155826692Y-121285635D01*
X156046496Y-121226739D01*
X156252734Y-121130568D01*
X156439139Y-121000047D01*
X156600047Y-120839139D01*
X156730568Y-120652734D01*
X156826739Y-120446496D01*
X156885635Y-120226692D01*
X156905468Y-120000000D01*
X156885635Y-119773308D01*
X156826739Y-119553504D01*
X156730568Y-119347266D01*
X156614325Y-119181252D01*
X156600048Y-119160862D01*
X156439137Y-118999951D01*
X156252741Y-118869437D01*
X156252738Y-118869435D01*
X156252734Y-118869432D01*
X156046496Y-118773261D01*
X155826692Y-118714365D01*
X155826693Y-118714365D01*
X155600000Y-118694532D01*
X155373306Y-118714365D01*
X155153507Y-118773260D01*
X155153506Y-118773260D01*
X155153504Y-118773261D01*
X154947266Y-118869432D01*
X154947263Y-118869434D01*
X154947261Y-118869435D01*
X154947258Y-118869437D01*
X154760862Y-118999951D01*
X154599951Y-119160862D01*
X154469437Y-119347258D01*
X154469435Y-119347261D01*
X154469434Y-119347263D01*
X154469432Y-119347266D01*
X154390655Y-119516203D01*
X154373260Y-119553507D01*
X154314365Y-119773306D01*
X154294532Y-120000000D01*
X149300499Y-120000000D01*
X149300499Y-118955136D01*
X149297585Y-118930009D01*
X149252206Y-118827235D01*
X149172765Y-118747794D01*
X149172764Y-118747793D01*
X149069994Y-118702416D01*
X149069991Y-118702415D01*
X149069982Y-118702414D01*
X149044865Y-118699500D01*
X149044859Y-118699500D01*
X146955133Y-118699500D01*
X146930010Y-118702414D01*
X146930007Y-118702415D01*
X146827235Y-118747793D01*
X146747793Y-118827235D01*
X146702416Y-118930005D01*
X146702415Y-118930008D01*
X146702415Y-118930009D01*
X146699500Y-118955135D01*
X134556317Y-118955135D01*
X134524536Y-118878409D01*
X134519581Y-118871952D01*
X134490067Y-118800696D01*
X134500134Y-118724227D01*
X134519584Y-118690540D01*
X134524536Y-118684088D01*
X134569718Y-118575010D01*
X162500000Y-118575010D01*
X162500000Y-119000000D01*
X163319670Y-119000000D01*
X163299925Y-119019745D01*
X163250556Y-119105255D01*
X163225000Y-119200630D01*
X163225000Y-119299370D01*
X163250556Y-119394745D01*
X163299925Y-119480255D01*
X163319670Y-119500000D01*
X162500001Y-119500000D01*
X162500001Y-119924973D01*
X162510494Y-120027696D01*
X162565642Y-120194121D01*
X162657680Y-120343340D01*
X162781659Y-120467319D01*
X162930878Y-120559357D01*
X163097302Y-120614505D01*
X163097311Y-120614507D01*
X163200015Y-120624999D01*
X163350000Y-120624999D01*
X163350000Y-119530330D01*
X163369745Y-119550075D01*
X163455255Y-119599444D01*
X163550630Y-119625000D01*
X163649370Y-119625000D01*
X163744745Y-119599444D01*
X163830255Y-119550075D01*
X163850000Y-119530330D01*
X163850000Y-120624999D01*
X163999974Y-120624999D01*
X164102696Y-120614505D01*
X164269121Y-120559357D01*
X164418340Y-120467319D01*
X164542319Y-120343340D01*
X164634358Y-120194120D01*
X164648304Y-120152034D01*
X164690686Y-120087595D01*
X164759610Y-120052979D01*
X164836608Y-120057464D01*
X164894004Y-120095214D01*
X164895360Y-120093859D01*
X164900536Y-120099035D01*
X165025965Y-120224464D01*
X165025968Y-120224466D01*
X165173451Y-120323012D01*
X165173453Y-120323013D01*
X165337334Y-120390894D01*
X165511309Y-120425500D01*
X165688691Y-120425500D01*
X165862666Y-120390894D01*
X166026547Y-120323013D01*
X166174035Y-120224464D01*
X166299464Y-120099035D01*
X166398013Y-119951547D01*
X166462342Y-119796240D01*
X166509294Y-119735051D01*
X166580551Y-119705535D01*
X166657019Y-119715602D01*
X166718209Y-119762554D01*
X166737658Y-119796241D01*
X166801986Y-119951546D01*
X166801987Y-119951548D01*
X166834362Y-120000000D01*
X166900536Y-120099035D01*
X167025965Y-120224464D01*
X167025968Y-120224466D01*
X167173451Y-120323012D01*
X167173453Y-120323013D01*
X167337334Y-120390894D01*
X167511309Y-120425500D01*
X167688691Y-120425500D01*
X167862666Y-120390894D01*
X168026547Y-120323013D01*
X168174035Y-120224464D01*
X168299464Y-120099035D01*
X168398013Y-119951547D01*
X168465894Y-119787666D01*
X168500500Y-119613691D01*
X168500500Y-118886309D01*
X168498250Y-118875000D01*
X168478013Y-118773260D01*
X168465894Y-118712334D01*
X168398013Y-118548453D01*
X168391034Y-118538009D01*
X168299466Y-118400968D01*
X168299462Y-118400963D01*
X168174036Y-118275537D01*
X168174031Y-118275533D01*
X168026548Y-118176987D01*
X168026546Y-118176986D01*
X167862667Y-118109106D01*
X167862663Y-118109105D01*
X167688691Y-118074500D01*
X167511309Y-118074500D01*
X167337336Y-118109105D01*
X167337332Y-118109106D01*
X167173453Y-118176986D01*
X167173451Y-118176987D01*
X167025968Y-118275533D01*
X167025963Y-118275537D01*
X166900537Y-118400963D01*
X166900533Y-118400968D01*
X166801987Y-118548451D01*
X166801986Y-118548454D01*
X166737658Y-118703758D01*
X166690706Y-118764948D01*
X166619449Y-118794464D01*
X166542981Y-118784397D01*
X166481791Y-118737445D01*
X166462342Y-118703758D01*
X166398013Y-118548454D01*
X166398012Y-118548451D01*
X166299466Y-118400968D01*
X166299462Y-118400963D01*
X166174036Y-118275537D01*
X166174031Y-118275533D01*
X166026548Y-118176987D01*
X166026546Y-118176986D01*
X165862667Y-118109106D01*
X165862663Y-118109105D01*
X165688691Y-118074500D01*
X165511309Y-118074500D01*
X165337336Y-118109105D01*
X165337332Y-118109106D01*
X165173453Y-118176986D01*
X165173451Y-118176987D01*
X165025968Y-118275533D01*
X165025963Y-118275537D01*
X164895360Y-118406141D01*
X164893244Y-118404025D01*
X164842051Y-118440614D01*
X164765285Y-118448077D01*
X164695072Y-118416158D01*
X164650225Y-118353408D01*
X164648304Y-118347965D01*
X164634358Y-118305880D01*
X164634358Y-118305879D01*
X164542319Y-118156659D01*
X164418340Y-118032680D01*
X164269121Y-117940642D01*
X164102697Y-117885494D01*
X164102688Y-117885492D01*
X163999989Y-117875000D01*
X163850000Y-117875000D01*
X163850000Y-118969670D01*
X163830255Y-118949925D01*
X163744745Y-118900556D01*
X163649370Y-118875000D01*
X163550630Y-118875000D01*
X163455255Y-118900556D01*
X163369745Y-118949925D01*
X163350000Y-118969670D01*
X163350000Y-117875000D01*
X163200026Y-117875000D01*
X163097303Y-117885494D01*
X162930878Y-117940642D01*
X162781659Y-118032680D01*
X162657680Y-118156659D01*
X162565642Y-118305878D01*
X162510494Y-118472302D01*
X162510492Y-118472311D01*
X162500000Y-118575010D01*
X134569718Y-118575010D01*
X134585044Y-118538009D01*
X134585044Y-118538008D01*
X134585045Y-118538006D01*
X134605682Y-118381249D01*
X134605682Y-118381244D01*
X134585045Y-118224489D01*
X134585044Y-118224487D01*
X134585044Y-118224485D01*
X134524536Y-118078406D01*
X134428282Y-117952965D01*
X134412223Y-117940642D01*
X134302840Y-117856710D01*
X134222944Y-117823616D01*
X134156762Y-117796203D01*
X134156760Y-117796202D01*
X134156756Y-117796201D01*
X134156759Y-117796201D01*
X134000003Y-117775565D01*
X133999997Y-117775565D01*
X133843242Y-117796201D01*
X133697161Y-117856709D01*
X133659648Y-117885494D01*
X133571718Y-117952965D01*
X133571717Y-117952965D01*
X133571712Y-117952970D01*
X133568819Y-117955864D01*
X133565277Y-117957908D01*
X133563971Y-117958911D01*
X133563838Y-117958738D01*
X133502022Y-117994425D01*
X133463465Y-117999500D01*
X131227611Y-117999500D01*
X131153111Y-117979538D01*
X131122252Y-117955859D01*
X130012303Y-116845910D01*
X127845913Y-114679520D01*
X127845910Y-114679518D01*
X127845906Y-114679515D01*
X127754591Y-114626794D01*
X127754588Y-114626793D01*
X127727295Y-114619480D01*
X127652729Y-114599500D01*
X127652727Y-114599500D01*
X125107493Y-114599500D01*
X125032993Y-114579538D01*
X124978455Y-114525000D01*
X124958493Y-114450500D01*
X124969834Y-114393482D01*
X124985044Y-114356762D01*
X124985667Y-114352034D01*
X125005037Y-114204899D01*
X125034552Y-114133642D01*
X125047394Y-114118997D01*
X125322252Y-113844141D01*
X125389047Y-113805577D01*
X125427611Y-113800500D01*
X127552725Y-113800500D01*
X127552727Y-113800500D01*
X127654588Y-113773207D01*
X127745913Y-113720480D01*
X128691381Y-112775010D01*
X162500000Y-112775010D01*
X162500000Y-113200000D01*
X163319670Y-113200000D01*
X163299925Y-113219745D01*
X163250556Y-113305255D01*
X163225000Y-113400630D01*
X163225000Y-113499370D01*
X163250556Y-113594745D01*
X163299925Y-113680255D01*
X163319670Y-113700000D01*
X162500001Y-113700000D01*
X162500001Y-114124973D01*
X162510494Y-114227696D01*
X162565642Y-114394121D01*
X162657680Y-114543340D01*
X162781659Y-114667319D01*
X162930878Y-114759357D01*
X163097302Y-114814505D01*
X163097311Y-114814507D01*
X163200015Y-114824999D01*
X163350000Y-114824999D01*
X163350000Y-113730330D01*
X163369745Y-113750075D01*
X163455255Y-113799444D01*
X163550630Y-113825000D01*
X163649370Y-113825000D01*
X163744745Y-113799444D01*
X163830255Y-113750075D01*
X163850000Y-113730330D01*
X163850000Y-114824999D01*
X163999974Y-114824999D01*
X164102696Y-114814505D01*
X164269121Y-114759357D01*
X164418340Y-114667319D01*
X164542319Y-114543340D01*
X164634358Y-114394120D01*
X164648304Y-114352034D01*
X164690686Y-114287595D01*
X164759610Y-114252979D01*
X164836608Y-114257464D01*
X164894004Y-114295214D01*
X164895360Y-114293859D01*
X164900536Y-114299035D01*
X165025965Y-114424464D01*
X165025968Y-114424466D01*
X165173451Y-114523012D01*
X165173453Y-114523013D01*
X165337334Y-114590894D01*
X165511309Y-114625500D01*
X165688691Y-114625500D01*
X165862666Y-114590894D01*
X166026547Y-114523013D01*
X166174035Y-114424464D01*
X166299464Y-114299035D01*
X166398013Y-114151547D01*
X166462342Y-113996240D01*
X166509294Y-113935051D01*
X166580551Y-113905535D01*
X166657019Y-113915602D01*
X166718209Y-113962554D01*
X166737658Y-113996241D01*
X166801986Y-114151546D01*
X166801987Y-114151548D01*
X166852868Y-114227696D01*
X166900536Y-114299035D01*
X167025965Y-114424464D01*
X167025968Y-114424466D01*
X167173451Y-114523012D01*
X167173453Y-114523013D01*
X167337334Y-114590894D01*
X167511309Y-114625500D01*
X167688691Y-114625500D01*
X167862666Y-114590894D01*
X168026547Y-114523013D01*
X168174035Y-114424464D01*
X168299464Y-114299035D01*
X168398013Y-114151547D01*
X168465894Y-113987666D01*
X168500500Y-113813691D01*
X168500500Y-113086309D01*
X168498250Y-113075000D01*
X168486489Y-113015871D01*
X168465894Y-112912334D01*
X168409013Y-112775010D01*
X171500000Y-112775010D01*
X171500000Y-113200000D01*
X172319670Y-113200000D01*
X172299925Y-113219745D01*
X172250556Y-113305255D01*
X172225000Y-113400630D01*
X172225000Y-113499370D01*
X172250556Y-113594745D01*
X172299925Y-113680255D01*
X172319670Y-113700000D01*
X171500001Y-113700000D01*
X171500001Y-114124973D01*
X171510494Y-114227696D01*
X171565642Y-114394121D01*
X171657680Y-114543340D01*
X171781659Y-114667319D01*
X171930878Y-114759357D01*
X172097302Y-114814505D01*
X172097311Y-114814507D01*
X172200015Y-114824999D01*
X172350000Y-114824999D01*
X172350000Y-113730330D01*
X172369745Y-113750075D01*
X172455255Y-113799444D01*
X172550630Y-113825000D01*
X172649370Y-113825000D01*
X172744745Y-113799444D01*
X172830255Y-113750075D01*
X172850000Y-113730330D01*
X172850000Y-114824999D01*
X172999974Y-114824999D01*
X173102696Y-114814505D01*
X173269121Y-114759357D01*
X173418340Y-114667319D01*
X173542319Y-114543340D01*
X173634358Y-114394120D01*
X173648304Y-114352034D01*
X173690686Y-114287595D01*
X173759610Y-114252979D01*
X173836608Y-114257464D01*
X173894004Y-114295214D01*
X173895360Y-114293859D01*
X173900536Y-114299035D01*
X174025965Y-114424464D01*
X174025968Y-114424466D01*
X174173451Y-114523012D01*
X174173453Y-114523013D01*
X174337334Y-114590894D01*
X174511309Y-114625500D01*
X174688691Y-114625500D01*
X174862666Y-114590894D01*
X175026547Y-114523013D01*
X175174035Y-114424464D01*
X175299464Y-114299035D01*
X175398013Y-114151547D01*
X175462342Y-113996240D01*
X175509294Y-113935051D01*
X175580551Y-113905535D01*
X175657019Y-113915602D01*
X175718209Y-113962554D01*
X175737658Y-113996241D01*
X175801986Y-114151546D01*
X175801987Y-114151548D01*
X175852868Y-114227696D01*
X175900536Y-114299035D01*
X176025965Y-114424464D01*
X176025968Y-114424466D01*
X176173451Y-114523012D01*
X176173453Y-114523013D01*
X176337334Y-114590894D01*
X176511309Y-114625500D01*
X176688691Y-114625500D01*
X176862666Y-114590894D01*
X177026547Y-114523013D01*
X177174035Y-114424464D01*
X177299464Y-114299035D01*
X177398013Y-114151547D01*
X177465894Y-113987666D01*
X177500500Y-113813691D01*
X177500500Y-113086309D01*
X177498250Y-113075000D01*
X177486489Y-113015871D01*
X177465894Y-112912334D01*
X177398013Y-112748453D01*
X177330943Y-112648077D01*
X177299466Y-112600968D01*
X177299462Y-112600963D01*
X177174036Y-112475537D01*
X177174031Y-112475533D01*
X177026548Y-112376987D01*
X177026546Y-112376986D01*
X176862667Y-112309106D01*
X176862663Y-112309105D01*
X176688691Y-112274500D01*
X176511309Y-112274500D01*
X176337336Y-112309105D01*
X176337332Y-112309106D01*
X176173453Y-112376986D01*
X176173451Y-112376987D01*
X176025968Y-112475533D01*
X176025963Y-112475537D01*
X175900537Y-112600963D01*
X175900533Y-112600968D01*
X175801987Y-112748451D01*
X175801986Y-112748454D01*
X175737658Y-112903758D01*
X175690706Y-112964948D01*
X175619449Y-112994464D01*
X175542981Y-112984397D01*
X175481791Y-112937445D01*
X175462342Y-112903758D01*
X175409013Y-112775010D01*
X175398013Y-112748453D01*
X175330943Y-112648077D01*
X175299466Y-112600968D01*
X175299462Y-112600963D01*
X175174036Y-112475537D01*
X175174031Y-112475533D01*
X175026548Y-112376987D01*
X175026546Y-112376986D01*
X174862667Y-112309106D01*
X174862663Y-112309105D01*
X174688691Y-112274500D01*
X174511309Y-112274500D01*
X174337336Y-112309105D01*
X174337332Y-112309106D01*
X174173453Y-112376986D01*
X174173451Y-112376987D01*
X174025968Y-112475533D01*
X174025963Y-112475537D01*
X173895360Y-112606141D01*
X173893244Y-112604025D01*
X173842051Y-112640614D01*
X173765285Y-112648077D01*
X173695072Y-112616158D01*
X173650225Y-112553408D01*
X173648304Y-112547965D01*
X173634358Y-112505880D01*
X173634358Y-112505879D01*
X173542319Y-112356659D01*
X173418340Y-112232680D01*
X173269121Y-112140642D01*
X173102697Y-112085494D01*
X173102688Y-112085492D01*
X172999989Y-112075000D01*
X172850000Y-112075000D01*
X172850000Y-113169670D01*
X172830255Y-113149925D01*
X172744745Y-113100556D01*
X172649370Y-113075000D01*
X172550630Y-113075000D01*
X172455255Y-113100556D01*
X172369745Y-113149925D01*
X172350000Y-113169670D01*
X172350000Y-112075000D01*
X172200026Y-112075000D01*
X172097303Y-112085494D01*
X171930878Y-112140642D01*
X171781659Y-112232680D01*
X171657680Y-112356659D01*
X171565642Y-112505878D01*
X171510494Y-112672302D01*
X171510492Y-112672311D01*
X171500000Y-112775010D01*
X168409013Y-112775010D01*
X168398013Y-112748453D01*
X168330943Y-112648077D01*
X168299466Y-112600968D01*
X168299462Y-112600963D01*
X168174036Y-112475537D01*
X168174031Y-112475533D01*
X168026548Y-112376987D01*
X168026546Y-112376986D01*
X167862667Y-112309106D01*
X167862663Y-112309105D01*
X167688691Y-112274500D01*
X167511309Y-112274500D01*
X167337336Y-112309105D01*
X167337332Y-112309106D01*
X167173453Y-112376986D01*
X167173451Y-112376987D01*
X167025968Y-112475533D01*
X167025963Y-112475537D01*
X166900537Y-112600963D01*
X166900533Y-112600968D01*
X166801987Y-112748451D01*
X166801986Y-112748454D01*
X166737658Y-112903758D01*
X166690706Y-112964948D01*
X166619449Y-112994464D01*
X166542981Y-112984397D01*
X166481791Y-112937445D01*
X166462342Y-112903758D01*
X166409013Y-112775010D01*
X166398013Y-112748453D01*
X166330943Y-112648077D01*
X166299466Y-112600968D01*
X166299462Y-112600963D01*
X166174036Y-112475537D01*
X166174031Y-112475533D01*
X166026548Y-112376987D01*
X166026546Y-112376986D01*
X165862667Y-112309106D01*
X165862663Y-112309105D01*
X165688691Y-112274500D01*
X165511309Y-112274500D01*
X165337336Y-112309105D01*
X165337332Y-112309106D01*
X165173453Y-112376986D01*
X165173451Y-112376987D01*
X165025968Y-112475533D01*
X165025963Y-112475537D01*
X164895360Y-112606141D01*
X164893244Y-112604025D01*
X164842051Y-112640614D01*
X164765285Y-112648077D01*
X164695072Y-112616158D01*
X164650225Y-112553408D01*
X164648304Y-112547965D01*
X164634358Y-112505880D01*
X164634358Y-112505879D01*
X164542319Y-112356659D01*
X164418340Y-112232680D01*
X164269121Y-112140642D01*
X164102697Y-112085494D01*
X164102688Y-112085492D01*
X163999989Y-112075000D01*
X163850000Y-112075000D01*
X163850000Y-113169670D01*
X163830255Y-113149925D01*
X163744745Y-113100556D01*
X163649370Y-113075000D01*
X163550630Y-113075000D01*
X163455255Y-113100556D01*
X163369745Y-113149925D01*
X163350000Y-113169670D01*
X163350000Y-112075000D01*
X163200026Y-112075000D01*
X163097303Y-112085494D01*
X162930878Y-112140642D01*
X162781659Y-112232680D01*
X162657680Y-112356659D01*
X162565642Y-112505878D01*
X162510494Y-112672302D01*
X162510492Y-112672311D01*
X162500000Y-112775010D01*
X128691381Y-112775010D01*
X129587232Y-111879158D01*
X129654025Y-111840596D01*
X129731153Y-111840596D01*
X129797948Y-111879160D01*
X129836512Y-111945955D01*
X129837052Y-111948672D01*
X129839219Y-111956756D01*
X129899728Y-112102840D01*
X129943153Y-112159432D01*
X129995983Y-112228282D01*
X130121424Y-112324536D01*
X130267503Y-112385044D01*
X130267506Y-112385044D01*
X130267508Y-112385045D01*
X130267505Y-112385045D01*
X130424262Y-112405682D01*
X130424265Y-112405682D01*
X130424268Y-112405682D01*
X130581022Y-112385045D01*
X130581023Y-112385044D01*
X130581027Y-112385044D01*
X130727106Y-112324536D01*
X130852547Y-112228282D01*
X130948801Y-112102841D01*
X131009309Y-111956762D01*
X131025400Y-111834536D01*
X131054915Y-111763280D01*
X131067758Y-111748633D01*
X133168990Y-109647401D01*
X133235783Y-109608839D01*
X133254899Y-109605037D01*
X133406757Y-109585045D01*
X133406758Y-109585044D01*
X133406762Y-109585044D01*
X133552841Y-109524536D01*
X133678282Y-109428282D01*
X133774536Y-109302841D01*
X133835044Y-109156762D01*
X133836825Y-109143238D01*
X133855682Y-109000002D01*
X133855682Y-108999997D01*
X133835045Y-108843242D01*
X133835044Y-108843240D01*
X133835044Y-108843238D01*
X133774536Y-108697159D01*
X133678282Y-108571718D01*
X133586835Y-108501548D01*
X133552840Y-108475463D01*
X133472944Y-108442369D01*
X133406762Y-108414956D01*
X133406760Y-108414955D01*
X133406756Y-108414954D01*
X133406759Y-108414954D01*
X133250003Y-108394318D01*
X133249997Y-108394318D01*
X133093242Y-108414954D01*
X132947159Y-108475463D01*
X132821718Y-108571717D01*
X132821717Y-108571718D01*
X132725463Y-108697159D01*
X132664954Y-108843241D01*
X132644962Y-108995099D01*
X132615446Y-109066356D01*
X132602596Y-109081009D01*
X132517507Y-109166098D01*
X132450712Y-109204662D01*
X132373584Y-109204662D01*
X132306789Y-109166098D01*
X132274490Y-109117759D01*
X132268310Y-109102840D01*
X132224536Y-108997159D01*
X132128282Y-108871718D01*
X132091172Y-108843242D01*
X132002840Y-108775463D01*
X131922944Y-108742369D01*
X131856762Y-108714956D01*
X131856760Y-108714955D01*
X131856756Y-108714954D01*
X131856759Y-108714954D01*
X131700003Y-108694318D01*
X131699997Y-108694318D01*
X131543242Y-108714954D01*
X131397159Y-108775463D01*
X131271718Y-108871717D01*
X131271717Y-108871718D01*
X131175463Y-108997159D01*
X131114956Y-109143237D01*
X131110124Y-109179940D01*
X131080607Y-109251196D01*
X131067758Y-109265848D01*
X127377748Y-112955859D01*
X127310953Y-112994423D01*
X127272389Y-112999500D01*
X126307493Y-112999500D01*
X126232993Y-112979538D01*
X126178455Y-112925000D01*
X126158493Y-112850500D01*
X126169834Y-112793482D01*
X126177485Y-112775010D01*
X126185044Y-112756762D01*
X126196164Y-112672302D01*
X126205682Y-112600002D01*
X126205682Y-112599997D01*
X126185045Y-112443242D01*
X126185044Y-112443240D01*
X126185044Y-112443238D01*
X126124536Y-112297159D01*
X126071685Y-112228282D01*
X126031290Y-112175637D01*
X126001775Y-112104379D01*
X126000500Y-112084932D01*
X126000500Y-106509008D01*
X126020462Y-106434508D01*
X126049118Y-106398896D01*
X126086764Y-106364579D01*
X126209673Y-106201821D01*
X126300582Y-106019250D01*
X126356397Y-105823083D01*
X126366851Y-105710259D01*
X126375215Y-105620004D01*
X126375215Y-105619995D01*
X126360878Y-105465281D01*
X126356397Y-105416917D01*
X126300582Y-105220750D01*
X126209673Y-105038179D01*
X126086764Y-104875421D01*
X125936041Y-104738019D01*
X125936036Y-104738015D01*
X125826583Y-104670245D01*
X125773750Y-104614054D01*
X125756092Y-104538975D01*
X125778339Y-104465125D01*
X125786794Y-104452881D01*
X125827354Y-104400023D01*
X125871900Y-104292480D01*
X125918853Y-104231290D01*
X125990110Y-104201775D01*
X126009558Y-104200500D01*
X127701679Y-104200500D01*
X127776179Y-104220462D01*
X127807038Y-104244141D01*
X127828038Y-104265141D01*
X127866602Y-104331936D01*
X127866602Y-104409064D01*
X127828038Y-104475859D01*
X127761243Y-104514423D01*
X127722679Y-104519500D01*
X127708019Y-104519500D01*
X127507544Y-104556976D01*
X127507537Y-104556978D01*
X127317367Y-104630649D01*
X127317356Y-104630655D01*
X127143963Y-104738015D01*
X127143958Y-104738019D01*
X127100605Y-104777541D01*
X127007713Y-104862224D01*
X126993234Y-104875423D01*
X126870328Y-105038176D01*
X126779416Y-105220754D01*
X126723602Y-105416921D01*
X126704785Y-105619995D01*
X126704785Y-105620004D01*
X126723602Y-105823078D01*
X126723602Y-105823080D01*
X126723603Y-105823083D01*
X126730296Y-105846606D01*
X126779416Y-106019245D01*
X126779417Y-106019247D01*
X126779418Y-106019250D01*
X126839298Y-106139505D01*
X126870328Y-106201823D01*
X126923688Y-106272483D01*
X126993236Y-106364579D01*
X127094464Y-106456860D01*
X127143958Y-106501980D01*
X127143963Y-106501984D01*
X127317356Y-106609344D01*
X127317367Y-106609350D01*
X127433332Y-106654274D01*
X127507544Y-106683024D01*
X127708024Y-106720500D01*
X127708027Y-106720500D01*
X127911973Y-106720500D01*
X127911976Y-106720500D01*
X128112456Y-106683024D01*
X128302637Y-106609348D01*
X128476041Y-106501981D01*
X128507668Y-106473148D01*
X128576170Y-106437711D01*
X128653216Y-106441272D01*
X128718159Y-106482879D01*
X128737084Y-106508757D01*
X128739508Y-106512956D01*
X128739509Y-106512957D01*
X128739511Y-106512960D01*
X129987040Y-107760489D01*
X130046350Y-107794731D01*
X130089768Y-107819799D01*
X130204345Y-107850500D01*
X133401679Y-107850500D01*
X133476179Y-107870462D01*
X133507038Y-107894141D01*
X136277807Y-110664910D01*
X136316371Y-110731705D01*
X136320173Y-110750820D01*
X136320954Y-110756758D01*
X136381463Y-110902840D01*
X136381464Y-110902841D01*
X136477718Y-111028282D01*
X136603159Y-111124536D01*
X136749238Y-111185044D01*
X136749241Y-111185044D01*
X136749243Y-111185045D01*
X136749240Y-111185045D01*
X136905997Y-111205682D01*
X136906000Y-111205682D01*
X136906003Y-111205682D01*
X137062757Y-111185045D01*
X137062758Y-111185044D01*
X137062762Y-111185044D01*
X137208841Y-111124536D01*
X137334282Y-111028282D01*
X137430536Y-110902841D01*
X137491044Y-110756762D01*
X137497435Y-110708210D01*
X137526948Y-110636957D01*
X137539793Y-110622308D01*
X138570457Y-109591644D01*
X138618792Y-109559349D01*
X138702841Y-109524536D01*
X138828282Y-109428282D01*
X138924536Y-109302841D01*
X138985044Y-109156762D01*
X138986825Y-109143238D01*
X139005682Y-109000002D01*
X139005682Y-108999997D01*
X138985045Y-108843242D01*
X138985044Y-108843240D01*
X138985044Y-108843238D01*
X138924536Y-108697159D01*
X138828282Y-108571718D01*
X138736835Y-108501548D01*
X138702840Y-108475463D01*
X138622944Y-108442369D01*
X138556762Y-108414956D01*
X138556760Y-108414955D01*
X138556756Y-108414954D01*
X138556759Y-108414954D01*
X138400003Y-108394318D01*
X138399997Y-108394318D01*
X138243242Y-108414954D01*
X138097159Y-108475463D01*
X137971718Y-108571717D01*
X137971717Y-108571718D01*
X137875462Y-108697160D01*
X137873273Y-108702447D01*
X137826318Y-108763635D01*
X137755059Y-108793148D01*
X137678592Y-108783078D01*
X137617404Y-108736123D01*
X137587891Y-108664867D01*
X137585806Y-108649031D01*
X137585044Y-108643238D01*
X137524536Y-108497159D01*
X137428282Y-108371718D01*
X137383905Y-108337666D01*
X137302840Y-108275463D01*
X137200524Y-108233083D01*
X137156762Y-108214956D01*
X137156760Y-108214955D01*
X137156756Y-108214954D01*
X137156759Y-108214954D01*
X137000003Y-108194318D01*
X136999996Y-108194318D01*
X136861396Y-108212564D01*
X136784928Y-108202497D01*
X136736590Y-108170198D01*
X135525372Y-106958979D01*
X135486808Y-106892184D01*
X135486808Y-106815056D01*
X135525372Y-106748261D01*
X135592167Y-106709697D01*
X135603343Y-106707159D01*
X135732456Y-106683024D01*
X135922637Y-106609348D01*
X136096041Y-106501981D01*
X136246764Y-106364579D01*
X136369673Y-106201821D01*
X136460582Y-106019250D01*
X136516397Y-105823083D01*
X136526851Y-105710259D01*
X136535215Y-105620004D01*
X136535215Y-105619995D01*
X136864785Y-105619995D01*
X136864785Y-105620004D01*
X136883602Y-105823078D01*
X136883602Y-105823080D01*
X136883603Y-105823083D01*
X136890296Y-105846606D01*
X136939416Y-106019245D01*
X136939417Y-106019247D01*
X136939418Y-106019250D01*
X136999298Y-106139505D01*
X137030328Y-106201823D01*
X137083688Y-106272483D01*
X137153236Y-106364579D01*
X137254464Y-106456860D01*
X137303958Y-106501980D01*
X137303963Y-106501984D01*
X137477356Y-106609344D01*
X137477367Y-106609350D01*
X137593332Y-106654274D01*
X137667544Y-106683024D01*
X137868024Y-106720500D01*
X137868027Y-106720500D01*
X138071973Y-106720500D01*
X138071976Y-106720500D01*
X138272456Y-106683024D01*
X138462637Y-106609348D01*
X138636041Y-106501981D01*
X138786764Y-106364579D01*
X138909673Y-106201821D01*
X139000582Y-106019250D01*
X139056397Y-105823083D01*
X139066851Y-105710259D01*
X139075215Y-105620004D01*
X139075215Y-105619995D01*
X139404785Y-105619995D01*
X139404785Y-105620004D01*
X139423602Y-105823078D01*
X139423602Y-105823080D01*
X139423603Y-105823083D01*
X139430296Y-105846606D01*
X139479416Y-106019245D01*
X139479417Y-106019247D01*
X139479418Y-106019250D01*
X139539298Y-106139505D01*
X139570328Y-106201823D01*
X139623688Y-106272483D01*
X139693236Y-106364579D01*
X139794464Y-106456860D01*
X139843958Y-106501980D01*
X139843963Y-106501984D01*
X140017356Y-106609344D01*
X140017367Y-106609350D01*
X140133332Y-106654274D01*
X140207544Y-106683024D01*
X140408024Y-106720500D01*
X140408027Y-106720500D01*
X140611973Y-106720500D01*
X140611976Y-106720500D01*
X140812456Y-106683024D01*
X141002637Y-106609348D01*
X141176041Y-106501981D01*
X141326764Y-106364579D01*
X141449673Y-106201821D01*
X141540582Y-106019250D01*
X141596397Y-105823083D01*
X141606851Y-105710259D01*
X141615215Y-105620004D01*
X141615215Y-105619995D01*
X141600878Y-105465281D01*
X141596397Y-105416917D01*
X141540582Y-105220750D01*
X141449673Y-105038179D01*
X141326764Y-104875421D01*
X141176041Y-104738019D01*
X141176036Y-104738015D01*
X141002643Y-104630655D01*
X141002632Y-104630649D01*
X140812462Y-104556978D01*
X140812458Y-104556977D01*
X140812456Y-104556976D01*
X140772360Y-104549480D01*
X140611980Y-104519500D01*
X140611976Y-104519500D01*
X140408024Y-104519500D01*
X140408019Y-104519500D01*
X140207544Y-104556976D01*
X140207537Y-104556978D01*
X140017367Y-104630649D01*
X140017356Y-104630655D01*
X139843963Y-104738015D01*
X139843958Y-104738019D01*
X139800605Y-104777541D01*
X139707713Y-104862224D01*
X139693234Y-104875423D01*
X139570328Y-105038176D01*
X139479416Y-105220754D01*
X139423602Y-105416921D01*
X139404785Y-105619995D01*
X139075215Y-105619995D01*
X139060878Y-105465281D01*
X139056397Y-105416917D01*
X139000582Y-105220750D01*
X138909673Y-105038179D01*
X138786764Y-104875421D01*
X138636041Y-104738019D01*
X138636036Y-104738015D01*
X138462643Y-104630655D01*
X138462632Y-104630649D01*
X138272462Y-104556978D01*
X138272458Y-104556977D01*
X138272456Y-104556976D01*
X138232360Y-104549480D01*
X138071980Y-104519500D01*
X138071976Y-104519500D01*
X137868024Y-104519500D01*
X137868019Y-104519500D01*
X137667544Y-104556976D01*
X137667537Y-104556978D01*
X137477367Y-104630649D01*
X137477356Y-104630655D01*
X137303963Y-104738015D01*
X137303958Y-104738019D01*
X137260605Y-104777541D01*
X137167713Y-104862224D01*
X137153234Y-104875423D01*
X137030328Y-105038176D01*
X136939416Y-105220754D01*
X136883602Y-105416921D01*
X136864785Y-105619995D01*
X136535215Y-105619995D01*
X136520878Y-105465281D01*
X136516397Y-105416917D01*
X136460582Y-105220750D01*
X136369673Y-105038179D01*
X136246764Y-104875421D01*
X136096041Y-104738019D01*
X136096036Y-104738015D01*
X135922643Y-104630655D01*
X135922632Y-104630649D01*
X135732462Y-104556978D01*
X135732458Y-104556977D01*
X135732456Y-104556976D01*
X135692360Y-104549480D01*
X135531980Y-104519500D01*
X135531976Y-104519500D01*
X135328024Y-104519500D01*
X135328019Y-104519500D01*
X135127544Y-104556976D01*
X135127537Y-104556978D01*
X134937367Y-104630649D01*
X134937356Y-104630655D01*
X134763964Y-104738015D01*
X134763957Y-104738020D01*
X134759473Y-104742108D01*
X134690966Y-104777541D01*
X134613920Y-104773974D01*
X134553742Y-104737349D01*
X133770136Y-103953743D01*
X133731574Y-103886951D01*
X133731574Y-103809823D01*
X133756592Y-103758595D01*
X133829673Y-103661821D01*
X133920582Y-103479250D01*
X133976397Y-103283083D01*
X133988540Y-103152034D01*
X133995215Y-103080004D01*
X133995215Y-103079995D01*
X133976397Y-102876921D01*
X133976397Y-102876917D01*
X133920582Y-102680750D01*
X133829673Y-102498179D01*
X133747445Y-102389292D01*
X133718479Y-102317811D01*
X133729135Y-102241422D01*
X133776557Y-102180596D01*
X133848039Y-102151629D01*
X133866350Y-102150500D01*
X134453650Y-102150500D01*
X134528150Y-102170462D01*
X134582688Y-102225000D01*
X134602650Y-102299500D01*
X134582688Y-102374000D01*
X134572554Y-102389293D01*
X134490329Y-102498175D01*
X134399416Y-102680754D01*
X134343602Y-102876921D01*
X134324785Y-103079995D01*
X134324785Y-103080004D01*
X134343602Y-103283078D01*
X134343602Y-103283080D01*
X134343603Y-103283083D01*
X134357010Y-103330202D01*
X134399416Y-103479245D01*
X134399417Y-103479247D01*
X134399418Y-103479250D01*
X134463880Y-103608707D01*
X134490328Y-103661823D01*
X134526463Y-103709673D01*
X134613236Y-103824579D01*
X134725976Y-103927355D01*
X134763958Y-103961980D01*
X134763963Y-103961984D01*
X134937356Y-104069344D01*
X134937367Y-104069350D01*
X135053332Y-104114274D01*
X135127544Y-104143024D01*
X135328024Y-104180500D01*
X135328027Y-104180500D01*
X135531973Y-104180500D01*
X135531976Y-104180500D01*
X135732456Y-104143024D01*
X135922637Y-104069348D01*
X136096041Y-103961981D01*
X136246764Y-103824579D01*
X136369673Y-103661821D01*
X136460582Y-103479250D01*
X136516397Y-103283083D01*
X136528540Y-103152034D01*
X136535215Y-103080004D01*
X136535215Y-103079995D01*
X139404785Y-103079995D01*
X139404785Y-103080004D01*
X139423602Y-103283078D01*
X139423602Y-103283080D01*
X139423603Y-103283083D01*
X139437010Y-103330202D01*
X139479416Y-103479245D01*
X139479417Y-103479247D01*
X139479418Y-103479250D01*
X139543880Y-103608707D01*
X139570328Y-103661823D01*
X139606463Y-103709673D01*
X139693236Y-103824579D01*
X139805976Y-103927355D01*
X139843958Y-103961980D01*
X139843963Y-103961984D01*
X140017356Y-104069344D01*
X140017367Y-104069350D01*
X140133332Y-104114274D01*
X140207544Y-104143024D01*
X140408024Y-104180500D01*
X140408027Y-104180500D01*
X140611973Y-104180500D01*
X140611976Y-104180500D01*
X140812456Y-104143024D01*
X141002637Y-104069348D01*
X141176041Y-103961981D01*
X141326764Y-103824579D01*
X141449673Y-103661821D01*
X141540582Y-103479250D01*
X141596397Y-103283083D01*
X141608540Y-103152034D01*
X141615215Y-103080004D01*
X141615215Y-103079995D01*
X141596397Y-102876921D01*
X141596397Y-102876917D01*
X141540582Y-102680750D01*
X141449673Y-102498179D01*
X141436137Y-102480255D01*
X141355897Y-102374000D01*
X141326764Y-102335421D01*
X141176041Y-102198019D01*
X141176036Y-102198015D01*
X141002643Y-102090655D01*
X141002632Y-102090649D01*
X140812462Y-102016978D01*
X140812458Y-102016977D01*
X140812456Y-102016976D01*
X140772360Y-102009480D01*
X140611980Y-101979500D01*
X140611976Y-101979500D01*
X140408024Y-101979500D01*
X140408019Y-101979500D01*
X140207544Y-102016976D01*
X140207537Y-102016978D01*
X140017367Y-102090649D01*
X140017356Y-102090655D01*
X139843963Y-102198015D01*
X139843958Y-102198019D01*
X139729886Y-102302010D01*
X139713812Y-102316664D01*
X139693234Y-102335423D01*
X139570328Y-102498176D01*
X139479416Y-102680754D01*
X139423602Y-102876921D01*
X139404785Y-103079995D01*
X136535215Y-103079995D01*
X136516397Y-102876921D01*
X136516397Y-102876917D01*
X136460582Y-102680750D01*
X136369673Y-102498179D01*
X136356137Y-102480255D01*
X136246765Y-102335422D01*
X136227447Y-102317811D01*
X136224045Y-102314710D01*
X136182439Y-102249768D01*
X136178878Y-102172722D01*
X136214317Y-102104218D01*
X136249932Y-102075560D01*
X136258731Y-102070480D01*
X139320480Y-99008731D01*
X139373207Y-98917406D01*
X139400500Y-98815545D01*
X139400500Y-98815539D01*
X139401774Y-98805865D01*
X139403596Y-98806104D01*
X139420462Y-98743163D01*
X139444141Y-98712304D01*
X139986211Y-98170232D01*
X139997482Y-98212292D01*
X140069890Y-98337708D01*
X140172292Y-98440110D01*
X140297708Y-98512518D01*
X140339765Y-98523787D01*
X139784526Y-99079025D01*
X139857509Y-99130129D01*
X139857515Y-99130132D01*
X140063674Y-99226266D01*
X140063681Y-99226268D01*
X140090636Y-99233491D01*
X140157431Y-99272054D01*
X140195996Y-99338848D01*
X140195997Y-99415976D01*
X140157434Y-99482771D01*
X140105900Y-99516352D01*
X140017364Y-99550651D01*
X140017356Y-99550655D01*
X139843963Y-99658015D01*
X139843958Y-99658019D01*
X139693234Y-99795423D01*
X139570328Y-99958176D01*
X139479416Y-100140754D01*
X139423602Y-100336921D01*
X139404785Y-100539995D01*
X139404785Y-100540004D01*
X139423602Y-100743078D01*
X139423602Y-100743080D01*
X139423603Y-100743083D01*
X139441414Y-100805682D01*
X139479416Y-100939245D01*
X139479417Y-100939247D01*
X139479418Y-100939250D01*
X139546764Y-101074500D01*
X139570328Y-101121823D01*
X139651174Y-101228880D01*
X139693236Y-101284579D01*
X139843958Y-101421980D01*
X139843963Y-101421984D01*
X140017356Y-101529344D01*
X140017367Y-101529350D01*
X140086400Y-101556093D01*
X140207544Y-101603024D01*
X140408024Y-101640500D01*
X140408027Y-101640500D01*
X140611973Y-101640500D01*
X140611976Y-101640500D01*
X140812456Y-101603024D01*
X141002637Y-101529348D01*
X141176041Y-101421981D01*
X141326764Y-101284579D01*
X141449673Y-101121821D01*
X141540582Y-100939250D01*
X141596397Y-100743083D01*
X141615215Y-100540000D01*
X141596397Y-100336917D01*
X141540582Y-100140750D01*
X141449673Y-99958179D01*
X141326764Y-99795421D01*
X141176041Y-99658019D01*
X141176036Y-99658015D01*
X141002643Y-99550655D01*
X141002631Y-99550649D01*
X140914100Y-99516352D01*
X140851842Y-99470825D01*
X140820688Y-99400269D01*
X140828987Y-99323589D01*
X140874514Y-99261331D01*
X140929364Y-99233490D01*
X140956326Y-99226266D01*
X141162478Y-99130136D01*
X141162484Y-99130132D01*
X141235471Y-99079024D01*
X140680234Y-98523787D01*
X140722292Y-98512518D01*
X140847708Y-98440110D01*
X140950110Y-98337708D01*
X141022518Y-98212292D01*
X141033787Y-98170234D01*
X141589024Y-98725471D01*
X141640132Y-98652484D01*
X141640136Y-98652478D01*
X141736266Y-98446325D01*
X141736267Y-98446323D01*
X141795140Y-98226606D01*
X141814965Y-98000000D01*
X141795140Y-97773393D01*
X141736267Y-97553676D01*
X141736266Y-97553674D01*
X141640132Y-97347515D01*
X141640129Y-97347509D01*
X141589025Y-97274526D01*
X141033787Y-97829764D01*
X141022518Y-97787708D01*
X140950110Y-97662292D01*
X140847708Y-97559890D01*
X140722292Y-97487482D01*
X140680232Y-97476212D01*
X141235472Y-96920973D01*
X141162492Y-96869872D01*
X141162483Y-96869866D01*
X140956325Y-96773733D01*
X140929360Y-96766508D01*
X140862565Y-96727943D01*
X140824002Y-96661148D01*
X140824002Y-96584020D01*
X140862567Y-96517225D01*
X140914098Y-96483647D01*
X141002637Y-96449348D01*
X141176041Y-96341981D01*
X141326764Y-96204579D01*
X141330224Y-96199997D01*
X142794318Y-96199997D01*
X142794318Y-96200002D01*
X142814954Y-96356757D01*
X142875463Y-96502840D01*
X142949809Y-96599729D01*
X142971718Y-96628282D01*
X143097159Y-96724536D01*
X143243238Y-96785044D01*
X143243241Y-96785044D01*
X143243243Y-96785045D01*
X143243240Y-96785045D01*
X143399997Y-96805682D01*
X143400000Y-96805682D01*
X143400003Y-96805682D01*
X143556757Y-96785045D01*
X143556758Y-96785044D01*
X143556762Y-96785044D01*
X143702841Y-96724536D01*
X143828282Y-96628282D01*
X143924536Y-96502841D01*
X143985044Y-96356762D01*
X143994320Y-96286309D01*
X144005682Y-96200002D01*
X144005682Y-96199997D01*
X143985045Y-96043242D01*
X143985044Y-96043240D01*
X143985044Y-96043238D01*
X143924536Y-95897159D01*
X143895444Y-95859245D01*
X143881290Y-95840799D01*
X143851775Y-95769541D01*
X143850500Y-95750094D01*
X143850500Y-92648321D01*
X143870462Y-92573821D01*
X143894141Y-92542962D01*
X144296210Y-92140893D01*
X144700422Y-91736680D01*
X144767215Y-91698118D01*
X144786318Y-91694317D01*
X144856762Y-91685044D01*
X145002841Y-91624536D01*
X145128282Y-91528282D01*
X145224536Y-91402841D01*
X145285044Y-91256762D01*
X145285331Y-91254588D01*
X145305682Y-91100002D01*
X145305682Y-91099997D01*
X145285045Y-90943242D01*
X145285044Y-90943240D01*
X145285044Y-90943238D01*
X145224536Y-90797159D01*
X145128282Y-90671718D01*
X145027603Y-90594464D01*
X145002840Y-90575463D01*
X144911055Y-90537445D01*
X144856762Y-90514956D01*
X144856760Y-90514955D01*
X144856756Y-90514954D01*
X144856759Y-90514954D01*
X144700003Y-90494318D01*
X144699997Y-90494318D01*
X144543242Y-90514954D01*
X144397159Y-90575463D01*
X144271718Y-90671717D01*
X144271717Y-90671718D01*
X144175463Y-90797159D01*
X144114956Y-90943237D01*
X144105683Y-91013668D01*
X144076166Y-91084925D01*
X144063317Y-91099577D01*
X143039509Y-92123388D01*
X143039508Y-92123389D01*
X142980201Y-92226111D01*
X142980202Y-92226111D01*
X142980201Y-92226115D01*
X142949500Y-92340689D01*
X142949500Y-95750094D01*
X142929538Y-95824594D01*
X142918710Y-95840799D01*
X142875463Y-95897159D01*
X142814954Y-96043242D01*
X142794318Y-96199997D01*
X141330224Y-96199997D01*
X141449673Y-96041821D01*
X141540582Y-95859250D01*
X141596397Y-95663083D01*
X141610665Y-95509105D01*
X141615215Y-95460004D01*
X141615215Y-95459995D01*
X141599045Y-95285492D01*
X141596397Y-95256917D01*
X141540582Y-95060750D01*
X141449673Y-94878179D01*
X141326764Y-94715421D01*
X141176041Y-94578019D01*
X141176036Y-94578015D01*
X141002643Y-94470655D01*
X141002632Y-94470649D01*
X140812462Y-94396978D01*
X140812458Y-94396977D01*
X140812456Y-94396976D01*
X140772360Y-94389480D01*
X140611980Y-94359500D01*
X140611976Y-94359500D01*
X140408024Y-94359500D01*
X140408019Y-94359500D01*
X140207544Y-94396976D01*
X140207537Y-94396978D01*
X140017367Y-94470649D01*
X140017356Y-94470655D01*
X139843963Y-94578015D01*
X139843958Y-94578019D01*
X139693235Y-94715422D01*
X139668404Y-94748304D01*
X139607577Y-94795725D01*
X139531188Y-94806380D01*
X139459706Y-94777414D01*
X139412285Y-94716587D01*
X139400500Y-94658510D01*
X139400500Y-93721489D01*
X139420462Y-93646989D01*
X139475000Y-93592451D01*
X139549500Y-93572489D01*
X139624000Y-93592451D01*
X139668404Y-93631696D01*
X139693236Y-93664579D01*
X139843958Y-93801980D01*
X139843963Y-93801984D01*
X140017356Y-93909344D01*
X140017367Y-93909350D01*
X140133332Y-93954274D01*
X140207544Y-93983024D01*
X140408024Y-94020500D01*
X140408027Y-94020500D01*
X140611973Y-94020500D01*
X140611976Y-94020500D01*
X140812456Y-93983024D01*
X141002637Y-93909348D01*
X141176041Y-93801981D01*
X141326764Y-93664579D01*
X141449673Y-93501821D01*
X141540582Y-93319250D01*
X141596397Y-93123083D01*
X141615215Y-92920000D01*
X141596397Y-92716917D01*
X141540582Y-92520750D01*
X141449673Y-92338179D01*
X141326764Y-92175421D01*
X141176041Y-92038019D01*
X141176036Y-92038015D01*
X141002643Y-91930655D01*
X141002632Y-91930649D01*
X140812462Y-91856978D01*
X140812458Y-91856977D01*
X140812456Y-91856976D01*
X140749535Y-91845214D01*
X140611980Y-91819500D01*
X140611976Y-91819500D01*
X140408024Y-91819500D01*
X140408019Y-91819500D01*
X140207544Y-91856976D01*
X140207537Y-91856978D01*
X140017367Y-91930649D01*
X140017356Y-91930655D01*
X139843963Y-92038015D01*
X139843958Y-92038019D01*
X139794460Y-92083143D01*
X139725955Y-92118581D01*
X139648910Y-92115018D01*
X139583967Y-92073410D01*
X139548529Y-92004905D01*
X139552092Y-91927860D01*
X139588719Y-91867672D01*
X139998937Y-91457454D01*
X140065730Y-91418892D01*
X140142858Y-91418892D01*
X140158121Y-91423877D01*
X140207544Y-91443024D01*
X140408024Y-91480500D01*
X140408027Y-91480500D01*
X140611973Y-91480500D01*
X140611976Y-91480500D01*
X140812456Y-91443024D01*
X140988047Y-91375000D01*
X141002632Y-91369350D01*
X141002632Y-91369349D01*
X141002637Y-91369348D01*
X141176041Y-91261981D01*
X141326764Y-91124579D01*
X141449673Y-90961821D01*
X141540582Y-90779250D01*
X141596397Y-90583083D01*
X141607586Y-90462332D01*
X141615215Y-90380004D01*
X141615215Y-90379995D01*
X141598909Y-90204025D01*
X141596397Y-90176917D01*
X141540582Y-89980750D01*
X141449673Y-89798179D01*
X141405204Y-89739292D01*
X141376238Y-89667810D01*
X141386894Y-89591421D01*
X141434317Y-89530595D01*
X141505799Y-89501629D01*
X141524109Y-89500500D01*
X144672389Y-89500500D01*
X144746889Y-89520462D01*
X144777748Y-89544141D01*
X149352596Y-94118989D01*
X149391160Y-94185784D01*
X149394962Y-94204899D01*
X149414954Y-94356758D01*
X149475463Y-94502840D01*
X149518793Y-94559308D01*
X149571718Y-94628282D01*
X149697159Y-94724536D01*
X149843238Y-94785044D01*
X149843241Y-94785044D01*
X149843243Y-94785045D01*
X149843240Y-94785045D01*
X149999997Y-94805682D01*
X150000000Y-94805682D01*
X150000003Y-94805682D01*
X150156757Y-94785045D01*
X150156758Y-94785044D01*
X150156762Y-94785044D01*
X150302841Y-94724536D01*
X150428282Y-94628282D01*
X150524536Y-94502841D01*
X150585044Y-94356762D01*
X150587188Y-94340481D01*
X150605682Y-94200002D01*
X150605682Y-94199997D01*
X150585045Y-94043242D01*
X150585044Y-94043240D01*
X150585044Y-94043238D01*
X150524536Y-93897159D01*
X150456666Y-93808708D01*
X150427151Y-93737450D01*
X150437218Y-93660982D01*
X150484171Y-93599793D01*
X150555429Y-93570278D01*
X150631892Y-93580344D01*
X150643238Y-93585044D01*
X150643240Y-93585044D01*
X150643242Y-93585045D01*
X150799997Y-93605682D01*
X150800000Y-93605682D01*
X150800003Y-93605682D01*
X150956757Y-93585045D01*
X150956758Y-93585044D01*
X150956762Y-93585044D01*
X151102841Y-93524536D01*
X151228282Y-93428282D01*
X151282290Y-93357896D01*
X151343480Y-93310944D01*
X151419948Y-93300877D01*
X151491205Y-93330392D01*
X151538158Y-93391582D01*
X151549500Y-93448602D01*
X151549500Y-94251678D01*
X151529538Y-94326178D01*
X151505859Y-94357037D01*
X143689509Y-102173388D01*
X143689508Y-102173389D01*
X143630201Y-102276111D01*
X143630202Y-102276111D01*
X143630201Y-102276115D01*
X143599500Y-102390689D01*
X143599500Y-107001678D01*
X143579538Y-107076178D01*
X143555859Y-107107037D01*
X140937042Y-109725853D01*
X140876976Y-109760534D01*
X140877260Y-109761219D01*
X140872060Y-109763372D01*
X140870257Y-109764414D01*
X140868244Y-109764953D01*
X140722159Y-109825463D01*
X140596718Y-109921717D01*
X140596717Y-109921718D01*
X140500463Y-110047159D01*
X140439954Y-110193242D01*
X140419318Y-110349997D01*
X140419318Y-110350002D01*
X140439954Y-110506757D01*
X140500463Y-110652840D01*
X140575646Y-110750820D01*
X140596718Y-110778282D01*
X140722159Y-110874536D01*
X140868238Y-110935044D01*
X140868241Y-110935044D01*
X140868243Y-110935045D01*
X140868240Y-110935045D01*
X141024997Y-110955682D01*
X141025000Y-110955682D01*
X141025003Y-110955682D01*
X141181757Y-110935045D01*
X141181758Y-110935044D01*
X141181762Y-110935044D01*
X141327841Y-110874536D01*
X141453282Y-110778282D01*
X141549536Y-110652841D01*
X141610044Y-110506762D01*
X141630682Y-110350000D01*
X141630682Y-110349997D01*
X141630687Y-110349960D01*
X141660202Y-110278702D01*
X141673045Y-110264056D01*
X144410489Y-107526614D01*
X144462628Y-107436308D01*
X144469797Y-107423891D01*
X144469797Y-107423889D01*
X144469799Y-107423887D01*
X144492091Y-107340691D01*
X144500500Y-107309309D01*
X144500500Y-107125010D01*
X162500000Y-107125010D01*
X162500000Y-107550000D01*
X163319670Y-107550000D01*
X163299925Y-107569745D01*
X163250556Y-107655255D01*
X163225000Y-107750630D01*
X163225000Y-107849370D01*
X163250556Y-107944745D01*
X163299925Y-108030255D01*
X163319670Y-108050000D01*
X162500001Y-108050000D01*
X162500001Y-108474973D01*
X162510494Y-108577696D01*
X162565642Y-108744121D01*
X162657680Y-108893340D01*
X162781659Y-109017319D01*
X162930878Y-109109357D01*
X163097302Y-109164505D01*
X163097311Y-109164507D01*
X163200015Y-109174999D01*
X163350000Y-109174999D01*
X163350000Y-108080330D01*
X163369745Y-108100075D01*
X163455255Y-108149444D01*
X163550630Y-108175000D01*
X163649370Y-108175000D01*
X163744745Y-108149444D01*
X163830255Y-108100075D01*
X163850000Y-108080330D01*
X163850000Y-109174999D01*
X163999974Y-109174999D01*
X164102696Y-109164505D01*
X164269121Y-109109357D01*
X164418340Y-109017319D01*
X164542319Y-108893340D01*
X164634358Y-108744120D01*
X164648304Y-108702034D01*
X164690686Y-108637595D01*
X164759610Y-108602979D01*
X164836608Y-108607464D01*
X164894004Y-108645214D01*
X164895360Y-108643859D01*
X164900536Y-108649035D01*
X165025965Y-108774464D01*
X165025968Y-108774466D01*
X165173451Y-108873012D01*
X165173453Y-108873013D01*
X165337334Y-108940894D01*
X165511309Y-108975500D01*
X165688691Y-108975500D01*
X165862666Y-108940894D01*
X166026547Y-108873013D01*
X166174035Y-108774464D01*
X166299464Y-108649035D01*
X166398013Y-108501547D01*
X166462342Y-108346240D01*
X166509294Y-108285051D01*
X166580551Y-108255535D01*
X166657019Y-108265602D01*
X166718209Y-108312554D01*
X166737658Y-108346241D01*
X166801986Y-108501546D01*
X166801987Y-108501548D01*
X166896663Y-108643239D01*
X166900536Y-108649035D01*
X167025965Y-108774464D01*
X167025968Y-108774466D01*
X167173451Y-108873012D01*
X167173453Y-108873013D01*
X167337334Y-108940894D01*
X167511309Y-108975500D01*
X167688691Y-108975500D01*
X167862666Y-108940894D01*
X168026547Y-108873013D01*
X168174035Y-108774464D01*
X168299464Y-108649035D01*
X168398013Y-108501547D01*
X168465894Y-108337666D01*
X168500500Y-108163691D01*
X168500500Y-107436309D01*
X168498250Y-107425000D01*
X168480228Y-107334397D01*
X168465894Y-107262334D01*
X168409013Y-107125010D01*
X171500000Y-107125010D01*
X171500000Y-107550000D01*
X172319670Y-107550000D01*
X172299925Y-107569745D01*
X172250556Y-107655255D01*
X172225000Y-107750630D01*
X172225000Y-107849370D01*
X172250556Y-107944745D01*
X172299925Y-108030255D01*
X172319670Y-108050000D01*
X171500001Y-108050000D01*
X171500001Y-108474973D01*
X171510494Y-108577696D01*
X171565642Y-108744121D01*
X171657680Y-108893340D01*
X171781659Y-109017319D01*
X171930878Y-109109357D01*
X172097302Y-109164505D01*
X172097311Y-109164507D01*
X172200015Y-109174999D01*
X172350000Y-109174999D01*
X172350000Y-108080330D01*
X172369745Y-108100075D01*
X172455255Y-108149444D01*
X172550630Y-108175000D01*
X172649370Y-108175000D01*
X172744745Y-108149444D01*
X172830255Y-108100075D01*
X172850000Y-108080330D01*
X172850000Y-109174999D01*
X172999974Y-109174999D01*
X173102696Y-109164505D01*
X173269121Y-109109357D01*
X173418340Y-109017319D01*
X173542319Y-108893340D01*
X173634358Y-108744120D01*
X173648304Y-108702034D01*
X173690686Y-108637595D01*
X173759610Y-108602979D01*
X173836608Y-108607464D01*
X173894004Y-108645214D01*
X173895360Y-108643859D01*
X173900536Y-108649035D01*
X174025965Y-108774464D01*
X174025968Y-108774466D01*
X174173451Y-108873012D01*
X174173453Y-108873013D01*
X174337334Y-108940894D01*
X174511309Y-108975500D01*
X174688691Y-108975500D01*
X174862666Y-108940894D01*
X175026547Y-108873013D01*
X175174035Y-108774464D01*
X175299464Y-108649035D01*
X175398013Y-108501547D01*
X175462342Y-108346240D01*
X175509294Y-108285051D01*
X175580551Y-108255535D01*
X175657019Y-108265602D01*
X175718209Y-108312554D01*
X175737658Y-108346241D01*
X175801986Y-108501546D01*
X175801987Y-108501548D01*
X175896663Y-108643239D01*
X175900536Y-108649035D01*
X176025965Y-108774464D01*
X176025968Y-108774466D01*
X176173451Y-108873012D01*
X176173453Y-108873013D01*
X176337334Y-108940894D01*
X176511309Y-108975500D01*
X176688691Y-108975500D01*
X176862666Y-108940894D01*
X177026547Y-108873013D01*
X177174035Y-108774464D01*
X177299464Y-108649035D01*
X177398013Y-108501547D01*
X177465894Y-108337666D01*
X177500500Y-108163691D01*
X177500500Y-107436309D01*
X177498250Y-107425000D01*
X177480228Y-107334397D01*
X177465894Y-107262334D01*
X177398013Y-107098453D01*
X177383129Y-107076178D01*
X177299466Y-106950968D01*
X177299462Y-106950963D01*
X177174036Y-106825537D01*
X177174031Y-106825533D01*
X177026548Y-106726987D01*
X177026546Y-106726986D01*
X176862667Y-106659106D01*
X176862663Y-106659105D01*
X176688691Y-106624500D01*
X176511309Y-106624500D01*
X176337336Y-106659105D01*
X176337332Y-106659106D01*
X176173453Y-106726986D01*
X176173451Y-106726987D01*
X176025968Y-106825533D01*
X176025963Y-106825537D01*
X175900537Y-106950963D01*
X175900533Y-106950968D01*
X175801987Y-107098451D01*
X175801986Y-107098454D01*
X175737658Y-107253758D01*
X175690706Y-107314948D01*
X175619449Y-107344464D01*
X175542981Y-107334397D01*
X175481791Y-107287445D01*
X175462342Y-107253758D01*
X175409013Y-107125010D01*
X175398013Y-107098453D01*
X175383129Y-107076178D01*
X175299466Y-106950968D01*
X175299462Y-106950963D01*
X175174036Y-106825537D01*
X175174031Y-106825533D01*
X175026548Y-106726987D01*
X175026546Y-106726986D01*
X174862667Y-106659106D01*
X174862663Y-106659105D01*
X174688691Y-106624500D01*
X174511309Y-106624500D01*
X174337336Y-106659105D01*
X174337332Y-106659106D01*
X174173453Y-106726986D01*
X174173451Y-106726987D01*
X174025968Y-106825533D01*
X174025963Y-106825537D01*
X173895360Y-106956141D01*
X173893244Y-106954025D01*
X173842051Y-106990614D01*
X173765285Y-106998077D01*
X173695072Y-106966158D01*
X173650225Y-106903408D01*
X173648304Y-106897965D01*
X173634358Y-106855880D01*
X173634358Y-106855879D01*
X173542319Y-106706659D01*
X173418340Y-106582680D01*
X173269121Y-106490642D01*
X173102697Y-106435494D01*
X173102688Y-106435492D01*
X172999989Y-106425000D01*
X172850000Y-106425000D01*
X172850000Y-107519670D01*
X172830255Y-107499925D01*
X172744745Y-107450556D01*
X172649370Y-107425000D01*
X172550630Y-107425000D01*
X172455255Y-107450556D01*
X172369745Y-107499925D01*
X172350000Y-107519670D01*
X172350000Y-106425000D01*
X172200026Y-106425000D01*
X172097303Y-106435494D01*
X171930878Y-106490642D01*
X171781659Y-106582680D01*
X171657680Y-106706659D01*
X171565642Y-106855878D01*
X171510494Y-107022302D01*
X171510492Y-107022311D01*
X171500000Y-107125010D01*
X168409013Y-107125010D01*
X168398013Y-107098453D01*
X168383129Y-107076178D01*
X168299466Y-106950968D01*
X168299462Y-106950963D01*
X168174036Y-106825537D01*
X168174031Y-106825533D01*
X168026548Y-106726987D01*
X168026546Y-106726986D01*
X167862667Y-106659106D01*
X167862663Y-106659105D01*
X167688691Y-106624500D01*
X167511309Y-106624500D01*
X167337336Y-106659105D01*
X167337332Y-106659106D01*
X167173453Y-106726986D01*
X167173451Y-106726987D01*
X167025968Y-106825533D01*
X167025963Y-106825537D01*
X166900537Y-106950963D01*
X166900533Y-106950968D01*
X166801987Y-107098451D01*
X166801986Y-107098454D01*
X166737658Y-107253758D01*
X166690706Y-107314948D01*
X166619449Y-107344464D01*
X166542981Y-107334397D01*
X166481791Y-107287445D01*
X166462342Y-107253758D01*
X166409013Y-107125010D01*
X166398013Y-107098453D01*
X166383129Y-107076178D01*
X166299466Y-106950968D01*
X166299462Y-106950963D01*
X166174036Y-106825537D01*
X166174031Y-106825533D01*
X166026548Y-106726987D01*
X166026546Y-106726986D01*
X165862667Y-106659106D01*
X165862663Y-106659105D01*
X165688691Y-106624500D01*
X165511309Y-106624500D01*
X165337336Y-106659105D01*
X165337332Y-106659106D01*
X165173453Y-106726986D01*
X165173451Y-106726987D01*
X165025968Y-106825533D01*
X165025963Y-106825537D01*
X164895360Y-106956141D01*
X164893244Y-106954025D01*
X164842051Y-106990614D01*
X164765285Y-106998077D01*
X164695072Y-106966158D01*
X164650225Y-106903408D01*
X164648304Y-106897965D01*
X164634358Y-106855880D01*
X164634358Y-106855879D01*
X164542319Y-106706659D01*
X164418340Y-106582680D01*
X164269121Y-106490642D01*
X164102697Y-106435494D01*
X164102688Y-106435492D01*
X163999989Y-106425000D01*
X163850000Y-106425000D01*
X163850000Y-107519670D01*
X163830255Y-107499925D01*
X163744745Y-107450556D01*
X163649370Y-107425000D01*
X163550630Y-107425000D01*
X163455255Y-107450556D01*
X163369745Y-107499925D01*
X163350000Y-107519670D01*
X163350000Y-106425000D01*
X163200026Y-106425000D01*
X163097303Y-106435494D01*
X162930878Y-106490642D01*
X162781659Y-106582680D01*
X162657680Y-106706659D01*
X162565642Y-106855878D01*
X162510494Y-107022302D01*
X162510492Y-107022311D01*
X162500000Y-107125010D01*
X144500500Y-107125010D01*
X144500500Y-104700000D01*
X149748000Y-104700000D01*
X152548000Y-104700000D01*
X152548000Y-102100000D01*
X149748000Y-102100000D01*
X149748000Y-104700000D01*
X144500500Y-104700000D01*
X144500500Y-102698321D01*
X144520462Y-102623821D01*
X144544141Y-102592962D01*
X146937106Y-100199997D01*
X150994318Y-100199997D01*
X150994318Y-100200002D01*
X151014954Y-100356757D01*
X151075463Y-100502840D01*
X151075464Y-100502841D01*
X151171718Y-100628282D01*
X151297159Y-100724536D01*
X151443238Y-100785044D01*
X151443241Y-100785044D01*
X151443243Y-100785045D01*
X151443240Y-100785045D01*
X151599997Y-100805682D01*
X151600000Y-100805682D01*
X151600003Y-100805682D01*
X151756756Y-100785045D01*
X151756756Y-100785044D01*
X151756762Y-100785044D01*
X151848554Y-100747022D01*
X151925018Y-100736956D01*
X151996275Y-100766471D01*
X152010929Y-100779322D01*
X153155859Y-101924252D01*
X153194423Y-101991047D01*
X153199500Y-102029611D01*
X153199500Y-104763714D01*
X153179538Y-104838214D01*
X153125000Y-104892752D01*
X153069951Y-104911439D01*
X153043238Y-104914956D01*
X152897159Y-104975463D01*
X152771718Y-105071717D01*
X152771717Y-105071718D01*
X152675463Y-105197159D01*
X152614954Y-105343242D01*
X152594318Y-105499997D01*
X152594318Y-105500002D01*
X152614954Y-105656757D01*
X152675463Y-105802840D01*
X152690992Y-105823077D01*
X152771718Y-105928282D01*
X152897159Y-106024536D01*
X153043238Y-106085044D01*
X153043241Y-106085044D01*
X153043243Y-106085045D01*
X153043240Y-106085045D01*
X153199997Y-106105682D01*
X153200000Y-106105682D01*
X153200003Y-106105682D01*
X153356757Y-106085045D01*
X153356758Y-106085044D01*
X153356762Y-106085044D01*
X153502841Y-106024536D01*
X153628282Y-105928282D01*
X153724536Y-105802841D01*
X153785044Y-105656762D01*
X153789884Y-105620004D01*
X153805037Y-105504899D01*
X153834552Y-105433642D01*
X153847394Y-105418998D01*
X153920480Y-105345913D01*
X153973206Y-105254588D01*
X153973207Y-105254587D01*
X154000500Y-105152727D01*
X154000500Y-101749273D01*
X153973207Y-101647412D01*
X153971421Y-101644318D01*
X153931406Y-101575010D01*
X162500000Y-101575010D01*
X162500000Y-102000000D01*
X163319670Y-102000000D01*
X163299925Y-102019745D01*
X163250556Y-102105255D01*
X163225000Y-102200630D01*
X163225000Y-102299370D01*
X163250556Y-102394745D01*
X163299925Y-102480255D01*
X163319670Y-102500000D01*
X162500001Y-102500000D01*
X162500001Y-102924973D01*
X162510494Y-103027696D01*
X162565642Y-103194121D01*
X162657680Y-103343340D01*
X162781659Y-103467319D01*
X162930878Y-103559357D01*
X163097302Y-103614505D01*
X163097311Y-103614507D01*
X163200015Y-103624999D01*
X163350000Y-103624999D01*
X163350000Y-102530330D01*
X163369745Y-102550075D01*
X163455255Y-102599444D01*
X163550630Y-102625000D01*
X163649370Y-102625000D01*
X163744745Y-102599444D01*
X163830255Y-102550075D01*
X163850000Y-102530330D01*
X163850000Y-103624999D01*
X163999974Y-103624999D01*
X164102696Y-103614505D01*
X164269121Y-103559357D01*
X164418340Y-103467319D01*
X164542319Y-103343340D01*
X164634358Y-103194120D01*
X164648304Y-103152034D01*
X164690686Y-103087595D01*
X164759610Y-103052979D01*
X164836608Y-103057464D01*
X164894004Y-103095214D01*
X164895360Y-103093859D01*
X164900536Y-103099035D01*
X165025965Y-103224464D01*
X165025968Y-103224466D01*
X165173451Y-103323012D01*
X165173453Y-103323013D01*
X165337334Y-103390894D01*
X165511309Y-103425500D01*
X165688691Y-103425500D01*
X165862666Y-103390894D01*
X166026547Y-103323013D01*
X166174035Y-103224464D01*
X166299464Y-103099035D01*
X166398013Y-102951547D01*
X166462342Y-102796240D01*
X166509294Y-102735051D01*
X166580551Y-102705535D01*
X166657019Y-102715602D01*
X166718209Y-102762554D01*
X166737658Y-102796241D01*
X166801986Y-102951546D01*
X166801987Y-102951548D01*
X166892892Y-103087595D01*
X166900536Y-103099035D01*
X167025965Y-103224464D01*
X167025968Y-103224466D01*
X167173451Y-103323012D01*
X167173453Y-103323013D01*
X167337334Y-103390894D01*
X167511309Y-103425500D01*
X167688691Y-103425500D01*
X167862666Y-103390894D01*
X168026547Y-103323013D01*
X168174035Y-103224464D01*
X168299464Y-103099035D01*
X168398013Y-102951547D01*
X168465894Y-102787666D01*
X168500500Y-102613691D01*
X168500500Y-101886309D01*
X168498250Y-101875000D01*
X168480228Y-101784397D01*
X168465894Y-101712334D01*
X168409013Y-101575010D01*
X171500000Y-101575010D01*
X171500000Y-102000000D01*
X172319670Y-102000000D01*
X172299925Y-102019745D01*
X172250556Y-102105255D01*
X172225000Y-102200630D01*
X172225000Y-102299370D01*
X172250556Y-102394745D01*
X172299925Y-102480255D01*
X172319670Y-102500000D01*
X171500001Y-102500000D01*
X171500001Y-102924973D01*
X171510494Y-103027696D01*
X171565642Y-103194121D01*
X171657680Y-103343340D01*
X171781659Y-103467319D01*
X171930878Y-103559357D01*
X172097302Y-103614505D01*
X172097311Y-103614507D01*
X172200015Y-103624999D01*
X172350000Y-103624999D01*
X172350000Y-102530330D01*
X172369745Y-102550075D01*
X172455255Y-102599444D01*
X172550630Y-102625000D01*
X172649370Y-102625000D01*
X172744745Y-102599444D01*
X172830255Y-102550075D01*
X172850000Y-102530330D01*
X172850000Y-103624999D01*
X172999974Y-103624999D01*
X173102696Y-103614505D01*
X173269121Y-103559357D01*
X173418340Y-103467319D01*
X173542319Y-103343340D01*
X173634358Y-103194120D01*
X173648304Y-103152034D01*
X173690686Y-103087595D01*
X173759610Y-103052979D01*
X173836608Y-103057464D01*
X173894004Y-103095214D01*
X173895360Y-103093859D01*
X173900536Y-103099035D01*
X174025965Y-103224464D01*
X174025968Y-103224466D01*
X174173451Y-103323012D01*
X174173453Y-103323013D01*
X174337334Y-103390894D01*
X174511309Y-103425500D01*
X174688691Y-103425500D01*
X174862666Y-103390894D01*
X175026547Y-103323013D01*
X175174035Y-103224464D01*
X175299464Y-103099035D01*
X175398013Y-102951547D01*
X175462342Y-102796240D01*
X175509294Y-102735051D01*
X175580551Y-102705535D01*
X175657019Y-102715602D01*
X175718209Y-102762554D01*
X175737658Y-102796241D01*
X175801986Y-102951546D01*
X175801987Y-102951548D01*
X175892892Y-103087595D01*
X175900536Y-103099035D01*
X176025965Y-103224464D01*
X176025968Y-103224466D01*
X176173451Y-103323012D01*
X176173453Y-103323013D01*
X176337334Y-103390894D01*
X176511309Y-103425500D01*
X176688691Y-103425500D01*
X176862666Y-103390894D01*
X177026547Y-103323013D01*
X177174035Y-103224464D01*
X177299464Y-103099035D01*
X177398013Y-102951547D01*
X177465894Y-102787666D01*
X177500500Y-102613691D01*
X177500500Y-101886309D01*
X177498250Y-101875000D01*
X177480228Y-101784397D01*
X177465894Y-101712334D01*
X177398013Y-101548453D01*
X177385247Y-101529348D01*
X177299464Y-101400965D01*
X177174036Y-101275537D01*
X177174031Y-101275533D01*
X177026548Y-101176987D01*
X177026546Y-101176986D01*
X176862667Y-101109106D01*
X176862663Y-101109105D01*
X176688691Y-101074500D01*
X176511309Y-101074500D01*
X176337336Y-101109105D01*
X176337332Y-101109106D01*
X176173453Y-101176986D01*
X176173451Y-101176987D01*
X176025968Y-101275533D01*
X176025963Y-101275537D01*
X175900537Y-101400963D01*
X175900536Y-101400965D01*
X175801987Y-101548451D01*
X175801986Y-101548454D01*
X175737658Y-101703758D01*
X175690706Y-101764948D01*
X175619449Y-101794464D01*
X175542981Y-101784397D01*
X175481791Y-101737445D01*
X175462342Y-101703758D01*
X175420616Y-101603023D01*
X175398013Y-101548453D01*
X175385247Y-101529348D01*
X175299464Y-101400965D01*
X175174036Y-101275537D01*
X175174031Y-101275533D01*
X175026548Y-101176987D01*
X175026546Y-101176986D01*
X174862667Y-101109106D01*
X174862663Y-101109105D01*
X174688691Y-101074500D01*
X174511309Y-101074500D01*
X174337336Y-101109105D01*
X174337332Y-101109106D01*
X174173453Y-101176986D01*
X174173451Y-101176987D01*
X174025968Y-101275533D01*
X174025963Y-101275537D01*
X173895360Y-101406141D01*
X173893244Y-101404025D01*
X173842051Y-101440614D01*
X173765285Y-101448077D01*
X173695072Y-101416158D01*
X173650225Y-101353408D01*
X173648304Y-101347965D01*
X173634358Y-101305880D01*
X173634358Y-101305879D01*
X173542319Y-101156659D01*
X173418340Y-101032680D01*
X173269121Y-100940642D01*
X173102697Y-100885494D01*
X173102688Y-100885492D01*
X172999989Y-100875000D01*
X172850000Y-100875000D01*
X172850000Y-101969670D01*
X172830255Y-101949925D01*
X172744745Y-101900556D01*
X172649370Y-101875000D01*
X172550630Y-101875000D01*
X172455255Y-101900556D01*
X172369745Y-101949925D01*
X172350000Y-101969670D01*
X172350000Y-100875000D01*
X172200026Y-100875000D01*
X172097303Y-100885494D01*
X171930878Y-100940642D01*
X171781659Y-101032680D01*
X171657680Y-101156659D01*
X171565642Y-101305878D01*
X171510494Y-101472302D01*
X171510492Y-101472311D01*
X171500000Y-101575010D01*
X168409013Y-101575010D01*
X168398013Y-101548453D01*
X168385247Y-101529348D01*
X168299464Y-101400965D01*
X168174036Y-101275537D01*
X168174031Y-101275533D01*
X168026548Y-101176987D01*
X168026546Y-101176986D01*
X167862667Y-101109106D01*
X167862663Y-101109105D01*
X167688691Y-101074500D01*
X167511309Y-101074500D01*
X167337336Y-101109105D01*
X167337332Y-101109106D01*
X167173453Y-101176986D01*
X167173451Y-101176987D01*
X167025968Y-101275533D01*
X167025963Y-101275537D01*
X166900537Y-101400963D01*
X166900536Y-101400965D01*
X166801987Y-101548451D01*
X166801986Y-101548454D01*
X166737658Y-101703758D01*
X166690706Y-101764948D01*
X166619449Y-101794464D01*
X166542981Y-101784397D01*
X166481791Y-101737445D01*
X166462342Y-101703758D01*
X166420616Y-101603023D01*
X166398013Y-101548453D01*
X166385247Y-101529348D01*
X166299464Y-101400965D01*
X166174036Y-101275537D01*
X166174031Y-101275533D01*
X166026548Y-101176987D01*
X166026546Y-101176986D01*
X165862667Y-101109106D01*
X165862663Y-101109105D01*
X165688691Y-101074500D01*
X165511309Y-101074500D01*
X165337336Y-101109105D01*
X165337332Y-101109106D01*
X165173453Y-101176986D01*
X165173451Y-101176987D01*
X165025968Y-101275533D01*
X165025963Y-101275537D01*
X164895360Y-101406141D01*
X164893244Y-101404025D01*
X164842051Y-101440614D01*
X164765285Y-101448077D01*
X164695072Y-101416158D01*
X164650225Y-101353408D01*
X164648304Y-101347965D01*
X164634358Y-101305880D01*
X164634358Y-101305879D01*
X164542319Y-101156659D01*
X164418340Y-101032680D01*
X164269121Y-100940642D01*
X164102697Y-100885494D01*
X164102688Y-100885492D01*
X163999989Y-100875000D01*
X163850000Y-100875000D01*
X163850000Y-101969670D01*
X163830255Y-101949925D01*
X163744745Y-101900556D01*
X163649370Y-101875000D01*
X163550630Y-101875000D01*
X163455255Y-101900556D01*
X163369745Y-101949925D01*
X163350000Y-101969670D01*
X163350000Y-100875000D01*
X163200026Y-100875000D01*
X163097303Y-100885494D01*
X162930878Y-100940642D01*
X162781659Y-101032680D01*
X162657680Y-101156659D01*
X162565642Y-101305878D01*
X162510494Y-101472302D01*
X162510492Y-101472311D01*
X162500000Y-101575010D01*
X153931406Y-101575010D01*
X153920484Y-101556093D01*
X153920481Y-101556089D01*
X153920480Y-101556087D01*
X152243913Y-99879520D01*
X152243910Y-99879518D01*
X152243906Y-99879515D01*
X152152592Y-99826794D01*
X152096580Y-99811786D01*
X152036474Y-99777083D01*
X152036030Y-99777663D01*
X152031629Y-99774286D01*
X152029786Y-99773222D01*
X152028281Y-99771717D01*
X151902840Y-99675463D01*
X151822944Y-99642369D01*
X151756762Y-99614956D01*
X151756760Y-99614955D01*
X151756756Y-99614954D01*
X151756759Y-99614954D01*
X151600003Y-99594318D01*
X151599997Y-99594318D01*
X151443242Y-99614954D01*
X151297159Y-99675463D01*
X151171718Y-99771717D01*
X151171717Y-99771718D01*
X151075463Y-99897159D01*
X151014954Y-100043242D01*
X150994318Y-100199997D01*
X146937106Y-100199997D01*
X148427012Y-98710091D01*
X151162094Y-95975010D01*
X162500000Y-95975010D01*
X162500000Y-96400000D01*
X163319670Y-96400000D01*
X163299925Y-96419745D01*
X163250556Y-96505255D01*
X163225000Y-96600630D01*
X163225000Y-96699370D01*
X163250556Y-96794745D01*
X163299925Y-96880255D01*
X163319670Y-96900000D01*
X162500001Y-96900000D01*
X162500001Y-97324973D01*
X162510494Y-97427696D01*
X162565642Y-97594121D01*
X162657680Y-97743340D01*
X162781659Y-97867319D01*
X162930878Y-97959357D01*
X163097302Y-98014505D01*
X163097311Y-98014507D01*
X163200015Y-98024999D01*
X163350000Y-98024999D01*
X163350000Y-96930330D01*
X163369745Y-96950075D01*
X163455255Y-96999444D01*
X163550630Y-97025000D01*
X163649370Y-97025000D01*
X163744745Y-96999444D01*
X163830255Y-96950075D01*
X163850000Y-96930330D01*
X163850000Y-98024999D01*
X163999974Y-98024999D01*
X164102696Y-98014505D01*
X164269121Y-97959357D01*
X164418340Y-97867319D01*
X164542319Y-97743340D01*
X164634358Y-97594120D01*
X164648304Y-97552034D01*
X164690686Y-97487595D01*
X164759610Y-97452979D01*
X164836608Y-97457464D01*
X164894004Y-97495214D01*
X164895360Y-97493859D01*
X164900536Y-97499035D01*
X165025965Y-97624464D01*
X165025968Y-97624466D01*
X165173451Y-97723012D01*
X165173453Y-97723013D01*
X165337334Y-97790894D01*
X165511309Y-97825500D01*
X165688691Y-97825500D01*
X165862666Y-97790894D01*
X166026547Y-97723013D01*
X166174035Y-97624464D01*
X166299464Y-97499035D01*
X166398013Y-97351547D01*
X166462342Y-97196240D01*
X166509294Y-97135051D01*
X166580551Y-97105535D01*
X166657019Y-97115602D01*
X166718209Y-97162554D01*
X166737658Y-97196241D01*
X166801986Y-97351546D01*
X166801987Y-97351548D01*
X166897077Y-97493859D01*
X166900536Y-97499035D01*
X167025965Y-97624464D01*
X167025968Y-97624466D01*
X167173451Y-97723012D01*
X167173453Y-97723013D01*
X167337334Y-97790894D01*
X167511309Y-97825500D01*
X167688691Y-97825500D01*
X167862666Y-97790894D01*
X168026547Y-97723013D01*
X168174035Y-97624464D01*
X168299464Y-97499035D01*
X168398013Y-97351547D01*
X168465894Y-97187666D01*
X168500500Y-97013691D01*
X168500500Y-96286309D01*
X168498250Y-96275000D01*
X168483331Y-96199997D01*
X168465894Y-96112334D01*
X168409013Y-95975010D01*
X171500000Y-95975010D01*
X171500000Y-96400000D01*
X172319670Y-96400000D01*
X172299925Y-96419745D01*
X172250556Y-96505255D01*
X172225000Y-96600630D01*
X172225000Y-96699370D01*
X172250556Y-96794745D01*
X172299925Y-96880255D01*
X172319670Y-96900000D01*
X171500001Y-96900000D01*
X171500001Y-97324973D01*
X171510494Y-97427696D01*
X171565642Y-97594121D01*
X171657680Y-97743340D01*
X171781659Y-97867319D01*
X171930878Y-97959357D01*
X172097302Y-98014505D01*
X172097311Y-98014507D01*
X172200015Y-98024999D01*
X172350000Y-98024999D01*
X172350000Y-96930330D01*
X172369745Y-96950075D01*
X172455255Y-96999444D01*
X172550630Y-97025000D01*
X172649370Y-97025000D01*
X172744745Y-96999444D01*
X172830255Y-96950075D01*
X172850000Y-96930330D01*
X172850000Y-98024999D01*
X172999974Y-98024999D01*
X173102696Y-98014505D01*
X173269121Y-97959357D01*
X173418340Y-97867319D01*
X173542319Y-97743340D01*
X173634358Y-97594120D01*
X173648304Y-97552034D01*
X173690686Y-97487595D01*
X173759610Y-97452979D01*
X173836608Y-97457464D01*
X173894004Y-97495214D01*
X173895360Y-97493859D01*
X173900536Y-97499035D01*
X174025965Y-97624464D01*
X174025968Y-97624466D01*
X174173451Y-97723012D01*
X174173453Y-97723013D01*
X174337334Y-97790894D01*
X174511309Y-97825500D01*
X174688691Y-97825500D01*
X174862666Y-97790894D01*
X175026547Y-97723013D01*
X175174035Y-97624464D01*
X175299464Y-97499035D01*
X175398013Y-97351547D01*
X175462342Y-97196240D01*
X175509294Y-97135051D01*
X175580551Y-97105535D01*
X175657019Y-97115602D01*
X175718209Y-97162554D01*
X175737658Y-97196241D01*
X175801986Y-97351546D01*
X175801987Y-97351548D01*
X175897077Y-97493859D01*
X175900536Y-97499035D01*
X176025965Y-97624464D01*
X176025968Y-97624466D01*
X176173451Y-97723012D01*
X176173453Y-97723013D01*
X176337334Y-97790894D01*
X176511309Y-97825500D01*
X176688691Y-97825500D01*
X176862666Y-97790894D01*
X177026547Y-97723013D01*
X177174035Y-97624464D01*
X177299464Y-97499035D01*
X177398013Y-97351547D01*
X177465894Y-97187666D01*
X177500500Y-97013691D01*
X177500500Y-96286309D01*
X177498250Y-96275000D01*
X177483331Y-96199997D01*
X177465894Y-96112334D01*
X177398013Y-95948453D01*
X177394426Y-95943085D01*
X177299466Y-95800968D01*
X177299462Y-95800963D01*
X177174036Y-95675537D01*
X177174031Y-95675533D01*
X177026548Y-95576987D01*
X177026546Y-95576986D01*
X176862667Y-95509106D01*
X176862663Y-95509105D01*
X176688691Y-95474500D01*
X176511309Y-95474500D01*
X176337336Y-95509105D01*
X176337332Y-95509106D01*
X176173453Y-95576986D01*
X176173451Y-95576987D01*
X176025968Y-95675533D01*
X176025963Y-95675537D01*
X175900537Y-95800963D01*
X175900533Y-95800968D01*
X175801987Y-95948451D01*
X175801986Y-95948454D01*
X175737658Y-96103758D01*
X175690706Y-96164948D01*
X175619449Y-96194464D01*
X175542981Y-96184397D01*
X175481791Y-96137445D01*
X175462342Y-96103758D01*
X175398013Y-95948454D01*
X175398012Y-95948451D01*
X175299466Y-95800968D01*
X175299462Y-95800963D01*
X175174036Y-95675537D01*
X175174031Y-95675533D01*
X175026548Y-95576987D01*
X175026546Y-95576986D01*
X174862667Y-95509106D01*
X174862663Y-95509105D01*
X174688691Y-95474500D01*
X174511309Y-95474500D01*
X174337336Y-95509105D01*
X174337332Y-95509106D01*
X174173453Y-95576986D01*
X174173451Y-95576987D01*
X174025968Y-95675533D01*
X174025963Y-95675537D01*
X173895360Y-95806141D01*
X173893244Y-95804025D01*
X173842051Y-95840614D01*
X173765285Y-95848077D01*
X173695072Y-95816158D01*
X173650225Y-95753408D01*
X173648304Y-95747965D01*
X173634358Y-95705880D01*
X173634358Y-95705879D01*
X173542319Y-95556659D01*
X173418340Y-95432680D01*
X173269121Y-95340642D01*
X173102697Y-95285494D01*
X173102688Y-95285492D01*
X172999989Y-95275000D01*
X172850000Y-95275000D01*
X172850000Y-96369670D01*
X172830255Y-96349925D01*
X172744745Y-96300556D01*
X172649370Y-96275000D01*
X172550630Y-96275000D01*
X172455255Y-96300556D01*
X172369745Y-96349925D01*
X172350000Y-96369670D01*
X172350000Y-95275000D01*
X172200026Y-95275000D01*
X172097303Y-95285494D01*
X171930878Y-95340642D01*
X171781659Y-95432680D01*
X171657680Y-95556659D01*
X171565642Y-95705878D01*
X171510494Y-95872302D01*
X171510492Y-95872311D01*
X171500000Y-95975010D01*
X168409013Y-95975010D01*
X168398013Y-95948453D01*
X168394426Y-95943085D01*
X168299466Y-95800968D01*
X168299462Y-95800963D01*
X168174036Y-95675537D01*
X168174031Y-95675533D01*
X168026548Y-95576987D01*
X168026546Y-95576986D01*
X167862667Y-95509106D01*
X167862663Y-95509105D01*
X167688691Y-95474500D01*
X167511309Y-95474500D01*
X167337336Y-95509105D01*
X167337332Y-95509106D01*
X167173453Y-95576986D01*
X167173451Y-95576987D01*
X167025968Y-95675533D01*
X167025963Y-95675537D01*
X166900537Y-95800963D01*
X166900533Y-95800968D01*
X166801987Y-95948451D01*
X166801986Y-95948454D01*
X166737658Y-96103758D01*
X166690706Y-96164948D01*
X166619449Y-96194464D01*
X166542981Y-96184397D01*
X166481791Y-96137445D01*
X166462342Y-96103758D01*
X166398013Y-95948454D01*
X166398012Y-95948451D01*
X166299466Y-95800968D01*
X166299462Y-95800963D01*
X166174036Y-95675537D01*
X166174031Y-95675533D01*
X166026548Y-95576987D01*
X166026546Y-95576986D01*
X165862667Y-95509106D01*
X165862663Y-95509105D01*
X165688691Y-95474500D01*
X165511309Y-95474500D01*
X165337336Y-95509105D01*
X165337332Y-95509106D01*
X165173453Y-95576986D01*
X165173451Y-95576987D01*
X165025968Y-95675533D01*
X165025963Y-95675537D01*
X164895360Y-95806141D01*
X164893244Y-95804025D01*
X164842051Y-95840614D01*
X164765285Y-95848077D01*
X164695072Y-95816158D01*
X164650225Y-95753408D01*
X164648304Y-95747965D01*
X164634358Y-95705880D01*
X164634358Y-95705879D01*
X164542319Y-95556659D01*
X164418340Y-95432680D01*
X164269121Y-95340642D01*
X164102697Y-95285494D01*
X164102688Y-95285492D01*
X163999989Y-95275000D01*
X163850000Y-95275000D01*
X163850000Y-96369670D01*
X163830255Y-96349925D01*
X163744745Y-96300556D01*
X163649370Y-96275000D01*
X163550630Y-96275000D01*
X163455255Y-96300556D01*
X163369745Y-96349925D01*
X163350000Y-96369670D01*
X163350000Y-95275000D01*
X163200026Y-95275000D01*
X163097303Y-95285494D01*
X162930878Y-95340642D01*
X162781659Y-95432680D01*
X162657680Y-95556659D01*
X162565642Y-95705878D01*
X162510494Y-95872302D01*
X162510492Y-95872311D01*
X162500000Y-95975010D01*
X151162094Y-95975010D01*
X152360490Y-94776614D01*
X152419799Y-94673887D01*
X152427816Y-94643967D01*
X152450500Y-94559309D01*
X152450500Y-90375010D01*
X162500000Y-90375010D01*
X162500000Y-90800000D01*
X163319670Y-90800000D01*
X163299925Y-90819745D01*
X163250556Y-90905255D01*
X163225000Y-91000630D01*
X163225000Y-91099370D01*
X163250556Y-91194745D01*
X163299925Y-91280255D01*
X163319670Y-91300000D01*
X162500001Y-91300000D01*
X162500001Y-91724973D01*
X162510494Y-91827696D01*
X162565642Y-91994121D01*
X162657680Y-92143340D01*
X162781659Y-92267319D01*
X162930878Y-92359357D01*
X163097302Y-92414505D01*
X163097311Y-92414507D01*
X163200015Y-92424999D01*
X163350000Y-92424999D01*
X163350000Y-91330330D01*
X163369745Y-91350075D01*
X163455255Y-91399444D01*
X163550630Y-91425000D01*
X163649370Y-91425000D01*
X163744745Y-91399444D01*
X163830255Y-91350075D01*
X163850000Y-91330330D01*
X163850000Y-92424999D01*
X163999974Y-92424999D01*
X164102696Y-92414505D01*
X164269121Y-92359357D01*
X164418340Y-92267319D01*
X164542319Y-92143340D01*
X164634358Y-91994120D01*
X164648304Y-91952034D01*
X164690686Y-91887595D01*
X164759610Y-91852979D01*
X164836608Y-91857464D01*
X164894004Y-91895214D01*
X164895360Y-91893859D01*
X164900536Y-91899035D01*
X165025965Y-92024464D01*
X165025968Y-92024466D01*
X165173451Y-92123012D01*
X165173453Y-92123013D01*
X165337334Y-92190894D01*
X165511309Y-92225500D01*
X165688691Y-92225500D01*
X165862666Y-92190894D01*
X166026547Y-92123013D01*
X166174035Y-92024464D01*
X166299464Y-91899035D01*
X166398013Y-91751547D01*
X166462342Y-91596240D01*
X166509294Y-91535051D01*
X166580551Y-91505535D01*
X166657019Y-91515602D01*
X166718209Y-91562554D01*
X166737658Y-91596241D01*
X166801986Y-91751546D01*
X166801987Y-91751548D01*
X166892892Y-91887595D01*
X166900536Y-91899035D01*
X167025965Y-92024464D01*
X167025968Y-92024466D01*
X167173451Y-92123012D01*
X167173453Y-92123013D01*
X167337334Y-92190894D01*
X167511309Y-92225500D01*
X167688691Y-92225500D01*
X167862666Y-92190894D01*
X168026547Y-92123013D01*
X168174035Y-92024464D01*
X168299464Y-91899035D01*
X168398013Y-91751547D01*
X168465894Y-91587666D01*
X168500500Y-91413691D01*
X168500500Y-90686309D01*
X168498250Y-90675000D01*
X168478451Y-90575463D01*
X168465894Y-90512334D01*
X168398013Y-90348453D01*
X168382349Y-90325010D01*
X171500000Y-90325010D01*
X171500000Y-90750000D01*
X172319670Y-90750000D01*
X172299925Y-90769745D01*
X172250556Y-90855255D01*
X172225000Y-90950630D01*
X172225000Y-91049370D01*
X172250556Y-91144745D01*
X172299925Y-91230255D01*
X172319670Y-91250000D01*
X171500001Y-91250000D01*
X171500001Y-91674973D01*
X171510494Y-91777696D01*
X171565642Y-91944121D01*
X171657680Y-92093340D01*
X171781659Y-92217319D01*
X171930878Y-92309357D01*
X172097302Y-92364505D01*
X172097311Y-92364507D01*
X172200015Y-92374999D01*
X172350000Y-92374999D01*
X172350000Y-91280330D01*
X172369745Y-91300075D01*
X172455255Y-91349444D01*
X172550630Y-91375000D01*
X172649370Y-91375000D01*
X172744745Y-91349444D01*
X172830255Y-91300075D01*
X172850000Y-91280330D01*
X172850000Y-92374999D01*
X172999974Y-92374999D01*
X173102696Y-92364505D01*
X173269121Y-92309357D01*
X173418340Y-92217319D01*
X173542319Y-92093340D01*
X173634358Y-91944120D01*
X173648304Y-91902034D01*
X173690686Y-91837595D01*
X173759610Y-91802979D01*
X173836608Y-91807464D01*
X173894004Y-91845214D01*
X173895360Y-91843859D01*
X173900536Y-91849035D01*
X174025965Y-91974464D01*
X174025968Y-91974466D01*
X174173451Y-92073012D01*
X174173453Y-92073013D01*
X174337334Y-92140894D01*
X174511309Y-92175500D01*
X174688691Y-92175500D01*
X174862666Y-92140894D01*
X175026547Y-92073013D01*
X175174035Y-91974464D01*
X175299464Y-91849035D01*
X175398013Y-91701547D01*
X175462342Y-91546240D01*
X175509294Y-91485051D01*
X175580551Y-91455535D01*
X175657019Y-91465602D01*
X175718209Y-91512554D01*
X175737657Y-91546240D01*
X175740345Y-91552729D01*
X175801986Y-91701546D01*
X175801987Y-91701548D01*
X175892892Y-91837595D01*
X175900536Y-91849035D01*
X176025965Y-91974464D01*
X176025968Y-91974466D01*
X176173451Y-92073012D01*
X176173453Y-92073013D01*
X176337334Y-92140894D01*
X176511309Y-92175500D01*
X176688691Y-92175500D01*
X176862666Y-92140894D01*
X177026547Y-92073013D01*
X177174035Y-91974464D01*
X177299464Y-91849035D01*
X177398013Y-91701547D01*
X177465894Y-91537666D01*
X177500500Y-91363691D01*
X177500500Y-90636309D01*
X177498250Y-90625000D01*
X177482231Y-90544464D01*
X177465894Y-90462334D01*
X177398013Y-90298453D01*
X177380545Y-90272311D01*
X177299466Y-90150968D01*
X177299462Y-90150963D01*
X177174036Y-90025537D01*
X177174031Y-90025533D01*
X177026548Y-89926987D01*
X177026546Y-89926986D01*
X176862667Y-89859106D01*
X176862663Y-89859105D01*
X176688691Y-89824500D01*
X176511309Y-89824500D01*
X176337336Y-89859105D01*
X176337332Y-89859106D01*
X176173453Y-89926986D01*
X176173451Y-89926987D01*
X176025968Y-90025533D01*
X176025963Y-90025537D01*
X175900537Y-90150963D01*
X175900533Y-90150968D01*
X175801987Y-90298451D01*
X175801986Y-90298454D01*
X175737658Y-90453758D01*
X175690706Y-90514948D01*
X175619449Y-90544464D01*
X175542981Y-90534397D01*
X175481791Y-90487445D01*
X175462342Y-90453758D01*
X175431792Y-90380004D01*
X175398013Y-90298453D01*
X175380545Y-90272311D01*
X175299466Y-90150968D01*
X175299462Y-90150963D01*
X175174036Y-90025537D01*
X175174031Y-90025533D01*
X175026548Y-89926987D01*
X175026546Y-89926986D01*
X174862667Y-89859106D01*
X174862663Y-89859105D01*
X174688691Y-89824500D01*
X174511309Y-89824500D01*
X174337336Y-89859105D01*
X174337332Y-89859106D01*
X174173453Y-89926986D01*
X174173451Y-89926987D01*
X174025968Y-90025533D01*
X174025963Y-90025537D01*
X173895360Y-90156141D01*
X173893244Y-90154025D01*
X173842051Y-90190614D01*
X173765285Y-90198077D01*
X173695072Y-90166158D01*
X173650225Y-90103408D01*
X173648304Y-90097965D01*
X173634358Y-90055880D01*
X173634358Y-90055879D01*
X173542319Y-89906659D01*
X173418340Y-89782680D01*
X173269121Y-89690642D01*
X173102697Y-89635494D01*
X173102688Y-89635492D01*
X172999989Y-89625000D01*
X172850000Y-89625000D01*
X172850000Y-90719670D01*
X172830255Y-90699925D01*
X172744745Y-90650556D01*
X172649370Y-90625000D01*
X172550630Y-90625000D01*
X172455255Y-90650556D01*
X172369745Y-90699925D01*
X172350000Y-90719670D01*
X172350000Y-89625000D01*
X172200026Y-89625000D01*
X172097303Y-89635494D01*
X171930878Y-89690642D01*
X171781659Y-89782680D01*
X171657680Y-89906659D01*
X171565642Y-90055878D01*
X171510494Y-90222302D01*
X171510492Y-90222311D01*
X171500000Y-90325010D01*
X168382349Y-90325010D01*
X168330943Y-90248077D01*
X168299466Y-90200968D01*
X168299462Y-90200963D01*
X168174036Y-90075537D01*
X168174031Y-90075533D01*
X168026548Y-89976987D01*
X168026546Y-89976986D01*
X167862667Y-89909106D01*
X167862663Y-89909105D01*
X167688691Y-89874500D01*
X167511309Y-89874500D01*
X167337336Y-89909105D01*
X167337332Y-89909106D01*
X167173453Y-89976986D01*
X167173451Y-89976987D01*
X167025968Y-90075533D01*
X167025963Y-90075537D01*
X166900537Y-90200963D01*
X166900533Y-90200968D01*
X166801987Y-90348451D01*
X166801986Y-90348454D01*
X166737658Y-90503758D01*
X166690706Y-90564948D01*
X166619449Y-90594464D01*
X166542981Y-90584397D01*
X166481791Y-90537445D01*
X166462342Y-90503758D01*
X166437701Y-90444270D01*
X166398013Y-90348453D01*
X166330943Y-90248077D01*
X166299466Y-90200968D01*
X166299462Y-90200963D01*
X166174036Y-90075537D01*
X166174031Y-90075533D01*
X166026548Y-89976987D01*
X166026546Y-89976986D01*
X165862667Y-89909106D01*
X165862663Y-89909105D01*
X165688691Y-89874500D01*
X165511309Y-89874500D01*
X165337336Y-89909105D01*
X165337332Y-89909106D01*
X165173453Y-89976986D01*
X165173451Y-89976987D01*
X165025968Y-90075533D01*
X165025963Y-90075537D01*
X164895360Y-90206141D01*
X164893244Y-90204025D01*
X164842051Y-90240614D01*
X164765285Y-90248077D01*
X164695072Y-90216158D01*
X164650225Y-90153408D01*
X164648304Y-90147965D01*
X164634358Y-90105880D01*
X164634358Y-90105879D01*
X164542319Y-89956659D01*
X164418340Y-89832680D01*
X164269121Y-89740642D01*
X164102697Y-89685494D01*
X164102688Y-89685492D01*
X163999989Y-89675000D01*
X163850000Y-89675000D01*
X163850000Y-90769670D01*
X163830255Y-90749925D01*
X163744745Y-90700556D01*
X163649370Y-90675000D01*
X163550630Y-90675000D01*
X163455255Y-90700556D01*
X163369745Y-90749925D01*
X163350000Y-90769670D01*
X163350000Y-89675000D01*
X163200026Y-89675000D01*
X163097303Y-89685494D01*
X162930878Y-89740642D01*
X162781659Y-89832680D01*
X162657680Y-89956659D01*
X162565642Y-90105878D01*
X162510494Y-90272302D01*
X162510492Y-90272311D01*
X162500000Y-90375010D01*
X152450500Y-90375010D01*
X152450500Y-84725010D01*
X162500000Y-84725010D01*
X162500000Y-85150000D01*
X163319670Y-85150000D01*
X163299925Y-85169745D01*
X163250556Y-85255255D01*
X163225000Y-85350630D01*
X163225000Y-85449370D01*
X163250556Y-85544745D01*
X163299925Y-85630255D01*
X163319670Y-85650000D01*
X162500001Y-85650000D01*
X162500001Y-86074973D01*
X162510494Y-86177696D01*
X162565642Y-86344121D01*
X162657680Y-86493340D01*
X162781659Y-86617319D01*
X162930878Y-86709357D01*
X163097302Y-86764505D01*
X163097311Y-86764507D01*
X163200015Y-86774999D01*
X163350000Y-86774999D01*
X163350000Y-85680330D01*
X163369745Y-85700075D01*
X163455255Y-85749444D01*
X163550630Y-85775000D01*
X163649370Y-85775000D01*
X163744745Y-85749444D01*
X163830255Y-85700075D01*
X163850000Y-85680330D01*
X163850000Y-86774999D01*
X163999974Y-86774999D01*
X164102696Y-86764505D01*
X164269121Y-86709357D01*
X164418340Y-86617319D01*
X164542319Y-86493340D01*
X164634358Y-86344120D01*
X164648304Y-86302034D01*
X164690686Y-86237595D01*
X164759610Y-86202979D01*
X164836608Y-86207464D01*
X164894004Y-86245214D01*
X164895360Y-86243859D01*
X164900536Y-86249035D01*
X165025965Y-86374464D01*
X165025968Y-86374466D01*
X165173451Y-86473012D01*
X165173453Y-86473013D01*
X165337334Y-86540894D01*
X165511309Y-86575500D01*
X165688691Y-86575500D01*
X165862666Y-86540894D01*
X166026547Y-86473013D01*
X166174035Y-86374464D01*
X166299464Y-86249035D01*
X166398013Y-86101547D01*
X166462342Y-85946240D01*
X166509294Y-85885051D01*
X166580551Y-85855535D01*
X166657019Y-85865602D01*
X166718209Y-85912554D01*
X166737658Y-85946241D01*
X166801986Y-86101546D01*
X166801987Y-86101548D01*
X166849322Y-86172389D01*
X166900536Y-86249035D01*
X167025965Y-86374464D01*
X167025968Y-86374466D01*
X167173451Y-86473012D01*
X167173453Y-86473013D01*
X167337334Y-86540894D01*
X167511309Y-86575500D01*
X167688691Y-86575500D01*
X167862666Y-86540894D01*
X168026547Y-86473013D01*
X168174035Y-86374464D01*
X168299464Y-86249035D01*
X168398013Y-86101547D01*
X168465894Y-85937666D01*
X168500500Y-85763691D01*
X168500500Y-85036309D01*
X168498250Y-85025000D01*
X168480228Y-84934397D01*
X168465894Y-84862334D01*
X168409013Y-84725010D01*
X171500000Y-84725010D01*
X171500000Y-85150000D01*
X172319670Y-85150000D01*
X172299925Y-85169745D01*
X172250556Y-85255255D01*
X172225000Y-85350630D01*
X172225000Y-85449370D01*
X172250556Y-85544745D01*
X172299925Y-85630255D01*
X172319670Y-85650000D01*
X171500001Y-85650000D01*
X171500001Y-86074973D01*
X171510494Y-86177696D01*
X171565642Y-86344121D01*
X171657680Y-86493340D01*
X171781659Y-86617319D01*
X171930878Y-86709357D01*
X172097302Y-86764505D01*
X172097311Y-86764507D01*
X172200015Y-86774999D01*
X172350000Y-86774999D01*
X172350000Y-85680330D01*
X172369745Y-85700075D01*
X172455255Y-85749444D01*
X172550630Y-85775000D01*
X172649370Y-85775000D01*
X172744745Y-85749444D01*
X172830255Y-85700075D01*
X172850000Y-85680330D01*
X172850000Y-86774999D01*
X172999974Y-86774999D01*
X173102696Y-86764505D01*
X173269121Y-86709357D01*
X173418340Y-86617319D01*
X173542319Y-86493340D01*
X173634358Y-86344120D01*
X173648304Y-86302034D01*
X173690686Y-86237595D01*
X173759610Y-86202979D01*
X173836608Y-86207464D01*
X173894004Y-86245214D01*
X173895360Y-86243859D01*
X173900536Y-86249035D01*
X174025965Y-86374464D01*
X174025968Y-86374466D01*
X174173451Y-86473012D01*
X174173453Y-86473013D01*
X174337334Y-86540894D01*
X174511309Y-86575500D01*
X174688691Y-86575500D01*
X174862666Y-86540894D01*
X175026547Y-86473013D01*
X175174035Y-86374464D01*
X175299464Y-86249035D01*
X175398013Y-86101547D01*
X175462342Y-85946240D01*
X175509294Y-85885051D01*
X175580551Y-85855535D01*
X175657019Y-85865602D01*
X175718209Y-85912554D01*
X175737658Y-85946241D01*
X175801986Y-86101546D01*
X175801987Y-86101548D01*
X175849322Y-86172389D01*
X175900536Y-86249035D01*
X176025965Y-86374464D01*
X176025968Y-86374466D01*
X176173451Y-86473012D01*
X176173453Y-86473013D01*
X176337334Y-86540894D01*
X176511309Y-86575500D01*
X176688691Y-86575500D01*
X176862666Y-86540894D01*
X177026547Y-86473013D01*
X177174035Y-86374464D01*
X177299464Y-86249035D01*
X177398013Y-86101547D01*
X177465894Y-85937666D01*
X177500500Y-85763691D01*
X177500500Y-85036309D01*
X177498250Y-85025000D01*
X177480228Y-84934397D01*
X177465894Y-84862334D01*
X177398013Y-84698453D01*
X177396884Y-84696764D01*
X177299466Y-84550968D01*
X177299462Y-84550963D01*
X177174036Y-84425537D01*
X177174031Y-84425533D01*
X177026548Y-84326987D01*
X177026546Y-84326986D01*
X176862667Y-84259106D01*
X176862663Y-84259105D01*
X176688691Y-84224500D01*
X176511309Y-84224500D01*
X176337336Y-84259105D01*
X176337332Y-84259106D01*
X176173453Y-84326986D01*
X176173451Y-84326987D01*
X176025968Y-84425533D01*
X176025963Y-84425537D01*
X175900537Y-84550963D01*
X175900533Y-84550968D01*
X175801987Y-84698451D01*
X175801986Y-84698454D01*
X175737658Y-84853758D01*
X175690706Y-84914948D01*
X175619449Y-84944464D01*
X175542981Y-84934397D01*
X175481791Y-84887445D01*
X175462342Y-84853758D01*
X175437701Y-84794270D01*
X175398013Y-84698453D01*
X175396884Y-84696764D01*
X175299466Y-84550968D01*
X175299462Y-84550963D01*
X175174036Y-84425537D01*
X175174031Y-84425533D01*
X175026548Y-84326987D01*
X175026546Y-84326986D01*
X174862667Y-84259106D01*
X174862663Y-84259105D01*
X174688691Y-84224500D01*
X174511309Y-84224500D01*
X174337336Y-84259105D01*
X174337332Y-84259106D01*
X174173453Y-84326986D01*
X174173451Y-84326987D01*
X174025968Y-84425533D01*
X174025963Y-84425537D01*
X173895360Y-84556141D01*
X173893244Y-84554025D01*
X173842051Y-84590614D01*
X173765285Y-84598077D01*
X173695072Y-84566158D01*
X173650225Y-84503408D01*
X173648304Y-84497965D01*
X173634358Y-84455880D01*
X173634358Y-84455879D01*
X173542319Y-84306659D01*
X173418340Y-84182680D01*
X173269121Y-84090642D01*
X173102697Y-84035494D01*
X173102688Y-84035492D01*
X172999989Y-84025000D01*
X172850000Y-84025000D01*
X172850000Y-85119670D01*
X172830255Y-85099925D01*
X172744745Y-85050556D01*
X172649370Y-85025000D01*
X172550630Y-85025000D01*
X172455255Y-85050556D01*
X172369745Y-85099925D01*
X172350000Y-85119670D01*
X172350000Y-84025000D01*
X172200026Y-84025000D01*
X172097303Y-84035494D01*
X171930878Y-84090642D01*
X171781659Y-84182680D01*
X171657680Y-84306659D01*
X171565642Y-84455878D01*
X171510494Y-84622302D01*
X171510492Y-84622311D01*
X171500000Y-84725010D01*
X168409013Y-84725010D01*
X168398013Y-84698453D01*
X168396884Y-84696764D01*
X168299466Y-84550968D01*
X168299462Y-84550963D01*
X168174036Y-84425537D01*
X168174031Y-84425533D01*
X168026548Y-84326987D01*
X168026546Y-84326986D01*
X167862667Y-84259106D01*
X167862663Y-84259105D01*
X167688691Y-84224500D01*
X167511309Y-84224500D01*
X167337336Y-84259105D01*
X167337332Y-84259106D01*
X167173453Y-84326986D01*
X167173451Y-84326987D01*
X167025968Y-84425533D01*
X167025963Y-84425537D01*
X166900537Y-84550963D01*
X166900533Y-84550968D01*
X166801987Y-84698451D01*
X166801986Y-84698454D01*
X166737658Y-84853758D01*
X166690706Y-84914948D01*
X166619449Y-84944464D01*
X166542981Y-84934397D01*
X166481791Y-84887445D01*
X166462342Y-84853758D01*
X166437701Y-84794270D01*
X166398013Y-84698453D01*
X166396884Y-84696764D01*
X166299466Y-84550968D01*
X166299462Y-84550963D01*
X166174036Y-84425537D01*
X166174031Y-84425533D01*
X166026548Y-84326987D01*
X166026546Y-84326986D01*
X165862667Y-84259106D01*
X165862663Y-84259105D01*
X165688691Y-84224500D01*
X165511309Y-84224500D01*
X165337336Y-84259105D01*
X165337332Y-84259106D01*
X165173453Y-84326986D01*
X165173451Y-84326987D01*
X165025968Y-84425533D01*
X165025963Y-84425537D01*
X164895360Y-84556141D01*
X164893244Y-84554025D01*
X164842051Y-84590614D01*
X164765285Y-84598077D01*
X164695072Y-84566158D01*
X164650225Y-84503408D01*
X164648304Y-84497965D01*
X164634358Y-84455880D01*
X164634358Y-84455879D01*
X164542319Y-84306659D01*
X164418340Y-84182680D01*
X164269121Y-84090642D01*
X164102697Y-84035494D01*
X164102688Y-84035492D01*
X163999989Y-84025000D01*
X163850000Y-84025000D01*
X163850000Y-85119670D01*
X163830255Y-85099925D01*
X163744745Y-85050556D01*
X163649370Y-85025000D01*
X163550630Y-85025000D01*
X163455255Y-85050556D01*
X163369745Y-85099925D01*
X163350000Y-85119670D01*
X163350000Y-84025000D01*
X163200026Y-84025000D01*
X163097303Y-84035494D01*
X162930878Y-84090642D01*
X162781659Y-84182680D01*
X162657680Y-84306659D01*
X162565642Y-84455878D01*
X162510494Y-84622302D01*
X162510492Y-84622311D01*
X162500000Y-84725010D01*
X152450500Y-84725010D01*
X152450500Y-84540691D01*
X152426286Y-84450326D01*
X152426286Y-84450325D01*
X152426286Y-84450324D01*
X152426283Y-84450316D01*
X152419800Y-84426115D01*
X152360491Y-84323389D01*
X152360490Y-84323388D01*
X152360489Y-84323386D01*
X150741962Y-82704859D01*
X150703398Y-82638064D01*
X150703398Y-82560936D01*
X150741962Y-82494141D01*
X150808757Y-82455577D01*
X150847321Y-82450500D01*
X156714306Y-82450500D01*
X156788806Y-82470462D01*
X156825770Y-82502274D01*
X156825982Y-82502063D01*
X156828801Y-82504882D01*
X156830803Y-82506605D01*
X156831897Y-82507977D01*
X156831899Y-82507980D01*
X156959453Y-82635534D01*
X157112193Y-82731507D01*
X157282460Y-82791086D01*
X157310950Y-82794296D01*
X157461714Y-82811283D01*
X157461715Y-82811283D01*
X157461716Y-82811283D01*
X157506528Y-82806233D01*
X157640970Y-82791086D01*
X157811237Y-82731507D01*
X157963977Y-82635534D01*
X158091531Y-82507980D01*
X158187504Y-82355240D01*
X158247083Y-82184973D01*
X158267280Y-82005718D01*
X158260698Y-81947305D01*
X158247083Y-81826465D01*
X158247083Y-81826463D01*
X158187504Y-81656196D01*
X158091531Y-81503456D01*
X157963977Y-81375902D01*
X157811237Y-81279929D01*
X157640970Y-81220350D01*
X157595734Y-81215253D01*
X157545750Y-81209621D01*
X157505414Y-81199216D01*
X157445742Y-81174499D01*
X157445740Y-81174498D01*
X157320069Y-81149500D01*
X157320066Y-81149500D01*
X149264069Y-81149500D01*
X147671164Y-81149500D01*
X147596664Y-81129538D01*
X147565805Y-81105859D01*
X146245831Y-79785885D01*
X160324500Y-79785885D01*
X160324500Y-79785886D01*
X160324500Y-79785890D01*
X160324500Y-82425616D01*
X160327414Y-82450739D01*
X160327415Y-82450742D01*
X160372793Y-82553514D01*
X160372794Y-82553515D01*
X160452235Y-82632956D01*
X160555009Y-82678335D01*
X160580135Y-82681250D01*
X163219864Y-82681249D01*
X163219866Y-82681249D01*
X163234816Y-82679515D01*
X163244991Y-82678335D01*
X163347765Y-82632956D01*
X163427206Y-82553515D01*
X163472585Y-82450741D01*
X163475500Y-82425615D01*
X163475499Y-81105745D01*
X165120023Y-81105745D01*
X165120023Y-81105754D01*
X165139902Y-81371030D01*
X165139905Y-81371052D01*
X165199099Y-81630399D01*
X165199101Y-81630406D01*
X165296294Y-81878048D01*
X165296296Y-81878053D01*
X165429313Y-82108444D01*
X165429318Y-82108452D01*
X165480084Y-82172110D01*
X166145884Y-81506309D01*
X166146740Y-81508376D01*
X166239762Y-81647594D01*
X166358156Y-81765988D01*
X166497374Y-81859010D01*
X166499438Y-81859865D01*
X165832841Y-82526461D01*
X166010016Y-82647257D01*
X166249691Y-82762679D01*
X166249715Y-82762689D01*
X166503908Y-82841096D01*
X166503914Y-82841098D01*
X166766979Y-82880749D01*
X166766984Y-82880750D01*
X167033016Y-82880750D01*
X167033020Y-82880749D01*
X167296085Y-82841098D01*
X167296091Y-82841096D01*
X167550284Y-82762689D01*
X167550308Y-82762679D01*
X167789986Y-82647256D01*
X167789998Y-82647249D01*
X167967158Y-82526462D01*
X167300561Y-81859865D01*
X167302626Y-81859010D01*
X167441844Y-81765988D01*
X167560238Y-81647594D01*
X167653260Y-81508376D01*
X167654115Y-81506311D01*
X168319914Y-82172110D01*
X168319915Y-82172110D01*
X168370679Y-82108456D01*
X168370684Y-82108448D01*
X168503703Y-81878053D01*
X168503705Y-81878048D01*
X168600898Y-81630406D01*
X168600900Y-81630399D01*
X168660094Y-81371052D01*
X168660097Y-81371030D01*
X168679977Y-81105754D01*
X168679977Y-81105745D01*
X168660097Y-80840469D01*
X168660094Y-80840447D01*
X168600900Y-80581100D01*
X168600898Y-80581093D01*
X168503705Y-80333451D01*
X168503703Y-80333446D01*
X168370686Y-80103055D01*
X168370681Y-80103047D01*
X168319914Y-80039388D01*
X167654114Y-80705187D01*
X167653260Y-80703124D01*
X167560238Y-80563906D01*
X167441844Y-80445512D01*
X167302626Y-80352490D01*
X167300559Y-80351634D01*
X167967157Y-79685037D01*
X167789989Y-79564245D01*
X167789988Y-79564244D01*
X167550308Y-79448820D01*
X167550284Y-79448810D01*
X167296091Y-79370403D01*
X167296085Y-79370401D01*
X167033020Y-79330750D01*
X166766979Y-79330750D01*
X166503914Y-79370401D01*
X166503908Y-79370403D01*
X166249715Y-79448810D01*
X166249691Y-79448820D01*
X166010013Y-79564244D01*
X165832841Y-79685036D01*
X165832841Y-79685037D01*
X166499438Y-80351634D01*
X166497374Y-80352490D01*
X166358156Y-80445512D01*
X166239762Y-80563906D01*
X166146740Y-80703124D01*
X166145884Y-80705189D01*
X165480083Y-80039388D01*
X165429317Y-80103048D01*
X165429314Y-80103053D01*
X165296296Y-80333446D01*
X165296294Y-80333451D01*
X165199101Y-80581093D01*
X165199099Y-80581100D01*
X165139905Y-80840447D01*
X165139902Y-80840469D01*
X165120023Y-81105745D01*
X163475499Y-81105745D01*
X163475499Y-79785886D01*
X163472585Y-79760759D01*
X163427206Y-79657985D01*
X163347765Y-79578544D01*
X163347764Y-79578543D01*
X163244994Y-79533166D01*
X163244991Y-79533165D01*
X163244982Y-79533164D01*
X163219865Y-79530250D01*
X163219859Y-79530250D01*
X160580133Y-79530250D01*
X160555010Y-79533164D01*
X160555007Y-79533165D01*
X160452235Y-79578543D01*
X160372793Y-79657985D01*
X160327416Y-79760755D01*
X160327415Y-79760758D01*
X160327415Y-79760759D01*
X160324500Y-79785885D01*
X146245831Y-79785885D01*
X145434918Y-78974972D01*
X145396354Y-78908177D01*
X145391913Y-78855865D01*
X145405429Y-78710004D01*
X145405429Y-78709995D01*
X145393064Y-78576558D01*
X145385756Y-78497690D01*
X145334056Y-78315989D01*
X145327406Y-78292614D01*
X145327405Y-78292612D01*
X145324368Y-78286512D01*
X145232366Y-78101745D01*
X145232364Y-78101743D01*
X145232363Y-78101740D01*
X145103872Y-77931593D01*
X144946302Y-77787948D01*
X144946301Y-77787947D01*
X144765022Y-77675703D01*
X144765016Y-77675700D01*
X144566204Y-77598681D01*
X144566200Y-77598680D01*
X144566198Y-77598679D01*
X144500846Y-77586462D01*
X144431284Y-77553151D01*
X144387696Y-77489521D01*
X144381763Y-77412621D01*
X144415075Y-77343058D01*
X144478705Y-77299470D01*
X144500843Y-77293537D01*
X144566198Y-77281321D01*
X144765019Y-77204298D01*
X144946302Y-77092052D01*
X145103872Y-76948407D01*
X145232366Y-76778255D01*
X145327405Y-76587389D01*
X145385756Y-76382310D01*
X145398016Y-76250000D01*
X172750000Y-76250000D01*
X177250000Y-76250000D01*
X177250000Y-71750000D01*
X172750000Y-71750000D01*
X172750000Y-76250000D01*
X145398016Y-76250000D01*
X145405429Y-76170000D01*
X145402354Y-76136818D01*
X145391529Y-76019988D01*
X145385756Y-75957690D01*
X145327405Y-75752611D01*
X145232366Y-75561745D01*
X145232364Y-75561743D01*
X145232363Y-75561740D01*
X145103872Y-75391593D01*
X144946302Y-75247948D01*
X144946301Y-75247947D01*
X144765022Y-75135703D01*
X144765016Y-75135700D01*
X144591388Y-75068437D01*
X144529130Y-75022911D01*
X144497976Y-74952355D01*
X144506275Y-74875674D01*
X144551801Y-74813416D01*
X144622357Y-74782262D01*
X144645209Y-74780499D01*
X145144864Y-74780499D01*
X145144867Y-74780499D01*
X145159940Y-74778750D01*
X145169991Y-74777585D01*
X145272765Y-74732206D01*
X145352206Y-74652765D01*
X145397585Y-74549991D01*
X145400500Y-74524865D01*
X145400499Y-72735136D01*
X145397585Y-72710009D01*
X145352206Y-72607235D01*
X145272765Y-72527794D01*
X145272764Y-72527793D01*
X145169994Y-72482416D01*
X145169991Y-72482415D01*
X145169982Y-72482414D01*
X145144865Y-72479500D01*
X145144859Y-72479500D01*
X145049500Y-72479500D01*
X144975000Y-72459538D01*
X144920462Y-72405000D01*
X144900500Y-72330500D01*
X144900500Y-71541935D01*
X144900499Y-71541927D01*
X144887050Y-71474318D01*
X144875501Y-71416256D01*
X144832512Y-71312472D01*
X144826468Y-71297880D01*
X144826467Y-71297879D01*
X144826465Y-71297873D01*
X144755276Y-71191331D01*
X144669695Y-71105750D01*
X157840398Y-71105750D01*
X157860758Y-71312468D01*
X157860758Y-71312470D01*
X157860759Y-71312472D01*
X157921056Y-71511245D01*
X158018966Y-71694421D01*
X158018969Y-71694426D01*
X158018973Y-71694433D01*
X158150748Y-71855002D01*
X158311317Y-71986777D01*
X158311326Y-71986782D01*
X158311328Y-71986783D01*
X158485718Y-72079997D01*
X158494508Y-72084695D01*
X158693282Y-72144992D01*
X158900000Y-72165352D01*
X159106718Y-72144992D01*
X159305492Y-72084695D01*
X159488683Y-71986777D01*
X159649252Y-71855002D01*
X159781027Y-71694433D01*
X159878945Y-71511242D01*
X159939242Y-71312468D01*
X159959602Y-71105750D01*
X168840398Y-71105750D01*
X168860758Y-71312468D01*
X168860758Y-71312470D01*
X168860759Y-71312472D01*
X168921056Y-71511245D01*
X169018966Y-71694421D01*
X169018969Y-71694426D01*
X169018973Y-71694433D01*
X169150748Y-71855002D01*
X169311317Y-71986777D01*
X169311326Y-71986782D01*
X169311328Y-71986783D01*
X169485718Y-72079997D01*
X169494508Y-72084695D01*
X169693282Y-72144992D01*
X169900000Y-72165352D01*
X170106718Y-72144992D01*
X170305492Y-72084695D01*
X170488683Y-71986777D01*
X170649252Y-71855002D01*
X170781027Y-71694433D01*
X170878945Y-71511242D01*
X170939242Y-71312468D01*
X170959602Y-71105750D01*
X170939242Y-70899032D01*
X170878945Y-70700258D01*
X170800331Y-70553183D01*
X170781033Y-70517078D01*
X170781032Y-70517076D01*
X170781027Y-70517067D01*
X170649252Y-70356498D01*
X170488683Y-70224723D01*
X170488676Y-70224719D01*
X170488671Y-70224716D01*
X170305495Y-70126806D01*
X170106722Y-70066509D01*
X170106720Y-70066508D01*
X170106718Y-70066508D01*
X169900000Y-70046148D01*
X169693282Y-70066508D01*
X169693279Y-70066508D01*
X169693277Y-70066509D01*
X169494504Y-70126806D01*
X169311328Y-70224716D01*
X169311314Y-70224725D01*
X169150749Y-70356496D01*
X169150746Y-70356499D01*
X169018975Y-70517064D01*
X169018966Y-70517078D01*
X168921056Y-70700254D01*
X168860759Y-70899027D01*
X168860758Y-70899029D01*
X168860758Y-70899032D01*
X168840398Y-71105750D01*
X159959602Y-71105750D01*
X159939242Y-70899032D01*
X159878945Y-70700258D01*
X159800331Y-70553183D01*
X159781033Y-70517078D01*
X159781032Y-70517076D01*
X159781027Y-70517067D01*
X159649252Y-70356498D01*
X159488683Y-70224723D01*
X159488676Y-70224719D01*
X159488671Y-70224716D01*
X159305495Y-70126806D01*
X159106722Y-70066509D01*
X159106720Y-70066508D01*
X159106718Y-70066508D01*
X158900000Y-70046148D01*
X158693282Y-70066508D01*
X158693279Y-70066508D01*
X158693277Y-70066509D01*
X158494504Y-70126806D01*
X158311328Y-70224716D01*
X158311314Y-70224725D01*
X158150749Y-70356496D01*
X158150746Y-70356499D01*
X158018975Y-70517064D01*
X158018966Y-70517078D01*
X157921056Y-70700254D01*
X157860759Y-70899027D01*
X157860758Y-70899029D01*
X157860758Y-70899032D01*
X157840398Y-71105750D01*
X144669695Y-71105750D01*
X144664669Y-71100724D01*
X143558669Y-69994723D01*
X143452127Y-69923535D01*
X143452123Y-69923533D01*
X143452121Y-69923532D01*
X143371668Y-69890207D01*
X143333744Y-69874499D01*
X143333742Y-69874498D01*
X143333743Y-69874498D01*
X143208072Y-69849500D01*
X143208069Y-69849500D01*
X123508069Y-69849500D01*
X117860933Y-69849500D01*
X117860929Y-69849500D01*
X117735258Y-69874498D01*
X117735257Y-69874499D01*
X117620422Y-69922066D01*
X117620412Y-69922070D01*
X117616876Y-69923534D01*
X117510334Y-69994722D01*
X117510332Y-69994723D01*
X116659689Y-70845365D01*
X116603543Y-70880644D01*
X116550478Y-70899212D01*
X116397738Y-70995186D01*
X116312063Y-71080861D01*
X116245268Y-71119425D01*
X116206704Y-71124502D01*
X114720991Y-71124502D01*
X114619131Y-71151795D01*
X114619129Y-71151795D01*
X114619129Y-71151796D01*
X114566868Y-71181969D01*
X114566867Y-71181969D01*
X114527809Y-71204518D01*
X114527804Y-71204522D01*
X112653236Y-73079091D01*
X112653233Y-73079095D01*
X112600512Y-73170410D01*
X112573218Y-73272272D01*
X112573218Y-77758650D01*
X112553256Y-77833150D01*
X112542428Y-77849355D01*
X112449181Y-77970877D01*
X112388672Y-78116960D01*
X112368036Y-78273715D01*
X112368036Y-78273720D01*
X112388672Y-78430475D01*
X112449181Y-78576558D01*
X112531758Y-78684174D01*
X112545436Y-78702000D01*
X112670877Y-78798254D01*
X112816956Y-78858762D01*
X112816959Y-78858762D01*
X112816961Y-78858763D01*
X112816958Y-78858763D01*
X112973715Y-78879400D01*
X112973718Y-78879400D01*
X112973721Y-78879400D01*
X113130475Y-78858763D01*
X113130476Y-78858762D01*
X113130480Y-78858762D01*
X113276559Y-78798254D01*
X113402000Y-78702000D01*
X113498254Y-78576559D01*
X113558762Y-78430480D01*
X113569371Y-78349901D01*
X113579400Y-78273720D01*
X113579400Y-78273715D01*
X113558763Y-78116960D01*
X113558762Y-78116958D01*
X113558762Y-78116956D01*
X113498254Y-77970877D01*
X113405008Y-77849355D01*
X113375493Y-77778097D01*
X113374218Y-77758650D01*
X113374218Y-73552613D01*
X113394180Y-73478113D01*
X113417859Y-73447254D01*
X114895970Y-71969143D01*
X114962765Y-71930579D01*
X115001329Y-71925502D01*
X116061059Y-71925502D01*
X116135559Y-71945464D01*
X116187220Y-71995228D01*
X116270184Y-72127264D01*
X116397738Y-72254818D01*
X116550478Y-72350791D01*
X116720745Y-72410370D01*
X116810372Y-72420468D01*
X116899999Y-72430567D01*
X116900000Y-72430567D01*
X116900001Y-72430567D01*
X116944813Y-72425517D01*
X117079255Y-72410370D01*
X117249522Y-72350791D01*
X117402262Y-72254818D01*
X117529816Y-72127264D01*
X117625789Y-71974524D01*
X117685368Y-71804257D01*
X117697900Y-71693017D01*
X117726077Y-71621223D01*
X117740597Y-71604349D01*
X118150807Y-71194141D01*
X118217602Y-71155577D01*
X118256166Y-71150500D01*
X121867388Y-71150500D01*
X121941888Y-71170462D01*
X121996426Y-71225000D01*
X122016388Y-71299500D01*
X121996426Y-71374000D01*
X121972745Y-71404861D01*
X121945007Y-71432598D01*
X121878211Y-71471161D01*
X121859099Y-71474962D01*
X121707241Y-71494954D01*
X121561159Y-71555463D01*
X121435718Y-71651717D01*
X121435717Y-71651718D01*
X121339463Y-71777159D01*
X121278954Y-71923242D01*
X121258318Y-72079997D01*
X121258318Y-72080002D01*
X121278954Y-72236757D01*
X121339463Y-72382840D01*
X121415870Y-72482415D01*
X121435718Y-72508282D01*
X121561159Y-72604536D01*
X121707238Y-72665044D01*
X121707241Y-72665044D01*
X121707243Y-72665045D01*
X121707240Y-72665045D01*
X121863997Y-72685682D01*
X121864000Y-72685682D01*
X121864003Y-72685682D01*
X122020757Y-72665045D01*
X122020758Y-72665044D01*
X122020762Y-72665044D01*
X122166841Y-72604536D01*
X122292282Y-72508282D01*
X122388536Y-72382841D01*
X122449044Y-72236762D01*
X122458446Y-72165351D01*
X122469037Y-72084899D01*
X122498552Y-72013642D01*
X122511395Y-71998996D01*
X123316252Y-71194141D01*
X123383047Y-71155577D01*
X123421611Y-71150500D01*
X142812836Y-71150500D01*
X142887336Y-71170462D01*
X142918195Y-71194141D01*
X143555859Y-71831804D01*
X143594423Y-71898599D01*
X143599500Y-71937163D01*
X143599500Y-72330500D01*
X143579538Y-72405000D01*
X143525000Y-72459538D01*
X143450501Y-72479500D01*
X143355132Y-72479500D01*
X143330010Y-72482414D01*
X143330007Y-72482415D01*
X143227235Y-72527793D01*
X143147794Y-72607234D01*
X143109511Y-72693937D01*
X143061157Y-72754026D01*
X142989237Y-72781887D01*
X142913022Y-72770056D01*
X142852933Y-72721702D01*
X142833602Y-72685822D01*
X142793354Y-72577915D01*
X142793349Y-72577905D01*
X142707190Y-72462812D01*
X142707187Y-72462809D01*
X142592094Y-72376650D01*
X142592084Y-72376645D01*
X142457376Y-72326401D01*
X142457378Y-72326401D01*
X142397842Y-72320001D01*
X142397823Y-72320000D01*
X141750000Y-72320000D01*
X141750000Y-73236988D01*
X141692993Y-73204075D01*
X141565826Y-73170000D01*
X141434174Y-73170000D01*
X141307007Y-73204075D01*
X141250000Y-73236988D01*
X141250000Y-72320000D01*
X140602177Y-72320000D01*
X140602157Y-72320001D01*
X140542622Y-72326401D01*
X140407915Y-72376645D01*
X140407905Y-72376650D01*
X140292812Y-72462809D01*
X140292809Y-72462812D01*
X140206650Y-72577905D01*
X140206645Y-72577915D01*
X140156401Y-72712622D01*
X140150001Y-72772157D01*
X140150000Y-72772177D01*
X140150000Y-73420000D01*
X141066988Y-73420000D01*
X141034075Y-73477007D01*
X141000000Y-73604174D01*
X141000000Y-73735826D01*
X141034075Y-73862993D01*
X141066988Y-73920000D01*
X140150000Y-73920000D01*
X140150000Y-74567822D01*
X140150001Y-74567842D01*
X140156401Y-74627377D01*
X140206645Y-74762084D01*
X140206650Y-74762094D01*
X140292809Y-74877187D01*
X140292812Y-74877190D01*
X140407905Y-74963349D01*
X140407909Y-74963351D01*
X140503538Y-74999019D01*
X140566365Y-75043758D01*
X140598405Y-75113916D01*
X140591074Y-75190695D01*
X140556827Y-75243983D01*
X140461894Y-75338916D01*
X140326402Y-75532419D01*
X140226568Y-75746512D01*
X140169364Y-75959999D01*
X140169364Y-75960000D01*
X141066988Y-75960000D01*
X141034075Y-76017007D01*
X141000000Y-76144174D01*
X141000000Y-76275826D01*
X141034075Y-76402993D01*
X141066988Y-76460000D01*
X140169364Y-76460000D01*
X140226568Y-76673489D01*
X140226569Y-76673491D01*
X140326400Y-76887579D01*
X140326406Y-76887588D01*
X140461888Y-77081076D01*
X140628923Y-77248111D01*
X140785784Y-77357947D01*
X140835361Y-77417030D01*
X140848754Y-77492987D01*
X140822374Y-77565463D01*
X140785784Y-77602053D01*
X140628923Y-77711888D01*
X140461891Y-77878920D01*
X140326402Y-78072419D01*
X140226568Y-78286512D01*
X140169364Y-78499999D01*
X140169364Y-78500000D01*
X141066988Y-78500000D01*
X141034075Y-78557007D01*
X141000000Y-78684174D01*
X141000000Y-78815826D01*
X141034075Y-78942993D01*
X141066988Y-79000000D01*
X140169364Y-79000000D01*
X140226568Y-79213489D01*
X140226569Y-79213491D01*
X140326400Y-79427579D01*
X140326406Y-79427588D01*
X140461888Y-79621076D01*
X140628923Y-79788111D01*
X140822411Y-79923593D01*
X140822420Y-79923599D01*
X141036508Y-80023430D01*
X141036513Y-80023432D01*
X141250000Y-80080634D01*
X141250000Y-79183012D01*
X141307007Y-79215925D01*
X141434174Y-79250000D01*
X141565826Y-79250000D01*
X141692993Y-79215925D01*
X141750000Y-79183012D01*
X141750000Y-80080633D01*
X141963486Y-80023432D01*
X141963491Y-80023430D01*
X142177579Y-79923599D01*
X142177588Y-79923593D01*
X142371076Y-79788111D01*
X142538111Y-79621076D01*
X142673593Y-79427588D01*
X142673599Y-79427579D01*
X142773430Y-79213491D01*
X142773431Y-79213489D01*
X142834568Y-78985321D01*
X142835698Y-78978918D01*
X142838265Y-78979370D01*
X142860440Y-78918388D01*
X142919508Y-78868792D01*
X142995461Y-78855376D01*
X143067945Y-78881733D01*
X143117541Y-78940801D01*
X143125832Y-78963037D01*
X143172593Y-79127385D01*
X143172594Y-79127387D01*
X143267636Y-79318259D01*
X143396127Y-79488406D01*
X143553697Y-79632051D01*
X143553698Y-79632052D01*
X143734977Y-79744296D01*
X143734983Y-79744299D01*
X143822189Y-79778082D01*
X143933802Y-79821321D01*
X144143390Y-79860500D01*
X144143393Y-79860500D01*
X144356608Y-79860500D01*
X144356610Y-79860500D01*
X144356612Y-79860499D01*
X144356617Y-79860499D01*
X144383828Y-79855412D01*
X144460728Y-79861343D01*
X144516569Y-79896515D01*
X146925331Y-82305277D01*
X147019584Y-82368254D01*
X147019587Y-82368257D01*
X147025292Y-82372068D01*
X147031873Y-82376465D01*
X147031875Y-82376466D01*
X147031874Y-82376466D01*
X147123436Y-82414391D01*
X147150256Y-82425501D01*
X147275931Y-82450500D01*
X149135931Y-82450500D01*
X149151679Y-82450500D01*
X149226179Y-82470462D01*
X149257038Y-82494141D01*
X151505859Y-84742962D01*
X151544423Y-84809757D01*
X151549500Y-84848321D01*
X151549500Y-92551397D01*
X151529538Y-92625897D01*
X151475000Y-92680435D01*
X151400500Y-92700397D01*
X151326000Y-92680435D01*
X151282291Y-92642103D01*
X151228284Y-92571720D01*
X151228281Y-92571717D01*
X151102840Y-92475463D01*
X151022944Y-92442369D01*
X150956762Y-92414956D01*
X150956760Y-92414955D01*
X150956756Y-92414954D01*
X150956759Y-92414954D01*
X150804899Y-92394962D01*
X150733641Y-92365447D01*
X150718988Y-92352596D01*
X148557006Y-90190614D01*
X146345913Y-87979520D01*
X146345910Y-87979518D01*
X146345906Y-87979515D01*
X146254591Y-87926794D01*
X146254588Y-87926793D01*
X146227295Y-87919480D01*
X146152729Y-87899500D01*
X146152727Y-87899500D01*
X139107493Y-87899500D01*
X139032993Y-87879538D01*
X138978455Y-87825000D01*
X138958493Y-87750500D01*
X138969834Y-87693482D01*
X138985044Y-87656762D01*
X138986145Y-87648405D01*
X139005682Y-87500002D01*
X139005682Y-87499997D01*
X138985045Y-87343242D01*
X138985044Y-87343240D01*
X138985044Y-87343238D01*
X138924536Y-87197159D01*
X138828282Y-87071718D01*
X138792930Y-87044591D01*
X138702840Y-86975463D01*
X138556758Y-86914954D01*
X138404899Y-86894962D01*
X138333642Y-86865447D01*
X138318989Y-86852596D01*
X138234141Y-86767748D01*
X138195577Y-86700953D01*
X138190500Y-86662389D01*
X138190500Y-78299499D01*
X138210462Y-78224999D01*
X138265000Y-78170461D01*
X138339500Y-78150499D01*
X138684867Y-78150499D01*
X138699940Y-78148750D01*
X138709991Y-78147585D01*
X138812765Y-78102206D01*
X138892206Y-78022765D01*
X138937585Y-77919991D01*
X138940500Y-77894865D01*
X138940499Y-76105136D01*
X138937585Y-76080009D01*
X138892206Y-75977235D01*
X138812765Y-75897794D01*
X138812764Y-75897793D01*
X138709994Y-75852416D01*
X138709991Y-75852415D01*
X138709982Y-75852414D01*
X138684865Y-75849500D01*
X138684859Y-75849500D01*
X136895133Y-75849500D01*
X136870010Y-75852414D01*
X136870007Y-75852415D01*
X136767235Y-75897793D01*
X136687793Y-75977235D01*
X136642416Y-76080005D01*
X136642415Y-76080008D01*
X136641929Y-76084196D01*
X136639500Y-76105135D01*
X136639500Y-76105136D01*
X136639500Y-76105140D01*
X136639500Y-76611364D01*
X136619538Y-76685864D01*
X136565000Y-76740402D01*
X136490500Y-76760364D01*
X136416000Y-76740402D01*
X136361462Y-76685864D01*
X136347188Y-76652140D01*
X136327406Y-76582614D01*
X136327405Y-76582612D01*
X136294738Y-76517007D01*
X136232366Y-76391745D01*
X136232364Y-76391743D01*
X136232363Y-76391740D01*
X136103872Y-76221593D01*
X135946302Y-76077948D01*
X135946301Y-76077947D01*
X135765022Y-75965703D01*
X135765016Y-75965700D01*
X135566204Y-75888681D01*
X135566200Y-75888680D01*
X135566198Y-75888679D01*
X135524280Y-75880843D01*
X135356614Y-75849500D01*
X135356610Y-75849500D01*
X135143390Y-75849500D01*
X135143385Y-75849500D01*
X134933802Y-75888679D01*
X134933795Y-75888681D01*
X134734983Y-75965700D01*
X134734976Y-75965704D01*
X134727933Y-75970065D01*
X134654082Y-75992309D01*
X134579004Y-75974647D01*
X134522814Y-75921812D01*
X134500570Y-75847961D01*
X134500500Y-75843379D01*
X134500500Y-75627610D01*
X134520462Y-75553110D01*
X134544141Y-75522251D01*
X134700289Y-75366102D01*
X134767082Y-75327540D01*
X134844210Y-75327540D01*
X134859463Y-75332522D01*
X134933802Y-75361321D01*
X135143390Y-75400500D01*
X135143393Y-75400500D01*
X135356607Y-75400500D01*
X135356610Y-75400500D01*
X135566198Y-75361321D01*
X135765019Y-75284298D01*
X135946302Y-75172052D01*
X136103872Y-75028407D01*
X136232366Y-74858255D01*
X136327405Y-74667389D01*
X136347188Y-74597857D01*
X136386775Y-74531665D01*
X136454155Y-74494134D01*
X136531274Y-74495321D01*
X136597468Y-74534908D01*
X136634999Y-74602288D01*
X136639500Y-74638633D01*
X136639500Y-75144866D01*
X136642414Y-75169989D01*
X136642415Y-75169992D01*
X136687793Y-75272764D01*
X136687794Y-75272765D01*
X136767235Y-75352206D01*
X136870009Y-75397585D01*
X136895135Y-75400500D01*
X138684864Y-75400499D01*
X138684866Y-75400499D01*
X138697427Y-75399042D01*
X138709991Y-75397585D01*
X138812765Y-75352206D01*
X138892206Y-75272765D01*
X138937585Y-75169991D01*
X138940500Y-75144865D01*
X138940499Y-73355136D01*
X138937585Y-73330009D01*
X138892206Y-73227235D01*
X138812765Y-73147794D01*
X138812764Y-73147793D01*
X138709994Y-73102416D01*
X138709991Y-73102415D01*
X138709982Y-73102414D01*
X138684865Y-73099500D01*
X138684859Y-73099500D01*
X136895133Y-73099500D01*
X136870010Y-73102414D01*
X136870007Y-73102415D01*
X136767235Y-73147793D01*
X136687793Y-73227235D01*
X136642416Y-73330005D01*
X136642415Y-73330008D01*
X136642415Y-73330009D01*
X136639500Y-73355135D01*
X136639500Y-73355136D01*
X136639500Y-73355140D01*
X136639500Y-73861364D01*
X136619538Y-73935864D01*
X136565000Y-73990402D01*
X136490500Y-74010364D01*
X136416000Y-73990402D01*
X136361462Y-73935864D01*
X136347188Y-73902140D01*
X136327406Y-73832614D01*
X136327405Y-73832612D01*
X136327405Y-73832611D01*
X136232366Y-73641745D01*
X136232364Y-73641743D01*
X136232363Y-73641740D01*
X136103872Y-73471593D01*
X135946302Y-73327948D01*
X135946301Y-73327947D01*
X135765022Y-73215703D01*
X135765016Y-73215700D01*
X135566204Y-73138681D01*
X135566200Y-73138680D01*
X135566198Y-73138679D01*
X135524280Y-73130843D01*
X135356614Y-73099500D01*
X135356610Y-73099500D01*
X135143390Y-73099500D01*
X135143385Y-73099500D01*
X134933802Y-73138679D01*
X134933795Y-73138681D01*
X134734983Y-73215700D01*
X134734977Y-73215703D01*
X134553698Y-73327947D01*
X134553697Y-73327948D01*
X134396127Y-73471593D01*
X134267636Y-73641740D01*
X134172594Y-73832612D01*
X134172593Y-73832614D01*
X134123312Y-74005820D01*
X134083724Y-74072013D01*
X134016343Y-74109544D01*
X133939224Y-74108356D01*
X133873031Y-74068768D01*
X133836688Y-74005820D01*
X133834106Y-73996747D01*
X133787405Y-73832611D01*
X133692366Y-73641745D01*
X133692364Y-73641743D01*
X133692363Y-73641740D01*
X133563872Y-73471593D01*
X133406302Y-73327948D01*
X133406301Y-73327947D01*
X133225022Y-73215703D01*
X133225016Y-73215700D01*
X133026204Y-73138681D01*
X133026200Y-73138680D01*
X133026198Y-73138679D01*
X132984280Y-73130843D01*
X132816614Y-73099500D01*
X132816610Y-73099500D01*
X132603390Y-73099500D01*
X132603385Y-73099500D01*
X132393802Y-73138679D01*
X132393795Y-73138681D01*
X132194983Y-73215700D01*
X132194977Y-73215703D01*
X132013698Y-73327947D01*
X132013697Y-73327948D01*
X131856127Y-73471593D01*
X131727636Y-73641740D01*
X131632594Y-73832612D01*
X131632593Y-73832614D01*
X131583312Y-74005820D01*
X131543724Y-74072013D01*
X131476343Y-74109544D01*
X131399224Y-74108356D01*
X131333031Y-74068768D01*
X131296688Y-74005820D01*
X131294106Y-73996747D01*
X131247405Y-73832611D01*
X131152366Y-73641745D01*
X131152364Y-73641743D01*
X131152363Y-73641740D01*
X131023872Y-73471593D01*
X130866302Y-73327948D01*
X130866301Y-73327947D01*
X130685022Y-73215703D01*
X130685016Y-73215700D01*
X130486204Y-73138681D01*
X130486200Y-73138680D01*
X130486198Y-73138679D01*
X130444280Y-73130843D01*
X130276614Y-73099500D01*
X130276610Y-73099500D01*
X130063390Y-73099500D01*
X130063385Y-73099500D01*
X129853802Y-73138679D01*
X129853795Y-73138681D01*
X129654983Y-73215700D01*
X129654977Y-73215703D01*
X129473698Y-73327947D01*
X129473697Y-73327948D01*
X129316127Y-73471593D01*
X129187636Y-73641740D01*
X129092594Y-73832612D01*
X129092593Y-73832614D01*
X129034243Y-74037694D01*
X129014571Y-74249995D01*
X129014571Y-74250004D01*
X129034243Y-74462305D01*
X129092593Y-74667385D01*
X129092594Y-74667387D01*
X129187636Y-74858259D01*
X129266834Y-74963133D01*
X129295801Y-75034615D01*
X129285145Y-75111004D01*
X129253289Y-75158285D01*
X120279518Y-84132057D01*
X120279515Y-84132061D01*
X120226794Y-84223376D01*
X120226793Y-84223380D01*
X120199997Y-84323386D01*
X120199500Y-84325241D01*
X120199500Y-84325243D01*
X120199500Y-86172389D01*
X120179538Y-86246889D01*
X120155859Y-86277748D01*
X117877748Y-88555859D01*
X117810953Y-88594423D01*
X117772389Y-88599500D01*
X116947270Y-88599500D01*
X116845408Y-88626794D01*
X116754093Y-88679515D01*
X116754089Y-88679518D01*
X116079518Y-89354089D01*
X116079515Y-89354093D01*
X116026793Y-89445410D01*
X116023454Y-89453472D01*
X115976502Y-89514662D01*
X115905244Y-89544177D01*
X115828776Y-89534110D01*
X115785418Y-89506567D01*
X115776041Y-89498019D01*
X115776036Y-89498015D01*
X115602643Y-89390655D01*
X115602632Y-89390649D01*
X115412462Y-89316978D01*
X115412458Y-89316977D01*
X115412456Y-89316976D01*
X115372360Y-89309480D01*
X115211980Y-89279500D01*
X115211976Y-89279500D01*
X115008024Y-89279500D01*
X115008019Y-89279500D01*
X114807544Y-89316976D01*
X114807537Y-89316978D01*
X114617367Y-89390649D01*
X114617356Y-89390655D01*
X114443963Y-89498015D01*
X114443958Y-89498019D01*
X114293234Y-89635423D01*
X114170328Y-89798176D01*
X114079416Y-89980754D01*
X114023602Y-90176921D01*
X114004785Y-90379995D01*
X114004785Y-90380004D01*
X114023602Y-90583078D01*
X114023602Y-90583080D01*
X114023603Y-90583083D01*
X114035530Y-90625000D01*
X114079416Y-90779246D01*
X114079417Y-90779248D01*
X114141457Y-90903842D01*
X114156794Y-90979429D01*
X114132283Y-91052559D01*
X114074491Y-91103636D01*
X113998904Y-91118973D01*
X113925774Y-91094462D01*
X113902718Y-91075615D01*
X113663775Y-90836672D01*
X113625211Y-90769877D01*
X113625211Y-90692749D01*
X113625799Y-90690619D01*
X113656397Y-90583083D01*
X113657103Y-90575463D01*
X113675215Y-90380004D01*
X113675215Y-90379995D01*
X113658909Y-90204025D01*
X113656397Y-90176917D01*
X113600582Y-89980750D01*
X113509673Y-89798179D01*
X113386764Y-89635421D01*
X113236041Y-89498019D01*
X113236036Y-89498015D01*
X113062643Y-89390655D01*
X113062632Y-89390649D01*
X112872462Y-89316978D01*
X112872458Y-89316977D01*
X112872456Y-89316976D01*
X112832360Y-89309480D01*
X112671980Y-89279500D01*
X112671976Y-89279500D01*
X112468024Y-89279500D01*
X112468019Y-89279500D01*
X112267544Y-89316976D01*
X112267537Y-89316978D01*
X112077367Y-89390649D01*
X112077356Y-89390655D01*
X111903963Y-89498015D01*
X111903958Y-89498019D01*
X111753234Y-89635423D01*
X111630325Y-89798180D01*
X111538964Y-89981661D01*
X111487888Y-90039453D01*
X111414758Y-90063963D01*
X111339170Y-90048625D01*
X111281378Y-89997549D01*
X111261662Y-89953810D01*
X111256267Y-89933676D01*
X111256266Y-89933674D01*
X111160132Y-89727515D01*
X111160129Y-89727509D01*
X111109025Y-89654526D01*
X110553787Y-90209764D01*
X110542518Y-90167708D01*
X110470110Y-90042292D01*
X110367708Y-89939890D01*
X110242292Y-89867482D01*
X110200232Y-89856212D01*
X110755472Y-89300973D01*
X110682492Y-89249872D01*
X110682483Y-89249866D01*
X110476325Y-89153733D01*
X110476323Y-89153732D01*
X110256605Y-89094859D01*
X110256606Y-89094859D01*
X110030000Y-89075034D01*
X109803393Y-89094859D01*
X109583676Y-89153732D01*
X109583674Y-89153733D01*
X109377522Y-89249862D01*
X109377517Y-89249865D01*
X109304527Y-89300974D01*
X109859765Y-89856212D01*
X109817708Y-89867482D01*
X109692292Y-89939890D01*
X109589890Y-90042292D01*
X109517482Y-90167708D01*
X109506212Y-90209765D01*
X108950973Y-89654527D01*
X108899865Y-89727517D01*
X108899862Y-89727522D01*
X108803733Y-89933674D01*
X108803733Y-89933675D01*
X108798336Y-89953815D01*
X108759769Y-90020609D01*
X108692973Y-90059170D01*
X108615845Y-90059168D01*
X108549051Y-90020601D01*
X108521034Y-89981660D01*
X108520583Y-89980754D01*
X108520582Y-89980750D01*
X108429673Y-89798179D01*
X108306764Y-89635421D01*
X108156041Y-89498019D01*
X108156036Y-89498015D01*
X107982643Y-89390655D01*
X107982632Y-89390649D01*
X107792462Y-89316978D01*
X107792458Y-89316977D01*
X107792456Y-89316976D01*
X107752360Y-89309480D01*
X107591980Y-89279500D01*
X107591976Y-89279500D01*
X107388024Y-89279500D01*
X107388019Y-89279500D01*
X107187544Y-89316976D01*
X107187537Y-89316978D01*
X106997367Y-89390649D01*
X106997356Y-89390655D01*
X106823963Y-89498015D01*
X106823958Y-89498019D01*
X106673234Y-89635423D01*
X106550328Y-89798176D01*
X106459416Y-89980754D01*
X106403602Y-90176921D01*
X106384785Y-90379995D01*
X106384785Y-90380004D01*
X106403602Y-90583078D01*
X106403602Y-90583080D01*
X106403603Y-90583083D01*
X106415530Y-90625000D01*
X106459416Y-90779245D01*
X106459417Y-90779247D01*
X106459418Y-90779250D01*
X106521457Y-90903842D01*
X106550328Y-90961823D01*
X106603688Y-91032483D01*
X106673236Y-91124579D01*
X106811365Y-91250500D01*
X106823958Y-91261980D01*
X106823963Y-91261984D01*
X106997356Y-91369344D01*
X106997367Y-91369350D01*
X107083816Y-91402840D01*
X107187544Y-91443024D01*
X107388024Y-91480500D01*
X107388027Y-91480500D01*
X107591973Y-91480500D01*
X107591976Y-91480500D01*
X107792456Y-91443024D01*
X107968047Y-91375000D01*
X107982632Y-91369350D01*
X107982632Y-91369349D01*
X107982637Y-91369348D01*
X108156041Y-91261981D01*
X108306764Y-91124579D01*
X108429673Y-90961821D01*
X108520582Y-90779250D01*
X108520584Y-90779242D01*
X108521034Y-90778339D01*
X108572111Y-90720547D01*
X108645240Y-90696036D01*
X108720828Y-90711373D01*
X108778620Y-90762450D01*
X108798336Y-90806185D01*
X108803732Y-90826322D01*
X108803733Y-90826325D01*
X108899866Y-91032483D01*
X108899872Y-91032492D01*
X108950973Y-91105471D01*
X109506212Y-90550232D01*
X109517482Y-90592292D01*
X109589890Y-90717708D01*
X109692292Y-90820110D01*
X109817708Y-90892518D01*
X109859765Y-90903787D01*
X109304526Y-91459025D01*
X109377509Y-91510129D01*
X109377515Y-91510132D01*
X109583674Y-91606266D01*
X109583676Y-91606267D01*
X109803394Y-91665140D01*
X109803393Y-91665140D01*
X110030000Y-91684965D01*
X110256606Y-91665140D01*
X110476323Y-91606267D01*
X110476325Y-91606266D01*
X110682478Y-91510136D01*
X110682484Y-91510132D01*
X110755471Y-91459024D01*
X110200234Y-90903787D01*
X110242292Y-90892518D01*
X110367708Y-90820110D01*
X110470110Y-90717708D01*
X110542518Y-90592292D01*
X110553787Y-90550234D01*
X111109024Y-91105471D01*
X111160132Y-91032484D01*
X111160136Y-91032478D01*
X111256266Y-90826325D01*
X111256268Y-90826321D01*
X111261662Y-90806190D01*
X111300225Y-90739395D01*
X111367020Y-90700830D01*
X111444148Y-90700830D01*
X111510943Y-90739393D01*
X111538965Y-90778339D01*
X111539417Y-90779246D01*
X111539418Y-90779250D01*
X111630327Y-90961821D01*
X111753236Y-91124579D01*
X111891365Y-91250500D01*
X111903958Y-91261980D01*
X111903963Y-91261984D01*
X112077356Y-91369344D01*
X112077367Y-91369350D01*
X112163816Y-91402840D01*
X112267544Y-91443024D01*
X112468024Y-91480500D01*
X112468027Y-91480500D01*
X112671973Y-91480500D01*
X112671976Y-91480500D01*
X112872456Y-91443024D01*
X112872459Y-91443022D01*
X112872463Y-91443022D01*
X112879087Y-91441138D01*
X112879528Y-91442690D01*
X112947592Y-91435323D01*
X113018149Y-91466475D01*
X113030098Y-91477201D01*
X124950886Y-103397989D01*
X124989450Y-103464784D01*
X124989450Y-103541912D01*
X124950886Y-103608707D01*
X124936234Y-103621557D01*
X124919908Y-103634085D01*
X124878456Y-103665891D01*
X124807201Y-103695407D01*
X124787751Y-103696682D01*
X121660088Y-103696682D01*
X121558226Y-103723976D01*
X121466911Y-103776697D01*
X121466907Y-103776700D01*
X120701063Y-104542542D01*
X120634268Y-104581106D01*
X120557140Y-104581106D01*
X120541882Y-104576122D01*
X120492464Y-104556978D01*
X120492457Y-104556976D01*
X120492456Y-104556976D01*
X120452360Y-104549480D01*
X120291980Y-104519500D01*
X120291976Y-104519500D01*
X120088024Y-104519500D01*
X120088019Y-104519500D01*
X119887544Y-104556976D01*
X119887537Y-104556978D01*
X119697367Y-104630649D01*
X119697356Y-104630655D01*
X119523963Y-104738015D01*
X119523958Y-104738019D01*
X119480605Y-104777541D01*
X119387713Y-104862224D01*
X119373234Y-104875423D01*
X119250328Y-105038176D01*
X119159416Y-105220754D01*
X119103602Y-105416921D01*
X119084785Y-105619995D01*
X119084785Y-105620004D01*
X119103602Y-105823078D01*
X119103602Y-105823080D01*
X119103603Y-105823083D01*
X119110296Y-105846606D01*
X119159416Y-106019245D01*
X119159417Y-106019247D01*
X119159418Y-106019250D01*
X119219298Y-106139505D01*
X119250328Y-106201823D01*
X119303688Y-106272483D01*
X119373236Y-106364579D01*
X119474464Y-106456860D01*
X119523958Y-106501980D01*
X119523963Y-106501984D01*
X119697356Y-106609344D01*
X119697367Y-106609350D01*
X119813332Y-106654274D01*
X119887544Y-106683024D01*
X120088024Y-106720500D01*
X120088027Y-106720500D01*
X120291973Y-106720500D01*
X120291976Y-106720500D01*
X120492456Y-106683024D01*
X120682637Y-106609348D01*
X120856041Y-106501981D01*
X121006764Y-106364579D01*
X121129673Y-106201821D01*
X121220582Y-106019250D01*
X121276397Y-105823083D01*
X121286851Y-105710259D01*
X121295215Y-105620004D01*
X121295215Y-105619995D01*
X121280878Y-105465281D01*
X121276397Y-105416917D01*
X121230159Y-105254412D01*
X121228972Y-105177294D01*
X121266503Y-105109913D01*
X121268042Y-105108350D01*
X121666918Y-104709474D01*
X121733712Y-104670911D01*
X121810840Y-104670911D01*
X121877635Y-104709475D01*
X121916199Y-104776270D01*
X121916199Y-104853398D01*
X121891181Y-104904626D01*
X121790328Y-105038176D01*
X121699416Y-105220754D01*
X121643602Y-105416921D01*
X121624785Y-105619995D01*
X121624785Y-105620004D01*
X121643602Y-105823078D01*
X121643602Y-105823080D01*
X121643603Y-105823083D01*
X121650296Y-105846606D01*
X121699416Y-106019245D01*
X121699417Y-106019247D01*
X121699418Y-106019250D01*
X121759298Y-106139505D01*
X121790328Y-106201823D01*
X121843688Y-106272483D01*
X121913236Y-106364579D01*
X122014464Y-106456860D01*
X122063958Y-106501980D01*
X122063963Y-106501984D01*
X122237356Y-106609344D01*
X122237367Y-106609350D01*
X122353332Y-106654274D01*
X122427544Y-106683024D01*
X122628024Y-106720500D01*
X122628027Y-106720500D01*
X122831973Y-106720500D01*
X122831976Y-106720500D01*
X123032456Y-106683024D01*
X123222637Y-106609348D01*
X123396041Y-106501981D01*
X123546764Y-106364579D01*
X123669673Y-106201821D01*
X123760582Y-106019250D01*
X123816397Y-105823083D01*
X123826851Y-105710259D01*
X123835215Y-105620004D01*
X123835215Y-105619995D01*
X123820878Y-105465281D01*
X123816397Y-105416917D01*
X123760582Y-105220750D01*
X123669673Y-105038179D01*
X123546764Y-104875421D01*
X123416635Y-104756793D01*
X123375029Y-104691851D01*
X123371467Y-104614806D01*
X123406905Y-104546301D01*
X123471848Y-104504694D01*
X123517017Y-104497682D01*
X124482983Y-104497682D01*
X124557483Y-104517644D01*
X124612021Y-104572182D01*
X124631983Y-104646682D01*
X124612021Y-104721182D01*
X124583364Y-104756793D01*
X124454795Y-104874000D01*
X124453234Y-104875423D01*
X124330328Y-105038176D01*
X124239416Y-105220754D01*
X124183602Y-105416921D01*
X124164785Y-105619995D01*
X124164785Y-105620004D01*
X124183602Y-105823078D01*
X124183602Y-105823080D01*
X124183603Y-105823083D01*
X124190296Y-105846606D01*
X124239416Y-106019245D01*
X124239417Y-106019247D01*
X124239418Y-106019250D01*
X124299298Y-106139505D01*
X124330328Y-106201823D01*
X124383688Y-106272483D01*
X124453236Y-106364579D01*
X124554464Y-106456860D01*
X124603958Y-106501980D01*
X124603963Y-106501984D01*
X124777356Y-106609344D01*
X124777367Y-106609350D01*
X124893332Y-106654274D01*
X124967544Y-106683024D01*
X125077881Y-106703649D01*
X125147441Y-106736959D01*
X125191030Y-106800589D01*
X125199500Y-106850111D01*
X125199500Y-112084932D01*
X125179538Y-112159432D01*
X125168710Y-112175637D01*
X125075463Y-112297159D01*
X125014954Y-112443242D01*
X124994318Y-112599997D01*
X124994318Y-112600002D01*
X125014954Y-112756759D01*
X125061092Y-112868146D01*
X125071159Y-112944614D01*
X125041643Y-113015871D01*
X124997937Y-113054201D01*
X124954093Y-113079515D01*
X124954089Y-113079518D01*
X124481009Y-113552596D01*
X124414214Y-113591160D01*
X124395099Y-113594962D01*
X124243241Y-113614954D01*
X124097159Y-113675463D01*
X123971718Y-113771717D01*
X123971715Y-113771720D01*
X123886886Y-113882272D01*
X123825697Y-113929224D01*
X123749228Y-113939291D01*
X123677971Y-113909775D01*
X123663318Y-113896925D01*
X116098401Y-106332008D01*
X116059837Y-106265213D01*
X116059837Y-106188085D01*
X116070377Y-106160240D01*
X116140582Y-106019250D01*
X116196397Y-105823083D01*
X116206851Y-105710259D01*
X116215215Y-105620004D01*
X116215215Y-105619995D01*
X116544785Y-105619995D01*
X116544785Y-105620004D01*
X116563602Y-105823078D01*
X116563602Y-105823080D01*
X116563603Y-105823083D01*
X116570296Y-105846606D01*
X116619416Y-106019245D01*
X116619417Y-106019247D01*
X116619418Y-106019250D01*
X116679298Y-106139505D01*
X116710328Y-106201823D01*
X116763688Y-106272483D01*
X116833236Y-106364579D01*
X116934464Y-106456860D01*
X116983958Y-106501980D01*
X116983963Y-106501984D01*
X117157356Y-106609344D01*
X117157367Y-106609350D01*
X117273332Y-106654274D01*
X117347544Y-106683024D01*
X117548024Y-106720500D01*
X117548027Y-106720500D01*
X117751973Y-106720500D01*
X117751976Y-106720500D01*
X117952456Y-106683024D01*
X118142637Y-106609348D01*
X118316041Y-106501981D01*
X118466764Y-106364579D01*
X118589673Y-106201821D01*
X118680582Y-106019250D01*
X118736397Y-105823083D01*
X118746851Y-105710259D01*
X118755215Y-105620004D01*
X118755215Y-105619995D01*
X118740878Y-105465281D01*
X118736397Y-105416917D01*
X118680582Y-105220750D01*
X118589673Y-105038179D01*
X118466764Y-104875421D01*
X118316041Y-104738019D01*
X118316036Y-104738015D01*
X118142643Y-104630655D01*
X118142632Y-104630649D01*
X117952462Y-104556978D01*
X117952458Y-104556977D01*
X117952456Y-104556976D01*
X117912360Y-104549480D01*
X117751980Y-104519500D01*
X117751976Y-104519500D01*
X117548024Y-104519500D01*
X117548019Y-104519500D01*
X117347544Y-104556976D01*
X117347537Y-104556978D01*
X117157367Y-104630649D01*
X117157356Y-104630655D01*
X116983963Y-104738015D01*
X116983958Y-104738019D01*
X116940605Y-104777541D01*
X116847713Y-104862224D01*
X116833234Y-104875423D01*
X116710328Y-105038176D01*
X116619416Y-105220754D01*
X116563602Y-105416921D01*
X116544785Y-105619995D01*
X116215215Y-105619995D01*
X116200878Y-105465281D01*
X116196397Y-105416917D01*
X116140582Y-105220750D01*
X116049673Y-105038179D01*
X115926764Y-104875421D01*
X115776041Y-104738019D01*
X115776036Y-104738015D01*
X115602643Y-104630655D01*
X115602632Y-104630649D01*
X115412462Y-104556978D01*
X115412458Y-104556977D01*
X115412456Y-104556976D01*
X115372360Y-104549480D01*
X115211980Y-104519500D01*
X115211976Y-104519500D01*
X115008024Y-104519500D01*
X115008019Y-104519500D01*
X114807544Y-104556976D01*
X114807537Y-104556978D01*
X114617367Y-104630649D01*
X114617356Y-104630655D01*
X114443963Y-104738015D01*
X114443958Y-104738019D01*
X114400605Y-104777541D01*
X114307713Y-104862224D01*
X114293234Y-104875423D01*
X114170328Y-105038176D01*
X114079416Y-105220754D01*
X114023602Y-105416921D01*
X114004785Y-105619995D01*
X114004785Y-105620004D01*
X114023602Y-105823078D01*
X114023602Y-105823080D01*
X114023603Y-105823083D01*
X114030296Y-105846606D01*
X114079416Y-106019245D01*
X114079417Y-106019247D01*
X114079418Y-106019250D01*
X114139298Y-106139505D01*
X114170328Y-106201823D01*
X114271180Y-106335372D01*
X114300146Y-106406854D01*
X114297887Y-106423049D01*
X114332647Y-106423049D01*
X114394464Y-106456860D01*
X114443958Y-106501980D01*
X114443963Y-106501984D01*
X114617356Y-106609344D01*
X114617367Y-106609350D01*
X114733332Y-106654274D01*
X114807544Y-106683024D01*
X115008024Y-106720500D01*
X115008027Y-106720500D01*
X115211974Y-106720500D01*
X115211976Y-106720500D01*
X115254519Y-106712547D01*
X115331419Y-106718480D01*
X115387258Y-106753651D01*
X123778750Y-115145143D01*
X123817313Y-115211936D01*
X123817313Y-115289064D01*
X123778749Y-115355859D01*
X123711954Y-115394423D01*
X123673390Y-115399500D01*
X122977611Y-115399500D01*
X122903111Y-115379538D01*
X122872252Y-115355859D01*
X114188724Y-106672331D01*
X114150160Y-106605536D01*
X114150160Y-106570185D01*
X114094197Y-106562379D01*
X114046916Y-106530523D01*
X113648113Y-106131720D01*
X113609549Y-106064925D01*
X113609549Y-105987797D01*
X113610129Y-105985692D01*
X113656397Y-105823083D01*
X113656397Y-105823079D01*
X113656398Y-105823077D01*
X113675215Y-105620004D01*
X113675215Y-105619995D01*
X113660878Y-105465281D01*
X113656397Y-105416917D01*
X113600582Y-105220750D01*
X113509673Y-105038179D01*
X113386764Y-104875421D01*
X113236041Y-104738019D01*
X113236036Y-104738015D01*
X113062643Y-104630655D01*
X113062632Y-104630649D01*
X112872462Y-104556978D01*
X112872458Y-104556977D01*
X112872456Y-104556976D01*
X112832360Y-104549480D01*
X112671980Y-104519500D01*
X112671976Y-104519500D01*
X112468024Y-104519500D01*
X112468019Y-104519500D01*
X112267544Y-104556976D01*
X112267537Y-104556978D01*
X112077367Y-104630649D01*
X112077356Y-104630655D01*
X111903963Y-104738015D01*
X111903958Y-104738019D01*
X111860605Y-104777541D01*
X111767713Y-104862224D01*
X111753234Y-104875423D01*
X111630328Y-105038176D01*
X111539416Y-105220754D01*
X111483602Y-105416921D01*
X111464785Y-105619995D01*
X111464785Y-105620004D01*
X111483602Y-105823078D01*
X111483602Y-105823080D01*
X111483603Y-105823083D01*
X111490296Y-105846606D01*
X111539416Y-106019245D01*
X111539417Y-106019247D01*
X111539418Y-106019250D01*
X111599298Y-106139505D01*
X111630328Y-106201823D01*
X111683688Y-106272483D01*
X111753236Y-106364579D01*
X111854464Y-106456860D01*
X111903958Y-106501980D01*
X111903963Y-106501984D01*
X112077356Y-106609344D01*
X112077367Y-106609350D01*
X112193332Y-106654274D01*
X112267544Y-106683024D01*
X112468024Y-106720500D01*
X112468027Y-106720500D01*
X112671973Y-106720500D01*
X112671976Y-106720500D01*
X112872456Y-106683024D01*
X112921881Y-106663876D01*
X112998558Y-106655578D01*
X113069114Y-106686731D01*
X113081063Y-106697456D01*
X122328750Y-115945143D01*
X122367313Y-116011936D01*
X122367313Y-116089064D01*
X122328749Y-116155859D01*
X122261954Y-116194423D01*
X122223390Y-116199500D01*
X121227610Y-116199500D01*
X121153110Y-116179538D01*
X121122251Y-116155859D01*
X111105898Y-106139505D01*
X111067334Y-106072710D01*
X111067334Y-105995582D01*
X111067925Y-105993440D01*
X111116397Y-105823083D01*
X111126851Y-105710259D01*
X111135215Y-105620004D01*
X111135215Y-105619995D01*
X111120878Y-105465281D01*
X111116397Y-105416917D01*
X111060582Y-105220750D01*
X110969673Y-105038179D01*
X110846764Y-104875421D01*
X110696041Y-104738019D01*
X110696036Y-104738015D01*
X110522643Y-104630655D01*
X110522632Y-104630649D01*
X110332462Y-104556978D01*
X110332458Y-104556977D01*
X110332456Y-104556976D01*
X110292360Y-104549480D01*
X110131980Y-104519500D01*
X110131976Y-104519500D01*
X109928024Y-104519500D01*
X109928019Y-104519500D01*
X109727544Y-104556976D01*
X109727537Y-104556978D01*
X109537367Y-104630649D01*
X109537356Y-104630655D01*
X109363963Y-104738015D01*
X109363958Y-104738019D01*
X109320605Y-104777541D01*
X109227713Y-104862224D01*
X109213234Y-104875423D01*
X109090325Y-105038180D01*
X108998964Y-105221661D01*
X108947888Y-105279453D01*
X108874758Y-105303963D01*
X108799170Y-105288625D01*
X108741378Y-105237549D01*
X108721662Y-105193810D01*
X108716267Y-105173676D01*
X108716266Y-105173674D01*
X108620132Y-104967515D01*
X108620129Y-104967509D01*
X108569025Y-104894526D01*
X108013787Y-105449764D01*
X108002518Y-105407708D01*
X107930110Y-105282292D01*
X107827708Y-105179890D01*
X107702292Y-105107482D01*
X107660232Y-105096212D01*
X108215472Y-104540973D01*
X108142492Y-104489872D01*
X108142483Y-104489866D01*
X107936325Y-104393733D01*
X107936323Y-104393732D01*
X107716605Y-104334859D01*
X107716606Y-104334859D01*
X107490000Y-104315034D01*
X107263393Y-104334859D01*
X107043676Y-104393732D01*
X107043674Y-104393733D01*
X106837522Y-104489862D01*
X106837517Y-104489865D01*
X106764527Y-104540974D01*
X107319765Y-105096212D01*
X107277708Y-105107482D01*
X107152292Y-105179890D01*
X107049890Y-105282292D01*
X106977482Y-105407708D01*
X106966212Y-105449765D01*
X106410973Y-104894527D01*
X106359865Y-104967517D01*
X106359862Y-104967522D01*
X106263733Y-105173674D01*
X106263732Y-105173676D01*
X106204859Y-105393393D01*
X106185034Y-105620000D01*
X104500500Y-105620000D01*
X104500500Y-76250000D01*
X106750000Y-76250000D01*
X111250000Y-76250000D01*
X111250000Y-71750000D01*
X106750000Y-71750000D01*
X106750000Y-76250000D01*
X104500500Y-76250000D01*
X104500500Y-74003246D01*
X104500642Y-73996747D01*
X104517338Y-73614342D01*
X104518471Y-73601393D01*
X104524893Y-73552613D01*
X104568011Y-73225101D01*
X104570260Y-73212344D01*
X104652410Y-72841790D01*
X104655772Y-72829243D01*
X104673771Y-72772157D01*
X104769898Y-72467278D01*
X104774343Y-72455068D01*
X104785072Y-72429166D01*
X104919580Y-72104434D01*
X104925063Y-72092674D01*
X105100326Y-71755998D01*
X105106804Y-71744778D01*
X105310748Y-71424649D01*
X105318166Y-71414056D01*
X105549238Y-71112917D01*
X105557562Y-71102997D01*
X105813981Y-70823165D01*
X105823169Y-70813978D01*
X105837273Y-70801054D01*
X106102997Y-70557562D01*
X106112917Y-70549238D01*
X106414056Y-70318166D01*
X106424649Y-70310748D01*
X106744778Y-70106804D01*
X106755998Y-70100326D01*
X107092674Y-69925063D01*
X107104434Y-69919580D01*
X107455073Y-69774341D01*
X107467278Y-69769898D01*
X107829246Y-69655771D01*
X107841790Y-69652410D01*
X108212344Y-69570260D01*
X108225101Y-69568011D01*
X108601396Y-69518470D01*
X108614336Y-69517338D01*
X108996748Y-69500642D01*
X109003247Y-69500500D01*
X109065892Y-69500500D01*
X174934108Y-69500500D01*
X174996753Y-69500500D01*
X175003252Y-69500642D01*
G37*
%TD.AperFunction*%
%TD*%
M02*
