M48
; DRILL file {KiCad 8.0.8} date 2025-01-26T21:38:22+0700
; FORMAT={-:-/ absolute / inch / decimal}
; #@! TF.CreationDate,2025-01-26T21:38:22+07:00
; #@! TF.GenerationSoftware,Kicad,Pcbnew,8.0.8
; #@! TF.FileFunction,Plated,1,4,PTH
FMAT,2
INCH
; #@! TA.AperFunction,Plated,PTH,ViaDrill
T1C0.0118
; #@! TA.AperFunction,Plated,PTH,ComponentDrill
T2C0.0295
; #@! TA.AperFunction,Plated,PTH,ComponentDrill
T3C0.0394
; #@! TA.AperFunction,Plated,PTH,ComponentDrill
T4C0.0433
; #@! TA.AperFunction,Plated,PTH,ComponentDrill
T5C0.0669
%
G90
G05
T1
X4.1437Y-4.685
X4.1929Y-3.0709
X4.2126Y-3.9665
X4.2323Y-4.252
X4.2402Y-3.7441
X4.29Y-4.1
X4.3386Y-4.2913
X4.35Y-3.48
X4.3701Y-4.5965
X4.42Y-3.23
X4.4252Y-4.9528
X4.4291Y-2.7953
X4.4478Y-3.0816
X4.5039Y-4.3858
X4.5079Y-3.1398
X4.5748Y-4.3543
X4.6024Y-2.8199
X4.6535Y-3.0984
X4.7327Y-2.8199
X4.7475Y-2.969
X4.7539Y-4.0256
X4.7638Y-3.1988
X4.7736Y-3.0709
X4.7978Y-2.8378
X4.8031Y-3.1693
X4.8071Y-3.4744
X4.84Y-2.86
X4.8976Y-4.4961
X4.9332Y-4.0983
X4.9449Y-4.4331
X4.9606Y-4.0256
X4.98Y-2.98
X5.0954Y-4.1064
X5.1348Y-4.4016
X5.1575Y-4.2539
X5.185Y-4.3031
X5.2461Y-4.2913
X5.2756Y-4.6607
X5.2756Y-4.6922
X5.2857Y-4.7222
X5.2913Y-4.4488
X5.3386Y-4.7544
X5.374Y-4.8819
X5.39Y-4.3543
X5.3937Y-4.2835
X5.4331Y-3.8287
X5.4409Y-3.7126
X5.4488Y-3.4449
X5.4488Y-4.2913
X5.4562Y-4.6863
X5.4567Y-4.6142
X5.4626Y-3.9567
X5.5522Y-4.3445
X5.6102Y-3.2874
X5.622Y-4.5354
X5.6398Y-4.3602
X5.6457Y-3.7874
X5.6969Y-3.5866
X5.7283Y-3.6417
X5.752Y-4.2008
X5.8071Y-3.0512
X5.8465Y-4.0059
X5.8583Y-3.7087
X5.8661Y-3.3071
X5.8661Y-3.4843
X5.876Y-4.4193
X5.9055Y-3.6693
X5.9055Y-3.7087
X5.937Y-3.6614
X5.9519Y-3.8355
X5.9685Y-3.9449
X5.9803Y-4.685
X6.0315Y-4.1535
X6.0984Y-4.4134
X6.1378Y-2.7874
X6.1993Y-3.2286
X6.2205Y-3.9961
X6.252Y-3.5984
X6.2598Y-4.5748
X6.2598Y-4.8425
X6.2953Y-4.1457
X6.4724Y-2.8701
X6.5866Y-4.9252
X6.6831Y-2.9331
X6.8937Y-3.1811
X7.0177Y-3.061
X7.0276Y-4.6457
T2
X6.4409Y-3.3622
X6.4409Y-3.5846
X6.4409Y-3.8051
X6.4409Y-4.0256
X6.4409Y-4.2441
X6.4409Y-4.4665
X6.4409Y-4.6949
X6.5197Y-3.3622
X6.5197Y-3.5846
X6.5197Y-3.8051
X6.5197Y-4.0256
X6.5197Y-4.2441
X6.5197Y-4.4665
X6.5197Y-4.6949
X6.5984Y-3.3622
X6.5984Y-3.5846
X6.5984Y-3.8051
X6.5984Y-4.0256
X6.5984Y-4.2441
X6.5984Y-4.4665
X6.5984Y-4.6949
X6.7953Y-3.3622
X6.7953Y-3.5827
X6.7953Y-3.8051
X6.7953Y-4.0256
X6.7953Y-4.2441
X6.7953Y-4.4665
X6.874Y-3.3622
X6.874Y-3.5827
X6.874Y-3.8051
X6.874Y-4.0256
X6.874Y-4.2441
X6.874Y-4.4665
X6.9528Y-3.3622
X6.9528Y-3.5827
X6.9528Y-3.8051
X6.9528Y-4.0256
X6.9528Y-4.2441
X6.9528Y-4.4665
T3
X4.9528Y-3.2189
X4.9528Y-3.3189
X5.0669Y-3.2189
X5.0669Y-3.3189
X5.1248Y-2.9232
X5.1248Y-3.0315
X5.1811Y-3.2179
X5.1811Y-3.3179
X5.2248Y-2.9232
X5.2248Y-3.0315
X5.3248Y-2.9232
X5.3248Y-3.0315
X5.4248Y-2.9232
X5.4248Y-3.0315
X5.5709Y-2.9004
X5.5709Y-3.0004
X5.5709Y-3.1004
X5.6791Y-2.8988
X5.6791Y-2.9988
X5.6791Y-3.0988
X5.8268Y-4.7244
X6.126Y-4.7244
X6.2559Y-2.7994
X6.689Y-2.7994
T4
X4.2319Y-3.5583
X4.2319Y-4.1583
X4.3319Y-3.5583
X4.3319Y-4.1583
X4.4319Y-3.5583
X4.4319Y-4.1583
X4.5319Y-3.5583
X4.5319Y-4.1583
X4.6319Y-3.5583
X4.6319Y-4.1583
X4.7319Y-3.5583
X4.7319Y-4.1583
X4.8319Y-3.5583
X4.8319Y-4.1583
X4.9319Y-3.5583
X4.9319Y-4.1583
X5.0319Y-3.5583
X5.0319Y-4.1583
X5.1319Y-3.5583
X5.1319Y-4.1583
X5.2319Y-3.5583
X5.2319Y-3.6583
X5.2319Y-3.7583
X5.2319Y-3.8583
X5.2319Y-3.9583
X5.2319Y-4.0583
X5.2319Y-4.1583
X5.3319Y-3.5583
X5.3319Y-3.6583
X5.3319Y-3.7583
X5.3319Y-3.8583
X5.3319Y-3.9583
X5.3319Y-4.0583
X5.3319Y-4.1583
X5.4319Y-3.5583
X5.4319Y-4.1583
X5.5319Y-3.5583
X5.5319Y-3.6583
X5.5319Y-3.7583
X5.5319Y-3.8583
X5.5319Y-3.9583
X5.5319Y-4.0583
X5.5319Y-4.1583
T5
X6.374Y-3.1931
X6.5709Y-3.1931
M30
