%TF.GenerationSoftware,KiCad,Pcbnew,8.0.8*%
%TF.CreationDate,2025-01-26T21:38:22+07:00*%
%TF.ProjectId,Teensy4.0,5465656e-7379-4342-9e30-2e6b69636164,rev?*%
%TF.SameCoordinates,Original*%
%TF.FileFunction,Legend,Top*%
%TF.FilePolarity,Positive*%
%FSLAX46Y46*%
G04 Gerber Fmt 4.6, Leading zero omitted, Abs format (unit mm)*
G04 Created by KiCad (PCBNEW 8.0.8) date 2025-01-26 21:38:22*
%MOMM*%
%LPD*%
G01*
G04 APERTURE LIST*
G04 Aperture macros list*
%AMRoundRect*
0 Rectangle with rounded corners*
0 $1 Rounding radius*
0 $2 $3 $4 $5 $6 $7 $8 $9 X,Y pos of 4 corners*
0 Add a 4 corners polygon primitive as box body*
4,1,4,$2,$3,$4,$5,$6,$7,$8,$9,$2,$3,0*
0 Add four circle primitives for the rounded corners*
1,1,$1+$1,$2,$3*
1,1,$1+$1,$4,$5*
1,1,$1+$1,$6,$7*
1,1,$1+$1,$8,$9*
0 Add four rect primitives between the rounded corners*
20,1,$1+$1,$2,$3,$4,$5,0*
20,1,$1+$1,$4,$5,$6,$7,0*
20,1,$1+$1,$6,$7,$8,$9,0*
20,1,$1+$1,$8,$9,$2,$3,0*%
G04 Aperture macros list end*
%ADD10C,0.300000*%
%ADD11C,0.150000*%
%ADD12C,0.187500*%
%ADD13C,0.254000*%
%ADD14C,0.200000*%
%ADD15C,0.120000*%
%ADD16C,0.152400*%
%ADD17C,0.000000*%
%ADD18C,0.127000*%
%ADD19C,1.600000*%
%ADD20R,0.300000X0.850000*%
%ADD21RoundRect,0.250000X-0.350000X-0.625000X0.350000X-0.625000X0.350000X0.625000X-0.350000X0.625000X0*%
%ADD22O,1.200000X1.750000*%
%ADD23R,2.000000X2.000000*%
%ADD24C,2.000000*%
%ADD25C,3.200000*%
%ADD26RoundRect,0.250000X0.475000X-0.337500X0.475000X0.337500X-0.475000X0.337500X-0.475000X-0.337500X0*%
%ADD27R,1.700000X1.700000*%
%ADD28O,1.700000X1.700000*%
%ADD29RoundRect,0.250000X-0.475000X0.337500X-0.475000X-0.337500X0.475000X-0.337500X0.475000X0.337500X0*%
%ADD30RoundRect,0.250000X0.350000X0.450000X-0.350000X0.450000X-0.350000X-0.450000X0.350000X-0.450000X0*%
%ADD31RoundRect,0.250000X0.450000X-0.325000X0.450000X0.325000X-0.450000X0.325000X-0.450000X-0.325000X0*%
%ADD32RoundRect,0.250000X-0.350000X-0.450000X0.350000X-0.450000X0.350000X0.450000X-0.350000X0.450000X0*%
%ADD33RoundRect,0.250000X-0.337500X-0.475000X0.337500X-0.475000X0.337500X0.475000X-0.337500X0.475000X0*%
%ADD34RoundRect,0.250000X0.337500X0.475000X-0.337500X0.475000X-0.337500X-0.475000X0.337500X-0.475000X0*%
%ADD35RoundRect,0.050000X-0.225000X-0.050000X0.225000X-0.050000X0.225000X0.050000X-0.225000X0.050000X0*%
%ADD36RoundRect,0.050000X0.050000X-0.225000X0.050000X0.225000X-0.050000X0.225000X-0.050000X-0.225000X0*%
%ADD37RoundRect,0.250000X1.000000X-1.750000X1.000000X1.750000X-1.000000X1.750000X-1.000000X-1.750000X0*%
%ADD38R,0.280000X0.850000*%
%ADD39R,0.850000X0.280000*%
%ADD40RoundRect,0.250000X0.450000X-0.350000X0.450000X0.350000X-0.450000X0.350000X-0.450000X-0.350000X0*%
%ADD41R,1.500000X2.000000*%
%ADD42R,2.260600X1.498600*%
%ADD43RoundRect,0.250000X-0.450000X0.350000X-0.450000X-0.350000X0.450000X-0.350000X0.450000X0.350000X0*%
%ADD44RoundRect,0.250000X0.525000X0.250000X-0.525000X0.250000X-0.525000X-0.250000X0.525000X-0.250000X0*%
%ADD45RoundRect,0.150000X0.512500X0.150000X-0.512500X0.150000X-0.512500X-0.150000X0.512500X-0.150000X0*%
%ADD46C,2.754000*%
%ADD47RoundRect,0.102000X-1.275000X-1.275000X1.275000X-1.275000X1.275000X1.275000X-1.275000X1.275000X0*%
%ADD48C,1.712000*%
%ADD49R,0.558800X1.422400*%
G04 APERTURE END LIST*
D10*
X109983082Y-93050828D02*
X109983082Y-94122257D01*
X109983082Y-94122257D02*
X109911653Y-94336542D01*
X109911653Y-94336542D02*
X109768796Y-94479400D01*
X109768796Y-94479400D02*
X109554510Y-94550828D01*
X109554510Y-94550828D02*
X109411653Y-94550828D01*
X110697367Y-94550828D02*
X110697367Y-93550828D01*
X110697367Y-93050828D02*
X110625939Y-93122257D01*
X110625939Y-93122257D02*
X110697367Y-93193685D01*
X110697367Y-93193685D02*
X110768796Y-93122257D01*
X110768796Y-93122257D02*
X110697367Y-93050828D01*
X110697367Y-93050828D02*
X110697367Y-93193685D01*
X111411653Y-94550828D02*
X111411653Y-93550828D01*
X111411653Y-93836542D02*
X111483082Y-93693685D01*
X111483082Y-93693685D02*
X111554511Y-93622257D01*
X111554511Y-93622257D02*
X111697368Y-93550828D01*
X111697368Y-93550828D02*
X111840225Y-93550828D01*
X112983082Y-94550828D02*
X112983082Y-93765114D01*
X112983082Y-93765114D02*
X112911653Y-93622257D01*
X112911653Y-93622257D02*
X112768796Y-93550828D01*
X112768796Y-93550828D02*
X112483082Y-93550828D01*
X112483082Y-93550828D02*
X112340224Y-93622257D01*
X112983082Y-94479400D02*
X112840224Y-94550828D01*
X112840224Y-94550828D02*
X112483082Y-94550828D01*
X112483082Y-94550828D02*
X112340224Y-94479400D01*
X112340224Y-94479400D02*
X112268796Y-94336542D01*
X112268796Y-94336542D02*
X112268796Y-94193685D01*
X112268796Y-94193685D02*
X112340224Y-94050828D01*
X112340224Y-94050828D02*
X112483082Y-93979400D01*
X112483082Y-93979400D02*
X112840224Y-93979400D01*
X112840224Y-93979400D02*
X112983082Y-93907971D01*
X113697367Y-94550828D02*
X113697367Y-93050828D01*
X113840225Y-93979400D02*
X114268796Y-94550828D01*
X114268796Y-93550828D02*
X113697367Y-94122257D01*
X115125939Y-94550828D02*
X114983082Y-94479400D01*
X114983082Y-94479400D02*
X114911653Y-94407971D01*
X114911653Y-94407971D02*
X114840225Y-94265114D01*
X114840225Y-94265114D02*
X114840225Y-93836542D01*
X114840225Y-93836542D02*
X114911653Y-93693685D01*
X114911653Y-93693685D02*
X114983082Y-93622257D01*
X114983082Y-93622257D02*
X115125939Y-93550828D01*
X115125939Y-93550828D02*
X115340225Y-93550828D01*
X115340225Y-93550828D02*
X115483082Y-93622257D01*
X115483082Y-93622257D02*
X115554511Y-93693685D01*
X115554511Y-93693685D02*
X115625939Y-93836542D01*
X115625939Y-93836542D02*
X115625939Y-94265114D01*
X115625939Y-94265114D02*
X115554511Y-94407971D01*
X115554511Y-94407971D02*
X115483082Y-94479400D01*
X115483082Y-94479400D02*
X115340225Y-94550828D01*
X115340225Y-94550828D02*
X115125939Y-94550828D01*
X116268796Y-94550828D02*
X116268796Y-93550828D01*
X116268796Y-93836542D02*
X116340225Y-93693685D01*
X116340225Y-93693685D02*
X116411654Y-93622257D01*
X116411654Y-93622257D02*
X116554511Y-93550828D01*
X116554511Y-93550828D02*
X116697368Y-93550828D01*
X117197367Y-93550828D02*
X117197367Y-94550828D01*
X117197367Y-93693685D02*
X117268796Y-93622257D01*
X117268796Y-93622257D02*
X117411653Y-93550828D01*
X117411653Y-93550828D02*
X117625939Y-93550828D01*
X117625939Y-93550828D02*
X117768796Y-93622257D01*
X117768796Y-93622257D02*
X117840225Y-93765114D01*
X117840225Y-93765114D02*
X117840225Y-94550828D01*
X119625939Y-94479400D02*
X119840225Y-94550828D01*
X119840225Y-94550828D02*
X120197367Y-94550828D01*
X120197367Y-94550828D02*
X120340225Y-94479400D01*
X120340225Y-94479400D02*
X120411653Y-94407971D01*
X120411653Y-94407971D02*
X120483082Y-94265114D01*
X120483082Y-94265114D02*
X120483082Y-94122257D01*
X120483082Y-94122257D02*
X120411653Y-93979400D01*
X120411653Y-93979400D02*
X120340225Y-93907971D01*
X120340225Y-93907971D02*
X120197367Y-93836542D01*
X120197367Y-93836542D02*
X119911653Y-93765114D01*
X119911653Y-93765114D02*
X119768796Y-93693685D01*
X119768796Y-93693685D02*
X119697367Y-93622257D01*
X119697367Y-93622257D02*
X119625939Y-93479400D01*
X119625939Y-93479400D02*
X119625939Y-93336542D01*
X119625939Y-93336542D02*
X119697367Y-93193685D01*
X119697367Y-93193685D02*
X119768796Y-93122257D01*
X119768796Y-93122257D02*
X119911653Y-93050828D01*
X119911653Y-93050828D02*
X120268796Y-93050828D01*
X120268796Y-93050828D02*
X120483082Y-93122257D01*
X121768796Y-93550828D02*
X121768796Y-94550828D01*
X121125938Y-93550828D02*
X121125938Y-94336542D01*
X121125938Y-94336542D02*
X121197367Y-94479400D01*
X121197367Y-94479400D02*
X121340224Y-94550828D01*
X121340224Y-94550828D02*
X121554510Y-94550828D01*
X121554510Y-94550828D02*
X121697367Y-94479400D01*
X121697367Y-94479400D02*
X121768796Y-94407971D01*
X122483081Y-94550828D02*
X122483081Y-93050828D01*
X122625939Y-93979400D02*
X123054510Y-94550828D01*
X123054510Y-93550828D02*
X122483081Y-94122257D01*
X123697367Y-94550828D02*
X123697367Y-93550828D01*
X123697367Y-93693685D02*
X123768796Y-93622257D01*
X123768796Y-93622257D02*
X123911653Y-93550828D01*
X123911653Y-93550828D02*
X124125939Y-93550828D01*
X124125939Y-93550828D02*
X124268796Y-93622257D01*
X124268796Y-93622257D02*
X124340225Y-93765114D01*
X124340225Y-93765114D02*
X124340225Y-94550828D01*
X124340225Y-93765114D02*
X124411653Y-93622257D01*
X124411653Y-93622257D02*
X124554510Y-93550828D01*
X124554510Y-93550828D02*
X124768796Y-93550828D01*
X124768796Y-93550828D02*
X124911653Y-93622257D01*
X124911653Y-93622257D02*
X124983082Y-93765114D01*
X124983082Y-93765114D02*
X124983082Y-94550828D01*
X126268796Y-94479400D02*
X126125939Y-94550828D01*
X126125939Y-94550828D02*
X125840225Y-94550828D01*
X125840225Y-94550828D02*
X125697367Y-94479400D01*
X125697367Y-94479400D02*
X125625939Y-94336542D01*
X125625939Y-94336542D02*
X125625939Y-93765114D01*
X125625939Y-93765114D02*
X125697367Y-93622257D01*
X125697367Y-93622257D02*
X125840225Y-93550828D01*
X125840225Y-93550828D02*
X126125939Y-93550828D01*
X126125939Y-93550828D02*
X126268796Y-93622257D01*
X126268796Y-93622257D02*
X126340225Y-93765114D01*
X126340225Y-93765114D02*
X126340225Y-93907971D01*
X126340225Y-93907971D02*
X125625939Y-94050828D01*
X127554510Y-94479400D02*
X127411653Y-94550828D01*
X127411653Y-94550828D02*
X127125939Y-94550828D01*
X127125939Y-94550828D02*
X126983081Y-94479400D01*
X126983081Y-94479400D02*
X126911653Y-94336542D01*
X126911653Y-94336542D02*
X126911653Y-93765114D01*
X126911653Y-93765114D02*
X126983081Y-93622257D01*
X126983081Y-93622257D02*
X127125939Y-93550828D01*
X127125939Y-93550828D02*
X127411653Y-93550828D01*
X127411653Y-93550828D02*
X127554510Y-93622257D01*
X127554510Y-93622257D02*
X127625939Y-93765114D01*
X127625939Y-93765114D02*
X127625939Y-93907971D01*
X127625939Y-93907971D02*
X126911653Y-94050828D01*
X128340224Y-93050828D02*
X128197367Y-93336542D01*
X128911653Y-94479400D02*
X129054510Y-94550828D01*
X129054510Y-94550828D02*
X129340224Y-94550828D01*
X129340224Y-94550828D02*
X129483081Y-94479400D01*
X129483081Y-94479400D02*
X129554510Y-94336542D01*
X129554510Y-94336542D02*
X129554510Y-94265114D01*
X129554510Y-94265114D02*
X129483081Y-94122257D01*
X129483081Y-94122257D02*
X129340224Y-94050828D01*
X129340224Y-94050828D02*
X129125939Y-94050828D01*
X129125939Y-94050828D02*
X128983081Y-93979400D01*
X128983081Y-93979400D02*
X128911653Y-93836542D01*
X128911653Y-93836542D02*
X128911653Y-93765114D01*
X128911653Y-93765114D02*
X128983081Y-93622257D01*
X128983081Y-93622257D02*
X129125939Y-93550828D01*
X129125939Y-93550828D02*
X129340224Y-93550828D01*
X129340224Y-93550828D02*
X129483081Y-93622257D01*
D11*
X137039160Y-71465057D02*
X137086779Y-71417438D01*
X137086779Y-71417438D02*
X137182017Y-71369819D01*
X137182017Y-71369819D02*
X137420112Y-71369819D01*
X137420112Y-71369819D02*
X137515350Y-71417438D01*
X137515350Y-71417438D02*
X137562969Y-71465057D01*
X137562969Y-71465057D02*
X137610588Y-71560295D01*
X137610588Y-71560295D02*
X137610588Y-71655533D01*
X137610588Y-71655533D02*
X137562969Y-71798390D01*
X137562969Y-71798390D02*
X136991541Y-72369819D01*
X136991541Y-72369819D02*
X137610588Y-72369819D01*
X138467731Y-71703152D02*
X138467731Y-72369819D01*
X138229636Y-71322200D02*
X137991541Y-72036485D01*
X137991541Y-72036485D02*
X138610588Y-72036485D01*
X134539160Y-78465057D02*
X134586779Y-78417438D01*
X134586779Y-78417438D02*
X134682017Y-78369819D01*
X134682017Y-78369819D02*
X134920112Y-78369819D01*
X134920112Y-78369819D02*
X135015350Y-78417438D01*
X135015350Y-78417438D02*
X135062969Y-78465057D01*
X135062969Y-78465057D02*
X135110588Y-78560295D01*
X135110588Y-78560295D02*
X135110588Y-78655533D01*
X135110588Y-78655533D02*
X135062969Y-78798390D01*
X135062969Y-78798390D02*
X134491541Y-79369819D01*
X134491541Y-79369819D02*
X135110588Y-79369819D01*
X135586779Y-79369819D02*
X135777255Y-79369819D01*
X135777255Y-79369819D02*
X135872493Y-79322200D01*
X135872493Y-79322200D02*
X135920112Y-79274580D01*
X135920112Y-79274580D02*
X136015350Y-79131723D01*
X136015350Y-79131723D02*
X136062969Y-78941247D01*
X136062969Y-78941247D02*
X136062969Y-78560295D01*
X136062969Y-78560295D02*
X136015350Y-78465057D01*
X136015350Y-78465057D02*
X135967731Y-78417438D01*
X135967731Y-78417438D02*
X135872493Y-78369819D01*
X135872493Y-78369819D02*
X135682017Y-78369819D01*
X135682017Y-78369819D02*
X135586779Y-78417438D01*
X135586779Y-78417438D02*
X135539160Y-78465057D01*
X135539160Y-78465057D02*
X135491541Y-78560295D01*
X135491541Y-78560295D02*
X135491541Y-78798390D01*
X135491541Y-78798390D02*
X135539160Y-78893628D01*
X135539160Y-78893628D02*
X135586779Y-78941247D01*
X135586779Y-78941247D02*
X135682017Y-78988866D01*
X135682017Y-78988866D02*
X135872493Y-78988866D01*
X135872493Y-78988866D02*
X135967731Y-78941247D01*
X135967731Y-78941247D02*
X136015350Y-78893628D01*
X136015350Y-78893628D02*
X136062969Y-78798390D01*
D12*
X118656688Y-96142345D02*
X118656688Y-95723297D01*
X118656688Y-95723297D02*
X118618593Y-95647107D01*
X118618593Y-95647107D02*
X118542402Y-95609011D01*
X118542402Y-95609011D02*
X118390021Y-95609011D01*
X118390021Y-95609011D02*
X118313831Y-95647107D01*
X118656688Y-96104250D02*
X118580497Y-96142345D01*
X118580497Y-96142345D02*
X118390021Y-96142345D01*
X118390021Y-96142345D02*
X118313831Y-96104250D01*
X118313831Y-96104250D02*
X118275735Y-96028059D01*
X118275735Y-96028059D02*
X118275735Y-95951869D01*
X118275735Y-95951869D02*
X118313831Y-95875678D01*
X118313831Y-95875678D02*
X118390021Y-95837583D01*
X118390021Y-95837583D02*
X118580497Y-95837583D01*
X118580497Y-95837583D02*
X118656688Y-95799488D01*
X119037641Y-95609011D02*
X119037641Y-96142345D01*
X119037641Y-95685202D02*
X119075736Y-95647107D01*
X119075736Y-95647107D02*
X119151926Y-95609011D01*
X119151926Y-95609011D02*
X119266212Y-95609011D01*
X119266212Y-95609011D02*
X119342403Y-95647107D01*
X119342403Y-95647107D02*
X119380498Y-95723297D01*
X119380498Y-95723297D02*
X119380498Y-96142345D01*
X120104308Y-96142345D02*
X120104308Y-95342345D01*
X120104308Y-96104250D02*
X120028117Y-96142345D01*
X120028117Y-96142345D02*
X119875736Y-96142345D01*
X119875736Y-96142345D02*
X119799546Y-96104250D01*
X119799546Y-96104250D02*
X119761451Y-96066154D01*
X119761451Y-96066154D02*
X119723355Y-95989964D01*
X119723355Y-95989964D02*
X119723355Y-95761392D01*
X119723355Y-95761392D02*
X119761451Y-95685202D01*
X119761451Y-95685202D02*
X119799546Y-95647107D01*
X119799546Y-95647107D02*
X119875736Y-95609011D01*
X119875736Y-95609011D02*
X120028117Y-95609011D01*
X120028117Y-95609011D02*
X120104308Y-95647107D01*
X120980499Y-95342345D02*
X121437642Y-95342345D01*
X121209070Y-96142345D02*
X121209070Y-95342345D01*
X122047166Y-96142345D02*
X122047166Y-95723297D01*
X122047166Y-95723297D02*
X122009071Y-95647107D01*
X122009071Y-95647107D02*
X121932880Y-95609011D01*
X121932880Y-95609011D02*
X121780499Y-95609011D01*
X121780499Y-95609011D02*
X121704309Y-95647107D01*
X122047166Y-96104250D02*
X121970975Y-96142345D01*
X121970975Y-96142345D02*
X121780499Y-96142345D01*
X121780499Y-96142345D02*
X121704309Y-96104250D01*
X121704309Y-96104250D02*
X121666213Y-96028059D01*
X121666213Y-96028059D02*
X121666213Y-95951869D01*
X121666213Y-95951869D02*
X121704309Y-95875678D01*
X121704309Y-95875678D02*
X121780499Y-95837583D01*
X121780499Y-95837583D02*
X121970975Y-95837583D01*
X121970975Y-95837583D02*
X122047166Y-95799488D01*
X122428119Y-95609011D02*
X122428119Y-96409011D01*
X122428119Y-95647107D02*
X122504309Y-95609011D01*
X122504309Y-95609011D02*
X122656690Y-95609011D01*
X122656690Y-95609011D02*
X122732881Y-95647107D01*
X122732881Y-95647107D02*
X122770976Y-95685202D01*
X122770976Y-95685202D02*
X122809071Y-95761392D01*
X122809071Y-95761392D02*
X122809071Y-95989964D01*
X122809071Y-95989964D02*
X122770976Y-96066154D01*
X122770976Y-96066154D02*
X122732881Y-96104250D01*
X122732881Y-96104250D02*
X122656690Y-96142345D01*
X122656690Y-96142345D02*
X122504309Y-96142345D01*
X122504309Y-96142345D02*
X122428119Y-96104250D01*
X123494786Y-96142345D02*
X123494786Y-95723297D01*
X123494786Y-95723297D02*
X123456691Y-95647107D01*
X123456691Y-95647107D02*
X123380500Y-95609011D01*
X123380500Y-95609011D02*
X123228119Y-95609011D01*
X123228119Y-95609011D02*
X123151929Y-95647107D01*
X123494786Y-96104250D02*
X123418595Y-96142345D01*
X123418595Y-96142345D02*
X123228119Y-96142345D01*
X123228119Y-96142345D02*
X123151929Y-96104250D01*
X123151929Y-96104250D02*
X123113833Y-96028059D01*
X123113833Y-96028059D02*
X123113833Y-95951869D01*
X123113833Y-95951869D02*
X123151929Y-95875678D01*
X123151929Y-95875678D02*
X123228119Y-95837583D01*
X123228119Y-95837583D02*
X123418595Y-95837583D01*
X123418595Y-95837583D02*
X123494786Y-95799488D01*
X123875739Y-96066154D02*
X123913834Y-96104250D01*
X123913834Y-96104250D02*
X123875739Y-96142345D01*
X123875739Y-96142345D02*
X123837643Y-96104250D01*
X123837643Y-96104250D02*
X123875739Y-96066154D01*
X123875739Y-96066154D02*
X123875739Y-96142345D01*
X124066215Y-96218535D02*
X124675738Y-96218535D01*
X124866215Y-96066154D02*
X124904310Y-96104250D01*
X124904310Y-96104250D02*
X124866215Y-96142345D01*
X124866215Y-96142345D02*
X124828119Y-96104250D01*
X124828119Y-96104250D02*
X124866215Y-96066154D01*
X124866215Y-96066154D02*
X124866215Y-96142345D01*
X125247167Y-95609011D02*
X125247167Y-96142345D01*
X125247167Y-95685202D02*
X125285262Y-95647107D01*
X125285262Y-95647107D02*
X125361452Y-95609011D01*
X125361452Y-95609011D02*
X125475738Y-95609011D01*
X125475738Y-95609011D02*
X125551929Y-95647107D01*
X125551929Y-95647107D02*
X125590024Y-95723297D01*
X125590024Y-95723297D02*
X125590024Y-96142345D01*
X126085262Y-96142345D02*
X126009072Y-96104250D01*
X126009072Y-96104250D02*
X125970977Y-96066154D01*
X125970977Y-96066154D02*
X125932881Y-95989964D01*
X125932881Y-95989964D02*
X125932881Y-95761392D01*
X125932881Y-95761392D02*
X125970977Y-95685202D01*
X125970977Y-95685202D02*
X126009072Y-95647107D01*
X126009072Y-95647107D02*
X126085262Y-95609011D01*
X126085262Y-95609011D02*
X126199548Y-95609011D01*
X126199548Y-95609011D02*
X126275739Y-95647107D01*
X126275739Y-95647107D02*
X126313834Y-95685202D01*
X126313834Y-95685202D02*
X126351929Y-95761392D01*
X126351929Y-95761392D02*
X126351929Y-95989964D01*
X126351929Y-95989964D02*
X126313834Y-96066154D01*
X126313834Y-96066154D02*
X126275739Y-96104250D01*
X126275739Y-96104250D02*
X126199548Y-96142345D01*
X126199548Y-96142345D02*
X126085262Y-96142345D01*
X126694787Y-95609011D02*
X126694787Y-96142345D01*
X126694787Y-95685202D02*
X126732882Y-95647107D01*
X126732882Y-95647107D02*
X126809072Y-95609011D01*
X126809072Y-95609011D02*
X126923358Y-95609011D01*
X126923358Y-95609011D02*
X126999549Y-95647107D01*
X126999549Y-95647107D02*
X127037644Y-95723297D01*
X127037644Y-95723297D02*
X127037644Y-96142345D01*
X127304311Y-95609011D02*
X127609073Y-95609011D01*
X127418597Y-95342345D02*
X127418597Y-96028059D01*
X127418597Y-96028059D02*
X127456692Y-96104250D01*
X127456692Y-96104250D02*
X127532882Y-96142345D01*
X127532882Y-96142345D02*
X127609073Y-96142345D01*
D11*
X129241541Y-78369819D02*
X129860588Y-78369819D01*
X129860588Y-78369819D02*
X129527255Y-78750771D01*
X129527255Y-78750771D02*
X129670112Y-78750771D01*
X129670112Y-78750771D02*
X129765350Y-78798390D01*
X129765350Y-78798390D02*
X129812969Y-78846009D01*
X129812969Y-78846009D02*
X129860588Y-78941247D01*
X129860588Y-78941247D02*
X129860588Y-79179342D01*
X129860588Y-79179342D02*
X129812969Y-79274580D01*
X129812969Y-79274580D02*
X129765350Y-79322200D01*
X129765350Y-79322200D02*
X129670112Y-79369819D01*
X129670112Y-79369819D02*
X129384398Y-79369819D01*
X129384398Y-79369819D02*
X129289160Y-79322200D01*
X129289160Y-79322200D02*
X129241541Y-79274580D01*
X130812969Y-79369819D02*
X130241541Y-79369819D01*
X130527255Y-79369819D02*
X130527255Y-78369819D01*
X130527255Y-78369819D02*
X130432017Y-78512676D01*
X130432017Y-78512676D02*
X130336779Y-78607914D01*
X130336779Y-78607914D02*
X130241541Y-78655533D01*
D10*
X109440225Y-102100828D02*
X109940225Y-103600828D01*
X109940225Y-103600828D02*
X110440225Y-102100828D01*
X111225939Y-102100828D02*
X111368796Y-102100828D01*
X111368796Y-102100828D02*
X111511653Y-102172257D01*
X111511653Y-102172257D02*
X111583082Y-102243685D01*
X111583082Y-102243685D02*
X111654510Y-102386542D01*
X111654510Y-102386542D02*
X111725939Y-102672257D01*
X111725939Y-102672257D02*
X111725939Y-103029400D01*
X111725939Y-103029400D02*
X111654510Y-103315114D01*
X111654510Y-103315114D02*
X111583082Y-103457971D01*
X111583082Y-103457971D02*
X111511653Y-103529400D01*
X111511653Y-103529400D02*
X111368796Y-103600828D01*
X111368796Y-103600828D02*
X111225939Y-103600828D01*
X111225939Y-103600828D02*
X111083082Y-103529400D01*
X111083082Y-103529400D02*
X111011653Y-103457971D01*
X111011653Y-103457971D02*
X110940224Y-103315114D01*
X110940224Y-103315114D02*
X110868796Y-103029400D01*
X110868796Y-103029400D02*
X110868796Y-102672257D01*
X110868796Y-102672257D02*
X110940224Y-102386542D01*
X110940224Y-102386542D02*
X111011653Y-102243685D01*
X111011653Y-102243685D02*
X111083082Y-102172257D01*
X111083082Y-102172257D02*
X111225939Y-102100828D01*
X112368795Y-103457971D02*
X112440224Y-103529400D01*
X112440224Y-103529400D02*
X112368795Y-103600828D01*
X112368795Y-103600828D02*
X112297367Y-103529400D01*
X112297367Y-103529400D02*
X112368795Y-103457971D01*
X112368795Y-103457971D02*
X112368795Y-103600828D01*
X113011653Y-102243685D02*
X113083081Y-102172257D01*
X113083081Y-102172257D02*
X113225939Y-102100828D01*
X113225939Y-102100828D02*
X113583081Y-102100828D01*
X113583081Y-102100828D02*
X113725939Y-102172257D01*
X113725939Y-102172257D02*
X113797367Y-102243685D01*
X113797367Y-102243685D02*
X113868796Y-102386542D01*
X113868796Y-102386542D02*
X113868796Y-102529400D01*
X113868796Y-102529400D02*
X113797367Y-102743685D01*
X113797367Y-102743685D02*
X112940224Y-103600828D01*
X112940224Y-103600828D02*
X113868796Y-103600828D01*
D11*
X132039160Y-71465057D02*
X132086779Y-71417438D01*
X132086779Y-71417438D02*
X132182017Y-71369819D01*
X132182017Y-71369819D02*
X132420112Y-71369819D01*
X132420112Y-71369819D02*
X132515350Y-71417438D01*
X132515350Y-71417438D02*
X132562969Y-71465057D01*
X132562969Y-71465057D02*
X132610588Y-71560295D01*
X132610588Y-71560295D02*
X132610588Y-71655533D01*
X132610588Y-71655533D02*
X132562969Y-71798390D01*
X132562969Y-71798390D02*
X131991541Y-72369819D01*
X131991541Y-72369819D02*
X132610588Y-72369819D01*
X133467731Y-71369819D02*
X133277255Y-71369819D01*
X133277255Y-71369819D02*
X133182017Y-71417438D01*
X133182017Y-71417438D02*
X133134398Y-71465057D01*
X133134398Y-71465057D02*
X133039160Y-71607914D01*
X133039160Y-71607914D02*
X132991541Y-71798390D01*
X132991541Y-71798390D02*
X132991541Y-72179342D01*
X132991541Y-72179342D02*
X133039160Y-72274580D01*
X133039160Y-72274580D02*
X133086779Y-72322200D01*
X133086779Y-72322200D02*
X133182017Y-72369819D01*
X133182017Y-72369819D02*
X133372493Y-72369819D01*
X133372493Y-72369819D02*
X133467731Y-72322200D01*
X133467731Y-72322200D02*
X133515350Y-72274580D01*
X133515350Y-72274580D02*
X133562969Y-72179342D01*
X133562969Y-72179342D02*
X133562969Y-71941247D01*
X133562969Y-71941247D02*
X133515350Y-71846009D01*
X133515350Y-71846009D02*
X133467731Y-71798390D01*
X133467731Y-71798390D02*
X133372493Y-71750771D01*
X133372493Y-71750771D02*
X133182017Y-71750771D01*
X133182017Y-71750771D02*
X133086779Y-71798390D01*
X133086779Y-71798390D02*
X133039160Y-71846009D01*
X133039160Y-71846009D02*
X132991541Y-71941247D01*
D10*
X109340225Y-97085912D02*
X110197368Y-97085912D01*
X109768796Y-98585912D02*
X109768796Y-97085912D01*
X111268796Y-98514484D02*
X111125939Y-98585912D01*
X111125939Y-98585912D02*
X110840225Y-98585912D01*
X110840225Y-98585912D02*
X110697367Y-98514484D01*
X110697367Y-98514484D02*
X110625939Y-98371626D01*
X110625939Y-98371626D02*
X110625939Y-97800198D01*
X110625939Y-97800198D02*
X110697367Y-97657341D01*
X110697367Y-97657341D02*
X110840225Y-97585912D01*
X110840225Y-97585912D02*
X111125939Y-97585912D01*
X111125939Y-97585912D02*
X111268796Y-97657341D01*
X111268796Y-97657341D02*
X111340225Y-97800198D01*
X111340225Y-97800198D02*
X111340225Y-97943055D01*
X111340225Y-97943055D02*
X110625939Y-98085912D01*
X112554510Y-98514484D02*
X112411653Y-98585912D01*
X112411653Y-98585912D02*
X112125939Y-98585912D01*
X112125939Y-98585912D02*
X111983081Y-98514484D01*
X111983081Y-98514484D02*
X111911653Y-98371626D01*
X111911653Y-98371626D02*
X111911653Y-97800198D01*
X111911653Y-97800198D02*
X111983081Y-97657341D01*
X111983081Y-97657341D02*
X112125939Y-97585912D01*
X112125939Y-97585912D02*
X112411653Y-97585912D01*
X112411653Y-97585912D02*
X112554510Y-97657341D01*
X112554510Y-97657341D02*
X112625939Y-97800198D01*
X112625939Y-97800198D02*
X112625939Y-97943055D01*
X112625939Y-97943055D02*
X111911653Y-98085912D01*
X113268795Y-97585912D02*
X113268795Y-98585912D01*
X113268795Y-97728769D02*
X113340224Y-97657341D01*
X113340224Y-97657341D02*
X113483081Y-97585912D01*
X113483081Y-97585912D02*
X113697367Y-97585912D01*
X113697367Y-97585912D02*
X113840224Y-97657341D01*
X113840224Y-97657341D02*
X113911653Y-97800198D01*
X113911653Y-97800198D02*
X113911653Y-98585912D01*
X114554510Y-98514484D02*
X114697367Y-98585912D01*
X114697367Y-98585912D02*
X114983081Y-98585912D01*
X114983081Y-98585912D02*
X115125938Y-98514484D01*
X115125938Y-98514484D02*
X115197367Y-98371626D01*
X115197367Y-98371626D02*
X115197367Y-98300198D01*
X115197367Y-98300198D02*
X115125938Y-98157341D01*
X115125938Y-98157341D02*
X114983081Y-98085912D01*
X114983081Y-98085912D02*
X114768796Y-98085912D01*
X114768796Y-98085912D02*
X114625938Y-98014484D01*
X114625938Y-98014484D02*
X114554510Y-97871626D01*
X114554510Y-97871626D02*
X114554510Y-97800198D01*
X114554510Y-97800198D02*
X114625938Y-97657341D01*
X114625938Y-97657341D02*
X114768796Y-97585912D01*
X114768796Y-97585912D02*
X114983081Y-97585912D01*
X114983081Y-97585912D02*
X115125938Y-97657341D01*
X115697367Y-97585912D02*
X116054510Y-98585912D01*
X116411653Y-97585912D02*
X116054510Y-98585912D01*
X116054510Y-98585912D02*
X115911653Y-98943055D01*
X115911653Y-98943055D02*
X115840224Y-99014484D01*
X115840224Y-99014484D02*
X115697367Y-99085912D01*
X118768796Y-97585912D02*
X118768796Y-98585912D01*
X118411653Y-97014484D02*
X118054510Y-98085912D01*
X118054510Y-98085912D02*
X118983081Y-98085912D01*
X119554509Y-98443055D02*
X119625938Y-98514484D01*
X119625938Y-98514484D02*
X119554509Y-98585912D01*
X119554509Y-98585912D02*
X119483081Y-98514484D01*
X119483081Y-98514484D02*
X119554509Y-98443055D01*
X119554509Y-98443055D02*
X119554509Y-98585912D01*
X120554510Y-97085912D02*
X120697367Y-97085912D01*
X120697367Y-97085912D02*
X120840224Y-97157341D01*
X120840224Y-97157341D02*
X120911653Y-97228769D01*
X120911653Y-97228769D02*
X120983081Y-97371626D01*
X120983081Y-97371626D02*
X121054510Y-97657341D01*
X121054510Y-97657341D02*
X121054510Y-98014484D01*
X121054510Y-98014484D02*
X120983081Y-98300198D01*
X120983081Y-98300198D02*
X120911653Y-98443055D01*
X120911653Y-98443055D02*
X120840224Y-98514484D01*
X120840224Y-98514484D02*
X120697367Y-98585912D01*
X120697367Y-98585912D02*
X120554510Y-98585912D01*
X120554510Y-98585912D02*
X120411653Y-98514484D01*
X120411653Y-98514484D02*
X120340224Y-98443055D01*
X120340224Y-98443055D02*
X120268795Y-98300198D01*
X120268795Y-98300198D02*
X120197367Y-98014484D01*
X120197367Y-98014484D02*
X120197367Y-97657341D01*
X120197367Y-97657341D02*
X120268795Y-97371626D01*
X120268795Y-97371626D02*
X120340224Y-97228769D01*
X120340224Y-97228769D02*
X120411653Y-97157341D01*
X120411653Y-97157341D02*
X120554510Y-97085912D01*
X109554510Y-101000828D02*
X109554510Y-99500828D01*
X109554510Y-100215114D02*
X110411653Y-100215114D01*
X110411653Y-101000828D02*
X110411653Y-99500828D01*
X111697368Y-100929400D02*
X111554511Y-101000828D01*
X111554511Y-101000828D02*
X111268797Y-101000828D01*
X111268797Y-101000828D02*
X111125939Y-100929400D01*
X111125939Y-100929400D02*
X111054511Y-100786542D01*
X111054511Y-100786542D02*
X111054511Y-100215114D01*
X111054511Y-100215114D02*
X111125939Y-100072257D01*
X111125939Y-100072257D02*
X111268797Y-100000828D01*
X111268797Y-100000828D02*
X111554511Y-100000828D01*
X111554511Y-100000828D02*
X111697368Y-100072257D01*
X111697368Y-100072257D02*
X111768797Y-100215114D01*
X111768797Y-100215114D02*
X111768797Y-100357971D01*
X111768797Y-100357971D02*
X111054511Y-100500828D01*
X112268796Y-101000828D02*
X113054511Y-100000828D01*
X112268796Y-100000828D02*
X113054511Y-101000828D01*
X114268797Y-101000828D02*
X114268797Y-100215114D01*
X114268797Y-100215114D02*
X114197368Y-100072257D01*
X114197368Y-100072257D02*
X114054511Y-100000828D01*
X114054511Y-100000828D02*
X113768797Y-100000828D01*
X113768797Y-100000828D02*
X113625939Y-100072257D01*
X114268797Y-100929400D02*
X114125939Y-101000828D01*
X114125939Y-101000828D02*
X113768797Y-101000828D01*
X113768797Y-101000828D02*
X113625939Y-100929400D01*
X113625939Y-100929400D02*
X113554511Y-100786542D01*
X113554511Y-100786542D02*
X113554511Y-100643685D01*
X113554511Y-100643685D02*
X113625939Y-100500828D01*
X113625939Y-100500828D02*
X113768797Y-100429400D01*
X113768797Y-100429400D02*
X114125939Y-100429400D01*
X114125939Y-100429400D02*
X114268797Y-100357971D01*
X114983082Y-100000828D02*
X114983082Y-101500828D01*
X114983082Y-100072257D02*
X115125940Y-100000828D01*
X115125940Y-100000828D02*
X115411654Y-100000828D01*
X115411654Y-100000828D02*
X115554511Y-100072257D01*
X115554511Y-100072257D02*
X115625940Y-100143685D01*
X115625940Y-100143685D02*
X115697368Y-100286542D01*
X115697368Y-100286542D02*
X115697368Y-100715114D01*
X115697368Y-100715114D02*
X115625940Y-100857971D01*
X115625940Y-100857971D02*
X115554511Y-100929400D01*
X115554511Y-100929400D02*
X115411654Y-101000828D01*
X115411654Y-101000828D02*
X115125940Y-101000828D01*
X115125940Y-101000828D02*
X114983082Y-100929400D01*
X116554511Y-101000828D02*
X116411654Y-100929400D01*
X116411654Y-100929400D02*
X116340225Y-100857971D01*
X116340225Y-100857971D02*
X116268797Y-100715114D01*
X116268797Y-100715114D02*
X116268797Y-100286542D01*
X116268797Y-100286542D02*
X116340225Y-100143685D01*
X116340225Y-100143685D02*
X116411654Y-100072257D01*
X116411654Y-100072257D02*
X116554511Y-100000828D01*
X116554511Y-100000828D02*
X116768797Y-100000828D01*
X116768797Y-100000828D02*
X116911654Y-100072257D01*
X116911654Y-100072257D02*
X116983083Y-100143685D01*
X116983083Y-100143685D02*
X117054511Y-100286542D01*
X117054511Y-100286542D02*
X117054511Y-100715114D01*
X117054511Y-100715114D02*
X116983083Y-100857971D01*
X116983083Y-100857971D02*
X116911654Y-100929400D01*
X116911654Y-100929400D02*
X116768797Y-101000828D01*
X116768797Y-101000828D02*
X116554511Y-101000828D01*
X118340226Y-101000828D02*
X118340226Y-99500828D01*
X118340226Y-100929400D02*
X118197368Y-101000828D01*
X118197368Y-101000828D02*
X117911654Y-101000828D01*
X117911654Y-101000828D02*
X117768797Y-100929400D01*
X117768797Y-100929400D02*
X117697368Y-100857971D01*
X117697368Y-100857971D02*
X117625940Y-100715114D01*
X117625940Y-100715114D02*
X117625940Y-100286542D01*
X117625940Y-100286542D02*
X117697368Y-100143685D01*
X117697368Y-100143685D02*
X117768797Y-100072257D01*
X117768797Y-100072257D02*
X117911654Y-100000828D01*
X117911654Y-100000828D02*
X118197368Y-100000828D01*
X118197368Y-100000828D02*
X118340226Y-100072257D01*
X121054511Y-100857971D02*
X120983083Y-100929400D01*
X120983083Y-100929400D02*
X120768797Y-101000828D01*
X120768797Y-101000828D02*
X120625940Y-101000828D01*
X120625940Y-101000828D02*
X120411654Y-100929400D01*
X120411654Y-100929400D02*
X120268797Y-100786542D01*
X120268797Y-100786542D02*
X120197368Y-100643685D01*
X120197368Y-100643685D02*
X120125940Y-100357971D01*
X120125940Y-100357971D02*
X120125940Y-100143685D01*
X120125940Y-100143685D02*
X120197368Y-99857971D01*
X120197368Y-99857971D02*
X120268797Y-99715114D01*
X120268797Y-99715114D02*
X120411654Y-99572257D01*
X120411654Y-99572257D02*
X120625940Y-99500828D01*
X120625940Y-99500828D02*
X120768797Y-99500828D01*
X120768797Y-99500828D02*
X120983083Y-99572257D01*
X120983083Y-99572257D02*
X121054511Y-99643685D01*
X121911654Y-101000828D02*
X121768797Y-100929400D01*
X121768797Y-100929400D02*
X121697368Y-100857971D01*
X121697368Y-100857971D02*
X121625940Y-100715114D01*
X121625940Y-100715114D02*
X121625940Y-100286542D01*
X121625940Y-100286542D02*
X121697368Y-100143685D01*
X121697368Y-100143685D02*
X121768797Y-100072257D01*
X121768797Y-100072257D02*
X121911654Y-100000828D01*
X121911654Y-100000828D02*
X122125940Y-100000828D01*
X122125940Y-100000828D02*
X122268797Y-100072257D01*
X122268797Y-100072257D02*
X122340226Y-100143685D01*
X122340226Y-100143685D02*
X122411654Y-100286542D01*
X122411654Y-100286542D02*
X122411654Y-100715114D01*
X122411654Y-100715114D02*
X122340226Y-100857971D01*
X122340226Y-100857971D02*
X122268797Y-100929400D01*
X122268797Y-100929400D02*
X122125940Y-101000828D01*
X122125940Y-101000828D02*
X121911654Y-101000828D01*
X123054511Y-100000828D02*
X123054511Y-101000828D01*
X123054511Y-100143685D02*
X123125940Y-100072257D01*
X123125940Y-100072257D02*
X123268797Y-100000828D01*
X123268797Y-100000828D02*
X123483083Y-100000828D01*
X123483083Y-100000828D02*
X123625940Y-100072257D01*
X123625940Y-100072257D02*
X123697369Y-100215114D01*
X123697369Y-100215114D02*
X123697369Y-101000828D01*
X124197369Y-100000828D02*
X124768797Y-100000828D01*
X124411654Y-99500828D02*
X124411654Y-100786542D01*
X124411654Y-100786542D02*
X124483083Y-100929400D01*
X124483083Y-100929400D02*
X124625940Y-101000828D01*
X124625940Y-101000828D02*
X124768797Y-101000828D01*
X125268797Y-101000828D02*
X125268797Y-100000828D01*
X125268797Y-100286542D02*
X125340226Y-100143685D01*
X125340226Y-100143685D02*
X125411655Y-100072257D01*
X125411655Y-100072257D02*
X125554512Y-100000828D01*
X125554512Y-100000828D02*
X125697369Y-100000828D01*
X126411654Y-101000828D02*
X126268797Y-100929400D01*
X126268797Y-100929400D02*
X126197368Y-100857971D01*
X126197368Y-100857971D02*
X126125940Y-100715114D01*
X126125940Y-100715114D02*
X126125940Y-100286542D01*
X126125940Y-100286542D02*
X126197368Y-100143685D01*
X126197368Y-100143685D02*
X126268797Y-100072257D01*
X126268797Y-100072257D02*
X126411654Y-100000828D01*
X126411654Y-100000828D02*
X126625940Y-100000828D01*
X126625940Y-100000828D02*
X126768797Y-100072257D01*
X126768797Y-100072257D02*
X126840226Y-100143685D01*
X126840226Y-100143685D02*
X126911654Y-100286542D01*
X126911654Y-100286542D02*
X126911654Y-100715114D01*
X126911654Y-100715114D02*
X126840226Y-100857971D01*
X126840226Y-100857971D02*
X126768797Y-100929400D01*
X126768797Y-100929400D02*
X126625940Y-101000828D01*
X126625940Y-101000828D02*
X126411654Y-101000828D01*
X127768797Y-101000828D02*
X127625940Y-100929400D01*
X127625940Y-100929400D02*
X127554511Y-100786542D01*
X127554511Y-100786542D02*
X127554511Y-99500828D01*
X128554511Y-101000828D02*
X128411654Y-100929400D01*
X128411654Y-100929400D02*
X128340225Y-100786542D01*
X128340225Y-100786542D02*
X128340225Y-99500828D01*
X129697368Y-100929400D02*
X129554511Y-101000828D01*
X129554511Y-101000828D02*
X129268797Y-101000828D01*
X129268797Y-101000828D02*
X129125939Y-100929400D01*
X129125939Y-100929400D02*
X129054511Y-100786542D01*
X129054511Y-100786542D02*
X129054511Y-100215114D01*
X129054511Y-100215114D02*
X129125939Y-100072257D01*
X129125939Y-100072257D02*
X129268797Y-100000828D01*
X129268797Y-100000828D02*
X129554511Y-100000828D01*
X129554511Y-100000828D02*
X129697368Y-100072257D01*
X129697368Y-100072257D02*
X129768797Y-100215114D01*
X129768797Y-100215114D02*
X129768797Y-100357971D01*
X129768797Y-100357971D02*
X129054511Y-100500828D01*
X130411653Y-101000828D02*
X130411653Y-100000828D01*
X130411653Y-100286542D02*
X130483082Y-100143685D01*
X130483082Y-100143685D02*
X130554511Y-100072257D01*
X130554511Y-100072257D02*
X130697368Y-100000828D01*
X130697368Y-100000828D02*
X130840225Y-100000828D01*
D11*
X137039160Y-78465057D02*
X137086779Y-78417438D01*
X137086779Y-78417438D02*
X137182017Y-78369819D01*
X137182017Y-78369819D02*
X137420112Y-78369819D01*
X137420112Y-78369819D02*
X137515350Y-78417438D01*
X137515350Y-78417438D02*
X137562969Y-78465057D01*
X137562969Y-78465057D02*
X137610588Y-78560295D01*
X137610588Y-78560295D02*
X137610588Y-78655533D01*
X137610588Y-78655533D02*
X137562969Y-78798390D01*
X137562969Y-78798390D02*
X136991541Y-79369819D01*
X136991541Y-79369819D02*
X137610588Y-79369819D01*
X138182017Y-78798390D02*
X138086779Y-78750771D01*
X138086779Y-78750771D02*
X138039160Y-78703152D01*
X138039160Y-78703152D02*
X137991541Y-78607914D01*
X137991541Y-78607914D02*
X137991541Y-78560295D01*
X137991541Y-78560295D02*
X138039160Y-78465057D01*
X138039160Y-78465057D02*
X138086779Y-78417438D01*
X138086779Y-78417438D02*
X138182017Y-78369819D01*
X138182017Y-78369819D02*
X138372493Y-78369819D01*
X138372493Y-78369819D02*
X138467731Y-78417438D01*
X138467731Y-78417438D02*
X138515350Y-78465057D01*
X138515350Y-78465057D02*
X138562969Y-78560295D01*
X138562969Y-78560295D02*
X138562969Y-78607914D01*
X138562969Y-78607914D02*
X138515350Y-78703152D01*
X138515350Y-78703152D02*
X138467731Y-78750771D01*
X138467731Y-78750771D02*
X138372493Y-78798390D01*
X138372493Y-78798390D02*
X138182017Y-78798390D01*
X138182017Y-78798390D02*
X138086779Y-78846009D01*
X138086779Y-78846009D02*
X138039160Y-78893628D01*
X138039160Y-78893628D02*
X137991541Y-78988866D01*
X137991541Y-78988866D02*
X137991541Y-79179342D01*
X137991541Y-79179342D02*
X138039160Y-79274580D01*
X138039160Y-79274580D02*
X138086779Y-79322200D01*
X138086779Y-79322200D02*
X138182017Y-79369819D01*
X138182017Y-79369819D02*
X138372493Y-79369819D01*
X138372493Y-79369819D02*
X138467731Y-79322200D01*
X138467731Y-79322200D02*
X138515350Y-79274580D01*
X138515350Y-79274580D02*
X138562969Y-79179342D01*
X138562969Y-79179342D02*
X138562969Y-78988866D01*
X138562969Y-78988866D02*
X138515350Y-78893628D01*
X138515350Y-78893628D02*
X138467731Y-78846009D01*
X138467731Y-78846009D02*
X138372493Y-78798390D01*
X131991541Y-78369819D02*
X132610588Y-78369819D01*
X132610588Y-78369819D02*
X132277255Y-78750771D01*
X132277255Y-78750771D02*
X132420112Y-78750771D01*
X132420112Y-78750771D02*
X132515350Y-78798390D01*
X132515350Y-78798390D02*
X132562969Y-78846009D01*
X132562969Y-78846009D02*
X132610588Y-78941247D01*
X132610588Y-78941247D02*
X132610588Y-79179342D01*
X132610588Y-79179342D02*
X132562969Y-79274580D01*
X132562969Y-79274580D02*
X132515350Y-79322200D01*
X132515350Y-79322200D02*
X132420112Y-79369819D01*
X132420112Y-79369819D02*
X132134398Y-79369819D01*
X132134398Y-79369819D02*
X132039160Y-79322200D01*
X132039160Y-79322200D02*
X131991541Y-79274580D01*
X133229636Y-78369819D02*
X133324874Y-78369819D01*
X133324874Y-78369819D02*
X133420112Y-78417438D01*
X133420112Y-78417438D02*
X133467731Y-78465057D01*
X133467731Y-78465057D02*
X133515350Y-78560295D01*
X133515350Y-78560295D02*
X133562969Y-78750771D01*
X133562969Y-78750771D02*
X133562969Y-78988866D01*
X133562969Y-78988866D02*
X133515350Y-79179342D01*
X133515350Y-79179342D02*
X133467731Y-79274580D01*
X133467731Y-79274580D02*
X133420112Y-79322200D01*
X133420112Y-79322200D02*
X133324874Y-79369819D01*
X133324874Y-79369819D02*
X133229636Y-79369819D01*
X133229636Y-79369819D02*
X133134398Y-79322200D01*
X133134398Y-79322200D02*
X133086779Y-79274580D01*
X133086779Y-79274580D02*
X133039160Y-79179342D01*
X133039160Y-79179342D02*
X132991541Y-78988866D01*
X132991541Y-78988866D02*
X132991541Y-78750771D01*
X132991541Y-78750771D02*
X133039160Y-78560295D01*
X133039160Y-78560295D02*
X133086779Y-78465057D01*
X133086779Y-78465057D02*
X133134398Y-78417438D01*
X133134398Y-78417438D02*
X133229636Y-78369819D01*
X134539160Y-71465057D02*
X134586779Y-71417438D01*
X134586779Y-71417438D02*
X134682017Y-71369819D01*
X134682017Y-71369819D02*
X134920112Y-71369819D01*
X134920112Y-71369819D02*
X135015350Y-71417438D01*
X135015350Y-71417438D02*
X135062969Y-71465057D01*
X135062969Y-71465057D02*
X135110588Y-71560295D01*
X135110588Y-71560295D02*
X135110588Y-71655533D01*
X135110588Y-71655533D02*
X135062969Y-71798390D01*
X135062969Y-71798390D02*
X134491541Y-72369819D01*
X134491541Y-72369819D02*
X135110588Y-72369819D01*
X136015350Y-71369819D02*
X135539160Y-71369819D01*
X135539160Y-71369819D02*
X135491541Y-71846009D01*
X135491541Y-71846009D02*
X135539160Y-71798390D01*
X135539160Y-71798390D02*
X135634398Y-71750771D01*
X135634398Y-71750771D02*
X135872493Y-71750771D01*
X135872493Y-71750771D02*
X135967731Y-71798390D01*
X135967731Y-71798390D02*
X136015350Y-71846009D01*
X136015350Y-71846009D02*
X136062969Y-71941247D01*
X136062969Y-71941247D02*
X136062969Y-72179342D01*
X136062969Y-72179342D02*
X136015350Y-72274580D01*
X136015350Y-72274580D02*
X135967731Y-72322200D01*
X135967731Y-72322200D02*
X135872493Y-72369819D01*
X135872493Y-72369819D02*
X135634398Y-72369819D01*
X135634398Y-72369819D02*
X135539160Y-72322200D01*
X135539160Y-72322200D02*
X135491541Y-72274580D01*
X129289160Y-71465057D02*
X129336779Y-71417438D01*
X129336779Y-71417438D02*
X129432017Y-71369819D01*
X129432017Y-71369819D02*
X129670112Y-71369819D01*
X129670112Y-71369819D02*
X129765350Y-71417438D01*
X129765350Y-71417438D02*
X129812969Y-71465057D01*
X129812969Y-71465057D02*
X129860588Y-71560295D01*
X129860588Y-71560295D02*
X129860588Y-71655533D01*
X129860588Y-71655533D02*
X129812969Y-71798390D01*
X129812969Y-71798390D02*
X129241541Y-72369819D01*
X129241541Y-72369819D02*
X129860588Y-72369819D01*
X130193922Y-71369819D02*
X130860588Y-71369819D01*
X130860588Y-71369819D02*
X130432017Y-72369819D01*
X106738095Y-92204819D02*
X106738095Y-93014342D01*
X106738095Y-93014342D02*
X106785714Y-93109580D01*
X106785714Y-93109580D02*
X106833333Y-93157200D01*
X106833333Y-93157200D02*
X106928571Y-93204819D01*
X106928571Y-93204819D02*
X107119047Y-93204819D01*
X107119047Y-93204819D02*
X107214285Y-93157200D01*
X107214285Y-93157200D02*
X107261904Y-93109580D01*
X107261904Y-93109580D02*
X107309523Y-93014342D01*
X107309523Y-93014342D02*
X107309523Y-92204819D01*
X108309523Y-93204819D02*
X107738095Y-93204819D01*
X108023809Y-93204819D02*
X108023809Y-92204819D01*
X108023809Y-92204819D02*
X107928571Y-92347676D01*
X107928571Y-92347676D02*
X107833333Y-92442914D01*
X107833333Y-92442914D02*
X107738095Y-92490533D01*
D13*
X138206237Y-123510318D02*
X138206237Y-122240318D01*
X139536714Y-123389365D02*
X139476238Y-123449842D01*
X139476238Y-123449842D02*
X139294809Y-123510318D01*
X139294809Y-123510318D02*
X139173857Y-123510318D01*
X139173857Y-123510318D02*
X138992428Y-123449842D01*
X138992428Y-123449842D02*
X138871476Y-123328889D01*
X138871476Y-123328889D02*
X138810999Y-123207937D01*
X138810999Y-123207937D02*
X138750523Y-122966032D01*
X138750523Y-122966032D02*
X138750523Y-122784603D01*
X138750523Y-122784603D02*
X138810999Y-122542699D01*
X138810999Y-122542699D02*
X138871476Y-122421746D01*
X138871476Y-122421746D02*
X138992428Y-122300794D01*
X138992428Y-122300794D02*
X139173857Y-122240318D01*
X139173857Y-122240318D02*
X139294809Y-122240318D01*
X139294809Y-122240318D02*
X139476238Y-122300794D01*
X139476238Y-122300794D02*
X139536714Y-122361270D01*
X140020523Y-122361270D02*
X140080999Y-122300794D01*
X140080999Y-122300794D02*
X140201952Y-122240318D01*
X140201952Y-122240318D02*
X140504333Y-122240318D01*
X140504333Y-122240318D02*
X140625285Y-122300794D01*
X140625285Y-122300794D02*
X140685761Y-122361270D01*
X140685761Y-122361270D02*
X140746238Y-122482222D01*
X140746238Y-122482222D02*
X140746238Y-122603175D01*
X140746238Y-122603175D02*
X140685761Y-122784603D01*
X140685761Y-122784603D02*
X139960047Y-123510318D01*
X139960047Y-123510318D02*
X140746238Y-123510318D01*
D11*
X151519047Y-122431009D02*
X151661904Y-122478628D01*
X151661904Y-122478628D02*
X151709523Y-122526247D01*
X151709523Y-122526247D02*
X151757142Y-122621485D01*
X151757142Y-122621485D02*
X151757142Y-122764342D01*
X151757142Y-122764342D02*
X151709523Y-122859580D01*
X151709523Y-122859580D02*
X151661904Y-122907200D01*
X151661904Y-122907200D02*
X151566666Y-122954819D01*
X151566666Y-122954819D02*
X151185714Y-122954819D01*
X151185714Y-122954819D02*
X151185714Y-121954819D01*
X151185714Y-121954819D02*
X151519047Y-121954819D01*
X151519047Y-121954819D02*
X151614285Y-122002438D01*
X151614285Y-122002438D02*
X151661904Y-122050057D01*
X151661904Y-122050057D02*
X151709523Y-122145295D01*
X151709523Y-122145295D02*
X151709523Y-122240533D01*
X151709523Y-122240533D02*
X151661904Y-122335771D01*
X151661904Y-122335771D02*
X151614285Y-122383390D01*
X151614285Y-122383390D02*
X151519047Y-122431009D01*
X151519047Y-122431009D02*
X151185714Y-122431009D01*
X152090476Y-121954819D02*
X152757142Y-121954819D01*
X152757142Y-121954819D02*
X152090476Y-122954819D01*
X152090476Y-122954819D02*
X152757142Y-122954819D01*
X153661904Y-122954819D02*
X153090476Y-122954819D01*
X153376190Y-122954819D02*
X153376190Y-121954819D01*
X153376190Y-121954819D02*
X153280952Y-122097676D01*
X153280952Y-122097676D02*
X153185714Y-122192914D01*
X153185714Y-122192914D02*
X153090476Y-122240533D01*
X147609048Y-117533866D02*
X148370953Y-117533866D01*
X147990000Y-117914819D02*
X147990000Y-117152914D01*
X174238095Y-79204819D02*
X174238095Y-78204819D01*
X174238095Y-78681009D02*
X174809523Y-78681009D01*
X174809523Y-79204819D02*
X174809523Y-78204819D01*
X175238095Y-78300057D02*
X175285714Y-78252438D01*
X175285714Y-78252438D02*
X175380952Y-78204819D01*
X175380952Y-78204819D02*
X175619047Y-78204819D01*
X175619047Y-78204819D02*
X175714285Y-78252438D01*
X175714285Y-78252438D02*
X175761904Y-78300057D01*
X175761904Y-78300057D02*
X175809523Y-78395295D01*
X175809523Y-78395295D02*
X175809523Y-78490533D01*
X175809523Y-78490533D02*
X175761904Y-78633390D01*
X175761904Y-78633390D02*
X175190476Y-79204819D01*
X175190476Y-79204819D02*
X175809523Y-79204819D01*
X143615580Y-94368857D02*
X143663200Y-94416476D01*
X143663200Y-94416476D02*
X143710819Y-94559333D01*
X143710819Y-94559333D02*
X143710819Y-94654571D01*
X143710819Y-94654571D02*
X143663200Y-94797428D01*
X143663200Y-94797428D02*
X143567961Y-94892666D01*
X143567961Y-94892666D02*
X143472723Y-94940285D01*
X143472723Y-94940285D02*
X143282247Y-94987904D01*
X143282247Y-94987904D02*
X143139390Y-94987904D01*
X143139390Y-94987904D02*
X142948914Y-94940285D01*
X142948914Y-94940285D02*
X142853676Y-94892666D01*
X142853676Y-94892666D02*
X142758438Y-94797428D01*
X142758438Y-94797428D02*
X142710819Y-94654571D01*
X142710819Y-94654571D02*
X142710819Y-94559333D01*
X142710819Y-94559333D02*
X142758438Y-94416476D01*
X142758438Y-94416476D02*
X142806057Y-94368857D01*
X142806057Y-93987904D02*
X142758438Y-93940285D01*
X142758438Y-93940285D02*
X142710819Y-93845047D01*
X142710819Y-93845047D02*
X142710819Y-93606952D01*
X142710819Y-93606952D02*
X142758438Y-93511714D01*
X142758438Y-93511714D02*
X142806057Y-93464095D01*
X142806057Y-93464095D02*
X142901295Y-93416476D01*
X142901295Y-93416476D02*
X142996533Y-93416476D01*
X142996533Y-93416476D02*
X143139390Y-93464095D01*
X143139390Y-93464095D02*
X143710819Y-94035523D01*
X143710819Y-94035523D02*
X143710819Y-93416476D01*
X143044152Y-92559333D02*
X143710819Y-92559333D01*
X142663200Y-92797428D02*
X143377485Y-93035523D01*
X143377485Y-93035523D02*
X143377485Y-92416476D01*
X127366666Y-73704819D02*
X127366666Y-74419104D01*
X127366666Y-74419104D02*
X127319047Y-74561961D01*
X127319047Y-74561961D02*
X127223809Y-74657200D01*
X127223809Y-74657200D02*
X127080952Y-74704819D01*
X127080952Y-74704819D02*
X126985714Y-74704819D01*
X128366666Y-74704819D02*
X127795238Y-74704819D01*
X128080952Y-74704819D02*
X128080952Y-73704819D01*
X128080952Y-73704819D02*
X127985714Y-73847676D01*
X127985714Y-73847676D02*
X127890476Y-73942914D01*
X127890476Y-73942914D02*
X127795238Y-73990533D01*
X147679580Y-92590857D02*
X147727200Y-92638476D01*
X147727200Y-92638476D02*
X147774819Y-92781333D01*
X147774819Y-92781333D02*
X147774819Y-92876571D01*
X147774819Y-92876571D02*
X147727200Y-93019428D01*
X147727200Y-93019428D02*
X147631961Y-93114666D01*
X147631961Y-93114666D02*
X147536723Y-93162285D01*
X147536723Y-93162285D02*
X147346247Y-93209904D01*
X147346247Y-93209904D02*
X147203390Y-93209904D01*
X147203390Y-93209904D02*
X147012914Y-93162285D01*
X147012914Y-93162285D02*
X146917676Y-93114666D01*
X146917676Y-93114666D02*
X146822438Y-93019428D01*
X146822438Y-93019428D02*
X146774819Y-92876571D01*
X146774819Y-92876571D02*
X146774819Y-92781333D01*
X146774819Y-92781333D02*
X146822438Y-92638476D01*
X146822438Y-92638476D02*
X146870057Y-92590857D01*
X146870057Y-92209904D02*
X146822438Y-92162285D01*
X146822438Y-92162285D02*
X146774819Y-92067047D01*
X146774819Y-92067047D02*
X146774819Y-91828952D01*
X146774819Y-91828952D02*
X146822438Y-91733714D01*
X146822438Y-91733714D02*
X146870057Y-91686095D01*
X146870057Y-91686095D02*
X146965295Y-91638476D01*
X146965295Y-91638476D02*
X147060533Y-91638476D01*
X147060533Y-91638476D02*
X147203390Y-91686095D01*
X147203390Y-91686095D02*
X147774819Y-92257523D01*
X147774819Y-92257523D02*
X147774819Y-91638476D01*
X146774819Y-91305142D02*
X146774819Y-90686095D01*
X146774819Y-90686095D02*
X147155771Y-91019428D01*
X147155771Y-91019428D02*
X147155771Y-90876571D01*
X147155771Y-90876571D02*
X147203390Y-90781333D01*
X147203390Y-90781333D02*
X147251009Y-90733714D01*
X147251009Y-90733714D02*
X147346247Y-90686095D01*
X147346247Y-90686095D02*
X147584342Y-90686095D01*
X147584342Y-90686095D02*
X147679580Y-90733714D01*
X147679580Y-90733714D02*
X147727200Y-90781333D01*
X147727200Y-90781333D02*
X147774819Y-90876571D01*
X147774819Y-90876571D02*
X147774819Y-91162285D01*
X147774819Y-91162285D02*
X147727200Y-91257523D01*
X147727200Y-91257523D02*
X147679580Y-91305142D01*
X142105142Y-87068819D02*
X141771809Y-86592628D01*
X141533714Y-87068819D02*
X141533714Y-86068819D01*
X141533714Y-86068819D02*
X141914666Y-86068819D01*
X141914666Y-86068819D02*
X142009904Y-86116438D01*
X142009904Y-86116438D02*
X142057523Y-86164057D01*
X142057523Y-86164057D02*
X142105142Y-86259295D01*
X142105142Y-86259295D02*
X142105142Y-86402152D01*
X142105142Y-86402152D02*
X142057523Y-86497390D01*
X142057523Y-86497390D02*
X142009904Y-86545009D01*
X142009904Y-86545009D02*
X141914666Y-86592628D01*
X141914666Y-86592628D02*
X141533714Y-86592628D01*
X143057523Y-87068819D02*
X142486095Y-87068819D01*
X142771809Y-87068819D02*
X142771809Y-86068819D01*
X142771809Y-86068819D02*
X142676571Y-86211676D01*
X142676571Y-86211676D02*
X142581333Y-86306914D01*
X142581333Y-86306914D02*
X142486095Y-86354533D01*
X144009904Y-87068819D02*
X143438476Y-87068819D01*
X143724190Y-87068819D02*
X143724190Y-86068819D01*
X143724190Y-86068819D02*
X143628952Y-86211676D01*
X143628952Y-86211676D02*
X143533714Y-86306914D01*
X143533714Y-86306914D02*
X143438476Y-86354533D01*
X108238095Y-78704819D02*
X108238095Y-77704819D01*
X108238095Y-78181009D02*
X108809523Y-78181009D01*
X108809523Y-78704819D02*
X108809523Y-77704819D01*
X109809523Y-78704819D02*
X109238095Y-78704819D01*
X109523809Y-78704819D02*
X109523809Y-77704819D01*
X109523809Y-77704819D02*
X109428571Y-77847676D01*
X109428571Y-77847676D02*
X109333333Y-77942914D01*
X109333333Y-77942914D02*
X109238095Y-77990533D01*
X138309523Y-80204819D02*
X137833333Y-80204819D01*
X137833333Y-80204819D02*
X137785714Y-80681009D01*
X137785714Y-80681009D02*
X137833333Y-80633390D01*
X137833333Y-80633390D02*
X137928571Y-80585771D01*
X137928571Y-80585771D02*
X138166666Y-80585771D01*
X138166666Y-80585771D02*
X138261904Y-80633390D01*
X138261904Y-80633390D02*
X138309523Y-80681009D01*
X138309523Y-80681009D02*
X138357142Y-80776247D01*
X138357142Y-80776247D02*
X138357142Y-81014342D01*
X138357142Y-81014342D02*
X138309523Y-81109580D01*
X138309523Y-81109580D02*
X138261904Y-81157200D01*
X138261904Y-81157200D02*
X138166666Y-81204819D01*
X138166666Y-81204819D02*
X137928571Y-81204819D01*
X137928571Y-81204819D02*
X137833333Y-81157200D01*
X137833333Y-81157200D02*
X137785714Y-81109580D01*
X138642857Y-80204819D02*
X138976190Y-81204819D01*
X138976190Y-81204819D02*
X139309523Y-80204819D01*
X116107051Y-79479821D02*
X115773718Y-79003630D01*
X115535623Y-79479821D02*
X115535623Y-78479821D01*
X115535623Y-78479821D02*
X115916575Y-78479821D01*
X115916575Y-78479821D02*
X116011813Y-78527440D01*
X116011813Y-78527440D02*
X116059432Y-78575059D01*
X116059432Y-78575059D02*
X116107051Y-78670297D01*
X116107051Y-78670297D02*
X116107051Y-78813154D01*
X116107051Y-78813154D02*
X116059432Y-78908392D01*
X116059432Y-78908392D02*
X116011813Y-78956011D01*
X116011813Y-78956011D02*
X115916575Y-79003630D01*
X115916575Y-79003630D02*
X115535623Y-79003630D01*
X117059432Y-79479821D02*
X116488004Y-79479821D01*
X116773718Y-79479821D02*
X116773718Y-78479821D01*
X116773718Y-78479821D02*
X116678480Y-78622678D01*
X116678480Y-78622678D02*
X116583242Y-78717916D01*
X116583242Y-78717916D02*
X116488004Y-78765535D01*
X159054819Y-100091666D02*
X158578628Y-100424999D01*
X159054819Y-100663094D02*
X158054819Y-100663094D01*
X158054819Y-100663094D02*
X158054819Y-100282142D01*
X158054819Y-100282142D02*
X158102438Y-100186904D01*
X158102438Y-100186904D02*
X158150057Y-100139285D01*
X158150057Y-100139285D02*
X158245295Y-100091666D01*
X158245295Y-100091666D02*
X158388152Y-100091666D01*
X158388152Y-100091666D02*
X158483390Y-100139285D01*
X158483390Y-100139285D02*
X158531009Y-100186904D01*
X158531009Y-100186904D02*
X158578628Y-100282142D01*
X158578628Y-100282142D02*
X158578628Y-100663094D01*
X158150057Y-99710713D02*
X158102438Y-99663094D01*
X158102438Y-99663094D02*
X158054819Y-99567856D01*
X158054819Y-99567856D02*
X158054819Y-99329761D01*
X158054819Y-99329761D02*
X158102438Y-99234523D01*
X158102438Y-99234523D02*
X158150057Y-99186904D01*
X158150057Y-99186904D02*
X158245295Y-99139285D01*
X158245295Y-99139285D02*
X158340533Y-99139285D01*
X158340533Y-99139285D02*
X158483390Y-99186904D01*
X158483390Y-99186904D02*
X159054819Y-99758332D01*
X159054819Y-99758332D02*
X159054819Y-99139285D01*
X141851142Y-117453580D02*
X141803523Y-117501200D01*
X141803523Y-117501200D02*
X141660666Y-117548819D01*
X141660666Y-117548819D02*
X141565428Y-117548819D01*
X141565428Y-117548819D02*
X141422571Y-117501200D01*
X141422571Y-117501200D02*
X141327333Y-117405961D01*
X141327333Y-117405961D02*
X141279714Y-117310723D01*
X141279714Y-117310723D02*
X141232095Y-117120247D01*
X141232095Y-117120247D02*
X141232095Y-116977390D01*
X141232095Y-116977390D02*
X141279714Y-116786914D01*
X141279714Y-116786914D02*
X141327333Y-116691676D01*
X141327333Y-116691676D02*
X141422571Y-116596438D01*
X141422571Y-116596438D02*
X141565428Y-116548819D01*
X141565428Y-116548819D02*
X141660666Y-116548819D01*
X141660666Y-116548819D02*
X141803523Y-116596438D01*
X141803523Y-116596438D02*
X141851142Y-116644057D01*
X142803523Y-117548819D02*
X142232095Y-117548819D01*
X142517809Y-117548819D02*
X142517809Y-116548819D01*
X142517809Y-116548819D02*
X142422571Y-116691676D01*
X142422571Y-116691676D02*
X142327333Y-116786914D01*
X142327333Y-116786914D02*
X142232095Y-116834533D01*
X143136857Y-116548819D02*
X143803523Y-116548819D01*
X143803523Y-116548819D02*
X143374952Y-117548819D01*
X105959580Y-84166666D02*
X106007200Y-84214285D01*
X106007200Y-84214285D02*
X106054819Y-84357142D01*
X106054819Y-84357142D02*
X106054819Y-84452380D01*
X106054819Y-84452380D02*
X106007200Y-84595237D01*
X106007200Y-84595237D02*
X105911961Y-84690475D01*
X105911961Y-84690475D02*
X105816723Y-84738094D01*
X105816723Y-84738094D02*
X105626247Y-84785713D01*
X105626247Y-84785713D02*
X105483390Y-84785713D01*
X105483390Y-84785713D02*
X105292914Y-84738094D01*
X105292914Y-84738094D02*
X105197676Y-84690475D01*
X105197676Y-84690475D02*
X105102438Y-84595237D01*
X105102438Y-84595237D02*
X105054819Y-84452380D01*
X105054819Y-84452380D02*
X105054819Y-84357142D01*
X105054819Y-84357142D02*
X105102438Y-84214285D01*
X105102438Y-84214285D02*
X105150057Y-84166666D01*
X105150057Y-83785713D02*
X105102438Y-83738094D01*
X105102438Y-83738094D02*
X105054819Y-83642856D01*
X105054819Y-83642856D02*
X105054819Y-83404761D01*
X105054819Y-83404761D02*
X105102438Y-83309523D01*
X105102438Y-83309523D02*
X105150057Y-83261904D01*
X105150057Y-83261904D02*
X105245295Y-83214285D01*
X105245295Y-83214285D02*
X105340533Y-83214285D01*
X105340533Y-83214285D02*
X105483390Y-83261904D01*
X105483390Y-83261904D02*
X106054819Y-83833332D01*
X106054819Y-83833332D02*
X106054819Y-83214285D01*
X147854819Y-105886904D02*
X148664342Y-105886904D01*
X148664342Y-105886904D02*
X148759580Y-105839285D01*
X148759580Y-105839285D02*
X148807200Y-105791666D01*
X148807200Y-105791666D02*
X148854819Y-105696428D01*
X148854819Y-105696428D02*
X148854819Y-105505952D01*
X148854819Y-105505952D02*
X148807200Y-105410714D01*
X148807200Y-105410714D02*
X148759580Y-105363095D01*
X148759580Y-105363095D02*
X148664342Y-105315476D01*
X148664342Y-105315476D02*
X147854819Y-105315476D01*
X147854819Y-104410714D02*
X147854819Y-104601190D01*
X147854819Y-104601190D02*
X147902438Y-104696428D01*
X147902438Y-104696428D02*
X147950057Y-104744047D01*
X147950057Y-104744047D02*
X148092914Y-104839285D01*
X148092914Y-104839285D02*
X148283390Y-104886904D01*
X148283390Y-104886904D02*
X148664342Y-104886904D01*
X148664342Y-104886904D02*
X148759580Y-104839285D01*
X148759580Y-104839285D02*
X148807200Y-104791666D01*
X148807200Y-104791666D02*
X148854819Y-104696428D01*
X148854819Y-104696428D02*
X148854819Y-104505952D01*
X148854819Y-104505952D02*
X148807200Y-104410714D01*
X148807200Y-104410714D02*
X148759580Y-104363095D01*
X148759580Y-104363095D02*
X148664342Y-104315476D01*
X148664342Y-104315476D02*
X148426247Y-104315476D01*
X148426247Y-104315476D02*
X148331009Y-104363095D01*
X148331009Y-104363095D02*
X148283390Y-104410714D01*
X148283390Y-104410714D02*
X148235771Y-104505952D01*
X148235771Y-104505952D02*
X148235771Y-104696428D01*
X148235771Y-104696428D02*
X148283390Y-104791666D01*
X148283390Y-104791666D02*
X148331009Y-104839285D01*
X148331009Y-104839285D02*
X148426247Y-104886904D01*
X143964819Y-84208857D02*
X143488628Y-84542190D01*
X143964819Y-84780285D02*
X142964819Y-84780285D01*
X142964819Y-84780285D02*
X142964819Y-84399333D01*
X142964819Y-84399333D02*
X143012438Y-84304095D01*
X143012438Y-84304095D02*
X143060057Y-84256476D01*
X143060057Y-84256476D02*
X143155295Y-84208857D01*
X143155295Y-84208857D02*
X143298152Y-84208857D01*
X143298152Y-84208857D02*
X143393390Y-84256476D01*
X143393390Y-84256476D02*
X143441009Y-84304095D01*
X143441009Y-84304095D02*
X143488628Y-84399333D01*
X143488628Y-84399333D02*
X143488628Y-84780285D01*
X143964819Y-83256476D02*
X143964819Y-83827904D01*
X143964819Y-83542190D02*
X142964819Y-83542190D01*
X142964819Y-83542190D02*
X143107676Y-83637428D01*
X143107676Y-83637428D02*
X143202914Y-83732666D01*
X143202914Y-83732666D02*
X143250533Y-83827904D01*
X142964819Y-82923142D02*
X142964819Y-82304095D01*
X142964819Y-82304095D02*
X143345771Y-82637428D01*
X143345771Y-82637428D02*
X143345771Y-82494571D01*
X143345771Y-82494571D02*
X143393390Y-82399333D01*
X143393390Y-82399333D02*
X143441009Y-82351714D01*
X143441009Y-82351714D02*
X143536247Y-82304095D01*
X143536247Y-82304095D02*
X143774342Y-82304095D01*
X143774342Y-82304095D02*
X143869580Y-82351714D01*
X143869580Y-82351714D02*
X143917200Y-82399333D01*
X143917200Y-82399333D02*
X143964819Y-82494571D01*
X143964819Y-82494571D02*
X143964819Y-82780285D01*
X143964819Y-82780285D02*
X143917200Y-82875523D01*
X143917200Y-82875523D02*
X143869580Y-82923142D01*
X134119642Y-117359580D02*
X134072023Y-117407200D01*
X134072023Y-117407200D02*
X133929166Y-117454819D01*
X133929166Y-117454819D02*
X133833928Y-117454819D01*
X133833928Y-117454819D02*
X133691071Y-117407200D01*
X133691071Y-117407200D02*
X133595833Y-117311961D01*
X133595833Y-117311961D02*
X133548214Y-117216723D01*
X133548214Y-117216723D02*
X133500595Y-117026247D01*
X133500595Y-117026247D02*
X133500595Y-116883390D01*
X133500595Y-116883390D02*
X133548214Y-116692914D01*
X133548214Y-116692914D02*
X133595833Y-116597676D01*
X133595833Y-116597676D02*
X133691071Y-116502438D01*
X133691071Y-116502438D02*
X133833928Y-116454819D01*
X133833928Y-116454819D02*
X133929166Y-116454819D01*
X133929166Y-116454819D02*
X134072023Y-116502438D01*
X134072023Y-116502438D02*
X134119642Y-116550057D01*
X134500595Y-116550057D02*
X134548214Y-116502438D01*
X134548214Y-116502438D02*
X134643452Y-116454819D01*
X134643452Y-116454819D02*
X134881547Y-116454819D01*
X134881547Y-116454819D02*
X134976785Y-116502438D01*
X134976785Y-116502438D02*
X135024404Y-116550057D01*
X135024404Y-116550057D02*
X135072023Y-116645295D01*
X135072023Y-116645295D02*
X135072023Y-116740533D01*
X135072023Y-116740533D02*
X135024404Y-116883390D01*
X135024404Y-116883390D02*
X134452976Y-117454819D01*
X134452976Y-117454819D02*
X135072023Y-117454819D01*
X136024404Y-117454819D02*
X135452976Y-117454819D01*
X135738690Y-117454819D02*
X135738690Y-116454819D01*
X135738690Y-116454819D02*
X135643452Y-116597676D01*
X135643452Y-116597676D02*
X135548214Y-116692914D01*
X135548214Y-116692914D02*
X135452976Y-116740533D01*
X155107580Y-107342857D02*
X155155200Y-107390476D01*
X155155200Y-107390476D02*
X155202819Y-107533333D01*
X155202819Y-107533333D02*
X155202819Y-107628571D01*
X155202819Y-107628571D02*
X155155200Y-107771428D01*
X155155200Y-107771428D02*
X155059961Y-107866666D01*
X155059961Y-107866666D02*
X154964723Y-107914285D01*
X154964723Y-107914285D02*
X154774247Y-107961904D01*
X154774247Y-107961904D02*
X154631390Y-107961904D01*
X154631390Y-107961904D02*
X154440914Y-107914285D01*
X154440914Y-107914285D02*
X154345676Y-107866666D01*
X154345676Y-107866666D02*
X154250438Y-107771428D01*
X154250438Y-107771428D02*
X154202819Y-107628571D01*
X154202819Y-107628571D02*
X154202819Y-107533333D01*
X154202819Y-107533333D02*
X154250438Y-107390476D01*
X154250438Y-107390476D02*
X154298057Y-107342857D01*
X155202819Y-106390476D02*
X155202819Y-106961904D01*
X155202819Y-106676190D02*
X154202819Y-106676190D01*
X154202819Y-106676190D02*
X154345676Y-106771428D01*
X154345676Y-106771428D02*
X154440914Y-106866666D01*
X154440914Y-106866666D02*
X154488533Y-106961904D01*
X154631390Y-105819047D02*
X154583771Y-105914285D01*
X154583771Y-105914285D02*
X154536152Y-105961904D01*
X154536152Y-105961904D02*
X154440914Y-106009523D01*
X154440914Y-106009523D02*
X154393295Y-106009523D01*
X154393295Y-106009523D02*
X154298057Y-105961904D01*
X154298057Y-105961904D02*
X154250438Y-105914285D01*
X154250438Y-105914285D02*
X154202819Y-105819047D01*
X154202819Y-105819047D02*
X154202819Y-105628571D01*
X154202819Y-105628571D02*
X154250438Y-105533333D01*
X154250438Y-105533333D02*
X154298057Y-105485714D01*
X154298057Y-105485714D02*
X154393295Y-105438095D01*
X154393295Y-105438095D02*
X154440914Y-105438095D01*
X154440914Y-105438095D02*
X154536152Y-105485714D01*
X154536152Y-105485714D02*
X154583771Y-105533333D01*
X154583771Y-105533333D02*
X154631390Y-105628571D01*
X154631390Y-105628571D02*
X154631390Y-105819047D01*
X154631390Y-105819047D02*
X154679009Y-105914285D01*
X154679009Y-105914285D02*
X154726628Y-105961904D01*
X154726628Y-105961904D02*
X154821866Y-106009523D01*
X154821866Y-106009523D02*
X155012342Y-106009523D01*
X155012342Y-106009523D02*
X155107580Y-105961904D01*
X155107580Y-105961904D02*
X155155200Y-105914285D01*
X155155200Y-105914285D02*
X155202819Y-105819047D01*
X155202819Y-105819047D02*
X155202819Y-105628571D01*
X155202819Y-105628571D02*
X155155200Y-105533333D01*
X155155200Y-105533333D02*
X155107580Y-105485714D01*
X155107580Y-105485714D02*
X155012342Y-105438095D01*
X155012342Y-105438095D02*
X154821866Y-105438095D01*
X154821866Y-105438095D02*
X154726628Y-105485714D01*
X154726628Y-105485714D02*
X154679009Y-105533333D01*
X154679009Y-105533333D02*
X154631390Y-105628571D01*
X113607142Y-87359580D02*
X113559523Y-87407200D01*
X113559523Y-87407200D02*
X113416666Y-87454819D01*
X113416666Y-87454819D02*
X113321428Y-87454819D01*
X113321428Y-87454819D02*
X113178571Y-87407200D01*
X113178571Y-87407200D02*
X113083333Y-87311961D01*
X113083333Y-87311961D02*
X113035714Y-87216723D01*
X113035714Y-87216723D02*
X112988095Y-87026247D01*
X112988095Y-87026247D02*
X112988095Y-86883390D01*
X112988095Y-86883390D02*
X113035714Y-86692914D01*
X113035714Y-86692914D02*
X113083333Y-86597676D01*
X113083333Y-86597676D02*
X113178571Y-86502438D01*
X113178571Y-86502438D02*
X113321428Y-86454819D01*
X113321428Y-86454819D02*
X113416666Y-86454819D01*
X113416666Y-86454819D02*
X113559523Y-86502438D01*
X113559523Y-86502438D02*
X113607142Y-86550057D01*
X114559523Y-87454819D02*
X113988095Y-87454819D01*
X114273809Y-87454819D02*
X114273809Y-86454819D01*
X114273809Y-86454819D02*
X114178571Y-86597676D01*
X114178571Y-86597676D02*
X114083333Y-86692914D01*
X114083333Y-86692914D02*
X113988095Y-86740533D01*
X115416666Y-86788152D02*
X115416666Y-87454819D01*
X115178571Y-86407200D02*
X114940476Y-87121485D01*
X114940476Y-87121485D02*
X115559523Y-87121485D01*
X156359580Y-77642857D02*
X156407200Y-77690476D01*
X156407200Y-77690476D02*
X156454819Y-77833333D01*
X156454819Y-77833333D02*
X156454819Y-77928571D01*
X156454819Y-77928571D02*
X156407200Y-78071428D01*
X156407200Y-78071428D02*
X156311961Y-78166666D01*
X156311961Y-78166666D02*
X156216723Y-78214285D01*
X156216723Y-78214285D02*
X156026247Y-78261904D01*
X156026247Y-78261904D02*
X155883390Y-78261904D01*
X155883390Y-78261904D02*
X155692914Y-78214285D01*
X155692914Y-78214285D02*
X155597676Y-78166666D01*
X155597676Y-78166666D02*
X155502438Y-78071428D01*
X155502438Y-78071428D02*
X155454819Y-77928571D01*
X155454819Y-77928571D02*
X155454819Y-77833333D01*
X155454819Y-77833333D02*
X155502438Y-77690476D01*
X155502438Y-77690476D02*
X155550057Y-77642857D01*
X156454819Y-76690476D02*
X156454819Y-77261904D01*
X156454819Y-76976190D02*
X155454819Y-76976190D01*
X155454819Y-76976190D02*
X155597676Y-77071428D01*
X155597676Y-77071428D02*
X155692914Y-77166666D01*
X155692914Y-77166666D02*
X155740533Y-77261904D01*
X155454819Y-76357142D02*
X155454819Y-75738095D01*
X155454819Y-75738095D02*
X155835771Y-76071428D01*
X155835771Y-76071428D02*
X155835771Y-75928571D01*
X155835771Y-75928571D02*
X155883390Y-75833333D01*
X155883390Y-75833333D02*
X155931009Y-75785714D01*
X155931009Y-75785714D02*
X156026247Y-75738095D01*
X156026247Y-75738095D02*
X156264342Y-75738095D01*
X156264342Y-75738095D02*
X156359580Y-75785714D01*
X156359580Y-75785714D02*
X156407200Y-75833333D01*
X156407200Y-75833333D02*
X156454819Y-75928571D01*
X156454819Y-75928571D02*
X156454819Y-76214285D01*
X156454819Y-76214285D02*
X156407200Y-76309523D01*
X156407200Y-76309523D02*
X156359580Y-76357142D01*
X145359580Y-103567857D02*
X145407200Y-103615476D01*
X145407200Y-103615476D02*
X145454819Y-103758333D01*
X145454819Y-103758333D02*
X145454819Y-103853571D01*
X145454819Y-103853571D02*
X145407200Y-103996428D01*
X145407200Y-103996428D02*
X145311961Y-104091666D01*
X145311961Y-104091666D02*
X145216723Y-104139285D01*
X145216723Y-104139285D02*
X145026247Y-104186904D01*
X145026247Y-104186904D02*
X144883390Y-104186904D01*
X144883390Y-104186904D02*
X144692914Y-104139285D01*
X144692914Y-104139285D02*
X144597676Y-104091666D01*
X144597676Y-104091666D02*
X144502438Y-103996428D01*
X144502438Y-103996428D02*
X144454819Y-103853571D01*
X144454819Y-103853571D02*
X144454819Y-103758333D01*
X144454819Y-103758333D02*
X144502438Y-103615476D01*
X144502438Y-103615476D02*
X144550057Y-103567857D01*
X145454819Y-102615476D02*
X145454819Y-103186904D01*
X145454819Y-102901190D02*
X144454819Y-102901190D01*
X144454819Y-102901190D02*
X144597676Y-102996428D01*
X144597676Y-102996428D02*
X144692914Y-103091666D01*
X144692914Y-103091666D02*
X144740533Y-103186904D01*
X144454819Y-101758333D02*
X144454819Y-101948809D01*
X144454819Y-101948809D02*
X144502438Y-102044047D01*
X144502438Y-102044047D02*
X144550057Y-102091666D01*
X144550057Y-102091666D02*
X144692914Y-102186904D01*
X144692914Y-102186904D02*
X144883390Y-102234523D01*
X144883390Y-102234523D02*
X145264342Y-102234523D01*
X145264342Y-102234523D02*
X145359580Y-102186904D01*
X145359580Y-102186904D02*
X145407200Y-102139285D01*
X145407200Y-102139285D02*
X145454819Y-102044047D01*
X145454819Y-102044047D02*
X145454819Y-101853571D01*
X145454819Y-101853571D02*
X145407200Y-101758333D01*
X145407200Y-101758333D02*
X145359580Y-101710714D01*
X145359580Y-101710714D02*
X145264342Y-101663095D01*
X145264342Y-101663095D02*
X145026247Y-101663095D01*
X145026247Y-101663095D02*
X144931009Y-101710714D01*
X144931009Y-101710714D02*
X144883390Y-101758333D01*
X144883390Y-101758333D02*
X144835771Y-101853571D01*
X144835771Y-101853571D02*
X144835771Y-102044047D01*
X144835771Y-102044047D02*
X144883390Y-102139285D01*
X144883390Y-102139285D02*
X144931009Y-102186904D01*
X144931009Y-102186904D02*
X145026247Y-102234523D01*
X141478095Y-118326819D02*
X141478095Y-119136342D01*
X141478095Y-119136342D02*
X141525714Y-119231580D01*
X141525714Y-119231580D02*
X141573333Y-119279200D01*
X141573333Y-119279200D02*
X141668571Y-119326819D01*
X141668571Y-119326819D02*
X141859047Y-119326819D01*
X141859047Y-119326819D02*
X141954285Y-119279200D01*
X141954285Y-119279200D02*
X142001904Y-119231580D01*
X142001904Y-119231580D02*
X142049523Y-119136342D01*
X142049523Y-119136342D02*
X142049523Y-118326819D01*
X142430476Y-118326819D02*
X143049523Y-118326819D01*
X143049523Y-118326819D02*
X142716190Y-118707771D01*
X142716190Y-118707771D02*
X142859047Y-118707771D01*
X142859047Y-118707771D02*
X142954285Y-118755390D01*
X142954285Y-118755390D02*
X143001904Y-118803009D01*
X143001904Y-118803009D02*
X143049523Y-118898247D01*
X143049523Y-118898247D02*
X143049523Y-119136342D01*
X143049523Y-119136342D02*
X143001904Y-119231580D01*
X143001904Y-119231580D02*
X142954285Y-119279200D01*
X142954285Y-119279200D02*
X142859047Y-119326819D01*
X142859047Y-119326819D02*
X142573333Y-119326819D01*
X142573333Y-119326819D02*
X142478095Y-119279200D01*
X142478095Y-119279200D02*
X142430476Y-119231580D01*
X137000000Y-116454819D02*
X137000000Y-116692914D01*
X136761905Y-116597676D02*
X137000000Y-116692914D01*
X137000000Y-116692914D02*
X137238095Y-116597676D01*
X136857143Y-116883390D02*
X137000000Y-116692914D01*
X137000000Y-116692914D02*
X137142857Y-116883390D01*
X143033333Y-89254819D02*
X142700000Y-88778628D01*
X142461905Y-89254819D02*
X142461905Y-88254819D01*
X142461905Y-88254819D02*
X142842857Y-88254819D01*
X142842857Y-88254819D02*
X142938095Y-88302438D01*
X142938095Y-88302438D02*
X142985714Y-88350057D01*
X142985714Y-88350057D02*
X143033333Y-88445295D01*
X143033333Y-88445295D02*
X143033333Y-88588152D01*
X143033333Y-88588152D02*
X142985714Y-88683390D01*
X142985714Y-88683390D02*
X142938095Y-88731009D01*
X142938095Y-88731009D02*
X142842857Y-88778628D01*
X142842857Y-88778628D02*
X142461905Y-88778628D01*
X143366667Y-88254819D02*
X143985714Y-88254819D01*
X143985714Y-88254819D02*
X143652381Y-88635771D01*
X143652381Y-88635771D02*
X143795238Y-88635771D01*
X143795238Y-88635771D02*
X143890476Y-88683390D01*
X143890476Y-88683390D02*
X143938095Y-88731009D01*
X143938095Y-88731009D02*
X143985714Y-88826247D01*
X143985714Y-88826247D02*
X143985714Y-89064342D01*
X143985714Y-89064342D02*
X143938095Y-89159580D01*
X143938095Y-89159580D02*
X143890476Y-89207200D01*
X143890476Y-89207200D02*
X143795238Y-89254819D01*
X143795238Y-89254819D02*
X143509524Y-89254819D01*
X143509524Y-89254819D02*
X143414286Y-89207200D01*
X143414286Y-89207200D02*
X143366667Y-89159580D01*
X132333333Y-111454819D02*
X132000000Y-110978628D01*
X131761905Y-111454819D02*
X131761905Y-110454819D01*
X131761905Y-110454819D02*
X132142857Y-110454819D01*
X132142857Y-110454819D02*
X132238095Y-110502438D01*
X132238095Y-110502438D02*
X132285714Y-110550057D01*
X132285714Y-110550057D02*
X132333333Y-110645295D01*
X132333333Y-110645295D02*
X132333333Y-110788152D01*
X132333333Y-110788152D02*
X132285714Y-110883390D01*
X132285714Y-110883390D02*
X132238095Y-110931009D01*
X132238095Y-110931009D02*
X132142857Y-110978628D01*
X132142857Y-110978628D02*
X131761905Y-110978628D01*
X132809524Y-111454819D02*
X133000000Y-111454819D01*
X133000000Y-111454819D02*
X133095238Y-111407200D01*
X133095238Y-111407200D02*
X133142857Y-111359580D01*
X133142857Y-111359580D02*
X133238095Y-111216723D01*
X133238095Y-111216723D02*
X133285714Y-111026247D01*
X133285714Y-111026247D02*
X133285714Y-110645295D01*
X133285714Y-110645295D02*
X133238095Y-110550057D01*
X133238095Y-110550057D02*
X133190476Y-110502438D01*
X133190476Y-110502438D02*
X133095238Y-110454819D01*
X133095238Y-110454819D02*
X132904762Y-110454819D01*
X132904762Y-110454819D02*
X132809524Y-110502438D01*
X132809524Y-110502438D02*
X132761905Y-110550057D01*
X132761905Y-110550057D02*
X132714286Y-110645295D01*
X132714286Y-110645295D02*
X132714286Y-110883390D01*
X132714286Y-110883390D02*
X132761905Y-110978628D01*
X132761905Y-110978628D02*
X132809524Y-111026247D01*
X132809524Y-111026247D02*
X132904762Y-111073866D01*
X132904762Y-111073866D02*
X133095238Y-111073866D01*
X133095238Y-111073866D02*
X133190476Y-111026247D01*
X133190476Y-111026247D02*
X133238095Y-110978628D01*
X133238095Y-110978628D02*
X133285714Y-110883390D01*
X107383333Y-110859580D02*
X107335714Y-110907200D01*
X107335714Y-110907200D02*
X107192857Y-110954819D01*
X107192857Y-110954819D02*
X107097619Y-110954819D01*
X107097619Y-110954819D02*
X106954762Y-110907200D01*
X106954762Y-110907200D02*
X106859524Y-110811961D01*
X106859524Y-110811961D02*
X106811905Y-110716723D01*
X106811905Y-110716723D02*
X106764286Y-110526247D01*
X106764286Y-110526247D02*
X106764286Y-110383390D01*
X106764286Y-110383390D02*
X106811905Y-110192914D01*
X106811905Y-110192914D02*
X106859524Y-110097676D01*
X106859524Y-110097676D02*
X106954762Y-110002438D01*
X106954762Y-110002438D02*
X107097619Y-109954819D01*
X107097619Y-109954819D02*
X107192857Y-109954819D01*
X107192857Y-109954819D02*
X107335714Y-110002438D01*
X107335714Y-110002438D02*
X107383333Y-110050057D01*
X107716667Y-109954819D02*
X108335714Y-109954819D01*
X108335714Y-109954819D02*
X108002381Y-110335771D01*
X108002381Y-110335771D02*
X108145238Y-110335771D01*
X108145238Y-110335771D02*
X108240476Y-110383390D01*
X108240476Y-110383390D02*
X108288095Y-110431009D01*
X108288095Y-110431009D02*
X108335714Y-110526247D01*
X108335714Y-110526247D02*
X108335714Y-110764342D01*
X108335714Y-110764342D02*
X108288095Y-110859580D01*
X108288095Y-110859580D02*
X108240476Y-110907200D01*
X108240476Y-110907200D02*
X108145238Y-110954819D01*
X108145238Y-110954819D02*
X107859524Y-110954819D01*
X107859524Y-110954819D02*
X107764286Y-110907200D01*
X107764286Y-110907200D02*
X107716667Y-110859580D01*
X139916667Y-80204819D02*
X140250000Y-81204819D01*
X140250000Y-81204819D02*
X140583333Y-80204819D01*
X141488095Y-81109580D02*
X141440476Y-81157200D01*
X141440476Y-81157200D02*
X141297619Y-81204819D01*
X141297619Y-81204819D02*
X141202381Y-81204819D01*
X141202381Y-81204819D02*
X141059524Y-81157200D01*
X141059524Y-81157200D02*
X140964286Y-81061961D01*
X140964286Y-81061961D02*
X140916667Y-80966723D01*
X140916667Y-80966723D02*
X140869048Y-80776247D01*
X140869048Y-80776247D02*
X140869048Y-80633390D01*
X140869048Y-80633390D02*
X140916667Y-80442914D01*
X140916667Y-80442914D02*
X140964286Y-80347676D01*
X140964286Y-80347676D02*
X141059524Y-80252438D01*
X141059524Y-80252438D02*
X141202381Y-80204819D01*
X141202381Y-80204819D02*
X141297619Y-80204819D01*
X141297619Y-80204819D02*
X141440476Y-80252438D01*
X141440476Y-80252438D02*
X141488095Y-80300057D01*
X142488095Y-81109580D02*
X142440476Y-81157200D01*
X142440476Y-81157200D02*
X142297619Y-81204819D01*
X142297619Y-81204819D02*
X142202381Y-81204819D01*
X142202381Y-81204819D02*
X142059524Y-81157200D01*
X142059524Y-81157200D02*
X141964286Y-81061961D01*
X141964286Y-81061961D02*
X141916667Y-80966723D01*
X141916667Y-80966723D02*
X141869048Y-80776247D01*
X141869048Y-80776247D02*
X141869048Y-80633390D01*
X141869048Y-80633390D02*
X141916667Y-80442914D01*
X141916667Y-80442914D02*
X141964286Y-80347676D01*
X141964286Y-80347676D02*
X142059524Y-80252438D01*
X142059524Y-80252438D02*
X142202381Y-80204819D01*
X142202381Y-80204819D02*
X142297619Y-80204819D01*
X142297619Y-80204819D02*
X142440476Y-80252438D01*
X142440476Y-80252438D02*
X142488095Y-80300057D01*
X144059523Y-70754819D02*
X143583333Y-70754819D01*
X143583333Y-70754819D02*
X143535714Y-71231009D01*
X143535714Y-71231009D02*
X143583333Y-71183390D01*
X143583333Y-71183390D02*
X143678571Y-71135771D01*
X143678571Y-71135771D02*
X143916666Y-71135771D01*
X143916666Y-71135771D02*
X144011904Y-71183390D01*
X144011904Y-71183390D02*
X144059523Y-71231009D01*
X144059523Y-71231009D02*
X144107142Y-71326247D01*
X144107142Y-71326247D02*
X144107142Y-71564342D01*
X144107142Y-71564342D02*
X144059523Y-71659580D01*
X144059523Y-71659580D02*
X144011904Y-71707200D01*
X144011904Y-71707200D02*
X143916666Y-71754819D01*
X143916666Y-71754819D02*
X143678571Y-71754819D01*
X143678571Y-71754819D02*
X143583333Y-71707200D01*
X143583333Y-71707200D02*
X143535714Y-71659580D01*
X144392857Y-70754819D02*
X144726190Y-71754819D01*
X144726190Y-71754819D02*
X145059523Y-70754819D01*
X150669580Y-107766666D02*
X150717200Y-107814285D01*
X150717200Y-107814285D02*
X150764819Y-107957142D01*
X150764819Y-107957142D02*
X150764819Y-108052380D01*
X150764819Y-108052380D02*
X150717200Y-108195237D01*
X150717200Y-108195237D02*
X150621961Y-108290475D01*
X150621961Y-108290475D02*
X150526723Y-108338094D01*
X150526723Y-108338094D02*
X150336247Y-108385713D01*
X150336247Y-108385713D02*
X150193390Y-108385713D01*
X150193390Y-108385713D02*
X150002914Y-108338094D01*
X150002914Y-108338094D02*
X149907676Y-108290475D01*
X149907676Y-108290475D02*
X149812438Y-108195237D01*
X149812438Y-108195237D02*
X149764819Y-108052380D01*
X149764819Y-108052380D02*
X149764819Y-107957142D01*
X149764819Y-107957142D02*
X149812438Y-107814285D01*
X149812438Y-107814285D02*
X149860057Y-107766666D01*
X149764819Y-107433332D02*
X149764819Y-106766666D01*
X149764819Y-106766666D02*
X150764819Y-107195237D01*
X150757142Y-89709580D02*
X150709523Y-89757200D01*
X150709523Y-89757200D02*
X150566666Y-89804819D01*
X150566666Y-89804819D02*
X150471428Y-89804819D01*
X150471428Y-89804819D02*
X150328571Y-89757200D01*
X150328571Y-89757200D02*
X150233333Y-89661961D01*
X150233333Y-89661961D02*
X150185714Y-89566723D01*
X150185714Y-89566723D02*
X150138095Y-89376247D01*
X150138095Y-89376247D02*
X150138095Y-89233390D01*
X150138095Y-89233390D02*
X150185714Y-89042914D01*
X150185714Y-89042914D02*
X150233333Y-88947676D01*
X150233333Y-88947676D02*
X150328571Y-88852438D01*
X150328571Y-88852438D02*
X150471428Y-88804819D01*
X150471428Y-88804819D02*
X150566666Y-88804819D01*
X150566666Y-88804819D02*
X150709523Y-88852438D01*
X150709523Y-88852438D02*
X150757142Y-88900057D01*
X151709523Y-89804819D02*
X151138095Y-89804819D01*
X151423809Y-89804819D02*
X151423809Y-88804819D01*
X151423809Y-88804819D02*
X151328571Y-88947676D01*
X151328571Y-88947676D02*
X151233333Y-89042914D01*
X151233333Y-89042914D02*
X151138095Y-89090533D01*
X152661904Y-89804819D02*
X152090476Y-89804819D01*
X152376190Y-89804819D02*
X152376190Y-88804819D01*
X152376190Y-88804819D02*
X152280952Y-88947676D01*
X152280952Y-88947676D02*
X152185714Y-89042914D01*
X152185714Y-89042914D02*
X152090476Y-89090533D01*
X120954819Y-117561904D02*
X121764342Y-117561904D01*
X121764342Y-117561904D02*
X121859580Y-117514285D01*
X121859580Y-117514285D02*
X121907200Y-117466666D01*
X121907200Y-117466666D02*
X121954819Y-117371428D01*
X121954819Y-117371428D02*
X121954819Y-117180952D01*
X121954819Y-117180952D02*
X121907200Y-117085714D01*
X121907200Y-117085714D02*
X121859580Y-117038095D01*
X121859580Y-117038095D02*
X121764342Y-116990476D01*
X121764342Y-116990476D02*
X120954819Y-116990476D01*
X121050057Y-116561904D02*
X121002438Y-116514285D01*
X121002438Y-116514285D02*
X120954819Y-116419047D01*
X120954819Y-116419047D02*
X120954819Y-116180952D01*
X120954819Y-116180952D02*
X121002438Y-116085714D01*
X121002438Y-116085714D02*
X121050057Y-116038095D01*
X121050057Y-116038095D02*
X121145295Y-115990476D01*
X121145295Y-115990476D02*
X121240533Y-115990476D01*
X121240533Y-115990476D02*
X121383390Y-116038095D01*
X121383390Y-116038095D02*
X121954819Y-116609523D01*
X121954819Y-116609523D02*
X121954819Y-115990476D01*
X126507051Y-72484582D02*
X126459432Y-72532202D01*
X126459432Y-72532202D02*
X126316575Y-72579821D01*
X126316575Y-72579821D02*
X126221337Y-72579821D01*
X126221337Y-72579821D02*
X126078480Y-72532202D01*
X126078480Y-72532202D02*
X125983242Y-72436963D01*
X125983242Y-72436963D02*
X125935623Y-72341725D01*
X125935623Y-72341725D02*
X125888004Y-72151249D01*
X125888004Y-72151249D02*
X125888004Y-72008392D01*
X125888004Y-72008392D02*
X125935623Y-71817916D01*
X125935623Y-71817916D02*
X125983242Y-71722678D01*
X125983242Y-71722678D02*
X126078480Y-71627440D01*
X126078480Y-71627440D02*
X126221337Y-71579821D01*
X126221337Y-71579821D02*
X126316575Y-71579821D01*
X126316575Y-71579821D02*
X126459432Y-71627440D01*
X126459432Y-71627440D02*
X126507051Y-71675059D01*
X127364194Y-71579821D02*
X127173718Y-71579821D01*
X127173718Y-71579821D02*
X127078480Y-71627440D01*
X127078480Y-71627440D02*
X127030861Y-71675059D01*
X127030861Y-71675059D02*
X126935623Y-71817916D01*
X126935623Y-71817916D02*
X126888004Y-72008392D01*
X126888004Y-72008392D02*
X126888004Y-72389344D01*
X126888004Y-72389344D02*
X126935623Y-72484582D01*
X126935623Y-72484582D02*
X126983242Y-72532202D01*
X126983242Y-72532202D02*
X127078480Y-72579821D01*
X127078480Y-72579821D02*
X127268956Y-72579821D01*
X127268956Y-72579821D02*
X127364194Y-72532202D01*
X127364194Y-72532202D02*
X127411813Y-72484582D01*
X127411813Y-72484582D02*
X127459432Y-72389344D01*
X127459432Y-72389344D02*
X127459432Y-72151249D01*
X127459432Y-72151249D02*
X127411813Y-72056011D01*
X127411813Y-72056011D02*
X127364194Y-72008392D01*
X127364194Y-72008392D02*
X127268956Y-71960773D01*
X127268956Y-71960773D02*
X127078480Y-71960773D01*
X127078480Y-71960773D02*
X126983242Y-72008392D01*
X126983242Y-72008392D02*
X126935623Y-72056011D01*
X126935623Y-72056011D02*
X126888004Y-72151249D01*
X134369642Y-111409580D02*
X134322023Y-111457200D01*
X134322023Y-111457200D02*
X134179166Y-111504819D01*
X134179166Y-111504819D02*
X134083928Y-111504819D01*
X134083928Y-111504819D02*
X133941071Y-111457200D01*
X133941071Y-111457200D02*
X133845833Y-111361961D01*
X133845833Y-111361961D02*
X133798214Y-111266723D01*
X133798214Y-111266723D02*
X133750595Y-111076247D01*
X133750595Y-111076247D02*
X133750595Y-110933390D01*
X133750595Y-110933390D02*
X133798214Y-110742914D01*
X133798214Y-110742914D02*
X133845833Y-110647676D01*
X133845833Y-110647676D02*
X133941071Y-110552438D01*
X133941071Y-110552438D02*
X134083928Y-110504819D01*
X134083928Y-110504819D02*
X134179166Y-110504819D01*
X134179166Y-110504819D02*
X134322023Y-110552438D01*
X134322023Y-110552438D02*
X134369642Y-110600057D01*
X134750595Y-110600057D02*
X134798214Y-110552438D01*
X134798214Y-110552438D02*
X134893452Y-110504819D01*
X134893452Y-110504819D02*
X135131547Y-110504819D01*
X135131547Y-110504819D02*
X135226785Y-110552438D01*
X135226785Y-110552438D02*
X135274404Y-110600057D01*
X135274404Y-110600057D02*
X135322023Y-110695295D01*
X135322023Y-110695295D02*
X135322023Y-110790533D01*
X135322023Y-110790533D02*
X135274404Y-110933390D01*
X135274404Y-110933390D02*
X134702976Y-111504819D01*
X134702976Y-111504819D02*
X135322023Y-111504819D01*
X135941071Y-110504819D02*
X136036309Y-110504819D01*
X136036309Y-110504819D02*
X136131547Y-110552438D01*
X136131547Y-110552438D02*
X136179166Y-110600057D01*
X136179166Y-110600057D02*
X136226785Y-110695295D01*
X136226785Y-110695295D02*
X136274404Y-110885771D01*
X136274404Y-110885771D02*
X136274404Y-111123866D01*
X136274404Y-111123866D02*
X136226785Y-111314342D01*
X136226785Y-111314342D02*
X136179166Y-111409580D01*
X136179166Y-111409580D02*
X136131547Y-111457200D01*
X136131547Y-111457200D02*
X136036309Y-111504819D01*
X136036309Y-111504819D02*
X135941071Y-111504819D01*
X135941071Y-111504819D02*
X135845833Y-111457200D01*
X135845833Y-111457200D02*
X135798214Y-111409580D01*
X135798214Y-111409580D02*
X135750595Y-111314342D01*
X135750595Y-111314342D02*
X135702976Y-111123866D01*
X135702976Y-111123866D02*
X135702976Y-110885771D01*
X135702976Y-110885771D02*
X135750595Y-110695295D01*
X135750595Y-110695295D02*
X135798214Y-110600057D01*
X135798214Y-110600057D02*
X135845833Y-110552438D01*
X135845833Y-110552438D02*
X135941071Y-110504819D01*
X151833333Y-110804819D02*
X151500000Y-110328628D01*
X151261905Y-110804819D02*
X151261905Y-109804819D01*
X151261905Y-109804819D02*
X151642857Y-109804819D01*
X151642857Y-109804819D02*
X151738095Y-109852438D01*
X151738095Y-109852438D02*
X151785714Y-109900057D01*
X151785714Y-109900057D02*
X151833333Y-109995295D01*
X151833333Y-109995295D02*
X151833333Y-110138152D01*
X151833333Y-110138152D02*
X151785714Y-110233390D01*
X151785714Y-110233390D02*
X151738095Y-110281009D01*
X151738095Y-110281009D02*
X151642857Y-110328628D01*
X151642857Y-110328628D02*
X151261905Y-110328628D01*
X152690476Y-110138152D02*
X152690476Y-110804819D01*
X152452381Y-109757200D02*
X152214286Y-110471485D01*
X152214286Y-110471485D02*
X152833333Y-110471485D01*
X125038095Y-87037200D02*
X125180952Y-87084819D01*
X125180952Y-87084819D02*
X125419047Y-87084819D01*
X125419047Y-87084819D02*
X125514285Y-87037200D01*
X125514285Y-87037200D02*
X125561904Y-86989580D01*
X125561904Y-86989580D02*
X125609523Y-86894342D01*
X125609523Y-86894342D02*
X125609523Y-86799104D01*
X125609523Y-86799104D02*
X125561904Y-86703866D01*
X125561904Y-86703866D02*
X125514285Y-86656247D01*
X125514285Y-86656247D02*
X125419047Y-86608628D01*
X125419047Y-86608628D02*
X125228571Y-86561009D01*
X125228571Y-86561009D02*
X125133333Y-86513390D01*
X125133333Y-86513390D02*
X125085714Y-86465771D01*
X125085714Y-86465771D02*
X125038095Y-86370533D01*
X125038095Y-86370533D02*
X125038095Y-86275295D01*
X125038095Y-86275295D02*
X125085714Y-86180057D01*
X125085714Y-86180057D02*
X125133333Y-86132438D01*
X125133333Y-86132438D02*
X125228571Y-86084819D01*
X125228571Y-86084819D02*
X125466666Y-86084819D01*
X125466666Y-86084819D02*
X125609523Y-86132438D01*
X126466666Y-86418152D02*
X126466666Y-87084819D01*
X126228571Y-86037200D02*
X125990476Y-86751485D01*
X125990476Y-86751485D02*
X126609523Y-86751485D01*
X159984580Y-84097916D02*
X160032200Y-84145535D01*
X160032200Y-84145535D02*
X160079819Y-84288392D01*
X160079819Y-84288392D02*
X160079819Y-84383630D01*
X160079819Y-84383630D02*
X160032200Y-84526487D01*
X160032200Y-84526487D02*
X159936961Y-84621725D01*
X159936961Y-84621725D02*
X159841723Y-84669344D01*
X159841723Y-84669344D02*
X159651247Y-84716963D01*
X159651247Y-84716963D02*
X159508390Y-84716963D01*
X159508390Y-84716963D02*
X159317914Y-84669344D01*
X159317914Y-84669344D02*
X159222676Y-84621725D01*
X159222676Y-84621725D02*
X159127438Y-84526487D01*
X159127438Y-84526487D02*
X159079819Y-84383630D01*
X159079819Y-84383630D02*
X159079819Y-84288392D01*
X159079819Y-84288392D02*
X159127438Y-84145535D01*
X159127438Y-84145535D02*
X159175057Y-84097916D01*
X159508390Y-83526487D02*
X159460771Y-83621725D01*
X159460771Y-83621725D02*
X159413152Y-83669344D01*
X159413152Y-83669344D02*
X159317914Y-83716963D01*
X159317914Y-83716963D02*
X159270295Y-83716963D01*
X159270295Y-83716963D02*
X159175057Y-83669344D01*
X159175057Y-83669344D02*
X159127438Y-83621725D01*
X159127438Y-83621725D02*
X159079819Y-83526487D01*
X159079819Y-83526487D02*
X159079819Y-83336011D01*
X159079819Y-83336011D02*
X159127438Y-83240773D01*
X159127438Y-83240773D02*
X159175057Y-83193154D01*
X159175057Y-83193154D02*
X159270295Y-83145535D01*
X159270295Y-83145535D02*
X159317914Y-83145535D01*
X159317914Y-83145535D02*
X159413152Y-83193154D01*
X159413152Y-83193154D02*
X159460771Y-83240773D01*
X159460771Y-83240773D02*
X159508390Y-83336011D01*
X159508390Y-83336011D02*
X159508390Y-83526487D01*
X159508390Y-83526487D02*
X159556009Y-83621725D01*
X159556009Y-83621725D02*
X159603628Y-83669344D01*
X159603628Y-83669344D02*
X159698866Y-83716963D01*
X159698866Y-83716963D02*
X159889342Y-83716963D01*
X159889342Y-83716963D02*
X159984580Y-83669344D01*
X159984580Y-83669344D02*
X160032200Y-83621725D01*
X160032200Y-83621725D02*
X160079819Y-83526487D01*
X160079819Y-83526487D02*
X160079819Y-83336011D01*
X160079819Y-83336011D02*
X160032200Y-83240773D01*
X160032200Y-83240773D02*
X159984580Y-83193154D01*
X159984580Y-83193154D02*
X159889342Y-83145535D01*
X159889342Y-83145535D02*
X159698866Y-83145535D01*
X159698866Y-83145535D02*
X159603628Y-83193154D01*
X159603628Y-83193154D02*
X159556009Y-83240773D01*
X159556009Y-83240773D02*
X159508390Y-83336011D01*
X153254819Y-94286904D02*
X154064342Y-94286904D01*
X154064342Y-94286904D02*
X154159580Y-94239285D01*
X154159580Y-94239285D02*
X154207200Y-94191666D01*
X154207200Y-94191666D02*
X154254819Y-94096428D01*
X154254819Y-94096428D02*
X154254819Y-93905952D01*
X154254819Y-93905952D02*
X154207200Y-93810714D01*
X154207200Y-93810714D02*
X154159580Y-93763095D01*
X154159580Y-93763095D02*
X154064342Y-93715476D01*
X154064342Y-93715476D02*
X153254819Y-93715476D01*
X153254819Y-93334523D02*
X153254819Y-92667857D01*
X153254819Y-92667857D02*
X154254819Y-93096428D01*
X149054819Y-99599999D02*
X149292914Y-99599999D01*
X149197676Y-99838094D02*
X149292914Y-99599999D01*
X149292914Y-99599999D02*
X149197676Y-99361904D01*
X149483390Y-99742856D02*
X149292914Y-99599999D01*
X149292914Y-99599999D02*
X149483390Y-99457142D01*
X149054819Y-99599999D02*
X149292914Y-99599999D01*
X149197676Y-99838094D02*
X149292914Y-99599999D01*
X149292914Y-99599999D02*
X149197676Y-99361904D01*
X149483390Y-99742856D02*
X149292914Y-99599999D01*
X149292914Y-99599999D02*
X149483390Y-99457142D01*
X109657142Y-110859580D02*
X109609523Y-110907200D01*
X109609523Y-110907200D02*
X109466666Y-110954819D01*
X109466666Y-110954819D02*
X109371428Y-110954819D01*
X109371428Y-110954819D02*
X109228571Y-110907200D01*
X109228571Y-110907200D02*
X109133333Y-110811961D01*
X109133333Y-110811961D02*
X109085714Y-110716723D01*
X109085714Y-110716723D02*
X109038095Y-110526247D01*
X109038095Y-110526247D02*
X109038095Y-110383390D01*
X109038095Y-110383390D02*
X109085714Y-110192914D01*
X109085714Y-110192914D02*
X109133333Y-110097676D01*
X109133333Y-110097676D02*
X109228571Y-110002438D01*
X109228571Y-110002438D02*
X109371428Y-109954819D01*
X109371428Y-109954819D02*
X109466666Y-109954819D01*
X109466666Y-109954819D02*
X109609523Y-110002438D01*
X109609523Y-110002438D02*
X109657142Y-110050057D01*
X110609523Y-110954819D02*
X110038095Y-110954819D01*
X110323809Y-110954819D02*
X110323809Y-109954819D01*
X110323809Y-109954819D02*
X110228571Y-110097676D01*
X110228571Y-110097676D02*
X110133333Y-110192914D01*
X110133333Y-110192914D02*
X110038095Y-110240533D01*
X111514285Y-109954819D02*
X111038095Y-109954819D01*
X111038095Y-109954819D02*
X110990476Y-110431009D01*
X110990476Y-110431009D02*
X111038095Y-110383390D01*
X111038095Y-110383390D02*
X111133333Y-110335771D01*
X111133333Y-110335771D02*
X111371428Y-110335771D01*
X111371428Y-110335771D02*
X111466666Y-110383390D01*
X111466666Y-110383390D02*
X111514285Y-110431009D01*
X111514285Y-110431009D02*
X111561904Y-110526247D01*
X111561904Y-110526247D02*
X111561904Y-110764342D01*
X111561904Y-110764342D02*
X111514285Y-110859580D01*
X111514285Y-110859580D02*
X111466666Y-110907200D01*
X111466666Y-110907200D02*
X111371428Y-110954819D01*
X111371428Y-110954819D02*
X111133333Y-110954819D01*
X111133333Y-110954819D02*
X111038095Y-110907200D01*
X111038095Y-110907200D02*
X110990476Y-110859580D01*
X113133333Y-73654819D02*
X112657143Y-73654819D01*
X112657143Y-73654819D02*
X112657143Y-72654819D01*
X113990476Y-73654819D02*
X113419048Y-73654819D01*
X113704762Y-73654819D02*
X113704762Y-72654819D01*
X113704762Y-72654819D02*
X113609524Y-72797676D01*
X113609524Y-72797676D02*
X113514286Y-72892914D01*
X113514286Y-72892914D02*
X113419048Y-72940533D01*
X130838095Y-87012200D02*
X130980952Y-87059819D01*
X130980952Y-87059819D02*
X131219047Y-87059819D01*
X131219047Y-87059819D02*
X131314285Y-87012200D01*
X131314285Y-87012200D02*
X131361904Y-86964580D01*
X131361904Y-86964580D02*
X131409523Y-86869342D01*
X131409523Y-86869342D02*
X131409523Y-86774104D01*
X131409523Y-86774104D02*
X131361904Y-86678866D01*
X131361904Y-86678866D02*
X131314285Y-86631247D01*
X131314285Y-86631247D02*
X131219047Y-86583628D01*
X131219047Y-86583628D02*
X131028571Y-86536009D01*
X131028571Y-86536009D02*
X130933333Y-86488390D01*
X130933333Y-86488390D02*
X130885714Y-86440771D01*
X130885714Y-86440771D02*
X130838095Y-86345533D01*
X130838095Y-86345533D02*
X130838095Y-86250295D01*
X130838095Y-86250295D02*
X130885714Y-86155057D01*
X130885714Y-86155057D02*
X130933333Y-86107438D01*
X130933333Y-86107438D02*
X131028571Y-86059819D01*
X131028571Y-86059819D02*
X131266666Y-86059819D01*
X131266666Y-86059819D02*
X131409523Y-86107438D01*
X131790476Y-86155057D02*
X131838095Y-86107438D01*
X131838095Y-86107438D02*
X131933333Y-86059819D01*
X131933333Y-86059819D02*
X132171428Y-86059819D01*
X132171428Y-86059819D02*
X132266666Y-86107438D01*
X132266666Y-86107438D02*
X132314285Y-86155057D01*
X132314285Y-86155057D02*
X132361904Y-86250295D01*
X132361904Y-86250295D02*
X132361904Y-86345533D01*
X132361904Y-86345533D02*
X132314285Y-86488390D01*
X132314285Y-86488390D02*
X131742857Y-87059819D01*
X131742857Y-87059819D02*
X132361904Y-87059819D01*
X174238095Y-118254819D02*
X174238095Y-117254819D01*
X174238095Y-117731009D02*
X174809523Y-117731009D01*
X174809523Y-118254819D02*
X174809523Y-117254819D01*
X175714285Y-117588152D02*
X175714285Y-118254819D01*
X175476190Y-117207200D02*
X175238095Y-117921485D01*
X175238095Y-117921485D02*
X175857142Y-117921485D01*
X157054819Y-97167857D02*
X156578628Y-97501190D01*
X157054819Y-97739285D02*
X156054819Y-97739285D01*
X156054819Y-97739285D02*
X156054819Y-97358333D01*
X156054819Y-97358333D02*
X156102438Y-97263095D01*
X156102438Y-97263095D02*
X156150057Y-97215476D01*
X156150057Y-97215476D02*
X156245295Y-97167857D01*
X156245295Y-97167857D02*
X156388152Y-97167857D01*
X156388152Y-97167857D02*
X156483390Y-97215476D01*
X156483390Y-97215476D02*
X156531009Y-97263095D01*
X156531009Y-97263095D02*
X156578628Y-97358333D01*
X156578628Y-97358333D02*
X156578628Y-97739285D01*
X157054819Y-96215476D02*
X157054819Y-96786904D01*
X157054819Y-96501190D02*
X156054819Y-96501190D01*
X156054819Y-96501190D02*
X156197676Y-96596428D01*
X156197676Y-96596428D02*
X156292914Y-96691666D01*
X156292914Y-96691666D02*
X156340533Y-96786904D01*
X156388152Y-95358333D02*
X157054819Y-95358333D01*
X156007200Y-95596428D02*
X156721485Y-95834523D01*
X156721485Y-95834523D02*
X156721485Y-95215476D01*
X108238095Y-118254819D02*
X108238095Y-117254819D01*
X108238095Y-117731009D02*
X108809523Y-117731009D01*
X108809523Y-118254819D02*
X108809523Y-117254819D01*
X109190476Y-117254819D02*
X109809523Y-117254819D01*
X109809523Y-117254819D02*
X109476190Y-117635771D01*
X109476190Y-117635771D02*
X109619047Y-117635771D01*
X109619047Y-117635771D02*
X109714285Y-117683390D01*
X109714285Y-117683390D02*
X109761904Y-117731009D01*
X109761904Y-117731009D02*
X109809523Y-117826247D01*
X109809523Y-117826247D02*
X109809523Y-118064342D01*
X109809523Y-118064342D02*
X109761904Y-118159580D01*
X109761904Y-118159580D02*
X109714285Y-118207200D01*
X109714285Y-118207200D02*
X109619047Y-118254819D01*
X109619047Y-118254819D02*
X109333333Y-118254819D01*
X109333333Y-118254819D02*
X109238095Y-118207200D01*
X109238095Y-118207200D02*
X109190476Y-118159580D01*
X114857142Y-83704819D02*
X114857142Y-82704819D01*
X114857142Y-83085771D02*
X114952380Y-83038152D01*
X114952380Y-83038152D02*
X115142856Y-83038152D01*
X115142856Y-83038152D02*
X115238094Y-83085771D01*
X115238094Y-83085771D02*
X115285713Y-83133390D01*
X115285713Y-83133390D02*
X115333332Y-83228628D01*
X115333332Y-83228628D02*
X115333332Y-83514342D01*
X115333332Y-83514342D02*
X115285713Y-83609580D01*
X115285713Y-83609580D02*
X115238094Y-83657200D01*
X115238094Y-83657200D02*
X115142856Y-83704819D01*
X115142856Y-83704819D02*
X114952380Y-83704819D01*
X114952380Y-83704819D02*
X114857142Y-83657200D01*
X116190475Y-83038152D02*
X116190475Y-83704819D01*
X115761904Y-83038152D02*
X115761904Y-83561961D01*
X115761904Y-83561961D02*
X115809523Y-83657200D01*
X115809523Y-83657200D02*
X115904761Y-83704819D01*
X115904761Y-83704819D02*
X116047618Y-83704819D01*
X116047618Y-83704819D02*
X116142856Y-83657200D01*
X116142856Y-83657200D02*
X116190475Y-83609580D01*
X116523809Y-83038152D02*
X116904761Y-83038152D01*
X116666666Y-82704819D02*
X116666666Y-83561961D01*
X116666666Y-83561961D02*
X116714285Y-83657200D01*
X116714285Y-83657200D02*
X116809523Y-83704819D01*
X116809523Y-83704819D02*
X116904761Y-83704819D01*
X117095238Y-83038152D02*
X117476190Y-83038152D01*
X117238095Y-82704819D02*
X117238095Y-83561961D01*
X117238095Y-83561961D02*
X117285714Y-83657200D01*
X117285714Y-83657200D02*
X117380952Y-83704819D01*
X117380952Y-83704819D02*
X117476190Y-83704819D01*
X117952381Y-83704819D02*
X117857143Y-83657200D01*
X117857143Y-83657200D02*
X117809524Y-83609580D01*
X117809524Y-83609580D02*
X117761905Y-83514342D01*
X117761905Y-83514342D02*
X117761905Y-83228628D01*
X117761905Y-83228628D02*
X117809524Y-83133390D01*
X117809524Y-83133390D02*
X117857143Y-83085771D01*
X117857143Y-83085771D02*
X117952381Y-83038152D01*
X117952381Y-83038152D02*
X118095238Y-83038152D01*
X118095238Y-83038152D02*
X118190476Y-83085771D01*
X118190476Y-83085771D02*
X118238095Y-83133390D01*
X118238095Y-83133390D02*
X118285714Y-83228628D01*
X118285714Y-83228628D02*
X118285714Y-83514342D01*
X118285714Y-83514342D02*
X118238095Y-83609580D01*
X118238095Y-83609580D02*
X118190476Y-83657200D01*
X118190476Y-83657200D02*
X118095238Y-83704819D01*
X118095238Y-83704819D02*
X117952381Y-83704819D01*
X118714286Y-83038152D02*
X118714286Y-83704819D01*
X118714286Y-83133390D02*
X118761905Y-83085771D01*
X118761905Y-83085771D02*
X118857143Y-83038152D01*
X118857143Y-83038152D02*
X119000000Y-83038152D01*
X119000000Y-83038152D02*
X119095238Y-83085771D01*
X119095238Y-83085771D02*
X119142857Y-83181009D01*
X119142857Y-83181009D02*
X119142857Y-83704819D01*
X157107580Y-107342857D02*
X157155200Y-107390476D01*
X157155200Y-107390476D02*
X157202819Y-107533333D01*
X157202819Y-107533333D02*
X157202819Y-107628571D01*
X157202819Y-107628571D02*
X157155200Y-107771428D01*
X157155200Y-107771428D02*
X157059961Y-107866666D01*
X157059961Y-107866666D02*
X156964723Y-107914285D01*
X156964723Y-107914285D02*
X156774247Y-107961904D01*
X156774247Y-107961904D02*
X156631390Y-107961904D01*
X156631390Y-107961904D02*
X156440914Y-107914285D01*
X156440914Y-107914285D02*
X156345676Y-107866666D01*
X156345676Y-107866666D02*
X156250438Y-107771428D01*
X156250438Y-107771428D02*
X156202819Y-107628571D01*
X156202819Y-107628571D02*
X156202819Y-107533333D01*
X156202819Y-107533333D02*
X156250438Y-107390476D01*
X156250438Y-107390476D02*
X156298057Y-107342857D01*
X157202819Y-106390476D02*
X157202819Y-106961904D01*
X157202819Y-106676190D02*
X156202819Y-106676190D01*
X156202819Y-106676190D02*
X156345676Y-106771428D01*
X156345676Y-106771428D02*
X156440914Y-106866666D01*
X156440914Y-106866666D02*
X156488533Y-106961904D01*
X157202819Y-105914285D02*
X157202819Y-105723809D01*
X157202819Y-105723809D02*
X157155200Y-105628571D01*
X157155200Y-105628571D02*
X157107580Y-105580952D01*
X157107580Y-105580952D02*
X156964723Y-105485714D01*
X156964723Y-105485714D02*
X156774247Y-105438095D01*
X156774247Y-105438095D02*
X156393295Y-105438095D01*
X156393295Y-105438095D02*
X156298057Y-105485714D01*
X156298057Y-105485714D02*
X156250438Y-105533333D01*
X156250438Y-105533333D02*
X156202819Y-105628571D01*
X156202819Y-105628571D02*
X156202819Y-105819047D01*
X156202819Y-105819047D02*
X156250438Y-105914285D01*
X156250438Y-105914285D02*
X156298057Y-105961904D01*
X156298057Y-105961904D02*
X156393295Y-106009523D01*
X156393295Y-106009523D02*
X156631390Y-106009523D01*
X156631390Y-106009523D02*
X156726628Y-105961904D01*
X156726628Y-105961904D02*
X156774247Y-105914285D01*
X156774247Y-105914285D02*
X156821866Y-105819047D01*
X156821866Y-105819047D02*
X156821866Y-105628571D01*
X156821866Y-105628571D02*
X156774247Y-105533333D01*
X156774247Y-105533333D02*
X156726628Y-105485714D01*
X156726628Y-105485714D02*
X156631390Y-105438095D01*
X127266666Y-76454819D02*
X127266666Y-77169104D01*
X127266666Y-77169104D02*
X127219047Y-77311961D01*
X127219047Y-77311961D02*
X127123809Y-77407200D01*
X127123809Y-77407200D02*
X126980952Y-77454819D01*
X126980952Y-77454819D02*
X126885714Y-77454819D01*
X127695238Y-76550057D02*
X127742857Y-76502438D01*
X127742857Y-76502438D02*
X127838095Y-76454819D01*
X127838095Y-76454819D02*
X128076190Y-76454819D01*
X128076190Y-76454819D02*
X128171428Y-76502438D01*
X128171428Y-76502438D02*
X128219047Y-76550057D01*
X128219047Y-76550057D02*
X128266666Y-76645295D01*
X128266666Y-76645295D02*
X128266666Y-76740533D01*
X128266666Y-76740533D02*
X128219047Y-76883390D01*
X128219047Y-76883390D02*
X127647619Y-77454819D01*
X127647619Y-77454819D02*
X128266666Y-77454819D01*
X127938095Y-87037200D02*
X128080952Y-87084819D01*
X128080952Y-87084819D02*
X128319047Y-87084819D01*
X128319047Y-87084819D02*
X128414285Y-87037200D01*
X128414285Y-87037200D02*
X128461904Y-86989580D01*
X128461904Y-86989580D02*
X128509523Y-86894342D01*
X128509523Y-86894342D02*
X128509523Y-86799104D01*
X128509523Y-86799104D02*
X128461904Y-86703866D01*
X128461904Y-86703866D02*
X128414285Y-86656247D01*
X128414285Y-86656247D02*
X128319047Y-86608628D01*
X128319047Y-86608628D02*
X128128571Y-86561009D01*
X128128571Y-86561009D02*
X128033333Y-86513390D01*
X128033333Y-86513390D02*
X127985714Y-86465771D01*
X127985714Y-86465771D02*
X127938095Y-86370533D01*
X127938095Y-86370533D02*
X127938095Y-86275295D01*
X127938095Y-86275295D02*
X127985714Y-86180057D01*
X127985714Y-86180057D02*
X128033333Y-86132438D01*
X128033333Y-86132438D02*
X128128571Y-86084819D01*
X128128571Y-86084819D02*
X128366666Y-86084819D01*
X128366666Y-86084819D02*
X128509523Y-86132438D01*
X128842857Y-86084819D02*
X129461904Y-86084819D01*
X129461904Y-86084819D02*
X129128571Y-86465771D01*
X129128571Y-86465771D02*
X129271428Y-86465771D01*
X129271428Y-86465771D02*
X129366666Y-86513390D01*
X129366666Y-86513390D02*
X129414285Y-86561009D01*
X129414285Y-86561009D02*
X129461904Y-86656247D01*
X129461904Y-86656247D02*
X129461904Y-86894342D01*
X129461904Y-86894342D02*
X129414285Y-86989580D01*
X129414285Y-86989580D02*
X129366666Y-87037200D01*
X129366666Y-87037200D02*
X129271428Y-87084819D01*
X129271428Y-87084819D02*
X128985714Y-87084819D01*
X128985714Y-87084819D02*
X128890476Y-87037200D01*
X128890476Y-87037200D02*
X128842857Y-86989580D01*
X159254819Y-87461904D02*
X160064342Y-87461904D01*
X160064342Y-87461904D02*
X160159580Y-87414285D01*
X160159580Y-87414285D02*
X160207200Y-87366666D01*
X160207200Y-87366666D02*
X160254819Y-87271428D01*
X160254819Y-87271428D02*
X160254819Y-87080952D01*
X160254819Y-87080952D02*
X160207200Y-86985714D01*
X160207200Y-86985714D02*
X160159580Y-86938095D01*
X160159580Y-86938095D02*
X160064342Y-86890476D01*
X160064342Y-86890476D02*
X159254819Y-86890476D01*
X159254819Y-85938095D02*
X159254819Y-86414285D01*
X159254819Y-86414285D02*
X159731009Y-86461904D01*
X159731009Y-86461904D02*
X159683390Y-86414285D01*
X159683390Y-86414285D02*
X159635771Y-86319047D01*
X159635771Y-86319047D02*
X159635771Y-86080952D01*
X159635771Y-86080952D02*
X159683390Y-85985714D01*
X159683390Y-85985714D02*
X159731009Y-85938095D01*
X159731009Y-85938095D02*
X159826247Y-85890476D01*
X159826247Y-85890476D02*
X160064342Y-85890476D01*
X160064342Y-85890476D02*
X160159580Y-85938095D01*
X160159580Y-85938095D02*
X160207200Y-85985714D01*
X160207200Y-85985714D02*
X160254819Y-86080952D01*
X160254819Y-86080952D02*
X160254819Y-86319047D01*
X160254819Y-86319047D02*
X160207200Y-86414285D01*
X160207200Y-86414285D02*
X160159580Y-86461904D01*
X124293333Y-79353580D02*
X124245714Y-79401200D01*
X124245714Y-79401200D02*
X124102857Y-79448819D01*
X124102857Y-79448819D02*
X124007619Y-79448819D01*
X124007619Y-79448819D02*
X123864762Y-79401200D01*
X123864762Y-79401200D02*
X123769524Y-79305961D01*
X123769524Y-79305961D02*
X123721905Y-79210723D01*
X123721905Y-79210723D02*
X123674286Y-79020247D01*
X123674286Y-79020247D02*
X123674286Y-78877390D01*
X123674286Y-78877390D02*
X123721905Y-78686914D01*
X123721905Y-78686914D02*
X123769524Y-78591676D01*
X123769524Y-78591676D02*
X123864762Y-78496438D01*
X123864762Y-78496438D02*
X124007619Y-78448819D01*
X124007619Y-78448819D02*
X124102857Y-78448819D01*
X124102857Y-78448819D02*
X124245714Y-78496438D01*
X124245714Y-78496438D02*
X124293333Y-78544057D01*
X125198095Y-78448819D02*
X124721905Y-78448819D01*
X124721905Y-78448819D02*
X124674286Y-78925009D01*
X124674286Y-78925009D02*
X124721905Y-78877390D01*
X124721905Y-78877390D02*
X124817143Y-78829771D01*
X124817143Y-78829771D02*
X125055238Y-78829771D01*
X125055238Y-78829771D02*
X125150476Y-78877390D01*
X125150476Y-78877390D02*
X125198095Y-78925009D01*
X125198095Y-78925009D02*
X125245714Y-79020247D01*
X125245714Y-79020247D02*
X125245714Y-79258342D01*
X125245714Y-79258342D02*
X125198095Y-79353580D01*
X125198095Y-79353580D02*
X125150476Y-79401200D01*
X125150476Y-79401200D02*
X125055238Y-79448819D01*
X125055238Y-79448819D02*
X124817143Y-79448819D01*
X124817143Y-79448819D02*
X124721905Y-79401200D01*
X124721905Y-79401200D02*
X124674286Y-79353580D01*
X160628571Y-78654819D02*
X160628571Y-77654819D01*
X160628571Y-77654819D02*
X160961904Y-78369104D01*
X160961904Y-78369104D02*
X161295237Y-77654819D01*
X161295237Y-77654819D02*
X161295237Y-78654819D01*
X162199999Y-78654819D02*
X162199999Y-78131009D01*
X162199999Y-78131009D02*
X162152380Y-78035771D01*
X162152380Y-78035771D02*
X162057142Y-77988152D01*
X162057142Y-77988152D02*
X161866666Y-77988152D01*
X161866666Y-77988152D02*
X161771428Y-78035771D01*
X162199999Y-78607200D02*
X162104761Y-78654819D01*
X162104761Y-78654819D02*
X161866666Y-78654819D01*
X161866666Y-78654819D02*
X161771428Y-78607200D01*
X161771428Y-78607200D02*
X161723809Y-78511961D01*
X161723809Y-78511961D02*
X161723809Y-78416723D01*
X161723809Y-78416723D02*
X161771428Y-78321485D01*
X161771428Y-78321485D02*
X161866666Y-78273866D01*
X161866666Y-78273866D02*
X162104761Y-78273866D01*
X162104761Y-78273866D02*
X162199999Y-78226247D01*
X162676190Y-78654819D02*
X162676190Y-77988152D01*
X162676190Y-77654819D02*
X162628571Y-77702438D01*
X162628571Y-77702438D02*
X162676190Y-77750057D01*
X162676190Y-77750057D02*
X162723809Y-77702438D01*
X162723809Y-77702438D02*
X162676190Y-77654819D01*
X162676190Y-77654819D02*
X162676190Y-77750057D01*
X163152380Y-77988152D02*
X163152380Y-78654819D01*
X163152380Y-78083390D02*
X163199999Y-78035771D01*
X163199999Y-78035771D02*
X163295237Y-77988152D01*
X163295237Y-77988152D02*
X163438094Y-77988152D01*
X163438094Y-77988152D02*
X163533332Y-78035771D01*
X163533332Y-78035771D02*
X163580951Y-78131009D01*
X163580951Y-78131009D02*
X163580951Y-78654819D01*
X164819047Y-78654819D02*
X164819047Y-77654819D01*
X164819047Y-77654819D02*
X165199999Y-77654819D01*
X165199999Y-77654819D02*
X165295237Y-77702438D01*
X165295237Y-77702438D02*
X165342856Y-77750057D01*
X165342856Y-77750057D02*
X165390475Y-77845295D01*
X165390475Y-77845295D02*
X165390475Y-77988152D01*
X165390475Y-77988152D02*
X165342856Y-78083390D01*
X165342856Y-78083390D02*
X165295237Y-78131009D01*
X165295237Y-78131009D02*
X165199999Y-78178628D01*
X165199999Y-78178628D02*
X164819047Y-78178628D01*
X165961904Y-78654819D02*
X165866666Y-78607200D01*
X165866666Y-78607200D02*
X165819047Y-78559580D01*
X165819047Y-78559580D02*
X165771428Y-78464342D01*
X165771428Y-78464342D02*
X165771428Y-78178628D01*
X165771428Y-78178628D02*
X165819047Y-78083390D01*
X165819047Y-78083390D02*
X165866666Y-78035771D01*
X165866666Y-78035771D02*
X165961904Y-77988152D01*
X165961904Y-77988152D02*
X166104761Y-77988152D01*
X166104761Y-77988152D02*
X166199999Y-78035771D01*
X166199999Y-78035771D02*
X166247618Y-78083390D01*
X166247618Y-78083390D02*
X166295237Y-78178628D01*
X166295237Y-78178628D02*
X166295237Y-78464342D01*
X166295237Y-78464342D02*
X166247618Y-78559580D01*
X166247618Y-78559580D02*
X166199999Y-78607200D01*
X166199999Y-78607200D02*
X166104761Y-78654819D01*
X166104761Y-78654819D02*
X165961904Y-78654819D01*
X166628571Y-77988152D02*
X166819047Y-78654819D01*
X166819047Y-78654819D02*
X167009523Y-78178628D01*
X167009523Y-78178628D02*
X167199999Y-78654819D01*
X167199999Y-78654819D02*
X167390475Y-77988152D01*
X168152380Y-78607200D02*
X168057142Y-78654819D01*
X168057142Y-78654819D02*
X167866666Y-78654819D01*
X167866666Y-78654819D02*
X167771428Y-78607200D01*
X167771428Y-78607200D02*
X167723809Y-78511961D01*
X167723809Y-78511961D02*
X167723809Y-78131009D01*
X167723809Y-78131009D02*
X167771428Y-78035771D01*
X167771428Y-78035771D02*
X167866666Y-77988152D01*
X167866666Y-77988152D02*
X168057142Y-77988152D01*
X168057142Y-77988152D02*
X168152380Y-78035771D01*
X168152380Y-78035771D02*
X168199999Y-78131009D01*
X168199999Y-78131009D02*
X168199999Y-78226247D01*
X168199999Y-78226247D02*
X167723809Y-78321485D01*
X168628571Y-78654819D02*
X168628571Y-77988152D01*
X168628571Y-78178628D02*
X168676190Y-78083390D01*
X168676190Y-78083390D02*
X168723809Y-78035771D01*
X168723809Y-78035771D02*
X168819047Y-77988152D01*
X168819047Y-77988152D02*
X168914285Y-77988152D01*
X146511905Y-110454819D02*
X146511905Y-109454819D01*
X146511905Y-109454819D02*
X146750000Y-109454819D01*
X146750000Y-109454819D02*
X146892857Y-109502438D01*
X146892857Y-109502438D02*
X146988095Y-109597676D01*
X146988095Y-109597676D02*
X147035714Y-109692914D01*
X147035714Y-109692914D02*
X147083333Y-109883390D01*
X147083333Y-109883390D02*
X147083333Y-110026247D01*
X147083333Y-110026247D02*
X147035714Y-110216723D01*
X147035714Y-110216723D02*
X146988095Y-110311961D01*
X146988095Y-110311961D02*
X146892857Y-110407200D01*
X146892857Y-110407200D02*
X146750000Y-110454819D01*
X146750000Y-110454819D02*
X146511905Y-110454819D01*
X147416667Y-109454819D02*
X148035714Y-109454819D01*
X148035714Y-109454819D02*
X147702381Y-109835771D01*
X147702381Y-109835771D02*
X147845238Y-109835771D01*
X147845238Y-109835771D02*
X147940476Y-109883390D01*
X147940476Y-109883390D02*
X147988095Y-109931009D01*
X147988095Y-109931009D02*
X148035714Y-110026247D01*
X148035714Y-110026247D02*
X148035714Y-110264342D01*
X148035714Y-110264342D02*
X147988095Y-110359580D01*
X147988095Y-110359580D02*
X147940476Y-110407200D01*
X147940476Y-110407200D02*
X147845238Y-110454819D01*
X147845238Y-110454819D02*
X147559524Y-110454819D01*
X147559524Y-110454819D02*
X147464286Y-110407200D01*
X147464286Y-110407200D02*
X147416667Y-110359580D01*
X153957142Y-89709580D02*
X153909523Y-89757200D01*
X153909523Y-89757200D02*
X153766666Y-89804819D01*
X153766666Y-89804819D02*
X153671428Y-89804819D01*
X153671428Y-89804819D02*
X153528571Y-89757200D01*
X153528571Y-89757200D02*
X153433333Y-89661961D01*
X153433333Y-89661961D02*
X153385714Y-89566723D01*
X153385714Y-89566723D02*
X153338095Y-89376247D01*
X153338095Y-89376247D02*
X153338095Y-89233390D01*
X153338095Y-89233390D02*
X153385714Y-89042914D01*
X153385714Y-89042914D02*
X153433333Y-88947676D01*
X153433333Y-88947676D02*
X153528571Y-88852438D01*
X153528571Y-88852438D02*
X153671428Y-88804819D01*
X153671428Y-88804819D02*
X153766666Y-88804819D01*
X153766666Y-88804819D02*
X153909523Y-88852438D01*
X153909523Y-88852438D02*
X153957142Y-88900057D01*
X154909523Y-89804819D02*
X154338095Y-89804819D01*
X154623809Y-89804819D02*
X154623809Y-88804819D01*
X154623809Y-88804819D02*
X154528571Y-88947676D01*
X154528571Y-88947676D02*
X154433333Y-89042914D01*
X154433333Y-89042914D02*
X154338095Y-89090533D01*
X155290476Y-88900057D02*
X155338095Y-88852438D01*
X155338095Y-88852438D02*
X155433333Y-88804819D01*
X155433333Y-88804819D02*
X155671428Y-88804819D01*
X155671428Y-88804819D02*
X155766666Y-88852438D01*
X155766666Y-88852438D02*
X155814285Y-88900057D01*
X155814285Y-88900057D02*
X155861904Y-88995295D01*
X155861904Y-88995295D02*
X155861904Y-89090533D01*
X155861904Y-89090533D02*
X155814285Y-89233390D01*
X155814285Y-89233390D02*
X155242857Y-89804819D01*
X155242857Y-89804819D02*
X155861904Y-89804819D01*
X156210095Y-109182819D02*
X156210095Y-109992342D01*
X156210095Y-109992342D02*
X156257714Y-110087580D01*
X156257714Y-110087580D02*
X156305333Y-110135200D01*
X156305333Y-110135200D02*
X156400571Y-110182819D01*
X156400571Y-110182819D02*
X156591047Y-110182819D01*
X156591047Y-110182819D02*
X156686285Y-110135200D01*
X156686285Y-110135200D02*
X156733904Y-110087580D01*
X156733904Y-110087580D02*
X156781523Y-109992342D01*
X156781523Y-109992342D02*
X156781523Y-109182819D01*
X157400571Y-109611390D02*
X157305333Y-109563771D01*
X157305333Y-109563771D02*
X157257714Y-109516152D01*
X157257714Y-109516152D02*
X157210095Y-109420914D01*
X157210095Y-109420914D02*
X157210095Y-109373295D01*
X157210095Y-109373295D02*
X157257714Y-109278057D01*
X157257714Y-109278057D02*
X157305333Y-109230438D01*
X157305333Y-109230438D02*
X157400571Y-109182819D01*
X157400571Y-109182819D02*
X157591047Y-109182819D01*
X157591047Y-109182819D02*
X157686285Y-109230438D01*
X157686285Y-109230438D02*
X157733904Y-109278057D01*
X157733904Y-109278057D02*
X157781523Y-109373295D01*
X157781523Y-109373295D02*
X157781523Y-109420914D01*
X157781523Y-109420914D02*
X157733904Y-109516152D01*
X157733904Y-109516152D02*
X157686285Y-109563771D01*
X157686285Y-109563771D02*
X157591047Y-109611390D01*
X157591047Y-109611390D02*
X157400571Y-109611390D01*
X157400571Y-109611390D02*
X157305333Y-109659009D01*
X157305333Y-109659009D02*
X157257714Y-109706628D01*
X157257714Y-109706628D02*
X157210095Y-109801866D01*
X157210095Y-109801866D02*
X157210095Y-109992342D01*
X157210095Y-109992342D02*
X157257714Y-110087580D01*
X157257714Y-110087580D02*
X157305333Y-110135200D01*
X157305333Y-110135200D02*
X157400571Y-110182819D01*
X157400571Y-110182819D02*
X157591047Y-110182819D01*
X157591047Y-110182819D02*
X157686285Y-110135200D01*
X157686285Y-110135200D02*
X157733904Y-110087580D01*
X157733904Y-110087580D02*
X157781523Y-109992342D01*
X157781523Y-109992342D02*
X157781523Y-109801866D01*
X157781523Y-109801866D02*
X157733904Y-109706628D01*
X157733904Y-109706628D02*
X157686285Y-109659009D01*
X157686285Y-109659009D02*
X157591047Y-109611390D01*
X114933333Y-71759580D02*
X114885714Y-71807200D01*
X114885714Y-71807200D02*
X114742857Y-71854819D01*
X114742857Y-71854819D02*
X114647619Y-71854819D01*
X114647619Y-71854819D02*
X114504762Y-71807200D01*
X114504762Y-71807200D02*
X114409524Y-71711961D01*
X114409524Y-71711961D02*
X114361905Y-71616723D01*
X114361905Y-71616723D02*
X114314286Y-71426247D01*
X114314286Y-71426247D02*
X114314286Y-71283390D01*
X114314286Y-71283390D02*
X114361905Y-71092914D01*
X114361905Y-71092914D02*
X114409524Y-70997676D01*
X114409524Y-70997676D02*
X114504762Y-70902438D01*
X114504762Y-70902438D02*
X114647619Y-70854819D01*
X114647619Y-70854819D02*
X114742857Y-70854819D01*
X114742857Y-70854819D02*
X114885714Y-70902438D01*
X114885714Y-70902438D02*
X114933333Y-70950057D01*
X115790476Y-71188152D02*
X115790476Y-71854819D01*
X115552381Y-70807200D02*
X115314286Y-71521485D01*
X115314286Y-71521485D02*
X115933333Y-71521485D01*
X123038095Y-76162819D02*
X123038095Y-76972342D01*
X123038095Y-76972342D02*
X123085714Y-77067580D01*
X123085714Y-77067580D02*
X123133333Y-77115200D01*
X123133333Y-77115200D02*
X123228571Y-77162819D01*
X123228571Y-77162819D02*
X123419047Y-77162819D01*
X123419047Y-77162819D02*
X123514285Y-77115200D01*
X123514285Y-77115200D02*
X123561904Y-77067580D01*
X123561904Y-77067580D02*
X123609523Y-76972342D01*
X123609523Y-76972342D02*
X123609523Y-76162819D01*
X124514285Y-76496152D02*
X124514285Y-77162819D01*
X124276190Y-76115200D02*
X124038095Y-76829485D01*
X124038095Y-76829485D02*
X124657142Y-76829485D01*
X119200000Y-73823820D02*
X119200000Y-74061915D01*
X118961905Y-73966677D02*
X119200000Y-74061915D01*
X119200000Y-74061915D02*
X119438095Y-73966677D01*
X119057143Y-74252391D02*
X119200000Y-74061915D01*
X119200000Y-74061915D02*
X119342857Y-74252391D01*
X138607142Y-111359580D02*
X138559523Y-111407200D01*
X138559523Y-111407200D02*
X138416666Y-111454819D01*
X138416666Y-111454819D02*
X138321428Y-111454819D01*
X138321428Y-111454819D02*
X138178571Y-111407200D01*
X138178571Y-111407200D02*
X138083333Y-111311961D01*
X138083333Y-111311961D02*
X138035714Y-111216723D01*
X138035714Y-111216723D02*
X137988095Y-111026247D01*
X137988095Y-111026247D02*
X137988095Y-110883390D01*
X137988095Y-110883390D02*
X138035714Y-110692914D01*
X138035714Y-110692914D02*
X138083333Y-110597676D01*
X138083333Y-110597676D02*
X138178571Y-110502438D01*
X138178571Y-110502438D02*
X138321428Y-110454819D01*
X138321428Y-110454819D02*
X138416666Y-110454819D01*
X138416666Y-110454819D02*
X138559523Y-110502438D01*
X138559523Y-110502438D02*
X138607142Y-110550057D01*
X139559523Y-111454819D02*
X138988095Y-111454819D01*
X139273809Y-111454819D02*
X139273809Y-110454819D01*
X139273809Y-110454819D02*
X139178571Y-110597676D01*
X139178571Y-110597676D02*
X139083333Y-110692914D01*
X139083333Y-110692914D02*
X138988095Y-110740533D01*
X140178571Y-110454819D02*
X140273809Y-110454819D01*
X140273809Y-110454819D02*
X140369047Y-110502438D01*
X140369047Y-110502438D02*
X140416666Y-110550057D01*
X140416666Y-110550057D02*
X140464285Y-110645295D01*
X140464285Y-110645295D02*
X140511904Y-110835771D01*
X140511904Y-110835771D02*
X140511904Y-111073866D01*
X140511904Y-111073866D02*
X140464285Y-111264342D01*
X140464285Y-111264342D02*
X140416666Y-111359580D01*
X140416666Y-111359580D02*
X140369047Y-111407200D01*
X140369047Y-111407200D02*
X140273809Y-111454819D01*
X140273809Y-111454819D02*
X140178571Y-111454819D01*
X140178571Y-111454819D02*
X140083333Y-111407200D01*
X140083333Y-111407200D02*
X140035714Y-111359580D01*
X140035714Y-111359580D02*
X139988095Y-111264342D01*
X139988095Y-111264342D02*
X139940476Y-111073866D01*
X139940476Y-111073866D02*
X139940476Y-110835771D01*
X139940476Y-110835771D02*
X139988095Y-110645295D01*
X139988095Y-110645295D02*
X140035714Y-110550057D01*
X140035714Y-110550057D02*
X140083333Y-110502438D01*
X140083333Y-110502438D02*
X140178571Y-110454819D01*
X147359580Y-103567857D02*
X147407200Y-103615476D01*
X147407200Y-103615476D02*
X147454819Y-103758333D01*
X147454819Y-103758333D02*
X147454819Y-103853571D01*
X147454819Y-103853571D02*
X147407200Y-103996428D01*
X147407200Y-103996428D02*
X147311961Y-104091666D01*
X147311961Y-104091666D02*
X147216723Y-104139285D01*
X147216723Y-104139285D02*
X147026247Y-104186904D01*
X147026247Y-104186904D02*
X146883390Y-104186904D01*
X146883390Y-104186904D02*
X146692914Y-104139285D01*
X146692914Y-104139285D02*
X146597676Y-104091666D01*
X146597676Y-104091666D02*
X146502438Y-103996428D01*
X146502438Y-103996428D02*
X146454819Y-103853571D01*
X146454819Y-103853571D02*
X146454819Y-103758333D01*
X146454819Y-103758333D02*
X146502438Y-103615476D01*
X146502438Y-103615476D02*
X146550057Y-103567857D01*
X146550057Y-103186904D02*
X146502438Y-103139285D01*
X146502438Y-103139285D02*
X146454819Y-103044047D01*
X146454819Y-103044047D02*
X146454819Y-102805952D01*
X146454819Y-102805952D02*
X146502438Y-102710714D01*
X146502438Y-102710714D02*
X146550057Y-102663095D01*
X146550057Y-102663095D02*
X146645295Y-102615476D01*
X146645295Y-102615476D02*
X146740533Y-102615476D01*
X146740533Y-102615476D02*
X146883390Y-102663095D01*
X146883390Y-102663095D02*
X147454819Y-103234523D01*
X147454819Y-103234523D02*
X147454819Y-102615476D01*
X146550057Y-102234523D02*
X146502438Y-102186904D01*
X146502438Y-102186904D02*
X146454819Y-102091666D01*
X146454819Y-102091666D02*
X146454819Y-101853571D01*
X146454819Y-101853571D02*
X146502438Y-101758333D01*
X146502438Y-101758333D02*
X146550057Y-101710714D01*
X146550057Y-101710714D02*
X146645295Y-101663095D01*
X146645295Y-101663095D02*
X146740533Y-101663095D01*
X146740533Y-101663095D02*
X146883390Y-101710714D01*
X146883390Y-101710714D02*
X147454819Y-102282142D01*
X147454819Y-102282142D02*
X147454819Y-101663095D01*
X105859580Y-86416666D02*
X105907200Y-86464285D01*
X105907200Y-86464285D02*
X105954819Y-86607142D01*
X105954819Y-86607142D02*
X105954819Y-86702380D01*
X105954819Y-86702380D02*
X105907200Y-86845237D01*
X105907200Y-86845237D02*
X105811961Y-86940475D01*
X105811961Y-86940475D02*
X105716723Y-86988094D01*
X105716723Y-86988094D02*
X105526247Y-87035713D01*
X105526247Y-87035713D02*
X105383390Y-87035713D01*
X105383390Y-87035713D02*
X105192914Y-86988094D01*
X105192914Y-86988094D02*
X105097676Y-86940475D01*
X105097676Y-86940475D02*
X105002438Y-86845237D01*
X105002438Y-86845237D02*
X104954819Y-86702380D01*
X104954819Y-86702380D02*
X104954819Y-86607142D01*
X104954819Y-86607142D02*
X105002438Y-86464285D01*
X105002438Y-86464285D02*
X105050057Y-86416666D01*
X105954819Y-85464285D02*
X105954819Y-86035713D01*
X105954819Y-85749999D02*
X104954819Y-85749999D01*
X104954819Y-85749999D02*
X105097676Y-85845237D01*
X105097676Y-85845237D02*
X105192914Y-85940475D01*
X105192914Y-85940475D02*
X105240533Y-86035713D01*
X144583333Y-110359580D02*
X144535714Y-110407200D01*
X144535714Y-110407200D02*
X144392857Y-110454819D01*
X144392857Y-110454819D02*
X144297619Y-110454819D01*
X144297619Y-110454819D02*
X144154762Y-110407200D01*
X144154762Y-110407200D02*
X144059524Y-110311961D01*
X144059524Y-110311961D02*
X144011905Y-110216723D01*
X144011905Y-110216723D02*
X143964286Y-110026247D01*
X143964286Y-110026247D02*
X143964286Y-109883390D01*
X143964286Y-109883390D02*
X144011905Y-109692914D01*
X144011905Y-109692914D02*
X144059524Y-109597676D01*
X144059524Y-109597676D02*
X144154762Y-109502438D01*
X144154762Y-109502438D02*
X144297619Y-109454819D01*
X144297619Y-109454819D02*
X144392857Y-109454819D01*
X144392857Y-109454819D02*
X144535714Y-109502438D01*
X144535714Y-109502438D02*
X144583333Y-109550057D01*
X145059524Y-110454819D02*
X145250000Y-110454819D01*
X145250000Y-110454819D02*
X145345238Y-110407200D01*
X145345238Y-110407200D02*
X145392857Y-110359580D01*
X145392857Y-110359580D02*
X145488095Y-110216723D01*
X145488095Y-110216723D02*
X145535714Y-110026247D01*
X145535714Y-110026247D02*
X145535714Y-109645295D01*
X145535714Y-109645295D02*
X145488095Y-109550057D01*
X145488095Y-109550057D02*
X145440476Y-109502438D01*
X145440476Y-109502438D02*
X145345238Y-109454819D01*
X145345238Y-109454819D02*
X145154762Y-109454819D01*
X145154762Y-109454819D02*
X145059524Y-109502438D01*
X145059524Y-109502438D02*
X145011905Y-109550057D01*
X145011905Y-109550057D02*
X144964286Y-109645295D01*
X144964286Y-109645295D02*
X144964286Y-109883390D01*
X144964286Y-109883390D02*
X145011905Y-109978628D01*
X145011905Y-109978628D02*
X145059524Y-110026247D01*
X145059524Y-110026247D02*
X145154762Y-110073866D01*
X145154762Y-110073866D02*
X145345238Y-110073866D01*
X145345238Y-110073866D02*
X145440476Y-110026247D01*
X145440476Y-110026247D02*
X145488095Y-109978628D01*
X145488095Y-109978628D02*
X145535714Y-109883390D01*
X135238095Y-80204819D02*
X135857142Y-80204819D01*
X135857142Y-80204819D02*
X135523809Y-80585771D01*
X135523809Y-80585771D02*
X135666666Y-80585771D01*
X135666666Y-80585771D02*
X135761904Y-80633390D01*
X135761904Y-80633390D02*
X135809523Y-80681009D01*
X135809523Y-80681009D02*
X135857142Y-80776247D01*
X135857142Y-80776247D02*
X135857142Y-81014342D01*
X135857142Y-81014342D02*
X135809523Y-81109580D01*
X135809523Y-81109580D02*
X135761904Y-81157200D01*
X135761904Y-81157200D02*
X135666666Y-81204819D01*
X135666666Y-81204819D02*
X135380952Y-81204819D01*
X135380952Y-81204819D02*
X135285714Y-81157200D01*
X135285714Y-81157200D02*
X135238095Y-81109580D01*
X136142857Y-80204819D02*
X136476190Y-81204819D01*
X136476190Y-81204819D02*
X136809523Y-80204819D01*
X140488095Y-70752438D02*
X140392857Y-70704819D01*
X140392857Y-70704819D02*
X140250000Y-70704819D01*
X140250000Y-70704819D02*
X140107143Y-70752438D01*
X140107143Y-70752438D02*
X140011905Y-70847676D01*
X140011905Y-70847676D02*
X139964286Y-70942914D01*
X139964286Y-70942914D02*
X139916667Y-71133390D01*
X139916667Y-71133390D02*
X139916667Y-71276247D01*
X139916667Y-71276247D02*
X139964286Y-71466723D01*
X139964286Y-71466723D02*
X140011905Y-71561961D01*
X140011905Y-71561961D02*
X140107143Y-71657200D01*
X140107143Y-71657200D02*
X140250000Y-71704819D01*
X140250000Y-71704819D02*
X140345238Y-71704819D01*
X140345238Y-71704819D02*
X140488095Y-71657200D01*
X140488095Y-71657200D02*
X140535714Y-71609580D01*
X140535714Y-71609580D02*
X140535714Y-71276247D01*
X140535714Y-71276247D02*
X140345238Y-71276247D01*
X140964286Y-71704819D02*
X140964286Y-70704819D01*
X140964286Y-70704819D02*
X141535714Y-71704819D01*
X141535714Y-71704819D02*
X141535714Y-70704819D01*
X142011905Y-71704819D02*
X142011905Y-70704819D01*
X142011905Y-70704819D02*
X142250000Y-70704819D01*
X142250000Y-70704819D02*
X142392857Y-70752438D01*
X142392857Y-70752438D02*
X142488095Y-70847676D01*
X142488095Y-70847676D02*
X142535714Y-70942914D01*
X142535714Y-70942914D02*
X142583333Y-71133390D01*
X142583333Y-71133390D02*
X142583333Y-71276247D01*
X142583333Y-71276247D02*
X142535714Y-71466723D01*
X142535714Y-71466723D02*
X142488095Y-71561961D01*
X142488095Y-71561961D02*
X142392857Y-71657200D01*
X142392857Y-71657200D02*
X142250000Y-71704819D01*
X142250000Y-71704819D02*
X142011905Y-71704819D01*
%TO.C,U1*%
X106220000Y-89110000D02*
X141780000Y-89110000D01*
X106220000Y-106890000D02*
X106220000Y-89110000D01*
X141780000Y-89110000D02*
X141780000Y-106890000D01*
X141780000Y-106890000D02*
X106220000Y-106890000D01*
D14*
%TO.C,IC2*%
X141600000Y-121325000D02*
X143600000Y-121325000D01*
X141600000Y-122925000D02*
X141600000Y-121325000D01*
X143600000Y-121325000D02*
X143600000Y-122925000D01*
X143600000Y-122925000D02*
X141600000Y-122925000D01*
X143850000Y-120125000D02*
X143850000Y-120975000D01*
D15*
%TO.C,servo1*%
X170240000Y-100140000D02*
X170240000Y-101390000D01*
X170540000Y-100440000D02*
X170540000Y-105160000D01*
X170540000Y-101750000D02*
X171150000Y-101750000D01*
X170540000Y-103050000D02*
X171150000Y-103050000D01*
X170540000Y-105160000D02*
X178660000Y-105160000D01*
X171150000Y-101050000D02*
X171150000Y-104550000D01*
X171150000Y-104550000D02*
X178050000Y-104550000D01*
X171490000Y-100140000D02*
X170240000Y-100140000D01*
X172000000Y-100240000D02*
X172000000Y-100440000D01*
X172300000Y-100240000D02*
X172000000Y-100240000D01*
X172300000Y-100340000D02*
X172000000Y-100340000D01*
X172300000Y-100440000D02*
X172300000Y-100240000D01*
X173100000Y-100440000D02*
X173100000Y-101050000D01*
X173100000Y-101050000D02*
X171150000Y-101050000D01*
X173500000Y-104050000D02*
X173700000Y-104050000D01*
X173500000Y-104550000D02*
X173500000Y-104050000D01*
X173600000Y-104550000D02*
X173600000Y-104050000D01*
X173700000Y-104050000D02*
X173700000Y-104550000D01*
X175500000Y-104050000D02*
X175700000Y-104050000D01*
X175500000Y-104550000D02*
X175500000Y-104050000D01*
X175600000Y-104550000D02*
X175600000Y-104050000D01*
X175700000Y-104050000D02*
X175700000Y-104550000D01*
X176100000Y-101050000D02*
X176100000Y-100440000D01*
X178050000Y-101050000D02*
X176100000Y-101050000D01*
X178050000Y-104550000D02*
X178050000Y-101050000D01*
X178660000Y-100440000D02*
X170540000Y-100440000D01*
X178660000Y-101750000D02*
X178050000Y-101750000D01*
X178660000Y-103050000D02*
X178050000Y-103050000D01*
X178660000Y-105160000D02*
X178660000Y-100440000D01*
%TO.C,BZ1*%
X157900000Y-120000000D02*
G75*
G02*
X145700000Y-120000000I-6100000J0D01*
G01*
X145700000Y-120000000D02*
G75*
G02*
X157900000Y-120000000I6100000J0D01*
G01*
%TO.C,C24*%
X144265000Y-95623752D02*
X144265000Y-95101248D01*
X145735000Y-95623752D02*
X145735000Y-95101248D01*
%TO.C,J1*%
X137790000Y-72920000D02*
X139120000Y-72920000D01*
X139120000Y-72920000D02*
X139120000Y-74250000D01*
%TO.C,C23*%
X146465000Y-95101248D02*
X146465000Y-95623752D01*
X147935000Y-95101248D02*
X147935000Y-95623752D01*
%TO.C,R11*%
X146427064Y-85715000D02*
X145972936Y-85715000D01*
X146427064Y-87185000D02*
X145972936Y-87185000D01*
%TO.C,5V*%
X137290000Y-82500000D02*
X137290000Y-85360000D01*
X137290000Y-85360000D02*
X139210000Y-85360000D01*
X139210000Y-85360000D02*
X139210000Y-82500000D01*
%TO.C,R1*%
X115146654Y-76490002D02*
X115600782Y-76490002D01*
X115146654Y-77960002D02*
X115600782Y-77960002D01*
%TO.C,R2*%
X156027064Y-99190000D02*
X155572936Y-99190000D01*
X156027064Y-100660000D02*
X155572936Y-100660000D01*
%TO.C,C17*%
X140176248Y-114515000D02*
X140698752Y-114515000D01*
X140176248Y-115985000D02*
X140698752Y-115985000D01*
%TO.C,servo13*%
X170240000Y-94540000D02*
X170240000Y-95790000D01*
X170540000Y-94840000D02*
X170540000Y-99560000D01*
X170540000Y-96150000D02*
X171150000Y-96150000D01*
X170540000Y-97450000D02*
X171150000Y-97450000D01*
X170540000Y-99560000D02*
X178660000Y-99560000D01*
X171150000Y-95450000D02*
X171150000Y-98950000D01*
X171150000Y-98950000D02*
X178050000Y-98950000D01*
X171490000Y-94540000D02*
X170240000Y-94540000D01*
X172000000Y-94640000D02*
X172000000Y-94840000D01*
X172300000Y-94640000D02*
X172000000Y-94640000D01*
X172300000Y-94740000D02*
X172000000Y-94740000D01*
X172300000Y-94840000D02*
X172300000Y-94640000D01*
X173100000Y-94840000D02*
X173100000Y-95450000D01*
X173100000Y-95450000D02*
X171150000Y-95450000D01*
X173500000Y-98450000D02*
X173700000Y-98450000D01*
X173500000Y-98950000D02*
X173500000Y-98450000D01*
X173600000Y-98950000D02*
X173600000Y-98450000D01*
X173700000Y-98450000D02*
X173700000Y-98950000D01*
X175500000Y-98450000D02*
X175700000Y-98450000D01*
X175500000Y-98950000D02*
X175500000Y-98450000D01*
X175600000Y-98950000D02*
X175600000Y-98450000D01*
X175700000Y-98450000D02*
X175700000Y-98950000D01*
X176100000Y-95450000D02*
X176100000Y-94840000D01*
X178050000Y-95450000D02*
X176100000Y-95450000D01*
X178050000Y-98950000D02*
X178050000Y-95450000D01*
X178660000Y-94840000D02*
X170540000Y-94840000D01*
X178660000Y-96150000D02*
X178050000Y-96150000D01*
X178660000Y-97450000D02*
X178050000Y-97450000D01*
X178660000Y-99560000D02*
X178660000Y-94840000D01*
%TO.C,C2*%
X108661252Y-83465000D02*
X108138748Y-83465000D01*
X108661252Y-84935000D02*
X108138748Y-84935000D01*
%TO.C,U6*%
X149600000Y-105025000D02*
X149600000Y-104775000D01*
X149600000Y-105025000D02*
X149850000Y-105025000D01*
X152800000Y-101825000D02*
X152550000Y-101825000D01*
X152800000Y-101825000D02*
X152800000Y-102075000D01*
X152800000Y-105025000D02*
X152550000Y-105025000D01*
X152800000Y-105025000D02*
X152800000Y-104775000D01*
X149600000Y-101825000D02*
X149360000Y-101495000D01*
X149840000Y-101495000D01*
X149600000Y-101825000D01*
G36*
X149600000Y-101825000D02*
G01*
X149360000Y-101495000D01*
X149840000Y-101495000D01*
X149600000Y-101825000D01*
G37*
%TO.C,R13*%
X146427064Y-83465000D02*
X145972936Y-83465000D01*
X146427064Y-84935000D02*
X145972936Y-84935000D01*
%TO.C,C21*%
X136376248Y-114515000D02*
X136898752Y-114515000D01*
X136376248Y-115985000D02*
X136898752Y-115985000D01*
%TO.C,C18*%
X153875000Y-103361252D02*
X153875000Y-102838748D01*
X155345000Y-103361252D02*
X155345000Y-102838748D01*
%TO.C,C14*%
X110865000Y-85661252D02*
X110865000Y-85138748D01*
X112335000Y-85661252D02*
X112335000Y-85138748D01*
%TO.C,C13*%
X146740000Y-71740000D02*
X150490000Y-71740000D01*
X146740000Y-81195563D02*
X146740000Y-71740000D01*
X147804437Y-82260000D02*
X146740000Y-81195563D01*
X147804437Y-82260000D02*
X150490000Y-82260000D01*
X148875000Y-79875000D02*
X150125000Y-79875000D01*
X149500000Y-80500000D02*
X149500000Y-79250000D01*
X156195563Y-82260000D02*
X153510000Y-82260000D01*
X156195563Y-82260000D02*
X157260000Y-81195563D01*
X157260000Y-71740000D02*
X153510000Y-71740000D01*
X157260000Y-81195563D02*
X157260000Y-71740000D01*
%TO.C,C16*%
X144290000Y-99611252D02*
X144290000Y-99088748D01*
X145760000Y-99611252D02*
X145760000Y-99088748D01*
D16*
%TO.C,U3*%
X136762499Y-117206000D02*
X136762499Y-117558305D01*
X136762499Y-120503695D02*
X136762499Y-120856000D01*
X136762499Y-120856000D02*
X137364804Y-120856000D01*
X137364804Y-117206000D02*
X136762499Y-117206000D01*
X138310192Y-120856000D02*
X138864806Y-120856000D01*
X138864806Y-117206000D02*
X138310192Y-117206000D01*
X139810194Y-120856000D02*
X140412499Y-120856000D01*
X140412499Y-117206000D02*
X139810194Y-117206000D01*
X140412499Y-117558305D02*
X140412499Y-117206000D01*
X140412499Y-120856000D02*
X140412499Y-120503695D01*
D17*
G36*
X141289442Y-119721499D02*
G01*
X141035442Y-119721499D01*
X141035442Y-119340499D01*
X141289442Y-119340499D01*
X141289442Y-119721499D01*
G37*
D15*
%TO.C,R3*%
X146427064Y-87965000D02*
X145972936Y-87965000D01*
X146427064Y-89435000D02*
X145972936Y-89435000D01*
%TO.C,servo11*%
X170240000Y-83290000D02*
X170240000Y-84540000D01*
X170540000Y-83590000D02*
X170540000Y-88310000D01*
X170540000Y-84900000D02*
X171150000Y-84900000D01*
X170540000Y-86200000D02*
X171150000Y-86200000D01*
X170540000Y-88310000D02*
X178660000Y-88310000D01*
X171150000Y-84200000D02*
X171150000Y-87700000D01*
X171150000Y-87700000D02*
X178050000Y-87700000D01*
X171490000Y-83290000D02*
X170240000Y-83290000D01*
X172000000Y-83390000D02*
X172000000Y-83590000D01*
X172300000Y-83390000D02*
X172000000Y-83390000D01*
X172300000Y-83490000D02*
X172000000Y-83490000D01*
X172300000Y-83590000D02*
X172300000Y-83390000D01*
X173100000Y-83590000D02*
X173100000Y-84200000D01*
X173100000Y-84200000D02*
X171150000Y-84200000D01*
X173500000Y-87200000D02*
X173700000Y-87200000D01*
X173500000Y-87700000D02*
X173500000Y-87200000D01*
X173600000Y-87700000D02*
X173600000Y-87200000D01*
X173700000Y-87200000D02*
X173700000Y-87700000D01*
X175500000Y-87200000D02*
X175700000Y-87200000D01*
X175500000Y-87700000D02*
X175500000Y-87200000D01*
X175600000Y-87700000D02*
X175600000Y-87200000D01*
X175700000Y-87200000D02*
X175700000Y-87700000D01*
X176100000Y-84200000D02*
X176100000Y-83590000D01*
X178050000Y-84200000D02*
X176100000Y-84200000D01*
X178050000Y-87700000D02*
X178050000Y-84200000D01*
X178660000Y-83590000D02*
X170540000Y-83590000D01*
X178660000Y-84900000D02*
X178050000Y-84900000D01*
X178660000Y-86200000D02*
X178050000Y-86200000D01*
X178660000Y-88310000D02*
X178660000Y-83590000D01*
%TO.C,R9*%
X132377500Y-114277064D02*
X132377500Y-113822936D01*
X133847500Y-114277064D02*
X133847500Y-113822936D01*
%TO.C,C3*%
X107065000Y-113511252D02*
X107065000Y-112988748D01*
X108535000Y-113511252D02*
X108535000Y-112988748D01*
%TO.C,VCC*%
X139540000Y-82500000D02*
X139540000Y-85360000D01*
X139540000Y-85360000D02*
X141460000Y-85360000D01*
X141460000Y-85360000D02*
X141460000Y-82500000D01*
%TO.C,servo5*%
X161240000Y-105690000D02*
X161240000Y-106940000D01*
X161540000Y-105990000D02*
X161540000Y-110710000D01*
X161540000Y-107300000D02*
X162150000Y-107300000D01*
X161540000Y-108600000D02*
X162150000Y-108600000D01*
X161540000Y-110710000D02*
X169660000Y-110710000D01*
X162150000Y-106600000D02*
X162150000Y-110100000D01*
X162150000Y-110100000D02*
X169050000Y-110100000D01*
X162490000Y-105690000D02*
X161240000Y-105690000D01*
X163000000Y-105790000D02*
X163000000Y-105990000D01*
X163300000Y-105790000D02*
X163000000Y-105790000D01*
X163300000Y-105890000D02*
X163000000Y-105890000D01*
X163300000Y-105990000D02*
X163300000Y-105790000D01*
X164100000Y-105990000D02*
X164100000Y-106600000D01*
X164100000Y-106600000D02*
X162150000Y-106600000D01*
X164500000Y-109600000D02*
X164700000Y-109600000D01*
X164500000Y-110100000D02*
X164500000Y-109600000D01*
X164600000Y-110100000D02*
X164600000Y-109600000D01*
X164700000Y-109600000D02*
X164700000Y-110100000D01*
X166500000Y-109600000D02*
X166700000Y-109600000D01*
X166500000Y-110100000D02*
X166500000Y-109600000D01*
X166600000Y-110100000D02*
X166600000Y-109600000D01*
X166700000Y-109600000D02*
X166700000Y-110100000D01*
X167100000Y-106600000D02*
X167100000Y-105990000D01*
X169050000Y-106600000D02*
X167100000Y-106600000D01*
X169050000Y-110100000D02*
X169050000Y-106600000D01*
X169660000Y-105990000D02*
X161540000Y-105990000D01*
X169660000Y-107300000D02*
X169050000Y-107300000D01*
X169660000Y-108600000D02*
X169050000Y-108600000D01*
X169660000Y-110710000D02*
X169660000Y-105990000D01*
%TO.C,servo4*%
X161240000Y-117140000D02*
X161240000Y-118390000D01*
X161540000Y-117440000D02*
X161540000Y-122160000D01*
X161540000Y-118750000D02*
X162150000Y-118750000D01*
X161540000Y-120050000D02*
X162150000Y-120050000D01*
X161540000Y-122160000D02*
X169660000Y-122160000D01*
X162150000Y-118050000D02*
X162150000Y-121550000D01*
X162150000Y-121550000D02*
X169050000Y-121550000D01*
X162490000Y-117140000D02*
X161240000Y-117140000D01*
X163000000Y-117240000D02*
X163000000Y-117440000D01*
X163300000Y-117240000D02*
X163000000Y-117240000D01*
X163300000Y-117340000D02*
X163000000Y-117340000D01*
X163300000Y-117440000D02*
X163300000Y-117240000D01*
X164100000Y-117440000D02*
X164100000Y-118050000D01*
X164100000Y-118050000D02*
X162150000Y-118050000D01*
X164500000Y-121050000D02*
X164700000Y-121050000D01*
X164500000Y-121550000D02*
X164500000Y-121050000D01*
X164600000Y-121550000D02*
X164600000Y-121050000D01*
X164700000Y-121050000D02*
X164700000Y-121550000D01*
X166500000Y-121050000D02*
X166700000Y-121050000D01*
X166500000Y-121550000D02*
X166500000Y-121050000D01*
X166600000Y-121550000D02*
X166600000Y-121050000D01*
X166700000Y-121050000D02*
X166700000Y-121550000D01*
X167100000Y-118050000D02*
X167100000Y-117440000D01*
X169050000Y-118050000D02*
X167100000Y-118050000D01*
X169050000Y-121550000D02*
X169050000Y-118050000D01*
X169660000Y-117440000D02*
X161540000Y-117440000D01*
X169660000Y-118750000D02*
X169050000Y-118750000D01*
X169660000Y-120050000D02*
X169050000Y-120050000D01*
X169660000Y-122160000D02*
X169660000Y-117440000D01*
%TO.C,5V*%
X142920000Y-72300000D02*
X144250000Y-72300000D01*
X142920000Y-73630000D02*
X142920000Y-72300000D01*
%TO.C,C7*%
X151275000Y-107961252D02*
X151275000Y-107438748D01*
X152745000Y-107961252D02*
X152745000Y-107438748D01*
%TO.C,servo2*%
X161240000Y-111340000D02*
X161240000Y-112590000D01*
X161540000Y-111640000D02*
X161540000Y-116360000D01*
X161540000Y-112950000D02*
X162150000Y-112950000D01*
X161540000Y-114250000D02*
X162150000Y-114250000D01*
X161540000Y-116360000D02*
X169660000Y-116360000D01*
X162150000Y-112250000D02*
X162150000Y-115750000D01*
X162150000Y-115750000D02*
X169050000Y-115750000D01*
X162490000Y-111340000D02*
X161240000Y-111340000D01*
X163000000Y-111440000D02*
X163000000Y-111640000D01*
X163300000Y-111440000D02*
X163000000Y-111440000D01*
X163300000Y-111540000D02*
X163000000Y-111540000D01*
X163300000Y-111640000D02*
X163300000Y-111440000D01*
X164100000Y-111640000D02*
X164100000Y-112250000D01*
X164100000Y-112250000D02*
X162150000Y-112250000D01*
X164500000Y-115250000D02*
X164700000Y-115250000D01*
X164500000Y-115750000D02*
X164500000Y-115250000D01*
X164600000Y-115750000D02*
X164600000Y-115250000D01*
X164700000Y-115250000D02*
X164700000Y-115750000D01*
X166500000Y-115250000D02*
X166700000Y-115250000D01*
X166500000Y-115750000D02*
X166500000Y-115250000D01*
X166600000Y-115750000D02*
X166600000Y-115250000D01*
X166700000Y-115250000D02*
X166700000Y-115750000D01*
X167100000Y-112250000D02*
X167100000Y-111640000D01*
X169050000Y-112250000D02*
X167100000Y-112250000D01*
X169050000Y-115750000D02*
X169050000Y-112250000D01*
X169660000Y-111640000D02*
X161540000Y-111640000D01*
X169660000Y-112950000D02*
X169050000Y-112950000D01*
X169660000Y-114250000D02*
X169050000Y-114250000D01*
X169660000Y-116360000D02*
X169660000Y-111640000D01*
%TO.C,C11*%
X150865000Y-86611252D02*
X150865000Y-86088748D01*
X152335000Y-86611252D02*
X152335000Y-86088748D01*
%TO.C,R7*%
X118727064Y-86765000D02*
X118272936Y-86765000D01*
X118727064Y-88235000D02*
X118272936Y-88235000D01*
D11*
%TO.C,U2*%
X113750000Y-108550000D02*
X114500000Y-108550000D01*
X113750000Y-125050000D02*
X113750000Y-108550000D01*
X114500000Y-125050000D02*
X113750000Y-125050000D01*
X130500000Y-125050000D02*
X131250000Y-125050000D01*
X131250000Y-108550000D02*
X130500000Y-108550000D01*
X131250000Y-125050000D02*
X131250000Y-108550000D01*
D15*
X114500000Y-125850000D02*
X114000000Y-125350000D01*
X114500000Y-125350000D01*
X114500000Y-125850000D01*
G36*
X114500000Y-125850000D02*
G01*
X114000000Y-125350000D01*
X114500000Y-125350000D01*
X114500000Y-125850000D01*
G37*
%TO.C,C6*%
X123838718Y-72963750D02*
X123838718Y-73486254D01*
X125308718Y-72963750D02*
X125308718Y-73486254D01*
%TO.C,C20*%
X136376248Y-112265000D02*
X136898752Y-112265000D01*
X136376248Y-113735000D02*
X136898752Y-113735000D01*
%TO.C,R4*%
X151772936Y-111265000D02*
X152227064Y-111265000D01*
X151772936Y-112735000D02*
X152227064Y-112735000D01*
%TO.C,S4*%
X124470000Y-83030000D02*
X124470000Y-80430000D01*
X127130000Y-80430000D02*
X124470000Y-80430000D01*
X127130000Y-83030000D02*
X124470000Y-83030000D01*
X127130000Y-83030000D02*
X127130000Y-80430000D01*
X127130000Y-84300000D02*
X127130000Y-85630000D01*
X127130000Y-85630000D02*
X125800000Y-85630000D01*
%TO.C,C8*%
X157248752Y-82977500D02*
X156726248Y-82977500D01*
X157248752Y-84447500D02*
X156726248Y-84447500D01*
D16*
%TO.C,U7*%
X149306000Y-95549999D02*
X149306000Y-96152304D01*
X149306000Y-97097692D02*
X149306000Y-97652306D01*
X149306000Y-98597694D02*
X149306000Y-99199999D01*
X149306000Y-99199999D02*
X149658305Y-99199999D01*
X149658305Y-95549999D02*
X149306000Y-95549999D01*
X152603695Y-99199999D02*
X152956000Y-99199999D01*
X152956000Y-95549999D02*
X152603695Y-95549999D01*
X152956000Y-96152304D02*
X152956000Y-95549999D01*
X152956000Y-97652306D02*
X152956000Y-97097692D01*
X152956000Y-99199999D02*
X152956000Y-98597694D01*
D17*
G36*
X151821499Y-94927056D02*
G01*
X151440499Y-94927056D01*
X151440499Y-94673056D01*
X151821499Y-94673056D01*
X151821499Y-94927056D01*
G37*
D15*
%TO.C,servo10*%
X161240000Y-100140000D02*
X161240000Y-101390000D01*
X161540000Y-100440000D02*
X161540000Y-105160000D01*
X161540000Y-101750000D02*
X162150000Y-101750000D01*
X161540000Y-103050000D02*
X162150000Y-103050000D01*
X161540000Y-105160000D02*
X169660000Y-105160000D01*
X162150000Y-101050000D02*
X162150000Y-104550000D01*
X162150000Y-104550000D02*
X169050000Y-104550000D01*
X162490000Y-100140000D02*
X161240000Y-100140000D01*
X163000000Y-100240000D02*
X163000000Y-100440000D01*
X163300000Y-100240000D02*
X163000000Y-100240000D01*
X163300000Y-100340000D02*
X163000000Y-100340000D01*
X163300000Y-100440000D02*
X163300000Y-100240000D01*
X164100000Y-100440000D02*
X164100000Y-101050000D01*
X164100000Y-101050000D02*
X162150000Y-101050000D01*
X164500000Y-104050000D02*
X164700000Y-104050000D01*
X164500000Y-104550000D02*
X164500000Y-104050000D01*
X164600000Y-104550000D02*
X164600000Y-104050000D01*
X164700000Y-104050000D02*
X164700000Y-104550000D01*
X166500000Y-104050000D02*
X166700000Y-104050000D01*
X166500000Y-104550000D02*
X166500000Y-104050000D01*
X166600000Y-104550000D02*
X166600000Y-104050000D01*
X166700000Y-104050000D02*
X166700000Y-104550000D01*
X167100000Y-101050000D02*
X167100000Y-100440000D01*
X169050000Y-101050000D02*
X167100000Y-101050000D01*
X169050000Y-104550000D02*
X169050000Y-101050000D01*
X169660000Y-100440000D02*
X161540000Y-100440000D01*
X169660000Y-101750000D02*
X169050000Y-101750000D01*
X169660000Y-103050000D02*
X169050000Y-103050000D01*
X169660000Y-105160000D02*
X169660000Y-100440000D01*
%TO.C,C15*%
X109515000Y-113511252D02*
X109515000Y-112988748D01*
X110985000Y-113511252D02*
X110985000Y-112988748D01*
%TO.C,S2*%
X130270000Y-83005000D02*
X130270000Y-80405000D01*
X132930000Y-80405000D02*
X130270000Y-80405000D01*
X132930000Y-83005000D02*
X130270000Y-83005000D01*
X132930000Y-83005000D02*
X132930000Y-80405000D01*
X132930000Y-84275000D02*
X132930000Y-85605000D01*
X132930000Y-85605000D02*
X131600000Y-85605000D01*
%TO.C,servo3*%
X161240000Y-94540000D02*
X161240000Y-95790000D01*
X161540000Y-94840000D02*
X161540000Y-99560000D01*
X161540000Y-96150000D02*
X162150000Y-96150000D01*
X161540000Y-97450000D02*
X162150000Y-97450000D01*
X161540000Y-99560000D02*
X169660000Y-99560000D01*
X162150000Y-95450000D02*
X162150000Y-98950000D01*
X162150000Y-98950000D02*
X169050000Y-98950000D01*
X162490000Y-94540000D02*
X161240000Y-94540000D01*
X163000000Y-94640000D02*
X163000000Y-94840000D01*
X163300000Y-94640000D02*
X163000000Y-94640000D01*
X163300000Y-94740000D02*
X163000000Y-94740000D01*
X163300000Y-94840000D02*
X163300000Y-94640000D01*
X164100000Y-94840000D02*
X164100000Y-95450000D01*
X164100000Y-95450000D02*
X162150000Y-95450000D01*
X164500000Y-98450000D02*
X164700000Y-98450000D01*
X164500000Y-98950000D02*
X164500000Y-98450000D01*
X164600000Y-98950000D02*
X164600000Y-98450000D01*
X164700000Y-98450000D02*
X164700000Y-98950000D01*
X166500000Y-98450000D02*
X166700000Y-98450000D01*
X166500000Y-98950000D02*
X166500000Y-98450000D01*
X166600000Y-98950000D02*
X166600000Y-98450000D01*
X166700000Y-98450000D02*
X166700000Y-98950000D01*
X167100000Y-95450000D02*
X167100000Y-94840000D01*
X169050000Y-95450000D02*
X167100000Y-95450000D01*
X169050000Y-98950000D02*
X169050000Y-95450000D01*
X169660000Y-94840000D02*
X161540000Y-94840000D01*
X169660000Y-96150000D02*
X169050000Y-96150000D01*
X169660000Y-97450000D02*
X169050000Y-97450000D01*
X169660000Y-99560000D02*
X169660000Y-94840000D01*
%TO.C,R14*%
X154065000Y-96297936D02*
X154065000Y-96752064D01*
X155535000Y-96297936D02*
X155535000Y-96752064D01*
%TO.C,servo9*%
X170240000Y-88890000D02*
X170240000Y-90140000D01*
X170540000Y-89190000D02*
X170540000Y-93910000D01*
X170540000Y-90500000D02*
X171150000Y-90500000D01*
X170540000Y-91800000D02*
X171150000Y-91800000D01*
X170540000Y-93910000D02*
X178660000Y-93910000D01*
X171150000Y-89800000D02*
X171150000Y-93300000D01*
X171150000Y-93300000D02*
X178050000Y-93300000D01*
X171490000Y-88890000D02*
X170240000Y-88890000D01*
X172000000Y-88990000D02*
X172000000Y-89190000D01*
X172300000Y-88990000D02*
X172000000Y-88990000D01*
X172300000Y-89090000D02*
X172000000Y-89090000D01*
X172300000Y-89190000D02*
X172300000Y-88990000D01*
X173100000Y-89190000D02*
X173100000Y-89800000D01*
X173100000Y-89800000D02*
X171150000Y-89800000D01*
X173500000Y-92800000D02*
X173700000Y-92800000D01*
X173500000Y-93300000D02*
X173500000Y-92800000D01*
X173600000Y-93300000D02*
X173600000Y-92800000D01*
X173700000Y-92800000D02*
X173700000Y-93300000D01*
X175500000Y-92800000D02*
X175700000Y-92800000D01*
X175500000Y-93300000D02*
X175500000Y-92800000D01*
X175600000Y-93300000D02*
X175600000Y-92800000D01*
X175700000Y-92800000D02*
X175700000Y-93300000D01*
X176100000Y-89800000D02*
X176100000Y-89190000D01*
X178050000Y-89800000D02*
X176100000Y-89800000D01*
X178050000Y-93300000D02*
X178050000Y-89800000D01*
X178660000Y-89190000D02*
X170540000Y-89190000D01*
X178660000Y-90500000D02*
X178050000Y-90500000D01*
X178660000Y-91800000D02*
X178050000Y-91800000D01*
X178660000Y-93910000D02*
X178660000Y-89190000D01*
%TO.C,button*%
X114550000Y-80800000D02*
X114550000Y-80850000D01*
X114550000Y-84000000D02*
X114550000Y-82500000D01*
X114550000Y-85700000D02*
X114550000Y-85650000D01*
X119450000Y-80800000D02*
X114550000Y-80800000D01*
X119450000Y-80800000D02*
X119450000Y-80850000D01*
X119450000Y-84000000D02*
X119450000Y-82500000D01*
X119450000Y-85700000D02*
X114550000Y-85700000D01*
X119450000Y-85700000D02*
X119450000Y-85650000D01*
%TO.C,C19*%
X156075000Y-103361252D02*
X156075000Y-102838748D01*
X157545000Y-103361252D02*
X157545000Y-102838748D01*
%TO.C,J2*%
X137790000Y-75670000D02*
X139120000Y-75670000D01*
X139120000Y-75670000D02*
X139120000Y-77000000D01*
%TO.C,S3*%
X127370000Y-83030000D02*
X127370000Y-80430000D01*
X130030000Y-80430000D02*
X127370000Y-80430000D01*
X130030000Y-83030000D02*
X127370000Y-83030000D01*
X130030000Y-83030000D02*
X130030000Y-80430000D01*
X130030000Y-84300000D02*
X130030000Y-85630000D01*
X130030000Y-85630000D02*
X128700000Y-85630000D01*
%TO.C,U5*%
X156937500Y-85190000D02*
X156137500Y-85190000D01*
X156937500Y-85190000D02*
X157737500Y-85190000D01*
X156937500Y-88310000D02*
X156137500Y-88310000D01*
X156937500Y-88310000D02*
X157737500Y-88310000D01*
X158477500Y-88590000D02*
X157997500Y-88590000D01*
X158237500Y-88260000D01*
X158477500Y-88590000D01*
G36*
X158477500Y-88590000D02*
G01*
X157997500Y-88590000D01*
X158237500Y-88260000D01*
X158477500Y-88590000D01*
G37*
%TO.C,C5*%
X121012466Y-78390002D02*
X121534970Y-78390002D01*
X121012466Y-79860002D02*
X121534970Y-79860002D01*
D18*
%TO.C,Main Power*%
X157750000Y-69855750D02*
X159450000Y-69855750D01*
X157750000Y-72355750D02*
X157750000Y-69855750D01*
X158900000Y-81105750D02*
X159900000Y-81105750D01*
X159400000Y-81605750D02*
X159400000Y-80605750D01*
X159450000Y-72355750D02*
X157750000Y-72355750D01*
X159450000Y-77155750D02*
X159450000Y-72355750D01*
X168900000Y-81105750D02*
X169900000Y-81105750D01*
X169350000Y-69855750D02*
X171050000Y-69855750D01*
X169350000Y-72355750D02*
X169350000Y-77155750D01*
X169350000Y-77155750D02*
X159450000Y-77155750D01*
X171050000Y-69855750D02*
X171050000Y-72355750D01*
X171050000Y-72355750D02*
X169350000Y-72355750D01*
D15*
%TO.C,D3*%
X146290000Y-111750000D02*
X146290000Y-114610000D01*
X146290000Y-114610000D02*
X148210000Y-114610000D01*
X148210000Y-114610000D02*
X148210000Y-111750000D01*
%TO.C,C12*%
X153087500Y-86648752D02*
X153087500Y-86126248D01*
X154557500Y-86648752D02*
X154557500Y-86126248D01*
%TO.C,servo12*%
X161240000Y-88940000D02*
X161240000Y-90190000D01*
X161540000Y-89240000D02*
X161540000Y-93960000D01*
X161540000Y-90550000D02*
X162150000Y-90550000D01*
X161540000Y-91850000D02*
X162150000Y-91850000D01*
X161540000Y-93960000D02*
X169660000Y-93960000D01*
X162150000Y-89850000D02*
X162150000Y-93350000D01*
X162150000Y-93350000D02*
X169050000Y-93350000D01*
X162490000Y-88940000D02*
X161240000Y-88940000D01*
X163000000Y-89040000D02*
X163000000Y-89240000D01*
X163300000Y-89040000D02*
X163000000Y-89040000D01*
X163300000Y-89140000D02*
X163000000Y-89140000D01*
X163300000Y-89240000D02*
X163300000Y-89040000D01*
X164100000Y-89240000D02*
X164100000Y-89850000D01*
X164100000Y-89850000D02*
X162150000Y-89850000D01*
X164500000Y-92850000D02*
X164700000Y-92850000D01*
X164500000Y-93350000D02*
X164500000Y-92850000D01*
X164600000Y-93350000D02*
X164600000Y-92850000D01*
X164700000Y-92850000D02*
X164700000Y-93350000D01*
X166500000Y-92850000D02*
X166700000Y-92850000D01*
X166500000Y-93350000D02*
X166500000Y-92850000D01*
X166600000Y-93350000D02*
X166600000Y-92850000D01*
X166700000Y-92850000D02*
X166700000Y-93350000D01*
X167100000Y-89850000D02*
X167100000Y-89240000D01*
X169050000Y-89850000D02*
X167100000Y-89850000D01*
X169050000Y-93350000D02*
X169050000Y-89850000D01*
X169660000Y-89240000D02*
X161540000Y-89240000D01*
X169660000Y-90550000D02*
X169050000Y-90550000D01*
X169660000Y-91850000D02*
X169050000Y-91850000D01*
X169660000Y-93960000D02*
X169660000Y-89240000D01*
D16*
%TO.C,U8*%
X155549000Y-111809300D02*
X155549000Y-113460300D01*
X155549000Y-113460300D02*
X156587860Y-113460300D01*
X157540360Y-111809300D02*
X156859640Y-111809300D01*
X157812140Y-113460300D02*
X158851000Y-113460300D01*
X158851000Y-113460300D02*
X158851000Y-111809300D01*
X160121000Y-111314000D02*
G75*
G02*
X159867000Y-111314000I-127000J0D01*
G01*
X159867000Y-111314000D02*
G75*
G02*
X160121000Y-111314000I127000J0D01*
G01*
D15*
%TO.C,C4*%
X118912466Y-70890002D02*
X119434970Y-70890002D01*
X118912466Y-72360002D02*
X119434970Y-72360002D01*
D16*
%TO.C,U4*%
X118694782Y-73521002D02*
X118694782Y-74127260D01*
X118694782Y-76572742D02*
X118694782Y-77179000D01*
X118694782Y-77179000D02*
X119300852Y-77179000D01*
X119300852Y-73521002D02*
X118694782Y-73521002D01*
X121746710Y-77179000D02*
X122352780Y-77179000D01*
X122352780Y-73521002D02*
X121746710Y-73521002D01*
X122352780Y-74127260D02*
X122352780Y-73521002D01*
X122352780Y-77179000D02*
X122352780Y-76572742D01*
D17*
G36*
X122931780Y-75790501D02*
G01*
X122677780Y-75790501D01*
X122677780Y-75409500D01*
X122931780Y-75409500D01*
X122931780Y-75790501D01*
G37*
D15*
%TO.C,servo8*%
X170240000Y-111340000D02*
X170240000Y-112590000D01*
X170540000Y-111640000D02*
X170540000Y-116360000D01*
X170540000Y-112950000D02*
X171150000Y-112950000D01*
X170540000Y-114250000D02*
X171150000Y-114250000D01*
X170540000Y-116360000D02*
X178660000Y-116360000D01*
X171150000Y-112250000D02*
X171150000Y-115750000D01*
X171150000Y-115750000D02*
X178050000Y-115750000D01*
X171490000Y-111340000D02*
X170240000Y-111340000D01*
X172000000Y-111440000D02*
X172000000Y-111640000D01*
X172300000Y-111440000D02*
X172000000Y-111440000D01*
X172300000Y-111540000D02*
X172000000Y-111540000D01*
X172300000Y-111640000D02*
X172300000Y-111440000D01*
X173100000Y-111640000D02*
X173100000Y-112250000D01*
X173100000Y-112250000D02*
X171150000Y-112250000D01*
X173500000Y-115250000D02*
X173700000Y-115250000D01*
X173500000Y-115750000D02*
X173500000Y-115250000D01*
X173600000Y-115750000D02*
X173600000Y-115250000D01*
X173700000Y-115250000D02*
X173700000Y-115750000D01*
X175500000Y-115250000D02*
X175700000Y-115250000D01*
X175500000Y-115750000D02*
X175500000Y-115250000D01*
X175600000Y-115750000D02*
X175600000Y-115250000D01*
X175700000Y-115250000D02*
X175700000Y-115750000D01*
X176100000Y-112250000D02*
X176100000Y-111640000D01*
X178050000Y-112250000D02*
X176100000Y-112250000D01*
X178050000Y-115750000D02*
X178050000Y-112250000D01*
X178660000Y-111640000D02*
X170540000Y-111640000D01*
X178660000Y-112950000D02*
X178050000Y-112950000D01*
X178660000Y-114250000D02*
X178050000Y-114250000D01*
X178660000Y-116360000D02*
X178660000Y-111640000D01*
%TO.C,C10*%
X140176248Y-112265000D02*
X140698752Y-112265000D01*
X140176248Y-113735000D02*
X140698752Y-113735000D01*
%TO.C,C22*%
X146465000Y-99101248D02*
X146465000Y-99623752D01*
X147935000Y-99101248D02*
X147935000Y-99623752D01*
%TO.C,C1*%
X108661252Y-85715000D02*
X108138748Y-85715000D01*
X108661252Y-87185000D02*
X108138748Y-87185000D01*
%TO.C,C9*%
X144015000Y-113011252D02*
X144015000Y-112488748D01*
X145485000Y-113011252D02*
X145485000Y-112488748D01*
%TO.C,servo6*%
X161240000Y-83290000D02*
X161240000Y-84540000D01*
X161540000Y-83590000D02*
X161540000Y-88310000D01*
X161540000Y-84900000D02*
X162150000Y-84900000D01*
X161540000Y-86200000D02*
X162150000Y-86200000D01*
X161540000Y-88310000D02*
X169660000Y-88310000D01*
X162150000Y-84200000D02*
X162150000Y-87700000D01*
X162150000Y-87700000D02*
X169050000Y-87700000D01*
X162490000Y-83290000D02*
X161240000Y-83290000D01*
X163000000Y-83390000D02*
X163000000Y-83590000D01*
X163300000Y-83390000D02*
X163000000Y-83390000D01*
X163300000Y-83490000D02*
X163000000Y-83490000D01*
X163300000Y-83590000D02*
X163300000Y-83390000D01*
X164100000Y-83590000D02*
X164100000Y-84200000D01*
X164100000Y-84200000D02*
X162150000Y-84200000D01*
X164500000Y-87200000D02*
X164700000Y-87200000D01*
X164500000Y-87700000D02*
X164500000Y-87200000D01*
X164600000Y-87700000D02*
X164600000Y-87200000D01*
X164700000Y-87200000D02*
X164700000Y-87700000D01*
X166500000Y-87200000D02*
X166700000Y-87200000D01*
X166500000Y-87700000D02*
X166500000Y-87200000D01*
X166600000Y-87700000D02*
X166600000Y-87200000D01*
X166700000Y-87200000D02*
X166700000Y-87700000D01*
X167100000Y-84200000D02*
X167100000Y-83590000D01*
X169050000Y-84200000D02*
X167100000Y-84200000D01*
X169050000Y-87700000D02*
X169050000Y-84200000D01*
X169660000Y-83590000D02*
X161540000Y-83590000D01*
X169660000Y-84900000D02*
X169050000Y-84900000D01*
X169660000Y-86200000D02*
X169050000Y-86200000D01*
X169660000Y-88310000D02*
X169660000Y-83590000D01*
%TO.C,servo7*%
X170240000Y-105690000D02*
X170240000Y-106940000D01*
X170540000Y-105990000D02*
X170540000Y-110710000D01*
X170540000Y-107300000D02*
X171150000Y-107300000D01*
X170540000Y-108600000D02*
X171150000Y-108600000D01*
X170540000Y-110710000D02*
X178660000Y-110710000D01*
X171150000Y-106600000D02*
X171150000Y-110100000D01*
X171150000Y-110100000D02*
X178050000Y-110100000D01*
X171490000Y-105690000D02*
X170240000Y-105690000D01*
X172000000Y-105790000D02*
X172000000Y-105990000D01*
X172300000Y-105790000D02*
X172000000Y-105790000D01*
X172300000Y-105890000D02*
X172000000Y-105890000D01*
X172300000Y-105990000D02*
X172300000Y-105790000D01*
X173100000Y-105990000D02*
X173100000Y-106600000D01*
X173100000Y-106600000D02*
X171150000Y-106600000D01*
X173500000Y-109600000D02*
X173700000Y-109600000D01*
X173500000Y-110100000D02*
X173500000Y-109600000D01*
X173600000Y-110100000D02*
X173600000Y-109600000D01*
X173700000Y-109600000D02*
X173700000Y-110100000D01*
X175500000Y-109600000D02*
X175700000Y-109600000D01*
X175500000Y-110100000D02*
X175500000Y-109600000D01*
X175600000Y-110100000D02*
X175600000Y-109600000D01*
X175700000Y-109600000D02*
X175700000Y-110100000D01*
X176100000Y-106600000D02*
X176100000Y-105990000D01*
X178050000Y-106600000D02*
X176100000Y-106600000D01*
X178050000Y-110100000D02*
X178050000Y-106600000D01*
X178660000Y-105990000D02*
X170540000Y-105990000D01*
X178660000Y-107300000D02*
X178050000Y-107300000D01*
X178660000Y-108600000D02*
X178050000Y-108600000D01*
X178660000Y-110710000D02*
X178660000Y-105990000D01*
%TO.C,3V*%
X135040000Y-82500000D02*
X135040000Y-85360000D01*
X135040000Y-85360000D02*
X136960000Y-85360000D01*
X136960000Y-85360000D02*
X136960000Y-82500000D01*
%TO.C,GND*%
X140170000Y-72340000D02*
X141500000Y-72340000D01*
X140170000Y-73670000D02*
X140170000Y-72340000D01*
%TD*%
%LPC*%
D17*
%TO.C,U3*%
G36*
X137313443Y-118240953D02*
G01*
X136323556Y-118240953D01*
X136323556Y-117821046D01*
X137313443Y-117821046D01*
X137313443Y-118240953D01*
G37*
G36*
X137313443Y-118740955D02*
G01*
X136323556Y-118740955D01*
X136323556Y-118321047D01*
X137313443Y-118321047D01*
X137313443Y-118740955D01*
G37*
G36*
X137313443Y-119240954D02*
G01*
X136323556Y-119240954D01*
X136323556Y-118821046D01*
X137313443Y-118821046D01*
X137313443Y-119240954D01*
G37*
G36*
X137313443Y-119740953D02*
G01*
X136323556Y-119740953D01*
X136323556Y-119321045D01*
X137313443Y-119321045D01*
X137313443Y-119740953D01*
G37*
G36*
X137313443Y-120240954D02*
G01*
X136323556Y-120240954D01*
X136323556Y-119821047D01*
X137313443Y-119821047D01*
X137313443Y-120240954D01*
G37*
G36*
X137993799Y-120119500D02*
G01*
X137498999Y-120119500D01*
X137498999Y-117942500D01*
X137993799Y-117942500D01*
X137993799Y-120119500D01*
G37*
G36*
X139675999Y-118437300D02*
G01*
X137498999Y-118437300D01*
X137498999Y-117942500D01*
X139675999Y-117942500D01*
X139675999Y-118437300D01*
G37*
G36*
X139675999Y-119224700D02*
G01*
X137498999Y-119224700D01*
X137498999Y-118837300D01*
X139675999Y-118837300D01*
X139675999Y-119224700D01*
G37*
G36*
X139675999Y-120119500D02*
G01*
X137498999Y-120119500D01*
X137498999Y-119624700D01*
X139675999Y-119624700D01*
X139675999Y-120119500D01*
G37*
G36*
X138047452Y-117794942D02*
G01*
X137627544Y-117794942D01*
X137627544Y-116805058D01*
X138047452Y-116805058D01*
X138047452Y-117794942D01*
G37*
G36*
X138047452Y-121256942D02*
G01*
X137627544Y-121256942D01*
X137627544Y-120267058D01*
X138047452Y-120267058D01*
X138047452Y-121256942D01*
G37*
G36*
X138781199Y-120119500D02*
G01*
X138393799Y-120119500D01*
X138393799Y-117942500D01*
X138781199Y-117942500D01*
X138781199Y-120119500D01*
G37*
G36*
X139547454Y-117794942D02*
G01*
X139127546Y-117794942D01*
X139127546Y-116805058D01*
X139547454Y-116805058D01*
X139547454Y-117794942D01*
G37*
G36*
X139547454Y-121256942D02*
G01*
X139127546Y-121256942D01*
X139127546Y-120267058D01*
X139547454Y-120267058D01*
X139547454Y-121256942D01*
G37*
G36*
X139675999Y-120119500D02*
G01*
X139181199Y-120119500D01*
X139181199Y-117942500D01*
X139675999Y-117942500D01*
X139675999Y-120119500D01*
G37*
G36*
X140851442Y-118240953D02*
G01*
X139861555Y-118240953D01*
X139861555Y-117821046D01*
X140851442Y-117821046D01*
X140851442Y-118240953D01*
G37*
G36*
X140851442Y-118740955D02*
G01*
X139861555Y-118740955D01*
X139861555Y-118321047D01*
X140851442Y-118321047D01*
X140851442Y-118740955D01*
G37*
G36*
X140851442Y-119240954D02*
G01*
X139861555Y-119240954D01*
X139861555Y-118821046D01*
X140851442Y-118821046D01*
X140851442Y-119240954D01*
G37*
G36*
X140851442Y-119740953D02*
G01*
X139861555Y-119740953D01*
X139861555Y-119321045D01*
X140851442Y-119321045D01*
X140851442Y-119740953D01*
G37*
G36*
X140851442Y-120240954D02*
G01*
X139861555Y-120240954D01*
X139861555Y-119821047D01*
X140851442Y-119821047D01*
X140851442Y-120240954D01*
G37*
%TO.C,U7*%
G36*
X149894942Y-96834952D02*
G01*
X148905058Y-96834952D01*
X148905058Y-96415044D01*
X149894942Y-96415044D01*
X149894942Y-96834952D01*
G37*
G36*
X149894942Y-98334954D02*
G01*
X148905058Y-98334954D01*
X148905058Y-97915046D01*
X149894942Y-97915046D01*
X149894942Y-98334954D01*
G37*
G36*
X150340953Y-96100943D02*
G01*
X149921046Y-96100943D01*
X149921046Y-95111056D01*
X150340953Y-95111056D01*
X150340953Y-96100943D01*
G37*
G36*
X150340953Y-99638942D02*
G01*
X149921046Y-99638942D01*
X149921046Y-98649055D01*
X150340953Y-98649055D01*
X150340953Y-99638942D01*
G37*
G36*
X152219500Y-96781299D02*
G01*
X150042500Y-96781299D01*
X150042500Y-96286499D01*
X152219500Y-96286499D01*
X152219500Y-96781299D01*
G37*
G36*
X152219500Y-97568699D02*
G01*
X150042500Y-97568699D01*
X150042500Y-97181299D01*
X152219500Y-97181299D01*
X152219500Y-97568699D01*
G37*
G36*
X150537300Y-98463499D02*
G01*
X150042500Y-98463499D01*
X150042500Y-96286499D01*
X150537300Y-96286499D01*
X150537300Y-98463499D01*
G37*
G36*
X152219500Y-98463499D02*
G01*
X150042500Y-98463499D01*
X150042500Y-97968699D01*
X152219500Y-97968699D01*
X152219500Y-98463499D01*
G37*
G36*
X150840955Y-96100943D02*
G01*
X150421047Y-96100943D01*
X150421047Y-95111056D01*
X150840955Y-95111056D01*
X150840955Y-96100943D01*
G37*
G36*
X150840955Y-99638942D02*
G01*
X150421047Y-99638942D01*
X150421047Y-98649055D01*
X150840955Y-98649055D01*
X150840955Y-99638942D01*
G37*
G36*
X151340954Y-96100943D02*
G01*
X150921046Y-96100943D01*
X150921046Y-95111056D01*
X151340954Y-95111056D01*
X151340954Y-96100943D01*
G37*
G36*
X151340954Y-99638942D02*
G01*
X150921046Y-99638942D01*
X150921046Y-98649055D01*
X151340954Y-98649055D01*
X151340954Y-99638942D01*
G37*
G36*
X151324700Y-98463499D02*
G01*
X150937300Y-98463499D01*
X150937300Y-96286499D01*
X151324700Y-96286499D01*
X151324700Y-98463499D01*
G37*
G36*
X151840953Y-96100943D02*
G01*
X151421045Y-96100943D01*
X151421045Y-95111056D01*
X151840953Y-95111056D01*
X151840953Y-96100943D01*
G37*
G36*
X151840953Y-99638942D02*
G01*
X151421045Y-99638942D01*
X151421045Y-98649055D01*
X151840953Y-98649055D01*
X151840953Y-99638942D01*
G37*
G36*
X152219500Y-98463499D02*
G01*
X151724700Y-98463499D01*
X151724700Y-96286499D01*
X152219500Y-96286499D01*
X152219500Y-98463499D01*
G37*
G36*
X152340954Y-96100943D02*
G01*
X151921047Y-96100943D01*
X151921047Y-95111056D01*
X152340954Y-95111056D01*
X152340954Y-96100943D01*
G37*
G36*
X152340954Y-99638942D02*
G01*
X151921047Y-99638942D01*
X151921047Y-98649055D01*
X152340954Y-98649055D01*
X152340954Y-99638942D01*
G37*
G36*
X153356942Y-96834952D02*
G01*
X152367058Y-96834952D01*
X152367058Y-96415044D01*
X153356942Y-96415044D01*
X153356942Y-96834952D01*
G37*
G36*
X153356942Y-98334954D02*
G01*
X152367058Y-98334954D01*
X152367058Y-97915046D01*
X153356942Y-97915046D01*
X153356942Y-98334954D01*
G37*
%TO.C,U4*%
G36*
X119543377Y-74809598D02*
G01*
X118554186Y-74809598D01*
X118554186Y-74390404D01*
X119543377Y-74390404D01*
X119543377Y-74809598D01*
G37*
G36*
X119543377Y-75309597D02*
G01*
X118554186Y-75309597D01*
X118554186Y-74890406D01*
X119543377Y-74890406D01*
X119543377Y-75309597D01*
G37*
G36*
X119543377Y-75809596D02*
G01*
X118554186Y-75809596D01*
X118554186Y-75390405D01*
X119543377Y-75390405D01*
X119543377Y-75809596D01*
G37*
G36*
X119543377Y-76309598D02*
G01*
X118554186Y-76309598D01*
X118554186Y-75890404D01*
X119543377Y-75890404D01*
X119543377Y-76309598D01*
G37*
G36*
X119983188Y-74369597D02*
G01*
X119563996Y-74369597D01*
X119563996Y-73380406D01*
X119983188Y-73380406D01*
X119983188Y-74369597D01*
G37*
G36*
X119983188Y-77319596D02*
G01*
X119563996Y-77319596D01*
X119563996Y-76330405D01*
X119983188Y-76330405D01*
X119983188Y-77319596D01*
G37*
G36*
X119930081Y-76263501D02*
G01*
X119610281Y-76263501D01*
X119610281Y-74436501D01*
X119930081Y-74436501D01*
X119930081Y-76263501D01*
G37*
G36*
X121437281Y-74756301D02*
G01*
X119610281Y-74756301D01*
X119610281Y-74436501D01*
X121437281Y-74436501D01*
X121437281Y-74756301D01*
G37*
G36*
X121437281Y-75543701D02*
G01*
X119610281Y-75543701D01*
X119610281Y-75156301D01*
X121437281Y-75156301D01*
X121437281Y-75543701D01*
G37*
G36*
X121437281Y-76263501D02*
G01*
X119610281Y-76263501D01*
X119610281Y-75943701D01*
X121437281Y-75943701D01*
X121437281Y-76263501D01*
G37*
G36*
X120483314Y-74369597D02*
G01*
X120064122Y-74369597D01*
X120064122Y-73380406D01*
X120483314Y-73380406D01*
X120483314Y-74369597D01*
G37*
G36*
X120483314Y-77319596D02*
G01*
X120064122Y-77319596D01*
X120064122Y-76330405D01*
X120483314Y-76330405D01*
X120483314Y-77319596D01*
G37*
G36*
X120983440Y-74369597D02*
G01*
X120564248Y-74369597D01*
X120564248Y-73380406D01*
X120983440Y-73380406D01*
X120983440Y-74369597D01*
G37*
G36*
X120983440Y-77319596D02*
G01*
X120564248Y-77319596D01*
X120564248Y-76330405D01*
X120983440Y-76330405D01*
X120983440Y-77319596D01*
G37*
G36*
X120717481Y-76263501D02*
G01*
X120330081Y-76263501D01*
X120330081Y-74436501D01*
X120717481Y-74436501D01*
X120717481Y-76263501D01*
G37*
G36*
X121483566Y-74369597D02*
G01*
X121064374Y-74369597D01*
X121064374Y-73380406D01*
X121483566Y-73380406D01*
X121483566Y-74369597D01*
G37*
G36*
X121483566Y-77319596D02*
G01*
X121064374Y-77319596D01*
X121064374Y-76330405D01*
X121483566Y-76330405D01*
X121483566Y-77319596D01*
G37*
G36*
X121437281Y-76263501D02*
G01*
X121117481Y-76263501D01*
X121117481Y-74436501D01*
X121437281Y-74436501D01*
X121437281Y-76263501D01*
G37*
G36*
X122493376Y-74809598D02*
G01*
X121504185Y-74809598D01*
X121504185Y-74390404D01*
X122493376Y-74390404D01*
X122493376Y-74809598D01*
G37*
G36*
X122493376Y-75309597D02*
G01*
X121504185Y-75309597D01*
X121504185Y-74890406D01*
X122493376Y-74890406D01*
X122493376Y-75309597D01*
G37*
G36*
X122493376Y-75809596D02*
G01*
X121504185Y-75809596D01*
X121504185Y-75390405D01*
X122493376Y-75390405D01*
X122493376Y-75809596D01*
G37*
G36*
X122493376Y-76309598D02*
G01*
X121504185Y-76309598D01*
X121504185Y-75890404D01*
X122493376Y-75890404D01*
X122493376Y-76309598D01*
G37*
%TD*%
D19*
%TO.C,U1*%
X107490000Y-105620000D03*
X110030000Y-105620000D03*
X112570000Y-105620000D03*
X115110000Y-105620000D03*
X117650000Y-105620000D03*
X120190000Y-105620000D03*
X122730000Y-105620000D03*
X125270000Y-105620000D03*
X127810000Y-105620000D03*
X130350000Y-105620000D03*
X132890000Y-105620000D03*
X135430000Y-105620000D03*
X137970000Y-105620000D03*
X140510000Y-105620000D03*
X140510000Y-103080000D03*
X140510000Y-100540000D03*
X140510000Y-98000000D03*
X140510000Y-95460000D03*
X140510000Y-92920000D03*
X140510000Y-90380000D03*
X137970000Y-90380000D03*
X135430000Y-90380000D03*
X132890000Y-90380000D03*
X130350000Y-90380000D03*
X127810000Y-90380000D03*
X125270000Y-90380000D03*
X122730000Y-90380000D03*
X120190000Y-90380000D03*
X117650000Y-90380000D03*
X115110000Y-90380000D03*
X112570000Y-90380000D03*
X110030000Y-90380000D03*
X107490000Y-90380000D03*
X135430000Y-92920000D03*
X132890000Y-92920000D03*
X135430000Y-95460000D03*
X132890000Y-95460000D03*
X135430000Y-98000000D03*
X132890000Y-98000000D03*
X135430000Y-100540000D03*
X132890000Y-100540000D03*
X135430000Y-103080000D03*
X132890000Y-103080000D03*
%TD*%
D20*
%TO.C,IC2*%
X143350000Y-120550000D03*
X142850000Y-120550000D03*
X142350000Y-120550000D03*
X141850000Y-120550000D03*
X141850000Y-123700000D03*
X142350000Y-123700000D03*
X142850000Y-123700000D03*
X143350000Y-123700000D03*
%TD*%
D21*
%TO.C,servo1*%
X172600000Y-102250000D03*
D22*
X174600000Y-102250000D03*
X176600000Y-102250000D03*
%TD*%
D23*
%TO.C,BZ1*%
X148000000Y-120000000D03*
D24*
X155600000Y-120000000D03*
%TD*%
D25*
%TO.C,H2*%
X175000000Y-74000000D03*
%TD*%
D26*
%TO.C,C24*%
X145000000Y-96400000D03*
X145000000Y-94325000D03*
%TD*%
D27*
%TO.C,J1*%
X137790000Y-74250000D03*
D28*
X135250000Y-74250000D03*
X132710000Y-74250000D03*
X130170000Y-74250000D03*
%TD*%
D29*
%TO.C,C23*%
X147200000Y-94325000D03*
X147200000Y-96400000D03*
%TD*%
D30*
%TO.C,R11*%
X147200000Y-86450000D03*
X145200000Y-86450000D03*
%TD*%
D25*
%TO.C,H1*%
X109000000Y-74000000D03*
%TD*%
D31*
%TO.C,5V*%
X138250000Y-84525000D03*
X138250000Y-82475000D03*
%TD*%
D32*
%TO.C,R1*%
X114373718Y-77225002D03*
X116373718Y-77225002D03*
%TD*%
D30*
%TO.C,R2*%
X156800000Y-99925000D03*
X154800000Y-99925000D03*
%TD*%
D33*
%TO.C,C17*%
X139400000Y-115250000D03*
X141475000Y-115250000D03*
%TD*%
D21*
%TO.C,servo13*%
X172600000Y-96650000D03*
D22*
X174600000Y-96650000D03*
X176600000Y-96650000D03*
%TD*%
D34*
%TO.C,C2*%
X109437500Y-84200000D03*
X107362500Y-84200000D03*
%TD*%
D35*
%TO.C,U6*%
X149700000Y-102425000D03*
X149700000Y-102825000D03*
X149700000Y-103225000D03*
X149700000Y-103625000D03*
X149700000Y-104025000D03*
X149700000Y-104425000D03*
D36*
X150200000Y-104925000D03*
X150600000Y-104925000D03*
X151000000Y-104925000D03*
X151400000Y-104925000D03*
X151800000Y-104925000D03*
X152200000Y-104925000D03*
D35*
X152700000Y-104425000D03*
X152700000Y-104025000D03*
X152700000Y-103625000D03*
X152700000Y-103225000D03*
X152700000Y-102825000D03*
X152700000Y-102425000D03*
D36*
X152200000Y-101925000D03*
X151800000Y-101925000D03*
X151400000Y-101925000D03*
X151000000Y-101925000D03*
X150600000Y-101925000D03*
X150200000Y-101925000D03*
%TD*%
D30*
%TO.C,R13*%
X147200000Y-84200000D03*
X145200000Y-84200000D03*
%TD*%
D33*
%TO.C,C21*%
X135600000Y-115250000D03*
X137675000Y-115250000D03*
%TD*%
D26*
%TO.C,C18*%
X154610000Y-104137500D03*
X154610000Y-102062500D03*
%TD*%
%TO.C,C14*%
X111600000Y-86437500D03*
X111600000Y-84362500D03*
%TD*%
D37*
%TO.C,C13*%
X152000000Y-81000000D03*
X152000000Y-73000000D03*
%TD*%
D26*
%TO.C,C16*%
X145025000Y-100387500D03*
X145025000Y-98312500D03*
%TD*%
D38*
%TO.C,U3*%
X137837498Y-117300000D03*
D39*
X136818498Y-118030999D03*
X136818498Y-118531001D03*
X136818498Y-119031000D03*
X136818498Y-119530999D03*
X136818498Y-120031001D03*
D38*
X137837498Y-120762000D03*
X139337500Y-120762000D03*
D39*
X140356500Y-120031001D03*
X140356500Y-119530999D03*
X140356500Y-119031000D03*
X140356500Y-118531001D03*
X140356500Y-118030999D03*
D38*
X139337500Y-117300000D03*
%TD*%
D30*
%TO.C,R3*%
X147200000Y-88700000D03*
X145200000Y-88700000D03*
%TD*%
D21*
%TO.C,servo11*%
X172600000Y-85400000D03*
D22*
X174600000Y-85400000D03*
X176600000Y-85400000D03*
%TD*%
D40*
%TO.C,R9*%
X133112500Y-115050000D03*
X133112500Y-113050000D03*
%TD*%
D26*
%TO.C,C3*%
X107800000Y-114287500D03*
X107800000Y-112212500D03*
%TD*%
D31*
%TO.C,VCC*%
X140500000Y-84525000D03*
X140500000Y-82475000D03*
%TD*%
D21*
%TO.C,servo5*%
X163600000Y-107800000D03*
D22*
X165600000Y-107800000D03*
X167600000Y-107800000D03*
%TD*%
D21*
%TO.C,servo4*%
X163600000Y-119250000D03*
D22*
X165600000Y-119250000D03*
X167600000Y-119250000D03*
%TD*%
D27*
%TO.C,5V*%
X144250000Y-73630000D03*
D28*
X144250000Y-76170000D03*
X144250000Y-78710000D03*
%TD*%
D26*
%TO.C,C7*%
X152010000Y-108737500D03*
X152010000Y-106662500D03*
%TD*%
D21*
%TO.C,servo2*%
X163600000Y-113450000D03*
D22*
X165600000Y-113450000D03*
X167600000Y-113450000D03*
%TD*%
D26*
%TO.C,C11*%
X151600000Y-87387500D03*
X151600000Y-85312500D03*
%TD*%
D30*
%TO.C,R7*%
X119500000Y-87500000D03*
X117500000Y-87500000D03*
%TD*%
D41*
%TO.C,U2*%
X115500000Y-124800000D03*
X117500000Y-124800000D03*
X119500000Y-124800000D03*
X121500000Y-124800000D03*
X123500000Y-124800000D03*
X125500000Y-124800000D03*
X127500000Y-124800000D03*
X129500000Y-124800000D03*
X129500000Y-108800000D03*
X127500000Y-108800000D03*
X125500000Y-108800000D03*
X123500000Y-108800000D03*
X121500000Y-108800000D03*
X119500000Y-108800000D03*
X117500000Y-108800000D03*
X115500000Y-108800000D03*
%TD*%
D29*
%TO.C,C6*%
X124573718Y-72187502D03*
X124573718Y-74262502D03*
%TD*%
D33*
%TO.C,C20*%
X135600000Y-113000000D03*
X137675000Y-113000000D03*
%TD*%
D32*
%TO.C,R4*%
X151000000Y-112000000D03*
X153000000Y-112000000D03*
%TD*%
D27*
%TO.C,S4*%
X125800000Y-84300000D03*
D28*
X125800000Y-81760000D03*
%TD*%
D34*
%TO.C,C8*%
X158025000Y-83712500D03*
X155950000Y-83712500D03*
%TD*%
D39*
%TO.C,U7*%
X149400000Y-98125000D03*
D38*
X150130999Y-99144000D03*
X150631001Y-99144000D03*
X151131000Y-99144000D03*
X151630999Y-99144000D03*
X152131001Y-99144000D03*
D39*
X152862000Y-98125000D03*
X152862000Y-96624998D03*
D38*
X152131001Y-95605998D03*
X151630999Y-95605998D03*
X151131000Y-95605998D03*
X150631001Y-95605998D03*
X150130999Y-95605998D03*
D39*
X149400000Y-96624998D03*
%TD*%
D21*
%TO.C,servo10*%
X163600000Y-102250000D03*
D22*
X165600000Y-102250000D03*
X167600000Y-102250000D03*
%TD*%
D26*
%TO.C,C15*%
X110250000Y-114287500D03*
X110250000Y-112212500D03*
%TD*%
D42*
%TO.C,L1*%
X115673718Y-72972502D03*
X115673718Y-74877502D03*
%TD*%
D27*
%TO.C,S2*%
X131600000Y-84275000D03*
D28*
X131600000Y-81735000D03*
%TD*%
D25*
%TO.C,H4*%
X175000000Y-122000000D03*
%TD*%
D21*
%TO.C,servo3*%
X163600000Y-96650000D03*
D22*
X165600000Y-96650000D03*
X167600000Y-96650000D03*
%TD*%
D43*
%TO.C,R14*%
X154800000Y-95525000D03*
X154800000Y-97525000D03*
%TD*%
D21*
%TO.C,servo9*%
X172600000Y-91000000D03*
D22*
X174600000Y-91000000D03*
X176600000Y-91000000D03*
%TD*%
D25*
%TO.C,H3*%
X109000000Y-122000000D03*
%TD*%
D44*
%TO.C,button*%
X119625000Y-84850000D03*
X114375000Y-84850000D03*
X119625000Y-81650000D03*
X114375000Y-81650000D03*
%TD*%
D26*
%TO.C,C19*%
X156810000Y-104137500D03*
X156810000Y-102062500D03*
%TD*%
D27*
%TO.C,J2*%
X137790000Y-77000000D03*
D28*
X135250000Y-77000000D03*
X132710000Y-77000000D03*
X130170000Y-77000000D03*
%TD*%
D27*
%TO.C,S3*%
X128700000Y-84300000D03*
D28*
X128700000Y-81760000D03*
%TD*%
D45*
%TO.C,U5*%
X158075000Y-87700000D03*
X158075000Y-86750000D03*
X158075000Y-85800000D03*
X155800000Y-85800000D03*
X155800000Y-87700000D03*
%TD*%
D33*
%TO.C,C5*%
X120236218Y-79125002D03*
X122311218Y-79125002D03*
%TD*%
D46*
%TO.C,Main Power*%
X166900000Y-81105750D03*
D47*
X161900000Y-81105750D03*
D48*
X169900000Y-71105750D03*
X158900000Y-71105750D03*
%TD*%
D31*
%TO.C,D3*%
X147250000Y-113775000D03*
X147250000Y-111725000D03*
%TD*%
D26*
%TO.C,C12*%
X153822500Y-87425000D03*
X153822500Y-85350000D03*
%TD*%
D21*
%TO.C,servo12*%
X163600000Y-91050000D03*
D22*
X165600000Y-91050000D03*
X167600000Y-91050000D03*
%TD*%
D49*
%TO.C,U8*%
X158152500Y-111669600D03*
X156247500Y-111669600D03*
X157200000Y-113600000D03*
%TD*%
D33*
%TO.C,C4*%
X118136218Y-71625002D03*
X120211218Y-71625002D03*
%TD*%
D39*
%TO.C,U4*%
X119048780Y-74600000D03*
X119048780Y-75100001D03*
X119048780Y-75600001D03*
X119048780Y-76100002D03*
D38*
X119773592Y-76825002D03*
X120273718Y-76825002D03*
X120773844Y-76825002D03*
X121273970Y-76825002D03*
D39*
X121998782Y-76100002D03*
X121998782Y-75600001D03*
X121998782Y-75100001D03*
X121998782Y-74600000D03*
D38*
X121273970Y-73875000D03*
X120773844Y-73875000D03*
X120273718Y-73875000D03*
X119773592Y-73875000D03*
%TD*%
D21*
%TO.C,servo8*%
X172600000Y-113450000D03*
D22*
X174600000Y-113450000D03*
X176600000Y-113450000D03*
%TD*%
D33*
%TO.C,C10*%
X139400000Y-113000000D03*
X141475000Y-113000000D03*
%TD*%
D29*
%TO.C,C22*%
X147200000Y-98325000D03*
X147200000Y-100400000D03*
%TD*%
D34*
%TO.C,C1*%
X109437500Y-86450000D03*
X107362500Y-86450000D03*
%TD*%
D26*
%TO.C,C9*%
X144750000Y-113787500D03*
X144750000Y-111712500D03*
%TD*%
D21*
%TO.C,servo6*%
X163600000Y-85400000D03*
D22*
X165600000Y-85400000D03*
X167600000Y-85400000D03*
%TD*%
D21*
%TO.C,servo7*%
X172600000Y-107800000D03*
D22*
X174600000Y-107800000D03*
X176600000Y-107800000D03*
%TD*%
D31*
%TO.C,3V*%
X136000000Y-84525000D03*
X136000000Y-82475000D03*
%TD*%
D27*
%TO.C,GND*%
X141500000Y-73670000D03*
D28*
X141500000Y-76210000D03*
X141500000Y-78750000D03*
%TD*%
%LPD*%
M02*
