%TF.GenerationSoftware,KiCad,Pcbnew,8.0.8*%
%TF.CreationDate,2025-01-26T21:38:22+07:00*%
%TF.ProjectId,Teensy4.0,5465656e-7379-4342-9e30-2e6b69636164,rev?*%
%TF.SameCoordinates,Original*%
%TF.FileFunction,Legend,Bot*%
%TF.FilePolarity,Positive*%
%FSLAX46Y46*%
G04 Gerber Fmt 4.6, Leading zero omitted, Abs format (unit mm)*
G04 Created by KiCad (PCBNEW 8.0.8) date 2025-01-26 21:38:22*
%MOMM*%
%LPD*%
G01*
G04 APERTURE LIST*
G04 Aperture macros list*
%AMRoundRect*
0 Rectangle with rounded corners*
0 $1 Rounding radius*
0 $2 $3 $4 $5 $6 $7 $8 $9 X,Y pos of 4 corners*
0 Add a 4 corners polygon primitive as box body*
4,1,4,$2,$3,$4,$5,$6,$7,$8,$9,$2,$3,0*
0 Add four circle primitives for the rounded corners*
1,1,$1+$1,$2,$3*
1,1,$1+$1,$4,$5*
1,1,$1+$1,$6,$7*
1,1,$1+$1,$8,$9*
0 Add four rect primitives between the rounded corners*
20,1,$1+$1,$2,$3,$4,$5,0*
20,1,$1+$1,$4,$5,$6,$7,0*
20,1,$1+$1,$6,$7,$8,$9,0*
20,1,$1+$1,$8,$9,$2,$3,0*%
G04 Aperture macros list end*
%ADD10C,1.600000*%
%ADD11RoundRect,0.250000X-0.350000X-0.625000X0.350000X-0.625000X0.350000X0.625000X-0.350000X0.625000X0*%
%ADD12O,1.200000X1.750000*%
%ADD13R,2.000000X2.000000*%
%ADD14C,2.000000*%
%ADD15C,3.200000*%
%ADD16R,1.700000X1.700000*%
%ADD17O,1.700000X1.700000*%
%ADD18C,2.754000*%
%ADD19RoundRect,0.102000X-1.275000X-1.275000X1.275000X-1.275000X1.275000X1.275000X-1.275000X1.275000X0*%
%ADD20C,1.712000*%
G04 APERTURE END LIST*
%LPC*%
D10*
%TO.C,U1*%
X107490000Y-105620000D03*
X110030000Y-105620000D03*
X112570000Y-105620000D03*
X115110000Y-105620000D03*
X117650000Y-105620000D03*
X120190000Y-105620000D03*
X122730000Y-105620000D03*
X125270000Y-105620000D03*
X127810000Y-105620000D03*
X130350000Y-105620000D03*
X132890000Y-105620000D03*
X135430000Y-105620000D03*
X137970000Y-105620000D03*
X140510000Y-105620000D03*
X140510000Y-103080000D03*
X140510000Y-100540000D03*
X140510000Y-98000000D03*
X140510000Y-95460000D03*
X140510000Y-92920000D03*
X140510000Y-90380000D03*
X137970000Y-90380000D03*
X135430000Y-90380000D03*
X132890000Y-90380000D03*
X130350000Y-90380000D03*
X127810000Y-90380000D03*
X125270000Y-90380000D03*
X122730000Y-90380000D03*
X120190000Y-90380000D03*
X117650000Y-90380000D03*
X115110000Y-90380000D03*
X112570000Y-90380000D03*
X110030000Y-90380000D03*
X107490000Y-90380000D03*
X135430000Y-92920000D03*
X132890000Y-92920000D03*
X135430000Y-95460000D03*
X132890000Y-95460000D03*
X135430000Y-98000000D03*
X132890000Y-98000000D03*
X135430000Y-100540000D03*
X132890000Y-100540000D03*
X135430000Y-103080000D03*
X132890000Y-103080000D03*
%TD*%
D11*
%TO.C,servo1*%
X172600000Y-102250000D03*
D12*
X174600000Y-102250000D03*
X176600000Y-102250000D03*
%TD*%
D13*
%TO.C,BZ1*%
X148000000Y-120000000D03*
D14*
X155600000Y-120000000D03*
%TD*%
D15*
%TO.C,H2*%
X175000000Y-74000000D03*
%TD*%
D16*
%TO.C,J1*%
X137790000Y-74250000D03*
D17*
X135250000Y-74250000D03*
X132710000Y-74250000D03*
X130170000Y-74250000D03*
%TD*%
D15*
%TO.C,H1*%
X109000000Y-74000000D03*
%TD*%
D11*
%TO.C,servo13*%
X172600000Y-96650000D03*
D12*
X174600000Y-96650000D03*
X176600000Y-96650000D03*
%TD*%
D11*
%TO.C,servo11*%
X172600000Y-85400000D03*
D12*
X174600000Y-85400000D03*
X176600000Y-85400000D03*
%TD*%
D11*
%TO.C,servo5*%
X163600000Y-107800000D03*
D12*
X165600000Y-107800000D03*
X167600000Y-107800000D03*
%TD*%
D11*
%TO.C,servo4*%
X163600000Y-119250000D03*
D12*
X165600000Y-119250000D03*
X167600000Y-119250000D03*
%TD*%
D16*
%TO.C,5V*%
X144250000Y-73630000D03*
D17*
X144250000Y-76170000D03*
X144250000Y-78710000D03*
%TD*%
D11*
%TO.C,servo2*%
X163600000Y-113450000D03*
D12*
X165600000Y-113450000D03*
X167600000Y-113450000D03*
%TD*%
D16*
%TO.C,S4*%
X125800000Y-84300000D03*
D17*
X125800000Y-81760000D03*
%TD*%
D11*
%TO.C,servo10*%
X163600000Y-102250000D03*
D12*
X165600000Y-102250000D03*
X167600000Y-102250000D03*
%TD*%
D16*
%TO.C,S2*%
X131600000Y-84275000D03*
D17*
X131600000Y-81735000D03*
%TD*%
D15*
%TO.C,H4*%
X175000000Y-122000000D03*
%TD*%
D11*
%TO.C,servo3*%
X163600000Y-96650000D03*
D12*
X165600000Y-96650000D03*
X167600000Y-96650000D03*
%TD*%
D11*
%TO.C,servo9*%
X172600000Y-91000000D03*
D12*
X174600000Y-91000000D03*
X176600000Y-91000000D03*
%TD*%
D15*
%TO.C,H3*%
X109000000Y-122000000D03*
%TD*%
D16*
%TO.C,J2*%
X137790000Y-77000000D03*
D17*
X135250000Y-77000000D03*
X132710000Y-77000000D03*
X130170000Y-77000000D03*
%TD*%
D16*
%TO.C,S3*%
X128700000Y-84300000D03*
D17*
X128700000Y-81760000D03*
%TD*%
D18*
%TO.C,Main Power*%
X166900000Y-81105750D03*
D19*
X161900000Y-81105750D03*
D20*
X169900000Y-71105750D03*
X158900000Y-71105750D03*
%TD*%
D11*
%TO.C,servo12*%
X163600000Y-91050000D03*
D12*
X165600000Y-91050000D03*
X167600000Y-91050000D03*
%TD*%
D11*
%TO.C,servo8*%
X172600000Y-113450000D03*
D12*
X174600000Y-113450000D03*
X176600000Y-113450000D03*
%TD*%
D11*
%TO.C,servo6*%
X163600000Y-85400000D03*
D12*
X165600000Y-85400000D03*
X167600000Y-85400000D03*
%TD*%
D11*
%TO.C,servo7*%
X172600000Y-107800000D03*
D12*
X174600000Y-107800000D03*
X176600000Y-107800000D03*
%TD*%
D16*
%TO.C,GND*%
X141500000Y-73670000D03*
D17*
X141500000Y-76210000D03*
X141500000Y-78750000D03*
%TD*%
%LPD*%
M02*
