M48
; DRILL file {KiCad 8.0.8} date 2025-01-20T15:00:30+0700
; FORMAT={-:-/ absolute / inch / decimal}
; #@! TF.CreationDate,2025-01-20T15:00:30+07:00
; #@! TF.GenerationSoftware,Kicad,Pcbnew,8.0.8
; #@! TF.FileFunction,Plated,1,4,PTH
FMAT,2
INCH
; #@! TA.AperFunction,Plated,PTH,ViaDrill
T1C0.0118
; #@! TA.AperFunction,Plated,PTH,ComponentDrill
T2C0.0295
; #@! TA.AperFunction,Plated,PTH,ComponentDrill
T3C0.0394
; #@! TA.AperFunction,Plated,PTH,ComponentDrill
T4C0.0433
; #@! TA.AperFunction,Plated,PTH,ComponentDrill
T5C0.0669
%
G90
G05
T1
X4.1437Y-4.685
X4.1929Y-3.0709
X4.2402Y-3.7441
X4.25Y-4.23
X4.29Y-4.1
X4.29Y-4.55
X4.35Y-3.48
X4.3799Y-4.9409
X4.42Y-3.23
X4.4291Y-2.7953
X4.4478Y-3.0816
X4.5472Y-3.6969
X4.55Y-3.42
X4.5866Y-4.8937
X4.6024Y-2.8199
X4.6535Y-3.0984
X4.7391Y-3.1781
X4.7475Y-2.969
X4.7913Y-4.3307
X4.7953Y-4.0591
X4.7978Y-2.8378
X4.8061Y-3.1781
X4.8189Y-3.437
X4.84Y-2.86
X4.937Y-4.2362
X4.98Y-2.98
X5.0512Y-4.752
X5.0551Y-4.2598
X5.0748Y-4.0276
X5.13Y-4.44
X5.2638Y-4.315
X5.2913Y-4.4488
X5.3115Y-4.6555
X5.3115Y-4.7264
X5.3142Y-4.6922
X5.3386Y-4.7544
X5.374Y-4.8819
X5.39Y-4.3543
X5.4291Y-3.4449
X5.4409Y-3.7126
X5.4488Y-4.2913
X5.45Y-3.82
X5.45Y-3.935
X5.4562Y-4.6863
X5.4567Y-4.6142
X5.5079Y-4.3858
X5.6102Y-3.2874
X5.622Y-4.5354
X5.6457Y-3.7874
X5.6969Y-3.5866
X5.752Y-4.2008
X5.8071Y-3.0512
X5.8071Y-4.3898
X5.8583Y-3.7087
X5.8661Y-3.3071
X5.8661Y-3.4843
X5.9055Y-3.6693
X5.9055Y-3.7087
X5.9252Y-3.5827
X5.937Y-3.6614
X5.9519Y-3.8355
X5.9685Y-3.9449
X5.9803Y-4.685
X6.0315Y-4.1535
X6.0984Y-4.4134
X6.1378Y-2.7874
X6.1993Y-3.2286
X6.2205Y-3.9961
X6.252Y-3.5984
X6.2598Y-4.5748
X6.2598Y-4.8425
X6.2953Y-4.1457
X6.4724Y-2.8701
X6.5866Y-4.9252
X6.7618Y-2.7756
X6.8937Y-3.1811
X7.0177Y-3.061
X7.0276Y-4.6457
T2
X6.4409Y-3.3622
X6.4409Y-3.5846
X6.4409Y-3.8051
X6.4409Y-4.0256
X6.4409Y-4.2441
X6.4409Y-4.4665
X6.4409Y-4.6949
X6.5197Y-3.3622
X6.5197Y-3.5846
X6.5197Y-3.8051
X6.5197Y-4.0256
X6.5197Y-4.2441
X6.5197Y-4.4665
X6.5197Y-4.6949
X6.5984Y-3.3622
X6.5984Y-3.5846
X6.5984Y-3.8051
X6.5984Y-4.0256
X6.5984Y-4.2441
X6.5984Y-4.4665
X6.5984Y-4.6949
X6.7953Y-3.3622
X6.7953Y-3.5827
X6.7953Y-3.8051
X6.7953Y-4.0256
X6.7953Y-4.2441
X6.7953Y-4.4665
X6.874Y-3.3622
X6.874Y-3.5827
X6.874Y-3.8051
X6.874Y-4.0256
X6.874Y-4.2441
X6.874Y-4.4665
X6.9528Y-3.3622
X6.9528Y-3.5827
X6.9528Y-3.8051
X6.9528Y-4.0256
X6.9528Y-4.2441
X6.9528Y-4.4665
T3
X4.5516Y-4.4163
X4.5516Y-4.5163
X4.5516Y-4.6163
X4.5516Y-4.7163
X4.6516Y-4.4163
X4.6516Y-4.5163
X4.6516Y-4.6163
X4.6516Y-4.7163
X4.9528Y-3.2189
X4.9528Y-3.3189
X5.0669Y-3.2189
X5.0669Y-3.3189
X5.1248Y-2.9232
X5.1248Y-3.0315
X5.1811Y-3.2179
X5.1811Y-3.3179
X5.2248Y-2.9232
X5.2248Y-3.0315
X5.3248Y-2.9232
X5.3248Y-3.0315
X5.4248Y-2.9232
X5.4248Y-3.0315
X5.5709Y-2.9004
X5.5709Y-3.0004
X5.5709Y-3.1004
X5.6791Y-2.8988
X5.6791Y-2.9988
X5.6791Y-3.0988
X5.8268Y-4.7244
X6.126Y-4.7244
X6.2559Y-2.7994
X6.689Y-2.7994
T4
X4.2028Y-4.3307
X4.2028Y-4.5866
X4.2319Y-3.5583
X4.2319Y-4.1583
X4.3319Y-3.5583
X4.3319Y-3.6583
X4.3319Y-4.1583
X4.3799Y-4.3307
X4.3799Y-4.5866
X4.4319Y-3.5583
X4.4319Y-4.1583
X4.5319Y-3.5583
X4.5319Y-4.1583
X4.6319Y-3.5583
X4.6319Y-4.1583
X4.7319Y-3.5583
X4.7319Y-4.1583
X4.8319Y-3.5583
X4.8319Y-4.1583
X4.9319Y-3.5583
X4.9319Y-4.1583
X5.0319Y-3.5583
X5.0319Y-4.1583
X5.1319Y-3.5583
X5.1319Y-4.1583
X5.2319Y-3.5583
X5.2319Y-3.6583
X5.2319Y-3.7583
X5.2319Y-3.8583
X5.2319Y-3.9583
X5.2319Y-4.0583
X5.2319Y-4.1583
X5.3319Y-3.5583
X5.3319Y-3.6583
X5.3319Y-3.7583
X5.3319Y-3.8583
X5.3319Y-3.9583
X5.3319Y-4.0583
X5.3319Y-4.1583
X5.4319Y-3.5583
X5.4319Y-4.1583
X5.5319Y-3.5583
X5.5319Y-3.6583
X5.5319Y-3.7583
X5.5319Y-3.8583
X5.5319Y-3.9583
X5.5319Y-4.0583
X5.5319Y-4.1583
T5
X6.374Y-3.1931
X6.5709Y-3.1931
M30
