%TF.GenerationSoftware,KiCad,Pcbnew,8.0.8*%
%TF.CreationDate,2025-01-20T15:00:30+07:00*%
%TF.ProjectId,Teensy4.0,5465656e-7379-4342-9e30-2e6b69636164,rev?*%
%TF.SameCoordinates,Original*%
%TF.FileFunction,Drillmap*%
%TF.FilePolarity,Positive*%
%FSLAX45Y45*%
G04 Gerber Fmt 4.5, Leading zero omitted, Abs format (unit mm)*
G04 Created by KiCad (PCBNEW 8.0.8) date 2025-01-20 15:00:30*
%MOMM*%
%LPD*%
G01*
G04 APERTURE LIST*
%ADD10C,0.050000*%
%ADD11C,0.200000*%
%ADD12C,0.100000*%
%ADD13C,0.110000*%
%ADD14C,0.170000*%
G04 APERTURE END LIST*
D10*
X10900000Y-12700000D02*
X17500000Y-12700000D01*
X18000000Y-12200000D02*
X18000000Y-7400000D01*
X17500000Y-6900000D02*
G75*
G02*
X18000000Y-7400000I0J-500000D01*
G01*
X10900000Y-6900000D02*
X17500000Y-6900000D01*
X10900000Y-12700000D02*
G75*
G02*
X10400000Y-12200000I0J500000D01*
G01*
X18000000Y-12200000D02*
G75*
G02*
X17500000Y-12700000I-500000J0D01*
G01*
X10400000Y-7400000D02*
G75*
G02*
X10900000Y-6900000I500000J0D01*
G01*
X10400000Y-7400000D02*
X10400000Y-12200000D01*
D11*
D12*
X10510000Y-11885000D02*
X10540000Y-11915000D01*
X10540000Y-11885000D02*
X10510000Y-11915000D01*
X10635000Y-7785000D02*
X10665000Y-7815000D01*
X10665000Y-7785000D02*
X10635000Y-7815000D01*
X10755000Y-9495000D02*
X10785000Y-9525000D01*
X10785000Y-9495000D02*
X10755000Y-9525000D01*
X10780000Y-10729200D02*
X10810000Y-10759200D01*
X10810000Y-10729200D02*
X10780000Y-10759200D01*
X10881600Y-10399000D02*
X10911600Y-10429000D01*
X10911600Y-10399000D02*
X10881600Y-10429000D01*
X10881600Y-11542000D02*
X10911600Y-11572000D01*
X10911600Y-11542000D02*
X10881600Y-11572000D01*
X11034000Y-8824200D02*
X11064000Y-8854200D01*
X11064000Y-8824200D02*
X11034000Y-8854200D01*
X11110000Y-12535000D02*
X11140000Y-12565000D01*
X11140000Y-12535000D02*
X11110000Y-12565000D01*
X11211800Y-8189200D02*
X11241800Y-8219200D01*
X11241800Y-8189200D02*
X11211800Y-8219200D01*
X11235000Y-7085000D02*
X11265000Y-7115000D01*
X11265000Y-7085000D02*
X11235000Y-7115000D01*
X11282372Y-7812372D02*
X11312372Y-7842372D01*
X11312372Y-7812372D02*
X11282372Y-7842372D01*
X11535000Y-9375000D02*
X11565000Y-9405000D01*
X11565000Y-9375000D02*
X11535000Y-9405000D01*
X11542000Y-8671800D02*
X11572000Y-8701800D01*
X11572000Y-8671800D02*
X11542000Y-8701800D01*
X11635000Y-12415000D02*
X11665000Y-12445000D01*
X11665000Y-12415000D02*
X11635000Y-12445000D01*
X11675000Y-7147500D02*
X11705000Y-7177500D01*
X11705000Y-7147500D02*
X11675000Y-7177500D01*
X11805000Y-7855000D02*
X11835000Y-7885000D01*
X11835000Y-7855000D02*
X11805000Y-7885000D01*
X12022372Y-8057500D02*
X12052372Y-8087500D01*
X12052372Y-8057500D02*
X12022372Y-8087500D01*
X12043689Y-7526311D02*
X12073689Y-7556311D01*
X12073689Y-7526311D02*
X12043689Y-7556311D01*
X12155000Y-10985000D02*
X12185000Y-11015000D01*
X12185000Y-10985000D02*
X12155000Y-11015000D01*
X12165000Y-10295000D02*
X12195000Y-10325000D01*
X12195000Y-10295000D02*
X12165000Y-10325000D01*
X12171400Y-7193000D02*
X12201400Y-7223000D01*
X12201400Y-7193000D02*
X12171400Y-7223000D01*
X12192372Y-8057500D02*
X12222372Y-8087500D01*
X12222372Y-8057500D02*
X12192372Y-8087500D01*
X12225000Y-8715000D02*
X12255000Y-8745000D01*
X12255000Y-8715000D02*
X12225000Y-8745000D01*
X12278600Y-7249400D02*
X12308600Y-7279400D01*
X12308600Y-7249400D02*
X12278600Y-7279400D01*
X12525000Y-10745000D02*
X12555000Y-10775000D01*
X12555000Y-10745000D02*
X12525000Y-10775000D01*
X12634200Y-7554200D02*
X12664200Y-7584200D01*
X12664200Y-7554200D02*
X12634200Y-7584200D01*
X12815000Y-12055000D02*
X12845000Y-12085000D01*
X12845000Y-12055000D02*
X12815000Y-12085000D01*
X12825000Y-10805000D02*
X12855000Y-10835000D01*
X12855000Y-10805000D02*
X12825000Y-10835000D01*
X12875000Y-10215000D02*
X12905000Y-10245000D01*
X12905000Y-10215000D02*
X12875000Y-10245000D01*
X13015200Y-11262600D02*
X13045200Y-11292600D01*
X13045200Y-11262600D02*
X13015200Y-11292600D01*
X13355000Y-10945000D02*
X13385000Y-10975000D01*
X13385000Y-10945000D02*
X13355000Y-10975000D01*
X13425000Y-11285000D02*
X13455000Y-11315000D01*
X13455000Y-11285000D02*
X13425000Y-11315000D01*
X13476250Y-11810000D02*
X13506250Y-11840000D01*
X13506250Y-11810000D02*
X13476250Y-11840000D01*
X13476250Y-11990000D02*
X13506250Y-12020000D01*
X13506250Y-11990000D02*
X13476250Y-12020000D01*
X13483125Y-11903125D02*
X13513125Y-11933125D01*
X13513125Y-11903125D02*
X13483125Y-11933125D01*
X13545050Y-12061200D02*
X13575050Y-12091200D01*
X13575050Y-12061200D02*
X13545050Y-12091200D01*
X13635000Y-12385000D02*
X13665000Y-12415000D01*
X13665000Y-12385000D02*
X13635000Y-12415000D01*
X13675600Y-11045000D02*
X13705600Y-11075000D01*
X13705600Y-11045000D02*
X13675600Y-11075000D01*
X13775000Y-8735000D02*
X13805000Y-8765000D01*
X13805000Y-8735000D02*
X13775000Y-8765000D01*
X13805000Y-9415000D02*
X13835000Y-9445000D01*
X13835000Y-9415000D02*
X13805000Y-9445000D01*
X13825000Y-10885000D02*
X13855000Y-10915000D01*
X13855000Y-10885000D02*
X13825000Y-10915000D01*
X13828000Y-9687800D02*
X13858000Y-9717800D01*
X13858000Y-9687800D02*
X13828000Y-9717800D01*
X13828000Y-9979900D02*
X13858000Y-10009900D01*
X13858000Y-9979900D02*
X13828000Y-10009900D01*
X13843750Y-11888100D02*
X13873750Y-11918100D01*
X13873750Y-11888100D02*
X13843750Y-11918100D01*
X13845000Y-11705000D02*
X13875000Y-11735000D01*
X13875000Y-11705000D02*
X13845000Y-11735000D01*
X13975000Y-11125000D02*
X14005000Y-11155000D01*
X14005000Y-11125000D02*
X13975000Y-11155000D01*
X14235000Y-8335000D02*
X14265000Y-8365000D01*
X14265000Y-8335000D02*
X14235000Y-8365000D01*
X14265000Y-11505000D02*
X14295000Y-11535000D01*
X14295000Y-11505000D02*
X14265000Y-11535000D01*
X14325000Y-9605000D02*
X14355000Y-9635000D01*
X14355000Y-9605000D02*
X14325000Y-9635000D01*
X14455000Y-9095000D02*
X14485000Y-9125000D01*
X14485000Y-9095000D02*
X14455000Y-9125000D01*
X14595000Y-10655000D02*
X14625000Y-10685000D01*
X14625000Y-10655000D02*
X14595000Y-10685000D01*
X14735000Y-7735000D02*
X14765000Y-7765000D01*
X14765000Y-7735000D02*
X14735000Y-7765000D01*
X14735000Y-11135000D02*
X14765000Y-11165000D01*
X14765000Y-11135000D02*
X14735000Y-11165000D01*
X14865000Y-9405000D02*
X14895000Y-9435000D01*
X14895000Y-9405000D02*
X14865000Y-9435000D01*
X14885000Y-8385000D02*
X14915000Y-8415000D01*
X14915000Y-8385000D02*
X14885000Y-8415000D01*
X14885000Y-8835000D02*
X14915000Y-8865000D01*
X14915000Y-8835000D02*
X14885000Y-8865000D01*
X14985000Y-9305000D02*
X15015000Y-9335000D01*
X15015000Y-9305000D02*
X14985000Y-9335000D01*
X14985000Y-9405000D02*
X15015000Y-9435000D01*
X15015000Y-9405000D02*
X14985000Y-9435000D01*
X15035000Y-9085000D02*
X15065000Y-9115000D01*
X15065000Y-9085000D02*
X15035000Y-9115000D01*
X15065000Y-9285000D02*
X15095000Y-9315000D01*
X15095000Y-9285000D02*
X15065000Y-9315000D01*
X15102800Y-9727200D02*
X15132800Y-9757200D01*
X15132800Y-9727200D02*
X15102800Y-9757200D01*
X15145000Y-10005000D02*
X15175000Y-10035000D01*
X15175000Y-10005000D02*
X15145000Y-10035000D01*
X15175000Y-11885000D02*
X15205000Y-11915000D01*
X15205000Y-11885000D02*
X15175000Y-11915000D01*
X15305000Y-10535000D02*
X15335000Y-10565000D01*
X15335000Y-10535000D02*
X15305000Y-10565000D01*
X15475000Y-11195000D02*
X15505000Y-11225000D01*
X15505000Y-11195000D02*
X15475000Y-11225000D01*
X15575000Y-7065000D02*
X15605000Y-7095000D01*
X15605000Y-7065000D02*
X15575000Y-7095000D01*
X15731171Y-8185572D02*
X15761171Y-8215572D01*
X15761171Y-8185572D02*
X15731171Y-8215572D01*
X15785000Y-10135000D02*
X15815000Y-10165000D01*
X15815000Y-10135000D02*
X15785000Y-10165000D01*
X15865000Y-9125000D02*
X15895000Y-9155000D01*
X15895000Y-9125000D02*
X15865000Y-9155000D01*
X15885000Y-11605000D02*
X15915000Y-11635000D01*
X15915000Y-11605000D02*
X15885000Y-11635000D01*
X15885000Y-12285000D02*
X15915000Y-12315000D01*
X15915000Y-12285000D02*
X15885000Y-12315000D01*
X15975000Y-10515000D02*
X16005000Y-10545000D01*
X16005000Y-10515000D02*
X15975000Y-10545000D01*
X16425000Y-7275000D02*
X16455000Y-7305000D01*
X16455000Y-7275000D02*
X16425000Y-7305000D01*
X16715000Y-12495000D02*
X16745000Y-12525000D01*
X16745000Y-12495000D02*
X16715000Y-12525000D01*
X17160000Y-7035000D02*
X17190000Y-7065000D01*
X17190000Y-7035000D02*
X17160000Y-7065000D01*
X17495000Y-8065000D02*
X17525000Y-8095000D01*
X17525000Y-8065000D02*
X17495000Y-8095000D01*
X17810000Y-7760000D02*
X17840000Y-7790000D01*
X17840000Y-7760000D02*
X17810000Y-7790000D01*
X17835000Y-11785000D02*
X17865000Y-11815000D01*
X17865000Y-11785000D02*
X17835000Y-11815000D01*
X16397500Y-8540000D02*
G75*
G02*
X16322500Y-8540000I-37500J0D01*
G01*
X16322500Y-8540000D02*
G75*
G02*
X16397500Y-8540000I37500J0D01*
G01*
X16397500Y-9105000D02*
G75*
G02*
X16322500Y-9105000I-37500J0D01*
G01*
X16322500Y-9105000D02*
G75*
G02*
X16397500Y-9105000I37500J0D01*
G01*
X16397500Y-9665000D02*
G75*
G02*
X16322500Y-9665000I-37500J0D01*
G01*
X16322500Y-9665000D02*
G75*
G02*
X16397500Y-9665000I37500J0D01*
G01*
X16397500Y-10225000D02*
G75*
G02*
X16322500Y-10225000I-37500J0D01*
G01*
X16322500Y-10225000D02*
G75*
G02*
X16397500Y-10225000I37500J0D01*
G01*
X16397500Y-10780000D02*
G75*
G02*
X16322500Y-10780000I-37500J0D01*
G01*
X16322500Y-10780000D02*
G75*
G02*
X16397500Y-10780000I37500J0D01*
G01*
X16397500Y-11345000D02*
G75*
G02*
X16322500Y-11345000I-37500J0D01*
G01*
X16322500Y-11345000D02*
G75*
G02*
X16397500Y-11345000I37500J0D01*
G01*
X16397500Y-11925000D02*
G75*
G02*
X16322500Y-11925000I-37500J0D01*
G01*
X16322500Y-11925000D02*
G75*
G02*
X16397500Y-11925000I37500J0D01*
G01*
X16597500Y-8540000D02*
G75*
G02*
X16522500Y-8540000I-37500J0D01*
G01*
X16522500Y-8540000D02*
G75*
G02*
X16597500Y-8540000I37500J0D01*
G01*
X16597500Y-9105000D02*
G75*
G02*
X16522500Y-9105000I-37500J0D01*
G01*
X16522500Y-9105000D02*
G75*
G02*
X16597500Y-9105000I37500J0D01*
G01*
X16597500Y-9665000D02*
G75*
G02*
X16522500Y-9665000I-37500J0D01*
G01*
X16522500Y-9665000D02*
G75*
G02*
X16597500Y-9665000I37500J0D01*
G01*
X16597500Y-10225000D02*
G75*
G02*
X16522500Y-10225000I-37500J0D01*
G01*
X16522500Y-10225000D02*
G75*
G02*
X16597500Y-10225000I37500J0D01*
G01*
X16597500Y-10780000D02*
G75*
G02*
X16522500Y-10780000I-37500J0D01*
G01*
X16522500Y-10780000D02*
G75*
G02*
X16597500Y-10780000I37500J0D01*
G01*
X16597500Y-11345000D02*
G75*
G02*
X16522500Y-11345000I-37500J0D01*
G01*
X16522500Y-11345000D02*
G75*
G02*
X16597500Y-11345000I37500J0D01*
G01*
X16597500Y-11925000D02*
G75*
G02*
X16522500Y-11925000I-37500J0D01*
G01*
X16522500Y-11925000D02*
G75*
G02*
X16597500Y-11925000I37500J0D01*
G01*
X16797500Y-8540000D02*
G75*
G02*
X16722500Y-8540000I-37500J0D01*
G01*
X16722500Y-8540000D02*
G75*
G02*
X16797500Y-8540000I37500J0D01*
G01*
X16797500Y-9105000D02*
G75*
G02*
X16722500Y-9105000I-37500J0D01*
G01*
X16722500Y-9105000D02*
G75*
G02*
X16797500Y-9105000I37500J0D01*
G01*
X16797500Y-9665000D02*
G75*
G02*
X16722500Y-9665000I-37500J0D01*
G01*
X16722500Y-9665000D02*
G75*
G02*
X16797500Y-9665000I37500J0D01*
G01*
X16797500Y-10225000D02*
G75*
G02*
X16722500Y-10225000I-37500J0D01*
G01*
X16722500Y-10225000D02*
G75*
G02*
X16797500Y-10225000I37500J0D01*
G01*
X16797500Y-10780000D02*
G75*
G02*
X16722500Y-10780000I-37500J0D01*
G01*
X16722500Y-10780000D02*
G75*
G02*
X16797500Y-10780000I37500J0D01*
G01*
X16797500Y-11345000D02*
G75*
G02*
X16722500Y-11345000I-37500J0D01*
G01*
X16722500Y-11345000D02*
G75*
G02*
X16797500Y-11345000I37500J0D01*
G01*
X16797500Y-11925000D02*
G75*
G02*
X16722500Y-11925000I-37500J0D01*
G01*
X16722500Y-11925000D02*
G75*
G02*
X16797500Y-11925000I37500J0D01*
G01*
X17297500Y-8540000D02*
G75*
G02*
X17222500Y-8540000I-37500J0D01*
G01*
X17222500Y-8540000D02*
G75*
G02*
X17297500Y-8540000I37500J0D01*
G01*
X17297500Y-9100000D02*
G75*
G02*
X17222500Y-9100000I-37500J0D01*
G01*
X17222500Y-9100000D02*
G75*
G02*
X17297500Y-9100000I37500J0D01*
G01*
X17297500Y-9665000D02*
G75*
G02*
X17222500Y-9665000I-37500J0D01*
G01*
X17222500Y-9665000D02*
G75*
G02*
X17297500Y-9665000I37500J0D01*
G01*
X17297500Y-10225000D02*
G75*
G02*
X17222500Y-10225000I-37500J0D01*
G01*
X17222500Y-10225000D02*
G75*
G02*
X17297500Y-10225000I37500J0D01*
G01*
X17297500Y-10780000D02*
G75*
G02*
X17222500Y-10780000I-37500J0D01*
G01*
X17222500Y-10780000D02*
G75*
G02*
X17297500Y-10780000I37500J0D01*
G01*
X17297500Y-11345000D02*
G75*
G02*
X17222500Y-11345000I-37500J0D01*
G01*
X17222500Y-11345000D02*
G75*
G02*
X17297500Y-11345000I37500J0D01*
G01*
X17497500Y-8540000D02*
G75*
G02*
X17422500Y-8540000I-37500J0D01*
G01*
X17422500Y-8540000D02*
G75*
G02*
X17497500Y-8540000I37500J0D01*
G01*
X17497500Y-9100000D02*
G75*
G02*
X17422500Y-9100000I-37500J0D01*
G01*
X17422500Y-9100000D02*
G75*
G02*
X17497500Y-9100000I37500J0D01*
G01*
X17497500Y-9665000D02*
G75*
G02*
X17422500Y-9665000I-37500J0D01*
G01*
X17422500Y-9665000D02*
G75*
G02*
X17497500Y-9665000I37500J0D01*
G01*
X17497500Y-10225000D02*
G75*
G02*
X17422500Y-10225000I-37500J0D01*
G01*
X17422500Y-10225000D02*
G75*
G02*
X17497500Y-10225000I37500J0D01*
G01*
X17497500Y-10780000D02*
G75*
G02*
X17422500Y-10780000I-37500J0D01*
G01*
X17422500Y-10780000D02*
G75*
G02*
X17497500Y-10780000I37500J0D01*
G01*
X17497500Y-11345000D02*
G75*
G02*
X17422500Y-11345000I-37500J0D01*
G01*
X17422500Y-11345000D02*
G75*
G02*
X17497500Y-11345000I37500J0D01*
G01*
X17697500Y-8540000D02*
G75*
G02*
X17622500Y-8540000I-37500J0D01*
G01*
X17622500Y-8540000D02*
G75*
G02*
X17697500Y-8540000I37500J0D01*
G01*
X17697500Y-9100000D02*
G75*
G02*
X17622500Y-9100000I-37500J0D01*
G01*
X17622500Y-9100000D02*
G75*
G02*
X17697500Y-9100000I37500J0D01*
G01*
X17697500Y-9665000D02*
G75*
G02*
X17622500Y-9665000I-37500J0D01*
G01*
X17622500Y-9665000D02*
G75*
G02*
X17697500Y-9665000I37500J0D01*
G01*
X17697500Y-10225000D02*
G75*
G02*
X17622500Y-10225000I-37500J0D01*
G01*
X17622500Y-10225000D02*
G75*
G02*
X17697500Y-10225000I37500J0D01*
G01*
X17697500Y-10780000D02*
G75*
G02*
X17622500Y-10780000I-37500J0D01*
G01*
X17622500Y-10780000D02*
G75*
G02*
X17697500Y-10780000I37500J0D01*
G01*
X17697500Y-11345000D02*
G75*
G02*
X17622500Y-11345000I-37500J0D01*
G01*
X17622500Y-11345000D02*
G75*
G02*
X17697500Y-11345000I37500J0D01*
G01*
X11561050Y-11167500D02*
X11561050Y-11267500D01*
X11511050Y-11217500D02*
X11611050Y-11217500D01*
X11561050Y-11421500D02*
X11561050Y-11521500D01*
X11511050Y-11471500D02*
X11611050Y-11471500D01*
X11561050Y-11675500D02*
X11561050Y-11775500D01*
X11511050Y-11725500D02*
X11611050Y-11725500D01*
X11561050Y-11929500D02*
X11561050Y-12029500D01*
X11511050Y-11979500D02*
X11611050Y-11979500D01*
X11815050Y-11167500D02*
X11815050Y-11267500D01*
X11765050Y-11217500D02*
X11865050Y-11217500D01*
X11815050Y-11421500D02*
X11815050Y-11521500D01*
X11765050Y-11471500D02*
X11865050Y-11471500D01*
X11815050Y-11675500D02*
X11815050Y-11775500D01*
X11765050Y-11725500D02*
X11865050Y-11725500D01*
X11815050Y-11929500D02*
X11815050Y-12029500D01*
X11765050Y-11979500D02*
X11865050Y-11979500D01*
X12580000Y-8126000D02*
X12580000Y-8226000D01*
X12530000Y-8176000D02*
X12630000Y-8176000D01*
X12580000Y-8380000D02*
X12580000Y-8480000D01*
X12530000Y-8430000D02*
X12630000Y-8430000D01*
X12870000Y-8126000D02*
X12870000Y-8226000D01*
X12820000Y-8176000D02*
X12920000Y-8176000D01*
X12870000Y-8380000D02*
X12870000Y-8480000D01*
X12820000Y-8430000D02*
X12920000Y-8430000D01*
X13017000Y-7375000D02*
X13017000Y-7475000D01*
X12967000Y-7425000D02*
X13067000Y-7425000D01*
X13017000Y-7650000D02*
X13017000Y-7750000D01*
X12967000Y-7700000D02*
X13067000Y-7700000D01*
X13160000Y-8123500D02*
X13160000Y-8223500D01*
X13110000Y-8173500D02*
X13210000Y-8173500D01*
X13160000Y-8377500D02*
X13160000Y-8477500D01*
X13110000Y-8427500D02*
X13210000Y-8427500D01*
X13271000Y-7375000D02*
X13271000Y-7475000D01*
X13221000Y-7425000D02*
X13321000Y-7425000D01*
X13271000Y-7650000D02*
X13271000Y-7750000D01*
X13221000Y-7700000D02*
X13321000Y-7700000D01*
X13525000Y-7375000D02*
X13525000Y-7475000D01*
X13475000Y-7425000D02*
X13575000Y-7425000D01*
X13525000Y-7650000D02*
X13525000Y-7750000D01*
X13475000Y-7700000D02*
X13575000Y-7700000D01*
X13779000Y-7375000D02*
X13779000Y-7475000D01*
X13729000Y-7425000D02*
X13829000Y-7425000D01*
X13779000Y-7650000D02*
X13779000Y-7750000D01*
X13729000Y-7700000D02*
X13829000Y-7700000D01*
X14150000Y-7317000D02*
X14150000Y-7417000D01*
X14100000Y-7367000D02*
X14200000Y-7367000D01*
X14150000Y-7571000D02*
X14150000Y-7671000D01*
X14100000Y-7621000D02*
X14200000Y-7621000D01*
X14150000Y-7825000D02*
X14150000Y-7925000D01*
X14100000Y-7875000D02*
X14200000Y-7875000D01*
X14425000Y-7313000D02*
X14425000Y-7413000D01*
X14375000Y-7363000D02*
X14475000Y-7363000D01*
X14425000Y-7567000D02*
X14425000Y-7667000D01*
X14375000Y-7617000D02*
X14475000Y-7617000D01*
X14425000Y-7821000D02*
X14425000Y-7921000D01*
X14375000Y-7871000D02*
X14475000Y-7871000D01*
X14800000Y-11950000D02*
X14800000Y-12050000D01*
X14750000Y-12000000D02*
X14850000Y-12000000D01*
X15560000Y-11950000D02*
X15560000Y-12050000D01*
X15510000Y-12000000D02*
X15610000Y-12000000D01*
X15890000Y-7060575D02*
X15890000Y-7160575D01*
X15840000Y-7110575D02*
X15940000Y-7110575D01*
X16990000Y-7060575D02*
X16990000Y-7160575D01*
X16940000Y-7110575D02*
X17040000Y-7110575D01*
D13*
X10713891Y-11038891D02*
X10713891Y-10961109D01*
X10636109Y-10961109D01*
X10636109Y-11038891D01*
X10713891Y-11038891D01*
X10713891Y-11688891D02*
X10713891Y-11611109D01*
X10636109Y-11611109D01*
X10636109Y-11688891D01*
X10713891Y-11688891D01*
X10787891Y-9076891D02*
X10787891Y-8999109D01*
X10710109Y-8999109D01*
X10710109Y-9076891D01*
X10787891Y-9076891D01*
X10787891Y-10600891D02*
X10787891Y-10523109D01*
X10710109Y-10523109D01*
X10710109Y-10600891D01*
X10787891Y-10600891D01*
X11041891Y-9076891D02*
X11041891Y-8999109D01*
X10964109Y-8999109D01*
X10964109Y-9076891D01*
X11041891Y-9076891D01*
X11041891Y-9330891D02*
X11041891Y-9253109D01*
X10964109Y-9253109D01*
X10964109Y-9330891D01*
X11041891Y-9330891D01*
X11041891Y-10600891D02*
X11041891Y-10523109D01*
X10964109Y-10523109D01*
X10964109Y-10600891D01*
X11041891Y-10600891D01*
X11163891Y-11038891D02*
X11163891Y-10961109D01*
X11086109Y-10961109D01*
X11086109Y-11038891D01*
X11163891Y-11038891D01*
X11163891Y-11688891D02*
X11163891Y-11611109D01*
X11086109Y-11611109D01*
X11086109Y-11688891D01*
X11163891Y-11688891D01*
X11295891Y-9076891D02*
X11295891Y-8999109D01*
X11218109Y-8999109D01*
X11218109Y-9076891D01*
X11295891Y-9076891D01*
X11295891Y-10600891D02*
X11295891Y-10523109D01*
X11218109Y-10523109D01*
X11218109Y-10600891D01*
X11295891Y-10600891D01*
X11549891Y-9076891D02*
X11549891Y-8999109D01*
X11472109Y-8999109D01*
X11472109Y-9076891D01*
X11549891Y-9076891D01*
X11549891Y-10600891D02*
X11549891Y-10523109D01*
X11472109Y-10523109D01*
X11472109Y-10600891D01*
X11549891Y-10600891D01*
X11803891Y-9076891D02*
X11803891Y-8999109D01*
X11726109Y-8999109D01*
X11726109Y-9076891D01*
X11803891Y-9076891D01*
X11803891Y-10600891D02*
X11803891Y-10523109D01*
X11726109Y-10523109D01*
X11726109Y-10600891D01*
X11803891Y-10600891D01*
X12057891Y-9076891D02*
X12057891Y-8999109D01*
X11980109Y-8999109D01*
X11980109Y-9076891D01*
X12057891Y-9076891D01*
X12057891Y-10600891D02*
X12057891Y-10523109D01*
X11980109Y-10523109D01*
X11980109Y-10600891D01*
X12057891Y-10600891D01*
X12311891Y-9076891D02*
X12311891Y-8999109D01*
X12234109Y-8999109D01*
X12234109Y-9076891D01*
X12311891Y-9076891D01*
X12311891Y-10600891D02*
X12311891Y-10523109D01*
X12234109Y-10523109D01*
X12234109Y-10600891D01*
X12311891Y-10600891D01*
X12565891Y-9076891D02*
X12565891Y-8999109D01*
X12488109Y-8999109D01*
X12488109Y-9076891D01*
X12565891Y-9076891D01*
X12565891Y-10600891D02*
X12565891Y-10523109D01*
X12488109Y-10523109D01*
X12488109Y-10600891D01*
X12565891Y-10600891D01*
X12819891Y-9076891D02*
X12819891Y-8999109D01*
X12742109Y-8999109D01*
X12742109Y-9076891D01*
X12819891Y-9076891D01*
X12819891Y-10600891D02*
X12819891Y-10523109D01*
X12742109Y-10523109D01*
X12742109Y-10600891D01*
X12819891Y-10600891D01*
X13073891Y-9076891D02*
X13073891Y-8999109D01*
X12996109Y-8999109D01*
X12996109Y-9076891D01*
X13073891Y-9076891D01*
X13073891Y-10600891D02*
X13073891Y-10523109D01*
X12996109Y-10523109D01*
X12996109Y-10600891D01*
X13073891Y-10600891D01*
X13327891Y-9076891D02*
X13327891Y-8999109D01*
X13250109Y-8999109D01*
X13250109Y-9076891D01*
X13327891Y-9076891D01*
X13327891Y-9330891D02*
X13327891Y-9253109D01*
X13250109Y-9253109D01*
X13250109Y-9330891D01*
X13327891Y-9330891D01*
X13327891Y-9584891D02*
X13327891Y-9507109D01*
X13250109Y-9507109D01*
X13250109Y-9584891D01*
X13327891Y-9584891D01*
X13327891Y-9838891D02*
X13327891Y-9761109D01*
X13250109Y-9761109D01*
X13250109Y-9838891D01*
X13327891Y-9838891D01*
X13327891Y-10092891D02*
X13327891Y-10015109D01*
X13250109Y-10015109D01*
X13250109Y-10092891D01*
X13327891Y-10092891D01*
X13327891Y-10346891D02*
X13327891Y-10269109D01*
X13250109Y-10269109D01*
X13250109Y-10346891D01*
X13327891Y-10346891D01*
X13327891Y-10600891D02*
X13327891Y-10523109D01*
X13250109Y-10523109D01*
X13250109Y-10600891D01*
X13327891Y-10600891D01*
X13581891Y-9076891D02*
X13581891Y-8999109D01*
X13504109Y-8999109D01*
X13504109Y-9076891D01*
X13581891Y-9076891D01*
X13581891Y-9330891D02*
X13581891Y-9253109D01*
X13504109Y-9253109D01*
X13504109Y-9330891D01*
X13581891Y-9330891D01*
X13581891Y-9584891D02*
X13581891Y-9507109D01*
X13504109Y-9507109D01*
X13504109Y-9584891D01*
X13581891Y-9584891D01*
X13581891Y-9838891D02*
X13581891Y-9761109D01*
X13504109Y-9761109D01*
X13504109Y-9838891D01*
X13581891Y-9838891D01*
X13581891Y-10092891D02*
X13581891Y-10015109D01*
X13504109Y-10015109D01*
X13504109Y-10092891D01*
X13581891Y-10092891D01*
X13581891Y-10346891D02*
X13581891Y-10269109D01*
X13504109Y-10269109D01*
X13504109Y-10346891D01*
X13581891Y-10346891D01*
X13581891Y-10600891D02*
X13581891Y-10523109D01*
X13504109Y-10523109D01*
X13504109Y-10600891D01*
X13581891Y-10600891D01*
X13835891Y-9076891D02*
X13835891Y-8999109D01*
X13758109Y-8999109D01*
X13758109Y-9076891D01*
X13835891Y-9076891D01*
X13835891Y-10600891D02*
X13835891Y-10523109D01*
X13758109Y-10523109D01*
X13758109Y-10600891D01*
X13835891Y-10600891D01*
X14089891Y-9076891D02*
X14089891Y-8999109D01*
X14012109Y-8999109D01*
X14012109Y-9076891D01*
X14089891Y-9076891D01*
X14089891Y-9330891D02*
X14089891Y-9253109D01*
X14012109Y-9253109D01*
X14012109Y-9330891D01*
X14089891Y-9330891D01*
X14089891Y-9584891D02*
X14089891Y-9507109D01*
X14012109Y-9507109D01*
X14012109Y-9584891D01*
X14089891Y-9584891D01*
X14089891Y-9838891D02*
X14089891Y-9761109D01*
X14012109Y-9761109D01*
X14012109Y-9838891D01*
X14089891Y-9838891D01*
X14089891Y-10092891D02*
X14089891Y-10015109D01*
X14012109Y-10015109D01*
X14012109Y-10092891D01*
X14089891Y-10092891D01*
X14089891Y-10346891D02*
X14089891Y-10269109D01*
X14012109Y-10269109D01*
X14012109Y-10346891D01*
X14089891Y-10346891D01*
X14089891Y-10600891D02*
X14089891Y-10523109D01*
X14012109Y-10523109D01*
X14012109Y-10600891D01*
X14089891Y-10600891D01*
D14*
X16190000Y-8195575D02*
X16275000Y-8110575D01*
X16190000Y-8025575D01*
X16105000Y-8110575D01*
X16190000Y-8195575D01*
X16690000Y-8195575D02*
X16775000Y-8110575D01*
X16690000Y-8025575D01*
X16605000Y-8110575D01*
X16690000Y-8195575D01*
D11*
X10658277Y-13013984D02*
X10658277Y-12813984D01*
X10658277Y-12813984D02*
X10705896Y-12813984D01*
X10705896Y-12813984D02*
X10734467Y-12823508D01*
X10734467Y-12823508D02*
X10753515Y-12842555D01*
X10753515Y-12842555D02*
X10763039Y-12861603D01*
X10763039Y-12861603D02*
X10772563Y-12899698D01*
X10772563Y-12899698D02*
X10772563Y-12928269D01*
X10772563Y-12928269D02*
X10763039Y-12966365D01*
X10763039Y-12966365D02*
X10753515Y-12985412D01*
X10753515Y-12985412D02*
X10734467Y-13004460D01*
X10734467Y-13004460D02*
X10705896Y-13013984D01*
X10705896Y-13013984D02*
X10658277Y-13013984D01*
X10858277Y-13013984D02*
X10858277Y-12880650D01*
X10858277Y-12918746D02*
X10867801Y-12899698D01*
X10867801Y-12899698D02*
X10877324Y-12890174D01*
X10877324Y-12890174D02*
X10896372Y-12880650D01*
X10896372Y-12880650D02*
X10915420Y-12880650D01*
X10982086Y-13013984D02*
X10982086Y-12880650D01*
X10982086Y-12813984D02*
X10972563Y-12823508D01*
X10972563Y-12823508D02*
X10982086Y-12833031D01*
X10982086Y-12833031D02*
X10991610Y-12823508D01*
X10991610Y-12823508D02*
X10982086Y-12813984D01*
X10982086Y-12813984D02*
X10982086Y-12833031D01*
X11105896Y-13013984D02*
X11086848Y-13004460D01*
X11086848Y-13004460D02*
X11077324Y-12985412D01*
X11077324Y-12985412D02*
X11077324Y-12813984D01*
X11210658Y-13013984D02*
X11191610Y-13004460D01*
X11191610Y-13004460D02*
X11182086Y-12985412D01*
X11182086Y-12985412D02*
X11182086Y-12813984D01*
X11439229Y-13013984D02*
X11439229Y-12813984D01*
X11439229Y-12813984D02*
X11505896Y-12956841D01*
X11505896Y-12956841D02*
X11572562Y-12813984D01*
X11572562Y-12813984D02*
X11572562Y-13013984D01*
X11753515Y-13013984D02*
X11753515Y-12909222D01*
X11753515Y-12909222D02*
X11743991Y-12890174D01*
X11743991Y-12890174D02*
X11724943Y-12880650D01*
X11724943Y-12880650D02*
X11686848Y-12880650D01*
X11686848Y-12880650D02*
X11667801Y-12890174D01*
X11753515Y-13004460D02*
X11734467Y-13013984D01*
X11734467Y-13013984D02*
X11686848Y-13013984D01*
X11686848Y-13013984D02*
X11667801Y-13004460D01*
X11667801Y-13004460D02*
X11658277Y-12985412D01*
X11658277Y-12985412D02*
X11658277Y-12966365D01*
X11658277Y-12966365D02*
X11667801Y-12947317D01*
X11667801Y-12947317D02*
X11686848Y-12937793D01*
X11686848Y-12937793D02*
X11734467Y-12937793D01*
X11734467Y-12937793D02*
X11753515Y-12928269D01*
X11848753Y-12880650D02*
X11848753Y-13080650D01*
X11848753Y-12890174D02*
X11867801Y-12880650D01*
X11867801Y-12880650D02*
X11905896Y-12880650D01*
X11905896Y-12880650D02*
X11924943Y-12890174D01*
X11924943Y-12890174D02*
X11934467Y-12899698D01*
X11934467Y-12899698D02*
X11943991Y-12918746D01*
X11943991Y-12918746D02*
X11943991Y-12975888D01*
X11943991Y-12975888D02*
X11934467Y-12994936D01*
X11934467Y-12994936D02*
X11924943Y-13004460D01*
X11924943Y-13004460D02*
X11905896Y-13013984D01*
X11905896Y-13013984D02*
X11867801Y-13013984D01*
X11867801Y-13013984D02*
X11848753Y-13004460D01*
X12029705Y-12994936D02*
X12039229Y-13004460D01*
X12039229Y-13004460D02*
X12029705Y-13013984D01*
X12029705Y-13013984D02*
X12020182Y-13004460D01*
X12020182Y-13004460D02*
X12029705Y-12994936D01*
X12029705Y-12994936D02*
X12029705Y-13013984D01*
X12029705Y-12890174D02*
X12039229Y-12899698D01*
X12039229Y-12899698D02*
X12029705Y-12909222D01*
X12029705Y-12909222D02*
X12020182Y-12899698D01*
X12020182Y-12899698D02*
X12029705Y-12890174D01*
X12029705Y-12890174D02*
X12029705Y-12909222D01*
D12*
X10367500Y-13327500D02*
X10397500Y-13357500D01*
X10397500Y-13327500D02*
X10367500Y-13357500D01*
D11*
X10696372Y-13233984D02*
X10715420Y-13233984D01*
X10715420Y-13233984D02*
X10734467Y-13243508D01*
X10734467Y-13243508D02*
X10743991Y-13253031D01*
X10743991Y-13253031D02*
X10753515Y-13272079D01*
X10753515Y-13272079D02*
X10763039Y-13310174D01*
X10763039Y-13310174D02*
X10763039Y-13357793D01*
X10763039Y-13357793D02*
X10753515Y-13395888D01*
X10753515Y-13395888D02*
X10743991Y-13414936D01*
X10743991Y-13414936D02*
X10734467Y-13424460D01*
X10734467Y-13424460D02*
X10715420Y-13433984D01*
X10715420Y-13433984D02*
X10696372Y-13433984D01*
X10696372Y-13433984D02*
X10677324Y-13424460D01*
X10677324Y-13424460D02*
X10667801Y-13414936D01*
X10667801Y-13414936D02*
X10658277Y-13395888D01*
X10658277Y-13395888D02*
X10648753Y-13357793D01*
X10648753Y-13357793D02*
X10648753Y-13310174D01*
X10648753Y-13310174D02*
X10658277Y-13272079D01*
X10658277Y-13272079D02*
X10667801Y-13253031D01*
X10667801Y-13253031D02*
X10677324Y-13243508D01*
X10677324Y-13243508D02*
X10696372Y-13233984D01*
X10848753Y-13414936D02*
X10858277Y-13424460D01*
X10858277Y-13424460D02*
X10848753Y-13433984D01*
X10848753Y-13433984D02*
X10839229Y-13424460D01*
X10839229Y-13424460D02*
X10848753Y-13414936D01*
X10848753Y-13414936D02*
X10848753Y-13433984D01*
X10924944Y-13233984D02*
X11048753Y-13233984D01*
X11048753Y-13233984D02*
X10982086Y-13310174D01*
X10982086Y-13310174D02*
X11010658Y-13310174D01*
X11010658Y-13310174D02*
X11029705Y-13319698D01*
X11029705Y-13319698D02*
X11039229Y-13329222D01*
X11039229Y-13329222D02*
X11048753Y-13348269D01*
X11048753Y-13348269D02*
X11048753Y-13395888D01*
X11048753Y-13395888D02*
X11039229Y-13414936D01*
X11039229Y-13414936D02*
X11029705Y-13424460D01*
X11029705Y-13424460D02*
X11010658Y-13433984D01*
X11010658Y-13433984D02*
X10953515Y-13433984D01*
X10953515Y-13433984D02*
X10934467Y-13424460D01*
X10934467Y-13424460D02*
X10924944Y-13414936D01*
X11172563Y-13233984D02*
X11191610Y-13233984D01*
X11191610Y-13233984D02*
X11210658Y-13243508D01*
X11210658Y-13243508D02*
X11220182Y-13253031D01*
X11220182Y-13253031D02*
X11229705Y-13272079D01*
X11229705Y-13272079D02*
X11239229Y-13310174D01*
X11239229Y-13310174D02*
X11239229Y-13357793D01*
X11239229Y-13357793D02*
X11229705Y-13395888D01*
X11229705Y-13395888D02*
X11220182Y-13414936D01*
X11220182Y-13414936D02*
X11210658Y-13424460D01*
X11210658Y-13424460D02*
X11191610Y-13433984D01*
X11191610Y-13433984D02*
X11172563Y-13433984D01*
X11172563Y-13433984D02*
X11153515Y-13424460D01*
X11153515Y-13424460D02*
X11143991Y-13414936D01*
X11143991Y-13414936D02*
X11134467Y-13395888D01*
X11134467Y-13395888D02*
X11124944Y-13357793D01*
X11124944Y-13357793D02*
X11124944Y-13310174D01*
X11124944Y-13310174D02*
X11134467Y-13272079D01*
X11134467Y-13272079D02*
X11143991Y-13253031D01*
X11143991Y-13253031D02*
X11153515Y-13243508D01*
X11153515Y-13243508D02*
X11172563Y-13233984D01*
X11363039Y-13233984D02*
X11382086Y-13233984D01*
X11382086Y-13233984D02*
X11401134Y-13243508D01*
X11401134Y-13243508D02*
X11410658Y-13253031D01*
X11410658Y-13253031D02*
X11420182Y-13272079D01*
X11420182Y-13272079D02*
X11429705Y-13310174D01*
X11429705Y-13310174D02*
X11429705Y-13357793D01*
X11429705Y-13357793D02*
X11420182Y-13395888D01*
X11420182Y-13395888D02*
X11410658Y-13414936D01*
X11410658Y-13414936D02*
X11401134Y-13424460D01*
X11401134Y-13424460D02*
X11382086Y-13433984D01*
X11382086Y-13433984D02*
X11363039Y-13433984D01*
X11363039Y-13433984D02*
X11343991Y-13424460D01*
X11343991Y-13424460D02*
X11334467Y-13414936D01*
X11334467Y-13414936D02*
X11324943Y-13395888D01*
X11324943Y-13395888D02*
X11315420Y-13357793D01*
X11315420Y-13357793D02*
X11315420Y-13310174D01*
X11315420Y-13310174D02*
X11324943Y-13272079D01*
X11324943Y-13272079D02*
X11334467Y-13253031D01*
X11334467Y-13253031D02*
X11343991Y-13243508D01*
X11343991Y-13243508D02*
X11363039Y-13233984D01*
X11515420Y-13433984D02*
X11515420Y-13300650D01*
X11515420Y-13319698D02*
X11524943Y-13310174D01*
X11524943Y-13310174D02*
X11543991Y-13300650D01*
X11543991Y-13300650D02*
X11572563Y-13300650D01*
X11572563Y-13300650D02*
X11591610Y-13310174D01*
X11591610Y-13310174D02*
X11601134Y-13329222D01*
X11601134Y-13329222D02*
X11601134Y-13433984D01*
X11601134Y-13329222D02*
X11610658Y-13310174D01*
X11610658Y-13310174D02*
X11629705Y-13300650D01*
X11629705Y-13300650D02*
X11658277Y-13300650D01*
X11658277Y-13300650D02*
X11677324Y-13310174D01*
X11677324Y-13310174D02*
X11686848Y-13329222D01*
X11686848Y-13329222D02*
X11686848Y-13433984D01*
X11782086Y-13433984D02*
X11782086Y-13300650D01*
X11782086Y-13319698D02*
X11791610Y-13310174D01*
X11791610Y-13310174D02*
X11810658Y-13300650D01*
X11810658Y-13300650D02*
X11839229Y-13300650D01*
X11839229Y-13300650D02*
X11858277Y-13310174D01*
X11858277Y-13310174D02*
X11867801Y-13329222D01*
X11867801Y-13329222D02*
X11867801Y-13433984D01*
X11867801Y-13329222D02*
X11877324Y-13310174D01*
X11877324Y-13310174D02*
X11896372Y-13300650D01*
X11896372Y-13300650D02*
X11924943Y-13300650D01*
X11924943Y-13300650D02*
X11943991Y-13310174D01*
X11943991Y-13310174D02*
X11953515Y-13329222D01*
X11953515Y-13329222D02*
X11953515Y-13433984D01*
X12343991Y-13224460D02*
X12172563Y-13481603D01*
X12601134Y-13233984D02*
X12620182Y-13233984D01*
X12620182Y-13233984D02*
X12639229Y-13243508D01*
X12639229Y-13243508D02*
X12648753Y-13253031D01*
X12648753Y-13253031D02*
X12658277Y-13272079D01*
X12658277Y-13272079D02*
X12667801Y-13310174D01*
X12667801Y-13310174D02*
X12667801Y-13357793D01*
X12667801Y-13357793D02*
X12658277Y-13395888D01*
X12658277Y-13395888D02*
X12648753Y-13414936D01*
X12648753Y-13414936D02*
X12639229Y-13424460D01*
X12639229Y-13424460D02*
X12620182Y-13433984D01*
X12620182Y-13433984D02*
X12601134Y-13433984D01*
X12601134Y-13433984D02*
X12582086Y-13424460D01*
X12582086Y-13424460D02*
X12572563Y-13414936D01*
X12572563Y-13414936D02*
X12563039Y-13395888D01*
X12563039Y-13395888D02*
X12553515Y-13357793D01*
X12553515Y-13357793D02*
X12553515Y-13310174D01*
X12553515Y-13310174D02*
X12563039Y-13272079D01*
X12563039Y-13272079D02*
X12572563Y-13253031D01*
X12572563Y-13253031D02*
X12582086Y-13243508D01*
X12582086Y-13243508D02*
X12601134Y-13233984D01*
X12753515Y-13414936D02*
X12763039Y-13424460D01*
X12763039Y-13424460D02*
X12753515Y-13433984D01*
X12753515Y-13433984D02*
X12743991Y-13424460D01*
X12743991Y-13424460D02*
X12753515Y-13414936D01*
X12753515Y-13414936D02*
X12753515Y-13433984D01*
X12886848Y-13233984D02*
X12905896Y-13233984D01*
X12905896Y-13233984D02*
X12924944Y-13243508D01*
X12924944Y-13243508D02*
X12934467Y-13253031D01*
X12934467Y-13253031D02*
X12943991Y-13272079D01*
X12943991Y-13272079D02*
X12953515Y-13310174D01*
X12953515Y-13310174D02*
X12953515Y-13357793D01*
X12953515Y-13357793D02*
X12943991Y-13395888D01*
X12943991Y-13395888D02*
X12934467Y-13414936D01*
X12934467Y-13414936D02*
X12924944Y-13424460D01*
X12924944Y-13424460D02*
X12905896Y-13433984D01*
X12905896Y-13433984D02*
X12886848Y-13433984D01*
X12886848Y-13433984D02*
X12867801Y-13424460D01*
X12867801Y-13424460D02*
X12858277Y-13414936D01*
X12858277Y-13414936D02*
X12848753Y-13395888D01*
X12848753Y-13395888D02*
X12839229Y-13357793D01*
X12839229Y-13357793D02*
X12839229Y-13310174D01*
X12839229Y-13310174D02*
X12848753Y-13272079D01*
X12848753Y-13272079D02*
X12858277Y-13253031D01*
X12858277Y-13253031D02*
X12867801Y-13243508D01*
X12867801Y-13243508D02*
X12886848Y-13233984D01*
X13143991Y-13433984D02*
X13029706Y-13433984D01*
X13086848Y-13433984D02*
X13086848Y-13233984D01*
X13086848Y-13233984D02*
X13067801Y-13262555D01*
X13067801Y-13262555D02*
X13048753Y-13281603D01*
X13048753Y-13281603D02*
X13029706Y-13291127D01*
X13334467Y-13433984D02*
X13220182Y-13433984D01*
X13277325Y-13433984D02*
X13277325Y-13233984D01*
X13277325Y-13233984D02*
X13258277Y-13262555D01*
X13258277Y-13262555D02*
X13239229Y-13281603D01*
X13239229Y-13281603D02*
X13220182Y-13291127D01*
X13448753Y-13319698D02*
X13429706Y-13310174D01*
X13429706Y-13310174D02*
X13420182Y-13300650D01*
X13420182Y-13300650D02*
X13410658Y-13281603D01*
X13410658Y-13281603D02*
X13410658Y-13272079D01*
X13410658Y-13272079D02*
X13420182Y-13253031D01*
X13420182Y-13253031D02*
X13429706Y-13243508D01*
X13429706Y-13243508D02*
X13448753Y-13233984D01*
X13448753Y-13233984D02*
X13486848Y-13233984D01*
X13486848Y-13233984D02*
X13505896Y-13243508D01*
X13505896Y-13243508D02*
X13515420Y-13253031D01*
X13515420Y-13253031D02*
X13524944Y-13272079D01*
X13524944Y-13272079D02*
X13524944Y-13281603D01*
X13524944Y-13281603D02*
X13515420Y-13300650D01*
X13515420Y-13300650D02*
X13505896Y-13310174D01*
X13505896Y-13310174D02*
X13486848Y-13319698D01*
X13486848Y-13319698D02*
X13448753Y-13319698D01*
X13448753Y-13319698D02*
X13429706Y-13329222D01*
X13429706Y-13329222D02*
X13420182Y-13338746D01*
X13420182Y-13338746D02*
X13410658Y-13357793D01*
X13410658Y-13357793D02*
X13410658Y-13395888D01*
X13410658Y-13395888D02*
X13420182Y-13414936D01*
X13420182Y-13414936D02*
X13429706Y-13424460D01*
X13429706Y-13424460D02*
X13448753Y-13433984D01*
X13448753Y-13433984D02*
X13486848Y-13433984D01*
X13486848Y-13433984D02*
X13505896Y-13424460D01*
X13505896Y-13424460D02*
X13515420Y-13414936D01*
X13515420Y-13414936D02*
X13524944Y-13395888D01*
X13524944Y-13395888D02*
X13524944Y-13357793D01*
X13524944Y-13357793D02*
X13515420Y-13338746D01*
X13515420Y-13338746D02*
X13505896Y-13329222D01*
X13505896Y-13329222D02*
X13486848Y-13319698D01*
X13601134Y-13233984D02*
X13601134Y-13272079D01*
X13677325Y-13233984D02*
X13677325Y-13272079D01*
X13972563Y-13510174D02*
X13963039Y-13500650D01*
X13963039Y-13500650D02*
X13943991Y-13472079D01*
X13943991Y-13472079D02*
X13934468Y-13453031D01*
X13934468Y-13453031D02*
X13924944Y-13424460D01*
X13924944Y-13424460D02*
X13915420Y-13376841D01*
X13915420Y-13376841D02*
X13915420Y-13338746D01*
X13915420Y-13338746D02*
X13924944Y-13291127D01*
X13924944Y-13291127D02*
X13934468Y-13262555D01*
X13934468Y-13262555D02*
X13943991Y-13243508D01*
X13943991Y-13243508D02*
X13963039Y-13214936D01*
X13963039Y-13214936D02*
X13972563Y-13205412D01*
X14029706Y-13233984D02*
X14163039Y-13233984D01*
X14163039Y-13233984D02*
X14077325Y-13433984D01*
X14267801Y-13319698D02*
X14248753Y-13310174D01*
X14248753Y-13310174D02*
X14239229Y-13300650D01*
X14239229Y-13300650D02*
X14229706Y-13281603D01*
X14229706Y-13281603D02*
X14229706Y-13272079D01*
X14229706Y-13272079D02*
X14239229Y-13253031D01*
X14239229Y-13253031D02*
X14248753Y-13243508D01*
X14248753Y-13243508D02*
X14267801Y-13233984D01*
X14267801Y-13233984D02*
X14305896Y-13233984D01*
X14305896Y-13233984D02*
X14324944Y-13243508D01*
X14324944Y-13243508D02*
X14334468Y-13253031D01*
X14334468Y-13253031D02*
X14343991Y-13272079D01*
X14343991Y-13272079D02*
X14343991Y-13281603D01*
X14343991Y-13281603D02*
X14334468Y-13300650D01*
X14334468Y-13300650D02*
X14324944Y-13310174D01*
X14324944Y-13310174D02*
X14305896Y-13319698D01*
X14305896Y-13319698D02*
X14267801Y-13319698D01*
X14267801Y-13319698D02*
X14248753Y-13329222D01*
X14248753Y-13329222D02*
X14239229Y-13338746D01*
X14239229Y-13338746D02*
X14229706Y-13357793D01*
X14229706Y-13357793D02*
X14229706Y-13395888D01*
X14229706Y-13395888D02*
X14239229Y-13414936D01*
X14239229Y-13414936D02*
X14248753Y-13424460D01*
X14248753Y-13424460D02*
X14267801Y-13433984D01*
X14267801Y-13433984D02*
X14305896Y-13433984D01*
X14305896Y-13433984D02*
X14324944Y-13424460D01*
X14324944Y-13424460D02*
X14334468Y-13414936D01*
X14334468Y-13414936D02*
X14343991Y-13395888D01*
X14343991Y-13395888D02*
X14343991Y-13357793D01*
X14343991Y-13357793D02*
X14334468Y-13338746D01*
X14334468Y-13338746D02*
X14324944Y-13329222D01*
X14324944Y-13329222D02*
X14305896Y-13319698D01*
X14582087Y-13433984D02*
X14582087Y-13233984D01*
X14667801Y-13433984D02*
X14667801Y-13329222D01*
X14667801Y-13329222D02*
X14658277Y-13310174D01*
X14658277Y-13310174D02*
X14639230Y-13300650D01*
X14639230Y-13300650D02*
X14610658Y-13300650D01*
X14610658Y-13300650D02*
X14591610Y-13310174D01*
X14591610Y-13310174D02*
X14582087Y-13319698D01*
X14791610Y-13433984D02*
X14772563Y-13424460D01*
X14772563Y-13424460D02*
X14763039Y-13414936D01*
X14763039Y-13414936D02*
X14753515Y-13395888D01*
X14753515Y-13395888D02*
X14753515Y-13338746D01*
X14753515Y-13338746D02*
X14763039Y-13319698D01*
X14763039Y-13319698D02*
X14772563Y-13310174D01*
X14772563Y-13310174D02*
X14791610Y-13300650D01*
X14791610Y-13300650D02*
X14820182Y-13300650D01*
X14820182Y-13300650D02*
X14839230Y-13310174D01*
X14839230Y-13310174D02*
X14848753Y-13319698D01*
X14848753Y-13319698D02*
X14858277Y-13338746D01*
X14858277Y-13338746D02*
X14858277Y-13395888D01*
X14858277Y-13395888D02*
X14848753Y-13414936D01*
X14848753Y-13414936D02*
X14839230Y-13424460D01*
X14839230Y-13424460D02*
X14820182Y-13433984D01*
X14820182Y-13433984D02*
X14791610Y-13433984D01*
X14972563Y-13433984D02*
X14953515Y-13424460D01*
X14953515Y-13424460D02*
X14943991Y-13405412D01*
X14943991Y-13405412D02*
X14943991Y-13233984D01*
X15124944Y-13424460D02*
X15105896Y-13433984D01*
X15105896Y-13433984D02*
X15067801Y-13433984D01*
X15067801Y-13433984D02*
X15048753Y-13424460D01*
X15048753Y-13424460D02*
X15039230Y-13405412D01*
X15039230Y-13405412D02*
X15039230Y-13329222D01*
X15039230Y-13329222D02*
X15048753Y-13310174D01*
X15048753Y-13310174D02*
X15067801Y-13300650D01*
X15067801Y-13300650D02*
X15105896Y-13300650D01*
X15105896Y-13300650D02*
X15124944Y-13310174D01*
X15124944Y-13310174D02*
X15134468Y-13329222D01*
X15134468Y-13329222D02*
X15134468Y-13348269D01*
X15134468Y-13348269D02*
X15039230Y-13367317D01*
X15210658Y-13424460D02*
X15229706Y-13433984D01*
X15229706Y-13433984D02*
X15267801Y-13433984D01*
X15267801Y-13433984D02*
X15286849Y-13424460D01*
X15286849Y-13424460D02*
X15296372Y-13405412D01*
X15296372Y-13405412D02*
X15296372Y-13395888D01*
X15296372Y-13395888D02*
X15286849Y-13376841D01*
X15286849Y-13376841D02*
X15267801Y-13367317D01*
X15267801Y-13367317D02*
X15239230Y-13367317D01*
X15239230Y-13367317D02*
X15220182Y-13357793D01*
X15220182Y-13357793D02*
X15210658Y-13338746D01*
X15210658Y-13338746D02*
X15210658Y-13329222D01*
X15210658Y-13329222D02*
X15220182Y-13310174D01*
X15220182Y-13310174D02*
X15239230Y-13300650D01*
X15239230Y-13300650D02*
X15267801Y-13300650D01*
X15267801Y-13300650D02*
X15286849Y-13310174D01*
X15363039Y-13510174D02*
X15372563Y-13500650D01*
X15372563Y-13500650D02*
X15391611Y-13472079D01*
X15391611Y-13472079D02*
X15401134Y-13453031D01*
X15401134Y-13453031D02*
X15410658Y-13424460D01*
X15410658Y-13424460D02*
X15420182Y-13376841D01*
X15420182Y-13376841D02*
X15420182Y-13338746D01*
X15420182Y-13338746D02*
X15410658Y-13291127D01*
X15410658Y-13291127D02*
X15401134Y-13262555D01*
X15401134Y-13262555D02*
X15391611Y-13243508D01*
X15391611Y-13243508D02*
X15372563Y-13214936D01*
X15372563Y-13214936D02*
X15363039Y-13205412D01*
D12*
X10397500Y-13606500D02*
G75*
G02*
X10322500Y-13606500I-37500J0D01*
G01*
X10322500Y-13606500D02*
G75*
G02*
X10397500Y-13606500I37500J0D01*
G01*
D11*
X10696372Y-13497984D02*
X10715420Y-13497984D01*
X10715420Y-13497984D02*
X10734467Y-13507508D01*
X10734467Y-13507508D02*
X10743991Y-13517031D01*
X10743991Y-13517031D02*
X10753515Y-13536079D01*
X10753515Y-13536079D02*
X10763039Y-13574174D01*
X10763039Y-13574174D02*
X10763039Y-13621793D01*
X10763039Y-13621793D02*
X10753515Y-13659888D01*
X10753515Y-13659888D02*
X10743991Y-13678936D01*
X10743991Y-13678936D02*
X10734467Y-13688460D01*
X10734467Y-13688460D02*
X10715420Y-13697984D01*
X10715420Y-13697984D02*
X10696372Y-13697984D01*
X10696372Y-13697984D02*
X10677324Y-13688460D01*
X10677324Y-13688460D02*
X10667801Y-13678936D01*
X10667801Y-13678936D02*
X10658277Y-13659888D01*
X10658277Y-13659888D02*
X10648753Y-13621793D01*
X10648753Y-13621793D02*
X10648753Y-13574174D01*
X10648753Y-13574174D02*
X10658277Y-13536079D01*
X10658277Y-13536079D02*
X10667801Y-13517031D01*
X10667801Y-13517031D02*
X10677324Y-13507508D01*
X10677324Y-13507508D02*
X10696372Y-13497984D01*
X10848753Y-13678936D02*
X10858277Y-13688460D01*
X10858277Y-13688460D02*
X10848753Y-13697984D01*
X10848753Y-13697984D02*
X10839229Y-13688460D01*
X10839229Y-13688460D02*
X10848753Y-13678936D01*
X10848753Y-13678936D02*
X10848753Y-13697984D01*
X10924944Y-13497984D02*
X11058277Y-13497984D01*
X11058277Y-13497984D02*
X10972563Y-13697984D01*
X11229705Y-13497984D02*
X11134467Y-13497984D01*
X11134467Y-13497984D02*
X11124944Y-13593222D01*
X11124944Y-13593222D02*
X11134467Y-13583698D01*
X11134467Y-13583698D02*
X11153515Y-13574174D01*
X11153515Y-13574174D02*
X11201134Y-13574174D01*
X11201134Y-13574174D02*
X11220182Y-13583698D01*
X11220182Y-13583698D02*
X11229705Y-13593222D01*
X11229705Y-13593222D02*
X11239229Y-13612269D01*
X11239229Y-13612269D02*
X11239229Y-13659888D01*
X11239229Y-13659888D02*
X11229705Y-13678936D01*
X11229705Y-13678936D02*
X11220182Y-13688460D01*
X11220182Y-13688460D02*
X11201134Y-13697984D01*
X11201134Y-13697984D02*
X11153515Y-13697984D01*
X11153515Y-13697984D02*
X11134467Y-13688460D01*
X11134467Y-13688460D02*
X11124944Y-13678936D01*
X11363039Y-13497984D02*
X11382086Y-13497984D01*
X11382086Y-13497984D02*
X11401134Y-13507508D01*
X11401134Y-13507508D02*
X11410658Y-13517031D01*
X11410658Y-13517031D02*
X11420182Y-13536079D01*
X11420182Y-13536079D02*
X11429705Y-13574174D01*
X11429705Y-13574174D02*
X11429705Y-13621793D01*
X11429705Y-13621793D02*
X11420182Y-13659888D01*
X11420182Y-13659888D02*
X11410658Y-13678936D01*
X11410658Y-13678936D02*
X11401134Y-13688460D01*
X11401134Y-13688460D02*
X11382086Y-13697984D01*
X11382086Y-13697984D02*
X11363039Y-13697984D01*
X11363039Y-13697984D02*
X11343991Y-13688460D01*
X11343991Y-13688460D02*
X11334467Y-13678936D01*
X11334467Y-13678936D02*
X11324943Y-13659888D01*
X11324943Y-13659888D02*
X11315420Y-13621793D01*
X11315420Y-13621793D02*
X11315420Y-13574174D01*
X11315420Y-13574174D02*
X11324943Y-13536079D01*
X11324943Y-13536079D02*
X11334467Y-13517031D01*
X11334467Y-13517031D02*
X11343991Y-13507508D01*
X11343991Y-13507508D02*
X11363039Y-13497984D01*
X11515420Y-13697984D02*
X11515420Y-13564650D01*
X11515420Y-13583698D02*
X11524943Y-13574174D01*
X11524943Y-13574174D02*
X11543991Y-13564650D01*
X11543991Y-13564650D02*
X11572563Y-13564650D01*
X11572563Y-13564650D02*
X11591610Y-13574174D01*
X11591610Y-13574174D02*
X11601134Y-13593222D01*
X11601134Y-13593222D02*
X11601134Y-13697984D01*
X11601134Y-13593222D02*
X11610658Y-13574174D01*
X11610658Y-13574174D02*
X11629705Y-13564650D01*
X11629705Y-13564650D02*
X11658277Y-13564650D01*
X11658277Y-13564650D02*
X11677324Y-13574174D01*
X11677324Y-13574174D02*
X11686848Y-13593222D01*
X11686848Y-13593222D02*
X11686848Y-13697984D01*
X11782086Y-13697984D02*
X11782086Y-13564650D01*
X11782086Y-13583698D02*
X11791610Y-13574174D01*
X11791610Y-13574174D02*
X11810658Y-13564650D01*
X11810658Y-13564650D02*
X11839229Y-13564650D01*
X11839229Y-13564650D02*
X11858277Y-13574174D01*
X11858277Y-13574174D02*
X11867801Y-13593222D01*
X11867801Y-13593222D02*
X11867801Y-13697984D01*
X11867801Y-13593222D02*
X11877324Y-13574174D01*
X11877324Y-13574174D02*
X11896372Y-13564650D01*
X11896372Y-13564650D02*
X11924943Y-13564650D01*
X11924943Y-13564650D02*
X11943991Y-13574174D01*
X11943991Y-13574174D02*
X11953515Y-13593222D01*
X11953515Y-13593222D02*
X11953515Y-13697984D01*
X12343991Y-13488460D02*
X12172563Y-13745603D01*
X12601134Y-13497984D02*
X12620182Y-13497984D01*
X12620182Y-13497984D02*
X12639229Y-13507508D01*
X12639229Y-13507508D02*
X12648753Y-13517031D01*
X12648753Y-13517031D02*
X12658277Y-13536079D01*
X12658277Y-13536079D02*
X12667801Y-13574174D01*
X12667801Y-13574174D02*
X12667801Y-13621793D01*
X12667801Y-13621793D02*
X12658277Y-13659888D01*
X12658277Y-13659888D02*
X12648753Y-13678936D01*
X12648753Y-13678936D02*
X12639229Y-13688460D01*
X12639229Y-13688460D02*
X12620182Y-13697984D01*
X12620182Y-13697984D02*
X12601134Y-13697984D01*
X12601134Y-13697984D02*
X12582086Y-13688460D01*
X12582086Y-13688460D02*
X12572563Y-13678936D01*
X12572563Y-13678936D02*
X12563039Y-13659888D01*
X12563039Y-13659888D02*
X12553515Y-13621793D01*
X12553515Y-13621793D02*
X12553515Y-13574174D01*
X12553515Y-13574174D02*
X12563039Y-13536079D01*
X12563039Y-13536079D02*
X12572563Y-13517031D01*
X12572563Y-13517031D02*
X12582086Y-13507508D01*
X12582086Y-13507508D02*
X12601134Y-13497984D01*
X12753515Y-13678936D02*
X12763039Y-13688460D01*
X12763039Y-13688460D02*
X12753515Y-13697984D01*
X12753515Y-13697984D02*
X12743991Y-13688460D01*
X12743991Y-13688460D02*
X12753515Y-13678936D01*
X12753515Y-13678936D02*
X12753515Y-13697984D01*
X12886848Y-13497984D02*
X12905896Y-13497984D01*
X12905896Y-13497984D02*
X12924944Y-13507508D01*
X12924944Y-13507508D02*
X12934467Y-13517031D01*
X12934467Y-13517031D02*
X12943991Y-13536079D01*
X12943991Y-13536079D02*
X12953515Y-13574174D01*
X12953515Y-13574174D02*
X12953515Y-13621793D01*
X12953515Y-13621793D02*
X12943991Y-13659888D01*
X12943991Y-13659888D02*
X12934467Y-13678936D01*
X12934467Y-13678936D02*
X12924944Y-13688460D01*
X12924944Y-13688460D02*
X12905896Y-13697984D01*
X12905896Y-13697984D02*
X12886848Y-13697984D01*
X12886848Y-13697984D02*
X12867801Y-13688460D01*
X12867801Y-13688460D02*
X12858277Y-13678936D01*
X12858277Y-13678936D02*
X12848753Y-13659888D01*
X12848753Y-13659888D02*
X12839229Y-13621793D01*
X12839229Y-13621793D02*
X12839229Y-13574174D01*
X12839229Y-13574174D02*
X12848753Y-13536079D01*
X12848753Y-13536079D02*
X12858277Y-13517031D01*
X12858277Y-13517031D02*
X12867801Y-13507508D01*
X12867801Y-13507508D02*
X12886848Y-13497984D01*
X13029706Y-13517031D02*
X13039229Y-13507508D01*
X13039229Y-13507508D02*
X13058277Y-13497984D01*
X13058277Y-13497984D02*
X13105896Y-13497984D01*
X13105896Y-13497984D02*
X13124944Y-13507508D01*
X13124944Y-13507508D02*
X13134467Y-13517031D01*
X13134467Y-13517031D02*
X13143991Y-13536079D01*
X13143991Y-13536079D02*
X13143991Y-13555127D01*
X13143991Y-13555127D02*
X13134467Y-13583698D01*
X13134467Y-13583698D02*
X13020182Y-13697984D01*
X13020182Y-13697984D02*
X13143991Y-13697984D01*
X13239229Y-13697984D02*
X13277325Y-13697984D01*
X13277325Y-13697984D02*
X13296372Y-13688460D01*
X13296372Y-13688460D02*
X13305896Y-13678936D01*
X13305896Y-13678936D02*
X13324944Y-13650365D01*
X13324944Y-13650365D02*
X13334467Y-13612269D01*
X13334467Y-13612269D02*
X13334467Y-13536079D01*
X13334467Y-13536079D02*
X13324944Y-13517031D01*
X13324944Y-13517031D02*
X13315420Y-13507508D01*
X13315420Y-13507508D02*
X13296372Y-13497984D01*
X13296372Y-13497984D02*
X13258277Y-13497984D01*
X13258277Y-13497984D02*
X13239229Y-13507508D01*
X13239229Y-13507508D02*
X13229706Y-13517031D01*
X13229706Y-13517031D02*
X13220182Y-13536079D01*
X13220182Y-13536079D02*
X13220182Y-13583698D01*
X13220182Y-13583698D02*
X13229706Y-13602746D01*
X13229706Y-13602746D02*
X13239229Y-13612269D01*
X13239229Y-13612269D02*
X13258277Y-13621793D01*
X13258277Y-13621793D02*
X13296372Y-13621793D01*
X13296372Y-13621793D02*
X13315420Y-13612269D01*
X13315420Y-13612269D02*
X13324944Y-13602746D01*
X13324944Y-13602746D02*
X13334467Y-13583698D01*
X13515420Y-13497984D02*
X13420182Y-13497984D01*
X13420182Y-13497984D02*
X13410658Y-13593222D01*
X13410658Y-13593222D02*
X13420182Y-13583698D01*
X13420182Y-13583698D02*
X13439229Y-13574174D01*
X13439229Y-13574174D02*
X13486848Y-13574174D01*
X13486848Y-13574174D02*
X13505896Y-13583698D01*
X13505896Y-13583698D02*
X13515420Y-13593222D01*
X13515420Y-13593222D02*
X13524944Y-13612269D01*
X13524944Y-13612269D02*
X13524944Y-13659888D01*
X13524944Y-13659888D02*
X13515420Y-13678936D01*
X13515420Y-13678936D02*
X13505896Y-13688460D01*
X13505896Y-13688460D02*
X13486848Y-13697984D01*
X13486848Y-13697984D02*
X13439229Y-13697984D01*
X13439229Y-13697984D02*
X13420182Y-13688460D01*
X13420182Y-13688460D02*
X13410658Y-13678936D01*
X13601134Y-13497984D02*
X13601134Y-13536079D01*
X13677325Y-13497984D02*
X13677325Y-13536079D01*
X13972563Y-13774174D02*
X13963039Y-13764650D01*
X13963039Y-13764650D02*
X13943991Y-13736079D01*
X13943991Y-13736079D02*
X13934468Y-13717031D01*
X13934468Y-13717031D02*
X13924944Y-13688460D01*
X13924944Y-13688460D02*
X13915420Y-13640841D01*
X13915420Y-13640841D02*
X13915420Y-13602746D01*
X13915420Y-13602746D02*
X13924944Y-13555127D01*
X13924944Y-13555127D02*
X13934468Y-13526555D01*
X13934468Y-13526555D02*
X13943991Y-13507508D01*
X13943991Y-13507508D02*
X13963039Y-13478936D01*
X13963039Y-13478936D02*
X13972563Y-13469412D01*
X14029706Y-13497984D02*
X14153515Y-13497984D01*
X14153515Y-13497984D02*
X14086848Y-13574174D01*
X14086848Y-13574174D02*
X14115420Y-13574174D01*
X14115420Y-13574174D02*
X14134468Y-13583698D01*
X14134468Y-13583698D02*
X14143991Y-13593222D01*
X14143991Y-13593222D02*
X14153515Y-13612269D01*
X14153515Y-13612269D02*
X14153515Y-13659888D01*
X14153515Y-13659888D02*
X14143991Y-13678936D01*
X14143991Y-13678936D02*
X14134468Y-13688460D01*
X14134468Y-13688460D02*
X14115420Y-13697984D01*
X14115420Y-13697984D02*
X14058277Y-13697984D01*
X14058277Y-13697984D02*
X14039229Y-13688460D01*
X14039229Y-13688460D02*
X14029706Y-13678936D01*
X14248753Y-13697984D02*
X14286848Y-13697984D01*
X14286848Y-13697984D02*
X14305896Y-13688460D01*
X14305896Y-13688460D02*
X14315420Y-13678936D01*
X14315420Y-13678936D02*
X14334468Y-13650365D01*
X14334468Y-13650365D02*
X14343991Y-13612269D01*
X14343991Y-13612269D02*
X14343991Y-13536079D01*
X14343991Y-13536079D02*
X14334468Y-13517031D01*
X14334468Y-13517031D02*
X14324944Y-13507508D01*
X14324944Y-13507508D02*
X14305896Y-13497984D01*
X14305896Y-13497984D02*
X14267801Y-13497984D01*
X14267801Y-13497984D02*
X14248753Y-13507508D01*
X14248753Y-13507508D02*
X14239229Y-13517031D01*
X14239229Y-13517031D02*
X14229706Y-13536079D01*
X14229706Y-13536079D02*
X14229706Y-13583698D01*
X14229706Y-13583698D02*
X14239229Y-13602746D01*
X14239229Y-13602746D02*
X14248753Y-13612269D01*
X14248753Y-13612269D02*
X14267801Y-13621793D01*
X14267801Y-13621793D02*
X14305896Y-13621793D01*
X14305896Y-13621793D02*
X14324944Y-13612269D01*
X14324944Y-13612269D02*
X14334468Y-13602746D01*
X14334468Y-13602746D02*
X14343991Y-13583698D01*
X14582087Y-13697984D02*
X14582087Y-13497984D01*
X14667801Y-13697984D02*
X14667801Y-13593222D01*
X14667801Y-13593222D02*
X14658277Y-13574174D01*
X14658277Y-13574174D02*
X14639230Y-13564650D01*
X14639230Y-13564650D02*
X14610658Y-13564650D01*
X14610658Y-13564650D02*
X14591610Y-13574174D01*
X14591610Y-13574174D02*
X14582087Y-13583698D01*
X14791610Y-13697984D02*
X14772563Y-13688460D01*
X14772563Y-13688460D02*
X14763039Y-13678936D01*
X14763039Y-13678936D02*
X14753515Y-13659888D01*
X14753515Y-13659888D02*
X14753515Y-13602746D01*
X14753515Y-13602746D02*
X14763039Y-13583698D01*
X14763039Y-13583698D02*
X14772563Y-13574174D01*
X14772563Y-13574174D02*
X14791610Y-13564650D01*
X14791610Y-13564650D02*
X14820182Y-13564650D01*
X14820182Y-13564650D02*
X14839230Y-13574174D01*
X14839230Y-13574174D02*
X14848753Y-13583698D01*
X14848753Y-13583698D02*
X14858277Y-13602746D01*
X14858277Y-13602746D02*
X14858277Y-13659888D01*
X14858277Y-13659888D02*
X14848753Y-13678936D01*
X14848753Y-13678936D02*
X14839230Y-13688460D01*
X14839230Y-13688460D02*
X14820182Y-13697984D01*
X14820182Y-13697984D02*
X14791610Y-13697984D01*
X14972563Y-13697984D02*
X14953515Y-13688460D01*
X14953515Y-13688460D02*
X14943991Y-13669412D01*
X14943991Y-13669412D02*
X14943991Y-13497984D01*
X15124944Y-13688460D02*
X15105896Y-13697984D01*
X15105896Y-13697984D02*
X15067801Y-13697984D01*
X15067801Y-13697984D02*
X15048753Y-13688460D01*
X15048753Y-13688460D02*
X15039230Y-13669412D01*
X15039230Y-13669412D02*
X15039230Y-13593222D01*
X15039230Y-13593222D02*
X15048753Y-13574174D01*
X15048753Y-13574174D02*
X15067801Y-13564650D01*
X15067801Y-13564650D02*
X15105896Y-13564650D01*
X15105896Y-13564650D02*
X15124944Y-13574174D01*
X15124944Y-13574174D02*
X15134468Y-13593222D01*
X15134468Y-13593222D02*
X15134468Y-13612269D01*
X15134468Y-13612269D02*
X15039230Y-13631317D01*
X15210658Y-13688460D02*
X15229706Y-13697984D01*
X15229706Y-13697984D02*
X15267801Y-13697984D01*
X15267801Y-13697984D02*
X15286849Y-13688460D01*
X15286849Y-13688460D02*
X15296372Y-13669412D01*
X15296372Y-13669412D02*
X15296372Y-13659888D01*
X15296372Y-13659888D02*
X15286849Y-13640841D01*
X15286849Y-13640841D02*
X15267801Y-13631317D01*
X15267801Y-13631317D02*
X15239230Y-13631317D01*
X15239230Y-13631317D02*
X15220182Y-13621793D01*
X15220182Y-13621793D02*
X15210658Y-13602746D01*
X15210658Y-13602746D02*
X15210658Y-13593222D01*
X15210658Y-13593222D02*
X15220182Y-13574174D01*
X15220182Y-13574174D02*
X15239230Y-13564650D01*
X15239230Y-13564650D02*
X15267801Y-13564650D01*
X15267801Y-13564650D02*
X15286849Y-13574174D01*
X15363039Y-13774174D02*
X15372563Y-13764650D01*
X15372563Y-13764650D02*
X15391611Y-13736079D01*
X15391611Y-13736079D02*
X15401134Y-13717031D01*
X15401134Y-13717031D02*
X15410658Y-13688460D01*
X15410658Y-13688460D02*
X15420182Y-13640841D01*
X15420182Y-13640841D02*
X15420182Y-13602746D01*
X15420182Y-13602746D02*
X15410658Y-13555127D01*
X15410658Y-13555127D02*
X15401134Y-13526555D01*
X15401134Y-13526555D02*
X15391611Y-13507508D01*
X15391611Y-13507508D02*
X15372563Y-13478936D01*
X15372563Y-13478936D02*
X15363039Y-13469412D01*
D12*
X10347500Y-13820500D02*
X10347500Y-13920500D01*
X10297500Y-13870500D02*
X10397500Y-13870500D01*
D11*
X10763039Y-13961984D02*
X10648753Y-13961984D01*
X10705896Y-13961984D02*
X10705896Y-13761984D01*
X10705896Y-13761984D02*
X10686848Y-13790555D01*
X10686848Y-13790555D02*
X10667801Y-13809603D01*
X10667801Y-13809603D02*
X10648753Y-13819127D01*
X10848753Y-13942936D02*
X10858277Y-13952460D01*
X10858277Y-13952460D02*
X10848753Y-13961984D01*
X10848753Y-13961984D02*
X10839229Y-13952460D01*
X10839229Y-13952460D02*
X10848753Y-13942936D01*
X10848753Y-13942936D02*
X10848753Y-13961984D01*
X10982086Y-13761984D02*
X11001134Y-13761984D01*
X11001134Y-13761984D02*
X11020182Y-13771508D01*
X11020182Y-13771508D02*
X11029705Y-13781031D01*
X11029705Y-13781031D02*
X11039229Y-13800079D01*
X11039229Y-13800079D02*
X11048753Y-13838174D01*
X11048753Y-13838174D02*
X11048753Y-13885793D01*
X11048753Y-13885793D02*
X11039229Y-13923888D01*
X11039229Y-13923888D02*
X11029705Y-13942936D01*
X11029705Y-13942936D02*
X11020182Y-13952460D01*
X11020182Y-13952460D02*
X11001134Y-13961984D01*
X11001134Y-13961984D02*
X10982086Y-13961984D01*
X10982086Y-13961984D02*
X10963039Y-13952460D01*
X10963039Y-13952460D02*
X10953515Y-13942936D01*
X10953515Y-13942936D02*
X10943991Y-13923888D01*
X10943991Y-13923888D02*
X10934467Y-13885793D01*
X10934467Y-13885793D02*
X10934467Y-13838174D01*
X10934467Y-13838174D02*
X10943991Y-13800079D01*
X10943991Y-13800079D02*
X10953515Y-13781031D01*
X10953515Y-13781031D02*
X10963039Y-13771508D01*
X10963039Y-13771508D02*
X10982086Y-13761984D01*
X11172563Y-13761984D02*
X11191610Y-13761984D01*
X11191610Y-13761984D02*
X11210658Y-13771508D01*
X11210658Y-13771508D02*
X11220182Y-13781031D01*
X11220182Y-13781031D02*
X11229705Y-13800079D01*
X11229705Y-13800079D02*
X11239229Y-13838174D01*
X11239229Y-13838174D02*
X11239229Y-13885793D01*
X11239229Y-13885793D02*
X11229705Y-13923888D01*
X11229705Y-13923888D02*
X11220182Y-13942936D01*
X11220182Y-13942936D02*
X11210658Y-13952460D01*
X11210658Y-13952460D02*
X11191610Y-13961984D01*
X11191610Y-13961984D02*
X11172563Y-13961984D01*
X11172563Y-13961984D02*
X11153515Y-13952460D01*
X11153515Y-13952460D02*
X11143991Y-13942936D01*
X11143991Y-13942936D02*
X11134467Y-13923888D01*
X11134467Y-13923888D02*
X11124944Y-13885793D01*
X11124944Y-13885793D02*
X11124944Y-13838174D01*
X11124944Y-13838174D02*
X11134467Y-13800079D01*
X11134467Y-13800079D02*
X11143991Y-13781031D01*
X11143991Y-13781031D02*
X11153515Y-13771508D01*
X11153515Y-13771508D02*
X11172563Y-13761984D01*
X11363039Y-13761984D02*
X11382086Y-13761984D01*
X11382086Y-13761984D02*
X11401134Y-13771508D01*
X11401134Y-13771508D02*
X11410658Y-13781031D01*
X11410658Y-13781031D02*
X11420182Y-13800079D01*
X11420182Y-13800079D02*
X11429705Y-13838174D01*
X11429705Y-13838174D02*
X11429705Y-13885793D01*
X11429705Y-13885793D02*
X11420182Y-13923888D01*
X11420182Y-13923888D02*
X11410658Y-13942936D01*
X11410658Y-13942936D02*
X11401134Y-13952460D01*
X11401134Y-13952460D02*
X11382086Y-13961984D01*
X11382086Y-13961984D02*
X11363039Y-13961984D01*
X11363039Y-13961984D02*
X11343991Y-13952460D01*
X11343991Y-13952460D02*
X11334467Y-13942936D01*
X11334467Y-13942936D02*
X11324943Y-13923888D01*
X11324943Y-13923888D02*
X11315420Y-13885793D01*
X11315420Y-13885793D02*
X11315420Y-13838174D01*
X11315420Y-13838174D02*
X11324943Y-13800079D01*
X11324943Y-13800079D02*
X11334467Y-13781031D01*
X11334467Y-13781031D02*
X11343991Y-13771508D01*
X11343991Y-13771508D02*
X11363039Y-13761984D01*
X11515420Y-13961984D02*
X11515420Y-13828650D01*
X11515420Y-13847698D02*
X11524943Y-13838174D01*
X11524943Y-13838174D02*
X11543991Y-13828650D01*
X11543991Y-13828650D02*
X11572563Y-13828650D01*
X11572563Y-13828650D02*
X11591610Y-13838174D01*
X11591610Y-13838174D02*
X11601134Y-13857222D01*
X11601134Y-13857222D02*
X11601134Y-13961984D01*
X11601134Y-13857222D02*
X11610658Y-13838174D01*
X11610658Y-13838174D02*
X11629705Y-13828650D01*
X11629705Y-13828650D02*
X11658277Y-13828650D01*
X11658277Y-13828650D02*
X11677324Y-13838174D01*
X11677324Y-13838174D02*
X11686848Y-13857222D01*
X11686848Y-13857222D02*
X11686848Y-13961984D01*
X11782086Y-13961984D02*
X11782086Y-13828650D01*
X11782086Y-13847698D02*
X11791610Y-13838174D01*
X11791610Y-13838174D02*
X11810658Y-13828650D01*
X11810658Y-13828650D02*
X11839229Y-13828650D01*
X11839229Y-13828650D02*
X11858277Y-13838174D01*
X11858277Y-13838174D02*
X11867801Y-13857222D01*
X11867801Y-13857222D02*
X11867801Y-13961984D01*
X11867801Y-13857222D02*
X11877324Y-13838174D01*
X11877324Y-13838174D02*
X11896372Y-13828650D01*
X11896372Y-13828650D02*
X11924943Y-13828650D01*
X11924943Y-13828650D02*
X11943991Y-13838174D01*
X11943991Y-13838174D02*
X11953515Y-13857222D01*
X11953515Y-13857222D02*
X11953515Y-13961984D01*
X12343991Y-13752460D02*
X12172563Y-14009603D01*
X12601134Y-13761984D02*
X12620182Y-13761984D01*
X12620182Y-13761984D02*
X12639229Y-13771508D01*
X12639229Y-13771508D02*
X12648753Y-13781031D01*
X12648753Y-13781031D02*
X12658277Y-13800079D01*
X12658277Y-13800079D02*
X12667801Y-13838174D01*
X12667801Y-13838174D02*
X12667801Y-13885793D01*
X12667801Y-13885793D02*
X12658277Y-13923888D01*
X12658277Y-13923888D02*
X12648753Y-13942936D01*
X12648753Y-13942936D02*
X12639229Y-13952460D01*
X12639229Y-13952460D02*
X12620182Y-13961984D01*
X12620182Y-13961984D02*
X12601134Y-13961984D01*
X12601134Y-13961984D02*
X12582086Y-13952460D01*
X12582086Y-13952460D02*
X12572563Y-13942936D01*
X12572563Y-13942936D02*
X12563039Y-13923888D01*
X12563039Y-13923888D02*
X12553515Y-13885793D01*
X12553515Y-13885793D02*
X12553515Y-13838174D01*
X12553515Y-13838174D02*
X12563039Y-13800079D01*
X12563039Y-13800079D02*
X12572563Y-13781031D01*
X12572563Y-13781031D02*
X12582086Y-13771508D01*
X12582086Y-13771508D02*
X12601134Y-13761984D01*
X12753515Y-13942936D02*
X12763039Y-13952460D01*
X12763039Y-13952460D02*
X12753515Y-13961984D01*
X12753515Y-13961984D02*
X12743991Y-13952460D01*
X12743991Y-13952460D02*
X12753515Y-13942936D01*
X12753515Y-13942936D02*
X12753515Y-13961984D01*
X12886848Y-13761984D02*
X12905896Y-13761984D01*
X12905896Y-13761984D02*
X12924944Y-13771508D01*
X12924944Y-13771508D02*
X12934467Y-13781031D01*
X12934467Y-13781031D02*
X12943991Y-13800079D01*
X12943991Y-13800079D02*
X12953515Y-13838174D01*
X12953515Y-13838174D02*
X12953515Y-13885793D01*
X12953515Y-13885793D02*
X12943991Y-13923888D01*
X12943991Y-13923888D02*
X12934467Y-13942936D01*
X12934467Y-13942936D02*
X12924944Y-13952460D01*
X12924944Y-13952460D02*
X12905896Y-13961984D01*
X12905896Y-13961984D02*
X12886848Y-13961984D01*
X12886848Y-13961984D02*
X12867801Y-13952460D01*
X12867801Y-13952460D02*
X12858277Y-13942936D01*
X12858277Y-13942936D02*
X12848753Y-13923888D01*
X12848753Y-13923888D02*
X12839229Y-13885793D01*
X12839229Y-13885793D02*
X12839229Y-13838174D01*
X12839229Y-13838174D02*
X12848753Y-13800079D01*
X12848753Y-13800079D02*
X12858277Y-13781031D01*
X12858277Y-13781031D02*
X12867801Y-13771508D01*
X12867801Y-13771508D02*
X12886848Y-13761984D01*
X13020182Y-13761984D02*
X13143991Y-13761984D01*
X13143991Y-13761984D02*
X13077325Y-13838174D01*
X13077325Y-13838174D02*
X13105896Y-13838174D01*
X13105896Y-13838174D02*
X13124944Y-13847698D01*
X13124944Y-13847698D02*
X13134467Y-13857222D01*
X13134467Y-13857222D02*
X13143991Y-13876269D01*
X13143991Y-13876269D02*
X13143991Y-13923888D01*
X13143991Y-13923888D02*
X13134467Y-13942936D01*
X13134467Y-13942936D02*
X13124944Y-13952460D01*
X13124944Y-13952460D02*
X13105896Y-13961984D01*
X13105896Y-13961984D02*
X13048753Y-13961984D01*
X13048753Y-13961984D02*
X13029706Y-13952460D01*
X13029706Y-13952460D02*
X13020182Y-13942936D01*
X13239229Y-13961984D02*
X13277325Y-13961984D01*
X13277325Y-13961984D02*
X13296372Y-13952460D01*
X13296372Y-13952460D02*
X13305896Y-13942936D01*
X13305896Y-13942936D02*
X13324944Y-13914365D01*
X13324944Y-13914365D02*
X13334467Y-13876269D01*
X13334467Y-13876269D02*
X13334467Y-13800079D01*
X13334467Y-13800079D02*
X13324944Y-13781031D01*
X13324944Y-13781031D02*
X13315420Y-13771508D01*
X13315420Y-13771508D02*
X13296372Y-13761984D01*
X13296372Y-13761984D02*
X13258277Y-13761984D01*
X13258277Y-13761984D02*
X13239229Y-13771508D01*
X13239229Y-13771508D02*
X13229706Y-13781031D01*
X13229706Y-13781031D02*
X13220182Y-13800079D01*
X13220182Y-13800079D02*
X13220182Y-13847698D01*
X13220182Y-13847698D02*
X13229706Y-13866746D01*
X13229706Y-13866746D02*
X13239229Y-13876269D01*
X13239229Y-13876269D02*
X13258277Y-13885793D01*
X13258277Y-13885793D02*
X13296372Y-13885793D01*
X13296372Y-13885793D02*
X13315420Y-13876269D01*
X13315420Y-13876269D02*
X13324944Y-13866746D01*
X13324944Y-13866746D02*
X13334467Y-13847698D01*
X13505896Y-13828650D02*
X13505896Y-13961984D01*
X13458277Y-13752460D02*
X13410658Y-13895317D01*
X13410658Y-13895317D02*
X13534467Y-13895317D01*
X13601134Y-13761984D02*
X13601134Y-13800079D01*
X13677325Y-13761984D02*
X13677325Y-13800079D01*
X13972563Y-14038174D02*
X13963039Y-14028650D01*
X13963039Y-14028650D02*
X13943991Y-14000079D01*
X13943991Y-14000079D02*
X13934468Y-13981031D01*
X13934468Y-13981031D02*
X13924944Y-13952460D01*
X13924944Y-13952460D02*
X13915420Y-13904841D01*
X13915420Y-13904841D02*
X13915420Y-13866746D01*
X13915420Y-13866746D02*
X13924944Y-13819127D01*
X13924944Y-13819127D02*
X13934468Y-13790555D01*
X13934468Y-13790555D02*
X13943991Y-13771508D01*
X13943991Y-13771508D02*
X13963039Y-13742936D01*
X13963039Y-13742936D02*
X13972563Y-13733412D01*
X14029706Y-13761984D02*
X14153515Y-13761984D01*
X14153515Y-13761984D02*
X14086848Y-13838174D01*
X14086848Y-13838174D02*
X14115420Y-13838174D01*
X14115420Y-13838174D02*
X14134468Y-13847698D01*
X14134468Y-13847698D02*
X14143991Y-13857222D01*
X14143991Y-13857222D02*
X14153515Y-13876269D01*
X14153515Y-13876269D02*
X14153515Y-13923888D01*
X14153515Y-13923888D02*
X14143991Y-13942936D01*
X14143991Y-13942936D02*
X14134468Y-13952460D01*
X14134468Y-13952460D02*
X14115420Y-13961984D01*
X14115420Y-13961984D02*
X14058277Y-13961984D01*
X14058277Y-13961984D02*
X14039229Y-13952460D01*
X14039229Y-13952460D02*
X14029706Y-13942936D01*
X14229706Y-13781031D02*
X14239229Y-13771508D01*
X14239229Y-13771508D02*
X14258277Y-13761984D01*
X14258277Y-13761984D02*
X14305896Y-13761984D01*
X14305896Y-13761984D02*
X14324944Y-13771508D01*
X14324944Y-13771508D02*
X14334468Y-13781031D01*
X14334468Y-13781031D02*
X14343991Y-13800079D01*
X14343991Y-13800079D02*
X14343991Y-13819127D01*
X14343991Y-13819127D02*
X14334468Y-13847698D01*
X14334468Y-13847698D02*
X14220182Y-13961984D01*
X14220182Y-13961984D02*
X14343991Y-13961984D01*
X14582087Y-13961984D02*
X14582087Y-13761984D01*
X14667801Y-13961984D02*
X14667801Y-13857222D01*
X14667801Y-13857222D02*
X14658277Y-13838174D01*
X14658277Y-13838174D02*
X14639230Y-13828650D01*
X14639230Y-13828650D02*
X14610658Y-13828650D01*
X14610658Y-13828650D02*
X14591610Y-13838174D01*
X14591610Y-13838174D02*
X14582087Y-13847698D01*
X14791610Y-13961984D02*
X14772563Y-13952460D01*
X14772563Y-13952460D02*
X14763039Y-13942936D01*
X14763039Y-13942936D02*
X14753515Y-13923888D01*
X14753515Y-13923888D02*
X14753515Y-13866746D01*
X14753515Y-13866746D02*
X14763039Y-13847698D01*
X14763039Y-13847698D02*
X14772563Y-13838174D01*
X14772563Y-13838174D02*
X14791610Y-13828650D01*
X14791610Y-13828650D02*
X14820182Y-13828650D01*
X14820182Y-13828650D02*
X14839230Y-13838174D01*
X14839230Y-13838174D02*
X14848753Y-13847698D01*
X14848753Y-13847698D02*
X14858277Y-13866746D01*
X14858277Y-13866746D02*
X14858277Y-13923888D01*
X14858277Y-13923888D02*
X14848753Y-13942936D01*
X14848753Y-13942936D02*
X14839230Y-13952460D01*
X14839230Y-13952460D02*
X14820182Y-13961984D01*
X14820182Y-13961984D02*
X14791610Y-13961984D01*
X14972563Y-13961984D02*
X14953515Y-13952460D01*
X14953515Y-13952460D02*
X14943991Y-13933412D01*
X14943991Y-13933412D02*
X14943991Y-13761984D01*
X15124944Y-13952460D02*
X15105896Y-13961984D01*
X15105896Y-13961984D02*
X15067801Y-13961984D01*
X15067801Y-13961984D02*
X15048753Y-13952460D01*
X15048753Y-13952460D02*
X15039230Y-13933412D01*
X15039230Y-13933412D02*
X15039230Y-13857222D01*
X15039230Y-13857222D02*
X15048753Y-13838174D01*
X15048753Y-13838174D02*
X15067801Y-13828650D01*
X15067801Y-13828650D02*
X15105896Y-13828650D01*
X15105896Y-13828650D02*
X15124944Y-13838174D01*
X15124944Y-13838174D02*
X15134468Y-13857222D01*
X15134468Y-13857222D02*
X15134468Y-13876269D01*
X15134468Y-13876269D02*
X15039230Y-13895317D01*
X15210658Y-13952460D02*
X15229706Y-13961984D01*
X15229706Y-13961984D02*
X15267801Y-13961984D01*
X15267801Y-13961984D02*
X15286849Y-13952460D01*
X15286849Y-13952460D02*
X15296372Y-13933412D01*
X15296372Y-13933412D02*
X15296372Y-13923888D01*
X15296372Y-13923888D02*
X15286849Y-13904841D01*
X15286849Y-13904841D02*
X15267801Y-13895317D01*
X15267801Y-13895317D02*
X15239230Y-13895317D01*
X15239230Y-13895317D02*
X15220182Y-13885793D01*
X15220182Y-13885793D02*
X15210658Y-13866746D01*
X15210658Y-13866746D02*
X15210658Y-13857222D01*
X15210658Y-13857222D02*
X15220182Y-13838174D01*
X15220182Y-13838174D02*
X15239230Y-13828650D01*
X15239230Y-13828650D02*
X15267801Y-13828650D01*
X15267801Y-13828650D02*
X15286849Y-13838174D01*
X15363039Y-14038174D02*
X15372563Y-14028650D01*
X15372563Y-14028650D02*
X15391611Y-14000079D01*
X15391611Y-14000079D02*
X15401134Y-13981031D01*
X15401134Y-13981031D02*
X15410658Y-13952460D01*
X15410658Y-13952460D02*
X15420182Y-13904841D01*
X15420182Y-13904841D02*
X15420182Y-13866746D01*
X15420182Y-13866746D02*
X15410658Y-13819127D01*
X15410658Y-13819127D02*
X15401134Y-13790555D01*
X15401134Y-13790555D02*
X15391611Y-13771508D01*
X15391611Y-13771508D02*
X15372563Y-13742936D01*
X15372563Y-13742936D02*
X15363039Y-13733412D01*
D13*
X10381391Y-14173391D02*
X10381391Y-14095609D01*
X10303609Y-14095609D01*
X10303609Y-14173391D01*
X10381391Y-14173391D01*
D11*
X10763039Y-14225984D02*
X10648753Y-14225984D01*
X10705896Y-14225984D02*
X10705896Y-14025984D01*
X10705896Y-14025984D02*
X10686848Y-14054555D01*
X10686848Y-14054555D02*
X10667801Y-14073603D01*
X10667801Y-14073603D02*
X10648753Y-14083127D01*
X10848753Y-14206936D02*
X10858277Y-14216460D01*
X10858277Y-14216460D02*
X10848753Y-14225984D01*
X10848753Y-14225984D02*
X10839229Y-14216460D01*
X10839229Y-14216460D02*
X10848753Y-14206936D01*
X10848753Y-14206936D02*
X10848753Y-14225984D01*
X11048753Y-14225984D02*
X10934467Y-14225984D01*
X10991610Y-14225984D02*
X10991610Y-14025984D01*
X10991610Y-14025984D02*
X10972563Y-14054555D01*
X10972563Y-14054555D02*
X10953515Y-14073603D01*
X10953515Y-14073603D02*
X10934467Y-14083127D01*
X11172563Y-14025984D02*
X11191610Y-14025984D01*
X11191610Y-14025984D02*
X11210658Y-14035508D01*
X11210658Y-14035508D02*
X11220182Y-14045031D01*
X11220182Y-14045031D02*
X11229705Y-14064079D01*
X11229705Y-14064079D02*
X11239229Y-14102174D01*
X11239229Y-14102174D02*
X11239229Y-14149793D01*
X11239229Y-14149793D02*
X11229705Y-14187888D01*
X11229705Y-14187888D02*
X11220182Y-14206936D01*
X11220182Y-14206936D02*
X11210658Y-14216460D01*
X11210658Y-14216460D02*
X11191610Y-14225984D01*
X11191610Y-14225984D02*
X11172563Y-14225984D01*
X11172563Y-14225984D02*
X11153515Y-14216460D01*
X11153515Y-14216460D02*
X11143991Y-14206936D01*
X11143991Y-14206936D02*
X11134467Y-14187888D01*
X11134467Y-14187888D02*
X11124944Y-14149793D01*
X11124944Y-14149793D02*
X11124944Y-14102174D01*
X11124944Y-14102174D02*
X11134467Y-14064079D01*
X11134467Y-14064079D02*
X11143991Y-14045031D01*
X11143991Y-14045031D02*
X11153515Y-14035508D01*
X11153515Y-14035508D02*
X11172563Y-14025984D01*
X11363039Y-14025984D02*
X11382086Y-14025984D01*
X11382086Y-14025984D02*
X11401134Y-14035508D01*
X11401134Y-14035508D02*
X11410658Y-14045031D01*
X11410658Y-14045031D02*
X11420182Y-14064079D01*
X11420182Y-14064079D02*
X11429705Y-14102174D01*
X11429705Y-14102174D02*
X11429705Y-14149793D01*
X11429705Y-14149793D02*
X11420182Y-14187888D01*
X11420182Y-14187888D02*
X11410658Y-14206936D01*
X11410658Y-14206936D02*
X11401134Y-14216460D01*
X11401134Y-14216460D02*
X11382086Y-14225984D01*
X11382086Y-14225984D02*
X11363039Y-14225984D01*
X11363039Y-14225984D02*
X11343991Y-14216460D01*
X11343991Y-14216460D02*
X11334467Y-14206936D01*
X11334467Y-14206936D02*
X11324943Y-14187888D01*
X11324943Y-14187888D02*
X11315420Y-14149793D01*
X11315420Y-14149793D02*
X11315420Y-14102174D01*
X11315420Y-14102174D02*
X11324943Y-14064079D01*
X11324943Y-14064079D02*
X11334467Y-14045031D01*
X11334467Y-14045031D02*
X11343991Y-14035508D01*
X11343991Y-14035508D02*
X11363039Y-14025984D01*
X11515420Y-14225984D02*
X11515420Y-14092650D01*
X11515420Y-14111698D02*
X11524943Y-14102174D01*
X11524943Y-14102174D02*
X11543991Y-14092650D01*
X11543991Y-14092650D02*
X11572563Y-14092650D01*
X11572563Y-14092650D02*
X11591610Y-14102174D01*
X11591610Y-14102174D02*
X11601134Y-14121222D01*
X11601134Y-14121222D02*
X11601134Y-14225984D01*
X11601134Y-14121222D02*
X11610658Y-14102174D01*
X11610658Y-14102174D02*
X11629705Y-14092650D01*
X11629705Y-14092650D02*
X11658277Y-14092650D01*
X11658277Y-14092650D02*
X11677324Y-14102174D01*
X11677324Y-14102174D02*
X11686848Y-14121222D01*
X11686848Y-14121222D02*
X11686848Y-14225984D01*
X11782086Y-14225984D02*
X11782086Y-14092650D01*
X11782086Y-14111698D02*
X11791610Y-14102174D01*
X11791610Y-14102174D02*
X11810658Y-14092650D01*
X11810658Y-14092650D02*
X11839229Y-14092650D01*
X11839229Y-14092650D02*
X11858277Y-14102174D01*
X11858277Y-14102174D02*
X11867801Y-14121222D01*
X11867801Y-14121222D02*
X11867801Y-14225984D01*
X11867801Y-14121222D02*
X11877324Y-14102174D01*
X11877324Y-14102174D02*
X11896372Y-14092650D01*
X11896372Y-14092650D02*
X11924943Y-14092650D01*
X11924943Y-14092650D02*
X11943991Y-14102174D01*
X11943991Y-14102174D02*
X11953515Y-14121222D01*
X11953515Y-14121222D02*
X11953515Y-14225984D01*
X12343991Y-14016460D02*
X12172563Y-14273603D01*
X12601134Y-14025984D02*
X12620182Y-14025984D01*
X12620182Y-14025984D02*
X12639229Y-14035508D01*
X12639229Y-14035508D02*
X12648753Y-14045031D01*
X12648753Y-14045031D02*
X12658277Y-14064079D01*
X12658277Y-14064079D02*
X12667801Y-14102174D01*
X12667801Y-14102174D02*
X12667801Y-14149793D01*
X12667801Y-14149793D02*
X12658277Y-14187888D01*
X12658277Y-14187888D02*
X12648753Y-14206936D01*
X12648753Y-14206936D02*
X12639229Y-14216460D01*
X12639229Y-14216460D02*
X12620182Y-14225984D01*
X12620182Y-14225984D02*
X12601134Y-14225984D01*
X12601134Y-14225984D02*
X12582086Y-14216460D01*
X12582086Y-14216460D02*
X12572563Y-14206936D01*
X12572563Y-14206936D02*
X12563039Y-14187888D01*
X12563039Y-14187888D02*
X12553515Y-14149793D01*
X12553515Y-14149793D02*
X12553515Y-14102174D01*
X12553515Y-14102174D02*
X12563039Y-14064079D01*
X12563039Y-14064079D02*
X12572563Y-14045031D01*
X12572563Y-14045031D02*
X12582086Y-14035508D01*
X12582086Y-14035508D02*
X12601134Y-14025984D01*
X12753515Y-14206936D02*
X12763039Y-14216460D01*
X12763039Y-14216460D02*
X12753515Y-14225984D01*
X12753515Y-14225984D02*
X12743991Y-14216460D01*
X12743991Y-14216460D02*
X12753515Y-14206936D01*
X12753515Y-14206936D02*
X12753515Y-14225984D01*
X12886848Y-14025984D02*
X12905896Y-14025984D01*
X12905896Y-14025984D02*
X12924944Y-14035508D01*
X12924944Y-14035508D02*
X12934467Y-14045031D01*
X12934467Y-14045031D02*
X12943991Y-14064079D01*
X12943991Y-14064079D02*
X12953515Y-14102174D01*
X12953515Y-14102174D02*
X12953515Y-14149793D01*
X12953515Y-14149793D02*
X12943991Y-14187888D01*
X12943991Y-14187888D02*
X12934467Y-14206936D01*
X12934467Y-14206936D02*
X12924944Y-14216460D01*
X12924944Y-14216460D02*
X12905896Y-14225984D01*
X12905896Y-14225984D02*
X12886848Y-14225984D01*
X12886848Y-14225984D02*
X12867801Y-14216460D01*
X12867801Y-14216460D02*
X12858277Y-14206936D01*
X12858277Y-14206936D02*
X12848753Y-14187888D01*
X12848753Y-14187888D02*
X12839229Y-14149793D01*
X12839229Y-14149793D02*
X12839229Y-14102174D01*
X12839229Y-14102174D02*
X12848753Y-14064079D01*
X12848753Y-14064079D02*
X12858277Y-14045031D01*
X12858277Y-14045031D02*
X12867801Y-14035508D01*
X12867801Y-14035508D02*
X12886848Y-14025984D01*
X13124944Y-14092650D02*
X13124944Y-14225984D01*
X13077325Y-14016460D02*
X13029706Y-14159317D01*
X13029706Y-14159317D02*
X13153515Y-14159317D01*
X13210658Y-14025984D02*
X13334467Y-14025984D01*
X13334467Y-14025984D02*
X13267801Y-14102174D01*
X13267801Y-14102174D02*
X13296372Y-14102174D01*
X13296372Y-14102174D02*
X13315420Y-14111698D01*
X13315420Y-14111698D02*
X13324944Y-14121222D01*
X13324944Y-14121222D02*
X13334467Y-14140269D01*
X13334467Y-14140269D02*
X13334467Y-14187888D01*
X13334467Y-14187888D02*
X13324944Y-14206936D01*
X13324944Y-14206936D02*
X13315420Y-14216460D01*
X13315420Y-14216460D02*
X13296372Y-14225984D01*
X13296372Y-14225984D02*
X13239229Y-14225984D01*
X13239229Y-14225984D02*
X13220182Y-14216460D01*
X13220182Y-14216460D02*
X13210658Y-14206936D01*
X13401134Y-14025984D02*
X13524944Y-14025984D01*
X13524944Y-14025984D02*
X13458277Y-14102174D01*
X13458277Y-14102174D02*
X13486848Y-14102174D01*
X13486848Y-14102174D02*
X13505896Y-14111698D01*
X13505896Y-14111698D02*
X13515420Y-14121222D01*
X13515420Y-14121222D02*
X13524944Y-14140269D01*
X13524944Y-14140269D02*
X13524944Y-14187888D01*
X13524944Y-14187888D02*
X13515420Y-14206936D01*
X13515420Y-14206936D02*
X13505896Y-14216460D01*
X13505896Y-14216460D02*
X13486848Y-14225984D01*
X13486848Y-14225984D02*
X13429706Y-14225984D01*
X13429706Y-14225984D02*
X13410658Y-14216460D01*
X13410658Y-14216460D02*
X13401134Y-14206936D01*
X13601134Y-14025984D02*
X13601134Y-14064079D01*
X13677325Y-14025984D02*
X13677325Y-14064079D01*
X13972563Y-14302174D02*
X13963039Y-14292650D01*
X13963039Y-14292650D02*
X13943991Y-14264079D01*
X13943991Y-14264079D02*
X13934468Y-14245031D01*
X13934468Y-14245031D02*
X13924944Y-14216460D01*
X13924944Y-14216460D02*
X13915420Y-14168841D01*
X13915420Y-14168841D02*
X13915420Y-14130746D01*
X13915420Y-14130746D02*
X13924944Y-14083127D01*
X13924944Y-14083127D02*
X13934468Y-14054555D01*
X13934468Y-14054555D02*
X13943991Y-14035508D01*
X13943991Y-14035508D02*
X13963039Y-14006936D01*
X13963039Y-14006936D02*
X13972563Y-13997412D01*
X14134468Y-14092650D02*
X14134468Y-14225984D01*
X14086848Y-14016460D02*
X14039229Y-14159317D01*
X14039229Y-14159317D02*
X14163039Y-14159317D01*
X14267801Y-14111698D02*
X14248753Y-14102174D01*
X14248753Y-14102174D02*
X14239229Y-14092650D01*
X14239229Y-14092650D02*
X14229706Y-14073603D01*
X14229706Y-14073603D02*
X14229706Y-14064079D01*
X14229706Y-14064079D02*
X14239229Y-14045031D01*
X14239229Y-14045031D02*
X14248753Y-14035508D01*
X14248753Y-14035508D02*
X14267801Y-14025984D01*
X14267801Y-14025984D02*
X14305896Y-14025984D01*
X14305896Y-14025984D02*
X14324944Y-14035508D01*
X14324944Y-14035508D02*
X14334468Y-14045031D01*
X14334468Y-14045031D02*
X14343991Y-14064079D01*
X14343991Y-14064079D02*
X14343991Y-14073603D01*
X14343991Y-14073603D02*
X14334468Y-14092650D01*
X14334468Y-14092650D02*
X14324944Y-14102174D01*
X14324944Y-14102174D02*
X14305896Y-14111698D01*
X14305896Y-14111698D02*
X14267801Y-14111698D01*
X14267801Y-14111698D02*
X14248753Y-14121222D01*
X14248753Y-14121222D02*
X14239229Y-14130746D01*
X14239229Y-14130746D02*
X14229706Y-14149793D01*
X14229706Y-14149793D02*
X14229706Y-14187888D01*
X14229706Y-14187888D02*
X14239229Y-14206936D01*
X14239229Y-14206936D02*
X14248753Y-14216460D01*
X14248753Y-14216460D02*
X14267801Y-14225984D01*
X14267801Y-14225984D02*
X14305896Y-14225984D01*
X14305896Y-14225984D02*
X14324944Y-14216460D01*
X14324944Y-14216460D02*
X14334468Y-14206936D01*
X14334468Y-14206936D02*
X14343991Y-14187888D01*
X14343991Y-14187888D02*
X14343991Y-14149793D01*
X14343991Y-14149793D02*
X14334468Y-14130746D01*
X14334468Y-14130746D02*
X14324944Y-14121222D01*
X14324944Y-14121222D02*
X14305896Y-14111698D01*
X14582087Y-14225984D02*
X14582087Y-14025984D01*
X14667801Y-14225984D02*
X14667801Y-14121222D01*
X14667801Y-14121222D02*
X14658277Y-14102174D01*
X14658277Y-14102174D02*
X14639230Y-14092650D01*
X14639230Y-14092650D02*
X14610658Y-14092650D01*
X14610658Y-14092650D02*
X14591610Y-14102174D01*
X14591610Y-14102174D02*
X14582087Y-14111698D01*
X14791610Y-14225984D02*
X14772563Y-14216460D01*
X14772563Y-14216460D02*
X14763039Y-14206936D01*
X14763039Y-14206936D02*
X14753515Y-14187888D01*
X14753515Y-14187888D02*
X14753515Y-14130746D01*
X14753515Y-14130746D02*
X14763039Y-14111698D01*
X14763039Y-14111698D02*
X14772563Y-14102174D01*
X14772563Y-14102174D02*
X14791610Y-14092650D01*
X14791610Y-14092650D02*
X14820182Y-14092650D01*
X14820182Y-14092650D02*
X14839230Y-14102174D01*
X14839230Y-14102174D02*
X14848753Y-14111698D01*
X14848753Y-14111698D02*
X14858277Y-14130746D01*
X14858277Y-14130746D02*
X14858277Y-14187888D01*
X14858277Y-14187888D02*
X14848753Y-14206936D01*
X14848753Y-14206936D02*
X14839230Y-14216460D01*
X14839230Y-14216460D02*
X14820182Y-14225984D01*
X14820182Y-14225984D02*
X14791610Y-14225984D01*
X14972563Y-14225984D02*
X14953515Y-14216460D01*
X14953515Y-14216460D02*
X14943991Y-14197412D01*
X14943991Y-14197412D02*
X14943991Y-14025984D01*
X15124944Y-14216460D02*
X15105896Y-14225984D01*
X15105896Y-14225984D02*
X15067801Y-14225984D01*
X15067801Y-14225984D02*
X15048753Y-14216460D01*
X15048753Y-14216460D02*
X15039230Y-14197412D01*
X15039230Y-14197412D02*
X15039230Y-14121222D01*
X15039230Y-14121222D02*
X15048753Y-14102174D01*
X15048753Y-14102174D02*
X15067801Y-14092650D01*
X15067801Y-14092650D02*
X15105896Y-14092650D01*
X15105896Y-14092650D02*
X15124944Y-14102174D01*
X15124944Y-14102174D02*
X15134468Y-14121222D01*
X15134468Y-14121222D02*
X15134468Y-14140269D01*
X15134468Y-14140269D02*
X15039230Y-14159317D01*
X15210658Y-14216460D02*
X15229706Y-14225984D01*
X15229706Y-14225984D02*
X15267801Y-14225984D01*
X15267801Y-14225984D02*
X15286849Y-14216460D01*
X15286849Y-14216460D02*
X15296372Y-14197412D01*
X15296372Y-14197412D02*
X15296372Y-14187888D01*
X15296372Y-14187888D02*
X15286849Y-14168841D01*
X15286849Y-14168841D02*
X15267801Y-14159317D01*
X15267801Y-14159317D02*
X15239230Y-14159317D01*
X15239230Y-14159317D02*
X15220182Y-14149793D01*
X15220182Y-14149793D02*
X15210658Y-14130746D01*
X15210658Y-14130746D02*
X15210658Y-14121222D01*
X15210658Y-14121222D02*
X15220182Y-14102174D01*
X15220182Y-14102174D02*
X15239230Y-14092650D01*
X15239230Y-14092650D02*
X15267801Y-14092650D01*
X15267801Y-14092650D02*
X15286849Y-14102174D01*
X15363039Y-14302174D02*
X15372563Y-14292650D01*
X15372563Y-14292650D02*
X15391611Y-14264079D01*
X15391611Y-14264079D02*
X15401134Y-14245031D01*
X15401134Y-14245031D02*
X15410658Y-14216460D01*
X15410658Y-14216460D02*
X15420182Y-14168841D01*
X15420182Y-14168841D02*
X15420182Y-14130746D01*
X15420182Y-14130746D02*
X15410658Y-14083127D01*
X15410658Y-14083127D02*
X15401134Y-14054555D01*
X15401134Y-14054555D02*
X15391611Y-14035508D01*
X15391611Y-14035508D02*
X15372563Y-14006936D01*
X15372563Y-14006936D02*
X15363039Y-13997412D01*
D14*
X10312500Y-14483500D02*
X10397500Y-14398500D01*
X10312500Y-14313500D01*
X10227500Y-14398500D01*
X10312500Y-14483500D01*
D11*
X10763039Y-14489984D02*
X10648753Y-14489984D01*
X10705896Y-14489984D02*
X10705896Y-14289984D01*
X10705896Y-14289984D02*
X10686848Y-14318555D01*
X10686848Y-14318555D02*
X10667801Y-14337603D01*
X10667801Y-14337603D02*
X10648753Y-14347127D01*
X10848753Y-14470936D02*
X10858277Y-14480460D01*
X10858277Y-14480460D02*
X10848753Y-14489984D01*
X10848753Y-14489984D02*
X10839229Y-14480460D01*
X10839229Y-14480460D02*
X10848753Y-14470936D01*
X10848753Y-14470936D02*
X10848753Y-14489984D01*
X10924944Y-14289984D02*
X11058277Y-14289984D01*
X11058277Y-14289984D02*
X10972563Y-14489984D01*
X11172563Y-14289984D02*
X11191610Y-14289984D01*
X11191610Y-14289984D02*
X11210658Y-14299508D01*
X11210658Y-14299508D02*
X11220182Y-14309031D01*
X11220182Y-14309031D02*
X11229705Y-14328079D01*
X11229705Y-14328079D02*
X11239229Y-14366174D01*
X11239229Y-14366174D02*
X11239229Y-14413793D01*
X11239229Y-14413793D02*
X11229705Y-14451888D01*
X11229705Y-14451888D02*
X11220182Y-14470936D01*
X11220182Y-14470936D02*
X11210658Y-14480460D01*
X11210658Y-14480460D02*
X11191610Y-14489984D01*
X11191610Y-14489984D02*
X11172563Y-14489984D01*
X11172563Y-14489984D02*
X11153515Y-14480460D01*
X11153515Y-14480460D02*
X11143991Y-14470936D01*
X11143991Y-14470936D02*
X11134467Y-14451888D01*
X11134467Y-14451888D02*
X11124944Y-14413793D01*
X11124944Y-14413793D02*
X11124944Y-14366174D01*
X11124944Y-14366174D02*
X11134467Y-14328079D01*
X11134467Y-14328079D02*
X11143991Y-14309031D01*
X11143991Y-14309031D02*
X11153515Y-14299508D01*
X11153515Y-14299508D02*
X11172563Y-14289984D01*
X11363039Y-14289984D02*
X11382086Y-14289984D01*
X11382086Y-14289984D02*
X11401134Y-14299508D01*
X11401134Y-14299508D02*
X11410658Y-14309031D01*
X11410658Y-14309031D02*
X11420182Y-14328079D01*
X11420182Y-14328079D02*
X11429705Y-14366174D01*
X11429705Y-14366174D02*
X11429705Y-14413793D01*
X11429705Y-14413793D02*
X11420182Y-14451888D01*
X11420182Y-14451888D02*
X11410658Y-14470936D01*
X11410658Y-14470936D02*
X11401134Y-14480460D01*
X11401134Y-14480460D02*
X11382086Y-14489984D01*
X11382086Y-14489984D02*
X11363039Y-14489984D01*
X11363039Y-14489984D02*
X11343991Y-14480460D01*
X11343991Y-14480460D02*
X11334467Y-14470936D01*
X11334467Y-14470936D02*
X11324943Y-14451888D01*
X11324943Y-14451888D02*
X11315420Y-14413793D01*
X11315420Y-14413793D02*
X11315420Y-14366174D01*
X11315420Y-14366174D02*
X11324943Y-14328079D01*
X11324943Y-14328079D02*
X11334467Y-14309031D01*
X11334467Y-14309031D02*
X11343991Y-14299508D01*
X11343991Y-14299508D02*
X11363039Y-14289984D01*
X11515420Y-14489984D02*
X11515420Y-14356650D01*
X11515420Y-14375698D02*
X11524943Y-14366174D01*
X11524943Y-14366174D02*
X11543991Y-14356650D01*
X11543991Y-14356650D02*
X11572563Y-14356650D01*
X11572563Y-14356650D02*
X11591610Y-14366174D01*
X11591610Y-14366174D02*
X11601134Y-14385222D01*
X11601134Y-14385222D02*
X11601134Y-14489984D01*
X11601134Y-14385222D02*
X11610658Y-14366174D01*
X11610658Y-14366174D02*
X11629705Y-14356650D01*
X11629705Y-14356650D02*
X11658277Y-14356650D01*
X11658277Y-14356650D02*
X11677324Y-14366174D01*
X11677324Y-14366174D02*
X11686848Y-14385222D01*
X11686848Y-14385222D02*
X11686848Y-14489984D01*
X11782086Y-14489984D02*
X11782086Y-14356650D01*
X11782086Y-14375698D02*
X11791610Y-14366174D01*
X11791610Y-14366174D02*
X11810658Y-14356650D01*
X11810658Y-14356650D02*
X11839229Y-14356650D01*
X11839229Y-14356650D02*
X11858277Y-14366174D01*
X11858277Y-14366174D02*
X11867801Y-14385222D01*
X11867801Y-14385222D02*
X11867801Y-14489984D01*
X11867801Y-14385222D02*
X11877324Y-14366174D01*
X11877324Y-14366174D02*
X11896372Y-14356650D01*
X11896372Y-14356650D02*
X11924943Y-14356650D01*
X11924943Y-14356650D02*
X11943991Y-14366174D01*
X11943991Y-14366174D02*
X11953515Y-14385222D01*
X11953515Y-14385222D02*
X11953515Y-14489984D01*
X12343991Y-14280460D02*
X12172563Y-14537603D01*
X12601134Y-14289984D02*
X12620182Y-14289984D01*
X12620182Y-14289984D02*
X12639229Y-14299508D01*
X12639229Y-14299508D02*
X12648753Y-14309031D01*
X12648753Y-14309031D02*
X12658277Y-14328079D01*
X12658277Y-14328079D02*
X12667801Y-14366174D01*
X12667801Y-14366174D02*
X12667801Y-14413793D01*
X12667801Y-14413793D02*
X12658277Y-14451888D01*
X12658277Y-14451888D02*
X12648753Y-14470936D01*
X12648753Y-14470936D02*
X12639229Y-14480460D01*
X12639229Y-14480460D02*
X12620182Y-14489984D01*
X12620182Y-14489984D02*
X12601134Y-14489984D01*
X12601134Y-14489984D02*
X12582086Y-14480460D01*
X12582086Y-14480460D02*
X12572563Y-14470936D01*
X12572563Y-14470936D02*
X12563039Y-14451888D01*
X12563039Y-14451888D02*
X12553515Y-14413793D01*
X12553515Y-14413793D02*
X12553515Y-14366174D01*
X12553515Y-14366174D02*
X12563039Y-14328079D01*
X12563039Y-14328079D02*
X12572563Y-14309031D01*
X12572563Y-14309031D02*
X12582086Y-14299508D01*
X12582086Y-14299508D02*
X12601134Y-14289984D01*
X12753515Y-14470936D02*
X12763039Y-14480460D01*
X12763039Y-14480460D02*
X12753515Y-14489984D01*
X12753515Y-14489984D02*
X12743991Y-14480460D01*
X12743991Y-14480460D02*
X12753515Y-14470936D01*
X12753515Y-14470936D02*
X12753515Y-14489984D01*
X12886848Y-14289984D02*
X12905896Y-14289984D01*
X12905896Y-14289984D02*
X12924944Y-14299508D01*
X12924944Y-14299508D02*
X12934467Y-14309031D01*
X12934467Y-14309031D02*
X12943991Y-14328079D01*
X12943991Y-14328079D02*
X12953515Y-14366174D01*
X12953515Y-14366174D02*
X12953515Y-14413793D01*
X12953515Y-14413793D02*
X12943991Y-14451888D01*
X12943991Y-14451888D02*
X12934467Y-14470936D01*
X12934467Y-14470936D02*
X12924944Y-14480460D01*
X12924944Y-14480460D02*
X12905896Y-14489984D01*
X12905896Y-14489984D02*
X12886848Y-14489984D01*
X12886848Y-14489984D02*
X12867801Y-14480460D01*
X12867801Y-14480460D02*
X12858277Y-14470936D01*
X12858277Y-14470936D02*
X12848753Y-14451888D01*
X12848753Y-14451888D02*
X12839229Y-14413793D01*
X12839229Y-14413793D02*
X12839229Y-14366174D01*
X12839229Y-14366174D02*
X12848753Y-14328079D01*
X12848753Y-14328079D02*
X12858277Y-14309031D01*
X12858277Y-14309031D02*
X12867801Y-14299508D01*
X12867801Y-14299508D02*
X12886848Y-14289984D01*
X13124944Y-14289984D02*
X13086848Y-14289984D01*
X13086848Y-14289984D02*
X13067801Y-14299508D01*
X13067801Y-14299508D02*
X13058277Y-14309031D01*
X13058277Y-14309031D02*
X13039229Y-14337603D01*
X13039229Y-14337603D02*
X13029706Y-14375698D01*
X13029706Y-14375698D02*
X13029706Y-14451888D01*
X13029706Y-14451888D02*
X13039229Y-14470936D01*
X13039229Y-14470936D02*
X13048753Y-14480460D01*
X13048753Y-14480460D02*
X13067801Y-14489984D01*
X13067801Y-14489984D02*
X13105896Y-14489984D01*
X13105896Y-14489984D02*
X13124944Y-14480460D01*
X13124944Y-14480460D02*
X13134467Y-14470936D01*
X13134467Y-14470936D02*
X13143991Y-14451888D01*
X13143991Y-14451888D02*
X13143991Y-14404269D01*
X13143991Y-14404269D02*
X13134467Y-14385222D01*
X13134467Y-14385222D02*
X13124944Y-14375698D01*
X13124944Y-14375698D02*
X13105896Y-14366174D01*
X13105896Y-14366174D02*
X13067801Y-14366174D01*
X13067801Y-14366174D02*
X13048753Y-14375698D01*
X13048753Y-14375698D02*
X13039229Y-14385222D01*
X13039229Y-14385222D02*
X13029706Y-14404269D01*
X13315420Y-14289984D02*
X13277325Y-14289984D01*
X13277325Y-14289984D02*
X13258277Y-14299508D01*
X13258277Y-14299508D02*
X13248753Y-14309031D01*
X13248753Y-14309031D02*
X13229706Y-14337603D01*
X13229706Y-14337603D02*
X13220182Y-14375698D01*
X13220182Y-14375698D02*
X13220182Y-14451888D01*
X13220182Y-14451888D02*
X13229706Y-14470936D01*
X13229706Y-14470936D02*
X13239229Y-14480460D01*
X13239229Y-14480460D02*
X13258277Y-14489984D01*
X13258277Y-14489984D02*
X13296372Y-14489984D01*
X13296372Y-14489984D02*
X13315420Y-14480460D01*
X13315420Y-14480460D02*
X13324944Y-14470936D01*
X13324944Y-14470936D02*
X13334467Y-14451888D01*
X13334467Y-14451888D02*
X13334467Y-14404269D01*
X13334467Y-14404269D02*
X13324944Y-14385222D01*
X13324944Y-14385222D02*
X13315420Y-14375698D01*
X13315420Y-14375698D02*
X13296372Y-14366174D01*
X13296372Y-14366174D02*
X13258277Y-14366174D01*
X13258277Y-14366174D02*
X13239229Y-14375698D01*
X13239229Y-14375698D02*
X13229706Y-14385222D01*
X13229706Y-14385222D02*
X13220182Y-14404269D01*
X13429706Y-14489984D02*
X13467801Y-14489984D01*
X13467801Y-14489984D02*
X13486848Y-14480460D01*
X13486848Y-14480460D02*
X13496372Y-14470936D01*
X13496372Y-14470936D02*
X13515420Y-14442365D01*
X13515420Y-14442365D02*
X13524944Y-14404269D01*
X13524944Y-14404269D02*
X13524944Y-14328079D01*
X13524944Y-14328079D02*
X13515420Y-14309031D01*
X13515420Y-14309031D02*
X13505896Y-14299508D01*
X13505896Y-14299508D02*
X13486848Y-14289984D01*
X13486848Y-14289984D02*
X13448753Y-14289984D01*
X13448753Y-14289984D02*
X13429706Y-14299508D01*
X13429706Y-14299508D02*
X13420182Y-14309031D01*
X13420182Y-14309031D02*
X13410658Y-14328079D01*
X13410658Y-14328079D02*
X13410658Y-14375698D01*
X13410658Y-14375698D02*
X13420182Y-14394746D01*
X13420182Y-14394746D02*
X13429706Y-14404269D01*
X13429706Y-14404269D02*
X13448753Y-14413793D01*
X13448753Y-14413793D02*
X13486848Y-14413793D01*
X13486848Y-14413793D02*
X13505896Y-14404269D01*
X13505896Y-14404269D02*
X13515420Y-14394746D01*
X13515420Y-14394746D02*
X13524944Y-14375698D01*
X13601134Y-14289984D02*
X13601134Y-14328079D01*
X13677325Y-14289984D02*
X13677325Y-14328079D01*
X13972563Y-14566174D02*
X13963039Y-14556650D01*
X13963039Y-14556650D02*
X13943991Y-14528079D01*
X13943991Y-14528079D02*
X13934468Y-14509031D01*
X13934468Y-14509031D02*
X13924944Y-14480460D01*
X13924944Y-14480460D02*
X13915420Y-14432841D01*
X13915420Y-14432841D02*
X13915420Y-14394746D01*
X13915420Y-14394746D02*
X13924944Y-14347127D01*
X13924944Y-14347127D02*
X13934468Y-14318555D01*
X13934468Y-14318555D02*
X13943991Y-14299508D01*
X13943991Y-14299508D02*
X13963039Y-14270936D01*
X13963039Y-14270936D02*
X13972563Y-14261412D01*
X14039229Y-14309031D02*
X14048753Y-14299508D01*
X14048753Y-14299508D02*
X14067801Y-14289984D01*
X14067801Y-14289984D02*
X14115420Y-14289984D01*
X14115420Y-14289984D02*
X14134468Y-14299508D01*
X14134468Y-14299508D02*
X14143991Y-14309031D01*
X14143991Y-14309031D02*
X14153515Y-14328079D01*
X14153515Y-14328079D02*
X14153515Y-14347127D01*
X14153515Y-14347127D02*
X14143991Y-14375698D01*
X14143991Y-14375698D02*
X14029706Y-14489984D01*
X14029706Y-14489984D02*
X14153515Y-14489984D01*
X14391610Y-14489984D02*
X14391610Y-14289984D01*
X14477325Y-14489984D02*
X14477325Y-14385222D01*
X14477325Y-14385222D02*
X14467801Y-14366174D01*
X14467801Y-14366174D02*
X14448753Y-14356650D01*
X14448753Y-14356650D02*
X14420182Y-14356650D01*
X14420182Y-14356650D02*
X14401134Y-14366174D01*
X14401134Y-14366174D02*
X14391610Y-14375698D01*
X14601134Y-14489984D02*
X14582087Y-14480460D01*
X14582087Y-14480460D02*
X14572563Y-14470936D01*
X14572563Y-14470936D02*
X14563039Y-14451888D01*
X14563039Y-14451888D02*
X14563039Y-14394746D01*
X14563039Y-14394746D02*
X14572563Y-14375698D01*
X14572563Y-14375698D02*
X14582087Y-14366174D01*
X14582087Y-14366174D02*
X14601134Y-14356650D01*
X14601134Y-14356650D02*
X14629706Y-14356650D01*
X14629706Y-14356650D02*
X14648753Y-14366174D01*
X14648753Y-14366174D02*
X14658277Y-14375698D01*
X14658277Y-14375698D02*
X14667801Y-14394746D01*
X14667801Y-14394746D02*
X14667801Y-14451888D01*
X14667801Y-14451888D02*
X14658277Y-14470936D01*
X14658277Y-14470936D02*
X14648753Y-14480460D01*
X14648753Y-14480460D02*
X14629706Y-14489984D01*
X14629706Y-14489984D02*
X14601134Y-14489984D01*
X14782087Y-14489984D02*
X14763039Y-14480460D01*
X14763039Y-14480460D02*
X14753515Y-14461412D01*
X14753515Y-14461412D02*
X14753515Y-14289984D01*
X14934468Y-14480460D02*
X14915420Y-14489984D01*
X14915420Y-14489984D02*
X14877325Y-14489984D01*
X14877325Y-14489984D02*
X14858277Y-14480460D01*
X14858277Y-14480460D02*
X14848753Y-14461412D01*
X14848753Y-14461412D02*
X14848753Y-14385222D01*
X14848753Y-14385222D02*
X14858277Y-14366174D01*
X14858277Y-14366174D02*
X14877325Y-14356650D01*
X14877325Y-14356650D02*
X14915420Y-14356650D01*
X14915420Y-14356650D02*
X14934468Y-14366174D01*
X14934468Y-14366174D02*
X14943991Y-14385222D01*
X14943991Y-14385222D02*
X14943991Y-14404269D01*
X14943991Y-14404269D02*
X14848753Y-14423317D01*
X15020182Y-14480460D02*
X15039230Y-14489984D01*
X15039230Y-14489984D02*
X15077325Y-14489984D01*
X15077325Y-14489984D02*
X15096372Y-14480460D01*
X15096372Y-14480460D02*
X15105896Y-14461412D01*
X15105896Y-14461412D02*
X15105896Y-14451888D01*
X15105896Y-14451888D02*
X15096372Y-14432841D01*
X15096372Y-14432841D02*
X15077325Y-14423317D01*
X15077325Y-14423317D02*
X15048753Y-14423317D01*
X15048753Y-14423317D02*
X15029706Y-14413793D01*
X15029706Y-14413793D02*
X15020182Y-14394746D01*
X15020182Y-14394746D02*
X15020182Y-14385222D01*
X15020182Y-14385222D02*
X15029706Y-14366174D01*
X15029706Y-14366174D02*
X15048753Y-14356650D01*
X15048753Y-14356650D02*
X15077325Y-14356650D01*
X15077325Y-14356650D02*
X15096372Y-14366174D01*
X15172563Y-14566174D02*
X15182087Y-14556650D01*
X15182087Y-14556650D02*
X15201134Y-14528079D01*
X15201134Y-14528079D02*
X15210658Y-14509031D01*
X15210658Y-14509031D02*
X15220182Y-14480460D01*
X15220182Y-14480460D02*
X15229706Y-14432841D01*
X15229706Y-14432841D02*
X15229706Y-14394746D01*
X15229706Y-14394746D02*
X15220182Y-14347127D01*
X15220182Y-14347127D02*
X15210658Y-14318555D01*
X15210658Y-14318555D02*
X15201134Y-14299508D01*
X15201134Y-14299508D02*
X15182087Y-14270936D01*
X15182087Y-14270936D02*
X15172563Y-14261412D01*
M02*
