%TF.GenerationSoftware,KiCad,Pcbnew,8.0.8*%
%TF.CreationDate,2025-01-20T15:00:34+07:00*%
%TF.ProjectId,Teensy4.0,5465656e-7379-4342-9e30-2e6b69636164,rev?*%
%TF.SameCoordinates,Original*%
%TF.FileFunction,Soldermask,Top*%
%TF.FilePolarity,Negative*%
%FSLAX46Y46*%
G04 Gerber Fmt 4.6, Leading zero omitted, Abs format (unit mm)*
G04 Created by KiCad (PCBNEW 8.0.8) date 2025-01-20 15:00:34*
%MOMM*%
%LPD*%
G01*
G04 APERTURE LIST*
G04 Aperture macros list*
%AMRoundRect*
0 Rectangle with rounded corners*
0 $1 Rounding radius*
0 $2 $3 $4 $5 $6 $7 $8 $9 X,Y pos of 4 corners*
0 Add a 4 corners polygon primitive as box body*
4,1,4,$2,$3,$4,$5,$6,$7,$8,$9,$2,$3,0*
0 Add four circle primitives for the rounded corners*
1,1,$1+$1,$2,$3*
1,1,$1+$1,$4,$5*
1,1,$1+$1,$6,$7*
1,1,$1+$1,$8,$9*
0 Add four rect primitives between the rounded corners*
20,1,$1+$1,$2,$3,$4,$5,0*
20,1,$1+$1,$4,$5,$6,$7,0*
20,1,$1+$1,$6,$7,$8,$9,0*
20,1,$1+$1,$8,$9,$2,$3,0*%
G04 Aperture macros list end*
%ADD10C,0.000000*%
%ADD11R,0.300000X0.850000*%
%ADD12RoundRect,0.250000X-0.350000X-0.625000X0.350000X-0.625000X0.350000X0.625000X-0.350000X0.625000X0*%
%ADD13O,1.200000X1.750000*%
%ADD14R,2.000000X2.000000*%
%ADD15C,2.000000*%
%ADD16C,3.200000*%
%ADD17RoundRect,0.250000X0.475000X-0.337500X0.475000X0.337500X-0.475000X0.337500X-0.475000X-0.337500X0*%
%ADD18R,1.700000X1.700000*%
%ADD19O,1.700000X1.700000*%
%ADD20RoundRect,0.250000X-0.475000X0.337500X-0.475000X-0.337500X0.475000X-0.337500X0.475000X0.337500X0*%
%ADD21RoundRect,0.250000X0.350000X0.450000X-0.350000X0.450000X-0.350000X-0.450000X0.350000X-0.450000X0*%
%ADD22RoundRect,0.250000X-0.350000X-0.450000X0.350000X-0.450000X0.350000X0.450000X-0.350000X0.450000X0*%
%ADD23RoundRect,0.250000X-0.337500X-0.475000X0.337500X-0.475000X0.337500X0.475000X-0.337500X0.475000X0*%
%ADD24RoundRect,0.250000X0.337500X0.475000X-0.337500X0.475000X-0.337500X-0.475000X0.337500X-0.475000X0*%
%ADD25RoundRect,0.050000X-0.225000X-0.050000X0.225000X-0.050000X0.225000X0.050000X-0.225000X0.050000X0*%
%ADD26RoundRect,0.050000X0.050000X-0.225000X0.050000X0.225000X-0.050000X0.225000X-0.050000X-0.225000X0*%
%ADD27RoundRect,0.250000X0.450000X-0.325000X0.450000X0.325000X-0.450000X0.325000X-0.450000X-0.325000X0*%
%ADD28RoundRect,0.250000X1.000000X-1.750000X1.000000X1.750000X-1.000000X1.750000X-1.000000X-1.750000X0*%
%ADD29R,0.280000X0.850000*%
%ADD30R,0.850000X0.280000*%
%ADD31C,1.700000*%
%ADD32RoundRect,0.250000X0.450000X-0.350000X0.450000X0.350000X-0.450000X0.350000X-0.450000X-0.350000X0*%
%ADD33R,2.260600X1.498600*%
%ADD34C,1.600000*%
%ADD35RoundRect,0.250000X-0.450000X0.350000X-0.450000X-0.350000X0.450000X-0.350000X0.450000X0.350000X0*%
%ADD36RoundRect,0.150000X0.512500X0.150000X-0.512500X0.150000X-0.512500X-0.150000X0.512500X-0.150000X0*%
%ADD37C,2.754000*%
%ADD38RoundRect,0.102000X-1.275000X-1.275000X1.275000X-1.275000X1.275000X1.275000X-1.275000X1.275000X0*%
%ADD39C,1.712000*%
%ADD40RoundRect,0.250000X-0.450000X0.325000X-0.450000X-0.325000X0.450000X-0.325000X0.450000X0.325000X0*%
%ADD41R,0.558800X1.422400*%
G04 APERTURE END LIST*
D10*
%TO.C,U3*%
G36*
X137313443Y-118240953D02*
G01*
X136323556Y-118240953D01*
X136323556Y-117821046D01*
X137313443Y-117821046D01*
X137313443Y-118240953D01*
G37*
G36*
X137313443Y-118740955D02*
G01*
X136323556Y-118740955D01*
X136323556Y-118321047D01*
X137313443Y-118321047D01*
X137313443Y-118740955D01*
G37*
G36*
X137313443Y-119240954D02*
G01*
X136323556Y-119240954D01*
X136323556Y-118821046D01*
X137313443Y-118821046D01*
X137313443Y-119240954D01*
G37*
G36*
X137313443Y-119740953D02*
G01*
X136323556Y-119740953D01*
X136323556Y-119321045D01*
X137313443Y-119321045D01*
X137313443Y-119740953D01*
G37*
G36*
X137313443Y-120240954D02*
G01*
X136323556Y-120240954D01*
X136323556Y-119821047D01*
X137313443Y-119821047D01*
X137313443Y-120240954D01*
G37*
G36*
X137993799Y-120119500D02*
G01*
X137498999Y-120119500D01*
X137498999Y-117942500D01*
X137993799Y-117942500D01*
X137993799Y-120119500D01*
G37*
G36*
X139675999Y-118437300D02*
G01*
X137498999Y-118437300D01*
X137498999Y-117942500D01*
X139675999Y-117942500D01*
X139675999Y-118437300D01*
G37*
G36*
X139675999Y-119224700D02*
G01*
X137498999Y-119224700D01*
X137498999Y-118837300D01*
X139675999Y-118837300D01*
X139675999Y-119224700D01*
G37*
G36*
X139675999Y-120119500D02*
G01*
X137498999Y-120119500D01*
X137498999Y-119624700D01*
X139675999Y-119624700D01*
X139675999Y-120119500D01*
G37*
G36*
X138047452Y-117794942D02*
G01*
X137627544Y-117794942D01*
X137627544Y-116805058D01*
X138047452Y-116805058D01*
X138047452Y-117794942D01*
G37*
G36*
X138047452Y-121256942D02*
G01*
X137627544Y-121256942D01*
X137627544Y-120267058D01*
X138047452Y-120267058D01*
X138047452Y-121256942D01*
G37*
G36*
X138781199Y-120119500D02*
G01*
X138393799Y-120119500D01*
X138393799Y-117942500D01*
X138781199Y-117942500D01*
X138781199Y-120119500D01*
G37*
G36*
X139547454Y-117794942D02*
G01*
X139127546Y-117794942D01*
X139127546Y-116805058D01*
X139547454Y-116805058D01*
X139547454Y-117794942D01*
G37*
G36*
X139547454Y-121256942D02*
G01*
X139127546Y-121256942D01*
X139127546Y-120267058D01*
X139547454Y-120267058D01*
X139547454Y-121256942D01*
G37*
G36*
X139675999Y-120119500D02*
G01*
X139181199Y-120119500D01*
X139181199Y-117942500D01*
X139675999Y-117942500D01*
X139675999Y-120119500D01*
G37*
G36*
X140851442Y-118240953D02*
G01*
X139861555Y-118240953D01*
X139861555Y-117821046D01*
X140851442Y-117821046D01*
X140851442Y-118240953D01*
G37*
G36*
X140851442Y-118740955D02*
G01*
X139861555Y-118740955D01*
X139861555Y-118321047D01*
X140851442Y-118321047D01*
X140851442Y-118740955D01*
G37*
G36*
X140851442Y-119240954D02*
G01*
X139861555Y-119240954D01*
X139861555Y-118821046D01*
X140851442Y-118821046D01*
X140851442Y-119240954D01*
G37*
G36*
X140851442Y-119740953D02*
G01*
X139861555Y-119740953D01*
X139861555Y-119321045D01*
X140851442Y-119321045D01*
X140851442Y-119740953D01*
G37*
G36*
X140851442Y-120240954D02*
G01*
X139861555Y-120240954D01*
X139861555Y-119821047D01*
X140851442Y-119821047D01*
X140851442Y-120240954D01*
G37*
%TO.C,U7*%
G36*
X149894942Y-96834952D02*
G01*
X148905058Y-96834952D01*
X148905058Y-96415044D01*
X149894942Y-96415044D01*
X149894942Y-96834952D01*
G37*
G36*
X149894942Y-98334954D02*
G01*
X148905058Y-98334954D01*
X148905058Y-97915046D01*
X149894942Y-97915046D01*
X149894942Y-98334954D01*
G37*
G36*
X150340953Y-96100943D02*
G01*
X149921046Y-96100943D01*
X149921046Y-95111056D01*
X150340953Y-95111056D01*
X150340953Y-96100943D01*
G37*
G36*
X150340953Y-99638942D02*
G01*
X149921046Y-99638942D01*
X149921046Y-98649055D01*
X150340953Y-98649055D01*
X150340953Y-99638942D01*
G37*
G36*
X152219500Y-96781299D02*
G01*
X150042500Y-96781299D01*
X150042500Y-96286499D01*
X152219500Y-96286499D01*
X152219500Y-96781299D01*
G37*
G36*
X152219500Y-97568699D02*
G01*
X150042500Y-97568699D01*
X150042500Y-97181299D01*
X152219500Y-97181299D01*
X152219500Y-97568699D01*
G37*
G36*
X150537300Y-98463499D02*
G01*
X150042500Y-98463499D01*
X150042500Y-96286499D01*
X150537300Y-96286499D01*
X150537300Y-98463499D01*
G37*
G36*
X152219500Y-98463499D02*
G01*
X150042500Y-98463499D01*
X150042500Y-97968699D01*
X152219500Y-97968699D01*
X152219500Y-98463499D01*
G37*
G36*
X150840955Y-96100943D02*
G01*
X150421047Y-96100943D01*
X150421047Y-95111056D01*
X150840955Y-95111056D01*
X150840955Y-96100943D01*
G37*
G36*
X150840955Y-99638942D02*
G01*
X150421047Y-99638942D01*
X150421047Y-98649055D01*
X150840955Y-98649055D01*
X150840955Y-99638942D01*
G37*
G36*
X151340954Y-96100943D02*
G01*
X150921046Y-96100943D01*
X150921046Y-95111056D01*
X151340954Y-95111056D01*
X151340954Y-96100943D01*
G37*
G36*
X151340954Y-99638942D02*
G01*
X150921046Y-99638942D01*
X150921046Y-98649055D01*
X151340954Y-98649055D01*
X151340954Y-99638942D01*
G37*
G36*
X151324700Y-98463499D02*
G01*
X150937300Y-98463499D01*
X150937300Y-96286499D01*
X151324700Y-96286499D01*
X151324700Y-98463499D01*
G37*
G36*
X151840953Y-96100943D02*
G01*
X151421045Y-96100943D01*
X151421045Y-95111056D01*
X151840953Y-95111056D01*
X151840953Y-96100943D01*
G37*
G36*
X151840953Y-99638942D02*
G01*
X151421045Y-99638942D01*
X151421045Y-98649055D01*
X151840953Y-98649055D01*
X151840953Y-99638942D01*
G37*
G36*
X152219500Y-98463499D02*
G01*
X151724700Y-98463499D01*
X151724700Y-96286499D01*
X152219500Y-96286499D01*
X152219500Y-98463499D01*
G37*
G36*
X152340954Y-96100943D02*
G01*
X151921047Y-96100943D01*
X151921047Y-95111056D01*
X152340954Y-95111056D01*
X152340954Y-96100943D01*
G37*
G36*
X152340954Y-99638942D02*
G01*
X151921047Y-99638942D01*
X151921047Y-98649055D01*
X152340954Y-98649055D01*
X152340954Y-99638942D01*
G37*
G36*
X153356942Y-96834952D02*
G01*
X152367058Y-96834952D01*
X152367058Y-96415044D01*
X153356942Y-96415044D01*
X153356942Y-96834952D01*
G37*
G36*
X153356942Y-98334954D02*
G01*
X152367058Y-98334954D01*
X152367058Y-97915046D01*
X153356942Y-97915046D01*
X153356942Y-98334954D01*
G37*
%TO.C,U4*%
G36*
X119543377Y-74809598D02*
G01*
X118554186Y-74809598D01*
X118554186Y-74390404D01*
X119543377Y-74390404D01*
X119543377Y-74809598D01*
G37*
G36*
X119543377Y-75309597D02*
G01*
X118554186Y-75309597D01*
X118554186Y-74890406D01*
X119543377Y-74890406D01*
X119543377Y-75309597D01*
G37*
G36*
X119543377Y-75809596D02*
G01*
X118554186Y-75809596D01*
X118554186Y-75390405D01*
X119543377Y-75390405D01*
X119543377Y-75809596D01*
G37*
G36*
X119543377Y-76309598D02*
G01*
X118554186Y-76309598D01*
X118554186Y-75890404D01*
X119543377Y-75890404D01*
X119543377Y-76309598D01*
G37*
G36*
X119983188Y-74369597D02*
G01*
X119563996Y-74369597D01*
X119563996Y-73380406D01*
X119983188Y-73380406D01*
X119983188Y-74369597D01*
G37*
G36*
X119983188Y-77319596D02*
G01*
X119563996Y-77319596D01*
X119563996Y-76330405D01*
X119983188Y-76330405D01*
X119983188Y-77319596D01*
G37*
G36*
X119930081Y-76263501D02*
G01*
X119610281Y-76263501D01*
X119610281Y-74436501D01*
X119930081Y-74436501D01*
X119930081Y-76263501D01*
G37*
G36*
X121437281Y-74756301D02*
G01*
X119610281Y-74756301D01*
X119610281Y-74436501D01*
X121437281Y-74436501D01*
X121437281Y-74756301D01*
G37*
G36*
X121437281Y-75543701D02*
G01*
X119610281Y-75543701D01*
X119610281Y-75156301D01*
X121437281Y-75156301D01*
X121437281Y-75543701D01*
G37*
G36*
X121437281Y-76263501D02*
G01*
X119610281Y-76263501D01*
X119610281Y-75943701D01*
X121437281Y-75943701D01*
X121437281Y-76263501D01*
G37*
G36*
X120483314Y-74369597D02*
G01*
X120064122Y-74369597D01*
X120064122Y-73380406D01*
X120483314Y-73380406D01*
X120483314Y-74369597D01*
G37*
G36*
X120483314Y-77319596D02*
G01*
X120064122Y-77319596D01*
X120064122Y-76330405D01*
X120483314Y-76330405D01*
X120483314Y-77319596D01*
G37*
G36*
X120983440Y-74369597D02*
G01*
X120564248Y-74369597D01*
X120564248Y-73380406D01*
X120983440Y-73380406D01*
X120983440Y-74369597D01*
G37*
G36*
X120983440Y-77319596D02*
G01*
X120564248Y-77319596D01*
X120564248Y-76330405D01*
X120983440Y-76330405D01*
X120983440Y-77319596D01*
G37*
G36*
X120717481Y-76263501D02*
G01*
X120330081Y-76263501D01*
X120330081Y-74436501D01*
X120717481Y-74436501D01*
X120717481Y-76263501D01*
G37*
G36*
X121483566Y-74369597D02*
G01*
X121064374Y-74369597D01*
X121064374Y-73380406D01*
X121483566Y-73380406D01*
X121483566Y-74369597D01*
G37*
G36*
X121483566Y-77319596D02*
G01*
X121064374Y-77319596D01*
X121064374Y-76330405D01*
X121483566Y-76330405D01*
X121483566Y-77319596D01*
G37*
G36*
X121437281Y-76263501D02*
G01*
X121117481Y-76263501D01*
X121117481Y-74436501D01*
X121437281Y-74436501D01*
X121437281Y-76263501D01*
G37*
G36*
X122493376Y-74809598D02*
G01*
X121504185Y-74809598D01*
X121504185Y-74390404D01*
X122493376Y-74390404D01*
X122493376Y-74809598D01*
G37*
G36*
X122493376Y-75309597D02*
G01*
X121504185Y-75309597D01*
X121504185Y-74890406D01*
X122493376Y-74890406D01*
X122493376Y-75309597D01*
G37*
G36*
X122493376Y-75809596D02*
G01*
X121504185Y-75809596D01*
X121504185Y-75390405D01*
X122493376Y-75390405D01*
X122493376Y-75809596D01*
G37*
G36*
X122493376Y-76309598D02*
G01*
X121504185Y-76309598D01*
X121504185Y-75890404D01*
X122493376Y-75890404D01*
X122493376Y-76309598D01*
G37*
%TD*%
D11*
%TO.C,IC2*%
X143350000Y-120550000D03*
X142850000Y-120550000D03*
X142350000Y-120550000D03*
X141850000Y-120550000D03*
X141850000Y-123700000D03*
X142350000Y-123700000D03*
X142850000Y-123700000D03*
X143350000Y-123700000D03*
%TD*%
D12*
%TO.C,servo1*%
X172600000Y-102250000D03*
D13*
X174600000Y-102250000D03*
X176600000Y-102250000D03*
%TD*%
D14*
%TO.C,BZ1*%
X148000000Y-120000000D03*
D15*
X155600000Y-120000000D03*
%TD*%
D16*
%TO.C,H2*%
X175000000Y-74000000D03*
%TD*%
D17*
%TO.C,C24*%
X145000000Y-96400000D03*
X145000000Y-94325000D03*
%TD*%
D18*
%TO.C,J1*%
X137790000Y-74250000D03*
D19*
X135250000Y-74250000D03*
X132710000Y-74250000D03*
X130170000Y-74250000D03*
%TD*%
D20*
%TO.C,C23*%
X147200000Y-94325000D03*
X147200000Y-96400000D03*
%TD*%
D21*
%TO.C,R11*%
X147200000Y-86450000D03*
X145200000Y-86450000D03*
%TD*%
D16*
%TO.C,H1*%
X109000000Y-74000000D03*
%TD*%
D22*
%TO.C,R1*%
X114373718Y-77225002D03*
X116373718Y-77225002D03*
%TD*%
D21*
%TO.C,R2*%
X156800000Y-99925000D03*
X154800000Y-99925000D03*
%TD*%
D23*
%TO.C,C17*%
X139400000Y-115250000D03*
X141475000Y-115250000D03*
%TD*%
D12*
%TO.C,servo13*%
X172600000Y-96650000D03*
D13*
X174600000Y-96650000D03*
X176600000Y-96650000D03*
%TD*%
D24*
%TO.C,C2*%
X109437500Y-84200000D03*
X107362500Y-84200000D03*
%TD*%
D25*
%TO.C,U6*%
X149700000Y-102425000D03*
X149700000Y-102825000D03*
X149700000Y-103225000D03*
X149700000Y-103625000D03*
X149700000Y-104025000D03*
X149700000Y-104425000D03*
D26*
X150200000Y-104925000D03*
X150600000Y-104925000D03*
X151000000Y-104925000D03*
X151400000Y-104925000D03*
X151800000Y-104925000D03*
X152200000Y-104925000D03*
D25*
X152700000Y-104425000D03*
X152700000Y-104025000D03*
X152700000Y-103625000D03*
X152700000Y-103225000D03*
X152700000Y-102825000D03*
X152700000Y-102425000D03*
D26*
X152200000Y-101925000D03*
X151800000Y-101925000D03*
X151400000Y-101925000D03*
X151000000Y-101925000D03*
X150600000Y-101925000D03*
X150200000Y-101925000D03*
%TD*%
D21*
%TO.C,R13*%
X147200000Y-84200000D03*
X145200000Y-84200000D03*
%TD*%
D23*
%TO.C,C21*%
X135600000Y-115250000D03*
X137675000Y-115250000D03*
%TD*%
D27*
%TO.C,VCC*%
X140650000Y-84425000D03*
X140650000Y-82375000D03*
%TD*%
D17*
%TO.C,C18*%
X154610000Y-104137500D03*
X154610000Y-102062500D03*
%TD*%
%TO.C,C14*%
X111600000Y-86437500D03*
X111600000Y-84362500D03*
%TD*%
D28*
%TO.C,C13*%
X152000000Y-81000000D03*
X152000000Y-73000000D03*
%TD*%
D17*
%TO.C,C16*%
X145025000Y-100387500D03*
X145025000Y-98312500D03*
%TD*%
D29*
%TO.C,U3*%
X137837498Y-117300000D03*
D30*
X136818498Y-118030999D03*
X136818498Y-118531001D03*
X136818498Y-119031000D03*
X136818498Y-119530999D03*
X136818498Y-120031001D03*
D29*
X137837498Y-120762000D03*
X139337500Y-120762000D03*
D30*
X140356500Y-120031001D03*
X140356500Y-119530999D03*
X140356500Y-119031000D03*
X140356500Y-118531001D03*
X140356500Y-118030999D03*
D29*
X139337500Y-117300000D03*
%TD*%
D21*
%TO.C,R3*%
X147200000Y-88700000D03*
X145200000Y-88700000D03*
%TD*%
D18*
%TO.C,U2*%
X115610500Y-112175000D03*
D31*
X118150500Y-112175000D03*
X115610500Y-114715000D03*
X118150500Y-114715000D03*
X115610500Y-117255000D03*
X118150500Y-117255000D03*
X115610500Y-119795000D03*
X118150500Y-119795000D03*
%TD*%
D12*
%TO.C,servo11*%
X172600000Y-85400000D03*
D13*
X174600000Y-85400000D03*
X176600000Y-85400000D03*
%TD*%
D32*
%TO.C,R9*%
X133112500Y-115050000D03*
X133112500Y-113050000D03*
%TD*%
D17*
%TO.C,C3*%
X122350000Y-113837500D03*
X122350000Y-111762500D03*
%TD*%
D12*
%TO.C,servo5*%
X163600000Y-107800000D03*
D13*
X165600000Y-107800000D03*
X167600000Y-107800000D03*
%TD*%
D12*
%TO.C,servo4*%
X163600000Y-119250000D03*
D13*
X165600000Y-119250000D03*
X167600000Y-119250000D03*
%TD*%
D18*
%TO.C,5V*%
X144250000Y-73630000D03*
D19*
X144250000Y-76170000D03*
X144250000Y-78710000D03*
%TD*%
D17*
%TO.C,C7*%
X152010000Y-108737500D03*
X152010000Y-106662500D03*
%TD*%
D12*
%TO.C,servo2*%
X163600000Y-113450000D03*
D13*
X165600000Y-113450000D03*
X167600000Y-113450000D03*
%TD*%
D17*
%TO.C,C11*%
X151600000Y-87387500D03*
X151600000Y-85312500D03*
%TD*%
D32*
%TO.C,R7*%
X107400000Y-102810000D03*
X107400000Y-100810000D03*
%TD*%
D27*
%TO.C,3V3*%
X136150000Y-84425000D03*
X136150000Y-82375000D03*
%TD*%
D20*
%TO.C,C6*%
X124573718Y-72187502D03*
X124573718Y-74262502D03*
%TD*%
D23*
%TO.C,C20*%
X135600000Y-113000000D03*
X137675000Y-113000000D03*
%TD*%
D22*
%TO.C,R4*%
X151000000Y-112000000D03*
X153000000Y-112000000D03*
%TD*%
D18*
%TO.C,S4*%
X125800000Y-84300000D03*
D19*
X125800000Y-81760000D03*
%TD*%
D24*
%TO.C,C8*%
X158025000Y-83712500D03*
X155950000Y-83712500D03*
%TD*%
D30*
%TO.C,U7*%
X149400000Y-98125000D03*
D29*
X150130999Y-99144000D03*
X150631001Y-99144000D03*
X151131000Y-99144000D03*
X151630999Y-99144000D03*
X152131001Y-99144000D03*
D30*
X152862000Y-98125000D03*
X152862000Y-96624998D03*
D29*
X152131001Y-95605998D03*
X151630999Y-95605998D03*
X151131000Y-95605998D03*
X150631001Y-95605998D03*
X150130999Y-95605998D03*
D30*
X149400000Y-96624998D03*
%TD*%
D27*
%TO.C,5V*%
X138400000Y-84425000D03*
X138400000Y-82375000D03*
%TD*%
D12*
%TO.C,servo10*%
X163600000Y-102250000D03*
D13*
X165600000Y-102250000D03*
X167600000Y-102250000D03*
%TD*%
D17*
%TO.C,C15*%
X124800000Y-113837500D03*
X124800000Y-111762500D03*
%TD*%
D33*
%TO.C,L1*%
X115673718Y-72972502D03*
X115673718Y-74877502D03*
%TD*%
D18*
%TO.C,S2*%
X131600000Y-84275000D03*
D19*
X131600000Y-81735000D03*
%TD*%
D34*
%TO.C,U1*%
X107490000Y-105620000D03*
X110030000Y-105620000D03*
X112570000Y-105620000D03*
X115110000Y-105620000D03*
X117650000Y-105620000D03*
X120190000Y-105620000D03*
X122730000Y-105620000D03*
X125270000Y-105620000D03*
X127810000Y-105620000D03*
X130350000Y-105620000D03*
X132890000Y-105620000D03*
X135430000Y-105620000D03*
X137970000Y-105620000D03*
X140510000Y-105620000D03*
X140510000Y-103080000D03*
X140510000Y-100540000D03*
X140510000Y-98000000D03*
X140510000Y-95460000D03*
X140510000Y-92920000D03*
X140510000Y-90380000D03*
X137970000Y-90380000D03*
X135430000Y-90380000D03*
X132890000Y-90380000D03*
X130350000Y-90380000D03*
X127810000Y-90380000D03*
X125270000Y-90380000D03*
X122730000Y-90380000D03*
X120190000Y-90380000D03*
X117650000Y-90380000D03*
X115110000Y-90380000D03*
X112570000Y-90380000D03*
X110030000Y-90380000D03*
X107490000Y-90380000D03*
X110030000Y-92920000D03*
X135430000Y-92920000D03*
X132890000Y-92920000D03*
X135430000Y-95460000D03*
X132890000Y-95460000D03*
X135430000Y-98000000D03*
X132890000Y-98000000D03*
X135430000Y-100540000D03*
X132890000Y-100540000D03*
X135430000Y-103080000D03*
X132890000Y-103080000D03*
%TD*%
D16*
%TO.C,H4*%
X175000000Y-122000000D03*
%TD*%
D12*
%TO.C,servo3*%
X163600000Y-96650000D03*
D13*
X165600000Y-96650000D03*
X167600000Y-96650000D03*
%TD*%
D35*
%TO.C,R14*%
X154800000Y-95525000D03*
X154800000Y-97525000D03*
%TD*%
D12*
%TO.C,servo9*%
X172600000Y-91000000D03*
D13*
X174600000Y-91000000D03*
X176600000Y-91000000D03*
%TD*%
D16*
%TO.C,H3*%
X109000000Y-122000000D03*
%TD*%
D17*
%TO.C,C19*%
X156810000Y-104137500D03*
X156810000Y-102062500D03*
%TD*%
D15*
%TO.C,button1*%
X106750000Y-116500000D03*
X106750000Y-110000000D03*
X111250000Y-116500000D03*
X111250000Y-110000000D03*
%TD*%
D18*
%TO.C,J2*%
X137790000Y-77000000D03*
D19*
X135250000Y-77000000D03*
X132710000Y-77000000D03*
X130170000Y-77000000D03*
%TD*%
D18*
%TO.C,S3*%
X128700000Y-84300000D03*
D19*
X128700000Y-81760000D03*
%TD*%
D36*
%TO.C,U5*%
X158075000Y-87700000D03*
X158075000Y-86750000D03*
X158075000Y-85800000D03*
X155800000Y-85800000D03*
X155800000Y-87700000D03*
%TD*%
D23*
%TO.C,C5*%
X120236218Y-79125002D03*
X122311218Y-79125002D03*
%TD*%
D37*
%TO.C,Main Power*%
X166900000Y-81105750D03*
D38*
X161900000Y-81105750D03*
D39*
X169900000Y-71105750D03*
X158900000Y-71105750D03*
%TD*%
D40*
%TO.C,D3*%
X145200000Y-112375000D03*
X145200000Y-114425000D03*
%TD*%
D17*
%TO.C,C12*%
X153822500Y-87425000D03*
X153822500Y-85350000D03*
%TD*%
D12*
%TO.C,servo12*%
X163600000Y-91050000D03*
D13*
X165600000Y-91050000D03*
X167600000Y-91050000D03*
%TD*%
D41*
%TO.C,U8*%
X158152500Y-111669600D03*
X156247500Y-111669600D03*
X157200000Y-113600000D03*
%TD*%
D23*
%TO.C,C4*%
X118136218Y-71625002D03*
X120211218Y-71625002D03*
%TD*%
D30*
%TO.C,U4*%
X119048780Y-74600000D03*
X119048780Y-75100001D03*
X119048780Y-75600001D03*
X119048780Y-76100002D03*
D29*
X119773592Y-76825002D03*
X120273718Y-76825002D03*
X120773844Y-76825002D03*
X121273970Y-76825002D03*
D30*
X121998782Y-76100002D03*
X121998782Y-75600001D03*
X121998782Y-75100001D03*
X121998782Y-74600000D03*
D29*
X121273970Y-73875000D03*
X120773844Y-73875000D03*
X120273718Y-73875000D03*
X119773592Y-73875000D03*
%TD*%
D12*
%TO.C,servo8*%
X172600000Y-113450000D03*
D13*
X174600000Y-113450000D03*
X176600000Y-113450000D03*
%TD*%
D23*
%TO.C,C10*%
X139400000Y-113000000D03*
X141475000Y-113000000D03*
%TD*%
D20*
%TO.C,C22*%
X147200000Y-98325000D03*
X147200000Y-100400000D03*
%TD*%
D24*
%TO.C,C1*%
X109437500Y-86450000D03*
X107362500Y-86450000D03*
%TD*%
D23*
%TO.C,C9*%
X107962500Y-81200000D03*
X110037500Y-81200000D03*
%TD*%
D12*
%TO.C,servo6*%
X163600000Y-85400000D03*
D13*
X165600000Y-85400000D03*
X167600000Y-85400000D03*
%TD*%
D12*
%TO.C,servo7*%
X172600000Y-107800000D03*
D13*
X174600000Y-107800000D03*
X176600000Y-107800000D03*
%TD*%
D18*
%TO.C,GND*%
X141500000Y-73670000D03*
D19*
X141500000Y-76210000D03*
X141500000Y-78750000D03*
%TD*%
M02*
