%TF.GenerationSoftware,KiCad,Pcbnew,8.0.8*%
%TF.CreationDate,2025-01-20T15:00:34+07:00*%
%TF.ProjectId,Teensy4.0,5465656e-7379-4342-9e30-2e6b69636164,rev?*%
%TF.SameCoordinates,Original*%
%TF.FileFunction,Copper,L4,Bot*%
%TF.FilePolarity,Positive*%
%FSLAX46Y46*%
G04 Gerber Fmt 4.6, Leading zero omitted, Abs format (unit mm)*
G04 Created by KiCad (PCBNEW 8.0.8) date 2025-01-20 15:00:34*
%MOMM*%
%LPD*%
G01*
G04 APERTURE LIST*
G04 Aperture macros list*
%AMRoundRect*
0 Rectangle with rounded corners*
0 $1 Rounding radius*
0 $2 $3 $4 $5 $6 $7 $8 $9 X,Y pos of 4 corners*
0 Add a 4 corners polygon primitive as box body*
4,1,4,$2,$3,$4,$5,$6,$7,$8,$9,$2,$3,0*
0 Add four circle primitives for the rounded corners*
1,1,$1+$1,$2,$3*
1,1,$1+$1,$4,$5*
1,1,$1+$1,$6,$7*
1,1,$1+$1,$8,$9*
0 Add four rect primitives between the rounded corners*
20,1,$1+$1,$2,$3,$4,$5,0*
20,1,$1+$1,$4,$5,$6,$7,0*
20,1,$1+$1,$6,$7,$8,$9,0*
20,1,$1+$1,$8,$9,$2,$3,0*%
G04 Aperture macros list end*
%TA.AperFunction,ComponentPad*%
%ADD10RoundRect,0.250000X-0.350000X-0.625000X0.350000X-0.625000X0.350000X0.625000X-0.350000X0.625000X0*%
%TD*%
%TA.AperFunction,ComponentPad*%
%ADD11O,1.200000X1.750000*%
%TD*%
%TA.AperFunction,ComponentPad*%
%ADD12R,2.000000X2.000000*%
%TD*%
%TA.AperFunction,ComponentPad*%
%ADD13C,2.000000*%
%TD*%
%TA.AperFunction,ComponentPad*%
%ADD14R,1.700000X1.700000*%
%TD*%
%TA.AperFunction,ComponentPad*%
%ADD15O,1.700000X1.700000*%
%TD*%
%TA.AperFunction,ComponentPad*%
%ADD16C,1.700000*%
%TD*%
%TA.AperFunction,ComponentPad*%
%ADD17C,1.600000*%
%TD*%
%TA.AperFunction,ComponentPad*%
%ADD18C,2.550000*%
%TD*%
%TA.AperFunction,ComponentPad*%
%ADD19R,2.550000X2.550000*%
%TD*%
%TA.AperFunction,ComponentPad*%
%ADD20C,1.508000*%
%TD*%
%TA.AperFunction,ViaPad*%
%ADD21C,1.000000*%
%TD*%
%TA.AperFunction,ViaPad*%
%ADD22C,0.600000*%
%TD*%
%TA.AperFunction,Conductor*%
%ADD23C,0.700000*%
%TD*%
%TA.AperFunction,Conductor*%
%ADD24C,0.200000*%
%TD*%
%TA.AperFunction,Conductor*%
%ADD25C,0.300000*%
%TD*%
G04 APERTURE END LIST*
D10*
%TO.P,servo1,1,Pin_1*%
%TO.N,GND*%
X172600000Y-102250000D03*
D11*
%TO.P,servo1,2,Pin_2*%
%TO.N,VCC*%
X174600000Y-102250000D03*
%TO.P,servo1,3,Pin_3*%
%TO.N,Net-(IC2-A2)*%
X176600000Y-102250000D03*
%TD*%
D12*
%TO.P,BZ1,1,+*%
%TO.N,+5V*%
X148000000Y-120000000D03*
D13*
%TO.P,BZ1,2,-*%
%TO.N,Net-(BZ1--)*%
X155600000Y-120000000D03*
%TD*%
D14*
%TO.P,J1,1,Pin_1*%
%TO.N,Net-(J1-Pin_1)*%
X137790000Y-74250000D03*
D15*
%TO.P,J1,2,Pin_2*%
%TO.N,Net-(J1-Pin_2)*%
X135250000Y-74250000D03*
%TO.P,J1,3,Pin_3*%
%TO.N,Net-(J1-Pin_3)*%
X132710000Y-74250000D03*
%TO.P,J1,4,Pin_4*%
%TO.N,Net-(J1-Pin_4)*%
X130170000Y-74250000D03*
%TD*%
D10*
%TO.P,servo13,1,Pin_1*%
%TO.N,GND*%
X172600000Y-96650000D03*
D11*
%TO.P,servo13,2,Pin_2*%
%TO.N,VCC*%
X174600000Y-96650000D03*
%TO.P,servo13,3,Pin_3*%
%TO.N,Net-(IC2-A2)*%
X176600000Y-96650000D03*
%TD*%
D14*
%TO.P,U2,1,GND*%
%TO.N,GND*%
X115610500Y-112175000D03*
D16*
%TO.P,U2,2,VCC*%
%TO.N,+3V3*%
X118150500Y-112175000D03*
%TO.P,U2,3,CE*%
%TO.N,/NRF_CE*%
X115610500Y-114715000D03*
%TO.P,U2,4,~{CSN}*%
%TO.N,/NRF_CSN*%
X118150500Y-114715000D03*
%TO.P,U2,5,SCK*%
%TO.N,/NRF_SCK*%
X115610500Y-117255000D03*
%TO.P,U2,6,MOSI*%
%TO.N,/NRF_MOSI*%
X118150500Y-117255000D03*
%TO.P,U2,7,MISO*%
%TO.N,/NRF_MISO*%
X115610500Y-119795000D03*
%TO.P,U2,8,IRQ*%
%TO.N,unconnected-(U2-IRQ-Pad8)*%
X118150500Y-119795000D03*
%TD*%
D10*
%TO.P,servo11,1,Pin_1*%
%TO.N,GND*%
X172600000Y-85400000D03*
D11*
%TO.P,servo11,2,Pin_2*%
%TO.N,VCC*%
X174600000Y-85400000D03*
%TO.P,servo11,3,Pin_3*%
%TO.N,Net-(IC2-A2)*%
X176600000Y-85400000D03*
%TD*%
D10*
%TO.P,servo5,1,Pin_1*%
%TO.N,GND*%
X163600000Y-107800000D03*
D11*
%TO.P,servo5,2,Pin_2*%
%TO.N,VCC*%
X165600000Y-107800000D03*
%TO.P,servo5,3,Pin_3*%
%TO.N,Net-(IC2-A2)*%
X167600000Y-107800000D03*
%TD*%
D10*
%TO.P,servo4,1,Pin_1*%
%TO.N,GND*%
X163600000Y-119250000D03*
D11*
%TO.P,servo4,2,Pin_2*%
%TO.N,VCC*%
X165600000Y-119250000D03*
%TO.P,servo4,3,Pin_3*%
%TO.N,Net-(IC2-A2)*%
X167600000Y-119250000D03*
%TD*%
D14*
%TO.P,5V,1,Pin_1*%
%TO.N,+5V*%
X144250000Y-73630000D03*
D15*
%TO.P,5V,2,Pin_2*%
X144250000Y-76170000D03*
%TO.P,5V,3,Pin_3*%
X144250000Y-78710000D03*
%TD*%
D10*
%TO.P,servo2,1,Pin_1*%
%TO.N,GND*%
X163600000Y-113450000D03*
D11*
%TO.P,servo2,2,Pin_2*%
%TO.N,VCC*%
X165600000Y-113450000D03*
%TO.P,servo2,3,Pin_3*%
%TO.N,Net-(IC2-A2)*%
X167600000Y-113450000D03*
%TD*%
D14*
%TO.P,S4,1,Pin_1*%
%TO.N,/serial_rx4*%
X125800000Y-84300000D03*
D15*
%TO.P,S4,2,Pin_2*%
%TO.N,/serial_tx4*%
X125800000Y-81760000D03*
%TD*%
D10*
%TO.P,servo10,1,Pin_1*%
%TO.N,GND*%
X163600000Y-102250000D03*
D11*
%TO.P,servo10,2,Pin_2*%
%TO.N,VCC*%
X165600000Y-102250000D03*
%TO.P,servo10,3,Pin_3*%
%TO.N,Net-(IC2-A2)*%
X167600000Y-102250000D03*
%TD*%
D14*
%TO.P,S2,1,Pin_1*%
%TO.N,/serial_rx2*%
X131600000Y-84275000D03*
D15*
%TO.P,S2,2,Pin_2*%
%TO.N,/serial_tx2*%
X131600000Y-81735000D03*
%TD*%
D17*
%TO.P,U1,1,GND*%
%TO.N,GND*%
X107490000Y-105620000D03*
%TO.P,U1,2,0_RX1_CRX2_CS1*%
%TO.N,/servo_rx*%
X110030000Y-105620000D03*
%TO.P,U1,3,1_TX1_CTX2_MISO1*%
%TO.N,/servo_tx*%
X112570000Y-105620000D03*
%TO.P,U1,4,2_OUT2*%
%TO.N,/servo_dir*%
X115110000Y-105620000D03*
%TO.P,U1,5,3_LRCLK2*%
%TO.N,/button*%
X117650000Y-105620000D03*
%TO.P,U1,6,4_BCLK2*%
%TO.N,/buzzer*%
X120190000Y-105620000D03*
%TO.P,U1,7,5_IN2*%
%TO.N,unconnected-(U1-5_IN2-Pad7)*%
X122730000Y-105620000D03*
%TO.P,U1,8,6_OUT1D*%
%TO.N,unconnected-(U1-6_OUT1D-Pad8)*%
X125270000Y-105620000D03*
%TO.P,U1,9,7_RX2_OUT1A*%
%TO.N,/serial_rx2*%
X127810000Y-105620000D03*
%TO.P,U1,10,8_TX2_IN1*%
%TO.N,/serial_tx2*%
X130350000Y-105620000D03*
%TO.P,U1,11,9_OUT1C*%
%TO.N,/NRF_CE*%
X132890000Y-105620000D03*
%TO.P,U1,12,10_CS_MQSR*%
%TO.N,/NRF_CSN*%
X135430000Y-105620000D03*
%TO.P,U1,13,11_MOSI_CTX1*%
%TO.N,/NRF_MOSI*%
X137970000Y-105620000D03*
%TO.P,U1,14,12_MISO_MQSL*%
%TO.N,/NRF_MISO*%
X140510000Y-105620000D03*
%TO.P,U1,15,VBAT*%
%TO.N,unconnected-(U1-VBAT-Pad15)*%
X140510000Y-103080000D03*
%TO.P,U1,16,3V3*%
%TO.N,unconnected-(U1-3V3-Pad16)*%
X140510000Y-100540000D03*
%TO.P,U1,17,GND*%
%TO.N,GND*%
X140510000Y-98000000D03*
%TO.P,U1,18,PROGRAM*%
%TO.N,unconnected-(U1-PROGRAM-Pad18)*%
X140510000Y-95460000D03*
%TO.P,U1,19,ON_OFF*%
%TO.N,unconnected-(U1-ON_OFF-Pad19)*%
X140510000Y-92920000D03*
%TO.P,U1,20,13_SCK_CRX1_LED*%
%TO.N,/NRF_SCK*%
X140510000Y-90380000D03*
%TO.P,U1,21,14_A0_TX3_SPDIF_OUT*%
%TO.N,/serial_tx3*%
X137970000Y-90380000D03*
%TO.P,U1,22,15_A1_RX3_SPDIF_IN*%
%TO.N,/serial_rx3*%
X135430000Y-90380000D03*
%TO.P,U1,23,16_A2_RX4_SCL1*%
%TO.N,/serial_rx4*%
X132890000Y-90380000D03*
%TO.P,U1,24,17_A3_TX4_SDA1*%
%TO.N,/serial_tx4*%
X130350000Y-90380000D03*
%TO.P,U1,25,18_A4_SDA0*%
%TO.N,/SDA*%
X127810000Y-90380000D03*
%TO.P,U1,26,19_A5_SCL0*%
%TO.N,/SCL*%
X125270000Y-90380000D03*
%TO.P,U1,27,20_A6_TX5_LRCLK1*%
%TO.N,/ICM_INT*%
X122730000Y-90380000D03*
%TO.P,U1,28,21_A7_RX5_BCLK1*%
%TO.N,unconnected-(U1-21_A7_RX5_BCLK1-Pad28)*%
X120190000Y-90380000D03*
%TO.P,U1,29,22_A8_CTX1*%
%TO.N,unconnected-(U1-22_A8_CTX1-Pad29)*%
X117650000Y-90380000D03*
%TO.P,U1,30,23_A9_CRX1_MCLK1*%
%TO.N,unconnected-(U1-23_A9_CRX1_MCLK1-Pad30)*%
X115110000Y-90380000D03*
%TO.P,U1,31,3V3*%
%TO.N,+3V3*%
X112570000Y-90380000D03*
%TO.P,U1,32,GND*%
%TO.N,GND*%
X110030000Y-90380000D03*
%TO.P,U1,33,VIN*%
%TO.N,+5V*%
X107490000Y-90380000D03*
%TO.P,U1,34,VUSB*%
%TO.N,unconnected-(U1-VUSB-Pad34)*%
X110030000Y-92920000D03*
%TO.P,U1,35,24_A10_TX6_SCL2*%
%TO.N,Net-(J1-Pin_1)*%
X135430000Y-92920000D03*
%TO.P,U1,36,25_A11_RX6_SDA2*%
%TO.N,Net-(J1-Pin_2)*%
X132890000Y-92920000D03*
%TO.P,U1,37,26_A12_MOSI1*%
%TO.N,Net-(J1-Pin_3)*%
X135430000Y-95460000D03*
%TO.P,U1,38,27_A13_SCK1*%
%TO.N,Net-(J1-Pin_4)*%
X132890000Y-95460000D03*
%TO.P,U1,39,28_RX7*%
%TO.N,Net-(J2-Pin_1)*%
X135430000Y-98000000D03*
%TO.P,U1,40,29_TX7*%
%TO.N,Net-(J2-Pin_2)*%
X132890000Y-98000000D03*
%TO.P,U1,41,30_CRX3*%
%TO.N,Net-(J2-Pin_3)*%
X135430000Y-100540000D03*
%TO.P,U1,42,31_CTX3*%
%TO.N,Net-(J2-Pin_4)*%
X132890000Y-100540000D03*
%TO.P,U1,43,32_OUT1B*%
%TO.N,unconnected-(U1-32_OUT1B-Pad43)*%
X135430000Y-103080000D03*
%TO.P,U1,44,33_MCLK2*%
%TO.N,unconnected-(U1-33_MCLK2-Pad44)*%
X132890000Y-103080000D03*
%TD*%
D10*
%TO.P,servo3,1,Pin_1*%
%TO.N,GND*%
X163600000Y-96650000D03*
D11*
%TO.P,servo3,2,Pin_2*%
%TO.N,VCC*%
X165600000Y-96650000D03*
%TO.P,servo3,3,Pin_3*%
%TO.N,Net-(IC2-A2)*%
X167600000Y-96650000D03*
%TD*%
D10*
%TO.P,servo9,1,Pin_1*%
%TO.N,GND*%
X172600000Y-91000000D03*
D11*
%TO.P,servo9,2,Pin_2*%
%TO.N,VCC*%
X174600000Y-91000000D03*
%TO.P,servo9,3,Pin_3*%
%TO.N,Net-(IC2-A2)*%
X176600000Y-91000000D03*
%TD*%
D13*
%TO.P,button1,1,1*%
%TO.N,/button*%
X106750000Y-116500000D03*
X106750000Y-110000000D03*
%TO.P,button1,2,2*%
%TO.N,GND*%
X111250000Y-116500000D03*
X111250000Y-110000000D03*
%TD*%
D14*
%TO.P,J2,1,Pin_1*%
%TO.N,Net-(J2-Pin_1)*%
X137790000Y-77000000D03*
D15*
%TO.P,J2,2,Pin_2*%
%TO.N,Net-(J2-Pin_2)*%
X135250000Y-77000000D03*
%TO.P,J2,3,Pin_3*%
%TO.N,Net-(J2-Pin_3)*%
X132710000Y-77000000D03*
%TO.P,J2,4,Pin_4*%
%TO.N,Net-(J2-Pin_4)*%
X130170000Y-77000000D03*
%TD*%
D14*
%TO.P,S3,1,Pin_1*%
%TO.N,/serial_rx3*%
X128700000Y-84300000D03*
D15*
%TO.P,S3,2,Pin_2*%
%TO.N,/serial_tx3*%
X128700000Y-81760000D03*
%TD*%
D18*
%TO.P,Main Power,N,N*%
%TO.N,GND*%
X166900000Y-81105750D03*
D19*
%TO.P,Main Power,P,P*%
%TO.N,VCC*%
X161900000Y-81105750D03*
D20*
%TO.P,Main Power,S1*%
%TO.N,N/C*%
X169900000Y-71105750D03*
%TO.P,Main Power,S2*%
X158900000Y-71105750D03*
%TD*%
D10*
%TO.P,servo12,1,Pin_1*%
%TO.N,GND*%
X163600000Y-91050000D03*
D11*
%TO.P,servo12,2,Pin_2*%
%TO.N,VCC*%
X165600000Y-91050000D03*
%TO.P,servo12,3,Pin_3*%
%TO.N,Net-(IC2-A2)*%
X167600000Y-91050000D03*
%TD*%
D10*
%TO.P,servo8,1,Pin_1*%
%TO.N,GND*%
X172600000Y-113450000D03*
D11*
%TO.P,servo8,2,Pin_2*%
%TO.N,VCC*%
X174600000Y-113450000D03*
%TO.P,servo8,3,Pin_3*%
%TO.N,Net-(IC2-A2)*%
X176600000Y-113450000D03*
%TD*%
D10*
%TO.P,servo6,1,Pin_1*%
%TO.N,GND*%
X163600000Y-85400000D03*
D11*
%TO.P,servo6,2,Pin_2*%
%TO.N,VCC*%
X165600000Y-85400000D03*
%TO.P,servo6,3,Pin_3*%
%TO.N,Net-(IC2-A2)*%
X167600000Y-85400000D03*
%TD*%
D10*
%TO.P,servo7,1,Pin_1*%
%TO.N,GND*%
X172600000Y-107800000D03*
D11*
%TO.P,servo7,2,Pin_2*%
%TO.N,VCC*%
X174600000Y-107800000D03*
%TO.P,servo7,3,Pin_3*%
%TO.N,Net-(IC2-A2)*%
X176600000Y-107800000D03*
%TD*%
D14*
%TO.P,GND,1,Pin_1*%
%TO.N,GND*%
X141500000Y-73670000D03*
D15*
%TO.P,GND,2,Pin_2*%
X141500000Y-76210000D03*
%TO.P,GND,3,Pin_3*%
X141500000Y-78750000D03*
%TD*%
D21*
%TO.N,+5V*%
X157461715Y-82005718D03*
D22*
X139900000Y-111400000D03*
X121864000Y-72080000D03*
D21*
X116900000Y-71625002D03*
D22*
X112973718Y-78273718D03*
D21*
%TO.N,GND*%
X171750000Y-70500000D03*
D22*
X148800000Y-94200000D03*
X138430000Y-97028000D03*
X142500000Y-83500000D03*
D21*
X120586890Y-75413110D03*
X112268000Y-82042000D03*
X138587499Y-119031000D03*
X149000000Y-88500000D03*
D22*
X107950000Y-107442000D03*
X154900000Y-112100000D03*
D21*
X151178000Y-97422000D03*
X121800000Y-103100000D03*
X128400000Y-108200000D03*
X112500000Y-71000000D03*
X108966000Y-115570000D03*
X158800000Y-91400000D03*
X136500000Y-124000000D03*
X128300000Y-120700000D03*
X167300000Y-125100000D03*
D22*
X122936000Y-72644000D03*
D21*
X106500000Y-78000000D03*
X115570000Y-86868000D03*
X175100000Y-80800000D03*
X121700000Y-110000000D03*
D22*
X134400000Y-113000000D03*
D21*
X149000000Y-84000000D03*
D22*
X135600500Y-120762000D03*
D21*
X115500000Y-93900000D03*
X146100000Y-106700000D03*
D22*
X108966000Y-104140000D03*
D21*
X147500000Y-77500000D03*
X128900000Y-102300000D03*
X111250000Y-125500000D03*
X159900000Y-105300000D03*
X178250000Y-77750000D03*
D22*
X158000000Y-101500000D03*
X120373718Y-80725002D03*
X138600000Y-117200000D03*
X138430000Y-99949000D03*
X142800000Y-115200000D03*
X122073718Y-80725002D03*
D21*
X151900000Y-119000000D03*
X105250000Y-119000000D03*
X150500000Y-91000000D03*
X155900000Y-70800000D03*
X147500000Y-111500000D03*
X107700000Y-95100000D03*
X126492000Y-75692000D03*
X178500000Y-118000000D03*
X164400000Y-72900000D03*
X159000000Y-123000000D03*
D22*
X110490000Y-88392000D03*
D21*
X116500000Y-124300000D03*
X118200000Y-78700000D03*
X159000000Y-116200000D03*
D22*
%TO.N,+3V3*%
X138400000Y-109000000D03*
X136906000Y-110600000D03*
%TO.N,+1V8*%
X143400000Y-96200000D03*
X144700000Y-91100000D03*
%TO.N,Net-(J2-Pin_1)*%
X137900000Y-87500000D03*
X138200000Y-94300000D03*
%TO.N,/SDA*%
X150000000Y-94200000D03*
%TO.N,/SCL*%
X150000000Y-93200000D03*
%TO.N,/buzzer*%
X133700000Y-109600000D03*
X125400000Y-107600000D03*
%TO.N,/serial_rx2*%
X122400000Y-87300000D03*
%TO.N,/servo_tx*%
X134981250Y-119181250D03*
%TO.N,/NRF_SCK*%
X130302000Y-112776000D03*
%TO.N,/servo_dir*%
X134912500Y-118250000D03*
%TO.N,/servo_rx*%
X134912500Y-120050000D03*
%TO.N,/ICM_INT*%
X150800000Y-93000000D03*
%TO.N,/INT_1V8*%
X153200000Y-105500000D03*
X151600000Y-100200000D03*
%TD*%
D23*
%TO.N,+5V*%
X144250000Y-71606000D02*
X143144000Y-70500000D01*
D24*
X112973718Y-78273718D02*
X112973718Y-73325002D01*
X121864000Y-72080000D02*
X123444000Y-70500000D01*
D23*
X157461715Y-82005718D02*
X157255997Y-81800000D01*
X157255997Y-81800000D02*
X149200000Y-81800000D01*
D25*
X144050000Y-102450000D02*
X152000000Y-94500000D01*
D23*
X143144000Y-70500000D02*
X123444000Y-70500000D01*
D24*
X112973718Y-73325002D02*
X114773718Y-71525002D01*
D23*
X149200000Y-81800000D02*
X147340000Y-81800000D01*
D24*
X114773718Y-71525002D02*
X116900000Y-71525002D01*
D23*
X117925002Y-70500000D02*
X116900000Y-71525002D01*
X123444000Y-70500000D02*
X117925002Y-70500000D01*
X147340000Y-81800000D02*
X144250000Y-78710000D01*
X144250000Y-73630000D02*
X144250000Y-71606000D01*
D25*
X152000000Y-94500000D02*
X152000000Y-84600000D01*
X144050000Y-107250000D02*
X144050000Y-102450000D01*
X139900000Y-111400000D02*
X144050000Y-107250000D01*
X152000000Y-84600000D02*
X149200000Y-81800000D01*
%TO.N,+3V3*%
X114390000Y-92200000D02*
X112570000Y-90380000D01*
X133816000Y-107400000D02*
X130263654Y-107400000D01*
X136906000Y-110490000D02*
X133816000Y-107400000D01*
X129100000Y-104900000D02*
X116400000Y-92200000D01*
X130263654Y-107400000D02*
X129100000Y-106236346D01*
X138400000Y-109000000D02*
X138400000Y-109125000D01*
X136925000Y-110600000D02*
X136906000Y-110600000D01*
X116400000Y-92200000D02*
X114390000Y-92200000D01*
X129100000Y-106236346D02*
X129100000Y-104900000D01*
X136906000Y-110600000D02*
X136906000Y-110490000D01*
X138400000Y-109125000D02*
X136925000Y-110600000D01*
%TO.N,+1V8*%
X143400000Y-96200000D02*
X143400000Y-92400000D01*
X143400000Y-92400000D02*
X144700000Y-91100000D01*
D24*
%TO.N,Net-(J1-Pin_4)*%
X132890000Y-95460000D02*
X120760000Y-95460000D01*
X120760000Y-95460000D02*
X116400000Y-91100000D01*
X116400000Y-88020000D02*
X130170000Y-74250000D01*
X116400000Y-91100000D02*
X116400000Y-88020000D01*
%TO.N,Net-(J1-Pin_2)*%
X121500000Y-86300000D02*
X124800000Y-83000000D01*
X134100000Y-75400000D02*
X135250000Y-74250000D01*
X133426346Y-78150000D02*
X134100000Y-77476346D01*
X131770000Y-91800000D02*
X122300000Y-91800000D01*
X126786346Y-83000000D02*
X127550000Y-82236346D01*
X122300000Y-91800000D02*
X121500000Y-91000000D01*
X127550000Y-81283654D02*
X130683654Y-78150000D01*
X134100000Y-77476346D02*
X134100000Y-75400000D01*
X121500000Y-91000000D02*
X121500000Y-86300000D01*
X124800000Y-83000000D02*
X126786346Y-83000000D01*
X130683654Y-78150000D02*
X133426346Y-78150000D01*
X132890000Y-92920000D02*
X131770000Y-91800000D01*
X127550000Y-82236346D02*
X127550000Y-81283654D01*
%TO.N,Net-(J1-Pin_3)*%
X119000000Y-86543654D02*
X130143654Y-75400000D01*
X130143654Y-75400000D02*
X131560000Y-75400000D01*
X122274365Y-94020000D02*
X119000000Y-90745635D01*
X133990000Y-94020000D02*
X122274365Y-94020000D01*
X119000000Y-90745635D02*
X119000000Y-86543654D01*
X135430000Y-95460000D02*
X133990000Y-94020000D01*
X131560000Y-75400000D02*
X132710000Y-74250000D01*
%TO.N,Net-(J2-Pin_1)*%
X135430000Y-98000000D02*
X136530000Y-96900000D01*
X136530000Y-96900000D02*
X136530000Y-95970000D01*
X136530000Y-95970000D02*
X138200000Y-94300000D01*
X137790000Y-87390000D02*
X137790000Y-77000000D01*
X137900000Y-87500000D02*
X137790000Y-87390000D01*
%TO.N,/SDA*%
X127810000Y-90380000D02*
X129090000Y-89100000D01*
X129090000Y-89100000D02*
X144900000Y-89100000D01*
X144900000Y-89100000D02*
X150000000Y-94200000D01*
%TO.N,/SCL*%
X150000000Y-93200000D02*
X149800000Y-93200000D01*
X145300000Y-88700000D02*
X126950000Y-88700000D01*
X126950000Y-88700000D02*
X125270000Y-90380000D01*
X149800000Y-93200000D02*
X145300000Y-88700000D01*
%TO.N,/buzzer*%
X133700000Y-109600000D02*
X127400000Y-109600000D01*
X127400000Y-109600000D02*
X125400000Y-107600000D01*
%TO.N,/serial_rx2*%
X128575000Y-87300000D02*
X131600000Y-84275000D01*
X122400000Y-87300000D02*
X128575000Y-87300000D01*
%TO.N,/servo_tx*%
X134981250Y-119181250D02*
X123800000Y-108000000D01*
X123800000Y-108000000D02*
X114950000Y-108000000D01*
X114950000Y-108000000D02*
X112570000Y-105620000D01*
%TO.N,/NRF_SCK*%
X131478000Y-111600000D02*
X137828000Y-111600000D01*
X137828000Y-111600000D02*
X139200000Y-110228000D01*
X139200000Y-110228000D02*
X139200000Y-91690000D01*
X139200000Y-91690000D02*
X140510000Y-90380000D01*
X130302000Y-112776000D02*
X131478000Y-111600000D01*
%TO.N,/servo_dir*%
X115110000Y-105620000D02*
X115110000Y-105910000D01*
X115110000Y-105910000D02*
X116600000Y-107400000D01*
X124062500Y-107400000D02*
X134912500Y-118250000D01*
X116600000Y-107400000D02*
X124062500Y-107400000D01*
%TO.N,/servo_rx*%
X134863971Y-120050000D02*
X134912500Y-120050000D01*
X113400000Y-108600000D02*
X123400000Y-108600000D01*
X110030000Y-105620000D02*
X110420000Y-105620000D01*
X134312500Y-119498529D02*
X134863971Y-120050000D01*
X123400000Y-108600000D02*
X134298529Y-119498529D01*
X110420000Y-105620000D02*
X113400000Y-108600000D01*
%TO.N,/ICM_INT*%
X150800000Y-93000000D02*
X146100000Y-88300000D01*
X146100000Y-88300000D02*
X124810000Y-88300000D01*
X124810000Y-88300000D02*
X122730000Y-90380000D01*
%TO.N,/INT_1V8*%
X153200000Y-105500000D02*
X153600000Y-105100000D01*
X153600000Y-101802000D02*
X151998000Y-100200000D01*
X151998000Y-100200000D02*
X151600000Y-100200000D01*
X153600000Y-105100000D02*
X153600000Y-101802000D01*
%TD*%
%TA.AperFunction,Conductor*%
%TO.N,GND*%
G36*
X133905802Y-94517620D02*
G01*
X133953083Y-94549476D01*
X134351886Y-94948279D01*
X134390450Y-95015074D01*
X134390450Y-95092202D01*
X134389839Y-95094414D01*
X134343602Y-95256921D01*
X134324785Y-95459995D01*
X134324785Y-95460004D01*
X134343602Y-95663078D01*
X134343602Y-95663080D01*
X134343603Y-95663083D01*
X134355780Y-95705879D01*
X134399416Y-95859245D01*
X134399417Y-95859247D01*
X134399418Y-95859250D01*
X134421771Y-95904141D01*
X134490328Y-96041823D01*
X134561366Y-96135892D01*
X134613236Y-96204579D01*
X134702889Y-96286308D01*
X134763958Y-96341980D01*
X134763963Y-96341984D01*
X134937356Y-96449344D01*
X134937367Y-96449350D01*
X134992319Y-96470638D01*
X135127544Y-96523024D01*
X135328024Y-96560500D01*
X135328027Y-96560500D01*
X135531973Y-96560500D01*
X135531976Y-96560500D01*
X135732456Y-96523024D01*
X135922637Y-96449348D01*
X135922639Y-96449346D01*
X135926675Y-96447783D01*
X136003355Y-96439484D01*
X136073911Y-96470638D01*
X136119438Y-96532896D01*
X136129500Y-96586721D01*
X136129500Y-96672388D01*
X136109538Y-96746888D01*
X136085859Y-96777747D01*
X135941063Y-96922542D01*
X135874268Y-96961106D01*
X135797139Y-96961106D01*
X135781882Y-96956122D01*
X135732464Y-96936978D01*
X135732457Y-96936976D01*
X135732456Y-96936976D01*
X135692360Y-96929480D01*
X135531980Y-96899500D01*
X135531976Y-96899500D01*
X135328024Y-96899500D01*
X135328019Y-96899500D01*
X135127544Y-96936976D01*
X135127537Y-96936978D01*
X134937367Y-97010649D01*
X134937356Y-97010655D01*
X134763963Y-97118015D01*
X134763958Y-97118019D01*
X134613234Y-97255423D01*
X134490328Y-97418176D01*
X134399416Y-97600754D01*
X134343602Y-97796921D01*
X134324785Y-97999995D01*
X134324785Y-98000004D01*
X134343602Y-98203078D01*
X134343602Y-98203080D01*
X134343603Y-98203083D01*
X134350296Y-98226606D01*
X134399416Y-98399245D01*
X134399417Y-98399247D01*
X134399418Y-98399250D01*
X134474482Y-98550000D01*
X134490328Y-98581823D01*
X134543689Y-98652484D01*
X134613236Y-98744579D01*
X134763958Y-98881980D01*
X134763963Y-98881984D01*
X134937356Y-98989344D01*
X134937367Y-98989350D01*
X135053332Y-99034274D01*
X135127544Y-99063024D01*
X135328024Y-99100500D01*
X135328027Y-99100500D01*
X135531973Y-99100500D01*
X135531976Y-99100500D01*
X135732456Y-99063024D01*
X135922637Y-98989348D01*
X136096041Y-98881981D01*
X136246764Y-98744579D01*
X136369673Y-98581821D01*
X136460582Y-98399250D01*
X136516397Y-98203083D01*
X136526851Y-98090259D01*
X136535215Y-98000004D01*
X136535215Y-97999995D01*
X136524760Y-97887176D01*
X136516397Y-97796917D01*
X136470159Y-97634412D01*
X136468972Y-97557294D01*
X136506503Y-97489913D01*
X136508037Y-97488354D01*
X136850480Y-97145913D01*
X136903207Y-97054588D01*
X136930500Y-96952727D01*
X136930500Y-96847273D01*
X136930500Y-96197610D01*
X136950462Y-96123110D01*
X136974141Y-96092251D01*
X137509733Y-95556659D01*
X138118990Y-94947401D01*
X138185783Y-94908839D01*
X138204899Y-94905037D01*
X138356757Y-94885045D01*
X138356758Y-94885044D01*
X138356762Y-94885044D01*
X138502841Y-94824536D01*
X138559795Y-94780833D01*
X138631051Y-94751318D01*
X138707519Y-94761385D01*
X138768709Y-94808337D01*
X138798225Y-94879594D01*
X138799500Y-94899043D01*
X138799500Y-104571722D01*
X138779538Y-104646222D01*
X138725000Y-104700760D01*
X138650500Y-104720722D01*
X138576000Y-104700760D01*
X138572062Y-104698405D01*
X138479259Y-104640944D01*
X138462637Y-104630652D01*
X138462635Y-104630651D01*
X138462632Y-104630649D01*
X138272462Y-104556978D01*
X138272458Y-104556977D01*
X138272456Y-104556976D01*
X138232360Y-104549480D01*
X138071980Y-104519500D01*
X138071976Y-104519500D01*
X137868024Y-104519500D01*
X137868019Y-104519500D01*
X137667544Y-104556976D01*
X137667537Y-104556978D01*
X137477367Y-104630649D01*
X137477356Y-104630655D01*
X137303963Y-104738015D01*
X137303958Y-104738019D01*
X137153234Y-104875423D01*
X137030328Y-105038176D01*
X136939416Y-105220754D01*
X136883602Y-105416921D01*
X136864785Y-105619995D01*
X136864785Y-105620004D01*
X136883602Y-105823078D01*
X136883602Y-105823080D01*
X136883603Y-105823083D01*
X136890296Y-105846606D01*
X136939416Y-106019245D01*
X136939417Y-106019247D01*
X136939418Y-106019250D01*
X137009619Y-106160234D01*
X137030328Y-106201823D01*
X137083688Y-106272483D01*
X137153236Y-106364579D01*
X137254464Y-106456860D01*
X137303958Y-106501980D01*
X137303963Y-106501984D01*
X137477356Y-106609344D01*
X137477367Y-106609350D01*
X137593332Y-106654274D01*
X137667544Y-106683024D01*
X137868024Y-106720500D01*
X137868027Y-106720500D01*
X138071973Y-106720500D01*
X138071976Y-106720500D01*
X138272456Y-106683024D01*
X138462637Y-106609348D01*
X138572063Y-106541594D01*
X138645911Y-106519348D01*
X138720991Y-106537006D01*
X138777182Y-106589838D01*
X138799429Y-106663688D01*
X138799500Y-106668277D01*
X138799500Y-108292507D01*
X138779538Y-108367007D01*
X138725000Y-108421545D01*
X138650500Y-108441507D01*
X138593482Y-108430166D01*
X138556757Y-108414954D01*
X138400003Y-108394318D01*
X138399997Y-108394318D01*
X138243242Y-108414954D01*
X138097159Y-108475463D01*
X137971718Y-108571717D01*
X137971717Y-108571718D01*
X137875463Y-108697159D01*
X137814954Y-108843242D01*
X137794318Y-108999997D01*
X137795614Y-109009843D01*
X137785545Y-109086311D01*
X137753247Y-109134648D01*
X137075858Y-109812037D01*
X137009063Y-109850601D01*
X136931935Y-109850601D01*
X136865140Y-109812037D01*
X135483269Y-108430166D01*
X134092614Y-107039511D01*
X134092611Y-107039509D01*
X134092610Y-107039508D01*
X134027086Y-107001678D01*
X133989887Y-106980201D01*
X133964452Y-106973386D01*
X133964451Y-106973385D01*
X133875309Y-106949500D01*
X133301682Y-106949500D01*
X133227182Y-106929538D01*
X133172644Y-106875000D01*
X133152682Y-106800500D01*
X133172644Y-106726000D01*
X133227182Y-106671462D01*
X133247857Y-106661562D01*
X133382632Y-106609350D01*
X133382632Y-106609349D01*
X133382637Y-106609348D01*
X133556041Y-106501981D01*
X133706764Y-106364579D01*
X133829673Y-106201821D01*
X133920582Y-106019250D01*
X133976397Y-105823083D01*
X133986851Y-105710259D01*
X133995215Y-105620004D01*
X133995215Y-105619995D01*
X134324785Y-105619995D01*
X134324785Y-105620004D01*
X134343602Y-105823078D01*
X134343602Y-105823080D01*
X134343603Y-105823083D01*
X134350296Y-105846606D01*
X134399416Y-106019245D01*
X134399417Y-106019247D01*
X134399418Y-106019250D01*
X134469619Y-106160234D01*
X134490328Y-106201823D01*
X134543688Y-106272483D01*
X134613236Y-106364579D01*
X134714464Y-106456860D01*
X134763958Y-106501980D01*
X134763963Y-106501984D01*
X134937356Y-106609344D01*
X134937367Y-106609350D01*
X135053332Y-106654274D01*
X135127544Y-106683024D01*
X135328024Y-106720500D01*
X135328027Y-106720500D01*
X135531973Y-106720500D01*
X135531976Y-106720500D01*
X135732456Y-106683024D01*
X135922637Y-106609348D01*
X136096041Y-106501981D01*
X136246764Y-106364579D01*
X136369673Y-106201821D01*
X136460582Y-106019250D01*
X136516397Y-105823083D01*
X136526851Y-105710259D01*
X136535215Y-105620004D01*
X136535215Y-105619995D01*
X136520878Y-105465281D01*
X136516397Y-105416917D01*
X136460582Y-105220750D01*
X136369673Y-105038179D01*
X136246764Y-104875421D01*
X136096041Y-104738019D01*
X136096036Y-104738015D01*
X135922643Y-104630655D01*
X135922632Y-104630649D01*
X135732462Y-104556978D01*
X135732458Y-104556977D01*
X135732456Y-104556976D01*
X135692360Y-104549480D01*
X135531980Y-104519500D01*
X135531976Y-104519500D01*
X135328024Y-104519500D01*
X135328019Y-104519500D01*
X135127544Y-104556976D01*
X135127537Y-104556978D01*
X134937367Y-104630649D01*
X134937356Y-104630655D01*
X134763963Y-104738015D01*
X134763958Y-104738019D01*
X134613234Y-104875423D01*
X134490328Y-105038176D01*
X134399416Y-105220754D01*
X134343602Y-105416921D01*
X134324785Y-105619995D01*
X133995215Y-105619995D01*
X133980878Y-105465281D01*
X133976397Y-105416917D01*
X133920582Y-105220750D01*
X133829673Y-105038179D01*
X133706764Y-104875421D01*
X133556041Y-104738019D01*
X133556036Y-104738015D01*
X133382643Y-104630655D01*
X133382632Y-104630649D01*
X133192462Y-104556978D01*
X133192458Y-104556977D01*
X133192456Y-104556976D01*
X133152360Y-104549480D01*
X132991980Y-104519500D01*
X132991976Y-104519500D01*
X132788024Y-104519500D01*
X132788019Y-104519500D01*
X132587544Y-104556976D01*
X132587537Y-104556978D01*
X132397367Y-104630649D01*
X132397356Y-104630655D01*
X132223963Y-104738015D01*
X132223958Y-104738019D01*
X132073234Y-104875423D01*
X131950328Y-105038176D01*
X131859416Y-105220754D01*
X131803602Y-105416921D01*
X131784785Y-105619995D01*
X131784785Y-105620004D01*
X131803602Y-105823078D01*
X131803602Y-105823080D01*
X131803603Y-105823083D01*
X131810296Y-105846606D01*
X131859416Y-106019245D01*
X131859417Y-106019247D01*
X131859418Y-106019250D01*
X131929619Y-106160234D01*
X131950328Y-106201823D01*
X132003688Y-106272483D01*
X132073236Y-106364579D01*
X132174464Y-106456860D01*
X132223958Y-106501980D01*
X132223963Y-106501984D01*
X132397356Y-106609344D01*
X132397367Y-106609350D01*
X132532143Y-106661562D01*
X132594401Y-106707088D01*
X132625555Y-106777644D01*
X132617256Y-106854325D01*
X132571730Y-106916583D01*
X132501174Y-106947737D01*
X132478318Y-106949500D01*
X130761682Y-106949500D01*
X130687182Y-106929538D01*
X130632644Y-106875000D01*
X130612682Y-106800500D01*
X130632644Y-106726000D01*
X130687182Y-106671462D01*
X130707857Y-106661562D01*
X130842632Y-106609350D01*
X130842632Y-106609349D01*
X130842637Y-106609348D01*
X131016041Y-106501981D01*
X131166764Y-106364579D01*
X131289673Y-106201821D01*
X131380582Y-106019250D01*
X131436397Y-105823083D01*
X131446851Y-105710259D01*
X131455215Y-105620004D01*
X131455215Y-105619995D01*
X131440878Y-105465281D01*
X131436397Y-105416917D01*
X131380582Y-105220750D01*
X131289673Y-105038179D01*
X131166764Y-104875421D01*
X131016041Y-104738019D01*
X131016036Y-104738015D01*
X130842643Y-104630655D01*
X130842632Y-104630649D01*
X130652462Y-104556978D01*
X130652458Y-104556977D01*
X130652456Y-104556976D01*
X130612360Y-104549480D01*
X130451980Y-104519500D01*
X130451976Y-104519500D01*
X130248024Y-104519500D01*
X130248019Y-104519500D01*
X130047544Y-104556976D01*
X130047537Y-104556978D01*
X129857367Y-104630649D01*
X129857364Y-104630651D01*
X129698737Y-104728868D01*
X129624886Y-104751114D01*
X129549807Y-104733455D01*
X129493616Y-104680623D01*
X129491261Y-104676684D01*
X129460493Y-104623392D01*
X129460490Y-104623388D01*
X129460489Y-104623386D01*
X127917098Y-103079995D01*
X131784785Y-103079995D01*
X131784785Y-103080004D01*
X131803602Y-103283078D01*
X131859416Y-103479245D01*
X131859417Y-103479247D01*
X131859418Y-103479250D01*
X131926767Y-103614505D01*
X131950328Y-103661823D01*
X132031174Y-103768880D01*
X132073236Y-103824579D01*
X132187080Y-103928361D01*
X132223958Y-103961980D01*
X132223963Y-103961984D01*
X132397356Y-104069344D01*
X132397367Y-104069350D01*
X132513332Y-104114274D01*
X132587544Y-104143024D01*
X132788024Y-104180500D01*
X132788027Y-104180500D01*
X132991973Y-104180500D01*
X132991976Y-104180500D01*
X133192456Y-104143024D01*
X133382637Y-104069348D01*
X133556041Y-103961981D01*
X133706764Y-103824579D01*
X133829673Y-103661821D01*
X133920582Y-103479250D01*
X133976397Y-103283083D01*
X133993452Y-103099031D01*
X133995215Y-103080004D01*
X133995215Y-103079995D01*
X134324785Y-103079995D01*
X134324785Y-103080004D01*
X134343602Y-103283078D01*
X134399416Y-103479245D01*
X134399417Y-103479247D01*
X134399418Y-103479250D01*
X134466767Y-103614505D01*
X134490328Y-103661823D01*
X134571174Y-103768880D01*
X134613236Y-103824579D01*
X134727080Y-103928361D01*
X134763958Y-103961980D01*
X134763963Y-103961984D01*
X134937356Y-104069344D01*
X134937367Y-104069350D01*
X135053332Y-104114274D01*
X135127544Y-104143024D01*
X135328024Y-104180500D01*
X135328027Y-104180500D01*
X135531973Y-104180500D01*
X135531976Y-104180500D01*
X135732456Y-104143024D01*
X135922637Y-104069348D01*
X136096041Y-103961981D01*
X136246764Y-103824579D01*
X136369673Y-103661821D01*
X136460582Y-103479250D01*
X136516397Y-103283083D01*
X136533452Y-103099031D01*
X136535215Y-103080004D01*
X136535215Y-103079995D01*
X136516397Y-102876921D01*
X136516397Y-102876917D01*
X136460582Y-102680750D01*
X136369673Y-102498179D01*
X136356137Y-102480255D01*
X136288500Y-102390689D01*
X136246764Y-102335421D01*
X136096041Y-102198019D01*
X136096036Y-102198015D01*
X135922643Y-102090655D01*
X135922632Y-102090649D01*
X135732462Y-102016978D01*
X135732458Y-102016977D01*
X135732456Y-102016976D01*
X135692360Y-102009480D01*
X135531980Y-101979500D01*
X135531976Y-101979500D01*
X135328024Y-101979500D01*
X135328019Y-101979500D01*
X135127544Y-102016976D01*
X135127537Y-102016978D01*
X134937367Y-102090649D01*
X134937356Y-102090655D01*
X134763963Y-102198015D01*
X134763958Y-102198019D01*
X134613234Y-102335423D01*
X134490328Y-102498176D01*
X134399416Y-102680754D01*
X134343602Y-102876921D01*
X134324785Y-103079995D01*
X133995215Y-103079995D01*
X133976397Y-102876921D01*
X133976397Y-102876917D01*
X133920582Y-102680750D01*
X133829673Y-102498179D01*
X133816137Y-102480255D01*
X133748500Y-102390689D01*
X133706764Y-102335421D01*
X133556041Y-102198019D01*
X133556036Y-102198015D01*
X133382643Y-102090655D01*
X133382632Y-102090649D01*
X133192462Y-102016978D01*
X133192458Y-102016977D01*
X133192456Y-102016976D01*
X133152360Y-102009480D01*
X132991980Y-101979500D01*
X132991976Y-101979500D01*
X132788024Y-101979500D01*
X132788019Y-101979500D01*
X132587544Y-102016976D01*
X132587537Y-102016978D01*
X132397367Y-102090649D01*
X132397356Y-102090655D01*
X132223963Y-102198015D01*
X132223958Y-102198019D01*
X132073234Y-102335423D01*
X131950328Y-102498176D01*
X131859416Y-102680754D01*
X131803602Y-102876921D01*
X131784785Y-103079995D01*
X127917098Y-103079995D01*
X125377098Y-100539995D01*
X131784785Y-100539995D01*
X131784785Y-100540004D01*
X131803602Y-100743078D01*
X131803602Y-100743080D01*
X131803603Y-100743083D01*
X131821414Y-100805682D01*
X131859416Y-100939245D01*
X131859417Y-100939247D01*
X131859418Y-100939250D01*
X131926764Y-101074500D01*
X131950328Y-101121823D01*
X131991986Y-101176987D01*
X132073236Y-101284579D01*
X132220096Y-101418459D01*
X132223958Y-101421980D01*
X132223963Y-101421984D01*
X132397356Y-101529344D01*
X132397367Y-101529350D01*
X132513332Y-101574274D01*
X132587544Y-101603024D01*
X132788024Y-101640500D01*
X132788027Y-101640500D01*
X132991973Y-101640500D01*
X132991976Y-101640500D01*
X133192456Y-101603024D01*
X133382637Y-101529348D01*
X133556041Y-101421981D01*
X133706764Y-101284579D01*
X133829673Y-101121821D01*
X133920582Y-100939250D01*
X133976397Y-100743083D01*
X133995215Y-100540000D01*
X133995215Y-100539995D01*
X134324785Y-100539995D01*
X134324785Y-100540004D01*
X134343602Y-100743078D01*
X134343602Y-100743080D01*
X134343603Y-100743083D01*
X134361414Y-100805682D01*
X134399416Y-100939245D01*
X134399417Y-100939247D01*
X134399418Y-100939250D01*
X134466764Y-101074500D01*
X134490328Y-101121823D01*
X134531986Y-101176987D01*
X134613236Y-101284579D01*
X134760096Y-101418459D01*
X134763958Y-101421980D01*
X134763963Y-101421984D01*
X134937356Y-101529344D01*
X134937367Y-101529350D01*
X135053332Y-101574274D01*
X135127544Y-101603024D01*
X135328024Y-101640500D01*
X135328027Y-101640500D01*
X135531973Y-101640500D01*
X135531976Y-101640500D01*
X135732456Y-101603024D01*
X135922637Y-101529348D01*
X136096041Y-101421981D01*
X136246764Y-101284579D01*
X136369673Y-101121821D01*
X136460582Y-100939250D01*
X136516397Y-100743083D01*
X136535215Y-100540000D01*
X136516397Y-100336917D01*
X136460582Y-100140750D01*
X136369673Y-99958179D01*
X136246764Y-99795421D01*
X136096041Y-99658019D01*
X136096036Y-99658015D01*
X135922643Y-99550655D01*
X135922632Y-99550649D01*
X135732462Y-99476978D01*
X135732458Y-99476977D01*
X135732456Y-99476976D01*
X135692360Y-99469480D01*
X135531980Y-99439500D01*
X135531976Y-99439500D01*
X135328024Y-99439500D01*
X135328019Y-99439500D01*
X135127544Y-99476976D01*
X135127537Y-99476978D01*
X134937367Y-99550649D01*
X134937356Y-99550655D01*
X134763963Y-99658015D01*
X134763958Y-99658019D01*
X134613234Y-99795423D01*
X134490328Y-99958176D01*
X134399416Y-100140754D01*
X134343602Y-100336921D01*
X134324785Y-100539995D01*
X133995215Y-100539995D01*
X133976397Y-100336917D01*
X133920582Y-100140750D01*
X133829673Y-99958179D01*
X133706764Y-99795421D01*
X133556041Y-99658019D01*
X133556036Y-99658015D01*
X133382643Y-99550655D01*
X133382632Y-99550649D01*
X133192462Y-99476978D01*
X133192458Y-99476977D01*
X133192456Y-99476976D01*
X133152360Y-99469480D01*
X132991980Y-99439500D01*
X132991976Y-99439500D01*
X132788024Y-99439500D01*
X132788019Y-99439500D01*
X132587544Y-99476976D01*
X132587537Y-99476978D01*
X132397367Y-99550649D01*
X132397356Y-99550655D01*
X132223963Y-99658015D01*
X132223958Y-99658019D01*
X132073234Y-99795423D01*
X131950328Y-99958176D01*
X131859416Y-100140754D01*
X131803602Y-100336921D01*
X131784785Y-100539995D01*
X125377098Y-100539995D01*
X122837098Y-97999995D01*
X131784785Y-97999995D01*
X131784785Y-98000004D01*
X131803602Y-98203078D01*
X131803602Y-98203080D01*
X131803603Y-98203083D01*
X131810296Y-98226606D01*
X131859416Y-98399245D01*
X131859417Y-98399247D01*
X131859418Y-98399250D01*
X131934482Y-98550000D01*
X131950328Y-98581823D01*
X132003689Y-98652484D01*
X132073236Y-98744579D01*
X132223958Y-98881980D01*
X132223963Y-98881984D01*
X132397356Y-98989344D01*
X132397367Y-98989350D01*
X132513332Y-99034274D01*
X132587544Y-99063024D01*
X132788024Y-99100500D01*
X132788027Y-99100500D01*
X132991973Y-99100500D01*
X132991976Y-99100500D01*
X133192456Y-99063024D01*
X133382637Y-98989348D01*
X133556041Y-98881981D01*
X133706764Y-98744579D01*
X133829673Y-98581821D01*
X133920582Y-98399250D01*
X133976397Y-98203083D01*
X133986851Y-98090259D01*
X133995215Y-98000004D01*
X133995215Y-97999995D01*
X133984760Y-97887176D01*
X133976397Y-97796917D01*
X133920582Y-97600750D01*
X133829673Y-97418179D01*
X133706764Y-97255421D01*
X133556041Y-97118019D01*
X133556036Y-97118015D01*
X133382643Y-97010655D01*
X133382632Y-97010649D01*
X133192462Y-96936978D01*
X133192458Y-96936977D01*
X133192456Y-96936976D01*
X133152360Y-96929480D01*
X132991980Y-96899500D01*
X132991976Y-96899500D01*
X132788024Y-96899500D01*
X132788019Y-96899500D01*
X132587544Y-96936976D01*
X132587537Y-96936978D01*
X132397367Y-97010649D01*
X132397356Y-97010655D01*
X132223963Y-97118015D01*
X132223958Y-97118019D01*
X132073234Y-97255423D01*
X131950328Y-97418176D01*
X131859416Y-97600754D01*
X131803602Y-97796921D01*
X131784785Y-97999995D01*
X122837098Y-97999995D01*
X120951962Y-96114859D01*
X120913398Y-96048064D01*
X120913398Y-95970936D01*
X120951962Y-95904141D01*
X121018757Y-95865577D01*
X121057321Y-95860500D01*
X131767783Y-95860500D01*
X131842283Y-95880462D01*
X131896821Y-95935000D01*
X131901162Y-95943085D01*
X131950325Y-96041819D01*
X132021366Y-96135892D01*
X132073236Y-96204579D01*
X132162889Y-96286308D01*
X132223958Y-96341980D01*
X132223963Y-96341984D01*
X132397356Y-96449344D01*
X132397367Y-96449350D01*
X132452319Y-96470638D01*
X132587544Y-96523024D01*
X132788024Y-96560500D01*
X132788027Y-96560500D01*
X132991973Y-96560500D01*
X132991976Y-96560500D01*
X133192456Y-96523024D01*
X133382637Y-96449348D01*
X133556041Y-96341981D01*
X133706764Y-96204579D01*
X133829673Y-96041821D01*
X133920582Y-95859250D01*
X133976397Y-95663083D01*
X133990665Y-95509105D01*
X133995215Y-95460004D01*
X133995215Y-95459995D01*
X133979045Y-95285492D01*
X133976397Y-95256917D01*
X133920582Y-95060750D01*
X133829673Y-94878179D01*
X133728817Y-94744624D01*
X133699853Y-94673145D01*
X133710509Y-94596757D01*
X133757931Y-94535930D01*
X133829414Y-94506964D01*
X133905802Y-94517620D01*
G37*
%TD.AperFunction*%
%TA.AperFunction,Conductor*%
G36*
X141750000Y-78316988D02*
G01*
X141692993Y-78284075D01*
X141565826Y-78250000D01*
X141434174Y-78250000D01*
X141307007Y-78284075D01*
X141250000Y-78316988D01*
X141250000Y-76643012D01*
X141307007Y-76675925D01*
X141434174Y-76710000D01*
X141565826Y-76710000D01*
X141692993Y-76675925D01*
X141750000Y-76643012D01*
X141750000Y-78316988D01*
G37*
%TD.AperFunction*%
%TA.AperFunction,Conductor*%
G36*
X141750000Y-75776988D02*
G01*
X141692993Y-75744075D01*
X141565826Y-75710000D01*
X141434174Y-75710000D01*
X141307007Y-75744075D01*
X141250000Y-75776988D01*
X141250000Y-74103012D01*
X141307007Y-74135925D01*
X141434174Y-74170000D01*
X141565826Y-74170000D01*
X141692993Y-74135925D01*
X141750000Y-74103012D01*
X141750000Y-75776988D01*
G37*
%TD.AperFunction*%
%TA.AperFunction,Conductor*%
G36*
X175003252Y-69500642D02*
G01*
X175385661Y-69517338D01*
X175398605Y-69518470D01*
X175774894Y-69568010D01*
X175787659Y-69570261D01*
X176158203Y-69652408D01*
X176170756Y-69655772D01*
X176532716Y-69769897D01*
X176544931Y-69774343D01*
X176895555Y-69919576D01*
X176907336Y-69925069D01*
X177243991Y-70100321D01*
X177255230Y-70106810D01*
X177575339Y-70310741D01*
X177585953Y-70318174D01*
X177887071Y-70549229D01*
X177897013Y-70557572D01*
X178027176Y-70676845D01*
X178176830Y-70813978D01*
X178186021Y-70823169D01*
X178255537Y-70899032D01*
X178440354Y-71100724D01*
X178442420Y-71102978D01*
X178450771Y-71112931D01*
X178674778Y-71404861D01*
X178681819Y-71414037D01*
X178689261Y-71424665D01*
X178893184Y-71744762D01*
X178899678Y-71756008D01*
X179074930Y-72092663D01*
X179080423Y-72104444D01*
X179225656Y-72455068D01*
X179230102Y-72467283D01*
X179344227Y-72829243D01*
X179347591Y-72841798D01*
X179400198Y-73079089D01*
X179427906Y-73204075D01*
X179429734Y-73212318D01*
X179431991Y-73225120D01*
X179481528Y-73601393D01*
X179482661Y-73614341D01*
X179499358Y-73996746D01*
X179499500Y-74003246D01*
X179499500Y-121996753D01*
X179499358Y-122003253D01*
X179482661Y-122385658D01*
X179481528Y-122398606D01*
X179431991Y-122774879D01*
X179429734Y-122787681D01*
X179347591Y-123158201D01*
X179344227Y-123170756D01*
X179230102Y-123532716D01*
X179225656Y-123544931D01*
X179080423Y-123895555D01*
X179074930Y-123907336D01*
X178899678Y-124243991D01*
X178893178Y-124255247D01*
X178689268Y-124575323D01*
X178681819Y-124585962D01*
X178450776Y-124887063D01*
X178442420Y-124897021D01*
X178186021Y-125176830D01*
X178176830Y-125186021D01*
X177897021Y-125442420D01*
X177887063Y-125450776D01*
X177585962Y-125681819D01*
X177575323Y-125689268D01*
X177273011Y-125881861D01*
X177255247Y-125893179D01*
X177243991Y-125899678D01*
X176907336Y-126074930D01*
X176895555Y-126080423D01*
X176544931Y-126225656D01*
X176532716Y-126230102D01*
X176170756Y-126344227D01*
X176158201Y-126347591D01*
X175787681Y-126429734D01*
X175774879Y-126431991D01*
X175398606Y-126481528D01*
X175385658Y-126482661D01*
X175017666Y-126498728D01*
X175003251Y-126499358D01*
X174996753Y-126499500D01*
X109003247Y-126499500D01*
X108996748Y-126499358D01*
X108981482Y-126498691D01*
X108614341Y-126482661D01*
X108601393Y-126481528D01*
X108225120Y-126431991D01*
X108212322Y-126429734D01*
X108124024Y-126410159D01*
X107841798Y-126347591D01*
X107829243Y-126344227D01*
X107467283Y-126230102D01*
X107455068Y-126225656D01*
X107104444Y-126080423D01*
X107092663Y-126074930D01*
X106756008Y-125899678D01*
X106744762Y-125893184D01*
X106424665Y-125689261D01*
X106414037Y-125681819D01*
X106112936Y-125450776D01*
X106102984Y-125442425D01*
X105992320Y-125341020D01*
X105823169Y-125186021D01*
X105813978Y-125176830D01*
X105676845Y-125027176D01*
X105557572Y-124897013D01*
X105549229Y-124887071D01*
X105318174Y-124585953D01*
X105310741Y-124575339D01*
X105106810Y-124255230D01*
X105103790Y-124250000D01*
X106250000Y-124250000D01*
X111750000Y-124250000D01*
X172250000Y-124250000D01*
X177750000Y-124250000D01*
X177750000Y-119750000D01*
X172250000Y-119750000D01*
X172250000Y-124250000D01*
X111750000Y-124250000D01*
X111750000Y-119750000D01*
X106250000Y-119750000D01*
X106250000Y-124250000D01*
X105103790Y-124250000D01*
X105100321Y-124243991D01*
X104925069Y-123907336D01*
X104919576Y-123895555D01*
X104774343Y-123544931D01*
X104769897Y-123532716D01*
X104655772Y-123170756D01*
X104652408Y-123158201D01*
X104646101Y-123129752D01*
X104570261Y-122787659D01*
X104568010Y-122774894D01*
X104518470Y-122398605D01*
X104517338Y-122385657D01*
X104500642Y-122003252D01*
X104500500Y-121996753D01*
X104500500Y-116500000D01*
X105444532Y-116500000D01*
X105464365Y-116726693D01*
X105494086Y-116837612D01*
X105523261Y-116946496D01*
X105619432Y-117152734D01*
X105619435Y-117152738D01*
X105619437Y-117152741D01*
X105749951Y-117339137D01*
X105749953Y-117339139D01*
X105910861Y-117500047D01*
X106097266Y-117630568D01*
X106303504Y-117726739D01*
X106523308Y-117785635D01*
X106750000Y-117805468D01*
X106976692Y-117785635D01*
X107196496Y-117726739D01*
X107402734Y-117630568D01*
X107589139Y-117500047D01*
X107750047Y-117339139D01*
X107880568Y-117152734D01*
X107976739Y-116946496D01*
X108035635Y-116726692D01*
X108055468Y-116500000D01*
X108055468Y-116499998D01*
X109744859Y-116499998D01*
X109744859Y-116500001D01*
X109765386Y-116747733D01*
X109826412Y-116988721D01*
X109926266Y-117216367D01*
X110026562Y-117369882D01*
X110726211Y-116670232D01*
X110737482Y-116712292D01*
X110809890Y-116837708D01*
X110912292Y-116940110D01*
X111037708Y-117012518D01*
X111079765Y-117023787D01*
X110379943Y-117723609D01*
X110426766Y-117760054D01*
X110645393Y-117878368D01*
X110880506Y-117959082D01*
X111125708Y-117999999D01*
X111125708Y-118000000D01*
X111374292Y-118000000D01*
X111374291Y-117999999D01*
X111619493Y-117959082D01*
X111854606Y-117878368D01*
X112073236Y-117760051D01*
X112120055Y-117723610D01*
X111420234Y-117023787D01*
X111462292Y-117012518D01*
X111587708Y-116940110D01*
X111690110Y-116837708D01*
X111762518Y-116712292D01*
X111773787Y-116670233D01*
X112473436Y-117369881D01*
X112573732Y-117216365D01*
X112573736Y-117216358D01*
X112673587Y-116988721D01*
X112734613Y-116747733D01*
X112755141Y-116500001D01*
X112755141Y-116499998D01*
X112734613Y-116252266D01*
X112673587Y-116011278D01*
X112573733Y-115783632D01*
X112473436Y-115630116D01*
X111773787Y-116329764D01*
X111762518Y-116287708D01*
X111690110Y-116162292D01*
X111587708Y-116059890D01*
X111462292Y-115987482D01*
X111420232Y-115976211D01*
X112120055Y-115276389D01*
X112120055Y-115276388D01*
X112073235Y-115239947D01*
X112073230Y-115239944D01*
X111854606Y-115121631D01*
X111619493Y-115040917D01*
X111374291Y-115000000D01*
X111125708Y-115000000D01*
X110880506Y-115040917D01*
X110645393Y-115121631D01*
X110426768Y-115239944D01*
X110426764Y-115239946D01*
X110379943Y-115276388D01*
X110379943Y-115276389D01*
X111079766Y-115976212D01*
X111037708Y-115987482D01*
X110912292Y-116059890D01*
X110809890Y-116162292D01*
X110737482Y-116287708D01*
X110726212Y-116329766D01*
X110026563Y-115630117D01*
X109926265Y-115783635D01*
X109826412Y-116011278D01*
X109765386Y-116252266D01*
X109744859Y-116499998D01*
X108055468Y-116499998D01*
X108035635Y-116273308D01*
X107976739Y-116053504D01*
X107880568Y-115847266D01*
X107750047Y-115660861D01*
X107589139Y-115499953D01*
X107589137Y-115499951D01*
X107402741Y-115369437D01*
X107402738Y-115369435D01*
X107402734Y-115369432D01*
X107196496Y-115273261D01*
X106976692Y-115214365D01*
X106976693Y-115214365D01*
X106750000Y-115194532D01*
X106523306Y-115214365D01*
X106303507Y-115273260D01*
X106303506Y-115273260D01*
X106303504Y-115273261D01*
X106097266Y-115369432D01*
X106097263Y-115369434D01*
X106097261Y-115369435D01*
X106097258Y-115369437D01*
X105910862Y-115499951D01*
X105749951Y-115660862D01*
X105619437Y-115847258D01*
X105619435Y-115847261D01*
X105619434Y-115847263D01*
X105619432Y-115847266D01*
X105542438Y-116012379D01*
X105523260Y-116053507D01*
X105464365Y-116273306D01*
X105444532Y-116500000D01*
X104500500Y-116500000D01*
X104500500Y-110000000D01*
X105444532Y-110000000D01*
X105464365Y-110226693D01*
X105478844Y-110280729D01*
X105523261Y-110446496D01*
X105619432Y-110652734D01*
X105619435Y-110652738D01*
X105619437Y-110652741D01*
X105749951Y-110839137D01*
X105749953Y-110839139D01*
X105910861Y-111000047D01*
X106097266Y-111130568D01*
X106303504Y-111226739D01*
X106523308Y-111285635D01*
X106750000Y-111305468D01*
X106976692Y-111285635D01*
X107196496Y-111226739D01*
X107402734Y-111130568D01*
X107589139Y-111000047D01*
X107750047Y-110839139D01*
X107880568Y-110652734D01*
X107976739Y-110446496D01*
X108035635Y-110226692D01*
X108055468Y-110000000D01*
X108055468Y-109999998D01*
X109744859Y-109999998D01*
X109744859Y-110000001D01*
X109765386Y-110247733D01*
X109826412Y-110488721D01*
X109926266Y-110716367D01*
X110026562Y-110869882D01*
X110726211Y-110170232D01*
X110737482Y-110212292D01*
X110809890Y-110337708D01*
X110912292Y-110440110D01*
X111037708Y-110512518D01*
X111079765Y-110523787D01*
X110379943Y-111223609D01*
X110426766Y-111260054D01*
X110645393Y-111378368D01*
X110880506Y-111459082D01*
X111125708Y-111499999D01*
X111125708Y-111500000D01*
X111374292Y-111500000D01*
X111374291Y-111499999D01*
X111619493Y-111459082D01*
X111854606Y-111378368D01*
X112041590Y-111277177D01*
X114260500Y-111277177D01*
X114260500Y-111925000D01*
X115177488Y-111925000D01*
X115144575Y-111982007D01*
X115110500Y-112109174D01*
X115110500Y-112240826D01*
X115144575Y-112367993D01*
X115177488Y-112425000D01*
X114260500Y-112425000D01*
X114260500Y-113072822D01*
X114260501Y-113072842D01*
X114266901Y-113132377D01*
X114317145Y-113267084D01*
X114317150Y-113267094D01*
X114403309Y-113382187D01*
X114403312Y-113382190D01*
X114518405Y-113468349D01*
X114518415Y-113468354D01*
X114653123Y-113518598D01*
X114653121Y-113518598D01*
X114712657Y-113524998D01*
X114712677Y-113525000D01*
X114824463Y-113525000D01*
X114898963Y-113544962D01*
X114953501Y-113599500D01*
X114973463Y-113674000D01*
X114953501Y-113748500D01*
X114918796Y-113787766D01*
X114919289Y-113788307D01*
X114914295Y-113792858D01*
X114914256Y-113792904D01*
X114914199Y-113792946D01*
X114756627Y-113936593D01*
X114628136Y-114106740D01*
X114533094Y-114297612D01*
X114533093Y-114297614D01*
X114474743Y-114502694D01*
X114455071Y-114714995D01*
X114455071Y-114715004D01*
X114474743Y-114927305D01*
X114533093Y-115132385D01*
X114533094Y-115132387D01*
X114628136Y-115323259D01*
X114756627Y-115493406D01*
X114914197Y-115637051D01*
X114914198Y-115637052D01*
X115095477Y-115749296D01*
X115095483Y-115749299D01*
X115182689Y-115783082D01*
X115294302Y-115826321D01*
X115359652Y-115838537D01*
X115429216Y-115871849D01*
X115472803Y-115935480D01*
X115478736Y-116012379D01*
X115445424Y-116081943D01*
X115381793Y-116125530D01*
X115359653Y-116131462D01*
X115294302Y-116143679D01*
X115294295Y-116143681D01*
X115095483Y-116220700D01*
X115095477Y-116220703D01*
X114914198Y-116332947D01*
X114914197Y-116332948D01*
X114756627Y-116476593D01*
X114628136Y-116646740D01*
X114533094Y-116837612D01*
X114533093Y-116837614D01*
X114474743Y-117042694D01*
X114455071Y-117254995D01*
X114455071Y-117255004D01*
X114474743Y-117467305D01*
X114533093Y-117672385D01*
X114533094Y-117672387D01*
X114628136Y-117863259D01*
X114731399Y-117999999D01*
X114756628Y-118033407D01*
X114822264Y-118093242D01*
X114914197Y-118177051D01*
X114914198Y-118177052D01*
X115095477Y-118289296D01*
X115095483Y-118289299D01*
X115138279Y-118305878D01*
X115294302Y-118366321D01*
X115359652Y-118378537D01*
X115429216Y-118411849D01*
X115472803Y-118475480D01*
X115478736Y-118552379D01*
X115445424Y-118621943D01*
X115381793Y-118665530D01*
X115359653Y-118671462D01*
X115323173Y-118678282D01*
X115294302Y-118683679D01*
X115294295Y-118683681D01*
X115095483Y-118760700D01*
X115095477Y-118760703D01*
X114914198Y-118872947D01*
X114914197Y-118872948D01*
X114756627Y-119016593D01*
X114628136Y-119186740D01*
X114533094Y-119377612D01*
X114533093Y-119377614D01*
X114474743Y-119582694D01*
X114455071Y-119794995D01*
X114455071Y-119795004D01*
X114474743Y-120007305D01*
X114474743Y-120007307D01*
X114474744Y-120007310D01*
X114483812Y-120039179D01*
X114533093Y-120212385D01*
X114533094Y-120212387D01*
X114628136Y-120403259D01*
X114684792Y-120478282D01*
X114756628Y-120573407D01*
X114757867Y-120574536D01*
X114914197Y-120717051D01*
X114914198Y-120717052D01*
X115095477Y-120829296D01*
X115095483Y-120829299D01*
X115182689Y-120863082D01*
X115294302Y-120906321D01*
X115503890Y-120945500D01*
X115503893Y-120945500D01*
X115717107Y-120945500D01*
X115717110Y-120945500D01*
X115926698Y-120906321D01*
X116125519Y-120829298D01*
X116306802Y-120717052D01*
X116464372Y-120573407D01*
X116592866Y-120403255D01*
X116687905Y-120212389D01*
X116737188Y-120039177D01*
X116776776Y-119972986D01*
X116844157Y-119935455D01*
X116921276Y-119936643D01*
X116987469Y-119976231D01*
X117023812Y-120039179D01*
X117073093Y-120212385D01*
X117073094Y-120212387D01*
X117168136Y-120403259D01*
X117224792Y-120478282D01*
X117296628Y-120573407D01*
X117297867Y-120574536D01*
X117454197Y-120717051D01*
X117454198Y-120717052D01*
X117635477Y-120829296D01*
X117635483Y-120829299D01*
X117722689Y-120863082D01*
X117834302Y-120906321D01*
X118043890Y-120945500D01*
X118043893Y-120945500D01*
X118257107Y-120945500D01*
X118257110Y-120945500D01*
X118466698Y-120906321D01*
X118665519Y-120829298D01*
X118846802Y-120717052D01*
X119004372Y-120573407D01*
X119132866Y-120403255D01*
X119227905Y-120212389D01*
X119286256Y-120007310D01*
X119302845Y-119828282D01*
X119305929Y-119795004D01*
X119305929Y-119794995D01*
X119292238Y-119647251D01*
X119286256Y-119582690D01*
X119227905Y-119377611D01*
X119132866Y-119186745D01*
X119132864Y-119186743D01*
X119132863Y-119186740D01*
X119004372Y-119016593D01*
X118846802Y-118872948D01*
X118846801Y-118872947D01*
X118665522Y-118760703D01*
X118665516Y-118760700D01*
X118466704Y-118683681D01*
X118466700Y-118683680D01*
X118466698Y-118683679D01*
X118401346Y-118671462D01*
X118331784Y-118638151D01*
X118288196Y-118574521D01*
X118282263Y-118497621D01*
X118315575Y-118428058D01*
X118379205Y-118384470D01*
X118401343Y-118378537D01*
X118466698Y-118366321D01*
X118665519Y-118289298D01*
X118846802Y-118177052D01*
X119004372Y-118033407D01*
X119132866Y-117863255D01*
X119227905Y-117672389D01*
X119286256Y-117467310D01*
X119305929Y-117255000D01*
X119302349Y-117216367D01*
X119289436Y-117077013D01*
X119286256Y-117042690D01*
X119227905Y-116837611D01*
X119132866Y-116646745D01*
X119132864Y-116646743D01*
X119132863Y-116646740D01*
X119004372Y-116476593D01*
X118846802Y-116332948D01*
X118846801Y-116332947D01*
X118665522Y-116220703D01*
X118665516Y-116220700D01*
X118466704Y-116143681D01*
X118466700Y-116143680D01*
X118466698Y-116143679D01*
X118401346Y-116131462D01*
X118331784Y-116098151D01*
X118288196Y-116034521D01*
X118282263Y-115957621D01*
X118315575Y-115888058D01*
X118379205Y-115844470D01*
X118401343Y-115838537D01*
X118466698Y-115826321D01*
X118665519Y-115749298D01*
X118846802Y-115637052D01*
X119004372Y-115493407D01*
X119132866Y-115323255D01*
X119227905Y-115132389D01*
X119286256Y-114927310D01*
X119305929Y-114715000D01*
X119286256Y-114502690D01*
X119234556Y-114320989D01*
X119227906Y-114297614D01*
X119227905Y-114297612D01*
X119226711Y-114295214D01*
X119132866Y-114106745D01*
X119132864Y-114106743D01*
X119132863Y-114106740D01*
X119004372Y-113936593D01*
X118846802Y-113792948D01*
X118846801Y-113792947D01*
X118665522Y-113680703D01*
X118665516Y-113680700D01*
X118466704Y-113603681D01*
X118466700Y-113603680D01*
X118466698Y-113603679D01*
X118401346Y-113591462D01*
X118331784Y-113558151D01*
X118288196Y-113494521D01*
X118282263Y-113417621D01*
X118315575Y-113348058D01*
X118379205Y-113304470D01*
X118401343Y-113298537D01*
X118466698Y-113286321D01*
X118665519Y-113209298D01*
X118846802Y-113097052D01*
X119004372Y-112953407D01*
X119132866Y-112783255D01*
X119227905Y-112592389D01*
X119286256Y-112387310D01*
X119305929Y-112175000D01*
X119305495Y-112170318D01*
X119290230Y-112005577D01*
X119286256Y-111962690D01*
X119227905Y-111757611D01*
X119132866Y-111566745D01*
X119132864Y-111566743D01*
X119132863Y-111566740D01*
X119004372Y-111396593D01*
X118846802Y-111252948D01*
X118846801Y-111252947D01*
X118665522Y-111140703D01*
X118665516Y-111140700D01*
X118466704Y-111063681D01*
X118466700Y-111063680D01*
X118466698Y-111063679D01*
X118424780Y-111055843D01*
X118257114Y-111024500D01*
X118257110Y-111024500D01*
X118043890Y-111024500D01*
X118043885Y-111024500D01*
X117834302Y-111063679D01*
X117834295Y-111063681D01*
X117635483Y-111140700D01*
X117635477Y-111140703D01*
X117454198Y-111252947D01*
X117454197Y-111252948D01*
X117296629Y-111396591D01*
X117228404Y-111486935D01*
X117167577Y-111534357D01*
X117091188Y-111545011D01*
X117019706Y-111516045D01*
X116972284Y-111455218D01*
X116960500Y-111397141D01*
X116960500Y-111277177D01*
X116960498Y-111277157D01*
X116954098Y-111217622D01*
X116903854Y-111082915D01*
X116903849Y-111082905D01*
X116817690Y-110967812D01*
X116817687Y-110967809D01*
X116702594Y-110881650D01*
X116702584Y-110881645D01*
X116567876Y-110831401D01*
X116567878Y-110831401D01*
X116508342Y-110825001D01*
X116508323Y-110825000D01*
X115860500Y-110825000D01*
X115860500Y-111741988D01*
X115803493Y-111709075D01*
X115676326Y-111675000D01*
X115544674Y-111675000D01*
X115417507Y-111709075D01*
X115360500Y-111741988D01*
X115360500Y-110825000D01*
X114712677Y-110825000D01*
X114712657Y-110825001D01*
X114653122Y-110831401D01*
X114518415Y-110881645D01*
X114518405Y-110881650D01*
X114403312Y-110967809D01*
X114403309Y-110967812D01*
X114317150Y-111082905D01*
X114317145Y-111082915D01*
X114266901Y-111217622D01*
X114260501Y-111277157D01*
X114260500Y-111277177D01*
X112041590Y-111277177D01*
X112073236Y-111260051D01*
X112120055Y-111223610D01*
X111420234Y-110523787D01*
X111462292Y-110512518D01*
X111587708Y-110440110D01*
X111690110Y-110337708D01*
X111762518Y-110212292D01*
X111773787Y-110170233D01*
X112473436Y-110869881D01*
X112573732Y-110716365D01*
X112573736Y-110716358D01*
X112673587Y-110488721D01*
X112734613Y-110247733D01*
X112755141Y-110000001D01*
X112755141Y-109999998D01*
X112734613Y-109752266D01*
X112673587Y-109511278D01*
X112573733Y-109283632D01*
X112473436Y-109130116D01*
X111773787Y-109829764D01*
X111762518Y-109787708D01*
X111690110Y-109662292D01*
X111587708Y-109559890D01*
X111462292Y-109487482D01*
X111420232Y-109476211D01*
X112120055Y-108776389D01*
X112120055Y-108776388D01*
X112073235Y-108739947D01*
X112073230Y-108739944D01*
X111854606Y-108621631D01*
X111619493Y-108540917D01*
X111374291Y-108500000D01*
X111125708Y-108500000D01*
X110880506Y-108540917D01*
X110645393Y-108621631D01*
X110426768Y-108739944D01*
X110426764Y-108739946D01*
X110379943Y-108776388D01*
X110379943Y-108776389D01*
X111079766Y-109476212D01*
X111037708Y-109487482D01*
X110912292Y-109559890D01*
X110809890Y-109662292D01*
X110737482Y-109787708D01*
X110726212Y-109829766D01*
X110026563Y-109130117D01*
X109926265Y-109283635D01*
X109826412Y-109511278D01*
X109765386Y-109752266D01*
X109744859Y-109999998D01*
X108055468Y-109999998D01*
X108035635Y-109773308D01*
X107976739Y-109553504D01*
X107880568Y-109347266D01*
X107763125Y-109179538D01*
X107750048Y-109160862D01*
X107589137Y-108999951D01*
X107402741Y-108869437D01*
X107402738Y-108869435D01*
X107402734Y-108869432D01*
X107196496Y-108773261D01*
X106976692Y-108714365D01*
X106976693Y-108714365D01*
X106750000Y-108694532D01*
X106523306Y-108714365D01*
X106303507Y-108773260D01*
X106303506Y-108773260D01*
X106303504Y-108773261D01*
X106097266Y-108869432D01*
X106097263Y-108869434D01*
X106097261Y-108869435D01*
X106097258Y-108869437D01*
X105910862Y-108999951D01*
X105749951Y-109160862D01*
X105619437Y-109347258D01*
X105619435Y-109347261D01*
X105619434Y-109347263D01*
X105619432Y-109347266D01*
X105523261Y-109553504D01*
X105523260Y-109553507D01*
X105464365Y-109773306D01*
X105444532Y-110000000D01*
X104500500Y-110000000D01*
X104500500Y-105620000D01*
X106185034Y-105620000D01*
X106204859Y-105846606D01*
X106263732Y-106066323D01*
X106263733Y-106066325D01*
X106359866Y-106272483D01*
X106359872Y-106272492D01*
X106410973Y-106345471D01*
X106966212Y-105790232D01*
X106977482Y-105832292D01*
X107049890Y-105957708D01*
X107152292Y-106060110D01*
X107277708Y-106132518D01*
X107319765Y-106143787D01*
X106764526Y-106699025D01*
X106837509Y-106750129D01*
X106837515Y-106750132D01*
X107043674Y-106846266D01*
X107043676Y-106846267D01*
X107263394Y-106905140D01*
X107263393Y-106905140D01*
X107490000Y-106924965D01*
X107716606Y-106905140D01*
X107936323Y-106846267D01*
X107936325Y-106846266D01*
X108142478Y-106750136D01*
X108142484Y-106750132D01*
X108215471Y-106699024D01*
X107660234Y-106143787D01*
X107702292Y-106132518D01*
X107827708Y-106060110D01*
X107930110Y-105957708D01*
X108002518Y-105832292D01*
X108013787Y-105790234D01*
X108569024Y-106345471D01*
X108620132Y-106272484D01*
X108620136Y-106272478D01*
X108716266Y-106066325D01*
X108716268Y-106066321D01*
X108721662Y-106046190D01*
X108760225Y-105979395D01*
X108827020Y-105940830D01*
X108904148Y-105940830D01*
X108970943Y-105979393D01*
X108998965Y-106018339D01*
X108999417Y-106019247D01*
X108999418Y-106019250D01*
X109090327Y-106201821D01*
X109213236Y-106364579D01*
X109314464Y-106456860D01*
X109363958Y-106501980D01*
X109363963Y-106501984D01*
X109537356Y-106609344D01*
X109537367Y-106609350D01*
X109653332Y-106654274D01*
X109727544Y-106683024D01*
X109928024Y-106720500D01*
X109928027Y-106720500D01*
X110131973Y-106720500D01*
X110131976Y-106720500D01*
X110332456Y-106683024D01*
X110522637Y-106609348D01*
X110620123Y-106548986D01*
X110693970Y-106526741D01*
X110769049Y-106544399D01*
X110803918Y-106570311D01*
X113154088Y-108920481D01*
X113184529Y-108938055D01*
X113245413Y-108973207D01*
X113347273Y-109000500D01*
X113452727Y-109000500D01*
X123172389Y-109000500D01*
X123246889Y-109020462D01*
X123277748Y-109044141D01*
X128704428Y-114470820D01*
X134052617Y-119819009D01*
X134068683Y-119828284D01*
X134099542Y-119851963D01*
X134272454Y-120024876D01*
X134311018Y-120091671D01*
X134314819Y-120110784D01*
X134327456Y-120206762D01*
X134335712Y-120226693D01*
X134387963Y-120352840D01*
X134387964Y-120352841D01*
X134484218Y-120478282D01*
X134609659Y-120574536D01*
X134755738Y-120635044D01*
X134755741Y-120635044D01*
X134755743Y-120635045D01*
X134755740Y-120635045D01*
X134912497Y-120655682D01*
X134912500Y-120655682D01*
X134912503Y-120655682D01*
X135069257Y-120635045D01*
X135069258Y-120635044D01*
X135069262Y-120635044D01*
X135215341Y-120574536D01*
X135340782Y-120478282D01*
X135437036Y-120352841D01*
X135497544Y-120206762D01*
X135499209Y-120194121D01*
X135518182Y-120050002D01*
X135518182Y-120049997D01*
X135497545Y-119893242D01*
X135497544Y-119893240D01*
X135497544Y-119893238D01*
X135437036Y-119747159D01*
X135437034Y-119747154D01*
X135432152Y-119738698D01*
X135434396Y-119737401D01*
X135410567Y-119679872D01*
X135420634Y-119603404D01*
X135440082Y-119569718D01*
X135452521Y-119553507D01*
X135505786Y-119484091D01*
X135566294Y-119338012D01*
X135571382Y-119299370D01*
X135586932Y-119181252D01*
X135586932Y-119181247D01*
X135566295Y-119024492D01*
X135566294Y-119024490D01*
X135566294Y-119024488D01*
X135537567Y-118955135D01*
X146699500Y-118955135D01*
X146699500Y-118955136D01*
X146699500Y-118955140D01*
X146699500Y-121044866D01*
X146702414Y-121069989D01*
X146702415Y-121069992D01*
X146747793Y-121172764D01*
X146747794Y-121172765D01*
X146827235Y-121252206D01*
X146930009Y-121297585D01*
X146955135Y-121300500D01*
X149044864Y-121300499D01*
X149044866Y-121300499D01*
X149057427Y-121299042D01*
X149069991Y-121297585D01*
X149172765Y-121252206D01*
X149252206Y-121172765D01*
X149297585Y-121069991D01*
X149300500Y-121044865D01*
X149300499Y-120000000D01*
X154294532Y-120000000D01*
X154314365Y-120226693D01*
X154348166Y-120352840D01*
X154373261Y-120446496D01*
X154469432Y-120652734D01*
X154469435Y-120652738D01*
X154469437Y-120652741D01*
X154599951Y-120839137D01*
X154599953Y-120839139D01*
X154760861Y-121000047D01*
X154947266Y-121130568D01*
X155153504Y-121226739D01*
X155373308Y-121285635D01*
X155600000Y-121305468D01*
X155826692Y-121285635D01*
X156046496Y-121226739D01*
X156252734Y-121130568D01*
X156439139Y-121000047D01*
X156600047Y-120839139D01*
X156730568Y-120652734D01*
X156826739Y-120446496D01*
X156885635Y-120226692D01*
X156905468Y-120000000D01*
X156885635Y-119773308D01*
X156826739Y-119553504D01*
X156730568Y-119347266D01*
X156614325Y-119181252D01*
X156600048Y-119160862D01*
X156439137Y-118999951D01*
X156252741Y-118869437D01*
X156252738Y-118869435D01*
X156252734Y-118869432D01*
X156046496Y-118773261D01*
X155826692Y-118714365D01*
X155826693Y-118714365D01*
X155600000Y-118694532D01*
X155373306Y-118714365D01*
X155153507Y-118773260D01*
X155153506Y-118773260D01*
X155153504Y-118773261D01*
X154947266Y-118869432D01*
X154947263Y-118869434D01*
X154947261Y-118869435D01*
X154947258Y-118869437D01*
X154760862Y-118999951D01*
X154599951Y-119160862D01*
X154469437Y-119347258D01*
X154469435Y-119347261D01*
X154469434Y-119347263D01*
X154469432Y-119347266D01*
X154374860Y-119550075D01*
X154373260Y-119553507D01*
X154314365Y-119773306D01*
X154294532Y-120000000D01*
X149300499Y-120000000D01*
X149300499Y-118955136D01*
X149297585Y-118930009D01*
X149252206Y-118827235D01*
X149172765Y-118747794D01*
X149172764Y-118747793D01*
X149069994Y-118702416D01*
X149069991Y-118702415D01*
X149069982Y-118702414D01*
X149044865Y-118699500D01*
X149044859Y-118699500D01*
X146955133Y-118699500D01*
X146930010Y-118702414D01*
X146930007Y-118702415D01*
X146827235Y-118747793D01*
X146747793Y-118827235D01*
X146702416Y-118930005D01*
X146702415Y-118930008D01*
X146702415Y-118930009D01*
X146699500Y-118955135D01*
X135537567Y-118955135D01*
X135505786Y-118878409D01*
X135416100Y-118761528D01*
X135386587Y-118690274D01*
X135396654Y-118613806D01*
X135416098Y-118580126D01*
X135420024Y-118575010D01*
X162500000Y-118575010D01*
X162500000Y-119000000D01*
X163319670Y-119000000D01*
X163299925Y-119019745D01*
X163250556Y-119105255D01*
X163225000Y-119200630D01*
X163225000Y-119299370D01*
X163250556Y-119394745D01*
X163299925Y-119480255D01*
X163319670Y-119500000D01*
X162500001Y-119500000D01*
X162500001Y-119924973D01*
X162510494Y-120027696D01*
X162565642Y-120194121D01*
X162657680Y-120343340D01*
X162781659Y-120467319D01*
X162930878Y-120559357D01*
X163097302Y-120614505D01*
X163097311Y-120614507D01*
X163200015Y-120624999D01*
X163350000Y-120624999D01*
X163350000Y-119530330D01*
X163369745Y-119550075D01*
X163455255Y-119599444D01*
X163550630Y-119625000D01*
X163649370Y-119625000D01*
X163744745Y-119599444D01*
X163830255Y-119550075D01*
X163850000Y-119530330D01*
X163850000Y-120624999D01*
X163999974Y-120624999D01*
X164102696Y-120614505D01*
X164269121Y-120559357D01*
X164418340Y-120467319D01*
X164542319Y-120343340D01*
X164634358Y-120194120D01*
X164648304Y-120152034D01*
X164690686Y-120087595D01*
X164759610Y-120052979D01*
X164836608Y-120057464D01*
X164894004Y-120095214D01*
X164895360Y-120093859D01*
X164900536Y-120099035D01*
X165025965Y-120224464D01*
X165025968Y-120224466D01*
X165173451Y-120323012D01*
X165173453Y-120323013D01*
X165337334Y-120390894D01*
X165511309Y-120425500D01*
X165688691Y-120425500D01*
X165862666Y-120390894D01*
X166026547Y-120323013D01*
X166174035Y-120224464D01*
X166299464Y-120099035D01*
X166398013Y-119951547D01*
X166462342Y-119796240D01*
X166509294Y-119735051D01*
X166580551Y-119705535D01*
X166657019Y-119715602D01*
X166718209Y-119762554D01*
X166737658Y-119796241D01*
X166801986Y-119951546D01*
X166801987Y-119951548D01*
X166867773Y-120050002D01*
X166900536Y-120099035D01*
X167025965Y-120224464D01*
X167025968Y-120224466D01*
X167173451Y-120323012D01*
X167173453Y-120323013D01*
X167337334Y-120390894D01*
X167511309Y-120425500D01*
X167688691Y-120425500D01*
X167862666Y-120390894D01*
X168026547Y-120323013D01*
X168174035Y-120224464D01*
X168299464Y-120099035D01*
X168398013Y-119951547D01*
X168465894Y-119787666D01*
X168500500Y-119613691D01*
X168500500Y-118886309D01*
X168498250Y-118875000D01*
X168478013Y-118773260D01*
X168465894Y-118712334D01*
X168398013Y-118548453D01*
X168330943Y-118448077D01*
X168299466Y-118400968D01*
X168299462Y-118400963D01*
X168174036Y-118275537D01*
X168174031Y-118275533D01*
X168026548Y-118176987D01*
X168026546Y-118176986D01*
X167862667Y-118109106D01*
X167862663Y-118109105D01*
X167688691Y-118074500D01*
X167511309Y-118074500D01*
X167337336Y-118109105D01*
X167337332Y-118109106D01*
X167173453Y-118176986D01*
X167173451Y-118176987D01*
X167025968Y-118275533D01*
X167025963Y-118275537D01*
X166900537Y-118400963D01*
X166900533Y-118400968D01*
X166801987Y-118548451D01*
X166801986Y-118548454D01*
X166737658Y-118703758D01*
X166690706Y-118764948D01*
X166619449Y-118794464D01*
X166542981Y-118784397D01*
X166481791Y-118737445D01*
X166462342Y-118703758D01*
X166409013Y-118575010D01*
X166398013Y-118548453D01*
X166330943Y-118448077D01*
X166299466Y-118400968D01*
X166299462Y-118400963D01*
X166174036Y-118275537D01*
X166174031Y-118275533D01*
X166026548Y-118176987D01*
X166026546Y-118176986D01*
X165862667Y-118109106D01*
X165862663Y-118109105D01*
X165688691Y-118074500D01*
X165511309Y-118074500D01*
X165337336Y-118109105D01*
X165337332Y-118109106D01*
X165173453Y-118176986D01*
X165173451Y-118176987D01*
X165025968Y-118275533D01*
X165025963Y-118275537D01*
X164895360Y-118406141D01*
X164893244Y-118404025D01*
X164842051Y-118440614D01*
X164765285Y-118448077D01*
X164695072Y-118416158D01*
X164650225Y-118353408D01*
X164648304Y-118347965D01*
X164634358Y-118305880D01*
X164634358Y-118305879D01*
X164542319Y-118156659D01*
X164418340Y-118032680D01*
X164269121Y-117940642D01*
X164102697Y-117885494D01*
X164102688Y-117885492D01*
X163999989Y-117875000D01*
X163850000Y-117875000D01*
X163850000Y-118969670D01*
X163830255Y-118949925D01*
X163744745Y-118900556D01*
X163649370Y-118875000D01*
X163550630Y-118875000D01*
X163455255Y-118900556D01*
X163369745Y-118949925D01*
X163350000Y-118969670D01*
X163350000Y-117875000D01*
X163200026Y-117875000D01*
X163097303Y-117885494D01*
X162930878Y-117940642D01*
X162781659Y-118032680D01*
X162657680Y-118156659D01*
X162565642Y-118305878D01*
X162510494Y-118472302D01*
X162510492Y-118472311D01*
X162500000Y-118575010D01*
X135420024Y-118575010D01*
X135437036Y-118552841D01*
X135497544Y-118406762D01*
X135497905Y-118404025D01*
X135518182Y-118250002D01*
X135518182Y-118249997D01*
X135497545Y-118093242D01*
X135497544Y-118093240D01*
X135497544Y-118093238D01*
X135437036Y-117947159D01*
X135340782Y-117821718D01*
X135319604Y-117805467D01*
X135215340Y-117725463D01*
X135069258Y-117664954D01*
X134917399Y-117644962D01*
X134846142Y-117615447D01*
X134831489Y-117602596D01*
X130682309Y-113453416D01*
X130643745Y-113386621D01*
X130643745Y-113309493D01*
X130682309Y-113242698D01*
X130696955Y-113229854D01*
X130730282Y-113204282D01*
X130826536Y-113078841D01*
X130887044Y-112932762D01*
X130889734Y-112912334D01*
X130907037Y-112780899D01*
X130909476Y-112775010D01*
X162500000Y-112775010D01*
X162500000Y-113200000D01*
X163319670Y-113200000D01*
X163299925Y-113219745D01*
X163250556Y-113305255D01*
X163225000Y-113400630D01*
X163225000Y-113499370D01*
X163250556Y-113594745D01*
X163299925Y-113680255D01*
X163319670Y-113700000D01*
X162500001Y-113700000D01*
X162500001Y-114124973D01*
X162510494Y-114227696D01*
X162565642Y-114394121D01*
X162657680Y-114543340D01*
X162781659Y-114667319D01*
X162930878Y-114759357D01*
X163097302Y-114814505D01*
X163097311Y-114814507D01*
X163200015Y-114824999D01*
X163350000Y-114824999D01*
X163350000Y-113730330D01*
X163369745Y-113750075D01*
X163455255Y-113799444D01*
X163550630Y-113825000D01*
X163649370Y-113825000D01*
X163744745Y-113799444D01*
X163830255Y-113750075D01*
X163850000Y-113730330D01*
X163850000Y-114824999D01*
X163999974Y-114824999D01*
X164102696Y-114814505D01*
X164269121Y-114759357D01*
X164418340Y-114667319D01*
X164542319Y-114543340D01*
X164634358Y-114394120D01*
X164648304Y-114352034D01*
X164690686Y-114287595D01*
X164759610Y-114252979D01*
X164836608Y-114257464D01*
X164894004Y-114295214D01*
X164895360Y-114293859D01*
X164900536Y-114299035D01*
X165025965Y-114424464D01*
X165025968Y-114424466D01*
X165173451Y-114523012D01*
X165173453Y-114523013D01*
X165337334Y-114590894D01*
X165511309Y-114625500D01*
X165688691Y-114625500D01*
X165862666Y-114590894D01*
X166026547Y-114523013D01*
X166174035Y-114424464D01*
X166299464Y-114299035D01*
X166398013Y-114151547D01*
X166462342Y-113996240D01*
X166509294Y-113935051D01*
X166580551Y-113905535D01*
X166657019Y-113915602D01*
X166718209Y-113962554D01*
X166737658Y-113996241D01*
X166801986Y-114151546D01*
X166801987Y-114151548D01*
X166900533Y-114299031D01*
X166900536Y-114299035D01*
X167025965Y-114424464D01*
X167025968Y-114424466D01*
X167173451Y-114523012D01*
X167173453Y-114523013D01*
X167337334Y-114590894D01*
X167511309Y-114625500D01*
X167688691Y-114625500D01*
X167862666Y-114590894D01*
X168026547Y-114523013D01*
X168174035Y-114424464D01*
X168299464Y-114299035D01*
X168398013Y-114151547D01*
X168465894Y-113987666D01*
X168500500Y-113813691D01*
X168500500Y-113086309D01*
X168498250Y-113075000D01*
X168480228Y-112984397D01*
X168465894Y-112912334D01*
X168409013Y-112775010D01*
X171500000Y-112775010D01*
X171500000Y-113200000D01*
X172319670Y-113200000D01*
X172299925Y-113219745D01*
X172250556Y-113305255D01*
X172225000Y-113400630D01*
X172225000Y-113499370D01*
X172250556Y-113594745D01*
X172299925Y-113680255D01*
X172319670Y-113700000D01*
X171500001Y-113700000D01*
X171500001Y-114124973D01*
X171510494Y-114227696D01*
X171565642Y-114394121D01*
X171657680Y-114543340D01*
X171781659Y-114667319D01*
X171930878Y-114759357D01*
X172097302Y-114814505D01*
X172097311Y-114814507D01*
X172200015Y-114824999D01*
X172350000Y-114824999D01*
X172350000Y-113730330D01*
X172369745Y-113750075D01*
X172455255Y-113799444D01*
X172550630Y-113825000D01*
X172649370Y-113825000D01*
X172744745Y-113799444D01*
X172830255Y-113750075D01*
X172850000Y-113730330D01*
X172850000Y-114824999D01*
X172999974Y-114824999D01*
X173102696Y-114814505D01*
X173269121Y-114759357D01*
X173418340Y-114667319D01*
X173542319Y-114543340D01*
X173634358Y-114394120D01*
X173648304Y-114352034D01*
X173690686Y-114287595D01*
X173759610Y-114252979D01*
X173836608Y-114257464D01*
X173894004Y-114295214D01*
X173895360Y-114293859D01*
X173900536Y-114299035D01*
X174025965Y-114424464D01*
X174025968Y-114424466D01*
X174173451Y-114523012D01*
X174173453Y-114523013D01*
X174337334Y-114590894D01*
X174511309Y-114625500D01*
X174688691Y-114625500D01*
X174862666Y-114590894D01*
X175026547Y-114523013D01*
X175174035Y-114424464D01*
X175299464Y-114299035D01*
X175398013Y-114151547D01*
X175462342Y-113996240D01*
X175509294Y-113935051D01*
X175580551Y-113905535D01*
X175657019Y-113915602D01*
X175718209Y-113962554D01*
X175737658Y-113996241D01*
X175801986Y-114151546D01*
X175801987Y-114151548D01*
X175900533Y-114299031D01*
X175900536Y-114299035D01*
X176025965Y-114424464D01*
X176025968Y-114424466D01*
X176173451Y-114523012D01*
X176173453Y-114523013D01*
X176337334Y-114590894D01*
X176511309Y-114625500D01*
X176688691Y-114625500D01*
X176862666Y-114590894D01*
X177026547Y-114523013D01*
X177174035Y-114424464D01*
X177299464Y-114299035D01*
X177398013Y-114151547D01*
X177465894Y-113987666D01*
X177500500Y-113813691D01*
X177500500Y-113086309D01*
X177498250Y-113075000D01*
X177480228Y-112984397D01*
X177465894Y-112912334D01*
X177398013Y-112748453D01*
X177330943Y-112648077D01*
X177299466Y-112600968D01*
X177299462Y-112600963D01*
X177174036Y-112475537D01*
X177174031Y-112475533D01*
X177026548Y-112376987D01*
X177026546Y-112376986D01*
X176862667Y-112309106D01*
X176862663Y-112309105D01*
X176688691Y-112274500D01*
X176511309Y-112274500D01*
X176337336Y-112309105D01*
X176337332Y-112309106D01*
X176173453Y-112376986D01*
X176173451Y-112376987D01*
X176025968Y-112475533D01*
X176025963Y-112475537D01*
X175900537Y-112600963D01*
X175900533Y-112600968D01*
X175801987Y-112748451D01*
X175801986Y-112748454D01*
X175737658Y-112903758D01*
X175690706Y-112964948D01*
X175619449Y-112994464D01*
X175542981Y-112984397D01*
X175481791Y-112937445D01*
X175462342Y-112903758D01*
X175398013Y-112748454D01*
X175398012Y-112748451D01*
X175299466Y-112600968D01*
X175299462Y-112600963D01*
X175174036Y-112475537D01*
X175174031Y-112475533D01*
X175026548Y-112376987D01*
X175026546Y-112376986D01*
X174862667Y-112309106D01*
X174862663Y-112309105D01*
X174688691Y-112274500D01*
X174511309Y-112274500D01*
X174337336Y-112309105D01*
X174337332Y-112309106D01*
X174173453Y-112376986D01*
X174173451Y-112376987D01*
X174025968Y-112475533D01*
X174025963Y-112475537D01*
X173895360Y-112606141D01*
X173893244Y-112604025D01*
X173842051Y-112640614D01*
X173765285Y-112648077D01*
X173695072Y-112616158D01*
X173650225Y-112553408D01*
X173648304Y-112547965D01*
X173634358Y-112505880D01*
X173634358Y-112505879D01*
X173542319Y-112356659D01*
X173418340Y-112232680D01*
X173269121Y-112140642D01*
X173102697Y-112085494D01*
X173102688Y-112085492D01*
X172999989Y-112075000D01*
X172850000Y-112075000D01*
X172850000Y-113169670D01*
X172830255Y-113149925D01*
X172744745Y-113100556D01*
X172649370Y-113075000D01*
X172550630Y-113075000D01*
X172455255Y-113100556D01*
X172369745Y-113149925D01*
X172350000Y-113169670D01*
X172350000Y-112075000D01*
X172200026Y-112075000D01*
X172097303Y-112085494D01*
X171930878Y-112140642D01*
X171781659Y-112232680D01*
X171657680Y-112356659D01*
X171565642Y-112505878D01*
X171510494Y-112672302D01*
X171510492Y-112672311D01*
X171500000Y-112775010D01*
X168409013Y-112775010D01*
X168398013Y-112748453D01*
X168330943Y-112648077D01*
X168299466Y-112600968D01*
X168299462Y-112600963D01*
X168174036Y-112475537D01*
X168174031Y-112475533D01*
X168026548Y-112376987D01*
X168026546Y-112376986D01*
X167862667Y-112309106D01*
X167862663Y-112309105D01*
X167688691Y-112274500D01*
X167511309Y-112274500D01*
X167337336Y-112309105D01*
X167337332Y-112309106D01*
X167173453Y-112376986D01*
X167173451Y-112376987D01*
X167025968Y-112475533D01*
X167025963Y-112475537D01*
X166900537Y-112600963D01*
X166900533Y-112600968D01*
X166801987Y-112748451D01*
X166801986Y-112748454D01*
X166737658Y-112903758D01*
X166690706Y-112964948D01*
X166619449Y-112994464D01*
X166542981Y-112984397D01*
X166481791Y-112937445D01*
X166462342Y-112903758D01*
X166398013Y-112748454D01*
X166398012Y-112748451D01*
X166299466Y-112600968D01*
X166299462Y-112600963D01*
X166174036Y-112475537D01*
X166174031Y-112475533D01*
X166026548Y-112376987D01*
X166026546Y-112376986D01*
X165862667Y-112309106D01*
X165862663Y-112309105D01*
X165688691Y-112274500D01*
X165511309Y-112274500D01*
X165337336Y-112309105D01*
X165337332Y-112309106D01*
X165173453Y-112376986D01*
X165173451Y-112376987D01*
X165025968Y-112475533D01*
X165025963Y-112475537D01*
X164895360Y-112606141D01*
X164893244Y-112604025D01*
X164842051Y-112640614D01*
X164765285Y-112648077D01*
X164695072Y-112616158D01*
X164650225Y-112553408D01*
X164648304Y-112547965D01*
X164634358Y-112505880D01*
X164634358Y-112505879D01*
X164542319Y-112356659D01*
X164418340Y-112232680D01*
X164269121Y-112140642D01*
X164102697Y-112085494D01*
X164102688Y-112085492D01*
X163999989Y-112075000D01*
X163850000Y-112075000D01*
X163850000Y-113169670D01*
X163830255Y-113149925D01*
X163744745Y-113100556D01*
X163649370Y-113075000D01*
X163550630Y-113075000D01*
X163455255Y-113100556D01*
X163369745Y-113149925D01*
X163350000Y-113169670D01*
X163350000Y-112075000D01*
X163200026Y-112075000D01*
X163097303Y-112085494D01*
X162930878Y-112140642D01*
X162781659Y-112232680D01*
X162657680Y-112356659D01*
X162565642Y-112505878D01*
X162510494Y-112672302D01*
X162510492Y-112672311D01*
X162500000Y-112775010D01*
X130909476Y-112775010D01*
X130936552Y-112709642D01*
X130949395Y-112694996D01*
X131600252Y-112044141D01*
X131667047Y-112005577D01*
X131705611Y-112000500D01*
X137880725Y-112000500D01*
X137880727Y-112000500D01*
X137982588Y-111973207D01*
X138073913Y-111920480D01*
X139520480Y-110473913D01*
X139573207Y-110382588D01*
X139600500Y-110280727D01*
X139600500Y-110175273D01*
X139600500Y-106617361D01*
X139620462Y-106542861D01*
X139675000Y-106488323D01*
X139749500Y-106468361D01*
X139824000Y-106488323D01*
X139839296Y-106498459D01*
X139843955Y-106501977D01*
X139843959Y-106501981D01*
X139843962Y-106501983D01*
X139843965Y-106501985D01*
X140017356Y-106609344D01*
X140017367Y-106609350D01*
X140133332Y-106654274D01*
X140207544Y-106683024D01*
X140408024Y-106720500D01*
X140408027Y-106720500D01*
X140611973Y-106720500D01*
X140611976Y-106720500D01*
X140812456Y-106683024D01*
X141002637Y-106609348D01*
X141176041Y-106501981D01*
X141326764Y-106364579D01*
X141449673Y-106201821D01*
X141540582Y-106019250D01*
X141596397Y-105823083D01*
X141606851Y-105710259D01*
X141615215Y-105620004D01*
X141615215Y-105619995D01*
X141600878Y-105465281D01*
X141596397Y-105416917D01*
X141540582Y-105220750D01*
X141449673Y-105038179D01*
X141326764Y-104875421D01*
X141176041Y-104738019D01*
X141176036Y-104738015D01*
X141002643Y-104630655D01*
X141002632Y-104630649D01*
X140812462Y-104556978D01*
X140812458Y-104556977D01*
X140812456Y-104556976D01*
X140772360Y-104549480D01*
X140611980Y-104519500D01*
X140611976Y-104519500D01*
X140408024Y-104519500D01*
X140408019Y-104519500D01*
X140207544Y-104556976D01*
X140207537Y-104556978D01*
X140017367Y-104630649D01*
X140017356Y-104630655D01*
X139843959Y-104738018D01*
X139839289Y-104741545D01*
X139767806Y-104770509D01*
X139691418Y-104759851D01*
X139630593Y-104712427D01*
X139601629Y-104640944D01*
X139600500Y-104622638D01*
X139600500Y-104077361D01*
X139620462Y-104002861D01*
X139675000Y-103948323D01*
X139749500Y-103928361D01*
X139824000Y-103948323D01*
X139839296Y-103958459D01*
X139843955Y-103961977D01*
X139843959Y-103961981D01*
X139843962Y-103961983D01*
X139843965Y-103961985D01*
X140017356Y-104069344D01*
X140017367Y-104069350D01*
X140133332Y-104114274D01*
X140207544Y-104143024D01*
X140408024Y-104180500D01*
X140408027Y-104180500D01*
X140611973Y-104180500D01*
X140611976Y-104180500D01*
X140812456Y-104143024D01*
X141002637Y-104069348D01*
X141176041Y-103961981D01*
X141326764Y-103824579D01*
X141449673Y-103661821D01*
X141540582Y-103479250D01*
X141596397Y-103283083D01*
X141613452Y-103099031D01*
X141615215Y-103080004D01*
X141615215Y-103079995D01*
X141596397Y-102876921D01*
X141596397Y-102876917D01*
X141540582Y-102680750D01*
X141449673Y-102498179D01*
X141436137Y-102480255D01*
X141368500Y-102390689D01*
X141326764Y-102335421D01*
X141176041Y-102198019D01*
X141176036Y-102198015D01*
X141002643Y-102090655D01*
X141002632Y-102090649D01*
X140812462Y-102016978D01*
X140812458Y-102016977D01*
X140812456Y-102016976D01*
X140772360Y-102009480D01*
X140611980Y-101979500D01*
X140611976Y-101979500D01*
X140408024Y-101979500D01*
X140408019Y-101979500D01*
X140207544Y-102016976D01*
X140207537Y-102016978D01*
X140017367Y-102090649D01*
X140017356Y-102090655D01*
X139843959Y-102198018D01*
X139839289Y-102201545D01*
X139767806Y-102230509D01*
X139691418Y-102219851D01*
X139630593Y-102172427D01*
X139601629Y-102100944D01*
X139600500Y-102082638D01*
X139600500Y-101537361D01*
X139620462Y-101462861D01*
X139675000Y-101408323D01*
X139749500Y-101388361D01*
X139824000Y-101408323D01*
X139839296Y-101418459D01*
X139843955Y-101421977D01*
X139843959Y-101421981D01*
X139843962Y-101421983D01*
X139843965Y-101421985D01*
X140017356Y-101529344D01*
X140017367Y-101529350D01*
X140133332Y-101574274D01*
X140207544Y-101603024D01*
X140408024Y-101640500D01*
X140408027Y-101640500D01*
X140611973Y-101640500D01*
X140611976Y-101640500D01*
X140812456Y-101603024D01*
X141002637Y-101529348D01*
X141176041Y-101421981D01*
X141326764Y-101284579D01*
X141449673Y-101121821D01*
X141540582Y-100939250D01*
X141596397Y-100743083D01*
X141615215Y-100540000D01*
X141596397Y-100336917D01*
X141540582Y-100140750D01*
X141449673Y-99958179D01*
X141326764Y-99795421D01*
X141176041Y-99658019D01*
X141176036Y-99658015D01*
X141002643Y-99550655D01*
X141002631Y-99550649D01*
X140914100Y-99516352D01*
X140851842Y-99470825D01*
X140820688Y-99400269D01*
X140828987Y-99323589D01*
X140874514Y-99261331D01*
X140929364Y-99233490D01*
X140956326Y-99226266D01*
X141162478Y-99130136D01*
X141162484Y-99130132D01*
X141235471Y-99079024D01*
X140680234Y-98523787D01*
X140722292Y-98512518D01*
X140847708Y-98440110D01*
X140950110Y-98337708D01*
X141022518Y-98212292D01*
X141033787Y-98170234D01*
X141589024Y-98725471D01*
X141640132Y-98652484D01*
X141640136Y-98652478D01*
X141736266Y-98446325D01*
X141736267Y-98446323D01*
X141795140Y-98226606D01*
X141814965Y-98000000D01*
X141795140Y-97773393D01*
X141736267Y-97553676D01*
X141736266Y-97553674D01*
X141640132Y-97347515D01*
X141640129Y-97347509D01*
X141589025Y-97274526D01*
X141033787Y-97829764D01*
X141022518Y-97787708D01*
X140950110Y-97662292D01*
X140847708Y-97559890D01*
X140722292Y-97487482D01*
X140680232Y-97476211D01*
X141235471Y-96920973D01*
X141162492Y-96869872D01*
X141162483Y-96869866D01*
X140956325Y-96773733D01*
X140929360Y-96766508D01*
X140862565Y-96727943D01*
X140824002Y-96661148D01*
X140824002Y-96584020D01*
X140862567Y-96517225D01*
X140914098Y-96483647D01*
X141002637Y-96449348D01*
X141176041Y-96341981D01*
X141326764Y-96204579D01*
X141330224Y-96199997D01*
X142794318Y-96199997D01*
X142794318Y-96200002D01*
X142814954Y-96356757D01*
X142875463Y-96502840D01*
X142949809Y-96599729D01*
X142971718Y-96628282D01*
X143097159Y-96724536D01*
X143243238Y-96785044D01*
X143243241Y-96785044D01*
X143243243Y-96785045D01*
X143243240Y-96785045D01*
X143399997Y-96805682D01*
X143400000Y-96805682D01*
X143400003Y-96805682D01*
X143556757Y-96785045D01*
X143556758Y-96785044D01*
X143556762Y-96785044D01*
X143702841Y-96724536D01*
X143828282Y-96628282D01*
X143924536Y-96502841D01*
X143985044Y-96356762D01*
X143986990Y-96341985D01*
X144005682Y-96200002D01*
X144005682Y-96199997D01*
X143985045Y-96043242D01*
X143985044Y-96043240D01*
X143985044Y-96043238D01*
X143924536Y-95897159D01*
X143905463Y-95872302D01*
X143881290Y-95840799D01*
X143851775Y-95769541D01*
X143850500Y-95750094D01*
X143850500Y-92648321D01*
X143870462Y-92573821D01*
X143894141Y-92542962D01*
X144296210Y-92140893D01*
X144700422Y-91736680D01*
X144767215Y-91698118D01*
X144786318Y-91694317D01*
X144856762Y-91685044D01*
X145002841Y-91624536D01*
X145128282Y-91528282D01*
X145224536Y-91402841D01*
X145285044Y-91256762D01*
X145285331Y-91254588D01*
X145305682Y-91100002D01*
X145305682Y-91099997D01*
X145285045Y-90943242D01*
X145285044Y-90943240D01*
X145285044Y-90943238D01*
X145224536Y-90797159D01*
X145128282Y-90671718D01*
X145027603Y-90594464D01*
X145002840Y-90575463D01*
X144911055Y-90537445D01*
X144856762Y-90514956D01*
X144856760Y-90514955D01*
X144856756Y-90514954D01*
X144856759Y-90514954D01*
X144700003Y-90494318D01*
X144699997Y-90494318D01*
X144543242Y-90514954D01*
X144397159Y-90575463D01*
X144271718Y-90671717D01*
X144271717Y-90671718D01*
X144175463Y-90797159D01*
X144114956Y-90943237D01*
X144105683Y-91013668D01*
X144076166Y-91084925D01*
X144063317Y-91099577D01*
X143039509Y-92123388D01*
X143039508Y-92123389D01*
X142980201Y-92226111D01*
X142980202Y-92226111D01*
X142980201Y-92226115D01*
X142949500Y-92340689D01*
X142949500Y-95750094D01*
X142929538Y-95824594D01*
X142918710Y-95840799D01*
X142875463Y-95897159D01*
X142814954Y-96043242D01*
X142794318Y-96199997D01*
X141330224Y-96199997D01*
X141449673Y-96041821D01*
X141540582Y-95859250D01*
X141596397Y-95663083D01*
X141610665Y-95509105D01*
X141615215Y-95460004D01*
X141615215Y-95459995D01*
X141599045Y-95285492D01*
X141596397Y-95256917D01*
X141540582Y-95060750D01*
X141449673Y-94878179D01*
X141326764Y-94715421D01*
X141176041Y-94578019D01*
X141176036Y-94578015D01*
X141002643Y-94470655D01*
X141002632Y-94470649D01*
X140812462Y-94396978D01*
X140812458Y-94396977D01*
X140812456Y-94396976D01*
X140772360Y-94389480D01*
X140611980Y-94359500D01*
X140611976Y-94359500D01*
X140408024Y-94359500D01*
X140408019Y-94359500D01*
X140207544Y-94396976D01*
X140207537Y-94396978D01*
X140017367Y-94470649D01*
X140017356Y-94470655D01*
X139843959Y-94578018D01*
X139839289Y-94581545D01*
X139767806Y-94610509D01*
X139691418Y-94599851D01*
X139630593Y-94552427D01*
X139601629Y-94480944D01*
X139600500Y-94462638D01*
X139600500Y-93917361D01*
X139620462Y-93842861D01*
X139675000Y-93788323D01*
X139749500Y-93768361D01*
X139824000Y-93788323D01*
X139839296Y-93798459D01*
X139843955Y-93801977D01*
X139843959Y-93801981D01*
X139843962Y-93801983D01*
X139843965Y-93801985D01*
X140017356Y-93909344D01*
X140017367Y-93909350D01*
X140133332Y-93954274D01*
X140207544Y-93983024D01*
X140408024Y-94020500D01*
X140408027Y-94020500D01*
X140611973Y-94020500D01*
X140611976Y-94020500D01*
X140812456Y-93983024D01*
X141002637Y-93909348D01*
X141176041Y-93801981D01*
X141326764Y-93664579D01*
X141449673Y-93501821D01*
X141540582Y-93319250D01*
X141596397Y-93123083D01*
X141615215Y-92920000D01*
X141596397Y-92716917D01*
X141540582Y-92520750D01*
X141449673Y-92338179D01*
X141326764Y-92175421D01*
X141176041Y-92038019D01*
X141176036Y-92038015D01*
X141002643Y-91930655D01*
X141002632Y-91930649D01*
X140812462Y-91856978D01*
X140812458Y-91856977D01*
X140812456Y-91856976D01*
X140749535Y-91845214D01*
X140611980Y-91819500D01*
X140611976Y-91819500D01*
X140408024Y-91819500D01*
X140408019Y-91819500D01*
X140207544Y-91856976D01*
X140207537Y-91856978D01*
X140017367Y-91930649D01*
X140017356Y-91930655D01*
X139843959Y-92038018D01*
X139839289Y-92041545D01*
X139767806Y-92070509D01*
X139691418Y-92059851D01*
X139630593Y-92012427D01*
X139601629Y-91940944D01*
X139600500Y-91922638D01*
X139600500Y-91917609D01*
X139620462Y-91843109D01*
X139644138Y-91812253D01*
X139998935Y-91457455D01*
X140065730Y-91418892D01*
X140142858Y-91418892D01*
X140158120Y-91423877D01*
X140207538Y-91443022D01*
X140207544Y-91443024D01*
X140408024Y-91480500D01*
X140408027Y-91480500D01*
X140611973Y-91480500D01*
X140611976Y-91480500D01*
X140812456Y-91443024D01*
X141002637Y-91369348D01*
X141176041Y-91261981D01*
X141326764Y-91124579D01*
X141449673Y-90961821D01*
X141540582Y-90779250D01*
X141596397Y-90583083D01*
X141607586Y-90462332D01*
X141615215Y-90380004D01*
X141615215Y-90379995D01*
X141598909Y-90204025D01*
X141596397Y-90176917D01*
X141540582Y-89980750D01*
X141449673Y-89798179D01*
X141405204Y-89739292D01*
X141376238Y-89667810D01*
X141386894Y-89591421D01*
X141434317Y-89530595D01*
X141505799Y-89501629D01*
X141524109Y-89500500D01*
X144672389Y-89500500D01*
X144746889Y-89520462D01*
X144777748Y-89544141D01*
X149352596Y-94118989D01*
X149391160Y-94185784D01*
X149394962Y-94204899D01*
X149414954Y-94356758D01*
X149475463Y-94502840D01*
X149535856Y-94581545D01*
X149571718Y-94628282D01*
X149697159Y-94724536D01*
X149843238Y-94785044D01*
X149843241Y-94785044D01*
X149843243Y-94785045D01*
X149843240Y-94785045D01*
X149999997Y-94805682D01*
X150000000Y-94805682D01*
X150000003Y-94805682D01*
X150156757Y-94785045D01*
X150156758Y-94785044D01*
X150156762Y-94785044D01*
X150302841Y-94724536D01*
X150428282Y-94628282D01*
X150524536Y-94502841D01*
X150585044Y-94356762D01*
X150587188Y-94340481D01*
X150605682Y-94200002D01*
X150605682Y-94199997D01*
X150585045Y-94043242D01*
X150585044Y-94043240D01*
X150585044Y-94043238D01*
X150524536Y-93897159D01*
X150456666Y-93808708D01*
X150427151Y-93737450D01*
X150437218Y-93660982D01*
X150484171Y-93599793D01*
X150555429Y-93570278D01*
X150631892Y-93580344D01*
X150643238Y-93585044D01*
X150643240Y-93585044D01*
X150643242Y-93585045D01*
X150799997Y-93605682D01*
X150800000Y-93605682D01*
X150800003Y-93605682D01*
X150956757Y-93585045D01*
X150956758Y-93585044D01*
X150956762Y-93585044D01*
X151102841Y-93524536D01*
X151228282Y-93428282D01*
X151282290Y-93357896D01*
X151343480Y-93310944D01*
X151419948Y-93300877D01*
X151491205Y-93330392D01*
X151538158Y-93391582D01*
X151549500Y-93448602D01*
X151549500Y-94251678D01*
X151529538Y-94326178D01*
X151505859Y-94357037D01*
X143689509Y-102173388D01*
X143689508Y-102173389D01*
X143630201Y-102276111D01*
X143630202Y-102276111D01*
X143630201Y-102276115D01*
X143599500Y-102390689D01*
X143599500Y-107001678D01*
X143579538Y-107076178D01*
X143555859Y-107107037D01*
X139899578Y-110763317D01*
X139832783Y-110801881D01*
X139813669Y-110805683D01*
X139743237Y-110814956D01*
X139597159Y-110875463D01*
X139471718Y-110971717D01*
X139471717Y-110971718D01*
X139375463Y-111097159D01*
X139314954Y-111243242D01*
X139294318Y-111399997D01*
X139294318Y-111400002D01*
X139314954Y-111556757D01*
X139375463Y-111702840D01*
X139417493Y-111757614D01*
X139471718Y-111828282D01*
X139597159Y-111924536D01*
X139743238Y-111985044D01*
X139743241Y-111985044D01*
X139743243Y-111985045D01*
X139743240Y-111985045D01*
X139899997Y-112005682D01*
X139900000Y-112005682D01*
X139900003Y-112005682D01*
X140056757Y-111985045D01*
X140056758Y-111985044D01*
X140056762Y-111985044D01*
X140202841Y-111924536D01*
X140328282Y-111828282D01*
X140424536Y-111702841D01*
X140485044Y-111556762D01*
X140494316Y-111486328D01*
X140523830Y-111415074D01*
X140536674Y-111400427D01*
X144410489Y-107526614D01*
X144458626Y-107443238D01*
X144469799Y-107423886D01*
X144500500Y-107309309D01*
X144500500Y-107125010D01*
X162500000Y-107125010D01*
X162500000Y-107550000D01*
X163319670Y-107550000D01*
X163299925Y-107569745D01*
X163250556Y-107655255D01*
X163225000Y-107750630D01*
X163225000Y-107849370D01*
X163250556Y-107944745D01*
X163299925Y-108030255D01*
X163319670Y-108050000D01*
X162500001Y-108050000D01*
X162500001Y-108474973D01*
X162510494Y-108577696D01*
X162565642Y-108744121D01*
X162657680Y-108893340D01*
X162781659Y-109017319D01*
X162930878Y-109109357D01*
X163097302Y-109164505D01*
X163097311Y-109164507D01*
X163200015Y-109174999D01*
X163350000Y-109174999D01*
X163350000Y-108080330D01*
X163369745Y-108100075D01*
X163455255Y-108149444D01*
X163550630Y-108175000D01*
X163649370Y-108175000D01*
X163744745Y-108149444D01*
X163830255Y-108100075D01*
X163850000Y-108080330D01*
X163850000Y-109174999D01*
X163999974Y-109174999D01*
X164102696Y-109164505D01*
X164269121Y-109109357D01*
X164418340Y-109017319D01*
X164542319Y-108893340D01*
X164634358Y-108744120D01*
X164648304Y-108702034D01*
X164690686Y-108637595D01*
X164759610Y-108602979D01*
X164836608Y-108607464D01*
X164894004Y-108645214D01*
X164895360Y-108643859D01*
X164900536Y-108649035D01*
X165025965Y-108774464D01*
X165025968Y-108774466D01*
X165173451Y-108873012D01*
X165173453Y-108873013D01*
X165337334Y-108940894D01*
X165511309Y-108975500D01*
X165688691Y-108975500D01*
X165862666Y-108940894D01*
X166026547Y-108873013D01*
X166174035Y-108774464D01*
X166299464Y-108649035D01*
X166398013Y-108501547D01*
X166462342Y-108346240D01*
X166509294Y-108285051D01*
X166580551Y-108255535D01*
X166657019Y-108265602D01*
X166718209Y-108312554D01*
X166737658Y-108346241D01*
X166801986Y-108501546D01*
X166801987Y-108501548D01*
X166848873Y-108571717D01*
X166900536Y-108649035D01*
X167025965Y-108774464D01*
X167025968Y-108774466D01*
X167173451Y-108873012D01*
X167173453Y-108873013D01*
X167337334Y-108940894D01*
X167511309Y-108975500D01*
X167688691Y-108975500D01*
X167862666Y-108940894D01*
X168026547Y-108873013D01*
X168174035Y-108774464D01*
X168299464Y-108649035D01*
X168398013Y-108501547D01*
X168465894Y-108337666D01*
X168500500Y-108163691D01*
X168500500Y-107436309D01*
X168498250Y-107425000D01*
X168480228Y-107334397D01*
X168465894Y-107262334D01*
X168409013Y-107125010D01*
X171500000Y-107125010D01*
X171500000Y-107550000D01*
X172319670Y-107550000D01*
X172299925Y-107569745D01*
X172250556Y-107655255D01*
X172225000Y-107750630D01*
X172225000Y-107849370D01*
X172250556Y-107944745D01*
X172299925Y-108030255D01*
X172319670Y-108050000D01*
X171500001Y-108050000D01*
X171500001Y-108474973D01*
X171510494Y-108577696D01*
X171565642Y-108744121D01*
X171657680Y-108893340D01*
X171781659Y-109017319D01*
X171930878Y-109109357D01*
X172097302Y-109164505D01*
X172097311Y-109164507D01*
X172200015Y-109174999D01*
X172350000Y-109174999D01*
X172350000Y-108080330D01*
X172369745Y-108100075D01*
X172455255Y-108149444D01*
X172550630Y-108175000D01*
X172649370Y-108175000D01*
X172744745Y-108149444D01*
X172830255Y-108100075D01*
X172850000Y-108080330D01*
X172850000Y-109174999D01*
X172999974Y-109174999D01*
X173102696Y-109164505D01*
X173269121Y-109109357D01*
X173418340Y-109017319D01*
X173542319Y-108893340D01*
X173634358Y-108744120D01*
X173648304Y-108702034D01*
X173690686Y-108637595D01*
X173759610Y-108602979D01*
X173836608Y-108607464D01*
X173894004Y-108645214D01*
X173895360Y-108643859D01*
X173900536Y-108649035D01*
X174025965Y-108774464D01*
X174025968Y-108774466D01*
X174173451Y-108873012D01*
X174173453Y-108873013D01*
X174337334Y-108940894D01*
X174511309Y-108975500D01*
X174688691Y-108975500D01*
X174862666Y-108940894D01*
X175026547Y-108873013D01*
X175174035Y-108774464D01*
X175299464Y-108649035D01*
X175398013Y-108501547D01*
X175462342Y-108346240D01*
X175509294Y-108285051D01*
X175580551Y-108255535D01*
X175657019Y-108265602D01*
X175718209Y-108312554D01*
X175737658Y-108346241D01*
X175801986Y-108501546D01*
X175801987Y-108501548D01*
X175848873Y-108571717D01*
X175900536Y-108649035D01*
X176025965Y-108774464D01*
X176025968Y-108774466D01*
X176173451Y-108873012D01*
X176173453Y-108873013D01*
X176337334Y-108940894D01*
X176511309Y-108975500D01*
X176688691Y-108975500D01*
X176862666Y-108940894D01*
X177026547Y-108873013D01*
X177174035Y-108774464D01*
X177299464Y-108649035D01*
X177398013Y-108501547D01*
X177465894Y-108337666D01*
X177500500Y-108163691D01*
X177500500Y-107436309D01*
X177498250Y-107425000D01*
X177480228Y-107334397D01*
X177465894Y-107262334D01*
X177398013Y-107098453D01*
X177385362Y-107079520D01*
X177299466Y-106950968D01*
X177299462Y-106950963D01*
X177174036Y-106825537D01*
X177174031Y-106825533D01*
X177026548Y-106726987D01*
X177026546Y-106726986D01*
X176862667Y-106659106D01*
X176862663Y-106659105D01*
X176688691Y-106624500D01*
X176511309Y-106624500D01*
X176337336Y-106659105D01*
X176337332Y-106659106D01*
X176173453Y-106726986D01*
X176173451Y-106726987D01*
X176025968Y-106825533D01*
X176025963Y-106825537D01*
X175900537Y-106950963D01*
X175900533Y-106950968D01*
X175801987Y-107098451D01*
X175801986Y-107098454D01*
X175737658Y-107253758D01*
X175690706Y-107314948D01*
X175619449Y-107344464D01*
X175542981Y-107334397D01*
X175481791Y-107287445D01*
X175462342Y-107253758D01*
X175409013Y-107125010D01*
X175398013Y-107098453D01*
X175385362Y-107079520D01*
X175299466Y-106950968D01*
X175299462Y-106950963D01*
X175174036Y-106825537D01*
X175174031Y-106825533D01*
X175026548Y-106726987D01*
X175026546Y-106726986D01*
X174862667Y-106659106D01*
X174862663Y-106659105D01*
X174688691Y-106624500D01*
X174511309Y-106624500D01*
X174337336Y-106659105D01*
X174337332Y-106659106D01*
X174173453Y-106726986D01*
X174173451Y-106726987D01*
X174025968Y-106825533D01*
X174025963Y-106825537D01*
X173895360Y-106956141D01*
X173893244Y-106954025D01*
X173842051Y-106990614D01*
X173765285Y-106998077D01*
X173695072Y-106966158D01*
X173650225Y-106903408D01*
X173648304Y-106897965D01*
X173634358Y-106855880D01*
X173634358Y-106855879D01*
X173542319Y-106706659D01*
X173418340Y-106582680D01*
X173269121Y-106490642D01*
X173102697Y-106435494D01*
X173102688Y-106435492D01*
X172999989Y-106425000D01*
X172850000Y-106425000D01*
X172850000Y-107519670D01*
X172830255Y-107499925D01*
X172744745Y-107450556D01*
X172649370Y-107425000D01*
X172550630Y-107425000D01*
X172455255Y-107450556D01*
X172369745Y-107499925D01*
X172350000Y-107519670D01*
X172350000Y-106425000D01*
X172200026Y-106425000D01*
X172097303Y-106435494D01*
X171930878Y-106490642D01*
X171781659Y-106582680D01*
X171657680Y-106706659D01*
X171565642Y-106855878D01*
X171510494Y-107022302D01*
X171510492Y-107022311D01*
X171500000Y-107125010D01*
X168409013Y-107125010D01*
X168398013Y-107098453D01*
X168385362Y-107079520D01*
X168299466Y-106950968D01*
X168299462Y-106950963D01*
X168174036Y-106825537D01*
X168174031Y-106825533D01*
X168026548Y-106726987D01*
X168026546Y-106726986D01*
X167862667Y-106659106D01*
X167862663Y-106659105D01*
X167688691Y-106624500D01*
X167511309Y-106624500D01*
X167337336Y-106659105D01*
X167337332Y-106659106D01*
X167173453Y-106726986D01*
X167173451Y-106726987D01*
X167025968Y-106825533D01*
X167025963Y-106825537D01*
X166900537Y-106950963D01*
X166900533Y-106950968D01*
X166801987Y-107098451D01*
X166801986Y-107098454D01*
X166737658Y-107253758D01*
X166690706Y-107314948D01*
X166619449Y-107344464D01*
X166542981Y-107334397D01*
X166481791Y-107287445D01*
X166462342Y-107253758D01*
X166409013Y-107125010D01*
X166398013Y-107098453D01*
X166385362Y-107079520D01*
X166299466Y-106950968D01*
X166299462Y-106950963D01*
X166174036Y-106825537D01*
X166174031Y-106825533D01*
X166026548Y-106726987D01*
X166026546Y-106726986D01*
X165862667Y-106659106D01*
X165862663Y-106659105D01*
X165688691Y-106624500D01*
X165511309Y-106624500D01*
X165337336Y-106659105D01*
X165337332Y-106659106D01*
X165173453Y-106726986D01*
X165173451Y-106726987D01*
X165025968Y-106825533D01*
X165025963Y-106825537D01*
X164895360Y-106956141D01*
X164893244Y-106954025D01*
X164842051Y-106990614D01*
X164765285Y-106998077D01*
X164695072Y-106966158D01*
X164650225Y-106903408D01*
X164648304Y-106897965D01*
X164634358Y-106855880D01*
X164634358Y-106855879D01*
X164542319Y-106706659D01*
X164418340Y-106582680D01*
X164269121Y-106490642D01*
X164102697Y-106435494D01*
X164102688Y-106435492D01*
X163999989Y-106425000D01*
X163850000Y-106425000D01*
X163850000Y-107519670D01*
X163830255Y-107499925D01*
X163744745Y-107450556D01*
X163649370Y-107425000D01*
X163550630Y-107425000D01*
X163455255Y-107450556D01*
X163369745Y-107499925D01*
X163350000Y-107519670D01*
X163350000Y-106425000D01*
X163200026Y-106425000D01*
X163097303Y-106435494D01*
X162930878Y-106490642D01*
X162781659Y-106582680D01*
X162657680Y-106706659D01*
X162565642Y-106855878D01*
X162510494Y-107022302D01*
X162510492Y-107022311D01*
X162500000Y-107125010D01*
X144500500Y-107125010D01*
X144500500Y-104700000D01*
X149748000Y-104700000D01*
X152548000Y-104700000D01*
X152548000Y-102100000D01*
X149748000Y-102100000D01*
X149748000Y-104700000D01*
X144500500Y-104700000D01*
X144500500Y-102698321D01*
X144520462Y-102623821D01*
X144544141Y-102592962D01*
X146937106Y-100199997D01*
X150994318Y-100199997D01*
X150994318Y-100200002D01*
X151014954Y-100356757D01*
X151075463Y-100502840D01*
X151075464Y-100502841D01*
X151171718Y-100628282D01*
X151297159Y-100724536D01*
X151443238Y-100785044D01*
X151443241Y-100785044D01*
X151443243Y-100785045D01*
X151443240Y-100785045D01*
X151599997Y-100805682D01*
X151600000Y-100805682D01*
X151600003Y-100805682D01*
X151756756Y-100785045D01*
X151756756Y-100785044D01*
X151756762Y-100785044D01*
X151848554Y-100747022D01*
X151925018Y-100736956D01*
X151996275Y-100766471D01*
X152010929Y-100779322D01*
X153155859Y-101924252D01*
X153194423Y-101991047D01*
X153199500Y-102029611D01*
X153199500Y-104763714D01*
X153179538Y-104838214D01*
X153125000Y-104892752D01*
X153069951Y-104911439D01*
X153043238Y-104914956D01*
X152897159Y-104975463D01*
X152771718Y-105071717D01*
X152771717Y-105071718D01*
X152675463Y-105197159D01*
X152614954Y-105343242D01*
X152594318Y-105499997D01*
X152594318Y-105500002D01*
X152614954Y-105656757D01*
X152675463Y-105802840D01*
X152728304Y-105871703D01*
X152771718Y-105928282D01*
X152897159Y-106024536D01*
X153043238Y-106085044D01*
X153043241Y-106085044D01*
X153043243Y-106085045D01*
X153043240Y-106085045D01*
X153199997Y-106105682D01*
X153200000Y-106105682D01*
X153200003Y-106105682D01*
X153356757Y-106085045D01*
X153356758Y-106085044D01*
X153356762Y-106085044D01*
X153502841Y-106024536D01*
X153628282Y-105928282D01*
X153724536Y-105802841D01*
X153785044Y-105656762D01*
X153789884Y-105620004D01*
X153805037Y-105504899D01*
X153834552Y-105433642D01*
X153847394Y-105418998D01*
X153920480Y-105345913D01*
X153973206Y-105254588D01*
X153973207Y-105254587D01*
X154000500Y-105152727D01*
X154000500Y-101749273D01*
X153973207Y-101647413D01*
X153973207Y-101647412D01*
X153969216Y-101640499D01*
X153931406Y-101575010D01*
X162500000Y-101575010D01*
X162500000Y-102000000D01*
X163319670Y-102000000D01*
X163299925Y-102019745D01*
X163250556Y-102105255D01*
X163225000Y-102200630D01*
X163225000Y-102299370D01*
X163250556Y-102394745D01*
X163299925Y-102480255D01*
X163319670Y-102500000D01*
X162500001Y-102500000D01*
X162500001Y-102924973D01*
X162510494Y-103027696D01*
X162565642Y-103194121D01*
X162657680Y-103343340D01*
X162781659Y-103467319D01*
X162930878Y-103559357D01*
X163097302Y-103614505D01*
X163097311Y-103614507D01*
X163200015Y-103624999D01*
X163350000Y-103624999D01*
X163350000Y-102530330D01*
X163369745Y-102550075D01*
X163455255Y-102599444D01*
X163550630Y-102625000D01*
X163649370Y-102625000D01*
X163744745Y-102599444D01*
X163830255Y-102550075D01*
X163850000Y-102530330D01*
X163850000Y-103624999D01*
X163999974Y-103624999D01*
X164102696Y-103614505D01*
X164269121Y-103559357D01*
X164418340Y-103467319D01*
X164542319Y-103343340D01*
X164634358Y-103194120D01*
X164648304Y-103152034D01*
X164690686Y-103087595D01*
X164759610Y-103052979D01*
X164836608Y-103057464D01*
X164894004Y-103095214D01*
X164895360Y-103093859D01*
X164900536Y-103099035D01*
X165025965Y-103224464D01*
X165025968Y-103224466D01*
X165173451Y-103323012D01*
X165173453Y-103323013D01*
X165337334Y-103390894D01*
X165511309Y-103425500D01*
X165688691Y-103425500D01*
X165862666Y-103390894D01*
X166026547Y-103323013D01*
X166174035Y-103224464D01*
X166299464Y-103099035D01*
X166398013Y-102951547D01*
X166462342Y-102796240D01*
X166509294Y-102735051D01*
X166580551Y-102705535D01*
X166657019Y-102715602D01*
X166718209Y-102762554D01*
X166737658Y-102796241D01*
X166801986Y-102951546D01*
X166801987Y-102951548D01*
X166892892Y-103087595D01*
X166900536Y-103099035D01*
X167025965Y-103224464D01*
X167025968Y-103224466D01*
X167173451Y-103323012D01*
X167173453Y-103323013D01*
X167337334Y-103390894D01*
X167511309Y-103425500D01*
X167688691Y-103425500D01*
X167862666Y-103390894D01*
X168026547Y-103323013D01*
X168174035Y-103224464D01*
X168299464Y-103099035D01*
X168398013Y-102951547D01*
X168465894Y-102787666D01*
X168500500Y-102613691D01*
X168500500Y-101886309D01*
X168498250Y-101875000D01*
X168480228Y-101784397D01*
X168465894Y-101712334D01*
X168409013Y-101575010D01*
X171500000Y-101575010D01*
X171500000Y-102000000D01*
X172319670Y-102000000D01*
X172299925Y-102019745D01*
X172250556Y-102105255D01*
X172225000Y-102200630D01*
X172225000Y-102299370D01*
X172250556Y-102394745D01*
X172299925Y-102480255D01*
X172319670Y-102500000D01*
X171500001Y-102500000D01*
X171500001Y-102924973D01*
X171510494Y-103027696D01*
X171565642Y-103194121D01*
X171657680Y-103343340D01*
X171781659Y-103467319D01*
X171930878Y-103559357D01*
X172097302Y-103614505D01*
X172097311Y-103614507D01*
X172200015Y-103624999D01*
X172350000Y-103624999D01*
X172350000Y-102530330D01*
X172369745Y-102550075D01*
X172455255Y-102599444D01*
X172550630Y-102625000D01*
X172649370Y-102625000D01*
X172744745Y-102599444D01*
X172830255Y-102550075D01*
X172850000Y-102530330D01*
X172850000Y-103624999D01*
X172999974Y-103624999D01*
X173102696Y-103614505D01*
X173269121Y-103559357D01*
X173418340Y-103467319D01*
X173542319Y-103343340D01*
X173634358Y-103194120D01*
X173648304Y-103152034D01*
X173690686Y-103087595D01*
X173759610Y-103052979D01*
X173836608Y-103057464D01*
X173894004Y-103095214D01*
X173895360Y-103093859D01*
X173900536Y-103099035D01*
X174025965Y-103224464D01*
X174025968Y-103224466D01*
X174173451Y-103323012D01*
X174173453Y-103323013D01*
X174337334Y-103390894D01*
X174511309Y-103425500D01*
X174688691Y-103425500D01*
X174862666Y-103390894D01*
X175026547Y-103323013D01*
X175174035Y-103224464D01*
X175299464Y-103099035D01*
X175398013Y-102951547D01*
X175462342Y-102796240D01*
X175509294Y-102735051D01*
X175580551Y-102705535D01*
X175657019Y-102715602D01*
X175718209Y-102762554D01*
X175737658Y-102796241D01*
X175801986Y-102951546D01*
X175801987Y-102951548D01*
X175892892Y-103087595D01*
X175900536Y-103099035D01*
X176025965Y-103224464D01*
X176025968Y-103224466D01*
X176173451Y-103323012D01*
X176173453Y-103323013D01*
X176337334Y-103390894D01*
X176511309Y-103425500D01*
X176688691Y-103425500D01*
X176862666Y-103390894D01*
X177026547Y-103323013D01*
X177174035Y-103224464D01*
X177299464Y-103099035D01*
X177398013Y-102951547D01*
X177465894Y-102787666D01*
X177500500Y-102613691D01*
X177500500Y-101886309D01*
X177498250Y-101875000D01*
X177480228Y-101784397D01*
X177465894Y-101712334D01*
X177398013Y-101548453D01*
X177385247Y-101529348D01*
X177299466Y-101400968D01*
X177299462Y-101400963D01*
X177174036Y-101275537D01*
X177174031Y-101275533D01*
X177026548Y-101176987D01*
X177026546Y-101176986D01*
X176862667Y-101109106D01*
X176862663Y-101109105D01*
X176688691Y-101074500D01*
X176511309Y-101074500D01*
X176337336Y-101109105D01*
X176337332Y-101109106D01*
X176173453Y-101176986D01*
X176173451Y-101176987D01*
X176025968Y-101275533D01*
X176025963Y-101275537D01*
X175900537Y-101400963D01*
X175900533Y-101400968D01*
X175801987Y-101548451D01*
X175801986Y-101548454D01*
X175737658Y-101703758D01*
X175690706Y-101764948D01*
X175619449Y-101794464D01*
X175542981Y-101784397D01*
X175481791Y-101737445D01*
X175462342Y-101703758D01*
X175420616Y-101603023D01*
X175398013Y-101548453D01*
X175385247Y-101529348D01*
X175299466Y-101400968D01*
X175299462Y-101400963D01*
X175174036Y-101275537D01*
X175174031Y-101275533D01*
X175026548Y-101176987D01*
X175026546Y-101176986D01*
X174862667Y-101109106D01*
X174862663Y-101109105D01*
X174688691Y-101074500D01*
X174511309Y-101074500D01*
X174337336Y-101109105D01*
X174337332Y-101109106D01*
X174173453Y-101176986D01*
X174173451Y-101176987D01*
X174025968Y-101275533D01*
X174025963Y-101275537D01*
X173895360Y-101406141D01*
X173893244Y-101404025D01*
X173842051Y-101440614D01*
X173765285Y-101448077D01*
X173695072Y-101416158D01*
X173650225Y-101353408D01*
X173648304Y-101347965D01*
X173634358Y-101305880D01*
X173634358Y-101305879D01*
X173542319Y-101156659D01*
X173418340Y-101032680D01*
X173269121Y-100940642D01*
X173102697Y-100885494D01*
X173102688Y-100885492D01*
X172999989Y-100875000D01*
X172850000Y-100875000D01*
X172850000Y-101969670D01*
X172830255Y-101949925D01*
X172744745Y-101900556D01*
X172649370Y-101875000D01*
X172550630Y-101875000D01*
X172455255Y-101900556D01*
X172369745Y-101949925D01*
X172350000Y-101969670D01*
X172350000Y-100875000D01*
X172200026Y-100875000D01*
X172097303Y-100885494D01*
X171930878Y-100940642D01*
X171781659Y-101032680D01*
X171657680Y-101156659D01*
X171565642Y-101305878D01*
X171510494Y-101472302D01*
X171510492Y-101472311D01*
X171500000Y-101575010D01*
X168409013Y-101575010D01*
X168398013Y-101548453D01*
X168385247Y-101529348D01*
X168299466Y-101400968D01*
X168299462Y-101400963D01*
X168174036Y-101275537D01*
X168174031Y-101275533D01*
X168026548Y-101176987D01*
X168026546Y-101176986D01*
X167862667Y-101109106D01*
X167862663Y-101109105D01*
X167688691Y-101074500D01*
X167511309Y-101074500D01*
X167337336Y-101109105D01*
X167337332Y-101109106D01*
X167173453Y-101176986D01*
X167173451Y-101176987D01*
X167025968Y-101275533D01*
X167025963Y-101275537D01*
X166900537Y-101400963D01*
X166900533Y-101400968D01*
X166801987Y-101548451D01*
X166801986Y-101548454D01*
X166737658Y-101703758D01*
X166690706Y-101764948D01*
X166619449Y-101794464D01*
X166542981Y-101784397D01*
X166481791Y-101737445D01*
X166462342Y-101703758D01*
X166420616Y-101603023D01*
X166398013Y-101548453D01*
X166385247Y-101529348D01*
X166299466Y-101400968D01*
X166299462Y-101400963D01*
X166174036Y-101275537D01*
X166174031Y-101275533D01*
X166026548Y-101176987D01*
X166026546Y-101176986D01*
X165862667Y-101109106D01*
X165862663Y-101109105D01*
X165688691Y-101074500D01*
X165511309Y-101074500D01*
X165337336Y-101109105D01*
X165337332Y-101109106D01*
X165173453Y-101176986D01*
X165173451Y-101176987D01*
X165025968Y-101275533D01*
X165025963Y-101275537D01*
X164895360Y-101406141D01*
X164893244Y-101404025D01*
X164842051Y-101440614D01*
X164765285Y-101448077D01*
X164695072Y-101416158D01*
X164650225Y-101353408D01*
X164648304Y-101347965D01*
X164634358Y-101305880D01*
X164634358Y-101305879D01*
X164542319Y-101156659D01*
X164418340Y-101032680D01*
X164269121Y-100940642D01*
X164102697Y-100885494D01*
X164102688Y-100885492D01*
X163999989Y-100875000D01*
X163850000Y-100875000D01*
X163850000Y-101969670D01*
X163830255Y-101949925D01*
X163744745Y-101900556D01*
X163649370Y-101875000D01*
X163550630Y-101875000D01*
X163455255Y-101900556D01*
X163369745Y-101949925D01*
X163350000Y-101969670D01*
X163350000Y-100875000D01*
X163200026Y-100875000D01*
X163097303Y-100885494D01*
X162930878Y-100940642D01*
X162781659Y-101032680D01*
X162657680Y-101156659D01*
X162565642Y-101305878D01*
X162510494Y-101472302D01*
X162510492Y-101472311D01*
X162500000Y-101575010D01*
X153931406Y-101575010D01*
X153920482Y-101556090D01*
X153920481Y-101556089D01*
X153920480Y-101556087D01*
X152243913Y-99879520D01*
X152243910Y-99879518D01*
X152243906Y-99879515D01*
X152152592Y-99826794D01*
X152096580Y-99811786D01*
X152036474Y-99777083D01*
X152036030Y-99777663D01*
X152031629Y-99774286D01*
X152029786Y-99773222D01*
X152028281Y-99771717D01*
X151902840Y-99675463D01*
X151822944Y-99642369D01*
X151756762Y-99614956D01*
X151756760Y-99614955D01*
X151756756Y-99614954D01*
X151756759Y-99614954D01*
X151600003Y-99594318D01*
X151599997Y-99594318D01*
X151443242Y-99614954D01*
X151297159Y-99675463D01*
X151171718Y-99771717D01*
X151171717Y-99771718D01*
X151075463Y-99897159D01*
X151014954Y-100043242D01*
X150994318Y-100199997D01*
X146937106Y-100199997D01*
X148411632Y-98725471D01*
X151162094Y-95975010D01*
X162500000Y-95975010D01*
X162500000Y-96400000D01*
X163319670Y-96400000D01*
X163299925Y-96419745D01*
X163250556Y-96505255D01*
X163225000Y-96600630D01*
X163225000Y-96699370D01*
X163250556Y-96794745D01*
X163299925Y-96880255D01*
X163319670Y-96900000D01*
X162500001Y-96900000D01*
X162500001Y-97324973D01*
X162510494Y-97427696D01*
X162565642Y-97594121D01*
X162657680Y-97743340D01*
X162781659Y-97867319D01*
X162930878Y-97959357D01*
X163097302Y-98014505D01*
X163097311Y-98014507D01*
X163200015Y-98024999D01*
X163350000Y-98024999D01*
X163350000Y-96930330D01*
X163369745Y-96950075D01*
X163455255Y-96999444D01*
X163550630Y-97025000D01*
X163649370Y-97025000D01*
X163744745Y-96999444D01*
X163830255Y-96950075D01*
X163850000Y-96930330D01*
X163850000Y-98024999D01*
X163999974Y-98024999D01*
X164102696Y-98014505D01*
X164269121Y-97959357D01*
X164418340Y-97867319D01*
X164542319Y-97743340D01*
X164634358Y-97594120D01*
X164648304Y-97552034D01*
X164690686Y-97487595D01*
X164759610Y-97452979D01*
X164836608Y-97457464D01*
X164894004Y-97495214D01*
X164895360Y-97493859D01*
X164900536Y-97499035D01*
X165025965Y-97624464D01*
X165025968Y-97624466D01*
X165173451Y-97723012D01*
X165173453Y-97723013D01*
X165337334Y-97790894D01*
X165511309Y-97825500D01*
X165688691Y-97825500D01*
X165862666Y-97790894D01*
X166026547Y-97723013D01*
X166174035Y-97624464D01*
X166299464Y-97499035D01*
X166398013Y-97351547D01*
X166462342Y-97196240D01*
X166509294Y-97135051D01*
X166580551Y-97105535D01*
X166657019Y-97115602D01*
X166718209Y-97162554D01*
X166737658Y-97196241D01*
X166801986Y-97351546D01*
X166801987Y-97351548D01*
X166897077Y-97493859D01*
X166900536Y-97499035D01*
X167025965Y-97624464D01*
X167025968Y-97624466D01*
X167173451Y-97723012D01*
X167173453Y-97723013D01*
X167337334Y-97790894D01*
X167511309Y-97825500D01*
X167688691Y-97825500D01*
X167862666Y-97790894D01*
X168026547Y-97723013D01*
X168174035Y-97624464D01*
X168299464Y-97499035D01*
X168398013Y-97351547D01*
X168465894Y-97187666D01*
X168500500Y-97013691D01*
X168500500Y-96286309D01*
X168498250Y-96275000D01*
X168483331Y-96199997D01*
X168465894Y-96112334D01*
X168409013Y-95975010D01*
X171500000Y-95975010D01*
X171500000Y-96400000D01*
X172319670Y-96400000D01*
X172299925Y-96419745D01*
X172250556Y-96505255D01*
X172225000Y-96600630D01*
X172225000Y-96699370D01*
X172250556Y-96794745D01*
X172299925Y-96880255D01*
X172319670Y-96900000D01*
X171500001Y-96900000D01*
X171500001Y-97324973D01*
X171510494Y-97427696D01*
X171565642Y-97594121D01*
X171657680Y-97743340D01*
X171781659Y-97867319D01*
X171930878Y-97959357D01*
X172097302Y-98014505D01*
X172097311Y-98014507D01*
X172200015Y-98024999D01*
X172350000Y-98024999D01*
X172350000Y-96930330D01*
X172369745Y-96950075D01*
X172455255Y-96999444D01*
X172550630Y-97025000D01*
X172649370Y-97025000D01*
X172744745Y-96999444D01*
X172830255Y-96950075D01*
X172850000Y-96930330D01*
X172850000Y-98024999D01*
X172999974Y-98024999D01*
X173102696Y-98014505D01*
X173269121Y-97959357D01*
X173418340Y-97867319D01*
X173542319Y-97743340D01*
X173634358Y-97594120D01*
X173648304Y-97552034D01*
X173690686Y-97487595D01*
X173759610Y-97452979D01*
X173836608Y-97457464D01*
X173894004Y-97495214D01*
X173895360Y-97493859D01*
X173900536Y-97499035D01*
X174025965Y-97624464D01*
X174025968Y-97624466D01*
X174173451Y-97723012D01*
X174173453Y-97723013D01*
X174337334Y-97790894D01*
X174511309Y-97825500D01*
X174688691Y-97825500D01*
X174862666Y-97790894D01*
X175026547Y-97723013D01*
X175174035Y-97624464D01*
X175299464Y-97499035D01*
X175398013Y-97351547D01*
X175462342Y-97196240D01*
X175509294Y-97135051D01*
X175580551Y-97105535D01*
X175657019Y-97115602D01*
X175718209Y-97162554D01*
X175737658Y-97196241D01*
X175801986Y-97351546D01*
X175801987Y-97351548D01*
X175897077Y-97493859D01*
X175900536Y-97499035D01*
X176025965Y-97624464D01*
X176025968Y-97624466D01*
X176173451Y-97723012D01*
X176173453Y-97723013D01*
X176337334Y-97790894D01*
X176511309Y-97825500D01*
X176688691Y-97825500D01*
X176862666Y-97790894D01*
X177026547Y-97723013D01*
X177174035Y-97624464D01*
X177299464Y-97499035D01*
X177398013Y-97351547D01*
X177465894Y-97187666D01*
X177500500Y-97013691D01*
X177500500Y-96286309D01*
X177498250Y-96275000D01*
X177483331Y-96199997D01*
X177465894Y-96112334D01*
X177398013Y-95948453D01*
X177394426Y-95943085D01*
X177299466Y-95800968D01*
X177299462Y-95800963D01*
X177174036Y-95675537D01*
X177174031Y-95675533D01*
X177026548Y-95576987D01*
X177026546Y-95576986D01*
X176862667Y-95509106D01*
X176862663Y-95509105D01*
X176688691Y-95474500D01*
X176511309Y-95474500D01*
X176337336Y-95509105D01*
X176337332Y-95509106D01*
X176173453Y-95576986D01*
X176173451Y-95576987D01*
X176025968Y-95675533D01*
X176025963Y-95675537D01*
X175900537Y-95800963D01*
X175900533Y-95800968D01*
X175801987Y-95948451D01*
X175801986Y-95948454D01*
X175737658Y-96103758D01*
X175690706Y-96164948D01*
X175619449Y-96194464D01*
X175542981Y-96184397D01*
X175481791Y-96137445D01*
X175462342Y-96103758D01*
X175409013Y-95975010D01*
X175398013Y-95948453D01*
X175394426Y-95943085D01*
X175299466Y-95800968D01*
X175299462Y-95800963D01*
X175174036Y-95675537D01*
X175174031Y-95675533D01*
X175026548Y-95576987D01*
X175026546Y-95576986D01*
X174862667Y-95509106D01*
X174862663Y-95509105D01*
X174688691Y-95474500D01*
X174511309Y-95474500D01*
X174337336Y-95509105D01*
X174337332Y-95509106D01*
X174173453Y-95576986D01*
X174173451Y-95576987D01*
X174025968Y-95675533D01*
X174025963Y-95675537D01*
X173895360Y-95806141D01*
X173893244Y-95804025D01*
X173842051Y-95840614D01*
X173765285Y-95848077D01*
X173695072Y-95816158D01*
X173650225Y-95753408D01*
X173648304Y-95747965D01*
X173634358Y-95705880D01*
X173634358Y-95705879D01*
X173542319Y-95556659D01*
X173418340Y-95432680D01*
X173269121Y-95340642D01*
X173102697Y-95285494D01*
X173102688Y-95285492D01*
X172999989Y-95275000D01*
X172850000Y-95275000D01*
X172850000Y-96369670D01*
X172830255Y-96349925D01*
X172744745Y-96300556D01*
X172649370Y-96275000D01*
X172550630Y-96275000D01*
X172455255Y-96300556D01*
X172369745Y-96349925D01*
X172350000Y-96369670D01*
X172350000Y-95275000D01*
X172200026Y-95275000D01*
X172097303Y-95285494D01*
X171930878Y-95340642D01*
X171781659Y-95432680D01*
X171657680Y-95556659D01*
X171565642Y-95705878D01*
X171510494Y-95872302D01*
X171510492Y-95872311D01*
X171500000Y-95975010D01*
X168409013Y-95975010D01*
X168398013Y-95948453D01*
X168394426Y-95943085D01*
X168299466Y-95800968D01*
X168299462Y-95800963D01*
X168174036Y-95675537D01*
X168174031Y-95675533D01*
X168026548Y-95576987D01*
X168026546Y-95576986D01*
X167862667Y-95509106D01*
X167862663Y-95509105D01*
X167688691Y-95474500D01*
X167511309Y-95474500D01*
X167337336Y-95509105D01*
X167337332Y-95509106D01*
X167173453Y-95576986D01*
X167173451Y-95576987D01*
X167025968Y-95675533D01*
X167025963Y-95675537D01*
X166900537Y-95800963D01*
X166900533Y-95800968D01*
X166801987Y-95948451D01*
X166801986Y-95948454D01*
X166737658Y-96103758D01*
X166690706Y-96164948D01*
X166619449Y-96194464D01*
X166542981Y-96184397D01*
X166481791Y-96137445D01*
X166462342Y-96103758D01*
X166409013Y-95975010D01*
X166398013Y-95948453D01*
X166394426Y-95943085D01*
X166299466Y-95800968D01*
X166299462Y-95800963D01*
X166174036Y-95675537D01*
X166174031Y-95675533D01*
X166026548Y-95576987D01*
X166026546Y-95576986D01*
X165862667Y-95509106D01*
X165862663Y-95509105D01*
X165688691Y-95474500D01*
X165511309Y-95474500D01*
X165337336Y-95509105D01*
X165337332Y-95509106D01*
X165173453Y-95576986D01*
X165173451Y-95576987D01*
X165025968Y-95675533D01*
X165025963Y-95675537D01*
X164895360Y-95806141D01*
X164893244Y-95804025D01*
X164842051Y-95840614D01*
X164765285Y-95848077D01*
X164695072Y-95816158D01*
X164650225Y-95753408D01*
X164648304Y-95747965D01*
X164634358Y-95705880D01*
X164634358Y-95705879D01*
X164542319Y-95556659D01*
X164418340Y-95432680D01*
X164269121Y-95340642D01*
X164102697Y-95285494D01*
X164102688Y-95285492D01*
X163999989Y-95275000D01*
X163850000Y-95275000D01*
X163850000Y-96369670D01*
X163830255Y-96349925D01*
X163744745Y-96300556D01*
X163649370Y-96275000D01*
X163550630Y-96275000D01*
X163455255Y-96300556D01*
X163369745Y-96349925D01*
X163350000Y-96369670D01*
X163350000Y-95275000D01*
X163200026Y-95275000D01*
X163097303Y-95285494D01*
X162930878Y-95340642D01*
X162781659Y-95432680D01*
X162657680Y-95556659D01*
X162565642Y-95705878D01*
X162510494Y-95872302D01*
X162510492Y-95872311D01*
X162500000Y-95975010D01*
X151162094Y-95975010D01*
X152360490Y-94776614D01*
X152419799Y-94673887D01*
X152427816Y-94643967D01*
X152450500Y-94559309D01*
X152450500Y-90375010D01*
X162500000Y-90375010D01*
X162500000Y-90800000D01*
X163319670Y-90800000D01*
X163299925Y-90819745D01*
X163250556Y-90905255D01*
X163225000Y-91000630D01*
X163225000Y-91099370D01*
X163250556Y-91194745D01*
X163299925Y-91280255D01*
X163319670Y-91300000D01*
X162500001Y-91300000D01*
X162500001Y-91724973D01*
X162510494Y-91827696D01*
X162565642Y-91994121D01*
X162657680Y-92143340D01*
X162781659Y-92267319D01*
X162930878Y-92359357D01*
X163097302Y-92414505D01*
X163097311Y-92414507D01*
X163200015Y-92424999D01*
X163350000Y-92424999D01*
X163350000Y-91330330D01*
X163369745Y-91350075D01*
X163455255Y-91399444D01*
X163550630Y-91425000D01*
X163649370Y-91425000D01*
X163744745Y-91399444D01*
X163830255Y-91350075D01*
X163850000Y-91330330D01*
X163850000Y-92424999D01*
X163999974Y-92424999D01*
X164102696Y-92414505D01*
X164269121Y-92359357D01*
X164418340Y-92267319D01*
X164542319Y-92143340D01*
X164634358Y-91994120D01*
X164648304Y-91952034D01*
X164690686Y-91887595D01*
X164759610Y-91852979D01*
X164836608Y-91857464D01*
X164894004Y-91895214D01*
X164895360Y-91893859D01*
X164900536Y-91899035D01*
X165025965Y-92024464D01*
X165025968Y-92024466D01*
X165173451Y-92123012D01*
X165173453Y-92123013D01*
X165337334Y-92190894D01*
X165511309Y-92225500D01*
X165688691Y-92225500D01*
X165862666Y-92190894D01*
X166026547Y-92123013D01*
X166174035Y-92024464D01*
X166299464Y-91899035D01*
X166398013Y-91751547D01*
X166462342Y-91596240D01*
X166509294Y-91535051D01*
X166580551Y-91505535D01*
X166657019Y-91515602D01*
X166718209Y-91562554D01*
X166737658Y-91596241D01*
X166801986Y-91751546D01*
X166801987Y-91751548D01*
X166892892Y-91887595D01*
X166900536Y-91899035D01*
X167025965Y-92024464D01*
X167025968Y-92024466D01*
X167173451Y-92123012D01*
X167173453Y-92123013D01*
X167337334Y-92190894D01*
X167511309Y-92225500D01*
X167688691Y-92225500D01*
X167862666Y-92190894D01*
X168026547Y-92123013D01*
X168174035Y-92024464D01*
X168299464Y-91899035D01*
X168398013Y-91751547D01*
X168455197Y-91613491D01*
X168465895Y-91587664D01*
X168465894Y-91587663D01*
X168500500Y-91413691D01*
X168500500Y-90686309D01*
X168498250Y-90675000D01*
X168478451Y-90575463D01*
X168465894Y-90512334D01*
X168398013Y-90348453D01*
X168382349Y-90325010D01*
X171500000Y-90325010D01*
X171500000Y-90750000D01*
X172319670Y-90750000D01*
X172299925Y-90769745D01*
X172250556Y-90855255D01*
X172225000Y-90950630D01*
X172225000Y-91049370D01*
X172250556Y-91144745D01*
X172299925Y-91230255D01*
X172319670Y-91250000D01*
X171500001Y-91250000D01*
X171500001Y-91674973D01*
X171510494Y-91777696D01*
X171565642Y-91944121D01*
X171657680Y-92093340D01*
X171781659Y-92217319D01*
X171930878Y-92309357D01*
X172097302Y-92364505D01*
X172097311Y-92364507D01*
X172200015Y-92374999D01*
X172350000Y-92374999D01*
X172350000Y-91280330D01*
X172369745Y-91300075D01*
X172455255Y-91349444D01*
X172550630Y-91375000D01*
X172649370Y-91375000D01*
X172744745Y-91349444D01*
X172830255Y-91300075D01*
X172850000Y-91280330D01*
X172850000Y-92374999D01*
X172999974Y-92374999D01*
X173102696Y-92364505D01*
X173269121Y-92309357D01*
X173418340Y-92217319D01*
X173542319Y-92093340D01*
X173634358Y-91944120D01*
X173648304Y-91902034D01*
X173690686Y-91837595D01*
X173759610Y-91802979D01*
X173836608Y-91807464D01*
X173894004Y-91845214D01*
X173895360Y-91843859D01*
X173900536Y-91849035D01*
X174025965Y-91974464D01*
X174025968Y-91974466D01*
X174173451Y-92073012D01*
X174173453Y-92073013D01*
X174337334Y-92140894D01*
X174511309Y-92175500D01*
X174688691Y-92175500D01*
X174862666Y-92140894D01*
X175026547Y-92073013D01*
X175174035Y-91974464D01*
X175299464Y-91849035D01*
X175398013Y-91701547D01*
X175462342Y-91546240D01*
X175509294Y-91485051D01*
X175580551Y-91455535D01*
X175657019Y-91465602D01*
X175718209Y-91512554D01*
X175737657Y-91546240D01*
X175744159Y-91561936D01*
X175801986Y-91701546D01*
X175801987Y-91701548D01*
X175892892Y-91837595D01*
X175900536Y-91849035D01*
X176025965Y-91974464D01*
X176025968Y-91974466D01*
X176173451Y-92073012D01*
X176173453Y-92073013D01*
X176337334Y-92140894D01*
X176511309Y-92175500D01*
X176688691Y-92175500D01*
X176862666Y-92140894D01*
X177026547Y-92073013D01*
X177174035Y-91974464D01*
X177299464Y-91849035D01*
X177398013Y-91701547D01*
X177465894Y-91537666D01*
X177500500Y-91363691D01*
X177500500Y-90636309D01*
X177498250Y-90625000D01*
X177482231Y-90544464D01*
X177465894Y-90462334D01*
X177398013Y-90298453D01*
X177380545Y-90272311D01*
X177299466Y-90150968D01*
X177299462Y-90150963D01*
X177174036Y-90025537D01*
X177174031Y-90025533D01*
X177026548Y-89926987D01*
X177026546Y-89926986D01*
X176862667Y-89859106D01*
X176862663Y-89859105D01*
X176688691Y-89824500D01*
X176511309Y-89824500D01*
X176337336Y-89859105D01*
X176337332Y-89859106D01*
X176173453Y-89926986D01*
X176173451Y-89926987D01*
X176025968Y-90025533D01*
X176025963Y-90025537D01*
X175900537Y-90150963D01*
X175900533Y-90150968D01*
X175801987Y-90298451D01*
X175801986Y-90298454D01*
X175737658Y-90453758D01*
X175690706Y-90514948D01*
X175619449Y-90544464D01*
X175542981Y-90534397D01*
X175481791Y-90487445D01*
X175462342Y-90453758D01*
X175431792Y-90380004D01*
X175398013Y-90298453D01*
X175380545Y-90272311D01*
X175299466Y-90150968D01*
X175299462Y-90150963D01*
X175174036Y-90025537D01*
X175174031Y-90025533D01*
X175026548Y-89926987D01*
X175026546Y-89926986D01*
X174862667Y-89859106D01*
X174862663Y-89859105D01*
X174688691Y-89824500D01*
X174511309Y-89824500D01*
X174337336Y-89859105D01*
X174337332Y-89859106D01*
X174173453Y-89926986D01*
X174173451Y-89926987D01*
X174025968Y-90025533D01*
X174025963Y-90025537D01*
X173895360Y-90156141D01*
X173893244Y-90154025D01*
X173842051Y-90190614D01*
X173765285Y-90198077D01*
X173695072Y-90166158D01*
X173650225Y-90103408D01*
X173648304Y-90097965D01*
X173634358Y-90055880D01*
X173634358Y-90055879D01*
X173542319Y-89906659D01*
X173418340Y-89782680D01*
X173269121Y-89690642D01*
X173102697Y-89635494D01*
X173102688Y-89635492D01*
X172999989Y-89625000D01*
X172850000Y-89625000D01*
X172850000Y-90719670D01*
X172830255Y-90699925D01*
X172744745Y-90650556D01*
X172649370Y-90625000D01*
X172550630Y-90625000D01*
X172455255Y-90650556D01*
X172369745Y-90699925D01*
X172350000Y-90719670D01*
X172350000Y-89625000D01*
X172200026Y-89625000D01*
X172097303Y-89635494D01*
X171930878Y-89690642D01*
X171781659Y-89782680D01*
X171657680Y-89906659D01*
X171565642Y-90055878D01*
X171510494Y-90222302D01*
X171510492Y-90222311D01*
X171500000Y-90325010D01*
X168382349Y-90325010D01*
X168330943Y-90248077D01*
X168299466Y-90200968D01*
X168299462Y-90200963D01*
X168174036Y-90075537D01*
X168174031Y-90075533D01*
X168026548Y-89976987D01*
X168026546Y-89976986D01*
X167862667Y-89909106D01*
X167862663Y-89909105D01*
X167688691Y-89874500D01*
X167511309Y-89874500D01*
X167337336Y-89909105D01*
X167337332Y-89909106D01*
X167173453Y-89976986D01*
X167173451Y-89976987D01*
X167025968Y-90075533D01*
X167025963Y-90075537D01*
X166900537Y-90200963D01*
X166900533Y-90200968D01*
X166801987Y-90348451D01*
X166801986Y-90348454D01*
X166737658Y-90503758D01*
X166690706Y-90564948D01*
X166619449Y-90594464D01*
X166542981Y-90584397D01*
X166481791Y-90537445D01*
X166462342Y-90503758D01*
X166437701Y-90444270D01*
X166398013Y-90348453D01*
X166330943Y-90248077D01*
X166299466Y-90200968D01*
X166299462Y-90200963D01*
X166174036Y-90075537D01*
X166174031Y-90075533D01*
X166026548Y-89976987D01*
X166026546Y-89976986D01*
X165862667Y-89909106D01*
X165862663Y-89909105D01*
X165688691Y-89874500D01*
X165511309Y-89874500D01*
X165337336Y-89909105D01*
X165337332Y-89909106D01*
X165173453Y-89976986D01*
X165173451Y-89976987D01*
X165025968Y-90075533D01*
X165025963Y-90075537D01*
X164895360Y-90206141D01*
X164893244Y-90204025D01*
X164842051Y-90240614D01*
X164765285Y-90248077D01*
X164695072Y-90216158D01*
X164650225Y-90153408D01*
X164648304Y-90147965D01*
X164634358Y-90105880D01*
X164634358Y-90105879D01*
X164542319Y-89956659D01*
X164418340Y-89832680D01*
X164269121Y-89740642D01*
X164102697Y-89685494D01*
X164102688Y-89685492D01*
X163999989Y-89675000D01*
X163850000Y-89675000D01*
X163850000Y-90769670D01*
X163830255Y-90749925D01*
X163744745Y-90700556D01*
X163649370Y-90675000D01*
X163550630Y-90675000D01*
X163455255Y-90700556D01*
X163369745Y-90749925D01*
X163350000Y-90769670D01*
X163350000Y-89675000D01*
X163200026Y-89675000D01*
X163097303Y-89685494D01*
X162930878Y-89740642D01*
X162781659Y-89832680D01*
X162657680Y-89956659D01*
X162565642Y-90105878D01*
X162510494Y-90272302D01*
X162510492Y-90272311D01*
X162500000Y-90375010D01*
X152450500Y-90375010D01*
X152450500Y-84725010D01*
X162500000Y-84725010D01*
X162500000Y-85150000D01*
X163319670Y-85150000D01*
X163299925Y-85169745D01*
X163250556Y-85255255D01*
X163225000Y-85350630D01*
X163225000Y-85449370D01*
X163250556Y-85544745D01*
X163299925Y-85630255D01*
X163319670Y-85650000D01*
X162500001Y-85650000D01*
X162500001Y-86074973D01*
X162510494Y-86177696D01*
X162565642Y-86344121D01*
X162657680Y-86493340D01*
X162781659Y-86617319D01*
X162930878Y-86709357D01*
X163097302Y-86764505D01*
X163097311Y-86764507D01*
X163200015Y-86774999D01*
X163350000Y-86774999D01*
X163350000Y-85680330D01*
X163369745Y-85700075D01*
X163455255Y-85749444D01*
X163550630Y-85775000D01*
X163649370Y-85775000D01*
X163744745Y-85749444D01*
X163830255Y-85700075D01*
X163850000Y-85680330D01*
X163850000Y-86774999D01*
X163999974Y-86774999D01*
X164102696Y-86764505D01*
X164269121Y-86709357D01*
X164418340Y-86617319D01*
X164542319Y-86493340D01*
X164634358Y-86344120D01*
X164648304Y-86302034D01*
X164690686Y-86237595D01*
X164759610Y-86202979D01*
X164836608Y-86207464D01*
X164894004Y-86245214D01*
X164895360Y-86243859D01*
X164900536Y-86249035D01*
X165025965Y-86374464D01*
X165025968Y-86374466D01*
X165173451Y-86473012D01*
X165173453Y-86473013D01*
X165337334Y-86540894D01*
X165511309Y-86575500D01*
X165688691Y-86575500D01*
X165862666Y-86540894D01*
X166026547Y-86473013D01*
X166174035Y-86374464D01*
X166299464Y-86249035D01*
X166398013Y-86101547D01*
X166462342Y-85946240D01*
X166509294Y-85885051D01*
X166580551Y-85855535D01*
X166657019Y-85865602D01*
X166718209Y-85912554D01*
X166737658Y-85946241D01*
X166801986Y-86101546D01*
X166801987Y-86101548D01*
X166900533Y-86249031D01*
X166900536Y-86249035D01*
X167025965Y-86374464D01*
X167025968Y-86374466D01*
X167173451Y-86473012D01*
X167173453Y-86473013D01*
X167337334Y-86540894D01*
X167511309Y-86575500D01*
X167688691Y-86575500D01*
X167862666Y-86540894D01*
X168026547Y-86473013D01*
X168174035Y-86374464D01*
X168299464Y-86249035D01*
X168398013Y-86101547D01*
X168465894Y-85937666D01*
X168500500Y-85763691D01*
X168500500Y-85036309D01*
X168498250Y-85025000D01*
X168480228Y-84934397D01*
X168465894Y-84862334D01*
X168409013Y-84725010D01*
X171500000Y-84725010D01*
X171500000Y-85150000D01*
X172319670Y-85150000D01*
X172299925Y-85169745D01*
X172250556Y-85255255D01*
X172225000Y-85350630D01*
X172225000Y-85449370D01*
X172250556Y-85544745D01*
X172299925Y-85630255D01*
X172319670Y-85650000D01*
X171500001Y-85650000D01*
X171500001Y-86074973D01*
X171510494Y-86177696D01*
X171565642Y-86344121D01*
X171657680Y-86493340D01*
X171781659Y-86617319D01*
X171930878Y-86709357D01*
X172097302Y-86764505D01*
X172097311Y-86764507D01*
X172200015Y-86774999D01*
X172350000Y-86774999D01*
X172350000Y-85680330D01*
X172369745Y-85700075D01*
X172455255Y-85749444D01*
X172550630Y-85775000D01*
X172649370Y-85775000D01*
X172744745Y-85749444D01*
X172830255Y-85700075D01*
X172850000Y-85680330D01*
X172850000Y-86774999D01*
X172999974Y-86774999D01*
X173102696Y-86764505D01*
X173269121Y-86709357D01*
X173418340Y-86617319D01*
X173542319Y-86493340D01*
X173634358Y-86344120D01*
X173648304Y-86302034D01*
X173690686Y-86237595D01*
X173759610Y-86202979D01*
X173836608Y-86207464D01*
X173894004Y-86245214D01*
X173895360Y-86243859D01*
X173900536Y-86249035D01*
X174025965Y-86374464D01*
X174025968Y-86374466D01*
X174173451Y-86473012D01*
X174173453Y-86473013D01*
X174337334Y-86540894D01*
X174511309Y-86575500D01*
X174688691Y-86575500D01*
X174862666Y-86540894D01*
X175026547Y-86473013D01*
X175174035Y-86374464D01*
X175299464Y-86249035D01*
X175398013Y-86101547D01*
X175462342Y-85946240D01*
X175509294Y-85885051D01*
X175580551Y-85855535D01*
X175657019Y-85865602D01*
X175718209Y-85912554D01*
X175737658Y-85946241D01*
X175801986Y-86101546D01*
X175801987Y-86101548D01*
X175900533Y-86249031D01*
X175900536Y-86249035D01*
X176025965Y-86374464D01*
X176025968Y-86374466D01*
X176173451Y-86473012D01*
X176173453Y-86473013D01*
X176337334Y-86540894D01*
X176511309Y-86575500D01*
X176688691Y-86575500D01*
X176862666Y-86540894D01*
X177026547Y-86473013D01*
X177174035Y-86374464D01*
X177299464Y-86249035D01*
X177398013Y-86101547D01*
X177465894Y-85937666D01*
X177500500Y-85763691D01*
X177500500Y-85036309D01*
X177498250Y-85025000D01*
X177480228Y-84934397D01*
X177465894Y-84862334D01*
X177398013Y-84698453D01*
X177330943Y-84598077D01*
X177299466Y-84550968D01*
X177299462Y-84550963D01*
X177174036Y-84425537D01*
X177174031Y-84425533D01*
X177026548Y-84326987D01*
X177026546Y-84326986D01*
X176862667Y-84259106D01*
X176862663Y-84259105D01*
X176688691Y-84224500D01*
X176511309Y-84224500D01*
X176337336Y-84259105D01*
X176337332Y-84259106D01*
X176173453Y-84326986D01*
X176173451Y-84326987D01*
X176025968Y-84425533D01*
X176025963Y-84425537D01*
X175900537Y-84550963D01*
X175900533Y-84550968D01*
X175801987Y-84698451D01*
X175801986Y-84698454D01*
X175737658Y-84853758D01*
X175690706Y-84914948D01*
X175619449Y-84944464D01*
X175542981Y-84934397D01*
X175481791Y-84887445D01*
X175462342Y-84853758D01*
X175437701Y-84794270D01*
X175398013Y-84698453D01*
X175330943Y-84598077D01*
X175299466Y-84550968D01*
X175299462Y-84550963D01*
X175174036Y-84425537D01*
X175174031Y-84425533D01*
X175026548Y-84326987D01*
X175026546Y-84326986D01*
X174862667Y-84259106D01*
X174862663Y-84259105D01*
X174688691Y-84224500D01*
X174511309Y-84224500D01*
X174337336Y-84259105D01*
X174337332Y-84259106D01*
X174173453Y-84326986D01*
X174173451Y-84326987D01*
X174025968Y-84425533D01*
X174025963Y-84425537D01*
X173895360Y-84556141D01*
X173893244Y-84554025D01*
X173842051Y-84590614D01*
X173765285Y-84598077D01*
X173695072Y-84566158D01*
X173650225Y-84503408D01*
X173648304Y-84497965D01*
X173634358Y-84455880D01*
X173634358Y-84455879D01*
X173542319Y-84306659D01*
X173418340Y-84182680D01*
X173269121Y-84090642D01*
X173102697Y-84035494D01*
X173102688Y-84035492D01*
X172999989Y-84025000D01*
X172850000Y-84025000D01*
X172850000Y-85119670D01*
X172830255Y-85099925D01*
X172744745Y-85050556D01*
X172649370Y-85025000D01*
X172550630Y-85025000D01*
X172455255Y-85050556D01*
X172369745Y-85099925D01*
X172350000Y-85119670D01*
X172350000Y-84025000D01*
X172200026Y-84025000D01*
X172097303Y-84035494D01*
X171930878Y-84090642D01*
X171781659Y-84182680D01*
X171657680Y-84306659D01*
X171565642Y-84455878D01*
X171510494Y-84622302D01*
X171510492Y-84622311D01*
X171500000Y-84725010D01*
X168409013Y-84725010D01*
X168398013Y-84698453D01*
X168330943Y-84598077D01*
X168299466Y-84550968D01*
X168299462Y-84550963D01*
X168174036Y-84425537D01*
X168174031Y-84425533D01*
X168026548Y-84326987D01*
X168026546Y-84326986D01*
X167862667Y-84259106D01*
X167862663Y-84259105D01*
X167688691Y-84224500D01*
X167511309Y-84224500D01*
X167337336Y-84259105D01*
X167337332Y-84259106D01*
X167173453Y-84326986D01*
X167173451Y-84326987D01*
X167025968Y-84425533D01*
X167025963Y-84425537D01*
X166900537Y-84550963D01*
X166900533Y-84550968D01*
X166801987Y-84698451D01*
X166801986Y-84698454D01*
X166737658Y-84853758D01*
X166690706Y-84914948D01*
X166619449Y-84944464D01*
X166542981Y-84934397D01*
X166481791Y-84887445D01*
X166462342Y-84853758D01*
X166437701Y-84794270D01*
X166398013Y-84698453D01*
X166330943Y-84598077D01*
X166299466Y-84550968D01*
X166299462Y-84550963D01*
X166174036Y-84425537D01*
X166174031Y-84425533D01*
X166026548Y-84326987D01*
X166026546Y-84326986D01*
X165862667Y-84259106D01*
X165862663Y-84259105D01*
X165688691Y-84224500D01*
X165511309Y-84224500D01*
X165337336Y-84259105D01*
X165337332Y-84259106D01*
X165173453Y-84326986D01*
X165173451Y-84326987D01*
X165025968Y-84425533D01*
X165025963Y-84425537D01*
X164895360Y-84556141D01*
X164893244Y-84554025D01*
X164842051Y-84590614D01*
X164765285Y-84598077D01*
X164695072Y-84566158D01*
X164650225Y-84503408D01*
X164648304Y-84497965D01*
X164634358Y-84455880D01*
X164634358Y-84455879D01*
X164542319Y-84306659D01*
X164418340Y-84182680D01*
X164269121Y-84090642D01*
X164102697Y-84035494D01*
X164102688Y-84035492D01*
X163999989Y-84025000D01*
X163850000Y-84025000D01*
X163850000Y-85119670D01*
X163830255Y-85099925D01*
X163744745Y-85050556D01*
X163649370Y-85025000D01*
X163550630Y-85025000D01*
X163455255Y-85050556D01*
X163369745Y-85099925D01*
X163350000Y-85119670D01*
X163350000Y-84025000D01*
X163200026Y-84025000D01*
X163097303Y-84035494D01*
X162930878Y-84090642D01*
X162781659Y-84182680D01*
X162657680Y-84306659D01*
X162565642Y-84455878D01*
X162510494Y-84622302D01*
X162510492Y-84622311D01*
X162500000Y-84725010D01*
X152450500Y-84725010D01*
X152450500Y-84540691D01*
X152419799Y-84426114D01*
X152419799Y-84426113D01*
X152419798Y-84426111D01*
X152360491Y-84323389D01*
X152360490Y-84323388D01*
X152360489Y-84323386D01*
X150741962Y-82704859D01*
X150703398Y-82638064D01*
X150703398Y-82560936D01*
X150741962Y-82494141D01*
X150808757Y-82455577D01*
X150847321Y-82450500D01*
X156714306Y-82450500D01*
X156788806Y-82470462D01*
X156825770Y-82502274D01*
X156825982Y-82502063D01*
X156828801Y-82504882D01*
X156830803Y-82506605D01*
X156831897Y-82507977D01*
X156831899Y-82507980D01*
X156959453Y-82635534D01*
X157112193Y-82731507D01*
X157282460Y-82791086D01*
X157310950Y-82794296D01*
X157461714Y-82811283D01*
X157461715Y-82811283D01*
X157461716Y-82811283D01*
X157506528Y-82806233D01*
X157640970Y-82791086D01*
X157811237Y-82731507D01*
X157963977Y-82635534D01*
X158091531Y-82507980D01*
X158187504Y-82355240D01*
X158247083Y-82184973D01*
X158267280Y-82005718D01*
X158260698Y-81947305D01*
X158247083Y-81826465D01*
X158247083Y-81826463D01*
X158187504Y-81656196D01*
X158091531Y-81503456D01*
X157963977Y-81375902D01*
X157811237Y-81279929D01*
X157640970Y-81220350D01*
X157595734Y-81215253D01*
X157545750Y-81209621D01*
X157505414Y-81199216D01*
X157445742Y-81174499D01*
X157445740Y-81174498D01*
X157320069Y-81149500D01*
X157320066Y-81149500D01*
X149264069Y-81149500D01*
X147671164Y-81149500D01*
X147596664Y-81129538D01*
X147565805Y-81105859D01*
X146245831Y-79785885D01*
X160324500Y-79785885D01*
X160324500Y-79785886D01*
X160324500Y-79785890D01*
X160324500Y-82425616D01*
X160327414Y-82450739D01*
X160327415Y-82450742D01*
X160372793Y-82553514D01*
X160372794Y-82553515D01*
X160452235Y-82632956D01*
X160555009Y-82678335D01*
X160580135Y-82681250D01*
X163219864Y-82681249D01*
X163219866Y-82681249D01*
X163234773Y-82679520D01*
X163244991Y-82678335D01*
X163347765Y-82632956D01*
X163427206Y-82553515D01*
X163472585Y-82450741D01*
X163475500Y-82425615D01*
X163475499Y-81105745D01*
X165120023Y-81105745D01*
X165120023Y-81105754D01*
X165139902Y-81371030D01*
X165139905Y-81371052D01*
X165199099Y-81630399D01*
X165199101Y-81630406D01*
X165296294Y-81878048D01*
X165296296Y-81878053D01*
X165429313Y-82108444D01*
X165429318Y-82108452D01*
X165480084Y-82172110D01*
X166145884Y-81506309D01*
X166146740Y-81508376D01*
X166239762Y-81647594D01*
X166358156Y-81765988D01*
X166497374Y-81859010D01*
X166499438Y-81859865D01*
X165832841Y-82526461D01*
X166010016Y-82647257D01*
X166249691Y-82762679D01*
X166249715Y-82762689D01*
X166503908Y-82841096D01*
X166503914Y-82841098D01*
X166766979Y-82880749D01*
X166766984Y-82880750D01*
X167033016Y-82880750D01*
X167033020Y-82880749D01*
X167296085Y-82841098D01*
X167296091Y-82841096D01*
X167550284Y-82762689D01*
X167550308Y-82762679D01*
X167789986Y-82647256D01*
X167789998Y-82647249D01*
X167967158Y-82526462D01*
X167300561Y-81859865D01*
X167302626Y-81859010D01*
X167441844Y-81765988D01*
X167560238Y-81647594D01*
X167653260Y-81508376D01*
X167654115Y-81506311D01*
X168319914Y-82172110D01*
X168319915Y-82172110D01*
X168370679Y-82108456D01*
X168370684Y-82108448D01*
X168503703Y-81878053D01*
X168503705Y-81878048D01*
X168600898Y-81630406D01*
X168600900Y-81630399D01*
X168660094Y-81371052D01*
X168660097Y-81371030D01*
X168679977Y-81105754D01*
X168679977Y-81105745D01*
X168660097Y-80840469D01*
X168660094Y-80840447D01*
X168600900Y-80581100D01*
X168600898Y-80581093D01*
X168503705Y-80333451D01*
X168503703Y-80333446D01*
X168370686Y-80103055D01*
X168370681Y-80103047D01*
X168319914Y-80039388D01*
X167654114Y-80705187D01*
X167653260Y-80703124D01*
X167560238Y-80563906D01*
X167441844Y-80445512D01*
X167302626Y-80352490D01*
X167300559Y-80351634D01*
X167967157Y-79685037D01*
X167789989Y-79564245D01*
X167789988Y-79564244D01*
X167550308Y-79448820D01*
X167550284Y-79448810D01*
X167296091Y-79370403D01*
X167296085Y-79370401D01*
X167033020Y-79330750D01*
X166766979Y-79330750D01*
X166503914Y-79370401D01*
X166503908Y-79370403D01*
X166249715Y-79448810D01*
X166249691Y-79448820D01*
X166010013Y-79564244D01*
X165832841Y-79685036D01*
X165832841Y-79685037D01*
X166499438Y-80351634D01*
X166497374Y-80352490D01*
X166358156Y-80445512D01*
X166239762Y-80563906D01*
X166146740Y-80703124D01*
X166145884Y-80705189D01*
X165480083Y-80039388D01*
X165429317Y-80103048D01*
X165429314Y-80103053D01*
X165296296Y-80333446D01*
X165296294Y-80333451D01*
X165199101Y-80581093D01*
X165199099Y-80581100D01*
X165139905Y-80840447D01*
X165139902Y-80840469D01*
X165120023Y-81105745D01*
X163475499Y-81105745D01*
X163475499Y-79785886D01*
X163472585Y-79760759D01*
X163427206Y-79657985D01*
X163347765Y-79578544D01*
X163347764Y-79578543D01*
X163244994Y-79533166D01*
X163244991Y-79533165D01*
X163244982Y-79533164D01*
X163219865Y-79530250D01*
X163219859Y-79530250D01*
X160580133Y-79530250D01*
X160555010Y-79533164D01*
X160555007Y-79533165D01*
X160452235Y-79578543D01*
X160372793Y-79657985D01*
X160327416Y-79760755D01*
X160327415Y-79760758D01*
X160327415Y-79760759D01*
X160324500Y-79785885D01*
X146245831Y-79785885D01*
X145434918Y-78974972D01*
X145396354Y-78908177D01*
X145391913Y-78855865D01*
X145405429Y-78710004D01*
X145405429Y-78709995D01*
X145393064Y-78576558D01*
X145385756Y-78497690D01*
X145334056Y-78315989D01*
X145327406Y-78292614D01*
X145327405Y-78292612D01*
X145324368Y-78286512D01*
X145232366Y-78101745D01*
X145232364Y-78101743D01*
X145232363Y-78101740D01*
X145103872Y-77931593D01*
X144946302Y-77787948D01*
X144946301Y-77787947D01*
X144765022Y-77675703D01*
X144765016Y-77675700D01*
X144566204Y-77598681D01*
X144566200Y-77598680D01*
X144566198Y-77598679D01*
X144500846Y-77586462D01*
X144431284Y-77553151D01*
X144387696Y-77489521D01*
X144381763Y-77412621D01*
X144415075Y-77343058D01*
X144478705Y-77299470D01*
X144500843Y-77293537D01*
X144566198Y-77281321D01*
X144765019Y-77204298D01*
X144946302Y-77092052D01*
X145103872Y-76948407D01*
X145232366Y-76778255D01*
X145327405Y-76587389D01*
X145385756Y-76382310D01*
X145398016Y-76250000D01*
X172250000Y-76250000D01*
X177750000Y-76250000D01*
X177750000Y-71750000D01*
X172250000Y-71750000D01*
X172250000Y-76250000D01*
X145398016Y-76250000D01*
X145405429Y-76170000D01*
X145402354Y-76136818D01*
X145391529Y-76019988D01*
X145385756Y-75957690D01*
X145327405Y-75752611D01*
X145232366Y-75561745D01*
X145232364Y-75561743D01*
X145232363Y-75561740D01*
X145103872Y-75391593D01*
X144946302Y-75247948D01*
X144946301Y-75247947D01*
X144765022Y-75135703D01*
X144765016Y-75135700D01*
X144591388Y-75068437D01*
X144529130Y-75022911D01*
X144497976Y-74952355D01*
X144506275Y-74875674D01*
X144551801Y-74813416D01*
X144622357Y-74782262D01*
X144645209Y-74780499D01*
X145144864Y-74780499D01*
X145144867Y-74780499D01*
X145159940Y-74778750D01*
X145169991Y-74777585D01*
X145272765Y-74732206D01*
X145352206Y-74652765D01*
X145397585Y-74549991D01*
X145400500Y-74524865D01*
X145400499Y-72735136D01*
X145397585Y-72710009D01*
X145352206Y-72607235D01*
X145272765Y-72527794D01*
X145272764Y-72527793D01*
X145169994Y-72482416D01*
X145169991Y-72482415D01*
X145169982Y-72482414D01*
X145144865Y-72479500D01*
X145144859Y-72479500D01*
X145049500Y-72479500D01*
X144975000Y-72459538D01*
X144920462Y-72405000D01*
X144900500Y-72330500D01*
X144900500Y-71541935D01*
X144900499Y-71541927D01*
X144887050Y-71474318D01*
X144875501Y-71416256D01*
X144832512Y-71312472D01*
X144826468Y-71297880D01*
X144826467Y-71297879D01*
X144826465Y-71297873D01*
X144755276Y-71191331D01*
X144669695Y-71105750D01*
X157840398Y-71105750D01*
X157860758Y-71312468D01*
X157860758Y-71312470D01*
X157860759Y-71312472D01*
X157921056Y-71511245D01*
X158018966Y-71694421D01*
X158018969Y-71694426D01*
X158018973Y-71694433D01*
X158150748Y-71855002D01*
X158311317Y-71986777D01*
X158311326Y-71986782D01*
X158311328Y-71986783D01*
X158485718Y-72079997D01*
X158494508Y-72084695D01*
X158693282Y-72144992D01*
X158900000Y-72165352D01*
X159106718Y-72144992D01*
X159305492Y-72084695D01*
X159488683Y-71986777D01*
X159649252Y-71855002D01*
X159781027Y-71694433D01*
X159878945Y-71511242D01*
X159939242Y-71312468D01*
X159959602Y-71105750D01*
X168840398Y-71105750D01*
X168860758Y-71312468D01*
X168860758Y-71312470D01*
X168860759Y-71312472D01*
X168921056Y-71511245D01*
X169018966Y-71694421D01*
X169018969Y-71694426D01*
X169018973Y-71694433D01*
X169150748Y-71855002D01*
X169311317Y-71986777D01*
X169311326Y-71986782D01*
X169311328Y-71986783D01*
X169485718Y-72079997D01*
X169494508Y-72084695D01*
X169693282Y-72144992D01*
X169900000Y-72165352D01*
X170106718Y-72144992D01*
X170305492Y-72084695D01*
X170488683Y-71986777D01*
X170649252Y-71855002D01*
X170781027Y-71694433D01*
X170878945Y-71511242D01*
X170939242Y-71312468D01*
X170959602Y-71105750D01*
X170939242Y-70899032D01*
X170878945Y-70700258D01*
X170800331Y-70553183D01*
X170781033Y-70517078D01*
X170781032Y-70517076D01*
X170781027Y-70517067D01*
X170649252Y-70356498D01*
X170488683Y-70224723D01*
X170488676Y-70224719D01*
X170488671Y-70224716D01*
X170305495Y-70126806D01*
X170106722Y-70066509D01*
X170106720Y-70066508D01*
X170106718Y-70066508D01*
X169900000Y-70046148D01*
X169693282Y-70066508D01*
X169693279Y-70066508D01*
X169693277Y-70066509D01*
X169494504Y-70126806D01*
X169311328Y-70224716D01*
X169311314Y-70224725D01*
X169150749Y-70356496D01*
X169150746Y-70356499D01*
X169018975Y-70517064D01*
X169018966Y-70517078D01*
X168921056Y-70700254D01*
X168860759Y-70899027D01*
X168860758Y-70899029D01*
X168860758Y-70899032D01*
X168840398Y-71105750D01*
X159959602Y-71105750D01*
X159939242Y-70899032D01*
X159878945Y-70700258D01*
X159800331Y-70553183D01*
X159781033Y-70517078D01*
X159781032Y-70517076D01*
X159781027Y-70517067D01*
X159649252Y-70356498D01*
X159488683Y-70224723D01*
X159488676Y-70224719D01*
X159488671Y-70224716D01*
X159305495Y-70126806D01*
X159106722Y-70066509D01*
X159106720Y-70066508D01*
X159106718Y-70066508D01*
X158900000Y-70046148D01*
X158693282Y-70066508D01*
X158693279Y-70066508D01*
X158693277Y-70066509D01*
X158494504Y-70126806D01*
X158311328Y-70224716D01*
X158311314Y-70224725D01*
X158150749Y-70356496D01*
X158150746Y-70356499D01*
X158018975Y-70517064D01*
X158018966Y-70517078D01*
X157921056Y-70700254D01*
X157860759Y-70899027D01*
X157860758Y-70899029D01*
X157860758Y-70899032D01*
X157840398Y-71105750D01*
X144669695Y-71105750D01*
X144664669Y-71100724D01*
X143558669Y-69994723D01*
X143452127Y-69923535D01*
X143452123Y-69923533D01*
X143452121Y-69923532D01*
X143371668Y-69890207D01*
X143333744Y-69874499D01*
X143333742Y-69874498D01*
X143333743Y-69874498D01*
X143208072Y-69849500D01*
X143208069Y-69849500D01*
X123508069Y-69849500D01*
X117860933Y-69849500D01*
X117860929Y-69849500D01*
X117735258Y-69874498D01*
X117735257Y-69874499D01*
X117620422Y-69922066D01*
X117620412Y-69922070D01*
X117616876Y-69923534D01*
X117510334Y-69994722D01*
X117510332Y-69994723D01*
X116659689Y-70845365D01*
X116603543Y-70880644D01*
X116550478Y-70899212D01*
X116397738Y-70995186D01*
X116312063Y-71080861D01*
X116245268Y-71119425D01*
X116206704Y-71124502D01*
X114720991Y-71124502D01*
X114619131Y-71151795D01*
X114619129Y-71151795D01*
X114619129Y-71151796D01*
X114566868Y-71181969D01*
X114566867Y-71181969D01*
X114527809Y-71204518D01*
X114527804Y-71204522D01*
X112653236Y-73079091D01*
X112653233Y-73079095D01*
X112600512Y-73170410D01*
X112573218Y-73272272D01*
X112573218Y-77758650D01*
X112553256Y-77833150D01*
X112542428Y-77849355D01*
X112449181Y-77970877D01*
X112388672Y-78116960D01*
X112368036Y-78273715D01*
X112368036Y-78273720D01*
X112388672Y-78430475D01*
X112449181Y-78576558D01*
X112531758Y-78684174D01*
X112545436Y-78702000D01*
X112670877Y-78798254D01*
X112816956Y-78858762D01*
X112816959Y-78858762D01*
X112816961Y-78858763D01*
X112816958Y-78858763D01*
X112973715Y-78879400D01*
X112973718Y-78879400D01*
X112973721Y-78879400D01*
X113130475Y-78858763D01*
X113130476Y-78858762D01*
X113130480Y-78858762D01*
X113276559Y-78798254D01*
X113402000Y-78702000D01*
X113498254Y-78576559D01*
X113558762Y-78430480D01*
X113569371Y-78349901D01*
X113579400Y-78273720D01*
X113579400Y-78273715D01*
X113558763Y-78116960D01*
X113558762Y-78116958D01*
X113558762Y-78116956D01*
X113498254Y-77970877D01*
X113405008Y-77849355D01*
X113375493Y-77778097D01*
X113374218Y-77758650D01*
X113374218Y-73552613D01*
X113394180Y-73478113D01*
X113417859Y-73447254D01*
X114895970Y-71969143D01*
X114962765Y-71930579D01*
X115001329Y-71925502D01*
X116061059Y-71925502D01*
X116135559Y-71945464D01*
X116187220Y-71995228D01*
X116270184Y-72127264D01*
X116397738Y-72254818D01*
X116550478Y-72350791D01*
X116720745Y-72410370D01*
X116810372Y-72420468D01*
X116899999Y-72430567D01*
X116900000Y-72430567D01*
X116900001Y-72430567D01*
X116944813Y-72425517D01*
X117079255Y-72410370D01*
X117249522Y-72350791D01*
X117402262Y-72254818D01*
X117529816Y-72127264D01*
X117625789Y-71974524D01*
X117685368Y-71804257D01*
X117697900Y-71693017D01*
X117726077Y-71621223D01*
X117740597Y-71604349D01*
X118150807Y-71194141D01*
X118217602Y-71155577D01*
X118256166Y-71150500D01*
X121867388Y-71150500D01*
X121941888Y-71170462D01*
X121996426Y-71225000D01*
X122016388Y-71299500D01*
X121996426Y-71374000D01*
X121972745Y-71404861D01*
X121945007Y-71432598D01*
X121878211Y-71471161D01*
X121859099Y-71474962D01*
X121707241Y-71494954D01*
X121561159Y-71555463D01*
X121435718Y-71651717D01*
X121435717Y-71651718D01*
X121339463Y-71777159D01*
X121278954Y-71923242D01*
X121258318Y-72079997D01*
X121258318Y-72080002D01*
X121278954Y-72236757D01*
X121339463Y-72382840D01*
X121415870Y-72482415D01*
X121435718Y-72508282D01*
X121561159Y-72604536D01*
X121707238Y-72665044D01*
X121707241Y-72665044D01*
X121707243Y-72665045D01*
X121707240Y-72665045D01*
X121863997Y-72685682D01*
X121864000Y-72685682D01*
X121864003Y-72685682D01*
X122020757Y-72665045D01*
X122020758Y-72665044D01*
X122020762Y-72665044D01*
X122166841Y-72604536D01*
X122292282Y-72508282D01*
X122388536Y-72382841D01*
X122449044Y-72236762D01*
X122458446Y-72165351D01*
X122469037Y-72084899D01*
X122498552Y-72013642D01*
X122511395Y-71998996D01*
X123316252Y-71194141D01*
X123383047Y-71155577D01*
X123421611Y-71150500D01*
X142812836Y-71150500D01*
X142887336Y-71170462D01*
X142918195Y-71194141D01*
X143555859Y-71831804D01*
X143594423Y-71898599D01*
X143599500Y-71937163D01*
X143599500Y-72330500D01*
X143579538Y-72405000D01*
X143525000Y-72459538D01*
X143450501Y-72479500D01*
X143355132Y-72479500D01*
X143330010Y-72482414D01*
X143330007Y-72482415D01*
X143227235Y-72527793D01*
X143147794Y-72607234D01*
X143109511Y-72693937D01*
X143061157Y-72754026D01*
X142989237Y-72781887D01*
X142913022Y-72770056D01*
X142852933Y-72721702D01*
X142833602Y-72685822D01*
X142793354Y-72577915D01*
X142793349Y-72577905D01*
X142707190Y-72462812D01*
X142707187Y-72462809D01*
X142592094Y-72376650D01*
X142592084Y-72376645D01*
X142457376Y-72326401D01*
X142457378Y-72326401D01*
X142397842Y-72320001D01*
X142397823Y-72320000D01*
X141750000Y-72320000D01*
X141750000Y-73236988D01*
X141692993Y-73204075D01*
X141565826Y-73170000D01*
X141434174Y-73170000D01*
X141307007Y-73204075D01*
X141250000Y-73236988D01*
X141250000Y-72320000D01*
X140602177Y-72320000D01*
X140602157Y-72320001D01*
X140542622Y-72326401D01*
X140407915Y-72376645D01*
X140407905Y-72376650D01*
X140292812Y-72462809D01*
X140292809Y-72462812D01*
X140206650Y-72577905D01*
X140206645Y-72577915D01*
X140156401Y-72712622D01*
X140150001Y-72772157D01*
X140150000Y-72772177D01*
X140150000Y-73420000D01*
X141066988Y-73420000D01*
X141034075Y-73477007D01*
X141000000Y-73604174D01*
X141000000Y-73735826D01*
X141034075Y-73862993D01*
X141066988Y-73920000D01*
X140150000Y-73920000D01*
X140150000Y-74567822D01*
X140150001Y-74567842D01*
X140156401Y-74627377D01*
X140206645Y-74762084D01*
X140206650Y-74762094D01*
X140292809Y-74877187D01*
X140292812Y-74877190D01*
X140407905Y-74963349D01*
X140407909Y-74963351D01*
X140503538Y-74999019D01*
X140566365Y-75043758D01*
X140598405Y-75113916D01*
X140591074Y-75190695D01*
X140556827Y-75243983D01*
X140461894Y-75338916D01*
X140326402Y-75532419D01*
X140226568Y-75746512D01*
X140169364Y-75959999D01*
X140169364Y-75960000D01*
X141066988Y-75960000D01*
X141034075Y-76017007D01*
X141000000Y-76144174D01*
X141000000Y-76275826D01*
X141034075Y-76402993D01*
X141066988Y-76460000D01*
X140169364Y-76460000D01*
X140226568Y-76673489D01*
X140226569Y-76673491D01*
X140326400Y-76887579D01*
X140326406Y-76887588D01*
X140461888Y-77081076D01*
X140628923Y-77248111D01*
X140785784Y-77357947D01*
X140835361Y-77417030D01*
X140848754Y-77492987D01*
X140822374Y-77565463D01*
X140785784Y-77602053D01*
X140628923Y-77711888D01*
X140461891Y-77878920D01*
X140326402Y-78072419D01*
X140226568Y-78286512D01*
X140169364Y-78499999D01*
X140169364Y-78500000D01*
X141066988Y-78500000D01*
X141034075Y-78557007D01*
X141000000Y-78684174D01*
X141000000Y-78815826D01*
X141034075Y-78942993D01*
X141066988Y-79000000D01*
X140169364Y-79000000D01*
X140226568Y-79213489D01*
X140226569Y-79213491D01*
X140326400Y-79427579D01*
X140326406Y-79427588D01*
X140461888Y-79621076D01*
X140628923Y-79788111D01*
X140822411Y-79923593D01*
X140822420Y-79923599D01*
X141036508Y-80023430D01*
X141036513Y-80023432D01*
X141250000Y-80080634D01*
X141250000Y-79183012D01*
X141307007Y-79215925D01*
X141434174Y-79250000D01*
X141565826Y-79250000D01*
X141692993Y-79215925D01*
X141750000Y-79183012D01*
X141750000Y-80080633D01*
X141963486Y-80023432D01*
X141963491Y-80023430D01*
X142177579Y-79923599D01*
X142177588Y-79923593D01*
X142371076Y-79788111D01*
X142538111Y-79621076D01*
X142673593Y-79427588D01*
X142673599Y-79427579D01*
X142773430Y-79213491D01*
X142773431Y-79213489D01*
X142834568Y-78985321D01*
X142835698Y-78978918D01*
X142838265Y-78979370D01*
X142860440Y-78918388D01*
X142919508Y-78868792D01*
X142995461Y-78855376D01*
X143067945Y-78881733D01*
X143117541Y-78940801D01*
X143125832Y-78963037D01*
X143172593Y-79127385D01*
X143172594Y-79127387D01*
X143267636Y-79318259D01*
X143396127Y-79488406D01*
X143553697Y-79632051D01*
X143553698Y-79632052D01*
X143734977Y-79744296D01*
X143734983Y-79744299D01*
X143822189Y-79778082D01*
X143933802Y-79821321D01*
X144143390Y-79860500D01*
X144143393Y-79860500D01*
X144356608Y-79860500D01*
X144356610Y-79860500D01*
X144356612Y-79860499D01*
X144356617Y-79860499D01*
X144383828Y-79855412D01*
X144460728Y-79861343D01*
X144516569Y-79896515D01*
X146925331Y-82305277D01*
X147019584Y-82368254D01*
X147019587Y-82368257D01*
X147028359Y-82374117D01*
X147031873Y-82376465D01*
X147031875Y-82376466D01*
X147031874Y-82376466D01*
X147123436Y-82414391D01*
X147150256Y-82425501D01*
X147275931Y-82450500D01*
X149135931Y-82450500D01*
X149151679Y-82450500D01*
X149226179Y-82470462D01*
X149257038Y-82494141D01*
X151505859Y-84742962D01*
X151544423Y-84809757D01*
X151549500Y-84848321D01*
X151549500Y-92551397D01*
X151529538Y-92625897D01*
X151475000Y-92680435D01*
X151400500Y-92700397D01*
X151326000Y-92680435D01*
X151282291Y-92642103D01*
X151228284Y-92571720D01*
X151228281Y-92571717D01*
X151102840Y-92475463D01*
X151022944Y-92442369D01*
X150956762Y-92414956D01*
X150956760Y-92414955D01*
X150956756Y-92414954D01*
X150956759Y-92414954D01*
X150804899Y-92394962D01*
X150733641Y-92365447D01*
X150718988Y-92352596D01*
X148557006Y-90190614D01*
X146345913Y-87979520D01*
X146345910Y-87979518D01*
X146345906Y-87979515D01*
X146254591Y-87926794D01*
X146254588Y-87926793D01*
X146227295Y-87919480D01*
X146152729Y-87899500D01*
X146152727Y-87899500D01*
X138607493Y-87899500D01*
X138532993Y-87879538D01*
X138478455Y-87825000D01*
X138458493Y-87750500D01*
X138469834Y-87693482D01*
X138478232Y-87673207D01*
X138485044Y-87656762D01*
X138487848Y-87635468D01*
X138505682Y-87500002D01*
X138505682Y-87499997D01*
X138485045Y-87343242D01*
X138485044Y-87343240D01*
X138485044Y-87343238D01*
X138424536Y-87197159D01*
X138328282Y-87071718D01*
X138328279Y-87071715D01*
X138248794Y-87010724D01*
X138201842Y-86949535D01*
X138190500Y-86892515D01*
X138190500Y-78299499D01*
X138210462Y-78224999D01*
X138265000Y-78170461D01*
X138339500Y-78150499D01*
X138684867Y-78150499D01*
X138699940Y-78148750D01*
X138709991Y-78147585D01*
X138812765Y-78102206D01*
X138892206Y-78022765D01*
X138937585Y-77919991D01*
X138940500Y-77894865D01*
X138940499Y-76105136D01*
X138937585Y-76080009D01*
X138892206Y-75977235D01*
X138812765Y-75897794D01*
X138812764Y-75897793D01*
X138709994Y-75852416D01*
X138709991Y-75852415D01*
X138709982Y-75852414D01*
X138684865Y-75849500D01*
X138684859Y-75849500D01*
X136895133Y-75849500D01*
X136870010Y-75852414D01*
X136870007Y-75852415D01*
X136767235Y-75897793D01*
X136687793Y-75977235D01*
X136642416Y-76080005D01*
X136642415Y-76080008D01*
X136641929Y-76084196D01*
X136639500Y-76105135D01*
X136639500Y-76105136D01*
X136639500Y-76105140D01*
X136639500Y-76611364D01*
X136619538Y-76685864D01*
X136565000Y-76740402D01*
X136490500Y-76760364D01*
X136416000Y-76740402D01*
X136361462Y-76685864D01*
X136347188Y-76652140D01*
X136327406Y-76582614D01*
X136327405Y-76582612D01*
X136294738Y-76517007D01*
X136232366Y-76391745D01*
X136232364Y-76391743D01*
X136232363Y-76391740D01*
X136103872Y-76221593D01*
X135946302Y-76077948D01*
X135946301Y-76077947D01*
X135765022Y-75965703D01*
X135765016Y-75965700D01*
X135566204Y-75888681D01*
X135566200Y-75888680D01*
X135566198Y-75888679D01*
X135524280Y-75880843D01*
X135356614Y-75849500D01*
X135356610Y-75849500D01*
X135143390Y-75849500D01*
X135143385Y-75849500D01*
X134933802Y-75888679D01*
X134933795Y-75888681D01*
X134734983Y-75965700D01*
X134734976Y-75965704D01*
X134727933Y-75970065D01*
X134654082Y-75992309D01*
X134579004Y-75974647D01*
X134522814Y-75921812D01*
X134500570Y-75847961D01*
X134500500Y-75843379D01*
X134500500Y-75627610D01*
X134520462Y-75553110D01*
X134544141Y-75522251D01*
X134700289Y-75366102D01*
X134767082Y-75327540D01*
X134844210Y-75327540D01*
X134859463Y-75332522D01*
X134933802Y-75361321D01*
X135143390Y-75400500D01*
X135143393Y-75400500D01*
X135356607Y-75400500D01*
X135356610Y-75400500D01*
X135566198Y-75361321D01*
X135765019Y-75284298D01*
X135946302Y-75172052D01*
X136103872Y-75028407D01*
X136232366Y-74858255D01*
X136327405Y-74667389D01*
X136347188Y-74597857D01*
X136386775Y-74531665D01*
X136454155Y-74494134D01*
X136531274Y-74495321D01*
X136597468Y-74534908D01*
X136634999Y-74602288D01*
X136639500Y-74638633D01*
X136639500Y-75144866D01*
X136642414Y-75169989D01*
X136642415Y-75169992D01*
X136687793Y-75272764D01*
X136687794Y-75272765D01*
X136767235Y-75352206D01*
X136870009Y-75397585D01*
X136895135Y-75400500D01*
X138684864Y-75400499D01*
X138684866Y-75400499D01*
X138697427Y-75399042D01*
X138709991Y-75397585D01*
X138812765Y-75352206D01*
X138892206Y-75272765D01*
X138937585Y-75169991D01*
X138940500Y-75144865D01*
X138940499Y-73355136D01*
X138937585Y-73330009D01*
X138892206Y-73227235D01*
X138812765Y-73147794D01*
X138812764Y-73147793D01*
X138709994Y-73102416D01*
X138709991Y-73102415D01*
X138709982Y-73102414D01*
X138684865Y-73099500D01*
X138684859Y-73099500D01*
X136895133Y-73099500D01*
X136870010Y-73102414D01*
X136870007Y-73102415D01*
X136767235Y-73147793D01*
X136687793Y-73227235D01*
X136642416Y-73330005D01*
X136642415Y-73330008D01*
X136642415Y-73330009D01*
X136639500Y-73355135D01*
X136639500Y-73355136D01*
X136639500Y-73355140D01*
X136639500Y-73861364D01*
X136619538Y-73935864D01*
X136565000Y-73990402D01*
X136490500Y-74010364D01*
X136416000Y-73990402D01*
X136361462Y-73935864D01*
X136347188Y-73902140D01*
X136327406Y-73832614D01*
X136327405Y-73832612D01*
X136327405Y-73832611D01*
X136232366Y-73641745D01*
X136232364Y-73641743D01*
X136232363Y-73641740D01*
X136103872Y-73471593D01*
X135946302Y-73327948D01*
X135946301Y-73327947D01*
X135765022Y-73215703D01*
X135765016Y-73215700D01*
X135566204Y-73138681D01*
X135566200Y-73138680D01*
X135566198Y-73138679D01*
X135524280Y-73130843D01*
X135356614Y-73099500D01*
X135356610Y-73099500D01*
X135143390Y-73099500D01*
X135143385Y-73099500D01*
X134933802Y-73138679D01*
X134933795Y-73138681D01*
X134734983Y-73215700D01*
X134734977Y-73215703D01*
X134553698Y-73327947D01*
X134553697Y-73327948D01*
X134396127Y-73471593D01*
X134267636Y-73641740D01*
X134172594Y-73832612D01*
X134172593Y-73832614D01*
X134123312Y-74005820D01*
X134083724Y-74072013D01*
X134016343Y-74109544D01*
X133939224Y-74108356D01*
X133873031Y-74068768D01*
X133836688Y-74005820D01*
X133834106Y-73996747D01*
X133787405Y-73832611D01*
X133692366Y-73641745D01*
X133692364Y-73641743D01*
X133692363Y-73641740D01*
X133563872Y-73471593D01*
X133406302Y-73327948D01*
X133406301Y-73327947D01*
X133225022Y-73215703D01*
X133225016Y-73215700D01*
X133026204Y-73138681D01*
X133026200Y-73138680D01*
X133026198Y-73138679D01*
X132984280Y-73130843D01*
X132816614Y-73099500D01*
X132816610Y-73099500D01*
X132603390Y-73099500D01*
X132603385Y-73099500D01*
X132393802Y-73138679D01*
X132393795Y-73138681D01*
X132194983Y-73215700D01*
X132194977Y-73215703D01*
X132013698Y-73327947D01*
X132013697Y-73327948D01*
X131856127Y-73471593D01*
X131727636Y-73641740D01*
X131632594Y-73832612D01*
X131632593Y-73832614D01*
X131583312Y-74005820D01*
X131543724Y-74072013D01*
X131476343Y-74109544D01*
X131399224Y-74108356D01*
X131333031Y-74068768D01*
X131296688Y-74005820D01*
X131294106Y-73996747D01*
X131247405Y-73832611D01*
X131152366Y-73641745D01*
X131152364Y-73641743D01*
X131152363Y-73641740D01*
X131023872Y-73471593D01*
X130866302Y-73327948D01*
X130866301Y-73327947D01*
X130685022Y-73215703D01*
X130685016Y-73215700D01*
X130486204Y-73138681D01*
X130486200Y-73138680D01*
X130486198Y-73138679D01*
X130444280Y-73130843D01*
X130276614Y-73099500D01*
X130276610Y-73099500D01*
X130063390Y-73099500D01*
X130063385Y-73099500D01*
X129853802Y-73138679D01*
X129853795Y-73138681D01*
X129654983Y-73215700D01*
X129654977Y-73215703D01*
X129473698Y-73327947D01*
X129473697Y-73327948D01*
X129316127Y-73471593D01*
X129187636Y-73641740D01*
X129092594Y-73832612D01*
X129092593Y-73832614D01*
X129034243Y-74037694D01*
X129014571Y-74249995D01*
X129014571Y-74250004D01*
X129034243Y-74462305D01*
X129089369Y-74656054D01*
X129090557Y-74733173D01*
X129053026Y-74800554D01*
X129051416Y-74802189D01*
X116079518Y-87774089D01*
X116079515Y-87774093D01*
X116026793Y-87865410D01*
X116021011Y-87886990D01*
X116017660Y-87899500D01*
X116016004Y-87905680D01*
X116016003Y-87905683D01*
X115999500Y-87967270D01*
X115999500Y-89368872D01*
X115979538Y-89443372D01*
X115925000Y-89497910D01*
X115850500Y-89517872D01*
X115776000Y-89497910D01*
X115772062Y-89495555D01*
X115648377Y-89418973D01*
X115602637Y-89390652D01*
X115602635Y-89390651D01*
X115602632Y-89390649D01*
X115412462Y-89316978D01*
X115412458Y-89316977D01*
X115412456Y-89316976D01*
X115358848Y-89306955D01*
X115211980Y-89279500D01*
X115211976Y-89279500D01*
X115008024Y-89279500D01*
X115008019Y-89279500D01*
X114807544Y-89316976D01*
X114807537Y-89316978D01*
X114617367Y-89390649D01*
X114617356Y-89390655D01*
X114443963Y-89498015D01*
X114443958Y-89498019D01*
X114293234Y-89635423D01*
X114170328Y-89798176D01*
X114079416Y-89980754D01*
X114023602Y-90176921D01*
X114004785Y-90379995D01*
X114004785Y-90380004D01*
X114023602Y-90583078D01*
X114023602Y-90583080D01*
X114023603Y-90583083D01*
X114035530Y-90625000D01*
X114079416Y-90779246D01*
X114079417Y-90779248D01*
X114141456Y-90903840D01*
X114156793Y-90979427D01*
X114132282Y-91052557D01*
X114074490Y-91103634D01*
X113998903Y-91118971D01*
X113925773Y-91094460D01*
X113902717Y-91075613D01*
X113663776Y-90836672D01*
X113625212Y-90769877D01*
X113625212Y-90692749D01*
X113625823Y-90690536D01*
X113627026Y-90686308D01*
X113656397Y-90583083D01*
X113657103Y-90575463D01*
X113675215Y-90380004D01*
X113675215Y-90379995D01*
X113658909Y-90204025D01*
X113656397Y-90176917D01*
X113600582Y-89980750D01*
X113509673Y-89798179D01*
X113386764Y-89635421D01*
X113236041Y-89498019D01*
X113236036Y-89498015D01*
X113062643Y-89390655D01*
X113062632Y-89390649D01*
X112872462Y-89316978D01*
X112872458Y-89316977D01*
X112872456Y-89316976D01*
X112818848Y-89306955D01*
X112671980Y-89279500D01*
X112671976Y-89279500D01*
X112468024Y-89279500D01*
X112468019Y-89279500D01*
X112267544Y-89316976D01*
X112267537Y-89316978D01*
X112077367Y-89390649D01*
X112077356Y-89390655D01*
X111903963Y-89498015D01*
X111903958Y-89498019D01*
X111753234Y-89635423D01*
X111630325Y-89798180D01*
X111538964Y-89981661D01*
X111487888Y-90039453D01*
X111414758Y-90063963D01*
X111339170Y-90048625D01*
X111281378Y-89997549D01*
X111261662Y-89953810D01*
X111256267Y-89933676D01*
X111256266Y-89933674D01*
X111160132Y-89727515D01*
X111160129Y-89727509D01*
X111109025Y-89654526D01*
X110553787Y-90209764D01*
X110542518Y-90167708D01*
X110470110Y-90042292D01*
X110367708Y-89939890D01*
X110242292Y-89867482D01*
X110200232Y-89856212D01*
X110755472Y-89300973D01*
X110682492Y-89249872D01*
X110682483Y-89249866D01*
X110476325Y-89153733D01*
X110476323Y-89153732D01*
X110256605Y-89094859D01*
X110256606Y-89094859D01*
X110030000Y-89075034D01*
X109803393Y-89094859D01*
X109583676Y-89153732D01*
X109583674Y-89153733D01*
X109377522Y-89249862D01*
X109377517Y-89249865D01*
X109304527Y-89300974D01*
X109859765Y-89856212D01*
X109817708Y-89867482D01*
X109692292Y-89939890D01*
X109589890Y-90042292D01*
X109517482Y-90167708D01*
X109506212Y-90209765D01*
X108950973Y-89654527D01*
X108899865Y-89727517D01*
X108899862Y-89727522D01*
X108803733Y-89933674D01*
X108803733Y-89933675D01*
X108798336Y-89953815D01*
X108759769Y-90020609D01*
X108692973Y-90059170D01*
X108615845Y-90059168D01*
X108549051Y-90020601D01*
X108521034Y-89981660D01*
X108520583Y-89980754D01*
X108520582Y-89980750D01*
X108429673Y-89798179D01*
X108306764Y-89635421D01*
X108156041Y-89498019D01*
X108156036Y-89498015D01*
X107982643Y-89390655D01*
X107982632Y-89390649D01*
X107792462Y-89316978D01*
X107792458Y-89316977D01*
X107792456Y-89316976D01*
X107738848Y-89306955D01*
X107591980Y-89279500D01*
X107591976Y-89279500D01*
X107388024Y-89279500D01*
X107388019Y-89279500D01*
X107187544Y-89316976D01*
X107187537Y-89316978D01*
X106997367Y-89390649D01*
X106997356Y-89390655D01*
X106823963Y-89498015D01*
X106823958Y-89498019D01*
X106673234Y-89635423D01*
X106550328Y-89798176D01*
X106459416Y-89980754D01*
X106403602Y-90176921D01*
X106384785Y-90379995D01*
X106384785Y-90380004D01*
X106403602Y-90583078D01*
X106403602Y-90583080D01*
X106403603Y-90583083D01*
X106415530Y-90625000D01*
X106459416Y-90779245D01*
X106459417Y-90779247D01*
X106459418Y-90779250D01*
X106519655Y-90900223D01*
X106550328Y-90961823D01*
X106618976Y-91052727D01*
X106673236Y-91124579D01*
X106811365Y-91250500D01*
X106823958Y-91261980D01*
X106823963Y-91261984D01*
X106997356Y-91369344D01*
X106997367Y-91369350D01*
X107083816Y-91402840D01*
X107187544Y-91443024D01*
X107388024Y-91480500D01*
X107388027Y-91480500D01*
X107591973Y-91480500D01*
X107591976Y-91480500D01*
X107792456Y-91443024D01*
X107982637Y-91369348D01*
X108156041Y-91261981D01*
X108306764Y-91124579D01*
X108429673Y-90961821D01*
X108520582Y-90779250D01*
X108520584Y-90779242D01*
X108521034Y-90778339D01*
X108572111Y-90720547D01*
X108645240Y-90696036D01*
X108720828Y-90711373D01*
X108778620Y-90762450D01*
X108798336Y-90806185D01*
X108803732Y-90826322D01*
X108803733Y-90826325D01*
X108899866Y-91032483D01*
X108899872Y-91032492D01*
X108950973Y-91105471D01*
X109506212Y-90550232D01*
X109517482Y-90592292D01*
X109589890Y-90717708D01*
X109692292Y-90820110D01*
X109817708Y-90892518D01*
X109859765Y-90903787D01*
X109304526Y-91459025D01*
X109377509Y-91510129D01*
X109377515Y-91510132D01*
X109583674Y-91606266D01*
X109583681Y-91606268D01*
X109610636Y-91613491D01*
X109677431Y-91652054D01*
X109715996Y-91718848D01*
X109715997Y-91795976D01*
X109677434Y-91862771D01*
X109625900Y-91896352D01*
X109537364Y-91930651D01*
X109537356Y-91930655D01*
X109363963Y-92038015D01*
X109363958Y-92038019D01*
X109213234Y-92175423D01*
X109090328Y-92338176D01*
X108999416Y-92520754D01*
X108943602Y-92716921D01*
X108924785Y-92919995D01*
X108924785Y-92920004D01*
X108943602Y-93123078D01*
X108999416Y-93319245D01*
X109090328Y-93501823D01*
X109149627Y-93580347D01*
X109213236Y-93664579D01*
X109348977Y-93788323D01*
X109363958Y-93801980D01*
X109363963Y-93801984D01*
X109537356Y-93909344D01*
X109537367Y-93909350D01*
X109653332Y-93954274D01*
X109727544Y-93983024D01*
X109928024Y-94020500D01*
X109928027Y-94020500D01*
X110131973Y-94020500D01*
X110131976Y-94020500D01*
X110332456Y-93983024D01*
X110522637Y-93909348D01*
X110696041Y-93801981D01*
X110846764Y-93664579D01*
X110969673Y-93501821D01*
X111060582Y-93319250D01*
X111116397Y-93123083D01*
X111135215Y-92920000D01*
X111116397Y-92716917D01*
X111060582Y-92520750D01*
X110969673Y-92338179D01*
X110846764Y-92175421D01*
X110696041Y-92038019D01*
X110696036Y-92038015D01*
X110522643Y-91930655D01*
X110522631Y-91930649D01*
X110434100Y-91896352D01*
X110371842Y-91850825D01*
X110340688Y-91780269D01*
X110348987Y-91703589D01*
X110394514Y-91641331D01*
X110449364Y-91613490D01*
X110476326Y-91606266D01*
X110682478Y-91510136D01*
X110682484Y-91510132D01*
X110755471Y-91459024D01*
X110200234Y-90903787D01*
X110242292Y-90892518D01*
X110367708Y-90820110D01*
X110470110Y-90717708D01*
X110542518Y-90592292D01*
X110553787Y-90550234D01*
X111109024Y-91105471D01*
X111160132Y-91032484D01*
X111160136Y-91032478D01*
X111256266Y-90826325D01*
X111256268Y-90826321D01*
X111261662Y-90806190D01*
X111300225Y-90739395D01*
X111367020Y-90700830D01*
X111444148Y-90700830D01*
X111510943Y-90739393D01*
X111538965Y-90778339D01*
X111539417Y-90779246D01*
X111539418Y-90779250D01*
X111630327Y-90961821D01*
X111753236Y-91124579D01*
X111891365Y-91250500D01*
X111903958Y-91261980D01*
X111903963Y-91261984D01*
X112077356Y-91369344D01*
X112077367Y-91369350D01*
X112163816Y-91402840D01*
X112267544Y-91443024D01*
X112468024Y-91480500D01*
X112468027Y-91480500D01*
X112671973Y-91480500D01*
X112671976Y-91480500D01*
X112872456Y-91443024D01*
X112872459Y-91443022D01*
X112872463Y-91443022D01*
X112879087Y-91441138D01*
X112879528Y-91442691D01*
X112947581Y-91435321D01*
X113018140Y-91466469D01*
X113030097Y-91477201D01*
X114113386Y-92560490D01*
X114216113Y-92619799D01*
X114240317Y-92626283D01*
X114240324Y-92626287D01*
X114240325Y-92626286D01*
X114264539Y-92632774D01*
X114330691Y-92650500D01*
X116151679Y-92650500D01*
X116226179Y-92670462D01*
X116257038Y-92694141D01*
X127828038Y-104265141D01*
X127866602Y-104331936D01*
X127866602Y-104409064D01*
X127828038Y-104475859D01*
X127761243Y-104514423D01*
X127722679Y-104519500D01*
X127708019Y-104519500D01*
X127507544Y-104556976D01*
X127507537Y-104556978D01*
X127317367Y-104630649D01*
X127317356Y-104630655D01*
X127143963Y-104738015D01*
X127143958Y-104738019D01*
X126993234Y-104875423D01*
X126870328Y-105038176D01*
X126779416Y-105220754D01*
X126723602Y-105416921D01*
X126704785Y-105619995D01*
X126704785Y-105620004D01*
X126723602Y-105823078D01*
X126723602Y-105823080D01*
X126723603Y-105823083D01*
X126730296Y-105846606D01*
X126779416Y-106019245D01*
X126779417Y-106019247D01*
X126779418Y-106019250D01*
X126849619Y-106160234D01*
X126870328Y-106201823D01*
X126923688Y-106272483D01*
X126993236Y-106364579D01*
X127094464Y-106456860D01*
X127143958Y-106501980D01*
X127143963Y-106501984D01*
X127317356Y-106609344D01*
X127317367Y-106609350D01*
X127433332Y-106654274D01*
X127507544Y-106683024D01*
X127708024Y-106720500D01*
X127708027Y-106720500D01*
X127911973Y-106720500D01*
X127911976Y-106720500D01*
X128112456Y-106683024D01*
X128302637Y-106609348D01*
X128476041Y-106501981D01*
X128507668Y-106473148D01*
X128576170Y-106437711D01*
X128653216Y-106441272D01*
X128718159Y-106482879D01*
X128737084Y-106508757D01*
X128739508Y-106512956D01*
X128739509Y-106512957D01*
X128739511Y-106512960D01*
X129987040Y-107760489D01*
X130046350Y-107794731D01*
X130089768Y-107819799D01*
X130204345Y-107850500D01*
X133567679Y-107850500D01*
X133642179Y-107870462D01*
X133673038Y-107894141D01*
X136257502Y-110478605D01*
X136296066Y-110545400D01*
X136299007Y-110590235D01*
X136300318Y-110590235D01*
X136300318Y-110600002D01*
X136320954Y-110756757D01*
X136381463Y-110902840D01*
X136425166Y-110959795D01*
X136454681Y-111031052D01*
X136444614Y-111107521D01*
X136397661Y-111168710D01*
X136326404Y-111198225D01*
X136306956Y-111199500D01*
X131425270Y-111199500D01*
X131323408Y-111226794D01*
X131232093Y-111279515D01*
X131232089Y-111279518D01*
X130383009Y-112128596D01*
X130316214Y-112167160D01*
X130297099Y-112170962D01*
X130145241Y-112190954D01*
X129999159Y-112251463D01*
X129873718Y-112347717D01*
X129873715Y-112347720D01*
X129848148Y-112381039D01*
X129786957Y-112427990D01*
X129710489Y-112438055D01*
X129639232Y-112408537D01*
X129624582Y-112395689D01*
X127483752Y-110254859D01*
X127445188Y-110188064D01*
X127445188Y-110110936D01*
X127483752Y-110044141D01*
X127550547Y-110005577D01*
X127589111Y-110000500D01*
X133184933Y-110000500D01*
X133259433Y-110020462D01*
X133275638Y-110031290D01*
X133397159Y-110124536D01*
X133543238Y-110185044D01*
X133543241Y-110185044D01*
X133543243Y-110185045D01*
X133543240Y-110185045D01*
X133699997Y-110205682D01*
X133700000Y-110205682D01*
X133700003Y-110205682D01*
X133856757Y-110185045D01*
X133856758Y-110185044D01*
X133856762Y-110185044D01*
X134002841Y-110124536D01*
X134128282Y-110028282D01*
X134224536Y-109902841D01*
X134285044Y-109756762D01*
X134289579Y-109722320D01*
X134305682Y-109600002D01*
X134305682Y-109599997D01*
X134285045Y-109443242D01*
X134285044Y-109443240D01*
X134285044Y-109443238D01*
X134224536Y-109297159D01*
X134128282Y-109171718D01*
X134118885Y-109164507D01*
X134002840Y-109075463D01*
X133922944Y-109042369D01*
X133856762Y-109014956D01*
X133856760Y-109014955D01*
X133856756Y-109014954D01*
X133856759Y-109014954D01*
X133700003Y-108994318D01*
X133699997Y-108994318D01*
X133543242Y-109014954D01*
X133397159Y-109075463D01*
X133275638Y-109168710D01*
X133204381Y-109198225D01*
X133184933Y-109199500D01*
X127627611Y-109199500D01*
X127553111Y-109179538D01*
X127522252Y-109155859D01*
X126047403Y-107681010D01*
X126008839Y-107614215D01*
X126005037Y-107595099D01*
X125985045Y-107443240D01*
X125985044Y-107443238D01*
X125924536Y-107297159D01*
X125828282Y-107171718D01*
X125828281Y-107171717D01*
X125702840Y-107075463D01*
X125585341Y-107026794D01*
X125556762Y-107014956D01*
X125556760Y-107014955D01*
X125556756Y-107014954D01*
X125556759Y-107014954D01*
X125452151Y-107001183D01*
X125380894Y-106971668D01*
X125344668Y-106924457D01*
X125339432Y-106944000D01*
X125284894Y-106998538D01*
X125248965Y-107013421D01*
X125243242Y-107014954D01*
X125097159Y-107075463D01*
X124971718Y-107171717D01*
X124971717Y-107171718D01*
X124875462Y-107297160D01*
X124875461Y-107297162D01*
X124858458Y-107338212D01*
X124811505Y-107399402D01*
X124740248Y-107428917D01*
X124663780Y-107418848D01*
X124615445Y-107386552D01*
X124308413Y-107079520D01*
X124308410Y-107079518D01*
X124308406Y-107079515D01*
X124217091Y-107026794D01*
X124217088Y-107026793D01*
X124172911Y-107014956D01*
X124115229Y-106999500D01*
X124115227Y-106999500D01*
X122947424Y-106999500D01*
X122872924Y-106979538D01*
X122818386Y-106925000D01*
X122798424Y-106850500D01*
X122818386Y-106776000D01*
X122872924Y-106721462D01*
X122920044Y-106704037D01*
X123032456Y-106683024D01*
X123222637Y-106609348D01*
X123396041Y-106501981D01*
X123546764Y-106364579D01*
X123669673Y-106201821D01*
X123760582Y-106019250D01*
X123816397Y-105823083D01*
X123826851Y-105710259D01*
X123835215Y-105620004D01*
X123835215Y-105619995D01*
X124164785Y-105619995D01*
X124164785Y-105620004D01*
X124183602Y-105823078D01*
X124183602Y-105823080D01*
X124183603Y-105823083D01*
X124190296Y-105846606D01*
X124239416Y-106019245D01*
X124239417Y-106019247D01*
X124239418Y-106019250D01*
X124309619Y-106160234D01*
X124330328Y-106201823D01*
X124383688Y-106272483D01*
X124453236Y-106364579D01*
X124554464Y-106456860D01*
X124603958Y-106501980D01*
X124603963Y-106501984D01*
X124777356Y-106609344D01*
X124777367Y-106609350D01*
X124893332Y-106654274D01*
X124967544Y-106683024D01*
X125168024Y-106720500D01*
X125168027Y-106720500D01*
X125210394Y-106720500D01*
X125284894Y-106740462D01*
X125339432Y-106795000D01*
X125339667Y-106795879D01*
X125353389Y-106762753D01*
X125414579Y-106715800D01*
X125444219Y-106706995D01*
X125572456Y-106683024D01*
X125762637Y-106609348D01*
X125936041Y-106501981D01*
X126086764Y-106364579D01*
X126209673Y-106201821D01*
X126300582Y-106019250D01*
X126356397Y-105823083D01*
X126366851Y-105710259D01*
X126375215Y-105620004D01*
X126375215Y-105619995D01*
X126360878Y-105465281D01*
X126356397Y-105416917D01*
X126300582Y-105220750D01*
X126209673Y-105038179D01*
X126086764Y-104875421D01*
X125936041Y-104738019D01*
X125936036Y-104738015D01*
X125762643Y-104630655D01*
X125762632Y-104630649D01*
X125572462Y-104556978D01*
X125572458Y-104556977D01*
X125572456Y-104556976D01*
X125532360Y-104549480D01*
X125371980Y-104519500D01*
X125371976Y-104519500D01*
X125168024Y-104519500D01*
X125168019Y-104519500D01*
X124967544Y-104556976D01*
X124967537Y-104556978D01*
X124777367Y-104630649D01*
X124777356Y-104630655D01*
X124603963Y-104738015D01*
X124603958Y-104738019D01*
X124453234Y-104875423D01*
X124330328Y-105038176D01*
X124239416Y-105220754D01*
X124183602Y-105416921D01*
X124164785Y-105619995D01*
X123835215Y-105619995D01*
X123820878Y-105465281D01*
X123816397Y-105416917D01*
X123760582Y-105220750D01*
X123669673Y-105038179D01*
X123546764Y-104875421D01*
X123396041Y-104738019D01*
X123396036Y-104738015D01*
X123222643Y-104630655D01*
X123222632Y-104630649D01*
X123032462Y-104556978D01*
X123032458Y-104556977D01*
X123032456Y-104556976D01*
X122992360Y-104549480D01*
X122831980Y-104519500D01*
X122831976Y-104519500D01*
X122628024Y-104519500D01*
X122628019Y-104519500D01*
X122427544Y-104556976D01*
X122427537Y-104556978D01*
X122237367Y-104630649D01*
X122237356Y-104630655D01*
X122063963Y-104738015D01*
X122063958Y-104738019D01*
X121913234Y-104875423D01*
X121790328Y-105038176D01*
X121699416Y-105220754D01*
X121643602Y-105416921D01*
X121624785Y-105619995D01*
X121624785Y-105620004D01*
X121643602Y-105823078D01*
X121643602Y-105823080D01*
X121643603Y-105823083D01*
X121650296Y-105846606D01*
X121699416Y-106019245D01*
X121699417Y-106019247D01*
X121699418Y-106019250D01*
X121769619Y-106160234D01*
X121790328Y-106201823D01*
X121843688Y-106272483D01*
X121913236Y-106364579D01*
X122014464Y-106456860D01*
X122063958Y-106501980D01*
X122063963Y-106501984D01*
X122237356Y-106609344D01*
X122237367Y-106609350D01*
X122353332Y-106654274D01*
X122427544Y-106683024D01*
X122539955Y-106704037D01*
X122609518Y-106737349D01*
X122653106Y-106800979D01*
X122659039Y-106877879D01*
X122625727Y-106947442D01*
X122562097Y-106991030D01*
X122512576Y-106999500D01*
X120407424Y-106999500D01*
X120332924Y-106979538D01*
X120278386Y-106925000D01*
X120258424Y-106850500D01*
X120278386Y-106776000D01*
X120332924Y-106721462D01*
X120380044Y-106704037D01*
X120492456Y-106683024D01*
X120682637Y-106609348D01*
X120856041Y-106501981D01*
X121006764Y-106364579D01*
X121129673Y-106201821D01*
X121220582Y-106019250D01*
X121276397Y-105823083D01*
X121286851Y-105710259D01*
X121295215Y-105620004D01*
X121295215Y-105619995D01*
X121280878Y-105465281D01*
X121276397Y-105416917D01*
X121220582Y-105220750D01*
X121129673Y-105038179D01*
X121006764Y-104875421D01*
X120856041Y-104738019D01*
X120856036Y-104738015D01*
X120682643Y-104630655D01*
X120682632Y-104630649D01*
X120492462Y-104556978D01*
X120492458Y-104556977D01*
X120492456Y-104556976D01*
X120452360Y-104549480D01*
X120291980Y-104519500D01*
X120291976Y-104519500D01*
X120088024Y-104519500D01*
X120088019Y-104519500D01*
X119887544Y-104556976D01*
X119887537Y-104556978D01*
X119697367Y-104630649D01*
X119697356Y-104630655D01*
X119523963Y-104738015D01*
X119523958Y-104738019D01*
X119373234Y-104875423D01*
X119250328Y-105038176D01*
X119159416Y-105220754D01*
X119103602Y-105416921D01*
X119084785Y-105619995D01*
X119084785Y-105620004D01*
X119103602Y-105823078D01*
X119103602Y-105823080D01*
X119103603Y-105823083D01*
X119110296Y-105846606D01*
X119159416Y-106019245D01*
X119159417Y-106019247D01*
X119159418Y-106019250D01*
X119229619Y-106160234D01*
X119250328Y-106201823D01*
X119303688Y-106272483D01*
X119373236Y-106364579D01*
X119474464Y-106456860D01*
X119523958Y-106501980D01*
X119523963Y-106501984D01*
X119697356Y-106609344D01*
X119697367Y-106609350D01*
X119813332Y-106654274D01*
X119887544Y-106683024D01*
X119999955Y-106704037D01*
X120069518Y-106737349D01*
X120113106Y-106800979D01*
X120119039Y-106877879D01*
X120085727Y-106947442D01*
X120022097Y-106991030D01*
X119972576Y-106999500D01*
X117867424Y-106999500D01*
X117792924Y-106979538D01*
X117738386Y-106925000D01*
X117718424Y-106850500D01*
X117738386Y-106776000D01*
X117792924Y-106721462D01*
X117840044Y-106704037D01*
X117952456Y-106683024D01*
X118142637Y-106609348D01*
X118316041Y-106501981D01*
X118466764Y-106364579D01*
X118589673Y-106201821D01*
X118680582Y-106019250D01*
X118736397Y-105823083D01*
X118746851Y-105710259D01*
X118755215Y-105620004D01*
X118755215Y-105619995D01*
X118740878Y-105465281D01*
X118736397Y-105416917D01*
X118680582Y-105220750D01*
X118589673Y-105038179D01*
X118466764Y-104875421D01*
X118316041Y-104738019D01*
X118316036Y-104738015D01*
X118142643Y-104630655D01*
X118142632Y-104630649D01*
X117952462Y-104556978D01*
X117952458Y-104556977D01*
X117952456Y-104556976D01*
X117912360Y-104549480D01*
X117751980Y-104519500D01*
X117751976Y-104519500D01*
X117548024Y-104519500D01*
X117548019Y-104519500D01*
X117347544Y-104556976D01*
X117347537Y-104556978D01*
X117157367Y-104630649D01*
X117157356Y-104630655D01*
X116983963Y-104738015D01*
X116983958Y-104738019D01*
X116833234Y-104875423D01*
X116710328Y-105038176D01*
X116619416Y-105220754D01*
X116563602Y-105416921D01*
X116544785Y-105619995D01*
X116544785Y-105620004D01*
X116563602Y-105823078D01*
X116563602Y-105823080D01*
X116563603Y-105823083D01*
X116570296Y-105846606D01*
X116619416Y-106019245D01*
X116619417Y-106019247D01*
X116619418Y-106019250D01*
X116689619Y-106160234D01*
X116710328Y-106201823D01*
X116763688Y-106272483D01*
X116833236Y-106364579D01*
X116934464Y-106456860D01*
X116983958Y-106501980D01*
X116983963Y-106501984D01*
X117157356Y-106609344D01*
X117157367Y-106609350D01*
X117273332Y-106654274D01*
X117347544Y-106683024D01*
X117459955Y-106704037D01*
X117529518Y-106737349D01*
X117573106Y-106800979D01*
X117579039Y-106877879D01*
X117545727Y-106947442D01*
X117482097Y-106991030D01*
X117432576Y-106999500D01*
X116827611Y-106999500D01*
X116753111Y-106979538D01*
X116722252Y-106955859D01*
X116098401Y-106332008D01*
X116059837Y-106265213D01*
X116059837Y-106188085D01*
X116070377Y-106160240D01*
X116140582Y-106019250D01*
X116196397Y-105823083D01*
X116206851Y-105710259D01*
X116215215Y-105620004D01*
X116215215Y-105619995D01*
X116200878Y-105465281D01*
X116196397Y-105416917D01*
X116140582Y-105220750D01*
X116049673Y-105038179D01*
X115926764Y-104875421D01*
X115776041Y-104738019D01*
X115776036Y-104738015D01*
X115602643Y-104630655D01*
X115602632Y-104630649D01*
X115412462Y-104556978D01*
X115412458Y-104556977D01*
X115412456Y-104556976D01*
X115372360Y-104549480D01*
X115211980Y-104519500D01*
X115211976Y-104519500D01*
X115008024Y-104519500D01*
X115008019Y-104519500D01*
X114807544Y-104556976D01*
X114807537Y-104556978D01*
X114617367Y-104630649D01*
X114617356Y-104630655D01*
X114443963Y-104738015D01*
X114443958Y-104738019D01*
X114293234Y-104875423D01*
X114170328Y-105038176D01*
X114079416Y-105220754D01*
X114023602Y-105416921D01*
X114004785Y-105619995D01*
X114004785Y-105620004D01*
X114023602Y-105823078D01*
X114023602Y-105823080D01*
X114023603Y-105823083D01*
X114030296Y-105846606D01*
X114079416Y-106019245D01*
X114079417Y-106019247D01*
X114079418Y-106019250D01*
X114149619Y-106160234D01*
X114170328Y-106201823D01*
X114271180Y-106335372D01*
X114300146Y-106406854D01*
X114297887Y-106423049D01*
X114332647Y-106423049D01*
X114394464Y-106456860D01*
X114443958Y-106501980D01*
X114443963Y-106501984D01*
X114617356Y-106609344D01*
X114617367Y-106609350D01*
X114733332Y-106654274D01*
X114807544Y-106683024D01*
X115008024Y-106720500D01*
X115008027Y-106720500D01*
X115211974Y-106720500D01*
X115211976Y-106720500D01*
X115254519Y-106712547D01*
X115331419Y-106718480D01*
X115387258Y-106753651D01*
X115978748Y-107345141D01*
X116017312Y-107411936D01*
X116017312Y-107489064D01*
X115978748Y-107555859D01*
X115911953Y-107594423D01*
X115873389Y-107599500D01*
X115177611Y-107599500D01*
X115103111Y-107579538D01*
X115072252Y-107555859D01*
X114188724Y-106672331D01*
X114150160Y-106605536D01*
X114150160Y-106570185D01*
X114094197Y-106562379D01*
X114046916Y-106530523D01*
X113648113Y-106131720D01*
X113609549Y-106064925D01*
X113609549Y-105987797D01*
X113610129Y-105985692D01*
X113656397Y-105823083D01*
X113656397Y-105823079D01*
X113656398Y-105823077D01*
X113675215Y-105620004D01*
X113675215Y-105619995D01*
X113660878Y-105465281D01*
X113656397Y-105416917D01*
X113600582Y-105220750D01*
X113509673Y-105038179D01*
X113386764Y-104875421D01*
X113236041Y-104738019D01*
X113236036Y-104738015D01*
X113062643Y-104630655D01*
X113062632Y-104630649D01*
X112872462Y-104556978D01*
X112872458Y-104556977D01*
X112872456Y-104556976D01*
X112832360Y-104549480D01*
X112671980Y-104519500D01*
X112671976Y-104519500D01*
X112468024Y-104519500D01*
X112468019Y-104519500D01*
X112267544Y-104556976D01*
X112267537Y-104556978D01*
X112077367Y-104630649D01*
X112077356Y-104630655D01*
X111903963Y-104738015D01*
X111903958Y-104738019D01*
X111753234Y-104875423D01*
X111630328Y-105038176D01*
X111539416Y-105220754D01*
X111483602Y-105416921D01*
X111464785Y-105619995D01*
X111464785Y-105620000D01*
X111470324Y-105679780D01*
X111475565Y-105736342D01*
X111462561Y-105812366D01*
X111413287Y-105871703D01*
X111340947Y-105898454D01*
X111264923Y-105885450D01*
X111221841Y-105855448D01*
X111172053Y-105805660D01*
X111133489Y-105738865D01*
X111129048Y-105686552D01*
X111135215Y-105620003D01*
X111135215Y-105619996D01*
X111120878Y-105465281D01*
X111116397Y-105416917D01*
X111060582Y-105220750D01*
X110969673Y-105038179D01*
X110846764Y-104875421D01*
X110696041Y-104738019D01*
X110696036Y-104738015D01*
X110522643Y-104630655D01*
X110522632Y-104630649D01*
X110332462Y-104556978D01*
X110332458Y-104556977D01*
X110332456Y-104556976D01*
X110292360Y-104549480D01*
X110131980Y-104519500D01*
X110131976Y-104519500D01*
X109928024Y-104519500D01*
X109928019Y-104519500D01*
X109727544Y-104556976D01*
X109727537Y-104556978D01*
X109537367Y-104630649D01*
X109537356Y-104630655D01*
X109363963Y-104738015D01*
X109363958Y-104738019D01*
X109213234Y-104875423D01*
X109090325Y-105038180D01*
X108998964Y-105221661D01*
X108947888Y-105279453D01*
X108874758Y-105303963D01*
X108799170Y-105288625D01*
X108741378Y-105237549D01*
X108721662Y-105193810D01*
X108716267Y-105173676D01*
X108716266Y-105173674D01*
X108620132Y-104967515D01*
X108620129Y-104967509D01*
X108569025Y-104894526D01*
X108013787Y-105449764D01*
X108002518Y-105407708D01*
X107930110Y-105282292D01*
X107827708Y-105179890D01*
X107702292Y-105107482D01*
X107660232Y-105096212D01*
X108215472Y-104540973D01*
X108142492Y-104489872D01*
X108142483Y-104489866D01*
X107936325Y-104393733D01*
X107936323Y-104393732D01*
X107716605Y-104334859D01*
X107716606Y-104334859D01*
X107490000Y-104315034D01*
X107263393Y-104334859D01*
X107043676Y-104393732D01*
X107043674Y-104393733D01*
X106837522Y-104489862D01*
X106837517Y-104489865D01*
X106764527Y-104540974D01*
X107319765Y-105096212D01*
X107277708Y-105107482D01*
X107152292Y-105179890D01*
X107049890Y-105282292D01*
X106977482Y-105407708D01*
X106966212Y-105449765D01*
X106410973Y-104894527D01*
X106359865Y-104967517D01*
X106359862Y-104967522D01*
X106263733Y-105173674D01*
X106263732Y-105173676D01*
X106204859Y-105393393D01*
X106185034Y-105620000D01*
X104500500Y-105620000D01*
X104500500Y-76250000D01*
X106250000Y-76250000D01*
X111750000Y-76250000D01*
X111750000Y-71750000D01*
X106250000Y-71750000D01*
X106250000Y-76250000D01*
X104500500Y-76250000D01*
X104500500Y-74003246D01*
X104500642Y-73996747D01*
X104517338Y-73614342D01*
X104518471Y-73601393D01*
X104524893Y-73552613D01*
X104568011Y-73225101D01*
X104570260Y-73212344D01*
X104652410Y-72841790D01*
X104655772Y-72829243D01*
X104673771Y-72772157D01*
X104769898Y-72467278D01*
X104774343Y-72455068D01*
X104785072Y-72429166D01*
X104919580Y-72104434D01*
X104925063Y-72092674D01*
X105100326Y-71755998D01*
X105106804Y-71744778D01*
X105310748Y-71424649D01*
X105318166Y-71414056D01*
X105549238Y-71112917D01*
X105557562Y-71102997D01*
X105813981Y-70823165D01*
X105823169Y-70813978D01*
X105837273Y-70801054D01*
X106102997Y-70557562D01*
X106112917Y-70549238D01*
X106414056Y-70318166D01*
X106424649Y-70310748D01*
X106744778Y-70106804D01*
X106755998Y-70100326D01*
X107092674Y-69925063D01*
X107104434Y-69919580D01*
X107455073Y-69774341D01*
X107467278Y-69769898D01*
X107829246Y-69655771D01*
X107841790Y-69652410D01*
X108212344Y-69570260D01*
X108225101Y-69568011D01*
X108601396Y-69518470D01*
X108614336Y-69517338D01*
X108996748Y-69500642D01*
X109003247Y-69500500D01*
X109065892Y-69500500D01*
X174934108Y-69500500D01*
X174996753Y-69500500D01*
X175003252Y-69500642D01*
G37*
%TD.AperFunction*%
%TD*%
M02*
