%TF.GenerationSoftware,KiCad,Pcbnew,8.0.8*%
%TF.CreationDate,2025-01-20T15:00:30+07:00*%
%TF.ProjectId,Teensy4.0,5465656e-7379-4342-9e30-2e6b69636164,rev?*%
%TF.SameCoordinates,Original*%
%TF.FileFunction,Drillmap*%
%TF.FilePolarity,Positive*%
%FSLAX45Y45*%
G04 Gerber Fmt 4.5, Leading zero omitted, Abs format (unit mm)*
G04 Created by KiCad (PCBNEW 8.0.8) date 2025-01-20 15:00:30*
%MOMM*%
%LPD*%
G01*
G04 APERTURE LIST*
%ADD10C,0.050000*%
%ADD11C,0.200000*%
%ADD12C,0.320000*%
G04 APERTURE END LIST*
D10*
X10900000Y-12700000D02*
X17500000Y-12700000D01*
X18000000Y-12200000D02*
X18000000Y-7400000D01*
X17500000Y-6900000D02*
G75*
G02*
X18000000Y-7400000I0J-500000D01*
G01*
X10900000Y-6900000D02*
X17500000Y-6900000D01*
X10900000Y-12700000D02*
G75*
G02*
X10400000Y-12200000I0J500000D01*
G01*
X18000000Y-12200000D02*
G75*
G02*
X17500000Y-12700000I-500000J0D01*
G01*
X10400000Y-7400000D02*
G75*
G02*
X10900000Y-6900000I500000J0D01*
G01*
X10400000Y-7400000D02*
X10400000Y-12200000D01*
D11*
D12*
X10740000Y-7240000D02*
X11060000Y-7560000D01*
X11060000Y-7240000D02*
X10740000Y-7560000D01*
X10740000Y-12040000D02*
X11060000Y-12360000D01*
X11060000Y-12040000D02*
X10740000Y-12360000D01*
X17340000Y-7240000D02*
X17660000Y-7560000D01*
X17660000Y-7240000D02*
X17340000Y-7560000D01*
X17340000Y-12040000D02*
X17660000Y-12360000D01*
X17660000Y-12040000D02*
X17340000Y-12360000D01*
D11*
X10658277Y-13013984D02*
X10658277Y-12813984D01*
X10658277Y-12813984D02*
X10705896Y-12813984D01*
X10705896Y-12813984D02*
X10734467Y-12823508D01*
X10734467Y-12823508D02*
X10753515Y-12842555D01*
X10753515Y-12842555D02*
X10763039Y-12861603D01*
X10763039Y-12861603D02*
X10772563Y-12899698D01*
X10772563Y-12899698D02*
X10772563Y-12928269D01*
X10772563Y-12928269D02*
X10763039Y-12966365D01*
X10763039Y-12966365D02*
X10753515Y-12985412D01*
X10753515Y-12985412D02*
X10734467Y-13004460D01*
X10734467Y-13004460D02*
X10705896Y-13013984D01*
X10705896Y-13013984D02*
X10658277Y-13013984D01*
X10858277Y-13013984D02*
X10858277Y-12880650D01*
X10858277Y-12918746D02*
X10867801Y-12899698D01*
X10867801Y-12899698D02*
X10877324Y-12890174D01*
X10877324Y-12890174D02*
X10896372Y-12880650D01*
X10896372Y-12880650D02*
X10915420Y-12880650D01*
X10982086Y-13013984D02*
X10982086Y-12880650D01*
X10982086Y-12813984D02*
X10972563Y-12823508D01*
X10972563Y-12823508D02*
X10982086Y-12833031D01*
X10982086Y-12833031D02*
X10991610Y-12823508D01*
X10991610Y-12823508D02*
X10982086Y-12813984D01*
X10982086Y-12813984D02*
X10982086Y-12833031D01*
X11105896Y-13013984D02*
X11086848Y-13004460D01*
X11086848Y-13004460D02*
X11077324Y-12985412D01*
X11077324Y-12985412D02*
X11077324Y-12813984D01*
X11210658Y-13013984D02*
X11191610Y-13004460D01*
X11191610Y-13004460D02*
X11182086Y-12985412D01*
X11182086Y-12985412D02*
X11182086Y-12813984D01*
X11439229Y-13013984D02*
X11439229Y-12813984D01*
X11439229Y-12813984D02*
X11505896Y-12956841D01*
X11505896Y-12956841D02*
X11572562Y-12813984D01*
X11572562Y-12813984D02*
X11572562Y-13013984D01*
X11753515Y-13013984D02*
X11753515Y-12909222D01*
X11753515Y-12909222D02*
X11743991Y-12890174D01*
X11743991Y-12890174D02*
X11724943Y-12880650D01*
X11724943Y-12880650D02*
X11686848Y-12880650D01*
X11686848Y-12880650D02*
X11667801Y-12890174D01*
X11753515Y-13004460D02*
X11734467Y-13013984D01*
X11734467Y-13013984D02*
X11686848Y-13013984D01*
X11686848Y-13013984D02*
X11667801Y-13004460D01*
X11667801Y-13004460D02*
X11658277Y-12985412D01*
X11658277Y-12985412D02*
X11658277Y-12966365D01*
X11658277Y-12966365D02*
X11667801Y-12947317D01*
X11667801Y-12947317D02*
X11686848Y-12937793D01*
X11686848Y-12937793D02*
X11734467Y-12937793D01*
X11734467Y-12937793D02*
X11753515Y-12928269D01*
X11848753Y-12880650D02*
X11848753Y-13080650D01*
X11848753Y-12890174D02*
X11867801Y-12880650D01*
X11867801Y-12880650D02*
X11905896Y-12880650D01*
X11905896Y-12880650D02*
X11924943Y-12890174D01*
X11924943Y-12890174D02*
X11934467Y-12899698D01*
X11934467Y-12899698D02*
X11943991Y-12918746D01*
X11943991Y-12918746D02*
X11943991Y-12975888D01*
X11943991Y-12975888D02*
X11934467Y-12994936D01*
X11934467Y-12994936D02*
X11924943Y-13004460D01*
X11924943Y-13004460D02*
X11905896Y-13013984D01*
X11905896Y-13013984D02*
X11867801Y-13013984D01*
X11867801Y-13013984D02*
X11848753Y-13004460D01*
X12029705Y-12994936D02*
X12039229Y-13004460D01*
X12039229Y-13004460D02*
X12029705Y-13013984D01*
X12029705Y-13013984D02*
X12020182Y-13004460D01*
X12020182Y-13004460D02*
X12029705Y-12994936D01*
X12029705Y-12994936D02*
X12029705Y-13013984D01*
X12029705Y-12890174D02*
X12039229Y-12899698D01*
X12039229Y-12899698D02*
X12029705Y-12909222D01*
X12029705Y-12909222D02*
X12020182Y-12899698D01*
X12020182Y-12899698D02*
X12029705Y-12890174D01*
X12029705Y-12890174D02*
X12029705Y-12909222D01*
X10197500Y-13242500D02*
X10397500Y-13442500D01*
X10397500Y-13242500D02*
X10197500Y-13442500D01*
X10639229Y-13233984D02*
X10763039Y-13233984D01*
X10763039Y-13233984D02*
X10696372Y-13310174D01*
X10696372Y-13310174D02*
X10724944Y-13310174D01*
X10724944Y-13310174D02*
X10743991Y-13319698D01*
X10743991Y-13319698D02*
X10753515Y-13329222D01*
X10753515Y-13329222D02*
X10763039Y-13348269D01*
X10763039Y-13348269D02*
X10763039Y-13395888D01*
X10763039Y-13395888D02*
X10753515Y-13414936D01*
X10753515Y-13414936D02*
X10743991Y-13424460D01*
X10743991Y-13424460D02*
X10724944Y-13433984D01*
X10724944Y-13433984D02*
X10667801Y-13433984D01*
X10667801Y-13433984D02*
X10648753Y-13424460D01*
X10648753Y-13424460D02*
X10639229Y-13414936D01*
X10848753Y-13414936D02*
X10858277Y-13424460D01*
X10858277Y-13424460D02*
X10848753Y-13433984D01*
X10848753Y-13433984D02*
X10839229Y-13424460D01*
X10839229Y-13424460D02*
X10848753Y-13414936D01*
X10848753Y-13414936D02*
X10848753Y-13433984D01*
X10934467Y-13253031D02*
X10943991Y-13243508D01*
X10943991Y-13243508D02*
X10963039Y-13233984D01*
X10963039Y-13233984D02*
X11010658Y-13233984D01*
X11010658Y-13233984D02*
X11029705Y-13243508D01*
X11029705Y-13243508D02*
X11039229Y-13253031D01*
X11039229Y-13253031D02*
X11048753Y-13272079D01*
X11048753Y-13272079D02*
X11048753Y-13291127D01*
X11048753Y-13291127D02*
X11039229Y-13319698D01*
X11039229Y-13319698D02*
X10924944Y-13433984D01*
X10924944Y-13433984D02*
X11048753Y-13433984D01*
X11172563Y-13233984D02*
X11191610Y-13233984D01*
X11191610Y-13233984D02*
X11210658Y-13243508D01*
X11210658Y-13243508D02*
X11220182Y-13253031D01*
X11220182Y-13253031D02*
X11229705Y-13272079D01*
X11229705Y-13272079D02*
X11239229Y-13310174D01*
X11239229Y-13310174D02*
X11239229Y-13357793D01*
X11239229Y-13357793D02*
X11229705Y-13395888D01*
X11229705Y-13395888D02*
X11220182Y-13414936D01*
X11220182Y-13414936D02*
X11210658Y-13424460D01*
X11210658Y-13424460D02*
X11191610Y-13433984D01*
X11191610Y-13433984D02*
X11172563Y-13433984D01*
X11172563Y-13433984D02*
X11153515Y-13424460D01*
X11153515Y-13424460D02*
X11143991Y-13414936D01*
X11143991Y-13414936D02*
X11134467Y-13395888D01*
X11134467Y-13395888D02*
X11124944Y-13357793D01*
X11124944Y-13357793D02*
X11124944Y-13310174D01*
X11124944Y-13310174D02*
X11134467Y-13272079D01*
X11134467Y-13272079D02*
X11143991Y-13253031D01*
X11143991Y-13253031D02*
X11153515Y-13243508D01*
X11153515Y-13243508D02*
X11172563Y-13233984D01*
X11363039Y-13233984D02*
X11382086Y-13233984D01*
X11382086Y-13233984D02*
X11401134Y-13243508D01*
X11401134Y-13243508D02*
X11410658Y-13253031D01*
X11410658Y-13253031D02*
X11420182Y-13272079D01*
X11420182Y-13272079D02*
X11429705Y-13310174D01*
X11429705Y-13310174D02*
X11429705Y-13357793D01*
X11429705Y-13357793D02*
X11420182Y-13395888D01*
X11420182Y-13395888D02*
X11410658Y-13414936D01*
X11410658Y-13414936D02*
X11401134Y-13424460D01*
X11401134Y-13424460D02*
X11382086Y-13433984D01*
X11382086Y-13433984D02*
X11363039Y-13433984D01*
X11363039Y-13433984D02*
X11343991Y-13424460D01*
X11343991Y-13424460D02*
X11334467Y-13414936D01*
X11334467Y-13414936D02*
X11324943Y-13395888D01*
X11324943Y-13395888D02*
X11315420Y-13357793D01*
X11315420Y-13357793D02*
X11315420Y-13310174D01*
X11315420Y-13310174D02*
X11324943Y-13272079D01*
X11324943Y-13272079D02*
X11334467Y-13253031D01*
X11334467Y-13253031D02*
X11343991Y-13243508D01*
X11343991Y-13243508D02*
X11363039Y-13233984D01*
X11515420Y-13433984D02*
X11515420Y-13300650D01*
X11515420Y-13319698D02*
X11524943Y-13310174D01*
X11524943Y-13310174D02*
X11543991Y-13300650D01*
X11543991Y-13300650D02*
X11572563Y-13300650D01*
X11572563Y-13300650D02*
X11591610Y-13310174D01*
X11591610Y-13310174D02*
X11601134Y-13329222D01*
X11601134Y-13329222D02*
X11601134Y-13433984D01*
X11601134Y-13329222D02*
X11610658Y-13310174D01*
X11610658Y-13310174D02*
X11629705Y-13300650D01*
X11629705Y-13300650D02*
X11658277Y-13300650D01*
X11658277Y-13300650D02*
X11677324Y-13310174D01*
X11677324Y-13310174D02*
X11686848Y-13329222D01*
X11686848Y-13329222D02*
X11686848Y-13433984D01*
X11782086Y-13433984D02*
X11782086Y-13300650D01*
X11782086Y-13319698D02*
X11791610Y-13310174D01*
X11791610Y-13310174D02*
X11810658Y-13300650D01*
X11810658Y-13300650D02*
X11839229Y-13300650D01*
X11839229Y-13300650D02*
X11858277Y-13310174D01*
X11858277Y-13310174D02*
X11867801Y-13329222D01*
X11867801Y-13329222D02*
X11867801Y-13433984D01*
X11867801Y-13329222D02*
X11877324Y-13310174D01*
X11877324Y-13310174D02*
X11896372Y-13300650D01*
X11896372Y-13300650D02*
X11924943Y-13300650D01*
X11924943Y-13300650D02*
X11943991Y-13310174D01*
X11943991Y-13310174D02*
X11953515Y-13329222D01*
X11953515Y-13329222D02*
X11953515Y-13433984D01*
X12343991Y-13224460D02*
X12172563Y-13481603D01*
X12601134Y-13233984D02*
X12620182Y-13233984D01*
X12620182Y-13233984D02*
X12639229Y-13243508D01*
X12639229Y-13243508D02*
X12648753Y-13253031D01*
X12648753Y-13253031D02*
X12658277Y-13272079D01*
X12658277Y-13272079D02*
X12667801Y-13310174D01*
X12667801Y-13310174D02*
X12667801Y-13357793D01*
X12667801Y-13357793D02*
X12658277Y-13395888D01*
X12658277Y-13395888D02*
X12648753Y-13414936D01*
X12648753Y-13414936D02*
X12639229Y-13424460D01*
X12639229Y-13424460D02*
X12620182Y-13433984D01*
X12620182Y-13433984D02*
X12601134Y-13433984D01*
X12601134Y-13433984D02*
X12582086Y-13424460D01*
X12582086Y-13424460D02*
X12572563Y-13414936D01*
X12572563Y-13414936D02*
X12563039Y-13395888D01*
X12563039Y-13395888D02*
X12553515Y-13357793D01*
X12553515Y-13357793D02*
X12553515Y-13310174D01*
X12553515Y-13310174D02*
X12563039Y-13272079D01*
X12563039Y-13272079D02*
X12572563Y-13253031D01*
X12572563Y-13253031D02*
X12582086Y-13243508D01*
X12582086Y-13243508D02*
X12601134Y-13233984D01*
X12753515Y-13414936D02*
X12763039Y-13424460D01*
X12763039Y-13424460D02*
X12753515Y-13433984D01*
X12753515Y-13433984D02*
X12743991Y-13424460D01*
X12743991Y-13424460D02*
X12753515Y-13414936D01*
X12753515Y-13414936D02*
X12753515Y-13433984D01*
X12953515Y-13433984D02*
X12839229Y-13433984D01*
X12896372Y-13433984D02*
X12896372Y-13233984D01*
X12896372Y-13233984D02*
X12877325Y-13262555D01*
X12877325Y-13262555D02*
X12858277Y-13281603D01*
X12858277Y-13281603D02*
X12839229Y-13291127D01*
X13029706Y-13253031D02*
X13039229Y-13243508D01*
X13039229Y-13243508D02*
X13058277Y-13233984D01*
X13058277Y-13233984D02*
X13105896Y-13233984D01*
X13105896Y-13233984D02*
X13124944Y-13243508D01*
X13124944Y-13243508D02*
X13134467Y-13253031D01*
X13134467Y-13253031D02*
X13143991Y-13272079D01*
X13143991Y-13272079D02*
X13143991Y-13291127D01*
X13143991Y-13291127D02*
X13134467Y-13319698D01*
X13134467Y-13319698D02*
X13020182Y-13433984D01*
X13020182Y-13433984D02*
X13143991Y-13433984D01*
X13315420Y-13233984D02*
X13277325Y-13233984D01*
X13277325Y-13233984D02*
X13258277Y-13243508D01*
X13258277Y-13243508D02*
X13248753Y-13253031D01*
X13248753Y-13253031D02*
X13229706Y-13281603D01*
X13229706Y-13281603D02*
X13220182Y-13319698D01*
X13220182Y-13319698D02*
X13220182Y-13395888D01*
X13220182Y-13395888D02*
X13229706Y-13414936D01*
X13229706Y-13414936D02*
X13239229Y-13424460D01*
X13239229Y-13424460D02*
X13258277Y-13433984D01*
X13258277Y-13433984D02*
X13296372Y-13433984D01*
X13296372Y-13433984D02*
X13315420Y-13424460D01*
X13315420Y-13424460D02*
X13324944Y-13414936D01*
X13324944Y-13414936D02*
X13334467Y-13395888D01*
X13334467Y-13395888D02*
X13334467Y-13348269D01*
X13334467Y-13348269D02*
X13324944Y-13329222D01*
X13324944Y-13329222D02*
X13315420Y-13319698D01*
X13315420Y-13319698D02*
X13296372Y-13310174D01*
X13296372Y-13310174D02*
X13258277Y-13310174D01*
X13258277Y-13310174D02*
X13239229Y-13319698D01*
X13239229Y-13319698D02*
X13229706Y-13329222D01*
X13229706Y-13329222D02*
X13220182Y-13348269D01*
X13458277Y-13233984D02*
X13477325Y-13233984D01*
X13477325Y-13233984D02*
X13496372Y-13243508D01*
X13496372Y-13243508D02*
X13505896Y-13253031D01*
X13505896Y-13253031D02*
X13515420Y-13272079D01*
X13515420Y-13272079D02*
X13524944Y-13310174D01*
X13524944Y-13310174D02*
X13524944Y-13357793D01*
X13524944Y-13357793D02*
X13515420Y-13395888D01*
X13515420Y-13395888D02*
X13505896Y-13414936D01*
X13505896Y-13414936D02*
X13496372Y-13424460D01*
X13496372Y-13424460D02*
X13477325Y-13433984D01*
X13477325Y-13433984D02*
X13458277Y-13433984D01*
X13458277Y-13433984D02*
X13439229Y-13424460D01*
X13439229Y-13424460D02*
X13429706Y-13414936D01*
X13429706Y-13414936D02*
X13420182Y-13395888D01*
X13420182Y-13395888D02*
X13410658Y-13357793D01*
X13410658Y-13357793D02*
X13410658Y-13310174D01*
X13410658Y-13310174D02*
X13420182Y-13272079D01*
X13420182Y-13272079D02*
X13429706Y-13253031D01*
X13429706Y-13253031D02*
X13439229Y-13243508D01*
X13439229Y-13243508D02*
X13458277Y-13233984D01*
X13601134Y-13233984D02*
X13601134Y-13272079D01*
X13677325Y-13233984D02*
X13677325Y-13272079D01*
X13972563Y-13510174D02*
X13963039Y-13500650D01*
X13963039Y-13500650D02*
X13943991Y-13472079D01*
X13943991Y-13472079D02*
X13934468Y-13453031D01*
X13934468Y-13453031D02*
X13924944Y-13424460D01*
X13924944Y-13424460D02*
X13915420Y-13376841D01*
X13915420Y-13376841D02*
X13915420Y-13338746D01*
X13915420Y-13338746D02*
X13924944Y-13291127D01*
X13924944Y-13291127D02*
X13934468Y-13262555D01*
X13934468Y-13262555D02*
X13943991Y-13243508D01*
X13943991Y-13243508D02*
X13963039Y-13214936D01*
X13963039Y-13214936D02*
X13972563Y-13205412D01*
X14134468Y-13300650D02*
X14134468Y-13433984D01*
X14086848Y-13224460D02*
X14039229Y-13367317D01*
X14039229Y-13367317D02*
X14163039Y-13367317D01*
X14391610Y-13433984D02*
X14391610Y-13233984D01*
X14477325Y-13433984D02*
X14477325Y-13329222D01*
X14477325Y-13329222D02*
X14467801Y-13310174D01*
X14467801Y-13310174D02*
X14448753Y-13300650D01*
X14448753Y-13300650D02*
X14420182Y-13300650D01*
X14420182Y-13300650D02*
X14401134Y-13310174D01*
X14401134Y-13310174D02*
X14391610Y-13319698D01*
X14601134Y-13433984D02*
X14582087Y-13424460D01*
X14582087Y-13424460D02*
X14572563Y-13414936D01*
X14572563Y-13414936D02*
X14563039Y-13395888D01*
X14563039Y-13395888D02*
X14563039Y-13338746D01*
X14563039Y-13338746D02*
X14572563Y-13319698D01*
X14572563Y-13319698D02*
X14582087Y-13310174D01*
X14582087Y-13310174D02*
X14601134Y-13300650D01*
X14601134Y-13300650D02*
X14629706Y-13300650D01*
X14629706Y-13300650D02*
X14648753Y-13310174D01*
X14648753Y-13310174D02*
X14658277Y-13319698D01*
X14658277Y-13319698D02*
X14667801Y-13338746D01*
X14667801Y-13338746D02*
X14667801Y-13395888D01*
X14667801Y-13395888D02*
X14658277Y-13414936D01*
X14658277Y-13414936D02*
X14648753Y-13424460D01*
X14648753Y-13424460D02*
X14629706Y-13433984D01*
X14629706Y-13433984D02*
X14601134Y-13433984D01*
X14782087Y-13433984D02*
X14763039Y-13424460D01*
X14763039Y-13424460D02*
X14753515Y-13405412D01*
X14753515Y-13405412D02*
X14753515Y-13233984D01*
X14934468Y-13424460D02*
X14915420Y-13433984D01*
X14915420Y-13433984D02*
X14877325Y-13433984D01*
X14877325Y-13433984D02*
X14858277Y-13424460D01*
X14858277Y-13424460D02*
X14848753Y-13405412D01*
X14848753Y-13405412D02*
X14848753Y-13329222D01*
X14848753Y-13329222D02*
X14858277Y-13310174D01*
X14858277Y-13310174D02*
X14877325Y-13300650D01*
X14877325Y-13300650D02*
X14915420Y-13300650D01*
X14915420Y-13300650D02*
X14934468Y-13310174D01*
X14934468Y-13310174D02*
X14943991Y-13329222D01*
X14943991Y-13329222D02*
X14943991Y-13348269D01*
X14943991Y-13348269D02*
X14848753Y-13367317D01*
X15020182Y-13424460D02*
X15039230Y-13433984D01*
X15039230Y-13433984D02*
X15077325Y-13433984D01*
X15077325Y-13433984D02*
X15096372Y-13424460D01*
X15096372Y-13424460D02*
X15105896Y-13405412D01*
X15105896Y-13405412D02*
X15105896Y-13395888D01*
X15105896Y-13395888D02*
X15096372Y-13376841D01*
X15096372Y-13376841D02*
X15077325Y-13367317D01*
X15077325Y-13367317D02*
X15048753Y-13367317D01*
X15048753Y-13367317D02*
X15029706Y-13357793D01*
X15029706Y-13357793D02*
X15020182Y-13338746D01*
X15020182Y-13338746D02*
X15020182Y-13329222D01*
X15020182Y-13329222D02*
X15029706Y-13310174D01*
X15029706Y-13310174D02*
X15048753Y-13300650D01*
X15048753Y-13300650D02*
X15077325Y-13300650D01*
X15077325Y-13300650D02*
X15096372Y-13310174D01*
X15172563Y-13510174D02*
X15182087Y-13500650D01*
X15182087Y-13500650D02*
X15201134Y-13472079D01*
X15201134Y-13472079D02*
X15210658Y-13453031D01*
X15210658Y-13453031D02*
X15220182Y-13424460D01*
X15220182Y-13424460D02*
X15229706Y-13376841D01*
X15229706Y-13376841D02*
X15229706Y-13338746D01*
X15229706Y-13338746D02*
X15220182Y-13291127D01*
X15220182Y-13291127D02*
X15210658Y-13262555D01*
X15210658Y-13262555D02*
X15201134Y-13243508D01*
X15201134Y-13243508D02*
X15182087Y-13214936D01*
X15182087Y-13214936D02*
X15172563Y-13205412D01*
X15534468Y-13510174D02*
X15524944Y-13500650D01*
X15524944Y-13500650D02*
X15505896Y-13472079D01*
X15505896Y-13472079D02*
X15496372Y-13453031D01*
X15496372Y-13453031D02*
X15486849Y-13424460D01*
X15486849Y-13424460D02*
X15477325Y-13376841D01*
X15477325Y-13376841D02*
X15477325Y-13338746D01*
X15477325Y-13338746D02*
X15486849Y-13291127D01*
X15486849Y-13291127D02*
X15496372Y-13262555D01*
X15496372Y-13262555D02*
X15505896Y-13243508D01*
X15505896Y-13243508D02*
X15524944Y-13214936D01*
X15524944Y-13214936D02*
X15534468Y-13205412D01*
X15610658Y-13300650D02*
X15610658Y-13433984D01*
X15610658Y-13319698D02*
X15620182Y-13310174D01*
X15620182Y-13310174D02*
X15639230Y-13300650D01*
X15639230Y-13300650D02*
X15667801Y-13300650D01*
X15667801Y-13300650D02*
X15686849Y-13310174D01*
X15686849Y-13310174D02*
X15696372Y-13329222D01*
X15696372Y-13329222D02*
X15696372Y-13433984D01*
X15820182Y-13433984D02*
X15801134Y-13424460D01*
X15801134Y-13424460D02*
X15791611Y-13414936D01*
X15791611Y-13414936D02*
X15782087Y-13395888D01*
X15782087Y-13395888D02*
X15782087Y-13338746D01*
X15782087Y-13338746D02*
X15791611Y-13319698D01*
X15791611Y-13319698D02*
X15801134Y-13310174D01*
X15801134Y-13310174D02*
X15820182Y-13300650D01*
X15820182Y-13300650D02*
X15848753Y-13300650D01*
X15848753Y-13300650D02*
X15867801Y-13310174D01*
X15867801Y-13310174D02*
X15877325Y-13319698D01*
X15877325Y-13319698D02*
X15886849Y-13338746D01*
X15886849Y-13338746D02*
X15886849Y-13395888D01*
X15886849Y-13395888D02*
X15877325Y-13414936D01*
X15877325Y-13414936D02*
X15867801Y-13424460D01*
X15867801Y-13424460D02*
X15848753Y-13433984D01*
X15848753Y-13433984D02*
X15820182Y-13433984D01*
X15943992Y-13300650D02*
X16020182Y-13300650D01*
X15972563Y-13233984D02*
X15972563Y-13405412D01*
X15972563Y-13405412D02*
X15982087Y-13424460D01*
X15982087Y-13424460D02*
X16001134Y-13433984D01*
X16001134Y-13433984D02*
X16020182Y-13433984D01*
X16239230Y-13300650D02*
X16239230Y-13500650D01*
X16239230Y-13310174D02*
X16258277Y-13300650D01*
X16258277Y-13300650D02*
X16296373Y-13300650D01*
X16296373Y-13300650D02*
X16315420Y-13310174D01*
X16315420Y-13310174D02*
X16324944Y-13319698D01*
X16324944Y-13319698D02*
X16334468Y-13338746D01*
X16334468Y-13338746D02*
X16334468Y-13395888D01*
X16334468Y-13395888D02*
X16324944Y-13414936D01*
X16324944Y-13414936D02*
X16315420Y-13424460D01*
X16315420Y-13424460D02*
X16296373Y-13433984D01*
X16296373Y-13433984D02*
X16258277Y-13433984D01*
X16258277Y-13433984D02*
X16239230Y-13424460D01*
X16448753Y-13433984D02*
X16429706Y-13424460D01*
X16429706Y-13424460D02*
X16420182Y-13405412D01*
X16420182Y-13405412D02*
X16420182Y-13233984D01*
X16610658Y-13433984D02*
X16610658Y-13329222D01*
X16610658Y-13329222D02*
X16601134Y-13310174D01*
X16601134Y-13310174D02*
X16582087Y-13300650D01*
X16582087Y-13300650D02*
X16543992Y-13300650D01*
X16543992Y-13300650D02*
X16524944Y-13310174D01*
X16610658Y-13424460D02*
X16591611Y-13433984D01*
X16591611Y-13433984D02*
X16543992Y-13433984D01*
X16543992Y-13433984D02*
X16524944Y-13424460D01*
X16524944Y-13424460D02*
X16515420Y-13405412D01*
X16515420Y-13405412D02*
X16515420Y-13386365D01*
X16515420Y-13386365D02*
X16524944Y-13367317D01*
X16524944Y-13367317D02*
X16543992Y-13357793D01*
X16543992Y-13357793D02*
X16591611Y-13357793D01*
X16591611Y-13357793D02*
X16610658Y-13348269D01*
X16677325Y-13300650D02*
X16753515Y-13300650D01*
X16705896Y-13233984D02*
X16705896Y-13405412D01*
X16705896Y-13405412D02*
X16715420Y-13424460D01*
X16715420Y-13424460D02*
X16734468Y-13433984D01*
X16734468Y-13433984D02*
X16753515Y-13433984D01*
X16896373Y-13424460D02*
X16877325Y-13433984D01*
X16877325Y-13433984D02*
X16839230Y-13433984D01*
X16839230Y-13433984D02*
X16820182Y-13424460D01*
X16820182Y-13424460D02*
X16810658Y-13405412D01*
X16810658Y-13405412D02*
X16810658Y-13329222D01*
X16810658Y-13329222D02*
X16820182Y-13310174D01*
X16820182Y-13310174D02*
X16839230Y-13300650D01*
X16839230Y-13300650D02*
X16877325Y-13300650D01*
X16877325Y-13300650D02*
X16896373Y-13310174D01*
X16896373Y-13310174D02*
X16905896Y-13329222D01*
X16905896Y-13329222D02*
X16905896Y-13348269D01*
X16905896Y-13348269D02*
X16810658Y-13367317D01*
X17077325Y-13433984D02*
X17077325Y-13233984D01*
X17077325Y-13424460D02*
X17058277Y-13433984D01*
X17058277Y-13433984D02*
X17020182Y-13433984D01*
X17020182Y-13433984D02*
X17001135Y-13424460D01*
X17001135Y-13424460D02*
X16991611Y-13414936D01*
X16991611Y-13414936D02*
X16982087Y-13395888D01*
X16982087Y-13395888D02*
X16982087Y-13338746D01*
X16982087Y-13338746D02*
X16991611Y-13319698D01*
X16991611Y-13319698D02*
X17001135Y-13310174D01*
X17001135Y-13310174D02*
X17020182Y-13300650D01*
X17020182Y-13300650D02*
X17058277Y-13300650D01*
X17058277Y-13300650D02*
X17077325Y-13310174D01*
X17153516Y-13510174D02*
X17163039Y-13500650D01*
X17163039Y-13500650D02*
X17182087Y-13472079D01*
X17182087Y-13472079D02*
X17191611Y-13453031D01*
X17191611Y-13453031D02*
X17201135Y-13424460D01*
X17201135Y-13424460D02*
X17210658Y-13376841D01*
X17210658Y-13376841D02*
X17210658Y-13338746D01*
X17210658Y-13338746D02*
X17201135Y-13291127D01*
X17201135Y-13291127D02*
X17191611Y-13262555D01*
X17191611Y-13262555D02*
X17182087Y-13243508D01*
X17182087Y-13243508D02*
X17163039Y-13214936D01*
X17163039Y-13214936D02*
X17153516Y-13205412D01*
M02*
